{
 "cells": [
  {
   "cell_type": "code",
   "execution_count": 6,
   "metadata": {},
   "outputs": [],
   "source": [
    "import librosa"
   ]
  },
  {
   "cell_type": "code",
   "execution_count": 4,
   "metadata": {
    "collapsed": true
   },
   "outputs": [],
   "source": [
    "import sys\n",
    "sys.path.insert(0, \"/home/jheuristic/.local/lib/python2.7/site-packages/\")"
   ]
  },
  {
   "cell_type": "code",
   "execution_count": null,
   "metadata": {
    "collapsed": true
   },
   "outputs": [],
   "source": [
    "import os"
   ]
  },
  {
   "cell_type": "code",
   "execution_count": 5,
   "metadata": {
    "collapsed": true
   },
   "outputs": [
    {
     "name": "stdout",
     "output_type": "stream",
     "text": [
      "Collecting librosa\n",
      "Requirement already satisfied: numpy>=1.8.0 in /opt/conda/anaconda3/envs/py2/lib/python2.7/site-packages (from librosa)\n",
      "Requirement already satisfied: scipy>=0.14.0 in /opt/conda/anaconda3/envs/py2/lib/python2.7/site-packages (from librosa)\n",
      "Requirement already satisfied: six>=1.3 in /opt/conda/anaconda3/envs/py2/lib/python2.7/site-packages (from librosa)\n",
      "Collecting resampy>=0.2.0 (from librosa)\n",
      "Requirement already satisfied: decorator>=3.0.0 in /opt/conda/anaconda3/envs/py2/lib/python2.7/site-packages (from librosa)\n",
      "Collecting audioread>=2.0.0 (from librosa)\n",
      "Requirement already satisfied: scikit-learn!=0.19.0,>=0.14.0 in /opt/conda/anaconda3/envs/py2/lib/python2.7/site-packages (from librosa)\n",
      "Collecting joblib>=0.7.0 (from librosa)\n",
      "  Using cached joblib-0.11-py2.py3-none-any.whl\n",
      "Collecting numba>=0.32 (from resampy>=0.2.0->librosa)\n",
      "  Using cached numba-0.37.0-cp27-cp27mu-manylinux1_x86_64.whl\n",
      "Requirement already satisfied: singledispatch in /opt/conda/anaconda3/envs/py2/lib/python2.7/site-packages (from numba>=0.32->resampy>=0.2.0->librosa)\n",
      "Requirement already satisfied: enum34 in /opt/conda/anaconda3/envs/py2/lib/python2.7/site-packages (from numba>=0.32->resampy>=0.2.0->librosa)\n",
      "Collecting funcsigs (from numba>=0.32->resampy>=0.2.0->librosa)\n",
      "  Using cached funcsigs-1.0.2-py2.py3-none-any.whl\n",
      "Collecting llvmlite>=0.22.0.dev0 (from numba>=0.32->resampy>=0.2.0->librosa)\n",
      "  Using cached llvmlite-0.22.0-cp27-cp27mu-manylinux1_x86_64.whl\n",
      "Installing collected packages: funcsigs, llvmlite, numba, resampy, audioread, joblib, librosa\n",
      "Successfully installed audioread-2.1.5 funcsigs-1.0.2 joblib-0.11 librosa-0.6.0 llvmlite-0.22.0 numba-0.37.0 resampy-0.2.0\n"
     ]
    },
    {
     "name": "stderr",
     "output_type": "stream",
     "text": [
      "You are using pip version 9.0.1, however version 9.0.3 is available.\n",
      "You should consider upgrading via the 'pip install --upgrade pip' command.\n"
     ]
    }
   ],
   "source": [
    "%%bash\n",
    "source activate py2\n",
    "pip install librosa --user"
   ]
  },
  {
   "cell_type": "code",
   "execution_count": 7,
   "metadata": {
    "collapsed": true
   },
   "outputs": [],
   "source": [
    "y, sr = librosa.load(\"Test/009count.mid.wav\")"
   ]
  },
  {
   "cell_type": "code",
   "execution_count": 9,
   "metadata": {},
   "outputs": [
    {
     "data": {
      "text/plain": [
       "300.0707029478458"
      ]
     },
     "execution_count": 9,
     "metadata": {},
     "output_type": "execute_result"
    }
   ],
   "source": [
    "len(y)/float(sr)"
   ]
  },
  {
   "cell_type": "code",
   "execution_count": 10,
   "metadata": {
    "collapsed": true
   },
   "outputs": [],
   "source": [
    "import midi"
   ]
  },
  {
   "cell_type": "code",
   "execution_count": 11,
   "metadata": {
    "collapsed": true
   },
   "outputs": [],
   "source": [
    "pattern = midi.read_midifile(\"Test/009count.mid\")"
   ]
  },
  {
   "cell_type": "code",
   "execution_count": 32,
   "metadata": {},
   "outputs": [
    {
     "data": {
      "text/plain": [
       "midi.Pattern(format=1, resolution=96, tracks=\\\n",
       "[midi.Track(\\\n",
       "  [midi.PortEvent(tick=0, data=[0]),\n",
       "   midi.SysexEvent(tick=0, channel=0, data=[10, 65, 16, 66, 18, 64, 0, 127, 0, 65]),\n",
       "   midi.PortEvent(tick=0, data=[0]),\n",
       "   midi.TimeSignatureEvent(tick=0, data=[4, 2, 24, 8]),\n",
       "   midi.KeySignatureEvent(tick=0, data=[0, 0]),\n",
       "   midi.SetTempoEvent(tick=0, data=[12, 229, 14]),\n",
       "   midi.MarkerEvent(tick=0, text='MANDOLIN RAIN', data=[77, 65, 78, 68, 79, 76, 73, 78, 32, 82, 65, 73, 78]),\n",
       "   midi.EndOfTrackEvent(tick=0, data=[])]),\n",
       " midi.Track(\\\n",
       "  [midi.PortEvent(tick=0, data=[0]),\n",
       "   midi.ProgramChangeEvent(tick=0, channel=0, data=[1]),\n",
       "   midi.ControlChangeEvent(tick=0, channel=0, data=[7, 127]),\n",
       "   midi.ControlChangeEvent(tick=0, channel=0, data=[10, 50]),\n",
       "   midi.ControlChangeEvent(tick=0, channel=0, data=[91, 87]),\n",
       "   midi.NoteOnEvent(tick=288, channel=0, data=[74, 110]),\n",
       "   midi.NoteOnEvent(tick=288, channel=0, data=[62, 93]),\n",
       "   midi.NoteOnEvent(tick=304, channel=0, data=[74, 0]),\n",
       "   midi.NoteOnEvent(tick=308, channel=0, data=[62, 0]),\n",
       "   midi.NoteOnEvent(tick=312, channel=0, data=[76, 103]),\n",
       "   midi.NoteOnEvent(tick=312, channel=0, data=[64, 95]),\n",
       "   midi.NoteOnEvent(tick=328, channel=0, data=[76, 0]),\n",
       "   midi.NoteOnEvent(tick=336, channel=0, data=[64, 0]),\n",
       "   midi.NoteOnEvent(tick=336, channel=0, data=[79, 105]),\n",
       "   midi.NoteOnEvent(tick=336, channel=0, data=[74, 112]),\n",
       "   midi.NoteOnEvent(tick=336, channel=0, data=[67, 100]),\n",
       "   midi.NoteOnEvent(tick=356, channel=0, data=[67, 0]),\n",
       "   midi.NoteOnEvent(tick=364, channel=0, data=[74, 0]),\n",
       "   midi.NoteOnEvent(tick=364, channel=0, data=[79, 0]),\n",
       "   midi.ControlChangeEvent(tick=384, channel=0, data=[64, 0]),\n",
       "   midi.NoteOnEvent(tick=384, channel=0, data=[81, 103]),\n",
       "   midi.NoteOnEvent(tick=384, channel=0, data=[72, 114]),\n",
       "   midi.NoteOnEvent(tick=384, channel=0, data=[76, 117]),\n",
       "   midi.NoteOnEvent(tick=384, channel=0, data=[64, 89]),\n",
       "   midi.NoteOnEvent(tick=384, channel=0, data=[60, 87]),\n",
       "   midi.NoteOnEvent(tick=384, channel=0, data=[57, 86]),\n",
       "   midi.NoteOnEvent(tick=404, channel=0, data=[64, 0]),\n",
       "   midi.ControlChangeEvent(tick=408, channel=0, data=[64, 127]),\n",
       "   midi.NoteOnEvent(tick=432, channel=0, data=[64, 110]),\n",
       "   midi.NoteOnEvent(tick=436, channel=0, data=[76, 0]),\n",
       "   midi.NoteOnEvent(tick=436, channel=0, data=[81, 0]),\n",
       "   midi.NoteOnEvent(tick=436, channel=0, data=[72, 0]),\n",
       "   midi.NoteOnEvent(tick=456, channel=0, data=[79, 106]),\n",
       "   midi.NoteOnEvent(tick=456, channel=0, data=[72, 119]),\n",
       "   midi.NoteOnEvent(tick=456, channel=0, data=[74, 121]),\n",
       "   midi.NoteOnEvent(tick=480, channel=0, data=[74, 0]),\n",
       "   midi.NoteOnEvent(tick=480, channel=0, data=[60, 0]),\n",
       "   midi.NoteOnEvent(tick=484, channel=0, data=[79, 0]),\n",
       "   midi.NoteOnEvent(tick=484, channel=0, data=[57, 0]),\n",
       "   midi.NoteOnEvent(tick=484, channel=0, data=[64, 0]),\n",
       "   midi.NoteOnEvent(tick=484, channel=0, data=[72, 0]),\n",
       "   midi.ControlChangeEvent(tick=528, channel=0, data=[64, 0]),\n",
       "   midi.NoteOnEvent(tick=528, channel=0, data=[59, 89]),\n",
       "   midi.NoteOnEvent(tick=528, channel=0, data=[74, 119]),\n",
       "   midi.NoteOnEvent(tick=528, channel=0, data=[79, 105]),\n",
       "   midi.NoteOnEvent(tick=528, channel=0, data=[71, 108]),\n",
       "   midi.NoteOnEvent(tick=528, channel=0, data=[62, 90]),\n",
       "   midi.NoteOnEvent(tick=528, channel=0, data=[55, 95]),\n",
       "   midi.NoteOnEvent(tick=560, channel=0, data=[71, 0]),\n",
       "   midi.ControlChangeEvent(tick=576, channel=0, data=[64, 127]),\n",
       "   midi.NoteOnEvent(tick=576, channel=0, data=[71, 77]),\n",
       "   midi.NoteOnEvent(tick=584, channel=0, data=[62, 0]),\n",
       "   midi.NoteOnEvent(tick=636, channel=0, data=[79, 0]),\n",
       "   midi.NoteOnEvent(tick=636, channel=0, data=[74, 0]),\n",
       "   midi.NoteOnEvent(tick=644, channel=0, data=[71, 0]),\n",
       "   midi.NoteOnEvent(tick=648, channel=0, data=[62, 106]),\n",
       "   midi.NoteOnEvent(tick=672, channel=0, data=[76, 106]),\n",
       "   midi.NoteOnEvent(tick=672, channel=0, data=[71, 106]),\n",
       "   midi.NoteOnEvent(tick=672, channel=0, data=[67, 117]),\n",
       "   midi.NoteOnEvent(tick=692, channel=0, data=[76, 0]),\n",
       "   midi.NoteOnEvent(tick=696, channel=0, data=[71, 0]),\n",
       "   midi.NoteOnEvent(tick=696, channel=0, data=[74, 99]),\n",
       "   midi.NoteOnEvent(tick=716, channel=0, data=[74, 0]),\n",
       "   midi.NoteOnEvent(tick=720, channel=0, data=[62, 0]),\n",
       "   midi.NoteOnEvent(tick=720, channel=0, data=[71, 95]),\n",
       "   midi.NoteOnEvent(tick=744, channel=0, data=[67, 0]),\n",
       "   midi.NoteOnEvent(tick=744, channel=0, data=[62, 79]),\n",
       "   midi.NoteOnEvent(tick=748, channel=0, data=[62, 0]),\n",
       "   midi.NoteOnEvent(tick=748, channel=0, data=[71, 0]),\n",
       "   midi.NoteOnEvent(tick=748, channel=0, data=[59, 0]),\n",
       "   midi.NoteOnEvent(tick=748, channel=0, data=[55, 0]),\n",
       "   midi.ControlChangeEvent(tick=768, channel=0, data=[64, 0]),\n",
       "   midi.NoteOnEvent(tick=768, channel=0, data=[74, 117]),\n",
       "   midi.NoteOnEvent(tick=768, channel=0, data=[67, 117]),\n",
       "   midi.NoteOnEvent(tick=768, channel=0, data=[71, 106]),\n",
       "   midi.NoteOnEvent(tick=768, channel=0, data=[59, 99]),\n",
       "   midi.NoteOnEvent(tick=768, channel=0, data=[55, 96]),\n",
       "   midi.NoteOnEvent(tick=768, channel=0, data=[52, 86]),\n",
       "   midi.ControlChangeEvent(tick=792, channel=0, data=[64, 127]),\n",
       "   midi.NoteOnEvent(tick=796, channel=0, data=[59, 0]),\n",
       "   midi.NoteOnEvent(tick=816, channel=0, data=[59, 100]),\n",
       "   midi.NoteOnEvent(tick=824, channel=0, data=[71, 0]),\n",
       "   midi.NoteOnEvent(tick=824, channel=0, data=[74, 0]),\n",
       "   midi.NoteOnEvent(tick=824, channel=0, data=[67, 0]),\n",
       "   midi.NoteOnEvent(tick=840, channel=0, data=[71, 105]),\n",
       "   midi.NoteOnEvent(tick=840, channel=0, data=[67, 114]),\n",
       "   midi.NoteOnEvent(tick=840, channel=0, data=[74, 114]),\n",
       "   midi.NoteOnEvent(tick=860, channel=0, data=[74, 0]),\n",
       "   midi.NoteOnEvent(tick=860, channel=0, data=[71, 0]),\n",
       "   midi.NoteOnEvent(tick=860, channel=0, data=[67, 0]),\n",
       "   midi.NoteOnEvent(tick=868, channel=0, data=[59, 0]),\n",
       "   midi.NoteOnEvent(tick=884, channel=0, data=[52, 0]),\n",
       "   midi.NoteOnEvent(tick=892, channel=0, data=[55, 0]),\n",
       "   midi.ControlChangeEvent(tick=912, channel=0, data=[64, 0]),\n",
       "   midi.NoteOnEvent(tick=912, channel=0, data=[69, 110]),\n",
       "   midi.NoteOnEvent(tick=912, channel=0, data=[74, 108]),\n",
       "   midi.NoteOnEvent(tick=912, channel=0, data=[66, 104]),\n",
       "   midi.NoteOnEvent(tick=912, channel=0, data=[57, 96]),\n",
       "   midi.NoteOnEvent(tick=912, channel=0, data=[50, 92]),\n",
       "   midi.ControlChangeEvent(tick=960, channel=0, data=[64, 127]),\n",
       "   midi.NoteOnEvent(tick=1008, channel=0, data=[62, 102]),\n",
       "   midi.NoteOnEvent(tick=1016, channel=0, data=[62, 0]),\n",
       "   midi.NoteOnEvent(tick=1028, channel=0, data=[74, 0]),\n",
       "   midi.NoteOnEvent(tick=1028, channel=0, data=[66, 0]),\n",
       "   midi.NoteOnEvent(tick=1032, channel=0, data=[69, 0]),\n",
       "   midi.NoteOnEvent(tick=1032, channel=0, data=[62, 106]),\n",
       "   midi.NoteOnEvent(tick=1056, channel=0, data=[71, 86]),\n",
       "   midi.NoteOnEvent(tick=1056, channel=0, data=[74, 96]),\n",
       "   midi.NoteOnEvent(tick=1056, channel=0, data=[66, 99]),\n",
       "   midi.NoteOnEvent(tick=1068, channel=0, data=[66, 0]),\n",
       "   midi.NoteOnEvent(tick=1072, channel=0, data=[74, 0]),\n",
       "   midi.NoteOnEvent(tick=1076, channel=0, data=[71, 0]),\n",
       "   midi.NoteOnEvent(tick=1080, channel=0, data=[74, 91]),\n",
       "   midi.NoteOnEvent(tick=1080, channel=0, data=[69, 96]),\n",
       "   midi.NoteOnEvent(tick=1080, channel=0, data=[66, 86]),\n",
       "   midi.NoteOnEvent(tick=1088, channel=0, data=[62, 0]),\n",
       "   midi.NoteOnEvent(tick=1100, channel=0, data=[69, 0]),\n",
       "   midi.NoteOnEvent(tick=1100, channel=0, data=[74, 0]),\n",
       "   midi.NoteOnEvent(tick=1104, channel=0, data=[66, 0]),\n",
       "   midi.NoteOnEvent(tick=1104, channel=0, data=[62, 89]),\n",
       "   midi.NoteOnEvent(tick=1112, channel=0, data=[62, 0]),\n",
       "   midi.NoteOnEvent(tick=1128, channel=0, data=[50, 0]),\n",
       "   midi.NoteOnEvent(tick=1128, channel=0, data=[62, 89]),\n",
       "   midi.ControlChangeEvent(tick=1128, channel=0, data=[64, 0]),\n",
       "   midi.NoteOnEvent(tick=1132, channel=0, data=[57, 0]),\n",
       "   midi.NoteOnEvent(tick=1136, channel=0, data=[62, 0]),\n",
       "   midi.NoteOnEvent(tick=1152, channel=0, data=[57, 86]),\n",
       "   midi.NoteOnEvent(tick=1152, channel=0, data=[69, 96]),\n",
       "   midi.NoteOnEvent(tick=1152, channel=0, data=[72, 108]),\n",
       "   midi.NoteOnEvent(tick=1152, channel=0, data=[64, 102]),\n",
       "   midi.NoteOnEvent(tick=1152, channel=0, data=[52, 89]),\n",
       "   midi.NoteOnEvent(tick=1152, channel=0, data=[60, 84]),\n",
       "   midi.ControlChangeEvent(tick=1152, channel=0, data=[64, 127]),\n",
       "   midi.NoteOnEvent(tick=1168, channel=0, data=[60, 0]),\n",
       "   midi.NoteOnEvent(tick=1200, channel=0, data=[60, 82]),\n",
       "   midi.NoteOnEvent(tick=1204, channel=0, data=[72, 0]),\n",
       "   midi.NoteOnEvent(tick=1208, channel=0, data=[64, 0]),\n",
       "   midi.NoteOnEvent(tick=1208, channel=0, data=[69, 0]),\n",
       "   midi.NoteOnEvent(tick=1224, channel=0, data=[72, 106]),\n",
       "   midi.NoteOnEvent(tick=1224, channel=0, data=[64, 112]),\n",
       "   midi.NoteOnEvent(tick=1224, channel=0, data=[69, 112]),\n",
       "   midi.NoteOnEvent(tick=1248, channel=0, data=[60, 0]),\n",
       "   midi.NoteOnEvent(tick=1264, channel=0, data=[72, 0]),\n",
       "   midi.NoteOnEvent(tick=1264, channel=0, data=[69, 0]),\n",
       "   midi.NoteOnEvent(tick=1268, channel=0, data=[52, 0]),\n",
       "   midi.NoteOnEvent(tick=1268, channel=0, data=[64, 0]),\n",
       "   midi.NoteOnEvent(tick=1280, channel=0, data=[57, 0]),\n",
       "   midi.ControlChangeEvent(tick=1296, channel=0, data=[64, 0]),\n",
       "   midi.NoteOnEvent(tick=1296, channel=0, data=[71, 99]),\n",
       "   midi.NoteOnEvent(tick=1296, channel=0, data=[67, 103]),\n",
       "   midi.NoteOnEvent(tick=1296, channel=0, data=[62, 105]),\n",
       "   midi.NoteOnEvent(tick=1296, channel=0, data=[55, 99]),\n",
       "   midi.NoteOnEvent(tick=1296, channel=0, data=[59, 96]),\n",
       "   midi.NoteOnEvent(tick=1296, channel=0, data=[50, 91]),\n",
       "   midi.NoteOnEvent(tick=1324, channel=0, data=[62, 0]),\n",
       "   midi.ControlChangeEvent(tick=1344, channel=0, data=[64, 127]),\n",
       "   midi.NoteOnEvent(tick=1344, channel=0, data=[62, 72]),\n",
       "   midi.NoteOnEvent(tick=1352, channel=0, data=[59, 0]),\n",
       "   midi.NoteOnEvent(tick=1392, channel=0, data=[59, 63]),\n",
       "   midi.NoteOnEvent(tick=1396, channel=0, data=[59, 0]),\n",
       "   midi.NoteOnEvent(tick=1416, channel=0, data=[62, 0]),\n",
       "   midi.NoteOnEvent(tick=1416, channel=0, data=[59, 98]),\n",
       "   midi.NoteOnEvent(tick=1420, channel=0, data=[71, 0]),\n",
       "   midi.NoteOnEvent(tick=1420, channel=0, data=[67, 0]),\n",
       "   midi.NoteOnEvent(tick=1440, channel=0, data=[67, 105]),\n",
       "   midi.NoteOnEvent(tick=1440, channel=0, data=[71, 102]),\n",
       "   midi.NoteOnEvent(tick=1440, channel=0, data=[62, 110]),\n",
       "   midi.NoteOnEvent(tick=1460, channel=0, data=[71, 0]),\n",
       "   midi.NoteOnEvent(tick=1460, channel=0, data=[67, 0]),\n",
       "   midi.NoteOnEvent(tick=1464, channel=0, data=[69, 99]),\n",
       "   midi.NoteOnEvent(tick=1488, channel=0, data=[67, 100]),\n",
       "   midi.NoteOnEvent(tick=1492, channel=0, data=[69, 0]),\n",
       "   midi.NoteOnEvent(tick=1496, channel=0, data=[59, 0]),\n",
       "   midi.NoteOnEvent(tick=1496, channel=0, data=[62, 0]),\n",
       "   midi.NoteOnEvent(tick=1500, channel=0, data=[67, 0]),\n",
       "   midi.NoteOnEvent(tick=1512, channel=0, data=[59, 90]),\n",
       "   midi.NoteOnEvent(tick=1516, channel=0, data=[50, 0]),\n",
       "   midi.NoteOnEvent(tick=1520, channel=0, data=[59, 0]),\n",
       "   midi.NoteOnEvent(tick=1524, channel=0, data=[55, 0]),\n",
       "   midi.ControlChangeEvent(tick=1536, channel=0, data=[64, 0]),\n",
       "   midi.NoteOnEvent(tick=1536, channel=0, data=[67, 114]),\n",
       "   midi.NoteOnEvent(tick=1536, channel=0, data=[64, 117]),\n",
       "   midi.NoteOnEvent(tick=1536, channel=0, data=[60, 114]),\n",
       "   midi.ControlChangeEvent(tick=1560, channel=0, data=[64, 127]),\n",
       "   midi.NoteOnEvent(tick=1584, channel=0, data=[55, 98]),\n",
       "   midi.NoteOnEvent(tick=1592, channel=0, data=[60, 0]),\n",
       "   midi.NoteOnEvent(tick=1592, channel=0, data=[67, 0]),\n",
       "   midi.NoteOnEvent(tick=1596, channel=0, data=[64, 0]),\n",
       "   midi.NoteOnEvent(tick=1608, channel=0, data=[67, 112]),\n",
       "   midi.NoteOnEvent(tick=1608, channel=0, data=[64, 108]),\n",
       "   midi.NoteOnEvent(tick=1608, channel=0, data=[60, 112]),\n",
       "   midi.NoteOnEvent(tick=1644, channel=0, data=[55, 0]),\n",
       "   midi.NoteOnEvent(tick=1652, channel=0, data=[60, 0]),\n",
       "   midi.NoteOnEvent(tick=1652, channel=0, data=[64, 0]),\n",
       "   midi.NoteOnEvent(tick=1656, channel=0, data=[55, 89]),\n",
       "   midi.NoteOnEvent(tick=1660, channel=0, data=[67, 0]),\n",
       "   midi.NoteOnEvent(tick=1680, channel=0, data=[67, 112]),\n",
       "   midi.NoteOnEvent(tick=1680, channel=0, data=[62, 114]),\n",
       "   midi.ControlChangeEvent(tick=1680, channel=0, data=[64, 0]),\n",
       "   midi.ControlChangeEvent(tick=1704, channel=0, data=[64, 127]),\n",
       "   midi.NoteOnEvent(tick=1728, channel=0, data=[50, 103]),\n",
       "   midi.NoteOnEvent(tick=1752, channel=0, data=[62, 0]),\n",
       "   midi.NoteOnEvent(tick=1776, channel=0, data=[62, 106]),\n",
       "   midi.NoteOnEvent(tick=1792, channel=0, data=[62, 0]),\n",
       "   midi.NoteOnEvent(tick=1800, channel=0, data=[67, 0]),\n",
       "   midi.NoteOnEvent(tick=1800, channel=0, data=[59, 102]),\n",
       "   midi.NoteOnEvent(tick=1820, channel=0, data=[55, 0]),\n",
       "   midi.NoteOnEvent(tick=1824, channel=0, data=[59, 0]),\n",
       "   midi.NoteOnEvent(tick=1824, channel=0, data=[55, 41]),\n",
       "   midi.NoteOnEvent(tick=1848, channel=0, data=[74, 127]),\n",
       "   midi.NoteOnEvent(tick=1852, channel=0, data=[55, 0]),\n",
       "   midi.NoteOnEvent(tick=1868, channel=0, data=[50, 0]),\n",
       "   midi.NoteOnEvent(tick=1872, channel=0, data=[74, 0]),\n",
       "   midi.NoteOnEvent(tick=1872, channel=0, data=[76, 108]),\n",
       "   midi.NoteOnEvent(tick=1872, channel=0, data=[59, 85]),\n",
       "   midi.NoteOnEvent(tick=1880, channel=0, data=[59, 0]),\n",
       "   midi.NoteOnEvent(tick=1896, channel=0, data=[79, 96]),\n",
       "   midi.NoteOnEvent(tick=1904, channel=0, data=[76, 0]),\n",
       "   midi.NoteOnEvent(tick=1908, channel=0, data=[79, 0]),\n",
       "   midi.ControlChangeEvent(tick=1920, channel=0, data=[64, 0]),\n",
       "   midi.NoteOnEvent(tick=1920, channel=0, data=[76, 96]),\n",
       "   midi.NoteOnEvent(tick=1920, channel=0, data=[81, 106]),\n",
       "   midi.NoteOnEvent(tick=1920, channel=0, data=[60, 78]),\n",
       "   midi.NoteOnEvent(tick=1920, channel=0, data=[64, 84]),\n",
       "   midi.NoteOnEvent(tick=1920, channel=0, data=[72, 108]),\n",
       "   midi.NoteOnEvent(tick=1920, channel=0, data=[57, 89]),\n",
       "   midi.ControlChangeEvent(tick=1920, channel=0, data=[64, 127]),\n",
       "   midi.NoteOnEvent(tick=1944, channel=0, data=[64, 0]),\n",
       "   midi.NoteOnEvent(tick=1968, channel=0, data=[72, 0]),\n",
       "   midi.NoteOnEvent(tick=1968, channel=0, data=[81, 0]),\n",
       "   midi.NoteOnEvent(tick=1968, channel=0, data=[76, 0]),\n",
       "   midi.NoteOnEvent(tick=1968, channel=0, data=[64, 102]),\n",
       "   midi.NoteOnEvent(tick=1992, channel=0, data=[76, 103]),\n",
       "   midi.NoteOnEvent(tick=1992, channel=0, data=[81, 105]),\n",
       "   midi.NoteOnEvent(tick=1992, channel=0, data=[72, 105]),\n",
       "   midi.NoteOnEvent(tick=2016, channel=0, data=[81, 0]),\n",
       "   midi.NoteOnEvent(tick=2020, channel=0, data=[57, 0]),\n",
       "   midi.NoteOnEvent(tick=2020, channel=0, data=[60, 0]),\n",
       "   midi.NoteOnEvent(tick=2024, channel=0, data=[76, 0]),\n",
       "   midi.NoteOnEvent(tick=2028, channel=0, data=[72, 0]),\n",
       "   midi.NoteOnEvent(tick=2028, channel=0, data=[64, 0]),\n",
       "   midi.NoteOnEvent(tick=2064, channel=0, data=[79, 99]),\n",
       "   midi.NoteOnEvent(tick=2064, channel=0, data=[74, 112]),\n",
       "   midi.NoteOnEvent(tick=2064, channel=0, data=[71, 106]),\n",
       "   midi.NoteOnEvent(tick=2064, channel=0, data=[59, 82]),\n",
       "   midi.ControlChangeEvent(tick=2064, channel=0, data=[64, 0]),\n",
       "   midi.NoteOnEvent(tick=2064, channel=0, data=[62, 86]),\n",
       "   midi.NoteOnEvent(tick=2064, channel=0, data=[55, 93]),\n",
       "   midi.ControlChangeEvent(tick=2112, channel=0, data=[64, 127]),\n",
       "   midi.NoteOnEvent(tick=2124, channel=0, data=[62, 0]),\n",
       "   midi.NoteOnEvent(tick=2160, channel=0, data=[62, 88]),\n",
       "   midi.NoteOnEvent(tick=2168, channel=0, data=[79, 0]),\n",
       "   midi.NoteOnEvent(tick=2172, channel=0, data=[74, 0]),\n",
       "   midi.NoteOnEvent(tick=2172, channel=0, data=[71, 0]),\n",
       "   midi.NoteOnEvent(tick=2176, channel=0, data=[62, 0]),\n",
       "   midi.NoteOnEvent(tick=2184, channel=0, data=[62, 93]),\n",
       "   midi.NoteOnEvent(tick=2208, channel=0, data=[76, 96]),\n",
       "   midi.NoteOnEvent(tick=2208, channel=0, data=[71, 94]),\n",
       "   midi.NoteOnEvent(tick=2208, channel=0, data=[67, 99]),\n",
       "   midi.NoteOnEvent(tick=2224, channel=0, data=[76, 0]),\n",
       "   midi.NoteOnEvent(tick=2232, channel=0, data=[74, 102]),\n",
       "   midi.NoteOnEvent(tick=2236, channel=0, data=[71, 0]),\n",
       "   midi.NoteOnEvent(tick=2244, channel=0, data=[67, 0]),\n",
       "   midi.NoteOnEvent(tick=2252, channel=0, data=[62, 0]),\n",
       "   midi.NoteOnEvent(tick=2256, channel=0, data=[55, 0]),\n",
       "   midi.NoteOnEvent(tick=2256, channel=0, data=[71, 103]),\n",
       "   midi.NoteOnEvent(tick=2264, channel=0, data=[59, 0]),\n",
       "   midi.NoteOnEvent(tick=2280, channel=0, data=[67, 73]),\n",
       "   midi.NoteOnEvent(tick=2284, channel=0, data=[67, 0]),\n",
       "   midi.NoteOnEvent(tick=2284, channel=0, data=[71, 0]),\n",
       "   midi.NoteOnEvent(tick=2284, channel=0, data=[74, 0]),\n",
       "   midi.ControlChangeEvent(tick=2304, channel=0, data=[64, 0]),\n",
       "   midi.NoteOnEvent(tick=2304, channel=0, data=[74, 110]),\n",
       "   midi.NoteOnEvent(tick=2304, channel=0, data=[67, 103]),\n",
       "   midi.NoteOnEvent(tick=2304, channel=0, data=[55, 90]),\n",
       "   midi.NoteOnEvent(tick=2304, channel=0, data=[71, 100]),\n",
       "   midi.NoteOnEvent(tick=2304, channel=0, data=[59, 86]),\n",
       "   midi.NoteOnEvent(tick=2304, channel=0, data=[52, 82]),\n",
       "   midi.ControlChangeEvent(tick=2304, channel=0, data=[64, 127]),\n",
       "   midi.NoteOnEvent(tick=2332, channel=0, data=[59, 0]),\n",
       "   midi.NoteOnEvent(tick=2352, channel=0, data=[59, 93]),\n",
       "   midi.NoteOnEvent(tick=2356, channel=0, data=[71, 0]),\n",
       "   midi.NoteOnEvent(tick=2356, channel=0, data=[74, 0]),\n",
       "   midi.NoteOnEvent(tick=2356, channel=0, data=[67, 0]),\n",
       "   midi.NoteOnEvent(tick=2376, channel=0, data=[74, 112]),\n",
       "   midi.NoteOnEvent(tick=2376, channel=0, data=[71, 106]),\n",
       "   midi.NoteOnEvent(tick=2376, channel=0, data=[67, 106]),\n",
       "   midi.NoteOnEvent(tick=2396, channel=0, data=[67, 0]),\n",
       "   midi.NoteOnEvent(tick=2396, channel=0, data=[74, 0]),\n",
       "   midi.NoteOnEvent(tick=2396, channel=0, data=[71, 0]),\n",
       "   midi.NoteOnEvent(tick=2408, channel=0, data=[59, 0]),\n",
       "   midi.NoteOnEvent(tick=2424, channel=0, data=[52, 0]),\n",
       "   midi.NoteOnEvent(tick=2424, channel=0, data=[59, 70]),\n",
       "   midi.NoteOnEvent(tick=2428, channel=0, data=[59, 0]),\n",
       "   midi.NoteOnEvent(tick=2432, channel=0, data=[55, 0]),\n",
       "   midi.ControlChangeEvent(tick=2448, channel=0, data=[64, 0]),\n",
       "   midi.NoteOnEvent(tick=2448, channel=0, data=[69, 119]),\n",
       "   midi.NoteOnEvent(tick=2448, channel=0, data=[74, 112]),\n",
       "   midi.NoteOnEvent(tick=2448, channel=0, data=[57, 95]),\n",
       "   midi.NoteOnEvent(tick=2448, channel=0, data=[50, 90]),\n",
       "   midi.ControlChangeEvent(tick=2448, channel=0, data=[64, 127]),\n",
       "   midi.NoteOnEvent(tick=2496, channel=0, data=[62, 63]),\n",
       "   midi.NoteOnEvent(tick=2500, channel=0, data=[62, 0]),\n",
       "   midi.NoteOnEvent(tick=2520, channel=0, data=[74, 0]),\n",
       "   midi.NoteOnEvent(tick=2520, channel=0, data=[62, 106]),\n",
       "   midi.NoteOnEvent(tick=2524, channel=0, data=[69, 0]),\n",
       "   midi.NoteOnEvent(tick=2544, channel=0, data=[69, 124]),\n",
       "   midi.NoteOnEvent(tick=2544, channel=0, data=[74, 110]),\n",
       "   midi.NoteOnEvent(tick=2568, channel=0, data=[69, 0]),\n",
       "   midi.NoteOnEvent(tick=2568, channel=0, data=[71, 92]),\n",
       "   midi.NoteOnEvent(tick=2572, channel=0, data=[74, 0]),\n",
       "   midi.NoteOnEvent(tick=2576, channel=0, data=[71, 0]),\n",
       "   midi.NoteOnEvent(tick=2592, channel=0, data=[69, 124]),\n",
       "   midi.NoteOnEvent(tick=2592, channel=0, data=[74, 99]),\n",
       "   midi.NoteOnEvent(tick=2612, channel=0, data=[69, 0]),\n",
       "   midi.NoteOnEvent(tick=2616, channel=0, data=[67, 99]),\n",
       "   midi.NoteOnEvent(tick=2620, channel=0, data=[62, 0]),\n",
       "   midi.NoteOnEvent(tick=2640, channel=0, data=[74, 0]),\n",
       "   midi.NoteOnEvent(tick=2640, channel=0, data=[62, 98]),\n",
       "   midi.NoteOnEvent(tick=2644, channel=0, data=[67, 0]),\n",
       "   midi.NoteOnEvent(tick=2664, channel=0, data=[50, 0]),\n",
       "   midi.NoteOnEvent(tick=2668, channel=0, data=[62, 0]),\n",
       "   midi.NoteOnEvent(tick=2676, channel=0, data=[57, 0]),\n",
       "   midi.ControlChangeEvent(tick=2688, channel=0, data=[64, 0]),\n",
       "   midi.NoteOnEvent(tick=2688, channel=0, data=[57, 86]),\n",
       "   midi.NoteOnEvent(tick=2688, channel=0, data=[69, 112]),\n",
       "   midi.NoteOnEvent(tick=2688, channel=0, data=[72, 110]),\n",
       "   midi.NoteOnEvent(tick=2688, channel=0, data=[64, 112]),\n",
       "   midi.NoteOnEvent(tick=2688, channel=0, data=[52, 94]),\n",
       "   midi.NoteOnEvent(tick=2688, channel=0, data=[60, 95]),\n",
       "   midi.ControlChangeEvent(tick=2688, channel=0, data=[64, 127]),\n",
       "   midi.NoteOnEvent(tick=2708, channel=0, data=[60, 0]),\n",
       "   midi.NoteOnEvent(tick=2736, channel=0, data=[72, 0]),\n",
       "   midi.NoteOnEvent(tick=2736, channel=0, data=[64, 0]),\n",
       "   midi.NoteOnEvent(tick=2736, channel=0, data=[60, 94]),\n",
       "   midi.NoteOnEvent(tick=2740, channel=0, data=[69, 0]),\n",
       "   midi.NoteOnEvent(tick=2760, channel=0, data=[72, 112]),\n",
       "   midi.NoteOnEvent(tick=2760, channel=0, data=[64, 110]),\n",
       "   midi.NoteOnEvent(tick=2760, channel=0, data=[69, 114]),\n",
       "   midi.NoteOnEvent(tick=2780, channel=0, data=[60, 0]),\n",
       "   midi.NoteOnEvent(tick=2800, channel=0, data=[72, 0]),\n",
       "   midi.NoteOnEvent(tick=2804, channel=0, data=[64, 0]),\n",
       "   midi.NoteOnEvent(tick=2808, channel=0, data=[52, 0]),\n",
       "   midi.NoteOnEvent(tick=2808, channel=0, data=[69, 0]),\n",
       "   midi.NoteOnEvent(tick=2816, channel=0, data=[57, 0]),\n",
       "   midi.ControlChangeEvent(tick=2832, channel=0, data=[64, 0]),\n",
       "   midi.NoteOnEvent(tick=2832, channel=0, data=[71, 99]),\n",
       "   midi.NoteOnEvent(tick=2832, channel=0, data=[67, 110]),\n",
       "   midi.NoteOnEvent(tick=2832, channel=0, data=[62, 110]),\n",
       "   midi.NoteOnEvent(tick=2832, channel=0, data=[55, 99]),\n",
       "   midi.NoteOnEvent(tick=2832, channel=0, data=[59, 100]),\n",
       "   midi.NoteOnEvent(tick=2832, channel=0, data=[50, 93]),\n",
       "   midi.NoteOnEvent(tick=2864, channel=0, data=[62, 0]),\n",
       "   midi.ControlChangeEvent(tick=2880, channel=0, data=[64, 127]),\n",
       "   midi.NoteOnEvent(tick=2880, channel=0, data=[62, 59]),\n",
       "   midi.NoteOnEvent(tick=2884, channel=0, data=[59, 0]),\n",
       "   midi.NoteOnEvent(tick=2920, channel=0, data=[62, 0]),\n",
       "   midi.NoteOnEvent(tick=2928, channel=0, data=[59, 100]),\n",
       "   midi.NoteOnEvent(tick=2944, channel=0, data=[59, 0]),\n",
       "   midi.NoteOnEvent(tick=2952, channel=0, data=[59, 99]),\n",
       "   midi.NoteOnEvent(tick=2956, channel=0, data=[71, 0]),\n",
       "   midi.NoteOnEvent(tick=2960, channel=0, data=[67, 0]),\n",
       "   midi.NoteOnEvent(tick=2976, channel=0, data=[67, 117]),\n",
       "   midi.NoteOnEvent(tick=2976, channel=0, data=[71, 105]),\n",
       "   midi.NoteOnEvent(tick=2976, channel=0, data=[62, 112]),\n",
       "   midi.NoteOnEvent(tick=2996, channel=0, data=[71, 0]),\n",
       "   midi.NoteOnEvent(tick=2996, channel=0, data=[67, 0]),\n",
       "   midi.NoteOnEvent(tick=3000, channel=0, data=[69, 93]),\n",
       "   midi.NoteOnEvent(tick=3012, channel=0, data=[62, 0]),\n",
       "   midi.NoteOnEvent(tick=3020, channel=0, data=[69, 0]),\n",
       "   midi.NoteOnEvent(tick=3024, channel=0, data=[67, 110]),\n",
       "   midi.NoteOnEvent(tick=3024, channel=0, data=[62, 95]),\n",
       "   midi.NoteOnEvent(tick=3024, channel=0, data=[69, 82]),\n",
       "   midi.NoteOnEvent(tick=3025, channel=0, data=[69, 0]),\n",
       "   midi.NoteOnEvent(tick=3036, channel=0, data=[59, 0]),\n",
       "   midi.NoteOnEvent(tick=3036, channel=0, data=[67, 0]),\n",
       "   midi.NoteOnEvent(tick=3040, channel=0, data=[62, 0]),\n",
       "   midi.NoteOnEvent(tick=3048, channel=0, data=[59, 84]),\n",
       "   midi.NoteOnEvent(tick=3048, channel=0, data=[64, 70]),\n",
       "   midi.NoteOnEvent(tick=3052, channel=0, data=[64, 0]),\n",
       "   midi.NoteOnEvent(tick=3052, channel=0, data=[50, 0]),\n",
       "   midi.NoteOnEvent(tick=3056, channel=0, data=[59, 0]),\n",
       "   midi.NoteOnEvent(tick=3060, channel=0, data=[55, 0]),\n",
       "   midi.ControlChangeEvent(tick=3072, channel=0, data=[64, 0]),\n",
       "   midi.NoteOnEvent(tick=3072, channel=0, data=[69, 105]),\n",
       "   midi.NoteOnEvent(tick=3072, channel=0, data=[64, 110]),\n",
       "   midi.NoteOnEvent(tick=3072, channel=0, data=[60, 106]),\n",
       "   midi.NoteOnEvent(tick=3072, channel=0, data=[55, 92]),\n",
       "   midi.NoteOnEvent(tick=3072, channel=0, data=[48, 100]),\n",
       "   midi.ControlChangeEvent(tick=3096, channel=0, data=[64, 127]),\n",
       "   midi.NoteOnEvent(tick=3120, channel=0, data=[60, 0]),\n",
       "   midi.NoteOnEvent(tick=3124, channel=0, data=[69, 0]),\n",
       "   midi.NoteOnEvent(tick=3124, channel=0, data=[64, 0]),\n",
       "   midi.NoteOnEvent(tick=3144, channel=0, data=[64, 117]),\n",
       "   midi.NoteOnEvent(tick=3144, channel=0, data=[67, 117]),\n",
       "   midi.NoteOnEvent(tick=3144, channel=0, data=[60, 110]),\n",
       "   midi.NoteOnEvent(tick=3172, channel=0, data=[60, 0]),\n",
       "   midi.NoteOnEvent(tick=3192, channel=0, data=[60, 103]),\n",
       "   midi.NoteOnEvent(tick=3196, channel=0, data=[64, 0]),\n",
       "   midi.NoteOnEvent(tick=3216, channel=0, data=[64, 105]),\n",
       "   midi.NoteOnEvent(tick=3220, channel=0, data=[60, 0]),\n",
       "   midi.NoteOnEvent(tick=3236, channel=0, data=[48, 0]),\n",
       "   midi.NoteOnEvent(tick=3240, channel=0, data=[60, 87]),\n",
       "   midi.NoteOnEvent(tick=3248, channel=0, data=[60, 0]),\n",
       "   midi.NoteOnEvent(tick=3248, channel=0, data=[64, 0]),\n",
       "   midi.NoteOnEvent(tick=3248, channel=0, data=[67, 0]),\n",
       "   midi.NoteOnEvent(tick=3256, channel=0, data=[55, 0]),\n",
       "   midi.ControlChangeEvent(tick=3264, channel=0, data=[64, 0]),\n",
       "   midi.NoteOnEvent(tick=3264, channel=0, data=[55, 85]),\n",
       "   midi.NoteOnEvent(tick=3264, channel=0, data=[59, 92]),\n",
       "   midi.NoteOnEvent(tick=3264, channel=0, data=[67, 99]),\n",
       "   midi.NoteOnEvent(tick=3264, channel=0, data=[71, 94]),\n",
       "   midi.NoteOnEvent(tick=3264, channel=0, data=[50, 98]),\n",
       "   midi.NoteOnEvent(tick=3264, channel=0, data=[62, 117]),\n",
       "   midi.ControlChangeEvent(tick=3264, channel=0, data=[64, 127]),\n",
       "   midi.NoteOnEvent(tick=3280, channel=0, data=[62, 0]),\n",
       "   midi.NoteOnEvent(tick=3312, channel=0, data=[62, 99]),\n",
       "   midi.NoteOnEvent(tick=3316, channel=0, data=[59, 0]),\n",
       "   midi.NoteOnEvent(tick=3332, channel=0, data=[71, 0]),\n",
       "   midi.NoteOnEvent(tick=3336, channel=0, data=[59, 75]),\n",
       "   midi.NoteOnEvent(tick=3340, channel=0, data=[50, 0]),\n",
       "   midi.NoteOnEvent(tick=3340, channel=0, data=[67, 0]),\n",
       "   midi.NoteOnEvent(tick=3340, channel=0, data=[62, 0]),\n",
       "   midi.NoteOnEvent(tick=3344, channel=0, data=[55, 0]),\n",
       "   midi.NoteOnEvent(tick=3344, channel=0, data=[59, 0]),\n",
       "   midi.ControlChangeEvent(tick=3360, channel=0, data=[64, 0]),\n",
       "   midi.NoteOnEvent(tick=3360, channel=0, data=[57, 98]),\n",
       "   midi.NoteOnEvent(tick=3360, channel=0, data=[50, 93]),\n",
       "   midi.NoteOnEvent(tick=3360, channel=0, data=[69, 106]),\n",
       "   midi.NoteOnEvent(tick=3360, channel=0, data=[66, 101]),\n",
       "   midi.NoteOnEvent(tick=3360, channel=0, data=[62, 105]),\n",
       "   midi.ControlChangeEvent(tick=3360, channel=0, data=[64, 127]),\n",
       "   midi.NoteOnEvent(tick=3380, channel=0, data=[62, 0]),\n",
       "   midi.NoteOnEvent(tick=3408, channel=0, data=[62, 89]),\n",
       "   midi.NoteOnEvent(tick=3416, channel=0, data=[62, 0]),\n",
       "   midi.NoteOnEvent(tick=3416, channel=0, data=[50, 0]),\n",
       "   midi.NoteOnEvent(tick=3416, channel=0, data=[57, 0]),\n",
       "   midi.NoteOnEvent(tick=3420, channel=0, data=[69, 0]),\n",
       "   midi.NoteOnEvent(tick=3420, channel=0, data=[66, 0]),\n",
       "   midi.NoteOnEvent(tick=3456, channel=0, data=[59, 74]),\n",
       "   midi.ControlChangeEvent(tick=3456, channel=0, data=[64, 0]),\n",
       "   midi.NoteOnEvent(tick=3456, channel=0, data=[67, 98]),\n",
       "   midi.NoteOnEvent(tick=3456, channel=0, data=[71, 88]),\n",
       "   midi.NoteOnEvent(tick=3456, channel=0, data=[55, 84]),\n",
       "   midi.NoteOnEvent(tick=3456, channel=0, data=[62, 75]),\n",
       "   midi.ControlChangeEvent(tick=3480, channel=0, data=[64, 127]),\n",
       "   midi.NoteOnEvent(tick=3520, channel=0, data=[62, 0]),\n",
       "   midi.NoteOnEvent(tick=3524, channel=0, data=[67, 0]),\n",
       "   midi.NoteOnEvent(tick=3528, channel=0, data=[71, 0]),\n",
       "   midi.NoteOnEvent(tick=3552, channel=0, data=[71, 88]),\n",
       "   midi.NoteOnEvent(tick=3552, channel=0, data=[67, 95]),\n",
       "   midi.NoteOnEvent(tick=3552, channel=0, data=[62, 83]),\n",
       "   midi.NoteOnEvent(tick=3572, channel=0, data=[55, 0]),\n",
       "   midi.NoteOnEvent(tick=3580, channel=0, data=[59, 0]),\n",
       "   midi.NoteOnEvent(tick=3588, channel=0, data=[71, 0]),\n",
       "   midi.NoteOnEvent(tick=3600, channel=0, data=[72, 92]),\n",
       "   midi.NoteOnEvent(tick=3600, channel=0, data=[69, 94]),\n",
       "   midi.NoteOnEvent(tick=3600, channel=0, data=[57, 87]),\n",
       "   midi.NoteOnEvent(tick=3608, channel=0, data=[67, 0]),\n",
       "   midi.ControlChangeEvent(tick=3624, channel=0, data=[64, 0]),\n",
       "   midi.NoteOnEvent(tick=3636, channel=0, data=[72, 0]),\n",
       "   midi.NoteOnEvent(tick=3640, channel=0, data=[57, 0]),\n",
       "   midi.NoteOnEvent(tick=3640, channel=0, data=[69, 0]),\n",
       "   midi.NoteOnEvent(tick=3648, channel=0, data=[74, 92]),\n",
       "   midi.NoteOnEvent(tick=3648, channel=0, data=[71, 86]),\n",
       "   midi.NoteOnEvent(tick=3648, channel=0, data=[67, 92]),\n",
       "   midi.NoteOnEvent(tick=3648, channel=0, data=[59, 93]),\n",
       "   midi.ControlChangeEvent(tick=3648, channel=0, data=[64, 127]),\n",
       "   midi.NoteOnEvent(tick=3736, channel=0, data=[67, 0]),\n",
       "   midi.NoteOnEvent(tick=3740, channel=0, data=[71, 0]),\n",
       "   midi.NoteOnEvent(tick=3740, channel=0, data=[74, 0]),\n",
       "   midi.NoteOnEvent(tick=3744, channel=0, data=[72, 100]),\n",
       "   midi.NoteOnEvent(tick=3744, channel=0, data=[69, 103]),\n",
       "   midi.NoteOnEvent(tick=3760, channel=0, data=[62, 0]),\n",
       "   midi.NoteOnEvent(tick=3760, channel=0, data=[59, 0]),\n",
       "   midi.NoteOnEvent(tick=3776, channel=0, data=[72, 0]),\n",
       "   midi.NoteOnEvent(tick=3784, channel=0, data=[69, 0]),\n",
       "   midi.NoteOnEvent(tick=3792, channel=0, data=[67, 86]),\n",
       "   midi.NoteOnEvent(tick=3792, channel=0, data=[71, 85]),\n",
       "   midi.NoteOnEvent(tick=3816, channel=0, data=[67, 0]),\n",
       "   midi.NoteOnEvent(tick=3816, channel=0, data=[50, 86]),\n",
       "   midi.NoteOnEvent(tick=3816, channel=0, data=[57, 69]),\n",
       "   midi.NoteOnEvent(tick=3820, channel=0, data=[71, 0]),\n",
       "   midi.NoteOnEvent(tick=3840, channel=0, data=[57, 0]),\n",
       "   midi.ControlChangeEvent(tick=3840, channel=0, data=[64, 0]),\n",
       "   midi.NoteOnEvent(tick=3840, channel=0, data=[69, 105]),\n",
       "   midi.NoteOnEvent(tick=3840, channel=0, data=[66, 97]),\n",
       "   midi.ControlChangeEvent(tick=3840, channel=0, data=[64, 0]),\n",
       "   midi.NoteOnEvent(tick=3840, channel=0, data=[62, 100]),\n",
       "   midi.NoteOnEvent(tick=3840, channel=0, data=[54, 80]),\n",
       "   midi.NoteOnEvent(tick=3840, channel=0, data=[57, 87]),\n",
       "   midi.NoteOnEvent(tick=3841, channel=0, data=[66, 0]),\n",
       "   midi.NoteOnEvent(tick=3841, channel=0, data=[69, 0]),\n",
       "   midi.NoteOnEvent(tick=3916, channel=0, data=[50, 0]),\n",
       "   midi.ControlChangeEvent(tick=3936, channel=0, data=[64, 127]),\n",
       "   midi.NoteOnEvent(tick=3964, channel=0, data=[54, 0]),\n",
       "   midi.NoteOnEvent(tick=3964, channel=0, data=[57, 0]),\n",
       "   midi.NoteOnEvent(tick=3968, channel=0, data=[62, 0]),\n",
       "   midi.ControlChangeEvent(tick=3984, channel=0, data=[64, 0]),\n",
       "   midi.NoteOnEvent(tick=3984, channel=0, data=[71, 92]),\n",
       "   midi.NoteOnEvent(tick=3984, channel=0, data=[67, 103]),\n",
       "   midi.NoteOnEvent(tick=3984, channel=0, data=[62, 95]),\n",
       "   midi.NoteOnEvent(tick=3984, channel=0, data=[55, 108]),\n",
       "   midi.ControlChangeEvent(tick=4008, channel=0, data=[64, 127]),\n",
       "   midi.NoteOnEvent(tick=4012, channel=0, data=[62, 0]),\n",
       "   midi.NoteOnEvent(tick=4016, channel=0, data=[71, 0]),\n",
       "   midi.NoteOnEvent(tick=4020, channel=0, data=[67, 0]),\n",
       "   midi.NoteOnEvent(tick=4024, channel=0, data=[55, 0]),\n",
       "   midi.ControlChangeEvent(tick=4032, channel=0, data=[64, 0]),\n",
       "   midi.NoteOnEvent(tick=4032, channel=0, data=[72, 106]),\n",
       "   midi.NoteOnEvent(tick=4032, channel=0, data=[69, 105]),\n",
       "   midi.NoteOnEvent(tick=4032, channel=0, data=[64, 100]),\n",
       "   midi.NoteOnEvent(tick=4032, channel=0, data=[57, 99]),\n",
       "   midi.ControlChangeEvent(tick=4080, channel=0, data=[64, 127]),\n",
       "   midi.NoteOnEvent(tick=4108, channel=0, data=[64, 0]),\n",
       "   midi.NoteOnEvent(tick=4108, channel=0, data=[72, 0]),\n",
       "   midi.NoteOnEvent(tick=4112, channel=0, data=[69, 0]),\n",
       "   midi.NoteOnEvent(tick=4116, channel=0, data=[57, 0]),\n",
       "   midi.ControlChangeEvent(tick=4128, channel=0, data=[64, 0]),\n",
       "   midi.NoteOnEvent(tick=4128, channel=0, data=[67, 103]),\n",
       "   midi.NoteOnEvent(tick=4128, channel=0, data=[71, 96]),\n",
       "   midi.NoteOnEvent(tick=4128, channel=0, data=[62, 99]),\n",
       "   midi.NoteOnEvent(tick=4128, channel=0, data=[55, 100]),\n",
       "   midi.ControlChangeEvent(tick=4152, channel=0, data=[64, 127]),\n",
       "   midi.NoteOnEvent(tick=4164, channel=0, data=[71, 0]),\n",
       "   midi.NoteOnEvent(tick=4164, channel=0, data=[67, 0]),\n",
       "   midi.NoteOnEvent(tick=4172, channel=0, data=[62, 0]),\n",
       "   midi.ControlChangeEvent(tick=4200, channel=0, data=[64, 0]),\n",
       "   midi.NoteOnEvent(tick=4224, channel=0, data=[64, 105]),\n",
       "   midi.NoteOnEvent(tick=4224, channel=0, data=[67, 110]),\n",
       "   midi.NoteOnEvent(tick=4224, channel=0, data=[48, 96]),\n",
       "   midi.ControlChangeEvent(tick=4248, channel=0, data=[64, 127]),\n",
       "   midi.NoteOnEvent(tick=4340, channel=0, data=[55, 0]),\n",
       "   midi.NoteOnEvent(tick=4368, channel=0, data=[55, 94]),\n",
       "   midi.NoteOnEvent(tick=4392, channel=0, data=[48, 0]),\n",
       "   midi.NoteOnEvent(tick=4404, channel=0, data=[67, 0]),\n",
       "   midi.NoteOnEvent(tick=4408, channel=0, data=[64, 0]),\n",
       "   midi.NoteOnEvent(tick=4408, channel=0, data=[55, 0]),\n",
       "   midi.ControlChangeEvent(tick=4416, channel=0, data=[64, 0]),\n",
       "   midi.NoteOnEvent(tick=4416, channel=0, data=[69, 99]),\n",
       "   midi.NoteOnEvent(tick=4416, channel=0, data=[66, 99]),\n",
       "   midi.NoteOnEvent(tick=4416, channel=0, data=[57, 85]),\n",
       "   midi.NoteOnEvent(tick=4416, channel=0, data=[62, 98]),\n",
       "   midi.NoteOnEvent(tick=4416, channel=0, data=[50, 90]),\n",
       "   midi.ControlChangeEvent(tick=4464, channel=0, data=[64, 127]),\n",
       "   midi.NoteOnEvent(tick=4576, channel=0, data=[69, 0]),\n",
       "   midi.NoteOnEvent(tick=4580, channel=0, data=[62, 0]),\n",
       "   midi.NoteOnEvent(tick=4580, channel=0, data=[66, 0]),\n",
       "   midi.NoteOnEvent(tick=4580, channel=0, data=[50, 0]),\n",
       "   midi.NoteOnEvent(tick=4584, channel=0, data=[57, 0]),\n",
       "   midi.ControlChangeEvent(tick=4608, channel=0, data=[64, 0]),\n",
       "   midi.NoteOnEvent(tick=4608, channel=0, data=[55, 91]),\n",
       "   midi.NoteOnEvent(tick=4608, channel=0, data=[48, 95]),\n",
       "   midi.NoteOnEvent(tick=4608, channel=0, data=[62, 112]),\n",
       "   midi.NoteOnEvent(tick=4608, channel=0, data=[67, 108]),\n",
       "   midi.NoteOnEvent(tick=4608, channel=0, data=[64, 93]),\n",
       "   midi.NoteOnEvent(tick=4620, channel=0, data=[62, 0]),\n",
       "   midi.NoteOnEvent(tick=4704, channel=0, data=[60, 89]),\n",
       "   midi.ControlChangeEvent(tick=4704, channel=0, data=[64, 127]),\n",
       "   midi.NoteOnEvent(tick=4724, channel=0, data=[48, 0]),\n",
       "   midi.NoteOnEvent(tick=4728, channel=0, data=[64, 0]),\n",
       "   midi.NoteOnEvent(tick=4728, channel=0, data=[60, 0]),\n",
       "   midi.NoteOnEvent(tick=4728, channel=0, data=[67, 0]),\n",
       "   midi.NoteOnEvent(tick=4736, channel=0, data=[55, 0]),\n",
       "   midi.ControlChangeEvent(tick=4752, channel=0, data=[64, 0]),\n",
       "   midi.NoteOnEvent(tick=4752, channel=0, data=[67, 99]),\n",
       "   midi.NoteOnEvent(tick=4752, channel=0, data=[62, 103]),\n",
       "   midi.NoteOnEvent(tick=4752, channel=0, data=[55, 95]),\n",
       "   midi.NoteOnEvent(tick=4752, channel=0, data=[59, 86]),\n",
       "   midi.NoteOnEvent(tick=4752, channel=0, data=[50, 88]),\n",
       "   midi.ControlChangeEvent(tick=4824, channel=0, data=[64, 127]),\n",
       "   midi.NoteOnEvent(tick=4852, channel=0, data=[67, 0]),\n",
       "   midi.NoteOnEvent(tick=4856, channel=0, data=[59, 0]),\n",
       "   midi.NoteOnEvent(tick=4856, channel=0, data=[62, 0]),\n",
       "   midi.NoteOnEvent(tick=4856, channel=0, data=[50, 0]),\n",
       "   midi.NoteOnEvent(tick=4864, channel=0, data=[55, 0]),\n",
       "   midi.ControlChangeEvent(tick=4896, channel=0, data=[64, 0]),\n",
       "   midi.NoteOnEvent(tick=4896, channel=0, data=[66, 101]),\n",
       "   midi.NoteOnEvent(tick=4896, channel=0, data=[69, 102]),\n",
       "   midi.NoteOnEvent(tick=4896, channel=0, data=[62, 102]),\n",
       "   midi.NoteOnEvent(tick=4896, channel=0, data=[50, 93]),\n",
       "   midi.NoteOnEvent(tick=4896, channel=0, data=[57, 86]),\n",
       "   midi.NoteOnEvent(tick=4916, channel=0, data=[62, 0]),\n",
       "   midi.NoteOnEvent(tick=4920, channel=0, data=[64, 94]),\n",
       "   midi.NoteOnEvent(tick=4944, channel=0, data=[62, 95]),\n",
       "   midi.ControlChangeEvent(tick=4944, channel=0, data=[64, 127]),\n",
       "   midi.NoteOnEvent(tick=4948, channel=0, data=[57, 0]),\n",
       "   midi.NoteOnEvent(tick=4956, channel=0, data=[64, 0]),\n",
       "   midi.NoteOnEvent(tick=4956, channel=0, data=[66, 0]),\n",
       "   midi.NoteOnEvent(tick=4960, channel=0, data=[69, 0]),\n",
       "   midi.NoteOnEvent(tick=4968, channel=0, data=[57, 80]),\n",
       "   midi.NoteOnEvent(tick=4972, channel=0, data=[50, 0]),\n",
       "   midi.NoteOnEvent(tick=4976, channel=0, data=[57, 0]),\n",
       "   midi.NoteOnEvent(tick=4976, channel=0, data=[62, 0]),\n",
       "   midi.ControlChangeEvent(tick=4992, channel=0, data=[64, 0]),\n",
       "   midi.NoteOnEvent(tick=4992, channel=0, data=[71, 98]),\n",
       "   midi.NoteOnEvent(tick=4992, channel=0, data=[62, 103]),\n",
       "   midi.NoteOnEvent(tick=4992, channel=0, data=[67, 112]),\n",
       "   midi.NoteOnEvent(tick=4992, channel=0, data=[55, 98]),\n",
       "   midi.NoteOnEvent(tick=4992, channel=0, data=[59, 93]),\n",
       "   midi.ControlChangeEvent(tick=5088, channel=0, data=[64, 127]),\n",
       "   midi.NoteOnEvent(tick=5112, channel=0, data=[59, 0]),\n",
       "   midi.NoteOnEvent(tick=5116, channel=0, data=[55, 0]),\n",
       "   midi.NoteOnEvent(tick=5120, channel=0, data=[71, 0]),\n",
       "   midi.NoteOnEvent(tick=5120, channel=0, data=[62, 0]),\n",
       "   midi.NoteOnEvent(tick=5124, channel=0, data=[67, 0]),\n",
       "   midi.ControlChangeEvent(tick=5136, channel=0, data=[64, 0]),\n",
       "   midi.NoteOnEvent(tick=5136, channel=0, data=[72, 98]),\n",
       "   midi.NoteOnEvent(tick=5136, channel=0, data=[69, 99]),\n",
       "   midi.NoteOnEvent(tick=5136, channel=0, data=[57, 105]),\n",
       "   midi.NoteOnEvent(tick=5136, channel=0, data=[62, 94]),\n",
       "   midi.ControlChangeEvent(tick=5136, channel=0, data=[64, 127]),\n",
       "   midi.NoteOnEvent(tick=5168, channel=0, data=[62, 0]),\n",
       "   midi.NoteOnEvent(tick=5168, channel=0, data=[72, 0]),\n",
       "   midi.NoteOnEvent(tick=5176, channel=0, data=[69, 0]),\n",
       "   midi.NoteOnEvent(tick=5180, channel=0, data=[57, 0]),\n",
       "   midi.ControlChangeEvent(tick=5184, channel=0, data=[64, 0]),\n",
       "   midi.NoteOnEvent(tick=5184, channel=0, data=[62, 93]),\n",
       "   midi.NoteOnEvent(tick=5184, channel=0, data=[59, 93]),\n",
       "   midi.NoteOnEvent(tick=5184, channel=0, data=[67, 98]),\n",
       "   midi.NoteOnEvent(tick=5184, channel=0, data=[71, 89]),\n",
       "   midi.NoteOnEvent(tick=5184, channel=0, data=[74, 102]),\n",
       "   midi.ControlChangeEvent(tick=5184, channel=0, data=[64, 127]),\n",
       "   midi.NoteOnEvent(tick=5348, channel=0, data=[74, 0]),\n",
       "   midi.NoteOnEvent(tick=5348, channel=0, data=[67, 0]),\n",
       "   midi.NoteOnEvent(tick=5352, channel=0, data=[62, 0]),\n",
       "   midi.NoteOnEvent(tick=5352, channel=0, data=[59, 0]),\n",
       "   midi.NoteOnEvent(tick=5352, channel=0, data=[71, 0]),\n",
       "   midi.ControlChangeEvent(tick=5376, channel=0, data=[64, 0]),\n",
       "   midi.NoteOnEvent(tick=5376, channel=0, data=[69, 98]),\n",
       "   midi.NoteOnEvent(tick=5376, channel=0, data=[62, 95]),\n",
       "   midi.NoteOnEvent(tick=5376, channel=0, data=[66, 99]),\n",
       "   midi.NoteOnEvent(tick=5376, channel=0, data=[54, 79]),\n",
       "   midi.NoteOnEvent(tick=5376, channel=0, data=[57, 86]),\n",
       "   midi.ControlChangeEvent(tick=5472, channel=0, data=[64, 127]),\n",
       "   midi.NoteOnEvent(tick=5492, channel=0, data=[57, 0]),\n",
       "   midi.NoteOnEvent(tick=5496, channel=0, data=[54, 0]),\n",
       "   midi.NoteOnEvent(tick=5500, channel=0, data=[66, 0]),\n",
       "   midi.NoteOnEvent(tick=5500, channel=0, data=[62, 0]),\n",
       "   midi.NoteOnEvent(tick=5504, channel=0, data=[69, 0]),\n",
       "   midi.ControlChangeEvent(tick=5520, channel=0, data=[64, 0]),\n",
       "   midi.NoteOnEvent(tick=5520, channel=0, data=[55, 95]),\n",
       "   midi.NoteOnEvent(tick=5520, channel=0, data=[71, 92]),\n",
       "   midi.NoteOnEvent(tick=5520, channel=0, data=[67, 103]),\n",
       "   midi.NoteOnEvent(tick=5520, channel=0, data=[62, 94]),\n",
       "   midi.ControlChangeEvent(tick=5520, channel=0, data=[64, 127]),\n",
       "   midi.NoteOnEvent(tick=5552, channel=0, data=[62, 0]),\n",
       "   midi.NoteOnEvent(tick=5552, channel=0, data=[71, 0]),\n",
       "   midi.NoteOnEvent(tick=5556, channel=0, data=[67, 0]),\n",
       "   midi.NoteOnEvent(tick=5560, channel=0, data=[55, 0]),\n",
       "   midi.ControlChangeEvent(tick=5568, channel=0, data=[64, 0]),\n",
       "   midi.NoteOnEvent(tick=5568, channel=0, data=[69, 96]),\n",
       "   midi.NoteOnEvent(tick=5568, channel=0, data=[72, 99]),\n",
       "   midi.NoteOnEvent(tick=5568, channel=0, data=[62, 96]),\n",
       "   midi.NoteOnEvent(tick=5568, channel=0, data=[57, 95]),\n",
       "   midi.ControlChangeEvent(tick=5616, channel=0, data=[64, 127]),\n",
       "   midi.NoteOnEvent(tick=5648, channel=0, data=[62, 0]),\n",
       "   midi.NoteOnEvent(tick=5648, channel=0, data=[69, 0]),\n",
       "   midi.NoteOnEvent(tick=5648, channel=0, data=[72, 0]),\n",
       "   midi.NoteOnEvent(tick=5652, channel=0, data=[57, 0]),\n",
       "   midi.ControlChangeEvent(tick=5664, channel=0, data=[64, 0]),\n",
       "   midi.NoteOnEvent(tick=5664, channel=0, data=[71, 92]),\n",
       "   midi.NoteOnEvent(tick=5664, channel=0, data=[67, 102]),\n",
       "   midi.NoteOnEvent(tick=5664, channel=0, data=[55, 102]),\n",
       "   midi.NoteOnEvent(tick=5664, channel=0, data=[62, 96]),\n",
       "   midi.ControlChangeEvent(tick=5664, channel=0, data=[64, 127]),\n",
       "   midi.NoteOnEvent(tick=5704, channel=0, data=[67, 0]),\n",
       "   midi.NoteOnEvent(tick=5704, channel=0, data=[71, 0]),\n",
       "   midi.NoteOnEvent(tick=5712, channel=0, data=[62, 0]),\n",
       "   midi.NoteOnEvent(tick=5756, channel=0, data=[55, 0]),\n",
       "   midi.ControlChangeEvent(tick=5760, channel=0, data=[64, 0]),\n",
       "   midi.NoteOnEvent(tick=5760, channel=0, data=[67, 98]),\n",
       "   midi.NoteOnEvent(tick=5760, channel=0, data=[55, 65]),\n",
       "   midi.NoteOnEvent(tick=5760, channel=0, data=[64, 100]),\n",
       "   midi.NoteOnEvent(tick=5760, channel=0, data=[60, 93]),\n",
       "   midi.NoteOnEvent(tick=5760, channel=0, data=[48, 91]),\n",
       "   midi.ControlChangeEvent(tick=5808, channel=0, data=[64, 127]),\n",
       "   midi.NoteOnEvent(tick=5888, channel=0, data=[60, 0]),\n",
       "   midi.NoteOnEvent(tick=5892, channel=0, data=[64, 0]),\n",
       "   midi.NoteOnEvent(tick=5892, channel=0, data=[67, 0]),\n",
       "   midi.NoteOnEvent(tick=5904, channel=0, data=[67, 99]),\n",
       "   midi.NoteOnEvent(tick=5904, channel=0, data=[64, 93]),\n",
       "   midi.NoteOnEvent(tick=5904, channel=0, data=[60, 93]),\n",
       "   midi.NoteOnEvent(tick=5924, channel=0, data=[48, 0]),\n",
       "   midi.NoteOnEvent(tick=5928, channel=0, data=[60, 0]),\n",
       "   midi.NoteOnEvent(tick=5928, channel=0, data=[67, 0]),\n",
       "   midi.NoteOnEvent(tick=5936, channel=0, data=[64, 0]),\n",
       "   midi.NoteOnEvent(tick=5940, channel=0, data=[55, 0]),\n",
       "   midi.ControlChangeEvent(tick=5952, channel=0, data=[64, 0]),\n",
       "   midi.NoteOnEvent(tick=5952, channel=0, data=[66, 91]),\n",
       "   midi.NoteOnEvent(tick=5952, channel=0, data=[69, 100]),\n",
       "   midi.NoteOnEvent(tick=5952, channel=0, data=[62, 100]),\n",
       "   midi.NoteOnEvent(tick=5952, channel=0, data=[50, 90]),\n",
       "   midi.NoteOnEvent(tick=5952, channel=0, data=[57, 81]),\n",
       "   midi.ControlChangeEvent(tick=5976, channel=0, data=[64, 127]),\n",
       "   midi.NoteOnEvent(tick=6076, channel=0, data=[57, 0]),\n",
       "   midi.NoteOnEvent(tick=6096, channel=0, data=[57, 82]),\n",
       "   midi.NoteOnEvent(tick=6112, channel=0, data=[69, 0]),\n",
       "   midi.NoteOnEvent(tick=6116, channel=0, data=[57, 0]),\n",
       "   midi.NoteOnEvent(tick=6116, channel=0, data=[62, 0]),\n",
       "   midi.NoteOnEvent(tick=6120, channel=0, data=[66, 0]),\n",
       "   midi.NoteOnEvent(tick=6120, channel=0, data=[50, 0]),\n",
       "   midi.ControlChangeEvent(tick=6144, channel=0, data=[64, 0]),\n",
       "   midi.NoteOnEvent(tick=6144, channel=0, data=[55, 102]),\n",
       "   midi.NoteOnEvent(tick=6144, channel=0, data=[48, 96]),\n",
       "   midi.NoteOnEvent(tick=6144, channel=0, data=[64, 108]),\n",
       "   midi.NoteOnEvent(tick=6144, channel=0, data=[67, 112]),\n",
       "   midi.NoteOnEvent(tick=6144, channel=0, data=[60, 106]),\n",
       "   midi.ControlChangeEvent(tick=6168, channel=0, data=[64, 127]),\n",
       "   midi.NoteOnEvent(tick=6216, channel=0, data=[55, 0]),\n",
       "   midi.NoteOnEvent(tick=6240, channel=0, data=[55, 93]),\n",
       "   midi.NoteOnEvent(tick=6252, channel=0, data=[48, 0]),\n",
       "   midi.NoteOnEvent(tick=6264, channel=0, data=[60, 0]),\n",
       "   midi.NoteOnEvent(tick=6264, channel=0, data=[67, 0]),\n",
       "   midi.NoteOnEvent(tick=6264, channel=0, data=[64, 0]),\n",
       "   midi.NoteOnEvent(tick=6272, channel=0, data=[55, 0]),\n",
       "   midi.ControlChangeEvent(tick=6288, channel=0, data=[64, 0]),\n",
       "   midi.NoteOnEvent(tick=6288, channel=0, data=[67, 108]),\n",
       "   midi.NoteOnEvent(tick=6288, channel=0, data=[62, 110]),\n",
       "   midi.NoteOnEvent(tick=6288, channel=0, data=[55, 95]),\n",
       "   midi.NoteOnEvent(tick=6288, channel=0, data=[59, 94]),\n",
       "   midi.NoteOnEvent(tick=6288, channel=0, data=[50, 93]),\n",
       "   midi.ControlChangeEvent(tick=6336, channel=0, data=[64, 127]),\n",
       "   midi.NoteOnEvent(tick=6344, channel=0, data=[50, 0]),\n",
       "   midi.NoteOnEvent(tick=6344, channel=0, data=[62, 0]),\n",
       "   midi.NoteOnEvent(tick=6348, channel=0, data=[67, 0]),\n",
       "   midi.NoteOnEvent(tick=6348, channel=0, data=[59, 0]),\n",
       "   midi.NoteOnEvent(tick=6352, channel=0, data=[55, 0]),\n",
       "   midi.NoteOnEvent(tick=6432, channel=0, data=[62, 100]),\n",
       "   midi.NoteOnEvent(tick=6432, channel=0, data=[74, 108]),\n",
       "   midi.NoteOnEvent(tick=6448, channel=0, data=[74, 0]),\n",
       "   midi.NoteOnEvent(tick=6456, channel=0, data=[62, 0]),\n",
       "   midi.NoteOnEvent(tick=6456, channel=0, data=[76, 108]),\n",
       "   midi.NoteOnEvent(tick=6456, channel=0, data=[64, 94]),\n",
       "   midi.NoteOnEvent(tick=6472, channel=0, data=[76, 0]),\n",
       "   midi.NoteOnEvent(tick=6476, channel=0, data=[64, 0]),\n",
       "   midi.NoteOnEvent(tick=6480, channel=0, data=[79, 108]),\n",
       "   midi.NoteOnEvent(tick=6480, channel=0, data=[74, 114]),\n",
       "   midi.NoteOnEvent(tick=6480, channel=0, data=[67, 106]),\n",
       "   midi.NoteOnEvent(tick=6504, channel=0, data=[67, 0]),\n",
       "   midi.NoteOnEvent(tick=6504, channel=0, data=[74, 0]),\n",
       "   midi.NoteOnEvent(tick=6508, channel=0, data=[79, 0]),\n",
       "   midi.ControlChangeEvent(tick=6528, channel=0, data=[64, 0]),\n",
       "   midi.NoteOnEvent(tick=6528, channel=0, data=[81, 103]),\n",
       "   midi.NoteOnEvent(tick=6528, channel=0, data=[72, 114]),\n",
       "   midi.NoteOnEvent(tick=6528, channel=0, data=[76, 117]),\n",
       "   midi.NoteOnEvent(tick=6528, channel=0, data=[64, 89]),\n",
       "   midi.NoteOnEvent(tick=6528, channel=0, data=[60, 87]),\n",
       "   midi.NoteOnEvent(tick=6528, channel=0, data=[57, 86]),\n",
       "   midi.NoteOnEvent(tick=6548, channel=0, data=[64, 0]),\n",
       "   midi.ControlChangeEvent(tick=6552, channel=0, data=[64, 127]),\n",
       "   midi.NoteOnEvent(tick=6576, channel=0, data=[64, 110]),\n",
       "   midi.NoteOnEvent(tick=6580, channel=0, data=[76, 0]),\n",
       "   midi.NoteOnEvent(tick=6580, channel=0, data=[81, 0]),\n",
       "   midi.NoteOnEvent(tick=6580, channel=0, data=[72, 0]),\n",
       "   midi.NoteOnEvent(tick=6600, channel=0, data=[79, 106]),\n",
       "   midi.NoteOnEvent(tick=6600, channel=0, data=[72, 119]),\n",
       "   midi.NoteOnEvent(tick=6600, channel=0, data=[74, 121]),\n",
       "   midi.NoteOnEvent(tick=6624, channel=0, data=[74, 0]),\n",
       "   midi.NoteOnEvent(tick=6624, channel=0, data=[60, 0]),\n",
       "   midi.NoteOnEvent(tick=6628, channel=0, data=[79, 0]),\n",
       "   midi.NoteOnEvent(tick=6628, channel=0, data=[57, 0]),\n",
       "   midi.NoteOnEvent(tick=6628, channel=0, data=[64, 0]),\n",
       "   midi.NoteOnEvent(tick=6628, channel=0, data=[72, 0]),\n",
       "   midi.ControlChangeEvent(tick=6672, channel=0, data=[64, 0]),\n",
       "   midi.NoteOnEvent(tick=6672, channel=0, data=[59, 89]),\n",
       "   midi.NoteOnEvent(tick=6672, channel=0, data=[74, 119]),\n",
       "   midi.NoteOnEvent(tick=6672, channel=0, data=[79, 105]),\n",
       "   midi.NoteOnEvent(tick=6672, channel=0, data=[71, 108]),\n",
       "   midi.NoteOnEvent(tick=6672, channel=0, data=[62, 90]),\n",
       "   midi.NoteOnEvent(tick=6672, channel=0, data=[55, 95]),\n",
       "   midi.NoteOnEvent(tick=6704, channel=0, data=[71, 0]),\n",
       "   midi.ControlChangeEvent(tick=6720, channel=0, data=[64, 127]),\n",
       "   midi.NoteOnEvent(tick=6720, channel=0, data=[71, 77]),\n",
       "   midi.NoteOnEvent(tick=6728, channel=0, data=[62, 0]),\n",
       "   midi.NoteOnEvent(tick=6780, channel=0, data=[79, 0]),\n",
       "   midi.NoteOnEvent(tick=6780, channel=0, data=[74, 0]),\n",
       "   midi.NoteOnEvent(tick=6788, channel=0, data=[71, 0]),\n",
       "   midi.NoteOnEvent(tick=6792, channel=0, data=[62, 106]),\n",
       "   midi.NoteOnEvent(tick=6816, channel=0, data=[76, 106]),\n",
       "   midi.NoteOnEvent(tick=6816, channel=0, data=[71, 106]),\n",
       "   midi.NoteOnEvent(tick=6816, channel=0, data=[67, 117]),\n",
       "   midi.NoteOnEvent(tick=6836, channel=0, data=[76, 0]),\n",
       "   midi.NoteOnEvent(tick=6840, channel=0, data=[71, 0]),\n",
       "   midi.NoteOnEvent(tick=6840, channel=0, data=[74, 99]),\n",
       "   midi.NoteOnEvent(tick=6860, channel=0, data=[74, 0]),\n",
       "   midi.NoteOnEvent(tick=6864, channel=0, data=[62, 0]),\n",
       "   midi.NoteOnEvent(tick=6864, channel=0, data=[71, 95]),\n",
       "   midi.NoteOnEvent(tick=6888, channel=0, data=[67, 0]),\n",
       "   midi.NoteOnEvent(tick=6888, channel=0, data=[62, 79]),\n",
       "   midi.NoteOnEvent(tick=6892, channel=0, data=[62, 0]),\n",
       "   midi.NoteOnEvent(tick=6892, channel=0, data=[71, 0]),\n",
       "   midi.NoteOnEvent(tick=6892, channel=0, data=[59, 0]),\n",
       "   midi.NoteOnEvent(tick=6892, channel=0, data=[55, 0]),\n",
       "   midi.ControlChangeEvent(tick=6912, channel=0, data=[64, 0]),\n",
       "   midi.NoteOnEvent(tick=6912, channel=0, data=[74, 117]),\n",
       "   midi.NoteOnEvent(tick=6912, channel=0, data=[67, 117]),\n",
       "   midi.NoteOnEvent(tick=6912, channel=0, data=[71, 106]),\n",
       "   midi.NoteOnEvent(tick=6912, channel=0, data=[59, 99]),\n",
       "   midi.NoteOnEvent(tick=6912, channel=0, data=[55, 96]),\n",
       "   midi.NoteOnEvent(tick=6912, channel=0, data=[52, 86]),\n",
       "   midi.ControlChangeEvent(tick=6936, channel=0, data=[64, 127]),\n",
       "   midi.NoteOnEvent(tick=6940, channel=0, data=[59, 0]),\n",
       "   midi.NoteOnEvent(tick=6960, channel=0, data=[59, 100]),\n",
       "   midi.NoteOnEvent(tick=6968, channel=0, data=[71, 0]),\n",
       "   midi.NoteOnEvent(tick=6968, channel=0, data=[74, 0]),\n",
       "   midi.NoteOnEvent(tick=6968, channel=0, data=[67, 0]),\n",
       "   midi.NoteOnEvent(tick=6984, channel=0, data=[71, 105]),\n",
       "   midi.NoteOnEvent(tick=6984, channel=0, data=[67, 114]),\n",
       "   midi.NoteOnEvent(tick=6984, channel=0, data=[74, 114]),\n",
       "   midi.NoteOnEvent(tick=7004, channel=0, data=[74, 0]),\n",
       "   midi.NoteOnEvent(tick=7004, channel=0, data=[71, 0]),\n",
       "   midi.NoteOnEvent(tick=7004, channel=0, data=[67, 0]),\n",
       "   midi.NoteOnEvent(tick=7012, channel=0, data=[59, 0]),\n",
       "   midi.NoteOnEvent(tick=7028, channel=0, data=[52, 0]),\n",
       "   midi.NoteOnEvent(tick=7036, channel=0, data=[55, 0]),\n",
       "   midi.ControlChangeEvent(tick=7056, channel=0, data=[64, 0]),\n",
       "   midi.NoteOnEvent(tick=7056, channel=0, data=[69, 110]),\n",
       "   midi.NoteOnEvent(tick=7056, channel=0, data=[74, 108]),\n",
       "   midi.NoteOnEvent(tick=7056, channel=0, data=[66, 104]),\n",
       "   midi.NoteOnEvent(tick=7056, channel=0, data=[57, 96]),\n",
       "   midi.NoteOnEvent(tick=7056, channel=0, data=[50, 92]),\n",
       "   midi.ControlChangeEvent(tick=7104, channel=0, data=[64, 127]),\n",
       "   midi.NoteOnEvent(tick=7152, channel=0, data=[62, 102]),\n",
       "   midi.NoteOnEvent(tick=7160, channel=0, data=[62, 0]),\n",
       "   midi.NoteOnEvent(tick=7172, channel=0, data=[74, 0]),\n",
       "   midi.NoteOnEvent(tick=7172, channel=0, data=[66, 0]),\n",
       "   midi.NoteOnEvent(tick=7176, channel=0, data=[69, 0]),\n",
       "   midi.NoteOnEvent(tick=7176, channel=0, data=[62, 106]),\n",
       "   midi.NoteOnEvent(tick=7200, channel=0, data=[71, 86]),\n",
       "   midi.NoteOnEvent(tick=7200, channel=0, data=[74, 96]),\n",
       "   midi.NoteOnEvent(tick=7200, channel=0, data=[66, 99]),\n",
       "   midi.NoteOnEvent(tick=7212, channel=0, data=[66, 0]),\n",
       "   midi.NoteOnEvent(tick=7216, channel=0, data=[74, 0]),\n",
       "   midi.NoteOnEvent(tick=7220, channel=0, data=[71, 0]),\n",
       "   midi.NoteOnEvent(tick=7224, channel=0, data=[74, 91]),\n",
       "   midi.NoteOnEvent(tick=7224, channel=0, data=[69, 96]),\n",
       "   midi.NoteOnEvent(tick=7224, channel=0, data=[66, 86]),\n",
       "   midi.NoteOnEvent(tick=7232, channel=0, data=[62, 0]),\n",
       "   midi.NoteOnEvent(tick=7244, channel=0, data=[69, 0]),\n",
       "   midi.NoteOnEvent(tick=7244, channel=0, data=[74, 0]),\n",
       "   midi.NoteOnEvent(tick=7248, channel=0, data=[66, 0]),\n",
       "   midi.NoteOnEvent(tick=7248, channel=0, data=[62, 89]),\n",
       "   midi.NoteOnEvent(tick=7256, channel=0, data=[62, 0]),\n",
       "   midi.NoteOnEvent(tick=7272, channel=0, data=[50, 0]),\n",
       "   midi.NoteOnEvent(tick=7272, channel=0, data=[62, 89]),\n",
       "   midi.ControlChangeEvent(tick=7272, channel=0, data=[64, 0]),\n",
       "   midi.NoteOnEvent(tick=7276, channel=0, data=[57, 0]),\n",
       "   midi.NoteOnEvent(tick=7280, channel=0, data=[62, 0]),\n",
       "   midi.NoteOnEvent(tick=7296, channel=0, data=[57, 86]),\n",
       "   midi.NoteOnEvent(tick=7296, channel=0, data=[69, 96]),\n",
       "   midi.NoteOnEvent(tick=7296, channel=0, data=[72, 108]),\n",
       "   midi.NoteOnEvent(tick=7296, channel=0, data=[64, 102]),\n",
       "   midi.NoteOnEvent(tick=7296, channel=0, data=[52, 89]),\n",
       "   midi.NoteOnEvent(tick=7296, channel=0, data=[60, 84]),\n",
       "   midi.ControlChangeEvent(tick=7296, channel=0, data=[64, 127]),\n",
       "   midi.NoteOnEvent(tick=7312, channel=0, data=[60, 0]),\n",
       "   midi.NoteOnEvent(tick=7344, channel=0, data=[60, 82]),\n",
       "   midi.NoteOnEvent(tick=7348, channel=0, data=[72, 0]),\n",
       "   midi.NoteOnEvent(tick=7352, channel=0, data=[64, 0]),\n",
       "   midi.NoteOnEvent(tick=7352, channel=0, data=[69, 0]),\n",
       "   midi.NoteOnEvent(tick=7368, channel=0, data=[72, 106]),\n",
       "   midi.NoteOnEvent(tick=7368, channel=0, data=[64, 112]),\n",
       "   midi.NoteOnEvent(tick=7368, channel=0, data=[69, 112]),\n",
       "   midi.NoteOnEvent(tick=7392, channel=0, data=[60, 0]),\n",
       "   midi.NoteOnEvent(tick=7408, channel=0, data=[72, 0]),\n",
       "   midi.NoteOnEvent(tick=7408, channel=0, data=[69, 0]),\n",
       "   midi.NoteOnEvent(tick=7412, channel=0, data=[52, 0]),\n",
       "   midi.NoteOnEvent(tick=7412, channel=0, data=[64, 0]),\n",
       "   midi.NoteOnEvent(tick=7424, channel=0, data=[57, 0]),\n",
       "   midi.ControlChangeEvent(tick=7440, channel=0, data=[64, 0]),\n",
       "   midi.NoteOnEvent(tick=7440, channel=0, data=[71, 99]),\n",
       "   midi.NoteOnEvent(tick=7440, channel=0, data=[67, 103]),\n",
       "   midi.NoteOnEvent(tick=7440, channel=0, data=[62, 105]),\n",
       "   midi.NoteOnEvent(tick=7440, channel=0, data=[55, 99]),\n",
       "   midi.NoteOnEvent(tick=7440, channel=0, data=[59, 96]),\n",
       "   midi.NoteOnEvent(tick=7440, channel=0, data=[50, 91]),\n",
       "   midi.NoteOnEvent(tick=7468, channel=0, data=[62, 0]),\n",
       "   midi.ControlChangeEvent(tick=7488, channel=0, data=[64, 127]),\n",
       "   midi.NoteOnEvent(tick=7488, channel=0, data=[62, 72]),\n",
       "   midi.NoteOnEvent(tick=7496, channel=0, data=[59, 0]),\n",
       "   midi.NoteOnEvent(tick=7536, channel=0, data=[59, 63]),\n",
       "   midi.NoteOnEvent(tick=7540, channel=0, data=[59, 0]),\n",
       "   midi.NoteOnEvent(tick=7560, channel=0, data=[62, 0]),\n",
       "   midi.NoteOnEvent(tick=7560, channel=0, data=[59, 98]),\n",
       "   midi.NoteOnEvent(tick=7564, channel=0, data=[71, 0]),\n",
       "   midi.NoteOnEvent(tick=7564, channel=0, data=[67, 0]),\n",
       "   midi.NoteOnEvent(tick=7584, channel=0, data=[67, 105]),\n",
       "   midi.NoteOnEvent(tick=7584, channel=0, data=[71, 102]),\n",
       "   midi.NoteOnEvent(tick=7584, channel=0, data=[62, 110]),\n",
       "   midi.NoteOnEvent(tick=7604, channel=0, data=[71, 0]),\n",
       "   midi.NoteOnEvent(tick=7604, channel=0, data=[67, 0]),\n",
       "   midi.NoteOnEvent(tick=7608, channel=0, data=[69, 99]),\n",
       "   midi.NoteOnEvent(tick=7632, channel=0, data=[67, 100]),\n",
       "   midi.NoteOnEvent(tick=7636, channel=0, data=[69, 0]),\n",
       "   midi.NoteOnEvent(tick=7640, channel=0, data=[59, 0]),\n",
       "   midi.NoteOnEvent(tick=7640, channel=0, data=[62, 0]),\n",
       "   midi.NoteOnEvent(tick=7644, channel=0, data=[67, 0]),\n",
       "   midi.NoteOnEvent(tick=7656, channel=0, data=[59, 90]),\n",
       "   midi.NoteOnEvent(tick=7660, channel=0, data=[50, 0]),\n",
       "   midi.NoteOnEvent(tick=7664, channel=0, data=[59, 0]),\n",
       "   midi.NoteOnEvent(tick=7668, channel=0, data=[55, 0]),\n",
       "   midi.ControlChangeEvent(tick=7680, channel=0, data=[64, 0]),\n",
       "   midi.NoteOnEvent(tick=7680, channel=0, data=[67, 114]),\n",
       "   midi.NoteOnEvent(tick=7680, channel=0, data=[64, 117]),\n",
       "   midi.NoteOnEvent(tick=7680, channel=0, data=[60, 114]),\n",
       "   midi.ControlChangeEvent(tick=7704, channel=0, data=[64, 127]),\n",
       "   midi.NoteOnEvent(tick=7728, channel=0, data=[55, 98]),\n",
       "   midi.NoteOnEvent(tick=7736, channel=0, data=[60, 0]),\n",
       "   midi.NoteOnEvent(tick=7736, channel=0, data=[67, 0]),\n",
       "   midi.NoteOnEvent(tick=7740, channel=0, data=[64, 0]),\n",
       "   midi.NoteOnEvent(tick=7752, channel=0, data=[67, 112]),\n",
       "   midi.NoteOnEvent(tick=7752, channel=0, data=[64, 108]),\n",
       "   midi.NoteOnEvent(tick=7752, channel=0, data=[60, 112]),\n",
       "   midi.NoteOnEvent(tick=7788, channel=0, data=[55, 0]),\n",
       "   midi.NoteOnEvent(tick=7796, channel=0, data=[60, 0]),\n",
       "   midi.NoteOnEvent(tick=7796, channel=0, data=[64, 0]),\n",
       "   midi.NoteOnEvent(tick=7800, channel=0, data=[55, 89]),\n",
       "   midi.NoteOnEvent(tick=7804, channel=0, data=[67, 0]),\n",
       "   midi.NoteOnEvent(tick=7824, channel=0, data=[67, 112]),\n",
       "   midi.NoteOnEvent(tick=7824, channel=0, data=[62, 114]),\n",
       "   midi.ControlChangeEvent(tick=7824, channel=0, data=[64, 0]),\n",
       "   midi.ControlChangeEvent(tick=7848, channel=0, data=[64, 127]),\n",
       "   midi.NoteOnEvent(tick=7872, channel=0, data=[50, 103]),\n",
       "   midi.NoteOnEvent(tick=7896, channel=0, data=[62, 0]),\n",
       "   midi.NoteOnEvent(tick=7920, channel=0, data=[62, 106]),\n",
       "   midi.NoteOnEvent(tick=7936, channel=0, data=[62, 0]),\n",
       "   midi.NoteOnEvent(tick=7944, channel=0, data=[67, 0]),\n",
       "   midi.NoteOnEvent(tick=7944, channel=0, data=[59, 102]),\n",
       "   midi.NoteOnEvent(tick=7964, channel=0, data=[55, 0]),\n",
       "   midi.NoteOnEvent(tick=7968, channel=0, data=[59, 0]),\n",
       "   midi.NoteOnEvent(tick=7968, channel=0, data=[55, 41]),\n",
       "   midi.NoteOnEvent(tick=7992, channel=0, data=[74, 127]),\n",
       "   midi.NoteOnEvent(tick=7996, channel=0, data=[55, 0]),\n",
       "   midi.NoteOnEvent(tick=8012, channel=0, data=[50, 0]),\n",
       "   midi.NoteOnEvent(tick=8016, channel=0, data=[74, 0]),\n",
       "   midi.NoteOnEvent(tick=8016, channel=0, data=[76, 108]),\n",
       "   midi.NoteOnEvent(tick=8016, channel=0, data=[59, 85]),\n",
       "   midi.NoteOnEvent(tick=8024, channel=0, data=[59, 0]),\n",
       "   midi.NoteOnEvent(tick=8040, channel=0, data=[79, 96]),\n",
       "   midi.NoteOnEvent(tick=8048, channel=0, data=[76, 0]),\n",
       "   midi.NoteOnEvent(tick=8052, channel=0, data=[79, 0]),\n",
       "   midi.ControlChangeEvent(tick=8064, channel=0, data=[64, 0]),\n",
       "   midi.NoteOnEvent(tick=8064, channel=0, data=[76, 96]),\n",
       "   midi.NoteOnEvent(tick=8064, channel=0, data=[81, 106]),\n",
       "   midi.NoteOnEvent(tick=8064, channel=0, data=[60, 78]),\n",
       "   midi.NoteOnEvent(tick=8064, channel=0, data=[64, 84]),\n",
       "   midi.NoteOnEvent(tick=8064, channel=0, data=[72, 108]),\n",
       "   midi.NoteOnEvent(tick=8064, channel=0, data=[57, 89]),\n",
       "   midi.ControlChangeEvent(tick=8064, channel=0, data=[64, 127]),\n",
       "   midi.NoteOnEvent(tick=8088, channel=0, data=[64, 0]),\n",
       "   midi.NoteOnEvent(tick=8112, channel=0, data=[72, 0]),\n",
       "   midi.NoteOnEvent(tick=8112, channel=0, data=[81, 0]),\n",
       "   midi.NoteOnEvent(tick=8112, channel=0, data=[76, 0]),\n",
       "   midi.NoteOnEvent(tick=8112, channel=0, data=[64, 102]),\n",
       "   midi.NoteOnEvent(tick=8136, channel=0, data=[76, 103]),\n",
       "   midi.NoteOnEvent(tick=8136, channel=0, data=[81, 105]),\n",
       "   midi.NoteOnEvent(tick=8136, channel=0, data=[72, 105]),\n",
       "   midi.NoteOnEvent(tick=8160, channel=0, data=[81, 0]),\n",
       "   midi.NoteOnEvent(tick=8164, channel=0, data=[57, 0]),\n",
       "   midi.NoteOnEvent(tick=8164, channel=0, data=[60, 0]),\n",
       "   midi.NoteOnEvent(tick=8168, channel=0, data=[76, 0]),\n",
       "   midi.NoteOnEvent(tick=8172, channel=0, data=[72, 0]),\n",
       "   midi.NoteOnEvent(tick=8172, channel=0, data=[64, 0]),\n",
       "   midi.NoteOnEvent(tick=8208, channel=0, data=[79, 99]),\n",
       "   midi.NoteOnEvent(tick=8208, channel=0, data=[74, 112]),\n",
       "   midi.NoteOnEvent(tick=8208, channel=0, data=[71, 106]),\n",
       "   midi.NoteOnEvent(tick=8208, channel=0, data=[59, 82]),\n",
       "   midi.ControlChangeEvent(tick=8208, channel=0, data=[64, 0]),\n",
       "   midi.NoteOnEvent(tick=8208, channel=0, data=[62, 86]),\n",
       "   midi.NoteOnEvent(tick=8208, channel=0, data=[55, 93]),\n",
       "   midi.ControlChangeEvent(tick=8256, channel=0, data=[64, 127]),\n",
       "   midi.NoteOnEvent(tick=8268, channel=0, data=[62, 0]),\n",
       "   midi.NoteOnEvent(tick=8304, channel=0, data=[62, 88]),\n",
       "   midi.NoteOnEvent(tick=8312, channel=0, data=[79, 0]),\n",
       "   midi.NoteOnEvent(tick=8316, channel=0, data=[74, 0]),\n",
       "   midi.NoteOnEvent(tick=8316, channel=0, data=[71, 0]),\n",
       "   midi.NoteOnEvent(tick=8320, channel=0, data=[62, 0]),\n",
       "   midi.NoteOnEvent(tick=8328, channel=0, data=[62, 93]),\n",
       "   midi.NoteOnEvent(tick=8352, channel=0, data=[76, 96]),\n",
       "   midi.NoteOnEvent(tick=8352, channel=0, data=[71, 94]),\n",
       "   midi.NoteOnEvent(tick=8352, channel=0, data=[67, 99]),\n",
       "   midi.NoteOnEvent(tick=8368, channel=0, data=[76, 0]),\n",
       "   midi.NoteOnEvent(tick=8376, channel=0, data=[74, 102]),\n",
       "   midi.NoteOnEvent(tick=8380, channel=0, data=[71, 0]),\n",
       "   midi.NoteOnEvent(tick=8388, channel=0, data=[67, 0]),\n",
       "   midi.NoteOnEvent(tick=8396, channel=0, data=[62, 0]),\n",
       "   midi.NoteOnEvent(tick=8400, channel=0, data=[55, 0]),\n",
       "   midi.NoteOnEvent(tick=8400, channel=0, data=[71, 103]),\n",
       "   midi.NoteOnEvent(tick=8408, channel=0, data=[59, 0]),\n",
       "   midi.NoteOnEvent(tick=8424, channel=0, data=[67, 73]),\n",
       "   midi.NoteOnEvent(tick=8428, channel=0, data=[67, 0]),\n",
       "   midi.NoteOnEvent(tick=8428, channel=0, data=[71, 0]),\n",
       "   midi.NoteOnEvent(tick=8428, channel=0, data=[74, 0]),\n",
       "   midi.ControlChangeEvent(tick=8448, channel=0, data=[64, 0]),\n",
       "   midi.NoteOnEvent(tick=8448, channel=0, data=[74, 110]),\n",
       "   midi.NoteOnEvent(tick=8448, channel=0, data=[67, 103]),\n",
       "   midi.NoteOnEvent(tick=8448, channel=0, data=[55, 90]),\n",
       "   midi.NoteOnEvent(tick=8448, channel=0, data=[71, 100]),\n",
       "   midi.NoteOnEvent(tick=8448, channel=0, data=[59, 86]),\n",
       "   midi.NoteOnEvent(tick=8448, channel=0, data=[52, 82]),\n",
       "   midi.ControlChangeEvent(tick=8448, channel=0, data=[64, 127]),\n",
       "   midi.NoteOnEvent(tick=8476, channel=0, data=[59, 0]),\n",
       "   midi.NoteOnEvent(tick=8496, channel=0, data=[59, 93]),\n",
       "   midi.NoteOnEvent(tick=8500, channel=0, data=[71, 0]),\n",
       "   midi.NoteOnEvent(tick=8500, channel=0, data=[74, 0]),\n",
       "   midi.NoteOnEvent(tick=8500, channel=0, data=[67, 0]),\n",
       "   midi.NoteOnEvent(tick=8520, channel=0, data=[74, 112]),\n",
       "   midi.NoteOnEvent(tick=8520, channel=0, data=[71, 106]),\n",
       "   midi.NoteOnEvent(tick=8520, channel=0, data=[67, 106]),\n",
       "   midi.NoteOnEvent(tick=8540, channel=0, data=[67, 0]),\n",
       "   midi.NoteOnEvent(tick=8540, channel=0, data=[74, 0]),\n",
       "   midi.NoteOnEvent(tick=8540, channel=0, data=[71, 0]),\n",
       "   midi.NoteOnEvent(tick=8552, channel=0, data=[59, 0]),\n",
       "   midi.NoteOnEvent(tick=8568, channel=0, data=[52, 0]),\n",
       "   midi.NoteOnEvent(tick=8568, channel=0, data=[59, 70]),\n",
       "   midi.NoteOnEvent(tick=8572, channel=0, data=[59, 0]),\n",
       "   midi.NoteOnEvent(tick=8576, channel=0, data=[55, 0]),\n",
       "   midi.ControlChangeEvent(tick=8592, channel=0, data=[64, 0]),\n",
       "   midi.NoteOnEvent(tick=8592, channel=0, data=[69, 119]),\n",
       "   midi.NoteOnEvent(tick=8592, channel=0, data=[74, 112]),\n",
       "   midi.NoteOnEvent(tick=8592, channel=0, data=[57, 95]),\n",
       "   midi.NoteOnEvent(tick=8592, channel=0, data=[50, 90]),\n",
       "   midi.ControlChangeEvent(tick=8592, channel=0, data=[64, 127]),\n",
       "   midi.NoteOnEvent(tick=8640, channel=0, data=[62, 63]),\n",
       "   midi.NoteOnEvent(tick=8644, channel=0, data=[62, 0]),\n",
       "   midi.NoteOnEvent(tick=8664, channel=0, data=[74, 0]),\n",
       "   midi.NoteOnEvent(tick=8664, channel=0, data=[62, 106]),\n",
       "   midi.NoteOnEvent(tick=8668, channel=0, data=[69, 0]),\n",
       "   midi.NoteOnEvent(tick=8688, channel=0, data=[69, 124]),\n",
       "   midi.NoteOnEvent(tick=8688, channel=0, data=[74, 110]),\n",
       "   midi.NoteOnEvent(tick=8712, channel=0, data=[69, 0]),\n",
       "   midi.NoteOnEvent(tick=8712, channel=0, data=[71, 92]),\n",
       "   midi.NoteOnEvent(tick=8716, channel=0, data=[74, 0]),\n",
       "   midi.NoteOnEvent(tick=8720, channel=0, data=[71, 0]),\n",
       "   midi.NoteOnEvent(tick=8736, channel=0, data=[69, 124]),\n",
       "   midi.NoteOnEvent(tick=8736, channel=0, data=[74, 99]),\n",
       "   midi.NoteOnEvent(tick=8756, channel=0, data=[69, 0]),\n",
       "   midi.NoteOnEvent(tick=8760, channel=0, data=[67, 99]),\n",
       "   midi.NoteOnEvent(tick=8764, channel=0, data=[62, 0]),\n",
       "   midi.NoteOnEvent(tick=8784, channel=0, data=[74, 0]),\n",
       "   midi.NoteOnEvent(tick=8784, channel=0, data=[62, 98]),\n",
       "   midi.NoteOnEvent(tick=8788, channel=0, data=[67, 0]),\n",
       "   midi.NoteOnEvent(tick=8808, channel=0, data=[50, 0]),\n",
       "   midi.NoteOnEvent(tick=8812, channel=0, data=[62, 0]),\n",
       "   midi.NoteOnEvent(tick=8820, channel=0, data=[57, 0]),\n",
       "   midi.ControlChangeEvent(tick=8832, channel=0, data=[64, 0]),\n",
       "   midi.NoteOnEvent(tick=8832, channel=0, data=[57, 86]),\n",
       "   midi.NoteOnEvent(tick=8832, channel=0, data=[69, 112]),\n",
       "   midi.NoteOnEvent(tick=8832, channel=0, data=[72, 110]),\n",
       "   midi.NoteOnEvent(tick=8832, channel=0, data=[64, 112]),\n",
       "   midi.NoteOnEvent(tick=8832, channel=0, data=[52, 94]),\n",
       "   midi.NoteOnEvent(tick=8832, channel=0, data=[60, 95]),\n",
       "   midi.ControlChangeEvent(tick=8832, channel=0, data=[64, 127]),\n",
       "   midi.NoteOnEvent(tick=8852, channel=0, data=[60, 0]),\n",
       "   midi.NoteOnEvent(tick=8880, channel=0, data=[72, 0]),\n",
       "   midi.NoteOnEvent(tick=8880, channel=0, data=[64, 0]),\n",
       "   midi.NoteOnEvent(tick=8880, channel=0, data=[60, 94]),\n",
       "   midi.NoteOnEvent(tick=8884, channel=0, data=[69, 0]),\n",
       "   midi.NoteOnEvent(tick=8904, channel=0, data=[72, 112]),\n",
       "   midi.NoteOnEvent(tick=8904, channel=0, data=[64, 110]),\n",
       "   midi.NoteOnEvent(tick=8904, channel=0, data=[69, 114]),\n",
       "   midi.NoteOnEvent(tick=8924, channel=0, data=[60, 0]),\n",
       "   midi.NoteOnEvent(tick=8944, channel=0, data=[72, 0]),\n",
       "   midi.NoteOnEvent(tick=8948, channel=0, data=[64, 0]),\n",
       "   midi.NoteOnEvent(tick=8952, channel=0, data=[52, 0]),\n",
       "   midi.NoteOnEvent(tick=8952, channel=0, data=[69, 0]),\n",
       "   midi.NoteOnEvent(tick=8960, channel=0, data=[57, 0]),\n",
       "   midi.ControlChangeEvent(tick=8976, channel=0, data=[64, 0]),\n",
       "   midi.NoteOnEvent(tick=8976, channel=0, data=[71, 99]),\n",
       "   midi.NoteOnEvent(tick=8976, channel=0, data=[67, 110]),\n",
       "   midi.NoteOnEvent(tick=8976, channel=0, data=[62, 110]),\n",
       "   midi.NoteOnEvent(tick=8976, channel=0, data=[55, 99]),\n",
       "   midi.NoteOnEvent(tick=8976, channel=0, data=[59, 100]),\n",
       "   midi.NoteOnEvent(tick=8976, channel=0, data=[50, 93]),\n",
       "   midi.NoteOnEvent(tick=9008, channel=0, data=[62, 0]),\n",
       "   midi.ControlChangeEvent(tick=9024, channel=0, data=[64, 127]),\n",
       "   midi.NoteOnEvent(tick=9024, channel=0, data=[62, 59]),\n",
       "   midi.NoteOnEvent(tick=9028, channel=0, data=[59, 0]),\n",
       "   midi.NoteOnEvent(tick=9064, channel=0, data=[62, 0]),\n",
       "   midi.NoteOnEvent(tick=9072, channel=0, data=[59, 100]),\n",
       "   midi.NoteOnEvent(tick=9088, channel=0, data=[59, 0]),\n",
       "   midi.NoteOnEvent(tick=9096, channel=0, data=[59, 99]),\n",
       "   midi.NoteOnEvent(tick=9100, channel=0, data=[71, 0]),\n",
       "   midi.NoteOnEvent(tick=9104, channel=0, data=[67, 0]),\n",
       "   midi.NoteOnEvent(tick=9120, channel=0, data=[67, 117]),\n",
       "   midi.NoteOnEvent(tick=9120, channel=0, data=[71, 105]),\n",
       "   midi.NoteOnEvent(tick=9120, channel=0, data=[62, 112]),\n",
       "   midi.NoteOnEvent(tick=9140, channel=0, data=[71, 0]),\n",
       "   midi.NoteOnEvent(tick=9140, channel=0, data=[67, 0]),\n",
       "   midi.NoteOnEvent(tick=9144, channel=0, data=[69, 93]),\n",
       "   midi.NoteOnEvent(tick=9156, channel=0, data=[62, 0]),\n",
       "   midi.NoteOnEvent(tick=9164, channel=0, data=[69, 0]),\n",
       "   midi.NoteOnEvent(tick=9168, channel=0, data=[67, 110]),\n",
       "   midi.NoteOnEvent(tick=9168, channel=0, data=[62, 95]),\n",
       "   midi.NoteOnEvent(tick=9168, channel=0, data=[69, 82]),\n",
       "   midi.NoteOnEvent(tick=9169, channel=0, data=[69, 0]),\n",
       "   midi.NoteOnEvent(tick=9180, channel=0, data=[59, 0]),\n",
       "   midi.NoteOnEvent(tick=9180, channel=0, data=[67, 0]),\n",
       "   midi.NoteOnEvent(tick=9184, channel=0, data=[62, 0]),\n",
       "   midi.NoteOnEvent(tick=9192, channel=0, data=[59, 84]),\n",
       "   midi.NoteOnEvent(tick=9192, channel=0, data=[64, 70]),\n",
       "   midi.NoteOnEvent(tick=9196, channel=0, data=[64, 0]),\n",
       "   midi.NoteOnEvent(tick=9196, channel=0, data=[50, 0]),\n",
       "   midi.NoteOnEvent(tick=9200, channel=0, data=[59, 0]),\n",
       "   midi.NoteOnEvent(tick=9204, channel=0, data=[55, 0]),\n",
       "   midi.ControlChangeEvent(tick=9216, channel=0, data=[64, 0]),\n",
       "   midi.NoteOnEvent(tick=9216, channel=0, data=[69, 105]),\n",
       "   midi.NoteOnEvent(tick=9216, channel=0, data=[64, 110]),\n",
       "   midi.NoteOnEvent(tick=9216, channel=0, data=[60, 106]),\n",
       "   midi.NoteOnEvent(tick=9216, channel=0, data=[55, 92]),\n",
       "   midi.NoteOnEvent(tick=9216, channel=0, data=[48, 100]),\n",
       "   midi.ControlChangeEvent(tick=9240, channel=0, data=[64, 127]),\n",
       "   midi.NoteOnEvent(tick=9264, channel=0, data=[60, 0]),\n",
       "   midi.NoteOnEvent(tick=9268, channel=0, data=[69, 0]),\n",
       "   midi.NoteOnEvent(tick=9268, channel=0, data=[64, 0]),\n",
       "   midi.NoteOnEvent(tick=9288, channel=0, data=[64, 117]),\n",
       "   midi.NoteOnEvent(tick=9288, channel=0, data=[67, 117]),\n",
       "   midi.NoteOnEvent(tick=9288, channel=0, data=[60, 110]),\n",
       "   midi.NoteOnEvent(tick=9316, channel=0, data=[60, 0]),\n",
       "   midi.NoteOnEvent(tick=9336, channel=0, data=[60, 103]),\n",
       "   midi.NoteOnEvent(tick=9340, channel=0, data=[64, 0]),\n",
       "   midi.NoteOnEvent(tick=9360, channel=0, data=[64, 105]),\n",
       "   midi.NoteOnEvent(tick=9364, channel=0, data=[60, 0]),\n",
       "   midi.NoteOnEvent(tick=9380, channel=0, data=[48, 0]),\n",
       "   midi.NoteOnEvent(tick=9384, channel=0, data=[60, 87]),\n",
       "   midi.NoteOnEvent(tick=9392, channel=0, data=[60, 0]),\n",
       "   midi.NoteOnEvent(tick=9392, channel=0, data=[64, 0]),\n",
       "   midi.NoteOnEvent(tick=9392, channel=0, data=[67, 0]),\n",
       "   midi.NoteOnEvent(tick=9400, channel=0, data=[55, 0]),\n",
       "   midi.ControlChangeEvent(tick=9408, channel=0, data=[64, 0]),\n",
       "   midi.NoteOnEvent(tick=9408, channel=0, data=[55, 85]),\n",
       "   midi.NoteOnEvent(tick=9408, channel=0, data=[59, 92]),\n",
       "   midi.NoteOnEvent(tick=9408, channel=0, data=[67, 99]),\n",
       "   midi.NoteOnEvent(tick=9408, channel=0, data=[71, 94]),\n",
       "   midi.NoteOnEvent(tick=9408, channel=0, data=[50, 98]),\n",
       "   midi.NoteOnEvent(tick=9408, channel=0, data=[62, 117]),\n",
       "   midi.ControlChangeEvent(tick=9408, channel=0, data=[64, 127]),\n",
       "   midi.NoteOnEvent(tick=9424, channel=0, data=[62, 0]),\n",
       "   midi.NoteOnEvent(tick=9456, channel=0, data=[62, 99]),\n",
       "   midi.NoteOnEvent(tick=9460, channel=0, data=[59, 0]),\n",
       "   midi.NoteOnEvent(tick=9476, channel=0, data=[71, 0]),\n",
       "   midi.NoteOnEvent(tick=9480, channel=0, data=[59, 75]),\n",
       "   midi.NoteOnEvent(tick=9484, channel=0, data=[50, 0]),\n",
       "   midi.NoteOnEvent(tick=9484, channel=0, data=[67, 0]),\n",
       "   midi.NoteOnEvent(tick=9484, channel=0, data=[62, 0]),\n",
       "   midi.NoteOnEvent(tick=9488, channel=0, data=[55, 0]),\n",
       "   midi.NoteOnEvent(tick=9488, channel=0, data=[59, 0]),\n",
       "   midi.ControlChangeEvent(tick=9504, channel=0, data=[64, 0]),\n",
       "   midi.NoteOnEvent(tick=9504, channel=0, data=[57, 98]),\n",
       "   midi.NoteOnEvent(tick=9504, channel=0, data=[50, 93]),\n",
       "   midi.NoteOnEvent(tick=9504, channel=0, data=[69, 106]),\n",
       "   midi.NoteOnEvent(tick=9504, channel=0, data=[66, 101]),\n",
       "   midi.NoteOnEvent(tick=9504, channel=0, data=[62, 105]),\n",
       "   midi.ControlChangeEvent(tick=9504, channel=0, data=[64, 127]),\n",
       "   midi.NoteOnEvent(tick=9524, channel=0, data=[62, 0]),\n",
       "   midi.NoteOnEvent(tick=9552, channel=0, data=[62, 89]),\n",
       "   midi.NoteOnEvent(tick=9560, channel=0, data=[62, 0]),\n",
       "   midi.NoteOnEvent(tick=9560, channel=0, data=[50, 0]),\n",
       "   midi.NoteOnEvent(tick=9560, channel=0, data=[57, 0]),\n",
       "   midi.NoteOnEvent(tick=9564, channel=0, data=[69, 0]),\n",
       "   midi.NoteOnEvent(tick=9564, channel=0, data=[66, 0]),\n",
       "   midi.NoteOnEvent(tick=9600, channel=0, data=[59, 74]),\n",
       "   midi.ControlChangeEvent(tick=9600, channel=0, data=[64, 0]),\n",
       "   midi.NoteOnEvent(tick=9600, channel=0, data=[67, 98]),\n",
       "   midi.NoteOnEvent(tick=9600, channel=0, data=[71, 88]),\n",
       "   midi.NoteOnEvent(tick=9600, channel=0, data=[55, 84]),\n",
       "   midi.NoteOnEvent(tick=9600, channel=0, data=[62, 75]),\n",
       "   midi.ControlChangeEvent(tick=9624, channel=0, data=[64, 127]),\n",
       "   midi.NoteOnEvent(tick=9664, channel=0, data=[62, 0]),\n",
       "   midi.NoteOnEvent(tick=9668, channel=0, data=[67, 0]),\n",
       "   midi.NoteOnEvent(tick=9672, channel=0, data=[71, 0]),\n",
       "   midi.NoteOnEvent(tick=9696, channel=0, data=[71, 88]),\n",
       "   midi.NoteOnEvent(tick=9696, channel=0, data=[67, 95]),\n",
       "   midi.NoteOnEvent(tick=9696, channel=0, data=[62, 83]),\n",
       "   midi.NoteOnEvent(tick=9716, channel=0, data=[55, 0]),\n",
       "   midi.NoteOnEvent(tick=9724, channel=0, data=[59, 0]),\n",
       "   midi.NoteOnEvent(tick=9732, channel=0, data=[71, 0]),\n",
       "   midi.NoteOnEvent(tick=9744, channel=0, data=[72, 92]),\n",
       "   midi.NoteOnEvent(tick=9744, channel=0, data=[69, 94]),\n",
       "   midi.NoteOnEvent(tick=9744, channel=0, data=[57, 87]),\n",
       "   midi.NoteOnEvent(tick=9752, channel=0, data=[67, 0]),\n",
       "   midi.ControlChangeEvent(tick=9768, channel=0, data=[64, 0]),\n",
       "   midi.NoteOnEvent(tick=9780, channel=0, data=[72, 0]),\n",
       "   midi.NoteOnEvent(tick=9784, channel=0, data=[57, 0]),\n",
       "   midi.NoteOnEvent(tick=9784, channel=0, data=[69, 0]),\n",
       "   midi.NoteOnEvent(tick=9792, channel=0, data=[74, 92]),\n",
       "   midi.NoteOnEvent(tick=9792, channel=0, data=[71, 86]),\n",
       "   midi.NoteOnEvent(tick=9792, channel=0, data=[67, 92]),\n",
       "   midi.NoteOnEvent(tick=9792, channel=0, data=[59, 93]),\n",
       "   midi.ControlChangeEvent(tick=9792, channel=0, data=[64, 127]),\n",
       "   midi.NoteOnEvent(tick=9880, channel=0, data=[67, 0]),\n",
       "   midi.NoteOnEvent(tick=9884, channel=0, data=[71, 0]),\n",
       "   midi.NoteOnEvent(tick=9884, channel=0, data=[74, 0]),\n",
       "   midi.NoteOnEvent(tick=9888, channel=0, data=[72, 100]),\n",
       "   midi.NoteOnEvent(tick=9888, channel=0, data=[69, 103]),\n",
       "   midi.NoteOnEvent(tick=9904, channel=0, data=[62, 0]),\n",
       "   midi.NoteOnEvent(tick=9904, channel=0, data=[59, 0]),\n",
       "   midi.NoteOnEvent(tick=9920, channel=0, data=[72, 0]),\n",
       "   midi.NoteOnEvent(tick=9928, channel=0, data=[69, 0]),\n",
       "   midi.NoteOnEvent(tick=9936, channel=0, data=[67, 86]),\n",
       "   midi.NoteOnEvent(tick=9936, channel=0, data=[71, 85]),\n",
       "   midi.NoteOnEvent(tick=9960, channel=0, data=[67, 0]),\n",
       "   midi.NoteOnEvent(tick=9960, channel=0, data=[50, 86]),\n",
       "   midi.NoteOnEvent(tick=9960, channel=0, data=[57, 69]),\n",
       "   midi.NoteOnEvent(tick=9964, channel=0, data=[71, 0]),\n",
       "   midi.NoteOnEvent(tick=9984, channel=0, data=[57, 0]),\n",
       "   midi.ControlChangeEvent(tick=9984, channel=0, data=[64, 0]),\n",
       "   midi.NoteOnEvent(tick=9984, channel=0, data=[69, 105]),\n",
       "   midi.NoteOnEvent(tick=9984, channel=0, data=[66, 97]),\n",
       "   midi.ControlChangeEvent(tick=9984, channel=0, data=[64, 0]),\n",
       "   midi.NoteOnEvent(tick=9984, channel=0, data=[62, 100]),\n",
       "   midi.NoteOnEvent(tick=9984, channel=0, data=[54, 80]),\n",
       "   midi.NoteOnEvent(tick=9984, channel=0, data=[57, 87]),\n",
       "   midi.NoteOnEvent(tick=9985, channel=0, data=[66, 0]),\n",
       "   midi.NoteOnEvent(tick=9985, channel=0, data=[69, 0]),\n",
       "   midi.NoteOnEvent(tick=10060, channel=0, data=[50, 0]),\n",
       "   midi.ControlChangeEvent(tick=10080, channel=0, data=[64, 127]),\n",
       "   midi.NoteOnEvent(tick=10108, channel=0, data=[54, 0]),\n",
       "   midi.NoteOnEvent(tick=10108, channel=0, data=[57, 0]),\n",
       "   midi.NoteOnEvent(tick=10112, channel=0, data=[62, 0]),\n",
       "   midi.ControlChangeEvent(tick=10128, channel=0, data=[64, 0]),\n",
       "   midi.NoteOnEvent(tick=10128, channel=0, data=[71, 92]),\n",
       "   midi.NoteOnEvent(tick=10128, channel=0, data=[67, 103]),\n",
       "   midi.NoteOnEvent(tick=10128, channel=0, data=[62, 95]),\n",
       "   midi.NoteOnEvent(tick=10128, channel=0, data=[55, 108]),\n",
       "   midi.ControlChangeEvent(tick=10152, channel=0, data=[64, 127]),\n",
       "   midi.NoteOnEvent(tick=10156, channel=0, data=[62, 0]),\n",
       "   midi.NoteOnEvent(tick=10160, channel=0, data=[71, 0]),\n",
       "   midi.NoteOnEvent(tick=10164, channel=0, data=[67, 0]),\n",
       "   midi.NoteOnEvent(tick=10168, channel=0, data=[55, 0]),\n",
       "   midi.ControlChangeEvent(tick=10176, channel=0, data=[64, 0]),\n",
       "   midi.NoteOnEvent(tick=10176, channel=0, data=[72, 106]),\n",
       "   midi.NoteOnEvent(tick=10176, channel=0, data=[69, 105]),\n",
       "   midi.NoteOnEvent(tick=10176, channel=0, data=[64, 100]),\n",
       "   midi.NoteOnEvent(tick=10176, channel=0, data=[57, 99]),\n",
       "   midi.ControlChangeEvent(tick=10224, channel=0, data=[64, 127]),\n",
       "   midi.NoteOnEvent(tick=10252, channel=0, data=[64, 0]),\n",
       "   midi.NoteOnEvent(tick=10252, channel=0, data=[72, 0]),\n",
       "   midi.NoteOnEvent(tick=10256, channel=0, data=[69, 0]),\n",
       "   midi.NoteOnEvent(tick=10260, channel=0, data=[57, 0]),\n",
       "   midi.ControlChangeEvent(tick=10272, channel=0, data=[64, 0]),\n",
       "   midi.NoteOnEvent(tick=10272, channel=0, data=[67, 103]),\n",
       "   midi.NoteOnEvent(tick=10272, channel=0, data=[71, 96]),\n",
       "   midi.NoteOnEvent(tick=10272, channel=0, data=[62, 99]),\n",
       "   midi.NoteOnEvent(tick=10272, channel=0, data=[55, 100]),\n",
       "   midi.ControlChangeEvent(tick=10296, channel=0, data=[64, 127]),\n",
       "   midi.NoteOnEvent(tick=10308, channel=0, data=[71, 0]),\n",
       "   midi.NoteOnEvent(tick=10308, channel=0, data=[67, 0]),\n",
       "   midi.NoteOnEvent(tick=10316, channel=0, data=[62, 0]),\n",
       "   midi.ControlChangeEvent(tick=10344, channel=0, data=[64, 0]),\n",
       "   midi.NoteOnEvent(tick=10368, channel=0, data=[64, 105]),\n",
       "   midi.NoteOnEvent(tick=10368, channel=0, data=[67, 110]),\n",
       "   midi.NoteOnEvent(tick=10368, channel=0, data=[48, 96]),\n",
       "   midi.ControlChangeEvent(tick=10392, channel=0, data=[64, 127]),\n",
       "   midi.NoteOnEvent(tick=10484, channel=0, data=[55, 0]),\n",
       "   midi.NoteOnEvent(tick=10512, channel=0, data=[55, 94]),\n",
       "   midi.NoteOnEvent(tick=10536, channel=0, data=[48, 0]),\n",
       "   midi.NoteOnEvent(tick=10548, channel=0, data=[67, 0]),\n",
       "   midi.NoteOnEvent(tick=10552, channel=0, data=[64, 0]),\n",
       "   midi.NoteOnEvent(tick=10552, channel=0, data=[55, 0]),\n",
       "   midi.ControlChangeEvent(tick=10560, channel=0, data=[64, 0]),\n",
       "   midi.NoteOnEvent(tick=10560, channel=0, data=[69, 99]),\n",
       "   midi.NoteOnEvent(tick=10560, channel=0, data=[66, 99]),\n",
       "   midi.NoteOnEvent(tick=10560, channel=0, data=[57, 85]),\n",
       "   midi.NoteOnEvent(tick=10560, channel=0, data=[62, 98]),\n",
       "   midi.NoteOnEvent(tick=10560, channel=0, data=[50, 90]),\n",
       "   midi.ControlChangeEvent(tick=10608, channel=0, data=[64, 127]),\n",
       "   midi.NoteOnEvent(tick=10720, channel=0, data=[69, 0]),\n",
       "   midi.NoteOnEvent(tick=10724, channel=0, data=[62, 0]),\n",
       "   midi.NoteOnEvent(tick=10724, channel=0, data=[66, 0]),\n",
       "   midi.NoteOnEvent(tick=10724, channel=0, data=[50, 0]),\n",
       "   midi.NoteOnEvent(tick=10728, channel=0, data=[57, 0]),\n",
       "   midi.ControlChangeEvent(tick=10752, channel=0, data=[64, 0]),\n",
       "   midi.NoteOnEvent(tick=10752, channel=0, data=[55, 91]),\n",
       "   midi.NoteOnEvent(tick=10752, channel=0, data=[48, 95]),\n",
       "   midi.NoteOnEvent(tick=10752, channel=0, data=[62, 112]),\n",
       "   midi.NoteOnEvent(tick=10752, channel=0, data=[67, 108]),\n",
       "   midi.NoteOnEvent(tick=10752, channel=0, data=[64, 93]),\n",
       "   midi.NoteOnEvent(tick=10764, channel=0, data=[62, 0]),\n",
       "   midi.NoteOnEvent(tick=10848, channel=0, data=[60, 89]),\n",
       "   midi.ControlChangeEvent(tick=10848, channel=0, data=[64, 127]),\n",
       "   midi.NoteOnEvent(tick=10868, channel=0, data=[48, 0]),\n",
       "   midi.NoteOnEvent(tick=10872, channel=0, data=[64, 0]),\n",
       "   midi.NoteOnEvent(tick=10872, channel=0, data=[60, 0]),\n",
       "   midi.NoteOnEvent(tick=10872, channel=0, data=[67, 0]),\n",
       "   midi.NoteOnEvent(tick=10880, channel=0, data=[55, 0]),\n",
       "   midi.ControlChangeEvent(tick=10896, channel=0, data=[64, 0]),\n",
       "   midi.NoteOnEvent(tick=10896, channel=0, data=[67, 99]),\n",
       "   midi.NoteOnEvent(tick=10896, channel=0, data=[62, 103]),\n",
       "   midi.NoteOnEvent(tick=10896, channel=0, data=[55, 95]),\n",
       "   midi.NoteOnEvent(tick=10896, channel=0, data=[59, 86]),\n",
       "   midi.NoteOnEvent(tick=10896, channel=0, data=[50, 88]),\n",
       "   midi.ControlChangeEvent(tick=10968, channel=0, data=[64, 127]),\n",
       "   midi.NoteOnEvent(tick=10996, channel=0, data=[67, 0]),\n",
       "   midi.NoteOnEvent(tick=11000, channel=0, data=[59, 0]),\n",
       "   midi.NoteOnEvent(tick=11000, channel=0, data=[62, 0]),\n",
       "   midi.NoteOnEvent(tick=11000, channel=0, data=[50, 0]),\n",
       "   midi.NoteOnEvent(tick=11008, channel=0, data=[55, 0]),\n",
       "   midi.ControlChangeEvent(tick=11040, channel=0, data=[64, 0]),\n",
       "   midi.NoteOnEvent(tick=11040, channel=0, data=[66, 101]),\n",
       "   midi.NoteOnEvent(tick=11040, channel=0, data=[69, 102]),\n",
       "   midi.NoteOnEvent(tick=11040, channel=0, data=[62, 102]),\n",
       "   midi.NoteOnEvent(tick=11040, channel=0, data=[50, 93]),\n",
       "   midi.NoteOnEvent(tick=11040, channel=0, data=[57, 86]),\n",
       "   midi.NoteOnEvent(tick=11060, channel=0, data=[62, 0]),\n",
       "   midi.NoteOnEvent(tick=11064, channel=0, data=[64, 94]),\n",
       "   midi.NoteOnEvent(tick=11088, channel=0, data=[62, 95]),\n",
       "   midi.ControlChangeEvent(tick=11088, channel=0, data=[64, 127]),\n",
       "   midi.NoteOnEvent(tick=11092, channel=0, data=[57, 0]),\n",
       "   midi.NoteOnEvent(tick=11100, channel=0, data=[64, 0]),\n",
       "   midi.NoteOnEvent(tick=11100, channel=0, data=[66, 0]),\n",
       "   midi.NoteOnEvent(tick=11104, channel=0, data=[69, 0]),\n",
       "   midi.NoteOnEvent(tick=11112, channel=0, data=[57, 80]),\n",
       "   midi.NoteOnEvent(tick=11116, channel=0, data=[50, 0]),\n",
       "   midi.NoteOnEvent(tick=11120, channel=0, data=[57, 0]),\n",
       "   midi.NoteOnEvent(tick=11120, channel=0, data=[62, 0]),\n",
       "   midi.ControlChangeEvent(tick=11136, channel=0, data=[64, 0]),\n",
       "   midi.NoteOnEvent(tick=11136, channel=0, data=[71, 98]),\n",
       "   midi.NoteOnEvent(tick=11136, channel=0, data=[62, 103]),\n",
       "   midi.NoteOnEvent(tick=11136, channel=0, data=[67, 112]),\n",
       "   midi.NoteOnEvent(tick=11136, channel=0, data=[55, 98]),\n",
       "   midi.NoteOnEvent(tick=11136, channel=0, data=[59, 93]),\n",
       "   midi.ControlChangeEvent(tick=11232, channel=0, data=[64, 127]),\n",
       "   midi.NoteOnEvent(tick=11256, channel=0, data=[59, 0]),\n",
       "   midi.NoteOnEvent(tick=11260, channel=0, data=[55, 0]),\n",
       "   midi.NoteOnEvent(tick=11264, channel=0, data=[71, 0]),\n",
       "   midi.NoteOnEvent(tick=11264, channel=0, data=[62, 0]),\n",
       "   midi.NoteOnEvent(tick=11268, channel=0, data=[67, 0]),\n",
       "   midi.ControlChangeEvent(tick=11280, channel=0, data=[64, 0]),\n",
       "   midi.NoteOnEvent(tick=11280, channel=0, data=[72, 98]),\n",
       "   midi.NoteOnEvent(tick=11280, channel=0, data=[69, 99]),\n",
       "   midi.NoteOnEvent(tick=11280, channel=0, data=[57, 105]),\n",
       "   midi.NoteOnEvent(tick=11280, channel=0, data=[62, 94]),\n",
       "   midi.ControlChangeEvent(tick=11280, channel=0, data=[64, 127]),\n",
       "   midi.NoteOnEvent(tick=11312, channel=0, data=[62, 0]),\n",
       "   midi.NoteOnEvent(tick=11312, channel=0, data=[72, 0]),\n",
       "   midi.NoteOnEvent(tick=11320, channel=0, data=[69, 0]),\n",
       "   midi.NoteOnEvent(tick=11324, channel=0, data=[57, 0]),\n",
       "   midi.ControlChangeEvent(tick=11328, channel=0, data=[64, 0]),\n",
       "   midi.NoteOnEvent(tick=11328, channel=0, data=[62, 93]),\n",
       "   midi.NoteOnEvent(tick=11328, channel=0, data=[59, 93]),\n",
       "   midi.NoteOnEvent(tick=11328, channel=0, data=[67, 98]),\n",
       "   midi.NoteOnEvent(tick=11328, channel=0, data=[71, 89]),\n",
       "   midi.NoteOnEvent(tick=11328, channel=0, data=[74, 102]),\n",
       "   midi.ControlChangeEvent(tick=11328, channel=0, data=[64, 127]),\n",
       "   midi.NoteOnEvent(tick=11492, channel=0, data=[74, 0]),\n",
       "   midi.NoteOnEvent(tick=11492, channel=0, data=[67, 0]),\n",
       "   midi.NoteOnEvent(tick=11496, channel=0, data=[62, 0]),\n",
       "   midi.NoteOnEvent(tick=11496, channel=0, data=[59, 0]),\n",
       "   midi.NoteOnEvent(tick=11496, channel=0, data=[71, 0]),\n",
       "   midi.ControlChangeEvent(tick=11520, channel=0, data=[64, 0]),\n",
       "   midi.NoteOnEvent(tick=11520, channel=0, data=[69, 98]),\n",
       "   midi.NoteOnEvent(tick=11520, channel=0, data=[62, 95]),\n",
       "   midi.NoteOnEvent(tick=11520, channel=0, data=[66, 99]),\n",
       "   midi.NoteOnEvent(tick=11520, channel=0, data=[54, 79]),\n",
       "   midi.NoteOnEvent(tick=11520, channel=0, data=[57, 86]),\n",
       "   midi.ControlChangeEvent(tick=11616, channel=0, data=[64, 127]),\n",
       "   midi.NoteOnEvent(tick=11636, channel=0, data=[57, 0]),\n",
       "   midi.NoteOnEvent(tick=11640, channel=0, data=[54, 0]),\n",
       "   midi.NoteOnEvent(tick=11644, channel=0, data=[66, 0]),\n",
       "   midi.NoteOnEvent(tick=11644, channel=0, data=[62, 0]),\n",
       "   midi.NoteOnEvent(tick=11648, channel=0, data=[69, 0]),\n",
       "   midi.ControlChangeEvent(tick=11664, channel=0, data=[64, 0]),\n",
       "   midi.NoteOnEvent(tick=11664, channel=0, data=[55, 95]),\n",
       "   midi.NoteOnEvent(tick=11664, channel=0, data=[71, 92]),\n",
       "   midi.NoteOnEvent(tick=11664, channel=0, data=[67, 103]),\n",
       "   midi.NoteOnEvent(tick=11664, channel=0, data=[62, 94]),\n",
       "   midi.ControlChangeEvent(tick=11664, channel=0, data=[64, 127]),\n",
       "   midi.NoteOnEvent(tick=11696, channel=0, data=[62, 0]),\n",
       "   midi.NoteOnEvent(tick=11696, channel=0, data=[71, 0]),\n",
       "   midi.NoteOnEvent(tick=11700, channel=0, data=[67, 0]),\n",
       "   midi.NoteOnEvent(tick=11704, channel=0, data=[55, 0]),\n",
       "   midi.ControlChangeEvent(tick=11712, channel=0, data=[64, 0]),\n",
       "   midi.NoteOnEvent(tick=11712, channel=0, data=[69, 96]),\n",
       "   midi.NoteOnEvent(tick=11712, channel=0, data=[72, 99]),\n",
       "   midi.NoteOnEvent(tick=11712, channel=0, data=[62, 96]),\n",
       "   midi.NoteOnEvent(tick=11712, channel=0, data=[57, 95]),\n",
       "   midi.ControlChangeEvent(tick=11760, channel=0, data=[64, 127]),\n",
       "   midi.NoteOnEvent(tick=11792, channel=0, data=[62, 0]),\n",
       "   midi.NoteOnEvent(tick=11792, channel=0, data=[69, 0]),\n",
       "   midi.NoteOnEvent(tick=11792, channel=0, data=[72, 0]),\n",
       "   midi.NoteOnEvent(tick=11796, channel=0, data=[57, 0]),\n",
       "   midi.ControlChangeEvent(tick=11808, channel=0, data=[64, 0]),\n",
       "   midi.NoteOnEvent(tick=11808, channel=0, data=[71, 92]),\n",
       "   midi.NoteOnEvent(tick=11808, channel=0, data=[67, 102]),\n",
       "   midi.NoteOnEvent(tick=11808, channel=0, data=[55, 102]),\n",
       "   midi.NoteOnEvent(tick=11808, channel=0, data=[62, 96]),\n",
       "   midi.ControlChangeEvent(tick=11808, channel=0, data=[64, 127]),\n",
       "   midi.NoteOnEvent(tick=11848, channel=0, data=[67, 0]),\n",
       "   midi.NoteOnEvent(tick=11848, channel=0, data=[71, 0]),\n",
       "   midi.NoteOnEvent(tick=11856, channel=0, data=[62, 0]),\n",
       "   midi.NoteOnEvent(tick=11900, channel=0, data=[55, 0]),\n",
       "   midi.ControlChangeEvent(tick=11904, channel=0, data=[64, 0]),\n",
       "   midi.NoteOnEvent(tick=11904, channel=0, data=[67, 98]),\n",
       "   midi.NoteOnEvent(tick=11904, channel=0, data=[55, 65]),\n",
       "   midi.NoteOnEvent(tick=11904, channel=0, data=[64, 100]),\n",
       "   midi.NoteOnEvent(tick=11904, channel=0, data=[60, 93]),\n",
       "   midi.NoteOnEvent(tick=11904, channel=0, data=[48, 91]),\n",
       "   midi.ControlChangeEvent(tick=11952, channel=0, data=[64, 127]),\n",
       "   midi.NoteOnEvent(tick=12032, channel=0, data=[60, 0]),\n",
       "   midi.NoteOnEvent(tick=12036, channel=0, data=[64, 0]),\n",
       "   midi.NoteOnEvent(tick=12036, channel=0, data=[67, 0]),\n",
       "   midi.NoteOnEvent(tick=12048, channel=0, data=[67, 99]),\n",
       "   midi.NoteOnEvent(tick=12048, channel=0, data=[64, 93]),\n",
       "   midi.NoteOnEvent(tick=12048, channel=0, data=[60, 93]),\n",
       "   midi.NoteOnEvent(tick=12068, channel=0, data=[48, 0]),\n",
       "   midi.NoteOnEvent(tick=12072, channel=0, data=[60, 0]),\n",
       "   midi.NoteOnEvent(tick=12072, channel=0, data=[67, 0]),\n",
       "   midi.NoteOnEvent(tick=12080, channel=0, data=[64, 0]),\n",
       "   midi.NoteOnEvent(tick=12084, channel=0, data=[55, 0]),\n",
       "   midi.ControlChangeEvent(tick=12096, channel=0, data=[64, 0]),\n",
       "   midi.NoteOnEvent(tick=12096, channel=0, data=[66, 91]),\n",
       "   midi.NoteOnEvent(tick=12096, channel=0, data=[69, 100]),\n",
       "   midi.NoteOnEvent(tick=12096, channel=0, data=[62, 100]),\n",
       "   midi.NoteOnEvent(tick=12096, channel=0, data=[50, 90]),\n",
       "   midi.NoteOnEvent(tick=12096, channel=0, data=[57, 81]),\n",
       "   midi.ControlChangeEvent(tick=12120, channel=0, data=[64, 127]),\n",
       "   midi.NoteOnEvent(tick=12220, channel=0, data=[57, 0]),\n",
       "   midi.NoteOnEvent(tick=12240, channel=0, data=[57, 82]),\n",
       "   midi.NoteOnEvent(tick=12256, channel=0, data=[69, 0]),\n",
       "   midi.NoteOnEvent(tick=12260, channel=0, data=[57, 0]),\n",
       "   midi.NoteOnEvent(tick=12260, channel=0, data=[62, 0]),\n",
       "   midi.NoteOnEvent(tick=12264, channel=0, data=[66, 0]),\n",
       "   midi.NoteOnEvent(tick=12264, channel=0, data=[50, 0]),\n",
       "   midi.ControlChangeEvent(tick=12288, channel=0, data=[64, 0]),\n",
       "   midi.NoteOnEvent(tick=12288, channel=0, data=[55, 102]),\n",
       "   midi.NoteOnEvent(tick=12288, channel=0, data=[48, 96]),\n",
       "   midi.NoteOnEvent(tick=12288, channel=0, data=[64, 108]),\n",
       "   midi.NoteOnEvent(tick=12288, channel=0, data=[67, 112]),\n",
       "   midi.NoteOnEvent(tick=12288, channel=0, data=[60, 106]),\n",
       "   midi.ControlChangeEvent(tick=12312, channel=0, data=[64, 127]),\n",
       "   midi.NoteOnEvent(tick=12360, channel=0, data=[55, 0]),\n",
       "   midi.NoteOnEvent(tick=12384, channel=0, data=[55, 93]),\n",
       "   midi.NoteOnEvent(tick=12396, channel=0, data=[48, 0]),\n",
       "   midi.NoteOnEvent(tick=12408, channel=0, data=[60, 0]),\n",
       "   midi.NoteOnEvent(tick=12408, channel=0, data=[67, 0]),\n",
       "   midi.NoteOnEvent(tick=12408, channel=0, data=[64, 0]),\n",
       "   midi.NoteOnEvent(tick=12416, channel=0, data=[55, 0]),\n",
       "   midi.ControlChangeEvent(tick=12432, channel=0, data=[64, 0]),\n",
       "   midi.NoteOnEvent(tick=12432, channel=0, data=[67, 108]),\n",
       "   midi.NoteOnEvent(tick=12432, channel=0, data=[62, 110]),\n",
       "   midi.NoteOnEvent(tick=12432, channel=0, data=[55, 95]),\n",
       "   midi.NoteOnEvent(tick=12432, channel=0, data=[59, 94]),\n",
       "   midi.NoteOnEvent(tick=12432, channel=0, data=[50, 93]),\n",
       "   midi.ControlChangeEvent(tick=12480, channel=0, data=[64, 127]),\n",
       "   midi.NoteOnEvent(tick=12488, channel=0, data=[50, 0]),\n",
       "   midi.NoteOnEvent(tick=12488, channel=0, data=[62, 0]),\n",
       "   midi.NoteOnEvent(tick=12492, channel=0, data=[67, 0]),\n",
       "   midi.NoteOnEvent(tick=12492, channel=0, data=[59, 0]),\n",
       "   midi.NoteOnEvent(tick=12496, channel=0, data=[55, 0]),\n",
       "   midi.NoteOnEvent(tick=12576, channel=0, data=[62, 100]),\n",
       "   midi.NoteOnEvent(tick=12576, channel=0, data=[74, 108]),\n",
       "   midi.NoteOnEvent(tick=12592, channel=0, data=[74, 0]),\n",
       "   midi.NoteOnEvent(tick=12600, channel=0, data=[62, 0]),\n",
       "   midi.NoteOnEvent(tick=12600, channel=0, data=[76, 108]),\n",
       "   midi.NoteOnEvent(tick=12600, channel=0, data=[64, 94]),\n",
       "   midi.NoteOnEvent(tick=12616, channel=0, data=[76, 0]),\n",
       "   midi.NoteOnEvent(tick=12620, channel=0, data=[64, 0]),\n",
       "   midi.NoteOnEvent(tick=12624, channel=0, data=[79, 108]),\n",
       "   midi.NoteOnEvent(tick=12624, channel=0, data=[74, 114]),\n",
       "   midi.NoteOnEvent(tick=12624, channel=0, data=[67, 106]),\n",
       "   midi.NoteOnEvent(tick=12648, channel=0, data=[67, 0]),\n",
       "   midi.NoteOnEvent(tick=12648, channel=0, data=[74, 0]),\n",
       "   midi.NoteOnEvent(tick=12652, channel=0, data=[79, 0]),\n",
       "   midi.ControlChangeEvent(tick=12672, channel=0, data=[64, 0]),\n",
       "   midi.NoteOnEvent(tick=12672, channel=0, data=[81, 103]),\n",
       "   midi.NoteOnEvent(tick=12672, channel=0, data=[72, 114]),\n",
       "   midi.NoteOnEvent(tick=12672, channel=0, data=[76, 117]),\n",
       "   midi.NoteOnEvent(tick=12672, channel=0, data=[64, 89]),\n",
       "   midi.NoteOnEvent(tick=12672, channel=0, data=[60, 87]),\n",
       "   midi.NoteOnEvent(tick=12672, channel=0, data=[57, 86]),\n",
       "   midi.NoteOnEvent(tick=12692, channel=0, data=[64, 0]),\n",
       "   midi.ControlChangeEvent(tick=12696, channel=0, data=[64, 127]),\n",
       "   midi.NoteOnEvent(tick=12720, channel=0, data=[64, 110]),\n",
       "   midi.NoteOnEvent(tick=12724, channel=0, data=[76, 0]),\n",
       "   midi.NoteOnEvent(tick=12724, channel=0, data=[81, 0]),\n",
       "   midi.NoteOnEvent(tick=12724, channel=0, data=[72, 0]),\n",
       "   midi.NoteOnEvent(tick=12744, channel=0, data=[79, 106]),\n",
       "   midi.NoteOnEvent(tick=12744, channel=0, data=[72, 119]),\n",
       "   midi.NoteOnEvent(tick=12744, channel=0, data=[74, 121]),\n",
       "   midi.NoteOnEvent(tick=12768, channel=0, data=[74, 0]),\n",
       "   midi.NoteOnEvent(tick=12768, channel=0, data=[60, 0]),\n",
       "   midi.NoteOnEvent(tick=12772, channel=0, data=[79, 0]),\n",
       "   midi.NoteOnEvent(tick=12772, channel=0, data=[57, 0]),\n",
       "   midi.NoteOnEvent(tick=12772, channel=0, data=[64, 0]),\n",
       "   midi.NoteOnEvent(tick=12772, channel=0, data=[72, 0]),\n",
       "   midi.ControlChangeEvent(tick=12816, channel=0, data=[64, 0]),\n",
       "   midi.NoteOnEvent(tick=12816, channel=0, data=[59, 89]),\n",
       "   midi.NoteOnEvent(tick=12816, channel=0, data=[74, 119]),\n",
       "   midi.NoteOnEvent(tick=12816, channel=0, data=[79, 105]),\n",
       "   midi.NoteOnEvent(tick=12816, channel=0, data=[71, 108]),\n",
       "   midi.NoteOnEvent(tick=12816, channel=0, data=[62, 90]),\n",
       "   midi.NoteOnEvent(tick=12816, channel=0, data=[55, 95]),\n",
       "   midi.NoteOnEvent(tick=12848, channel=0, data=[71, 0]),\n",
       "   midi.ControlChangeEvent(tick=12864, channel=0, data=[64, 127]),\n",
       "   midi.NoteOnEvent(tick=12864, channel=0, data=[71, 77]),\n",
       "   midi.NoteOnEvent(tick=12872, channel=0, data=[62, 0]),\n",
       "   midi.NoteOnEvent(tick=12924, channel=0, data=[79, 0]),\n",
       "   midi.NoteOnEvent(tick=12924, channel=0, data=[74, 0]),\n",
       "   midi.NoteOnEvent(tick=12932, channel=0, data=[71, 0]),\n",
       "   midi.NoteOnEvent(tick=12936, channel=0, data=[62, 106]),\n",
       "   midi.NoteOnEvent(tick=12960, channel=0, data=[76, 106]),\n",
       "   midi.NoteOnEvent(tick=12960, channel=0, data=[71, 106]),\n",
       "   midi.NoteOnEvent(tick=12960, channel=0, data=[67, 117]),\n",
       "   midi.NoteOnEvent(tick=12980, channel=0, data=[76, 0]),\n",
       "   midi.NoteOnEvent(tick=12984, channel=0, data=[71, 0]),\n",
       "   midi.NoteOnEvent(tick=12984, channel=0, data=[74, 99]),\n",
       "   midi.NoteOnEvent(tick=13004, channel=0, data=[74, 0]),\n",
       "   midi.NoteOnEvent(tick=13008, channel=0, data=[62, 0]),\n",
       "   midi.NoteOnEvent(tick=13008, channel=0, data=[71, 95]),\n",
       "   midi.NoteOnEvent(tick=13032, channel=0, data=[67, 0]),\n",
       "   midi.NoteOnEvent(tick=13032, channel=0, data=[62, 79]),\n",
       "   midi.NoteOnEvent(tick=13036, channel=0, data=[62, 0]),\n",
       "   midi.NoteOnEvent(tick=13036, channel=0, data=[71, 0]),\n",
       "   midi.NoteOnEvent(tick=13036, channel=0, data=[59, 0]),\n",
       "   midi.NoteOnEvent(tick=13036, channel=0, data=[55, 0]),\n",
       "   midi.ControlChangeEvent(tick=13056, channel=0, data=[64, 0]),\n",
       "   midi.NoteOnEvent(tick=13056, channel=0, data=[74, 117]),\n",
       "   midi.NoteOnEvent(tick=13056, channel=0, data=[67, 117]),\n",
       "   midi.NoteOnEvent(tick=13056, channel=0, data=[71, 106]),\n",
       "   midi.NoteOnEvent(tick=13056, channel=0, data=[59, 99]),\n",
       "   midi.NoteOnEvent(tick=13056, channel=0, data=[55, 96]),\n",
       "   midi.NoteOnEvent(tick=13056, channel=0, data=[52, 86]),\n",
       "   midi.ControlChangeEvent(tick=13080, channel=0, data=[64, 127]),\n",
       "   midi.NoteOnEvent(tick=13084, channel=0, data=[59, 0]),\n",
       "   midi.NoteOnEvent(tick=13104, channel=0, data=[59, 100]),\n",
       "   midi.NoteOnEvent(tick=13112, channel=0, data=[71, 0]),\n",
       "   midi.NoteOnEvent(tick=13112, channel=0, data=[74, 0]),\n",
       "   midi.NoteOnEvent(tick=13112, channel=0, data=[67, 0]),\n",
       "   midi.NoteOnEvent(tick=13128, channel=0, data=[71, 105]),\n",
       "   midi.NoteOnEvent(tick=13128, channel=0, data=[67, 114]),\n",
       "   midi.NoteOnEvent(tick=13128, channel=0, data=[74, 114]),\n",
       "   midi.NoteOnEvent(tick=13148, channel=0, data=[74, 0]),\n",
       "   midi.NoteOnEvent(tick=13148, channel=0, data=[71, 0]),\n",
       "   midi.NoteOnEvent(tick=13148, channel=0, data=[67, 0]),\n",
       "   midi.NoteOnEvent(tick=13156, channel=0, data=[59, 0]),\n",
       "   midi.NoteOnEvent(tick=13172, channel=0, data=[52, 0]),\n",
       "   midi.NoteOnEvent(tick=13180, channel=0, data=[55, 0]),\n",
       "   midi.ControlChangeEvent(tick=13200, channel=0, data=[64, 0]),\n",
       "   midi.NoteOnEvent(tick=13200, channel=0, data=[69, 110]),\n",
       "   midi.NoteOnEvent(tick=13200, channel=0, data=[74, 108]),\n",
       "   midi.NoteOnEvent(tick=13200, channel=0, data=[66, 104]),\n",
       "   midi.NoteOnEvent(tick=13200, channel=0, data=[57, 96]),\n",
       "   midi.NoteOnEvent(tick=13200, channel=0, data=[50, 92]),\n",
       "   midi.ControlChangeEvent(tick=13248, channel=0, data=[64, 127]),\n",
       "   midi.NoteOnEvent(tick=13296, channel=0, data=[62, 102]),\n",
       "   midi.NoteOnEvent(tick=13304, channel=0, data=[62, 0]),\n",
       "   midi.NoteOnEvent(tick=13316, channel=0, data=[74, 0]),\n",
       "   midi.NoteOnEvent(tick=13316, channel=0, data=[66, 0]),\n",
       "   midi.NoteOnEvent(tick=13320, channel=0, data=[69, 0]),\n",
       "   midi.NoteOnEvent(tick=13320, channel=0, data=[62, 106]),\n",
       "   midi.NoteOnEvent(tick=13344, channel=0, data=[71, 86]),\n",
       "   midi.NoteOnEvent(tick=13344, channel=0, data=[74, 96]),\n",
       "   midi.NoteOnEvent(tick=13344, channel=0, data=[66, 99]),\n",
       "   midi.NoteOnEvent(tick=13356, channel=0, data=[66, 0]),\n",
       "   midi.NoteOnEvent(tick=13360, channel=0, data=[74, 0]),\n",
       "   midi.NoteOnEvent(tick=13364, channel=0, data=[71, 0]),\n",
       "   midi.NoteOnEvent(tick=13368, channel=0, data=[74, 91]),\n",
       "   midi.NoteOnEvent(tick=13368, channel=0, data=[69, 96]),\n",
       "   midi.NoteOnEvent(tick=13368, channel=0, data=[66, 86]),\n",
       "   midi.NoteOnEvent(tick=13376, channel=0, data=[62, 0]),\n",
       "   midi.NoteOnEvent(tick=13388, channel=0, data=[69, 0]),\n",
       "   midi.NoteOnEvent(tick=13388, channel=0, data=[74, 0]),\n",
       "   midi.NoteOnEvent(tick=13392, channel=0, data=[66, 0]),\n",
       "   midi.NoteOnEvent(tick=13392, channel=0, data=[62, 89]),\n",
       "   midi.NoteOnEvent(tick=13400, channel=0, data=[62, 0]),\n",
       "   midi.NoteOnEvent(tick=13416, channel=0, data=[50, 0]),\n",
       "   midi.NoteOnEvent(tick=13416, channel=0, data=[62, 89]),\n",
       "   midi.ControlChangeEvent(tick=13416, channel=0, data=[64, 0]),\n",
       "   midi.NoteOnEvent(tick=13420, channel=0, data=[57, 0]),\n",
       "   midi.NoteOnEvent(tick=13424, channel=0, data=[62, 0]),\n",
       "   midi.NoteOnEvent(tick=13440, channel=0, data=[57, 86]),\n",
       "   midi.NoteOnEvent(tick=13440, channel=0, data=[69, 96]),\n",
       "   midi.NoteOnEvent(tick=13440, channel=0, data=[72, 108]),\n",
       "   midi.NoteOnEvent(tick=13440, channel=0, data=[64, 102]),\n",
       "   midi.NoteOnEvent(tick=13440, channel=0, data=[52, 89]),\n",
       "   midi.NoteOnEvent(tick=13440, channel=0, data=[60, 84]),\n",
       "   midi.ControlChangeEvent(tick=13440, channel=0, data=[64, 127]),\n",
       "   midi.NoteOnEvent(tick=13456, channel=0, data=[60, 0]),\n",
       "   midi.NoteOnEvent(tick=13488, channel=0, data=[60, 82]),\n",
       "   midi.NoteOnEvent(tick=13492, channel=0, data=[72, 0]),\n",
       "   midi.NoteOnEvent(tick=13496, channel=0, data=[64, 0]),\n",
       "   midi.NoteOnEvent(tick=13496, channel=0, data=[69, 0]),\n",
       "   midi.NoteOnEvent(tick=13512, channel=0, data=[72, 106]),\n",
       "   midi.NoteOnEvent(tick=13512, channel=0, data=[64, 112]),\n",
       "   midi.NoteOnEvent(tick=13512, channel=0, data=[69, 112]),\n",
       "   midi.NoteOnEvent(tick=13536, channel=0, data=[60, 0]),\n",
       "   midi.NoteOnEvent(tick=13552, channel=0, data=[72, 0]),\n",
       "   midi.NoteOnEvent(tick=13552, channel=0, data=[69, 0]),\n",
       "   midi.NoteOnEvent(tick=13556, channel=0, data=[52, 0]),\n",
       "   midi.NoteOnEvent(tick=13556, channel=0, data=[64, 0]),\n",
       "   midi.NoteOnEvent(tick=13568, channel=0, data=[57, 0]),\n",
       "   midi.ControlChangeEvent(tick=13584, channel=0, data=[64, 0]),\n",
       "   midi.NoteOnEvent(tick=13584, channel=0, data=[71, 99]),\n",
       "   midi.NoteOnEvent(tick=13584, channel=0, data=[67, 103]),\n",
       "   midi.NoteOnEvent(tick=13584, channel=0, data=[62, 105]),\n",
       "   midi.NoteOnEvent(tick=13584, channel=0, data=[55, 99]),\n",
       "   midi.NoteOnEvent(tick=13584, channel=0, data=[59, 96]),\n",
       "   midi.NoteOnEvent(tick=13584, channel=0, data=[50, 91]),\n",
       "   midi.NoteOnEvent(tick=13612, channel=0, data=[62, 0]),\n",
       "   midi.ControlChangeEvent(tick=13632, channel=0, data=[64, 127]),\n",
       "   midi.NoteOnEvent(tick=13632, channel=0, data=[62, 72]),\n",
       "   midi.NoteOnEvent(tick=13640, channel=0, data=[59, 0]),\n",
       "   midi.NoteOnEvent(tick=13680, channel=0, data=[59, 63]),\n",
       "   midi.NoteOnEvent(tick=13684, channel=0, data=[59, 0]),\n",
       "   midi.NoteOnEvent(tick=13704, channel=0, data=[62, 0]),\n",
       "   midi.NoteOnEvent(tick=13704, channel=0, data=[59, 98]),\n",
       "   midi.NoteOnEvent(tick=13708, channel=0, data=[71, 0]),\n",
       "   midi.NoteOnEvent(tick=13708, channel=0, data=[67, 0]),\n",
       "   midi.NoteOnEvent(tick=13728, channel=0, data=[67, 105]),\n",
       "   midi.NoteOnEvent(tick=13728, channel=0, data=[71, 102]),\n",
       "   midi.NoteOnEvent(tick=13728, channel=0, data=[62, 110]),\n",
       "   midi.NoteOnEvent(tick=13748, channel=0, data=[71, 0]),\n",
       "   midi.NoteOnEvent(tick=13748, channel=0, data=[67, 0]),\n",
       "   midi.NoteOnEvent(tick=13752, channel=0, data=[69, 99]),\n",
       "   midi.NoteOnEvent(tick=13776, channel=0, data=[67, 100]),\n",
       "   midi.NoteOnEvent(tick=13780, channel=0, data=[69, 0]),\n",
       "   midi.NoteOnEvent(tick=13784, channel=0, data=[59, 0]),\n",
       "   midi.NoteOnEvent(tick=13784, channel=0, data=[62, 0]),\n",
       "   midi.NoteOnEvent(tick=13788, channel=0, data=[67, 0]),\n",
       "   midi.NoteOnEvent(tick=13800, channel=0, data=[59, 90]),\n",
       "   midi.NoteOnEvent(tick=13804, channel=0, data=[50, 0]),\n",
       "   midi.NoteOnEvent(tick=13808, channel=0, data=[59, 0]),\n",
       "   midi.NoteOnEvent(tick=13812, channel=0, data=[55, 0]),\n",
       "   midi.ControlChangeEvent(tick=13824, channel=0, data=[64, 0]),\n",
       "   midi.NoteOnEvent(tick=13824, channel=0, data=[67, 114]),\n",
       "   midi.NoteOnEvent(tick=13824, channel=0, data=[64, 117]),\n",
       "   midi.NoteOnEvent(tick=13824, channel=0, data=[60, 114]),\n",
       "   midi.ControlChangeEvent(tick=13848, channel=0, data=[64, 127]),\n",
       "   midi.NoteOnEvent(tick=13872, channel=0, data=[55, 98]),\n",
       "   midi.NoteOnEvent(tick=13880, channel=0, data=[60, 0]),\n",
       "   midi.NoteOnEvent(tick=13880, channel=0, data=[67, 0]),\n",
       "   midi.NoteOnEvent(tick=13884, channel=0, data=[64, 0]),\n",
       "   midi.NoteOnEvent(tick=13896, channel=0, data=[67, 112]),\n",
       "   midi.NoteOnEvent(tick=13896, channel=0, data=[64, 108]),\n",
       "   midi.NoteOnEvent(tick=13896, channel=0, data=[60, 112]),\n",
       "   midi.NoteOnEvent(tick=13932, channel=0, data=[55, 0]),\n",
       "   midi.NoteOnEvent(tick=13940, channel=0, data=[60, 0]),\n",
       "   midi.NoteOnEvent(tick=13940, channel=0, data=[64, 0]),\n",
       "   midi.NoteOnEvent(tick=13944, channel=0, data=[55, 89]),\n",
       "   midi.NoteOnEvent(tick=13948, channel=0, data=[67, 0]),\n",
       "   midi.NoteOnEvent(tick=13968, channel=0, data=[67, 112]),\n",
       "   midi.NoteOnEvent(tick=13968, channel=0, data=[62, 114]),\n",
       "   midi.ControlChangeEvent(tick=13968, channel=0, data=[64, 0]),\n",
       "   midi.ControlChangeEvent(tick=13992, channel=0, data=[64, 127]),\n",
       "   midi.NoteOnEvent(tick=14016, channel=0, data=[50, 103]),\n",
       "   midi.NoteOnEvent(tick=14040, channel=0, data=[62, 0]),\n",
       "   midi.NoteOnEvent(tick=14064, channel=0, data=[62, 106]),\n",
       "   midi.NoteOnEvent(tick=14080, channel=0, data=[62, 0]),\n",
       "   midi.NoteOnEvent(tick=14088, channel=0, data=[67, 0]),\n",
       "   midi.NoteOnEvent(tick=14088, channel=0, data=[59, 102]),\n",
       "   midi.NoteOnEvent(tick=14108, channel=0, data=[55, 0]),\n",
       "   midi.NoteOnEvent(tick=14112, channel=0, data=[59, 0]),\n",
       "   midi.NoteOnEvent(tick=14112, channel=0, data=[55, 41]),\n",
       "   midi.NoteOnEvent(tick=14136, channel=0, data=[74, 127]),\n",
       "   midi.NoteOnEvent(tick=14140, channel=0, data=[55, 0]),\n",
       "   midi.NoteOnEvent(tick=14156, channel=0, data=[50, 0]),\n",
       "   midi.NoteOnEvent(tick=14160, channel=0, data=[74, 0]),\n",
       "   midi.NoteOnEvent(tick=14160, channel=0, data=[76, 108]),\n",
       "   midi.NoteOnEvent(tick=14160, channel=0, data=[59, 85]),\n",
       "   midi.NoteOnEvent(tick=14168, channel=0, data=[59, 0]),\n",
       "   midi.NoteOnEvent(tick=14184, channel=0, data=[79, 96]),\n",
       "   midi.NoteOnEvent(tick=14192, channel=0, data=[76, 0]),\n",
       "   midi.NoteOnEvent(tick=14196, channel=0, data=[79, 0]),\n",
       "   midi.ControlChangeEvent(tick=14208, channel=0, data=[64, 0]),\n",
       "   midi.NoteOnEvent(tick=14208, channel=0, data=[76, 96]),\n",
       "   midi.NoteOnEvent(tick=14208, channel=0, data=[81, 106]),\n",
       "   midi.NoteOnEvent(tick=14208, channel=0, data=[60, 78]),\n",
       "   midi.NoteOnEvent(tick=14208, channel=0, data=[64, 84]),\n",
       "   midi.NoteOnEvent(tick=14208, channel=0, data=[72, 108]),\n",
       "   midi.NoteOnEvent(tick=14208, channel=0, data=[57, 89]),\n",
       "   midi.ControlChangeEvent(tick=14208, channel=0, data=[64, 127]),\n",
       "   midi.NoteOnEvent(tick=14232, channel=0, data=[64, 0]),\n",
       "   midi.NoteOnEvent(tick=14256, channel=0, data=[72, 0]),\n",
       "   midi.NoteOnEvent(tick=14256, channel=0, data=[81, 0]),\n",
       "   midi.NoteOnEvent(tick=14256, channel=0, data=[76, 0]),\n",
       "   midi.NoteOnEvent(tick=14256, channel=0, data=[64, 102]),\n",
       "   midi.NoteOnEvent(tick=14280, channel=0, data=[76, 103]),\n",
       "   midi.NoteOnEvent(tick=14280, channel=0, data=[81, 105]),\n",
       "   midi.NoteOnEvent(tick=14280, channel=0, data=[72, 105]),\n",
       "   midi.NoteOnEvent(tick=14304, channel=0, data=[81, 0]),\n",
       "   midi.NoteOnEvent(tick=14308, channel=0, data=[57, 0]),\n",
       "   midi.NoteOnEvent(tick=14308, channel=0, data=[60, 0]),\n",
       "   midi.NoteOnEvent(tick=14312, channel=0, data=[76, 0]),\n",
       "   midi.NoteOnEvent(tick=14316, channel=0, data=[72, 0]),\n",
       "   midi.NoteOnEvent(tick=14316, channel=0, data=[64, 0]),\n",
       "   midi.NoteOnEvent(tick=14352, channel=0, data=[79, 99]),\n",
       "   midi.NoteOnEvent(tick=14352, channel=0, data=[74, 112]),\n",
       "   midi.NoteOnEvent(tick=14352, channel=0, data=[71, 106]),\n",
       "   midi.NoteOnEvent(tick=14352, channel=0, data=[59, 82]),\n",
       "   midi.ControlChangeEvent(tick=14352, channel=0, data=[64, 0]),\n",
       "   midi.NoteOnEvent(tick=14352, channel=0, data=[62, 86]),\n",
       "   midi.NoteOnEvent(tick=14352, channel=0, data=[55, 93]),\n",
       "   midi.ControlChangeEvent(tick=14400, channel=0, data=[64, 127]),\n",
       "   midi.NoteOnEvent(tick=14412, channel=0, data=[62, 0]),\n",
       "   midi.NoteOnEvent(tick=14448, channel=0, data=[62, 88]),\n",
       "   midi.NoteOnEvent(tick=14456, channel=0, data=[79, 0]),\n",
       "   midi.NoteOnEvent(tick=14460, channel=0, data=[74, 0]),\n",
       "   midi.NoteOnEvent(tick=14460, channel=0, data=[71, 0]),\n",
       "   midi.NoteOnEvent(tick=14464, channel=0, data=[62, 0]),\n",
       "   midi.NoteOnEvent(tick=14472, channel=0, data=[62, 93]),\n",
       "   midi.NoteOnEvent(tick=14496, channel=0, data=[76, 96]),\n",
       "   midi.NoteOnEvent(tick=14496, channel=0, data=[71, 94]),\n",
       "   midi.NoteOnEvent(tick=14496, channel=0, data=[67, 99]),\n",
       "   midi.NoteOnEvent(tick=14512, channel=0, data=[76, 0]),\n",
       "   midi.NoteOnEvent(tick=14520, channel=0, data=[74, 102]),\n",
       "   midi.NoteOnEvent(tick=14524, channel=0, data=[71, 0]),\n",
       "   midi.NoteOnEvent(tick=14532, channel=0, data=[67, 0]),\n",
       "   midi.NoteOnEvent(tick=14540, channel=0, data=[62, 0]),\n",
       "   midi.NoteOnEvent(tick=14544, channel=0, data=[55, 0]),\n",
       "   midi.NoteOnEvent(tick=14544, channel=0, data=[71, 103]),\n",
       "   midi.NoteOnEvent(tick=14552, channel=0, data=[59, 0]),\n",
       "   midi.NoteOnEvent(tick=14568, channel=0, data=[67, 73]),\n",
       "   midi.NoteOnEvent(tick=14572, channel=0, data=[67, 0]),\n",
       "   midi.NoteOnEvent(tick=14572, channel=0, data=[71, 0]),\n",
       "   midi.NoteOnEvent(tick=14572, channel=0, data=[74, 0]),\n",
       "   midi.ControlChangeEvent(tick=14592, channel=0, data=[64, 0]),\n",
       "   midi.NoteOnEvent(tick=14592, channel=0, data=[74, 110]),\n",
       "   midi.NoteOnEvent(tick=14592, channel=0, data=[67, 103]),\n",
       "   midi.NoteOnEvent(tick=14592, channel=0, data=[55, 90]),\n",
       "   midi.NoteOnEvent(tick=14592, channel=0, data=[71, 100]),\n",
       "   midi.NoteOnEvent(tick=14592, channel=0, data=[59, 86]),\n",
       "   midi.NoteOnEvent(tick=14592, channel=0, data=[52, 82]),\n",
       "   midi.ControlChangeEvent(tick=14592, channel=0, data=[64, 127]),\n",
       "   midi.NoteOnEvent(tick=14620, channel=0, data=[59, 0]),\n",
       "   midi.NoteOnEvent(tick=14640, channel=0, data=[59, 93]),\n",
       "   midi.NoteOnEvent(tick=14644, channel=0, data=[71, 0]),\n",
       "   midi.NoteOnEvent(tick=14644, channel=0, data=[74, 0]),\n",
       "   midi.NoteOnEvent(tick=14644, channel=0, data=[67, 0]),\n",
       "   midi.NoteOnEvent(tick=14664, channel=0, data=[74, 112]),\n",
       "   midi.NoteOnEvent(tick=14664, channel=0, data=[71, 106]),\n",
       "   midi.NoteOnEvent(tick=14664, channel=0, data=[67, 106]),\n",
       "   midi.NoteOnEvent(tick=14684, channel=0, data=[67, 0]),\n",
       "   midi.NoteOnEvent(tick=14684, channel=0, data=[74, 0]),\n",
       "   midi.NoteOnEvent(tick=14684, channel=0, data=[71, 0]),\n",
       "   midi.NoteOnEvent(tick=14696, channel=0, data=[59, 0]),\n",
       "   midi.NoteOnEvent(tick=14712, channel=0, data=[52, 0]),\n",
       "   midi.NoteOnEvent(tick=14712, channel=0, data=[59, 70]),\n",
       "   midi.NoteOnEvent(tick=14716, channel=0, data=[59, 0]),\n",
       "   midi.NoteOnEvent(tick=14720, channel=0, data=[55, 0]),\n",
       "   midi.ControlChangeEvent(tick=14736, channel=0, data=[64, 0]),\n",
       "   midi.NoteOnEvent(tick=14736, channel=0, data=[69, 119]),\n",
       "   midi.NoteOnEvent(tick=14736, channel=0, data=[74, 112]),\n",
       "   midi.NoteOnEvent(tick=14736, channel=0, data=[57, 95]),\n",
       "   midi.NoteOnEvent(tick=14736, channel=0, data=[50, 90]),\n",
       "   midi.ControlChangeEvent(tick=14736, channel=0, data=[64, 127]),\n",
       "   midi.NoteOnEvent(tick=14784, channel=0, data=[62, 63]),\n",
       "   midi.NoteOnEvent(tick=14788, channel=0, data=[62, 0]),\n",
       "   midi.NoteOnEvent(tick=14808, channel=0, data=[74, 0]),\n",
       "   midi.NoteOnEvent(tick=14808, channel=0, data=[62, 106]),\n",
       "   midi.NoteOnEvent(tick=14812, channel=0, data=[69, 0]),\n",
       "   midi.NoteOnEvent(tick=14832, channel=0, data=[69, 124]),\n",
       "   midi.NoteOnEvent(tick=14832, channel=0, data=[74, 110]),\n",
       "   midi.NoteOnEvent(tick=14856, channel=0, data=[69, 0]),\n",
       "   midi.NoteOnEvent(tick=14856, channel=0, data=[71, 92]),\n",
       "   midi.NoteOnEvent(tick=14860, channel=0, data=[74, 0]),\n",
       "   midi.NoteOnEvent(tick=14864, channel=0, data=[71, 0]),\n",
       "   midi.NoteOnEvent(tick=14880, channel=0, data=[69, 124]),\n",
       "   midi.NoteOnEvent(tick=14880, channel=0, data=[74, 99]),\n",
       "   midi.NoteOnEvent(tick=14900, channel=0, data=[69, 0]),\n",
       "   midi.NoteOnEvent(tick=14904, channel=0, data=[67, 99]),\n",
       "   midi.NoteOnEvent(tick=14908, channel=0, data=[62, 0]),\n",
       "   midi.NoteOnEvent(tick=14928, channel=0, data=[74, 0]),\n",
       "   midi.NoteOnEvent(tick=14928, channel=0, data=[62, 98]),\n",
       "   midi.NoteOnEvent(tick=14932, channel=0, data=[67, 0]),\n",
       "   midi.NoteOnEvent(tick=14952, channel=0, data=[50, 0]),\n",
       "   midi.NoteOnEvent(tick=14956, channel=0, data=[62, 0]),\n",
       "   midi.NoteOnEvent(tick=14964, channel=0, data=[57, 0]),\n",
       "   midi.ControlChangeEvent(tick=14976, channel=0, data=[64, 0]),\n",
       "   midi.NoteOnEvent(tick=14976, channel=0, data=[57, 86]),\n",
       "   midi.NoteOnEvent(tick=14976, channel=0, data=[69, 112]),\n",
       "   midi.NoteOnEvent(tick=14976, channel=0, data=[72, 110]),\n",
       "   midi.NoteOnEvent(tick=14976, channel=0, data=[64, 112]),\n",
       "   midi.NoteOnEvent(tick=14976, channel=0, data=[52, 94]),\n",
       "   midi.NoteOnEvent(tick=14976, channel=0, data=[60, 95]),\n",
       "   midi.ControlChangeEvent(tick=14976, channel=0, data=[64, 127]),\n",
       "   midi.NoteOnEvent(tick=14996, channel=0, data=[60, 0]),\n",
       "   midi.NoteOnEvent(tick=15024, channel=0, data=[72, 0]),\n",
       "   midi.NoteOnEvent(tick=15024, channel=0, data=[64, 0]),\n",
       "   midi.NoteOnEvent(tick=15024, channel=0, data=[60, 94]),\n",
       "   midi.NoteOnEvent(tick=15028, channel=0, data=[69, 0]),\n",
       "   midi.NoteOnEvent(tick=15048, channel=0, data=[72, 112]),\n",
       "   midi.NoteOnEvent(tick=15048, channel=0, data=[64, 110]),\n",
       "   midi.NoteOnEvent(tick=15048, channel=0, data=[69, 114]),\n",
       "   midi.NoteOnEvent(tick=15068, channel=0, data=[60, 0]),\n",
       "   midi.NoteOnEvent(tick=15088, channel=0, data=[72, 0]),\n",
       "   midi.NoteOnEvent(tick=15092, channel=0, data=[64, 0]),\n",
       "   midi.NoteOnEvent(tick=15096, channel=0, data=[52, 0]),\n",
       "   midi.NoteOnEvent(tick=15096, channel=0, data=[69, 0]),\n",
       "   midi.NoteOnEvent(tick=15104, channel=0, data=[57, 0]),\n",
       "   midi.ControlChangeEvent(tick=15120, channel=0, data=[64, 0]),\n",
       "   midi.NoteOnEvent(tick=15120, channel=0, data=[71, 99]),\n",
       "   midi.NoteOnEvent(tick=15120, channel=0, data=[67, 110]),\n",
       "   midi.NoteOnEvent(tick=15120, channel=0, data=[62, 110]),\n",
       "   midi.NoteOnEvent(tick=15120, channel=0, data=[55, 99]),\n",
       "   midi.NoteOnEvent(tick=15120, channel=0, data=[59, 100]),\n",
       "   midi.NoteOnEvent(tick=15120, channel=0, data=[50, 93]),\n",
       "   midi.NoteOnEvent(tick=15152, channel=0, data=[62, 0]),\n",
       "   midi.ControlChangeEvent(tick=15168, channel=0, data=[64, 127]),\n",
       "   midi.NoteOnEvent(tick=15168, channel=0, data=[62, 59]),\n",
       "   midi.NoteOnEvent(tick=15172, channel=0, data=[59, 0]),\n",
       "   midi.NoteOnEvent(tick=15208, channel=0, data=[62, 0]),\n",
       "   midi.NoteOnEvent(tick=15216, channel=0, data=[59, 100]),\n",
       "   midi.NoteOnEvent(tick=15232, channel=0, data=[59, 0]),\n",
       "   midi.NoteOnEvent(tick=15240, channel=0, data=[59, 99]),\n",
       "   midi.NoteOnEvent(tick=15244, channel=0, data=[71, 0]),\n",
       "   midi.NoteOnEvent(tick=15248, channel=0, data=[67, 0]),\n",
       "   midi.NoteOnEvent(tick=15264, channel=0, data=[67, 117]),\n",
       "   midi.NoteOnEvent(tick=15264, channel=0, data=[71, 105]),\n",
       "   midi.NoteOnEvent(tick=15264, channel=0, data=[62, 112]),\n",
       "   midi.NoteOnEvent(tick=15284, channel=0, data=[71, 0]),\n",
       "   midi.NoteOnEvent(tick=15284, channel=0, data=[67, 0]),\n",
       "   midi.NoteOnEvent(tick=15288, channel=0, data=[69, 93]),\n",
       "   midi.NoteOnEvent(tick=15300, channel=0, data=[62, 0]),\n",
       "   midi.NoteOnEvent(tick=15308, channel=0, data=[69, 0]),\n",
       "   midi.NoteOnEvent(tick=15312, channel=0, data=[67, 110]),\n",
       "   midi.NoteOnEvent(tick=15312, channel=0, data=[62, 95]),\n",
       "   midi.NoteOnEvent(tick=15312, channel=0, data=[69, 82]),\n",
       "   midi.NoteOnEvent(tick=15313, channel=0, data=[69, 0]),\n",
       "   midi.NoteOnEvent(tick=15324, channel=0, data=[59, 0]),\n",
       "   midi.NoteOnEvent(tick=15324, channel=0, data=[67, 0]),\n",
       "   midi.NoteOnEvent(tick=15328, channel=0, data=[62, 0]),\n",
       "   midi.NoteOnEvent(tick=15336, channel=0, data=[59, 84]),\n",
       "   midi.NoteOnEvent(tick=15336, channel=0, data=[64, 70]),\n",
       "   midi.NoteOnEvent(tick=15340, channel=0, data=[64, 0]),\n",
       "   midi.NoteOnEvent(tick=15340, channel=0, data=[50, 0]),\n",
       "   midi.NoteOnEvent(tick=15344, channel=0, data=[59, 0]),\n",
       "   midi.NoteOnEvent(tick=15348, channel=0, data=[55, 0]),\n",
       "   midi.ControlChangeEvent(tick=15360, channel=0, data=[64, 0]),\n",
       "   midi.NoteOnEvent(tick=15360, channel=0, data=[69, 105]),\n",
       "   midi.NoteOnEvent(tick=15360, channel=0, data=[64, 110]),\n",
       "   midi.NoteOnEvent(tick=15360, channel=0, data=[60, 106]),\n",
       "   midi.NoteOnEvent(tick=15360, channel=0, data=[55, 92]),\n",
       "   midi.NoteOnEvent(tick=15360, channel=0, data=[48, 100]),\n",
       "   midi.ControlChangeEvent(tick=15384, channel=0, data=[64, 127]),\n",
       "   midi.NoteOnEvent(tick=15408, channel=0, data=[60, 0]),\n",
       "   midi.NoteOnEvent(tick=15412, channel=0, data=[69, 0]),\n",
       "   midi.NoteOnEvent(tick=15412, channel=0, data=[64, 0]),\n",
       "   midi.NoteOnEvent(tick=15432, channel=0, data=[64, 117]),\n",
       "   midi.NoteOnEvent(tick=15432, channel=0, data=[67, 117]),\n",
       "   midi.NoteOnEvent(tick=15432, channel=0, data=[60, 110]),\n",
       "   midi.NoteOnEvent(tick=15460, channel=0, data=[60, 0]),\n",
       "   midi.NoteOnEvent(tick=15480, channel=0, data=[60, 103]),\n",
       "   midi.NoteOnEvent(tick=15484, channel=0, data=[64, 0]),\n",
       "   midi.NoteOnEvent(tick=15504, channel=0, data=[64, 105]),\n",
       "   midi.NoteOnEvent(tick=15508, channel=0, data=[60, 0]),\n",
       "   midi.NoteOnEvent(tick=15524, channel=0, data=[48, 0]),\n",
       "   midi.NoteOnEvent(tick=15528, channel=0, data=[60, 87]),\n",
       "   midi.NoteOnEvent(tick=15536, channel=0, data=[60, 0]),\n",
       "   midi.NoteOnEvent(tick=15536, channel=0, data=[64, 0]),\n",
       "   midi.NoteOnEvent(tick=15536, channel=0, data=[67, 0]),\n",
       "   midi.NoteOnEvent(tick=15544, channel=0, data=[55, 0]),\n",
       "   midi.ControlChangeEvent(tick=15552, channel=0, data=[64, 0]),\n",
       "   midi.NoteOnEvent(tick=15552, channel=0, data=[55, 85]),\n",
       "   midi.NoteOnEvent(tick=15552, channel=0, data=[59, 92]),\n",
       "   midi.NoteOnEvent(tick=15552, channel=0, data=[67, 99]),\n",
       "   midi.NoteOnEvent(tick=15552, channel=0, data=[71, 94]),\n",
       "   midi.NoteOnEvent(tick=15552, channel=0, data=[50, 98]),\n",
       "   midi.NoteOnEvent(tick=15552, channel=0, data=[62, 117]),\n",
       "   midi.ControlChangeEvent(tick=15552, channel=0, data=[64, 127]),\n",
       "   midi.NoteOnEvent(tick=15568, channel=0, data=[62, 0]),\n",
       "   midi.NoteOnEvent(tick=15600, channel=0, data=[62, 99]),\n",
       "   midi.NoteOnEvent(tick=15604, channel=0, data=[59, 0]),\n",
       "   midi.NoteOnEvent(tick=15620, channel=0, data=[71, 0]),\n",
       "   midi.NoteOnEvent(tick=15624, channel=0, data=[59, 75]),\n",
       "   midi.NoteOnEvent(tick=15628, channel=0, data=[50, 0]),\n",
       "   midi.NoteOnEvent(tick=15628, channel=0, data=[67, 0]),\n",
       "   midi.NoteOnEvent(tick=15628, channel=0, data=[62, 0]),\n",
       "   midi.NoteOnEvent(tick=15632, channel=0, data=[55, 0]),\n",
       "   midi.NoteOnEvent(tick=15632, channel=0, data=[59, 0]),\n",
       "   midi.ControlChangeEvent(tick=15648, channel=0, data=[64, 0]),\n",
       "   midi.NoteOnEvent(tick=15648, channel=0, data=[57, 98]),\n",
       "   midi.NoteOnEvent(tick=15648, channel=0, data=[50, 93]),\n",
       "   midi.NoteOnEvent(tick=15648, channel=0, data=[69, 106]),\n",
       "   midi.NoteOnEvent(tick=15648, channel=0, data=[66, 101]),\n",
       "   midi.NoteOnEvent(tick=15648, channel=0, data=[62, 105]),\n",
       "   midi.ControlChangeEvent(tick=15648, channel=0, data=[64, 127]),\n",
       "   midi.NoteOnEvent(tick=15668, channel=0, data=[62, 0]),\n",
       "   midi.NoteOnEvent(tick=15696, channel=0, data=[62, 89]),\n",
       "   midi.NoteOnEvent(tick=15704, channel=0, data=[62, 0]),\n",
       "   midi.NoteOnEvent(tick=15704, channel=0, data=[50, 0]),\n",
       "   midi.NoteOnEvent(tick=15704, channel=0, data=[57, 0]),\n",
       "   midi.NoteOnEvent(tick=15708, channel=0, data=[69, 0]),\n",
       "   midi.NoteOnEvent(tick=15708, channel=0, data=[66, 0]),\n",
       "   midi.NoteOnEvent(tick=15744, channel=0, data=[77, 102]),\n",
       "   midi.NoteOnEvent(tick=15744, channel=0, data=[69, 102]),\n",
       "   midi.NoteOnEvent(tick=15744, channel=0, data=[72, 108]),\n",
       "   midi.NoteOnEvent(tick=15744, channel=0, data=[53, 77]),\n",
       "   midi.NoteOnEvent(tick=15744, channel=0, data=[60, 80]),\n",
       "   midi.NoteOnEvent(tick=15744, channel=0, data=[65, 74]),\n",
       "   midi.NoteOnEvent(tick=15856, channel=0, data=[65, 0]),\n",
       "   midi.NoteOnEvent(tick=15860, channel=0, data=[77, 0]),\n",
       "   midi.NoteOnEvent(tick=15860, channel=0, data=[53, 0]),\n",
       "   midi.NoteOnEvent(tick=15864, channel=0, data=[69, 0]),\n",
       "   midi.NoteOnEvent(tick=15864, channel=0, data=[60, 0]),\n",
       "   midi.NoteOnEvent(tick=15864, channel=0, data=[72, 0]),\n",
       "   midi.NoteOnEvent(tick=15888, channel=0, data=[76, 100]),\n",
       "   midi.NoteOnEvent(tick=15888, channel=0, data=[60, 86]),\n",
       "   midi.NoteOnEvent(tick=15888, channel=0, data=[72, 108]),\n",
       "   midi.NoteOnEvent(tick=15888, channel=0, data=[67, 106]),\n",
       "   midi.NoteOnEvent(tick=15888, channel=0, data=[64, 80]),\n",
       "   midi.NoteOnEvent(tick=15888, channel=0, data=[55, 90]),\n",
       "   midi.NoteOnEvent(tick=16084, channel=0, data=[67, 0]),\n",
       "   midi.NoteOnEvent(tick=16088, channel=0, data=[72, 0]),\n",
       "   midi.NoteOnEvent(tick=16088, channel=0, data=[76, 0]),\n",
       "   midi.NoteOnEvent(tick=16096, channel=0, data=[55, 0]),\n",
       "   midi.NoteOnEvent(tick=16096, channel=0, data=[64, 0]),\n",
       "   midi.NoteOnEvent(tick=16100, channel=0, data=[60, 0]),\n",
       "   midi.NoteOnEvent(tick=16128, channel=0, data=[74, 105]),\n",
       "   midi.NoteOnEvent(tick=16128, channel=0, data=[79, 100]),\n",
       "   midi.NoteOnEvent(tick=16128, channel=0, data=[78, 106]),\n",
       "   midi.NoteOnEvent(tick=16128, channel=0, data=[71, 98]),\n",
       "   midi.NoteOnEvent(tick=16128, channel=0, data=[59, 106]),\n",
       "   midi.NoteOnEvent(tick=16232, channel=0, data=[59, 0]),\n",
       "   midi.NoteOnEvent(tick=16244, channel=0, data=[78, 0]),\n",
       "   midi.NoteOnEvent(tick=16244, channel=0, data=[79, 0]),\n",
       "   midi.NoteOnEvent(tick=16248, channel=0, data=[74, 0]),\n",
       "   midi.NoteOnEvent(tick=16248, channel=0, data=[71, 0]),\n",
       "   midi.NoteOnEvent(tick=16272, channel=0, data=[76, 100]),\n",
       "   midi.NoteOnEvent(tick=16272, channel=0, data=[79, 102]),\n",
       "   midi.NoteOnEvent(tick=16272, channel=0, data=[71, 94]),\n",
       "   midi.NoteOnEvent(tick=16272, channel=0, data=[52, 86]),\n",
       "   midi.NoteOnEvent(tick=16272, channel=0, data=[64, 87]),\n",
       "   midi.NoteOnEvent(tick=16332, channel=0, data=[64, 0]),\n",
       "   midi.NoteOnEvent(tick=16336, channel=0, data=[52, 0]),\n",
       "   midi.NoteOnEvent(tick=16340, channel=0, data=[71, 0]),\n",
       "   midi.NoteOnEvent(tick=16356, channel=0, data=[76, 0]),\n",
       "   midi.NoteOnEvent(tick=16368, channel=0, data=[76, 82]),\n",
       "   midi.NoteOnEvent(tick=16368, channel=0, data=[72, 95]),\n",
       "   midi.NoteOnEvent(tick=16368, channel=0, data=[67, 98]),\n",
       "   midi.NoteOnEvent(tick=16368, channel=0, data=[48, 96]),\n",
       "   midi.NoteOnEvent(tick=16368, channel=0, data=[60, 86]),\n",
       "   midi.NoteOnEvent(tick=16392, channel=0, data=[67, 0]),\n",
       "   midi.NoteOnEvent(tick=16396, channel=0, data=[48, 0]),\n",
       "   midi.NoteOnEvent(tick=16396, channel=0, data=[60, 0]),\n",
       "   midi.NoteOnEvent(tick=16400, channel=0, data=[72, 0]),\n",
       "   midi.NoteOnEvent(tick=16404, channel=0, data=[76, 0]),\n",
       "   midi.NoteOnEvent(tick=16416, channel=0, data=[78, 101]),\n",
       "   midi.NoteOnEvent(tick=16416, channel=0, data=[74, 108]),\n",
       "   midi.NoteOnEvent(tick=16416, channel=0, data=[69, 110]),\n",
       "   midi.NoteOnEvent(tick=16416, channel=0, data=[50, 95]),\n",
       "   midi.NoteOnEvent(tick=16416, channel=0, data=[62, 96]),\n",
       "   midi.NoteOnEvent(tick=16480, channel=0, data=[62, 0]),\n",
       "   midi.NoteOnEvent(tick=16480, channel=0, data=[78, 0]),\n",
       "   midi.NoteOnEvent(tick=16480, channel=0, data=[74, 0]),\n",
       "   midi.NoteOnEvent(tick=16480, channel=0, data=[79, 0]),\n",
       "   midi.NoteOnEvent(tick=16480, channel=0, data=[69, 0]),\n",
       "   midi.NoteOnEvent(tick=16484, channel=0, data=[50, 0]),\n",
       "   midi.NoteOnEvent(tick=16512, channel=0, data=[77, 100]),\n",
       "   midi.NoteOnEvent(tick=16512, channel=0, data=[72, 103]),\n",
       "   midi.NoteOnEvent(tick=16512, channel=0, data=[69, 105]),\n",
       "   midi.NoteOnEvent(tick=16512, channel=0, data=[57, 84]),\n",
       "   midi.NoteOnEvent(tick=16512, channel=0, data=[60, 89]),\n",
       "   midi.NoteOnEvent(tick=16512, channel=0, data=[65, 82]),\n",
       "   midi.NoteOnEvent(tick=16624, channel=0, data=[65, 0]),\n",
       "   midi.NoteOnEvent(tick=16628, channel=0, data=[69, 0]),\n",
       "   midi.NoteOnEvent(tick=16628, channel=0, data=[57, 0]),\n",
       "   midi.NoteOnEvent(tick=16632, channel=0, data=[77, 0]),\n",
       "   midi.NoteOnEvent(tick=16632, channel=0, data=[72, 0]),\n",
       "   midi.NoteOnEvent(tick=16636, channel=0, data=[60, 0]),\n",
       "   midi.NoteOnEvent(tick=16656, channel=0, data=[60, 89]),\n",
       "   midi.NoteOnEvent(tick=16656, channel=0, data=[55, 92]),\n",
       "   midi.NoteOnEvent(tick=16656, channel=0, data=[72, 106]),\n",
       "   midi.NoteOnEvent(tick=16656, channel=0, data=[76, 103]),\n",
       "   midi.NoteOnEvent(tick=16656, channel=0, data=[64, 93]),\n",
       "   midi.NoteOnEvent(tick=16656, channel=0, data=[67, 106]),\n",
       "   midi.NoteOnEvent(tick=16860, channel=0, data=[67, 0]),\n",
       "   midi.NoteOnEvent(tick=16868, channel=0, data=[55, 0]),\n",
       "   midi.NoteOnEvent(tick=16868, channel=0, data=[72, 0]),\n",
       "   midi.NoteOnEvent(tick=16872, channel=0, data=[60, 0]),\n",
       "   midi.NoteOnEvent(tick=16872, channel=0, data=[76, 0]),\n",
       "   midi.NoteOnEvent(tick=16872, channel=0, data=[64, 0]),\n",
       "   midi.NoteOnEvent(tick=16896, channel=0, data=[78, 91]),\n",
       "   midi.NoteOnEvent(tick=16896, channel=0, data=[69, 100]),\n",
       "   midi.NoteOnEvent(tick=16896, channel=0, data=[74, 103]),\n",
       "   midi.NoteOnEvent(tick=16896, channel=0, data=[71, 95]),\n",
       "   midi.NoteOnEvent(tick=16896, channel=0, data=[59, 114]),\n",
       "   midi.NoteOnEvent(tick=17016, channel=0, data=[71, 0]),\n",
       "   midi.NoteOnEvent(tick=17016, channel=0, data=[69, 0]),\n",
       "   midi.NoteOnEvent(tick=17016, channel=0, data=[78, 0]),\n",
       "   midi.NoteOnEvent(tick=17020, channel=0, data=[74, 0]),\n",
       "   midi.NoteOnEvent(tick=17040, channel=0, data=[76, 89]),\n",
       "   midi.NoteOnEvent(tick=17040, channel=0, data=[79, 96]),\n",
       "   midi.NoteOnEvent(tick=17040, channel=0, data=[71, 89]),\n",
       "   midi.NoteOnEvent(tick=17040, channel=0, data=[52, 88]),\n",
       "   midi.NoteOnEvent(tick=17040, channel=0, data=[64, 96]),\n",
       "   midi.NoteOnEvent(tick=17104, channel=0, data=[64, 0]),\n",
       "   midi.NoteOnEvent(tick=17104, channel=0, data=[59, 0]),\n",
       "   midi.NoteOnEvent(tick=17108, channel=0, data=[52, 0]),\n",
       "   midi.NoteOnEvent(tick=17116, channel=0, data=[71, 0]),\n",
       "   midi.NoteOnEvent(tick=17136, channel=0, data=[72, 95]),\n",
       "   midi.NoteOnEvent(tick=17136, channel=0, data=[48, 99]),\n",
       "   midi.NoteOnEvent(tick=17136, channel=0, data=[67, 103]),\n",
       "   midi.NoteOnEvent(tick=17136, channel=0, data=[60, 92]),\n",
       "   midi.NoteOnEvent(tick=17164, channel=0, data=[60, 0]),\n",
       "   midi.NoteOnEvent(tick=17164, channel=0, data=[48, 0]),\n",
       "   midi.NoteOnEvent(tick=17164, channel=0, data=[67, 0]),\n",
       "   midi.NoteOnEvent(tick=17172, channel=0, data=[72, 0]),\n",
       "   midi.NoteOnEvent(tick=17184, channel=0, data=[72, 80]),\n",
       "   midi.NoteOnEvent(tick=17184, channel=0, data=[48, 87]),\n",
       "   midi.NoteOnEvent(tick=17184, channel=0, data=[67, 94]),\n",
       "   midi.NoteOnEvent(tick=17184, channel=0, data=[60, 84]),\n",
       "   midi.NoteOnEvent(tick=17208, channel=0, data=[67, 0]),\n",
       "   midi.NoteOnEvent(tick=17208, channel=0, data=[48, 0]),\n",
       "   midi.NoteOnEvent(tick=17216, channel=0, data=[72, 0]),\n",
       "   midi.NoteOnEvent(tick=17216, channel=0, data=[60, 0]),\n",
       "   midi.NoteOnEvent(tick=17220, channel=0, data=[76, 0]),\n",
       "   midi.NoteOnEvent(tick=17224, channel=0, data=[79, 0]),\n",
       "   midi.NoteOnEvent(tick=17232, channel=0, data=[74, 88]),\n",
       "   midi.NoteOnEvent(tick=17232, channel=0, data=[62, 86]),\n",
       "   midi.NoteOnEvent(tick=17232, channel=0, data=[50, 93]),\n",
       "   midi.NoteOnEvent(tick=17232, channel=0, data=[78, 84]),\n",
       "   midi.NoteOnEvent(tick=17232, channel=0, data=[69, 91]),\n",
       "   midi.NoteOnEvent(tick=17260, channel=0, data=[50, 0]),\n",
       "   midi.NoteOnEvent(tick=17264, channel=0, data=[78, 0]),\n",
       "   midi.NoteOnEvent(tick=17264, channel=0, data=[74, 0]),\n",
       "   midi.NoteOnEvent(tick=17264, channel=0, data=[62, 0]),\n",
       "   midi.NoteOnEvent(tick=17264, channel=0, data=[69, 0]),\n",
       "   midi.NoteOnEvent(tick=17280, channel=0, data=[78, 99]),\n",
       "   midi.NoteOnEvent(tick=17280, channel=0, data=[66, 106]),\n",
       "   midi.NoteOnEvent(tick=17280, channel=0, data=[69, 112]),\n",
       "   midi.NoteOnEvent(tick=17280, channel=0, data=[62, 117]),\n",
       "   midi.NoteOnEvent(tick=17280, channel=0, data=[50, 98]),\n",
       "   midi.NoteOnEvent(tick=17280, channel=0, data=[57, 98]),\n",
       "   midi.NoteOnEvent(tick=17400, channel=0, data=[50, 0]),\n",
       "   midi.NoteOnEvent(tick=17400, channel=0, data=[69, 0]),\n",
       "   midi.NoteOnEvent(tick=17400, channel=0, data=[66, 0]),\n",
       "   midi.NoteOnEvent(tick=17404, channel=0, data=[57, 0]),\n",
       "   midi.NoteOnEvent(tick=17404, channel=0, data=[62, 0]),\n",
       "   midi.NoteOnEvent(tick=17416, channel=0, data=[78, 0]),\n",
       "   midi.NoteOnEvent(tick=17424, channel=0, data=[67, 105]),\n",
       "   midi.NoteOnEvent(tick=17424, channel=0, data=[62, 100]),\n",
       "   midi.NoteOnEvent(tick=17424, channel=0, data=[57, 86]),\n",
       "   midi.NoteOnEvent(tick=17424, channel=0, data=[64, 106]),\n",
       "   midi.NoteOnEvent(tick=17424, channel=0, data=[52, 90]),\n",
       "   midi.NoteOnEvent(tick=17424, channel=0, data=[69, 102]),\n",
       "   midi.NoteOnEvent(tick=17456, channel=0, data=[62, 0]),\n",
       "   midi.NoteOnEvent(tick=17456, channel=0, data=[67, 0]),\n",
       "   midi.NoteOnEvent(tick=17460, channel=0, data=[52, 0]),\n",
       "   midi.NoteOnEvent(tick=17460, channel=0, data=[64, 0]),\n",
       "   midi.NoteOnEvent(tick=17460, channel=0, data=[69, 0]),\n",
       "   midi.NoteOnEvent(tick=17460, channel=0, data=[57, 0]),\n",
       "   midi.NoteOnEvent(tick=17472, channel=0, data=[66, 101]),\n",
       "   midi.NoteOnEvent(tick=17472, channel=0, data=[69, 106]),\n",
       "   midi.NoteOnEvent(tick=17472, channel=0, data=[62, 103]),\n",
       "   midi.NoteOnEvent(tick=17472, channel=0, data=[54, 120]),\n",
       "   midi.NoteOnEvent(tick=17552, channel=0, data=[54, 0]),\n",
       "   midi.NoteOnEvent(tick=17552, channel=0, data=[66, 0]),\n",
       "   midi.NoteOnEvent(tick=17552, channel=0, data=[69, 0]),\n",
       "   midi.NoteOnEvent(tick=17552, channel=0, data=[62, 0]),\n",
       "   midi.NoteOnEvent(tick=17568, channel=0, data=[71, 96]),\n",
       "   midi.NoteOnEvent(tick=17568, channel=0, data=[62, 108]),\n",
       "   midi.NoteOnEvent(tick=17568, channel=0, data=[67, 114]),\n",
       "   midi.NoteOnEvent(tick=17568, channel=0, data=[55, 124]),\n",
       "   midi.NoteOnEvent(tick=17636, channel=0, data=[55, 0]),\n",
       "   midi.NoteOnEvent(tick=17640, channel=0, data=[67, 0]),\n",
       "   midi.NoteOnEvent(tick=17640, channel=0, data=[62, 0]),\n",
       "   midi.NoteOnEvent(tick=17644, channel=0, data=[71, 0]),\n",
       "   midi.ControlChangeEvent(tick=17664, channel=0, data=[64, 0]),\n",
       "   midi.NoteOnEvent(tick=17664, channel=0, data=[81, 103]),\n",
       "   midi.NoteOnEvent(tick=17664, channel=0, data=[72, 114]),\n",
       "   midi.NoteOnEvent(tick=17664, channel=0, data=[76, 117]),\n",
       "   midi.NoteOnEvent(tick=17664, channel=0, data=[64, 89]),\n",
       "   midi.NoteOnEvent(tick=17664, channel=0, data=[60, 87]),\n",
       "   midi.NoteOnEvent(tick=17664, channel=0, data=[57, 86]),\n",
       "   midi.NoteOnEvent(tick=17684, channel=0, data=[64, 0]),\n",
       "   midi.ControlChangeEvent(tick=17688, channel=0, data=[64, 127]),\n",
       "   midi.NoteOnEvent(tick=17712, channel=0, data=[64, 110]),\n",
       "   midi.NoteOnEvent(tick=17716, channel=0, data=[76, 0]),\n",
       "   midi.NoteOnEvent(tick=17716, channel=0, data=[81, 0]),\n",
       "   midi.NoteOnEvent(tick=17716, channel=0, data=[72, 0]),\n",
       "   midi.NoteOnEvent(tick=17736, channel=0, data=[79, 106]),\n",
       "   midi.NoteOnEvent(tick=17736, channel=0, data=[72, 119]),\n",
       "   midi.NoteOnEvent(tick=17736, channel=0, data=[74, 121]),\n",
       "   midi.NoteOnEvent(tick=17760, channel=0, data=[74, 0]),\n",
       "   midi.NoteOnEvent(tick=17760, channel=0, data=[60, 0]),\n",
       "   midi.NoteOnEvent(tick=17764, channel=0, data=[79, 0]),\n",
       "   midi.NoteOnEvent(tick=17764, channel=0, data=[57, 0]),\n",
       "   midi.NoteOnEvent(tick=17764, channel=0, data=[64, 0]),\n",
       "   midi.NoteOnEvent(tick=17764, channel=0, data=[72, 0]),\n",
       "   midi.ControlChangeEvent(tick=17808, channel=0, data=[64, 0]),\n",
       "   midi.NoteOnEvent(tick=17808, channel=0, data=[59, 89]),\n",
       "   midi.NoteOnEvent(tick=17808, channel=0, data=[74, 119]),\n",
       "   midi.NoteOnEvent(tick=17808, channel=0, data=[79, 105]),\n",
       "   midi.NoteOnEvent(tick=17808, channel=0, data=[71, 108]),\n",
       "   midi.NoteOnEvent(tick=17808, channel=0, data=[62, 90]),\n",
       "   midi.NoteOnEvent(tick=17808, channel=0, data=[55, 95]),\n",
       "   midi.NoteOnEvent(tick=17840, channel=0, data=[71, 0]),\n",
       "   midi.ControlChangeEvent(tick=17856, channel=0, data=[64, 127]),\n",
       "   midi.NoteOnEvent(tick=17856, channel=0, data=[71, 77]),\n",
       "   midi.NoteOnEvent(tick=17864, channel=0, data=[62, 0]),\n",
       "   midi.NoteOnEvent(tick=17916, channel=0, data=[79, 0]),\n",
       "   midi.NoteOnEvent(tick=17916, channel=0, data=[74, 0]),\n",
       "   midi.NoteOnEvent(tick=17924, channel=0, data=[71, 0]),\n",
       "   midi.NoteOnEvent(tick=17928, channel=0, data=[62, 106]),\n",
       "   midi.NoteOnEvent(tick=17952, channel=0, data=[76, 106]),\n",
       "   midi.NoteOnEvent(tick=17952, channel=0, data=[71, 106]),\n",
       "   midi.NoteOnEvent(tick=17952, channel=0, data=[67, 117]),\n",
       "   midi.NoteOnEvent(tick=17972, channel=0, data=[76, 0]),\n",
       "   midi.NoteOnEvent(tick=17976, channel=0, data=[71, 0]),\n",
       "   midi.NoteOnEvent(tick=17976, channel=0, data=[74, 99]),\n",
       "   midi.NoteOnEvent(tick=17996, channel=0, data=[74, 0]),\n",
       "   midi.NoteOnEvent(tick=18000, channel=0, data=[62, 0]),\n",
       "   midi.NoteOnEvent(tick=18000, channel=0, data=[71, 95]),\n",
       "   midi.NoteOnEvent(tick=18024, channel=0, data=[67, 0]),\n",
       "   midi.NoteOnEvent(tick=18024, channel=0, data=[62, 79]),\n",
       "   midi.NoteOnEvent(tick=18028, channel=0, data=[62, 0]),\n",
       "   midi.NoteOnEvent(tick=18028, channel=0, data=[71, 0]),\n",
       "   midi.NoteOnEvent(tick=18028, channel=0, data=[59, 0]),\n",
       "   midi.NoteOnEvent(tick=18028, channel=0, data=[55, 0]),\n",
       "   midi.ControlChangeEvent(tick=18048, channel=0, data=[64, 0]),\n",
       "   midi.NoteOnEvent(tick=18048, channel=0, data=[74, 117]),\n",
       "   midi.NoteOnEvent(tick=18048, channel=0, data=[67, 117]),\n",
       "   midi.NoteOnEvent(tick=18048, channel=0, data=[71, 106]),\n",
       "   midi.NoteOnEvent(tick=18048, channel=0, data=[59, 99]),\n",
       "   midi.NoteOnEvent(tick=18048, channel=0, data=[55, 96]),\n",
       "   midi.NoteOnEvent(tick=18048, channel=0, data=[52, 86]),\n",
       "   midi.ControlChangeEvent(tick=18072, channel=0, data=[64, 127]),\n",
       "   midi.NoteOnEvent(tick=18076, channel=0, data=[59, 0]),\n",
       "   midi.NoteOnEvent(tick=18096, channel=0, data=[59, 100]),\n",
       "   midi.NoteOnEvent(tick=18104, channel=0, data=[71, 0]),\n",
       "   midi.NoteOnEvent(tick=18104, channel=0, data=[74, 0]),\n",
       "   midi.NoteOnEvent(tick=18104, channel=0, data=[67, 0]),\n",
       "   midi.NoteOnEvent(tick=18120, channel=0, data=[71, 105]),\n",
       "   midi.NoteOnEvent(tick=18120, channel=0, data=[67, 114]),\n",
       "   midi.NoteOnEvent(tick=18120, channel=0, data=[74, 114]),\n",
       "   midi.NoteOnEvent(tick=18140, channel=0, data=[74, 0]),\n",
       "   midi.NoteOnEvent(tick=18140, channel=0, data=[71, 0]),\n",
       "   midi.NoteOnEvent(tick=18140, channel=0, data=[67, 0]),\n",
       "   midi.NoteOnEvent(tick=18148, channel=0, data=[59, 0]),\n",
       "   midi.NoteOnEvent(tick=18164, channel=0, data=[52, 0]),\n",
       "   midi.NoteOnEvent(tick=18172, channel=0, data=[55, 0]),\n",
       "   midi.ControlChangeEvent(tick=18192, channel=0, data=[64, 0]),\n",
       "   midi.NoteOnEvent(tick=18192, channel=0, data=[69, 110]),\n",
       "   midi.NoteOnEvent(tick=18192, channel=0, data=[74, 108]),\n",
       "   midi.NoteOnEvent(tick=18192, channel=0, data=[66, 104]),\n",
       "   midi.NoteOnEvent(tick=18192, channel=0, data=[57, 96]),\n",
       "   midi.NoteOnEvent(tick=18192, channel=0, data=[50, 92]),\n",
       "   midi.ControlChangeEvent(tick=18240, channel=0, data=[64, 127]),\n",
       "   midi.NoteOnEvent(tick=18288, channel=0, data=[62, 102]),\n",
       "   midi.NoteOnEvent(tick=18296, channel=0, data=[62, 0]),\n",
       "   midi.NoteOnEvent(tick=18308, channel=0, data=[74, 0]),\n",
       "   midi.NoteOnEvent(tick=18308, channel=0, data=[66, 0]),\n",
       "   midi.NoteOnEvent(tick=18312, channel=0, data=[69, 0]),\n",
       "   midi.NoteOnEvent(tick=18312, channel=0, data=[62, 106]),\n",
       "   midi.NoteOnEvent(tick=18336, channel=0, data=[71, 86]),\n",
       "   midi.NoteOnEvent(tick=18336, channel=0, data=[74, 96]),\n",
       "   midi.NoteOnEvent(tick=18336, channel=0, data=[66, 99]),\n",
       "   midi.NoteOnEvent(tick=18348, channel=0, data=[66, 0]),\n",
       "   midi.NoteOnEvent(tick=18352, channel=0, data=[74, 0]),\n",
       "   midi.NoteOnEvent(tick=18356, channel=0, data=[71, 0]),\n",
       "   midi.NoteOnEvent(tick=18360, channel=0, data=[74, 91]),\n",
       "   midi.NoteOnEvent(tick=18360, channel=0, data=[69, 96]),\n",
       "   midi.NoteOnEvent(tick=18360, channel=0, data=[66, 86]),\n",
       "   midi.NoteOnEvent(tick=18368, channel=0, data=[62, 0]),\n",
       "   midi.NoteOnEvent(tick=18380, channel=0, data=[69, 0]),\n",
       "   midi.NoteOnEvent(tick=18380, channel=0, data=[74, 0]),\n",
       "   midi.NoteOnEvent(tick=18384, channel=0, data=[66, 0]),\n",
       "   midi.NoteOnEvent(tick=18384, channel=0, data=[62, 89]),\n",
       "   midi.NoteOnEvent(tick=18392, channel=0, data=[62, 0]),\n",
       "   midi.NoteOnEvent(tick=18408, channel=0, data=[50, 0]),\n",
       "   midi.NoteOnEvent(tick=18408, channel=0, data=[62, 89]),\n",
       "   midi.ControlChangeEvent(tick=18408, channel=0, data=[64, 0]),\n",
       "   midi.NoteOnEvent(tick=18412, channel=0, data=[57, 0]),\n",
       "   midi.NoteOnEvent(tick=18416, channel=0, data=[62, 0]),\n",
       "   midi.NoteOnEvent(tick=18432, channel=0, data=[57, 86]),\n",
       "   midi.NoteOnEvent(tick=18432, channel=0, data=[69, 96]),\n",
       "   midi.NoteOnEvent(tick=18432, channel=0, data=[72, 108]),\n",
       "   midi.NoteOnEvent(tick=18432, channel=0, data=[64, 102]),\n",
       "   midi.NoteOnEvent(tick=18432, channel=0, data=[52, 89]),\n",
       "   midi.NoteOnEvent(tick=18432, channel=0, data=[60, 84]),\n",
       "   midi.ControlChangeEvent(tick=18432, channel=0, data=[64, 127]),\n",
       "   midi.NoteOnEvent(tick=18448, channel=0, data=[60, 0]),\n",
       "   midi.NoteOnEvent(tick=18480, channel=0, data=[60, 82]),\n",
       "   midi.NoteOnEvent(tick=18484, channel=0, data=[72, 0]),\n",
       "   midi.NoteOnEvent(tick=18488, channel=0, data=[64, 0]),\n",
       "   midi.NoteOnEvent(tick=18488, channel=0, data=[69, 0]),\n",
       "   midi.NoteOnEvent(tick=18504, channel=0, data=[72, 106]),\n",
       "   midi.NoteOnEvent(tick=18504, channel=0, data=[64, 112]),\n",
       "   midi.NoteOnEvent(tick=18504, channel=0, data=[69, 112]),\n",
       "   midi.NoteOnEvent(tick=18528, channel=0, data=[60, 0]),\n",
       "   midi.NoteOnEvent(tick=18544, channel=0, data=[72, 0]),\n",
       "   midi.NoteOnEvent(tick=18544, channel=0, data=[69, 0]),\n",
       "   midi.NoteOnEvent(tick=18548, channel=0, data=[52, 0]),\n",
       "   midi.NoteOnEvent(tick=18548, channel=0, data=[64, 0]),\n",
       "   midi.NoteOnEvent(tick=18560, channel=0, data=[57, 0]),\n",
       "   midi.ControlChangeEvent(tick=18576, channel=0, data=[64, 0]),\n",
       "   midi.NoteOnEvent(tick=18576, channel=0, data=[71, 99]),\n",
       "   midi.NoteOnEvent(tick=18576, channel=0, data=[67, 103]),\n",
       "   midi.NoteOnEvent(tick=18576, channel=0, data=[62, 105]),\n",
       "   midi.NoteOnEvent(tick=18576, channel=0, data=[55, 99]),\n",
       "   midi.NoteOnEvent(tick=18576, channel=0, data=[59, 96]),\n",
       "   midi.NoteOnEvent(tick=18576, channel=0, data=[50, 91]),\n",
       "   midi.NoteOnEvent(tick=18604, channel=0, data=[62, 0]),\n",
       "   midi.ControlChangeEvent(tick=18624, channel=0, data=[64, 127]),\n",
       "   midi.NoteOnEvent(tick=18624, channel=0, data=[62, 72]),\n",
       "   midi.NoteOnEvent(tick=18632, channel=0, data=[59, 0]),\n",
       "   midi.NoteOnEvent(tick=18672, channel=0, data=[59, 63]),\n",
       "   midi.NoteOnEvent(tick=18676, channel=0, data=[59, 0]),\n",
       "   midi.NoteOnEvent(tick=18696, channel=0, data=[62, 0]),\n",
       "   midi.NoteOnEvent(tick=18696, channel=0, data=[59, 98]),\n",
       "   midi.NoteOnEvent(tick=18700, channel=0, data=[71, 0]),\n",
       "   midi.NoteOnEvent(tick=18700, channel=0, data=[67, 0]),\n",
       "   midi.NoteOnEvent(tick=18720, channel=0, data=[67, 105]),\n",
       "   midi.NoteOnEvent(tick=18720, channel=0, data=[71, 102]),\n",
       "   midi.NoteOnEvent(tick=18720, channel=0, data=[62, 110]),\n",
       "   midi.NoteOnEvent(tick=18740, channel=0, data=[71, 0]),\n",
       "   midi.NoteOnEvent(tick=18740, channel=0, data=[67, 0]),\n",
       "   midi.NoteOnEvent(tick=18744, channel=0, data=[69, 99]),\n",
       "   midi.NoteOnEvent(tick=18768, channel=0, data=[67, 100]),\n",
       "   midi.NoteOnEvent(tick=18772, channel=0, data=[69, 0]),\n",
       "   midi.NoteOnEvent(tick=18776, channel=0, data=[59, 0]),\n",
       "   midi.NoteOnEvent(tick=18776, channel=0, data=[62, 0]),\n",
       "   midi.NoteOnEvent(tick=18780, channel=0, data=[67, 0]),\n",
       "   midi.NoteOnEvent(tick=18792, channel=0, data=[59, 90]),\n",
       "   midi.NoteOnEvent(tick=18796, channel=0, data=[50, 0]),\n",
       "   midi.NoteOnEvent(tick=18800, channel=0, data=[59, 0]),\n",
       "   midi.NoteOnEvent(tick=18804, channel=0, data=[55, 0]),\n",
       "   midi.ControlChangeEvent(tick=18816, channel=0, data=[64, 0]),\n",
       "   midi.NoteOnEvent(tick=18816, channel=0, data=[67, 114]),\n",
       "   midi.NoteOnEvent(tick=18816, channel=0, data=[64, 117]),\n",
       "   midi.NoteOnEvent(tick=18816, channel=0, data=[60, 114]),\n",
       "   midi.ControlChangeEvent(tick=18840, channel=0, data=[64, 127]),\n",
       "   midi.NoteOnEvent(tick=18864, channel=0, data=[55, 98]),\n",
       "   midi.NoteOnEvent(tick=18872, channel=0, data=[60, 0]),\n",
       "   midi.NoteOnEvent(tick=18872, channel=0, data=[67, 0]),\n",
       "   midi.NoteOnEvent(tick=18876, channel=0, data=[64, 0]),\n",
       "   midi.NoteOnEvent(tick=18888, channel=0, data=[67, 112]),\n",
       "   midi.NoteOnEvent(tick=18888, channel=0, data=[64, 108]),\n",
       "   midi.NoteOnEvent(tick=18888, channel=0, data=[60, 112]),\n",
       "   midi.NoteOnEvent(tick=18924, channel=0, data=[55, 0]),\n",
       "   midi.NoteOnEvent(tick=18932, channel=0, data=[60, 0]),\n",
       "   midi.NoteOnEvent(tick=18932, channel=0, data=[64, 0]),\n",
       "   midi.NoteOnEvent(tick=18936, channel=0, data=[55, 89]),\n",
       "   midi.NoteOnEvent(tick=18940, channel=0, data=[67, 0]),\n",
       "   midi.NoteOnEvent(tick=18960, channel=0, data=[67, 112]),\n",
       "   midi.NoteOnEvent(tick=18960, channel=0, data=[62, 114]),\n",
       "   midi.ControlChangeEvent(tick=18960, channel=0, data=[64, 0]),\n",
       "   midi.ControlChangeEvent(tick=18984, channel=0, data=[64, 127]),\n",
       "   midi.NoteOnEvent(tick=19008, channel=0, data=[50, 103]),\n",
       "   midi.NoteOnEvent(tick=19032, channel=0, data=[62, 0]),\n",
       "   midi.NoteOnEvent(tick=19056, channel=0, data=[62, 106]),\n",
       "   midi.NoteOnEvent(tick=19072, channel=0, data=[62, 0]),\n",
       "   midi.NoteOnEvent(tick=19080, channel=0, data=[67, 0]),\n",
       "   midi.NoteOnEvent(tick=19080, channel=0, data=[59, 102]),\n",
       "   midi.NoteOnEvent(tick=19100, channel=0, data=[55, 0]),\n",
       "   midi.NoteOnEvent(tick=19104, channel=0, data=[59, 0]),\n",
       "   midi.NoteOnEvent(tick=19104, channel=0, data=[55, 41]),\n",
       "   midi.NoteOnEvent(tick=19128, channel=0, data=[74, 127]),\n",
       "   midi.NoteOnEvent(tick=19132, channel=0, data=[55, 0]),\n",
       "   midi.NoteOnEvent(tick=19148, channel=0, data=[50, 0]),\n",
       "   midi.NoteOnEvent(tick=19152, channel=0, data=[74, 0]),\n",
       "   midi.NoteOnEvent(tick=19152, channel=0, data=[76, 108]),\n",
       "   midi.NoteOnEvent(tick=19152, channel=0, data=[59, 85]),\n",
       "   midi.NoteOnEvent(tick=19160, channel=0, data=[59, 0]),\n",
       "   midi.NoteOnEvent(tick=19176, channel=0, data=[79, 96]),\n",
       "   midi.NoteOnEvent(tick=19184, channel=0, data=[76, 0]),\n",
       "   midi.NoteOnEvent(tick=19188, channel=0, data=[79, 0]),\n",
       "   midi.ControlChangeEvent(tick=19200, channel=0, data=[64, 0]),\n",
       "   midi.NoteOnEvent(tick=19200, channel=0, data=[76, 96]),\n",
       "   midi.NoteOnEvent(tick=19200, channel=0, data=[81, 106]),\n",
       "   midi.NoteOnEvent(tick=19200, channel=0, data=[60, 78]),\n",
       "   midi.NoteOnEvent(tick=19200, channel=0, data=[64, 84]),\n",
       "   midi.NoteOnEvent(tick=19200, channel=0, data=[72, 108]),\n",
       "   midi.NoteOnEvent(tick=19200, channel=0, data=[57, 89]),\n",
       "   midi.ControlChangeEvent(tick=19200, channel=0, data=[64, 127]),\n",
       "   midi.NoteOnEvent(tick=19224, channel=0, data=[64, 0]),\n",
       "   midi.NoteOnEvent(tick=19248, channel=0, data=[72, 0]),\n",
       "   midi.NoteOnEvent(tick=19248, channel=0, data=[81, 0]),\n",
       "   midi.NoteOnEvent(tick=19248, channel=0, data=[76, 0]),\n",
       "   midi.NoteOnEvent(tick=19248, channel=0, data=[64, 102]),\n",
       "   midi.NoteOnEvent(tick=19272, channel=0, data=[76, 103]),\n",
       "   midi.NoteOnEvent(tick=19272, channel=0, data=[81, 105]),\n",
       "   midi.NoteOnEvent(tick=19272, channel=0, data=[72, 105]),\n",
       "   midi.NoteOnEvent(tick=19296, channel=0, data=[81, 0]),\n",
       "   midi.NoteOnEvent(tick=19300, channel=0, data=[57, 0]),\n",
       "   midi.NoteOnEvent(tick=19300, channel=0, data=[60, 0]),\n",
       "   midi.NoteOnEvent(tick=19304, channel=0, data=[76, 0]),\n",
       "   midi.NoteOnEvent(tick=19308, channel=0, data=[72, 0]),\n",
       "   midi.NoteOnEvent(tick=19308, channel=0, data=[64, 0]),\n",
       "   midi.NoteOnEvent(tick=19344, channel=0, data=[79, 99]),\n",
       "   midi.NoteOnEvent(tick=19344, channel=0, data=[74, 112]),\n",
       "   midi.NoteOnEvent(tick=19344, channel=0, data=[71, 106]),\n",
       "   midi.NoteOnEvent(tick=19344, channel=0, data=[59, 82]),\n",
       "   midi.ControlChangeEvent(tick=19344, channel=0, data=[64, 0]),\n",
       "   midi.NoteOnEvent(tick=19344, channel=0, data=[62, 86]),\n",
       "   midi.NoteOnEvent(tick=19344, channel=0, data=[55, 93]),\n",
       "   midi.ControlChangeEvent(tick=19392, channel=0, data=[64, 127]),\n",
       "   midi.NoteOnEvent(tick=19404, channel=0, data=[62, 0]),\n",
       "   midi.NoteOnEvent(tick=19440, channel=0, data=[62, 88]),\n",
       "   midi.NoteOnEvent(tick=19448, channel=0, data=[79, 0]),\n",
       "   midi.NoteOnEvent(tick=19452, channel=0, data=[74, 0]),\n",
       "   midi.NoteOnEvent(tick=19452, channel=0, data=[71, 0]),\n",
       "   midi.NoteOnEvent(tick=19456, channel=0, data=[62, 0]),\n",
       "   midi.NoteOnEvent(tick=19464, channel=0, data=[62, 93]),\n",
       "   midi.NoteOnEvent(tick=19488, channel=0, data=[76, 96]),\n",
       "   midi.NoteOnEvent(tick=19488, channel=0, data=[71, 94]),\n",
       "   midi.NoteOnEvent(tick=19488, channel=0, data=[67, 99]),\n",
       "   midi.NoteOnEvent(tick=19504, channel=0, data=[76, 0]),\n",
       "   midi.NoteOnEvent(tick=19512, channel=0, data=[74, 102]),\n",
       "   midi.NoteOnEvent(tick=19516, channel=0, data=[71, 0]),\n",
       "   midi.NoteOnEvent(tick=19524, channel=0, data=[67, 0]),\n",
       "   midi.NoteOnEvent(tick=19532, channel=0, data=[62, 0]),\n",
       "   midi.NoteOnEvent(tick=19536, channel=0, data=[55, 0]),\n",
       "   midi.NoteOnEvent(tick=19536, channel=0, data=[71, 103]),\n",
       "   midi.NoteOnEvent(tick=19544, channel=0, data=[59, 0]),\n",
       "   midi.NoteOnEvent(tick=19560, channel=0, data=[67, 73]),\n",
       "   midi.NoteOnEvent(tick=19564, channel=0, data=[67, 0]),\n",
       "   midi.NoteOnEvent(tick=19564, channel=0, data=[71, 0]),\n",
       "   midi.NoteOnEvent(tick=19564, channel=0, data=[74, 0]),\n",
       "   midi.ControlChangeEvent(tick=19584, channel=0, data=[64, 0]),\n",
       "   midi.NoteOnEvent(tick=19584, channel=0, data=[74, 110]),\n",
       "   midi.NoteOnEvent(tick=19584, channel=0, data=[67, 103]),\n",
       "   midi.NoteOnEvent(tick=19584, channel=0, data=[55, 90]),\n",
       "   midi.NoteOnEvent(tick=19584, channel=0, data=[71, 100]),\n",
       "   midi.NoteOnEvent(tick=19584, channel=0, data=[59, 86]),\n",
       "   midi.NoteOnEvent(tick=19584, channel=0, data=[52, 82]),\n",
       "   midi.ControlChangeEvent(tick=19584, channel=0, data=[64, 127]),\n",
       "   midi.NoteOnEvent(tick=19612, channel=0, data=[59, 0]),\n",
       "   midi.NoteOnEvent(tick=19632, channel=0, data=[59, 93]),\n",
       "   midi.NoteOnEvent(tick=19636, channel=0, data=[71, 0]),\n",
       "   midi.NoteOnEvent(tick=19636, channel=0, data=[74, 0]),\n",
       "   midi.NoteOnEvent(tick=19636, channel=0, data=[67, 0]),\n",
       "   midi.NoteOnEvent(tick=19656, channel=0, data=[74, 112]),\n",
       "   midi.NoteOnEvent(tick=19656, channel=0, data=[71, 106]),\n",
       "   midi.NoteOnEvent(tick=19656, channel=0, data=[67, 106]),\n",
       "   midi.NoteOnEvent(tick=19676, channel=0, data=[67, 0]),\n",
       "   midi.NoteOnEvent(tick=19676, channel=0, data=[74, 0]),\n",
       "   midi.NoteOnEvent(tick=19676, channel=0, data=[71, 0]),\n",
       "   midi.NoteOnEvent(tick=19688, channel=0, data=[59, 0]),\n",
       "   midi.NoteOnEvent(tick=19704, channel=0, data=[52, 0]),\n",
       "   midi.NoteOnEvent(tick=19704, channel=0, data=[59, 70]),\n",
       "   midi.NoteOnEvent(tick=19708, channel=0, data=[59, 0]),\n",
       "   midi.NoteOnEvent(tick=19712, channel=0, data=[55, 0]),\n",
       "   midi.ControlChangeEvent(tick=19728, channel=0, data=[64, 0]),\n",
       "   midi.NoteOnEvent(tick=19728, channel=0, data=[69, 119]),\n",
       "   midi.NoteOnEvent(tick=19728, channel=0, data=[74, 112]),\n",
       "   midi.NoteOnEvent(tick=19728, channel=0, data=[57, 95]),\n",
       "   midi.NoteOnEvent(tick=19728, channel=0, data=[50, 90]),\n",
       "   midi.ControlChangeEvent(tick=19728, channel=0, data=[64, 127]),\n",
       "   midi.NoteOnEvent(tick=19776, channel=0, data=[62, 63]),\n",
       "   midi.NoteOnEvent(tick=19780, channel=0, data=[62, 0]),\n",
       "   midi.NoteOnEvent(tick=19800, channel=0, data=[74, 0]),\n",
       "   midi.NoteOnEvent(tick=19800, channel=0, data=[62, 106]),\n",
       "   midi.NoteOnEvent(tick=19804, channel=0, data=[69, 0]),\n",
       "   midi.NoteOnEvent(tick=19824, channel=0, data=[69, 124]),\n",
       "   midi.NoteOnEvent(tick=19824, channel=0, data=[74, 110]),\n",
       "   midi.NoteOnEvent(tick=19848, channel=0, data=[69, 0]),\n",
       "   midi.NoteOnEvent(tick=19848, channel=0, data=[71, 92]),\n",
       "   midi.NoteOnEvent(tick=19852, channel=0, data=[74, 0]),\n",
       "   midi.NoteOnEvent(tick=19856, channel=0, data=[71, 0]),\n",
       "   midi.NoteOnEvent(tick=19872, channel=0, data=[69, 124]),\n",
       "   midi.NoteOnEvent(tick=19872, channel=0, data=[74, 99]),\n",
       "   midi.NoteOnEvent(tick=19892, channel=0, data=[69, 0]),\n",
       "   midi.NoteOnEvent(tick=19896, channel=0, data=[67, 99]),\n",
       "   midi.NoteOnEvent(tick=19900, channel=0, data=[62, 0]),\n",
       "   midi.NoteOnEvent(tick=19920, channel=0, data=[74, 0]),\n",
       "   midi.NoteOnEvent(tick=19920, channel=0, data=[62, 98]),\n",
       "   midi.NoteOnEvent(tick=19924, channel=0, data=[67, 0]),\n",
       "   midi.NoteOnEvent(tick=19944, channel=0, data=[50, 0]),\n",
       "   midi.NoteOnEvent(tick=19948, channel=0, data=[62, 0]),\n",
       "   midi.NoteOnEvent(tick=19956, channel=0, data=[57, 0]),\n",
       "   midi.ControlChangeEvent(tick=19968, channel=0, data=[64, 0]),\n",
       "   midi.NoteOnEvent(tick=19968, channel=0, data=[57, 86]),\n",
       "   midi.NoteOnEvent(tick=19968, channel=0, data=[69, 112]),\n",
       "   midi.NoteOnEvent(tick=19968, channel=0, data=[72, 110]),\n",
       "   midi.NoteOnEvent(tick=19968, channel=0, data=[64, 112]),\n",
       "   midi.NoteOnEvent(tick=19968, channel=0, data=[52, 94]),\n",
       "   midi.NoteOnEvent(tick=19968, channel=0, data=[60, 95]),\n",
       "   midi.ControlChangeEvent(tick=19968, channel=0, data=[64, 127]),\n",
       "   midi.NoteOnEvent(tick=19988, channel=0, data=[60, 0]),\n",
       "   midi.NoteOnEvent(tick=20016, channel=0, data=[72, 0]),\n",
       "   midi.NoteOnEvent(tick=20016, channel=0, data=[64, 0]),\n",
       "   midi.NoteOnEvent(tick=20016, channel=0, data=[60, 94]),\n",
       "   midi.NoteOnEvent(tick=20020, channel=0, data=[69, 0]),\n",
       "   midi.NoteOnEvent(tick=20040, channel=0, data=[72, 112]),\n",
       "   midi.NoteOnEvent(tick=20040, channel=0, data=[64, 110]),\n",
       "   midi.NoteOnEvent(tick=20040, channel=0, data=[69, 114]),\n",
       "   midi.NoteOnEvent(tick=20060, channel=0, data=[60, 0]),\n",
       "   midi.NoteOnEvent(tick=20080, channel=0, data=[72, 0]),\n",
       "   midi.NoteOnEvent(tick=20084, channel=0, data=[64, 0]),\n",
       "   midi.NoteOnEvent(tick=20088, channel=0, data=[52, 0]),\n",
       "   midi.NoteOnEvent(tick=20088, channel=0, data=[69, 0]),\n",
       "   midi.NoteOnEvent(tick=20096, channel=0, data=[57, 0]),\n",
       "   midi.ControlChangeEvent(tick=20112, channel=0, data=[64, 0]),\n",
       "   midi.NoteOnEvent(tick=20112, channel=0, data=[71, 99]),\n",
       "   midi.NoteOnEvent(tick=20112, channel=0, data=[67, 110]),\n",
       "   midi.NoteOnEvent(tick=20112, channel=0, data=[62, 110]),\n",
       "   midi.NoteOnEvent(tick=20112, channel=0, data=[55, 99]),\n",
       "   midi.NoteOnEvent(tick=20112, channel=0, data=[59, 100]),\n",
       "   midi.NoteOnEvent(tick=20112, channel=0, data=[50, 93]),\n",
       "   midi.NoteOnEvent(tick=20144, channel=0, data=[62, 0]),\n",
       "   midi.ControlChangeEvent(tick=20160, channel=0, data=[64, 127]),\n",
       "   midi.NoteOnEvent(tick=20160, channel=0, data=[62, 59]),\n",
       "   midi.NoteOnEvent(tick=20164, channel=0, data=[59, 0]),\n",
       "   midi.NoteOnEvent(tick=20200, channel=0, data=[62, 0]),\n",
       "   midi.NoteOnEvent(tick=20208, channel=0, data=[59, 100]),\n",
       "   midi.NoteOnEvent(tick=20224, channel=0, data=[59, 0]),\n",
       "   midi.NoteOnEvent(tick=20232, channel=0, data=[59, 99]),\n",
       "   midi.NoteOnEvent(tick=20236, channel=0, data=[71, 0]),\n",
       "   midi.NoteOnEvent(tick=20240, channel=0, data=[67, 0]),\n",
       "   midi.NoteOnEvent(tick=20256, channel=0, data=[67, 117]),\n",
       "   midi.NoteOnEvent(tick=20256, channel=0, data=[71, 105]),\n",
       "   midi.NoteOnEvent(tick=20256, channel=0, data=[62, 112]),\n",
       "   midi.NoteOnEvent(tick=20276, channel=0, data=[71, 0]),\n",
       "   midi.NoteOnEvent(tick=20276, channel=0, data=[67, 0]),\n",
       "   midi.NoteOnEvent(tick=20280, channel=0, data=[69, 93]),\n",
       "   midi.NoteOnEvent(tick=20292, channel=0, data=[62, 0]),\n",
       "   midi.NoteOnEvent(tick=20300, channel=0, data=[69, 0]),\n",
       "   midi.NoteOnEvent(tick=20304, channel=0, data=[67, 110]),\n",
       "   midi.NoteOnEvent(tick=20304, channel=0, data=[62, 95]),\n",
       "   midi.NoteOnEvent(tick=20304, channel=0, data=[69, 82]),\n",
       "   midi.NoteOnEvent(tick=20305, channel=0, data=[69, 0]),\n",
       "   midi.NoteOnEvent(tick=20316, channel=0, data=[59, 0]),\n",
       "   midi.NoteOnEvent(tick=20316, channel=0, data=[67, 0]),\n",
       "   midi.NoteOnEvent(tick=20320, channel=0, data=[62, 0]),\n",
       "   midi.NoteOnEvent(tick=20328, channel=0, data=[59, 84]),\n",
       "   midi.NoteOnEvent(tick=20328, channel=0, data=[64, 70]),\n",
       "   midi.NoteOnEvent(tick=20332, channel=0, data=[64, 0]),\n",
       "   midi.NoteOnEvent(tick=20332, channel=0, data=[50, 0]),\n",
       "   midi.NoteOnEvent(tick=20336, channel=0, data=[59, 0]),\n",
       "   midi.NoteOnEvent(tick=20340, channel=0, data=[55, 0]),\n",
       "   midi.ControlChangeEvent(tick=20352, channel=0, data=[64, 0]),\n",
       "   midi.NoteOnEvent(tick=20352, channel=0, data=[69, 105]),\n",
       "   midi.NoteOnEvent(tick=20352, channel=0, data=[64, 110]),\n",
       "   midi.NoteOnEvent(tick=20352, channel=0, data=[60, 106]),\n",
       "   midi.NoteOnEvent(tick=20352, channel=0, data=[55, 92]),\n",
       "   midi.NoteOnEvent(tick=20352, channel=0, data=[48, 100]),\n",
       "   midi.ControlChangeEvent(tick=20376, channel=0, data=[64, 127]),\n",
       "   midi.NoteOnEvent(tick=20400, channel=0, data=[60, 0]),\n",
       "   midi.NoteOnEvent(tick=20404, channel=0, data=[69, 0]),\n",
       "   midi.NoteOnEvent(tick=20404, channel=0, data=[64, 0]),\n",
       "   midi.NoteOnEvent(tick=20424, channel=0, data=[64, 117]),\n",
       "   midi.NoteOnEvent(tick=20424, channel=0, data=[67, 117]),\n",
       "   midi.NoteOnEvent(tick=20424, channel=0, data=[60, 110]),\n",
       "   midi.NoteOnEvent(tick=20452, channel=0, data=[60, 0]),\n",
       "   midi.NoteOnEvent(tick=20472, channel=0, data=[60, 103]),\n",
       "   midi.NoteOnEvent(tick=20476, channel=0, data=[64, 0]),\n",
       "   midi.NoteOnEvent(tick=20496, channel=0, data=[64, 105]),\n",
       "   midi.NoteOnEvent(tick=20500, channel=0, data=[60, 0]),\n",
       "   midi.NoteOnEvent(tick=20516, channel=0, data=[48, 0]),\n",
       "   midi.NoteOnEvent(tick=20520, channel=0, data=[60, 87]),\n",
       "   midi.NoteOnEvent(tick=20528, channel=0, data=[60, 0]),\n",
       "   midi.NoteOnEvent(tick=20528, channel=0, data=[64, 0]),\n",
       "   midi.NoteOnEvent(tick=20528, channel=0, data=[67, 0]),\n",
       "   midi.NoteOnEvent(tick=20536, channel=0, data=[55, 0]),\n",
       "   midi.ControlChangeEvent(tick=20544, channel=0, data=[64, 0]),\n",
       "   midi.NoteOnEvent(tick=20544, channel=0, data=[55, 85]),\n",
       "   midi.NoteOnEvent(tick=20544, channel=0, data=[59, 92]),\n",
       "   midi.NoteOnEvent(tick=20544, channel=0, data=[67, 99]),\n",
       "   midi.NoteOnEvent(tick=20544, channel=0, data=[71, 94]),\n",
       "   midi.NoteOnEvent(tick=20544, channel=0, data=[50, 98]),\n",
       "   midi.NoteOnEvent(tick=20544, channel=0, data=[62, 117]),\n",
       "   midi.ControlChangeEvent(tick=20544, channel=0, data=[64, 127]),\n",
       "   midi.NoteOnEvent(tick=20560, channel=0, data=[62, 0]),\n",
       "   midi.NoteOnEvent(tick=20592, channel=0, data=[62, 99]),\n",
       "   midi.NoteOnEvent(tick=20596, channel=0, data=[59, 0]),\n",
       "   midi.NoteOnEvent(tick=20612, channel=0, data=[71, 0]),\n",
       "   midi.NoteOnEvent(tick=20616, channel=0, data=[59, 75]),\n",
       "   midi.NoteOnEvent(tick=20620, channel=0, data=[50, 0]),\n",
       "   midi.NoteOnEvent(tick=20620, channel=0, data=[67, 0]),\n",
       "   midi.NoteOnEvent(tick=20620, channel=0, data=[62, 0]),\n",
       "   midi.NoteOnEvent(tick=20624, channel=0, data=[55, 0]),\n",
       "   midi.NoteOnEvent(tick=20624, channel=0, data=[59, 0]),\n",
       "   midi.ControlChangeEvent(tick=20640, channel=0, data=[64, 0]),\n",
       "   midi.NoteOnEvent(tick=20640, channel=0, data=[57, 98]),\n",
       "   midi.NoteOnEvent(tick=20640, channel=0, data=[50, 93]),\n",
       "   midi.NoteOnEvent(tick=20640, channel=0, data=[69, 106]),\n",
       "   midi.NoteOnEvent(tick=20640, channel=0, data=[66, 101]),\n",
       "   midi.NoteOnEvent(tick=20640, channel=0, data=[62, 105]),\n",
       "   midi.ControlChangeEvent(tick=20640, channel=0, data=[64, 127]),\n",
       "   midi.NoteOnEvent(tick=20660, channel=0, data=[62, 0]),\n",
       "   midi.NoteOnEvent(tick=20688, channel=0, data=[62, 89]),\n",
       "   midi.NoteOnEvent(tick=20696, channel=0, data=[62, 0]),\n",
       "   midi.NoteOnEvent(tick=20696, channel=0, data=[50, 0]),\n",
       "   midi.NoteOnEvent(tick=20696, channel=0, data=[57, 0]),\n",
       "   midi.NoteOnEvent(tick=20700, channel=0, data=[69, 0]),\n",
       "   midi.NoteOnEvent(tick=20700, channel=0, data=[66, 0]),\n",
       "   midi.NoteOnEvent(tick=20736, channel=0, data=[59, 74]),\n",
       "   midi.ControlChangeEvent(tick=20736, channel=0, data=[64, 0]),\n",
       "   midi.NoteOnEvent(tick=20736, channel=0, data=[67, 98]),\n",
       "   midi.NoteOnEvent(tick=20736, channel=0, data=[71, 88]),\n",
       "   midi.NoteOnEvent(tick=20736, channel=0, data=[55, 84]),\n",
       "   midi.NoteOnEvent(tick=20736, channel=0, data=[62, 75]),\n",
       "   midi.ControlChangeEvent(tick=20760, channel=0, data=[64, 127]),\n",
       "   midi.NoteOnEvent(tick=20800, channel=0, data=[62, 0]),\n",
       "   midi.NoteOnEvent(tick=20804, channel=0, data=[67, 0]),\n",
       "   midi.NoteOnEvent(tick=20808, channel=0, data=[71, 0]),\n",
       "   midi.NoteOnEvent(tick=20832, channel=0, data=[71, 88]),\n",
       "   midi.NoteOnEvent(tick=20832, channel=0, data=[67, 95]),\n",
       "   midi.NoteOnEvent(tick=20832, channel=0, data=[62, 83]),\n",
       "   midi.NoteOnEvent(tick=20852, channel=0, data=[55, 0]),\n",
       "   midi.NoteOnEvent(tick=20860, channel=0, data=[59, 0]),\n",
       "   midi.NoteOnEvent(tick=20868, channel=0, data=[71, 0]),\n",
       "   midi.NoteOnEvent(tick=20880, channel=0, data=[72, 92]),\n",
       "   midi.NoteOnEvent(tick=20880, channel=0, data=[69, 94]),\n",
       "   midi.NoteOnEvent(tick=20880, channel=0, data=[57, 87]),\n",
       "   midi.NoteOnEvent(tick=20888, channel=0, data=[67, 0]),\n",
       "   midi.ControlChangeEvent(tick=20904, channel=0, data=[64, 0]),\n",
       "   midi.NoteOnEvent(tick=20916, channel=0, data=[72, 0]),\n",
       "   midi.NoteOnEvent(tick=20920, channel=0, data=[57, 0]),\n",
       "   midi.NoteOnEvent(tick=20920, channel=0, data=[69, 0]),\n",
       "   midi.NoteOnEvent(tick=20928, channel=0, data=[74, 92]),\n",
       "   midi.NoteOnEvent(tick=20928, channel=0, data=[71, 86]),\n",
       "   midi.NoteOnEvent(tick=20928, channel=0, data=[67, 92]),\n",
       "   midi.NoteOnEvent(tick=20928, channel=0, data=[59, 93]),\n",
       "   midi.ControlChangeEvent(tick=20928, channel=0, data=[64, 127]),\n",
       "   midi.NoteOnEvent(tick=21016, channel=0, data=[67, 0]),\n",
       "   midi.NoteOnEvent(tick=21020, channel=0, data=[71, 0]),\n",
       "   midi.NoteOnEvent(tick=21020, channel=0, data=[74, 0]),\n",
       "   midi.NoteOnEvent(tick=21024, channel=0, data=[72, 100]),\n",
       "   midi.NoteOnEvent(tick=21024, channel=0, data=[69, 103]),\n",
       "   midi.NoteOnEvent(tick=21040, channel=0, data=[62, 0]),\n",
       "   midi.NoteOnEvent(tick=21040, channel=0, data=[59, 0]),\n",
       "   midi.NoteOnEvent(tick=21056, channel=0, data=[72, 0]),\n",
       "   midi.NoteOnEvent(tick=21064, channel=0, data=[69, 0]),\n",
       "   midi.NoteOnEvent(tick=21072, channel=0, data=[67, 86]),\n",
       "   midi.NoteOnEvent(tick=21072, channel=0, data=[71, 85]),\n",
       "   midi.NoteOnEvent(tick=21096, channel=0, data=[67, 0]),\n",
       "   midi.NoteOnEvent(tick=21096, channel=0, data=[50, 86]),\n",
       "   midi.NoteOnEvent(tick=21096, channel=0, data=[57, 69]),\n",
       "   midi.NoteOnEvent(tick=21100, channel=0, data=[71, 0]),\n",
       "   midi.NoteOnEvent(tick=21120, channel=0, data=[57, 0]),\n",
       "   midi.ControlChangeEvent(tick=21120, channel=0, data=[64, 0]),\n",
       "   midi.NoteOnEvent(tick=21120, channel=0, data=[69, 105]),\n",
       "   midi.NoteOnEvent(tick=21120, channel=0, data=[66, 97]),\n",
       "   midi.ControlChangeEvent(tick=21120, channel=0, data=[64, 0]),\n",
       "   midi.NoteOnEvent(tick=21120, channel=0, data=[62, 100]),\n",
       "   midi.NoteOnEvent(tick=21120, channel=0, data=[54, 80]),\n",
       "   midi.NoteOnEvent(tick=21120, channel=0, data=[57, 87]),\n",
       "   midi.NoteOnEvent(tick=21121, channel=0, data=[66, 0]),\n",
       "   midi.NoteOnEvent(tick=21121, channel=0, data=[69, 0]),\n",
       "   midi.NoteOnEvent(tick=21196, channel=0, data=[50, 0]),\n",
       "   midi.ControlChangeEvent(tick=21216, channel=0, data=[64, 127]),\n",
       "   midi.NoteOnEvent(tick=21244, channel=0, data=[54, 0]),\n",
       "   midi.NoteOnEvent(tick=21244, channel=0, data=[57, 0]),\n",
       "   midi.NoteOnEvent(tick=21248, channel=0, data=[62, 0]),\n",
       "   midi.ControlChangeEvent(tick=21264, channel=0, data=[64, 0]),\n",
       "   midi.NoteOnEvent(tick=21264, channel=0, data=[71, 92]),\n",
       "   midi.NoteOnEvent(tick=21264, channel=0, data=[67, 103]),\n",
       "   midi.NoteOnEvent(tick=21264, channel=0, data=[62, 95]),\n",
       "   midi.NoteOnEvent(tick=21264, channel=0, data=[55, 108]),\n",
       "   midi.ControlChangeEvent(tick=21288, channel=0, data=[64, 127]),\n",
       "   midi.NoteOnEvent(tick=21292, channel=0, data=[62, 0]),\n",
       "   midi.NoteOnEvent(tick=21296, channel=0, data=[71, 0]),\n",
       "   midi.NoteOnEvent(tick=21300, channel=0, data=[67, 0]),\n",
       "   midi.NoteOnEvent(tick=21304, channel=0, data=[55, 0]),\n",
       "   midi.ControlChangeEvent(tick=21312, channel=0, data=[64, 0]),\n",
       "   midi.NoteOnEvent(tick=21312, channel=0, data=[72, 106]),\n",
       "   midi.NoteOnEvent(tick=21312, channel=0, data=[69, 105]),\n",
       "   midi.NoteOnEvent(tick=21312, channel=0, data=[64, 100]),\n",
       "   midi.NoteOnEvent(tick=21312, channel=0, data=[57, 99]),\n",
       "   midi.ControlChangeEvent(tick=21360, channel=0, data=[64, 127]),\n",
       "   midi.NoteOnEvent(tick=21388, channel=0, data=[64, 0]),\n",
       "   midi.NoteOnEvent(tick=21388, channel=0, data=[72, 0]),\n",
       "   midi.NoteOnEvent(tick=21392, channel=0, data=[69, 0]),\n",
       "   midi.NoteOnEvent(tick=21396, channel=0, data=[57, 0]),\n",
       "   midi.ControlChangeEvent(tick=21408, channel=0, data=[64, 0]),\n",
       "   midi.NoteOnEvent(tick=21408, channel=0, data=[67, 103]),\n",
       "   midi.NoteOnEvent(tick=21408, channel=0, data=[71, 96]),\n",
       "   midi.NoteOnEvent(tick=21408, channel=0, data=[62, 99]),\n",
       "   midi.NoteOnEvent(tick=21408, channel=0, data=[55, 100]),\n",
       "   midi.ControlChangeEvent(tick=21432, channel=0, data=[64, 127]),\n",
       "   midi.NoteOnEvent(tick=21444, channel=0, data=[71, 0]),\n",
       "   midi.NoteOnEvent(tick=21444, channel=0, data=[67, 0]),\n",
       "   midi.NoteOnEvent(tick=21452, channel=0, data=[62, 0]),\n",
       "   midi.ControlChangeEvent(tick=21480, channel=0, data=[64, 0]),\n",
       "   midi.NoteOnEvent(tick=21504, channel=0, data=[64, 105]),\n",
       "   midi.NoteOnEvent(tick=21504, channel=0, data=[67, 110]),\n",
       "   midi.NoteOnEvent(tick=21504, channel=0, data=[48, 96]),\n",
       "   midi.ControlChangeEvent(tick=21528, channel=0, data=[64, 127]),\n",
       "   midi.NoteOnEvent(tick=21620, channel=0, data=[55, 0]),\n",
       "   midi.NoteOnEvent(tick=21648, channel=0, data=[55, 94]),\n",
       "   midi.NoteOnEvent(tick=21672, channel=0, data=[48, 0]),\n",
       "   midi.NoteOnEvent(tick=21684, channel=0, data=[67, 0]),\n",
       "   midi.NoteOnEvent(tick=21688, channel=0, data=[64, 0]),\n",
       "   midi.NoteOnEvent(tick=21688, channel=0, data=[55, 0]),\n",
       "   midi.ControlChangeEvent(tick=21696, channel=0, data=[64, 0]),\n",
       "   midi.NoteOnEvent(tick=21696, channel=0, data=[69, 99]),\n",
       "   midi.NoteOnEvent(tick=21696, channel=0, data=[66, 99]),\n",
       "   midi.NoteOnEvent(tick=21696, channel=0, data=[57, 85]),\n",
       "   midi.NoteOnEvent(tick=21696, channel=0, data=[62, 98]),\n",
       "   midi.NoteOnEvent(tick=21696, channel=0, data=[50, 90]),\n",
       "   midi.ControlChangeEvent(tick=21744, channel=0, data=[64, 127]),\n",
       "   midi.NoteOnEvent(tick=21856, channel=0, data=[69, 0]),\n",
       "   midi.NoteOnEvent(tick=21860, channel=0, data=[62, 0]),\n",
       "   midi.NoteOnEvent(tick=21860, channel=0, data=[66, 0]),\n",
       "   midi.NoteOnEvent(tick=21860, channel=0, data=[50, 0]),\n",
       "   midi.NoteOnEvent(tick=21864, channel=0, data=[57, 0]),\n",
       "   midi.ControlChangeEvent(tick=21888, channel=0, data=[64, 0]),\n",
       "   midi.NoteOnEvent(tick=21888, channel=0, data=[55, 91]),\n",
       "   midi.NoteOnEvent(tick=21888, channel=0, data=[48, 95]),\n",
       "   midi.NoteOnEvent(tick=21888, channel=0, data=[62, 112]),\n",
       "   midi.NoteOnEvent(tick=21888, channel=0, data=[67, 108]),\n",
       "   midi.NoteOnEvent(tick=21888, channel=0, data=[64, 93]),\n",
       "   midi.NoteOnEvent(tick=21900, channel=0, data=[62, 0]),\n",
       "   midi.NoteOnEvent(tick=21984, channel=0, data=[60, 89]),\n",
       "   midi.ControlChangeEvent(tick=21984, channel=0, data=[64, 127]),\n",
       "   midi.NoteOnEvent(tick=22004, channel=0, data=[48, 0]),\n",
       "   midi.NoteOnEvent(tick=22008, channel=0, data=[64, 0]),\n",
       "   midi.NoteOnEvent(tick=22008, channel=0, data=[60, 0]),\n",
       "   midi.NoteOnEvent(tick=22008, channel=0, data=[67, 0]),\n",
       "   midi.NoteOnEvent(tick=22016, channel=0, data=[55, 0]),\n",
       "   midi.ControlChangeEvent(tick=22032, channel=0, data=[64, 0]),\n",
       "   midi.NoteOnEvent(tick=22032, channel=0, data=[67, 99]),\n",
       "   midi.NoteOnEvent(tick=22032, channel=0, data=[62, 103]),\n",
       "   midi.NoteOnEvent(tick=22032, channel=0, data=[55, 95]),\n",
       "   midi.NoteOnEvent(tick=22032, channel=0, data=[59, 86]),\n",
       "   midi.NoteOnEvent(tick=22032, channel=0, data=[50, 88]),\n",
       "   midi.ControlChangeEvent(tick=22104, channel=0, data=[64, 127]),\n",
       "   midi.NoteOnEvent(tick=22132, channel=0, data=[67, 0]),\n",
       "   midi.NoteOnEvent(tick=22136, channel=0, data=[59, 0]),\n",
       "   midi.NoteOnEvent(tick=22136, channel=0, data=[62, 0]),\n",
       "   midi.NoteOnEvent(tick=22136, channel=0, data=[50, 0]),\n",
       "   midi.NoteOnEvent(tick=22144, channel=0, data=[55, 0]),\n",
       "   midi.ControlChangeEvent(tick=22176, channel=0, data=[64, 0]),\n",
       "   midi.NoteOnEvent(tick=22176, channel=0, data=[66, 101]),\n",
       "   midi.NoteOnEvent(tick=22176, channel=0, data=[69, 102]),\n",
       "   midi.NoteOnEvent(tick=22176, channel=0, data=[62, 102]),\n",
       "   midi.NoteOnEvent(tick=22176, channel=0, data=[50, 93]),\n",
       "   midi.NoteOnEvent(tick=22176, channel=0, data=[57, 86]),\n",
       "   midi.NoteOnEvent(tick=22196, channel=0, data=[62, 0]),\n",
       "   midi.NoteOnEvent(tick=22200, channel=0, data=[64, 94]),\n",
       "   midi.NoteOnEvent(tick=22224, channel=0, data=[62, 95]),\n",
       "   midi.ControlChangeEvent(tick=22224, channel=0, data=[64, 127]),\n",
       "   midi.NoteOnEvent(tick=22228, channel=0, data=[57, 0]),\n",
       "   midi.NoteOnEvent(tick=22236, channel=0, data=[64, 0]),\n",
       "   midi.NoteOnEvent(tick=22236, channel=0, data=[66, 0]),\n",
       "   midi.NoteOnEvent(tick=22240, channel=0, data=[69, 0]),\n",
       "   midi.NoteOnEvent(tick=22248, channel=0, data=[57, 80]),\n",
       "   midi.NoteOnEvent(tick=22252, channel=0, data=[50, 0]),\n",
       "   midi.NoteOnEvent(tick=22256, channel=0, data=[57, 0]),\n",
       "   midi.NoteOnEvent(tick=22256, channel=0, data=[62, 0]),\n",
       "   midi.ControlChangeEvent(tick=22272, channel=0, data=[64, 0]),\n",
       "   midi.NoteOnEvent(tick=22272, channel=0, data=[71, 98]),\n",
       "   midi.NoteOnEvent(tick=22272, channel=0, data=[62, 103]),\n",
       "   midi.NoteOnEvent(tick=22272, channel=0, data=[67, 112]),\n",
       "   midi.NoteOnEvent(tick=22272, channel=0, data=[55, 98]),\n",
       "   midi.NoteOnEvent(tick=22272, channel=0, data=[59, 93]),\n",
       "   midi.ControlChangeEvent(tick=22368, channel=0, data=[64, 127]),\n",
       "   midi.NoteOnEvent(tick=22392, channel=0, data=[59, 0]),\n",
       "   midi.NoteOnEvent(tick=22396, channel=0, data=[55, 0]),\n",
       "   midi.NoteOnEvent(tick=22400, channel=0, data=[71, 0]),\n",
       "   midi.NoteOnEvent(tick=22400, channel=0, data=[62, 0]),\n",
       "   midi.NoteOnEvent(tick=22404, channel=0, data=[67, 0]),\n",
       "   midi.ControlChangeEvent(tick=22416, channel=0, data=[64, 0]),\n",
       "   midi.NoteOnEvent(tick=22416, channel=0, data=[72, 98]),\n",
       "   midi.NoteOnEvent(tick=22416, channel=0, data=[69, 99]),\n",
       "   midi.NoteOnEvent(tick=22416, channel=0, data=[57, 105]),\n",
       "   midi.NoteOnEvent(tick=22416, channel=0, data=[62, 94]),\n",
       "   midi.ControlChangeEvent(tick=22416, channel=0, data=[64, 127]),\n",
       "   midi.NoteOnEvent(tick=22448, channel=0, data=[62, 0]),\n",
       "   midi.NoteOnEvent(tick=22448, channel=0, data=[72, 0]),\n",
       "   midi.NoteOnEvent(tick=22456, channel=0, data=[69, 0]),\n",
       "   midi.NoteOnEvent(tick=22460, channel=0, data=[57, 0]),\n",
       "   midi.ControlChangeEvent(tick=22464, channel=0, data=[64, 0]),\n",
       "   midi.NoteOnEvent(tick=22464, channel=0, data=[62, 93]),\n",
       "   midi.NoteOnEvent(tick=22464, channel=0, data=[59, 93]),\n",
       "   midi.NoteOnEvent(tick=22464, channel=0, data=[67, 98]),\n",
       "   midi.NoteOnEvent(tick=22464, channel=0, data=[71, 89]),\n",
       "   midi.NoteOnEvent(tick=22464, channel=0, data=[74, 102]),\n",
       "   midi.ControlChangeEvent(tick=22464, channel=0, data=[64, 127]),\n",
       "   midi.NoteOnEvent(tick=22628, channel=0, data=[74, 0]),\n",
       "   midi.NoteOnEvent(tick=22628, channel=0, data=[67, 0]),\n",
       "   midi.NoteOnEvent(tick=22632, channel=0, data=[62, 0]),\n",
       "   midi.NoteOnEvent(tick=22632, channel=0, data=[59, 0]),\n",
       "   midi.NoteOnEvent(tick=22632, channel=0, data=[71, 0]),\n",
       "   midi.ControlChangeEvent(tick=22656, channel=0, data=[64, 0]),\n",
       "   midi.NoteOnEvent(tick=22656, channel=0, data=[69, 98]),\n",
       "   midi.NoteOnEvent(tick=22656, channel=0, data=[62, 95]),\n",
       "   midi.NoteOnEvent(tick=22656, channel=0, data=[66, 99]),\n",
       "   midi.NoteOnEvent(tick=22656, channel=0, data=[54, 79]),\n",
       "   midi.NoteOnEvent(tick=22656, channel=0, data=[57, 86]),\n",
       "   midi.ControlChangeEvent(tick=22752, channel=0, data=[64, 127]),\n",
       "   midi.NoteOnEvent(tick=22772, channel=0, data=[57, 0]),\n",
       "   midi.NoteOnEvent(tick=22776, channel=0, data=[54, 0]),\n",
       "   midi.NoteOnEvent(tick=22780, channel=0, data=[66, 0]),\n",
       "   midi.NoteOnEvent(tick=22780, channel=0, data=[62, 0]),\n",
       "   midi.NoteOnEvent(tick=22784, channel=0, data=[69, 0]),\n",
       "   midi.ControlChangeEvent(tick=22800, channel=0, data=[64, 0]),\n",
       "   midi.NoteOnEvent(tick=22800, channel=0, data=[55, 95]),\n",
       "   midi.NoteOnEvent(tick=22800, channel=0, data=[71, 92]),\n",
       "   midi.NoteOnEvent(tick=22800, channel=0, data=[67, 103]),\n",
       "   midi.NoteOnEvent(tick=22800, channel=0, data=[62, 94]),\n",
       "   midi.ControlChangeEvent(tick=22800, channel=0, data=[64, 127]),\n",
       "   midi.NoteOnEvent(tick=22832, channel=0, data=[62, 0]),\n",
       "   midi.NoteOnEvent(tick=22832, channel=0, data=[71, 0]),\n",
       "   midi.NoteOnEvent(tick=22836, channel=0, data=[67, 0]),\n",
       "   midi.NoteOnEvent(tick=22840, channel=0, data=[55, 0]),\n",
       "   midi.ControlChangeEvent(tick=22848, channel=0, data=[64, 0]),\n",
       "   midi.NoteOnEvent(tick=22848, channel=0, data=[69, 96]),\n",
       "   midi.NoteOnEvent(tick=22848, channel=0, data=[72, 99]),\n",
       "   midi.NoteOnEvent(tick=22848, channel=0, data=[62, 96]),\n",
       "   midi.NoteOnEvent(tick=22848, channel=0, data=[57, 95]),\n",
       "   midi.ControlChangeEvent(tick=22896, channel=0, data=[64, 127]),\n",
       "   midi.NoteOnEvent(tick=22928, channel=0, data=[62, 0]),\n",
       "   midi.NoteOnEvent(tick=22928, channel=0, data=[69, 0]),\n",
       "   midi.NoteOnEvent(tick=22928, channel=0, data=[72, 0]),\n",
       "   midi.NoteOnEvent(tick=22932, channel=0, data=[57, 0]),\n",
       "   midi.ControlChangeEvent(tick=22944, channel=0, data=[64, 0]),\n",
       "   midi.NoteOnEvent(tick=22944, channel=0, data=[71, 92]),\n",
       "   midi.NoteOnEvent(tick=22944, channel=0, data=[67, 102]),\n",
       "   midi.NoteOnEvent(tick=22944, channel=0, data=[55, 102]),\n",
       "   midi.NoteOnEvent(tick=22944, channel=0, data=[62, 96]),\n",
       "   midi.ControlChangeEvent(tick=22944, channel=0, data=[64, 127]),\n",
       "   midi.NoteOnEvent(tick=22984, channel=0, data=[67, 0]),\n",
       "   midi.NoteOnEvent(tick=22984, channel=0, data=[71, 0]),\n",
       "   midi.NoteOnEvent(tick=22992, channel=0, data=[62, 0]),\n",
       "   midi.NoteOnEvent(tick=23036, channel=0, data=[55, 0]),\n",
       "   midi.ControlChangeEvent(tick=23040, channel=0, data=[64, 0]),\n",
       "   midi.NoteOnEvent(tick=23040, channel=0, data=[67, 98]),\n",
       "   midi.NoteOnEvent(tick=23040, channel=0, data=[55, 65]),\n",
       "   midi.NoteOnEvent(tick=23040, channel=0, data=[64, 100]),\n",
       "   midi.NoteOnEvent(tick=23040, channel=0, data=[60, 93]),\n",
       "   midi.NoteOnEvent(tick=23040, channel=0, data=[48, 91]),\n",
       "   midi.ControlChangeEvent(tick=23088, channel=0, data=[64, 127]),\n",
       "   midi.NoteOnEvent(tick=23168, channel=0, data=[60, 0]),\n",
       "   midi.NoteOnEvent(tick=23172, channel=0, data=[64, 0]),\n",
       "   midi.NoteOnEvent(tick=23172, channel=0, data=[67, 0]),\n",
       "   midi.NoteOnEvent(tick=23184, channel=0, data=[67, 99]),\n",
       "   midi.NoteOnEvent(tick=23184, channel=0, data=[64, 93]),\n",
       "   midi.NoteOnEvent(tick=23184, channel=0, data=[60, 93]),\n",
       "   midi.NoteOnEvent(tick=23204, channel=0, data=[48, 0]),\n",
       "   midi.NoteOnEvent(tick=23208, channel=0, data=[60, 0]),\n",
       "   midi.NoteOnEvent(tick=23208, channel=0, data=[67, 0]),\n",
       "   midi.NoteOnEvent(tick=23216, channel=0, data=[64, 0]),\n",
       "   midi.NoteOnEvent(tick=23220, channel=0, data=[55, 0]),\n",
       "   midi.ControlChangeEvent(tick=23232, channel=0, data=[64, 0]),\n",
       "   midi.NoteOnEvent(tick=23232, channel=0, data=[66, 91]),\n",
       "   midi.NoteOnEvent(tick=23232, channel=0, data=[69, 100]),\n",
       "   midi.NoteOnEvent(tick=23232, channel=0, data=[62, 100]),\n",
       "   midi.NoteOnEvent(tick=23232, channel=0, data=[50, 90]),\n",
       "   midi.NoteOnEvent(tick=23232, channel=0, data=[57, 81]),\n",
       "   midi.ControlChangeEvent(tick=23256, channel=0, data=[64, 127]),\n",
       "   midi.NoteOnEvent(tick=23356, channel=0, data=[57, 0]),\n",
       "   midi.NoteOnEvent(tick=23376, channel=0, data=[57, 82]),\n",
       "   midi.NoteOnEvent(tick=23392, channel=0, data=[69, 0]),\n",
       "   midi.NoteOnEvent(tick=23396, channel=0, data=[57, 0]),\n",
       "   midi.NoteOnEvent(tick=23396, channel=0, data=[62, 0]),\n",
       "   midi.NoteOnEvent(tick=23400, channel=0, data=[66, 0]),\n",
       "   midi.NoteOnEvent(tick=23400, channel=0, data=[50, 0]),\n",
       "   midi.NoteOnEvent(tick=23424, channel=0, data=[67, 108]),\n",
       "   midi.NoteOnEvent(tick=23424, channel=0, data=[64, 110]),\n",
       "   midi.NoteOnEvent(tick=23424, channel=0, data=[60, 99]),\n",
       "   midi.NoteOnEvent(tick=23424, channel=0, data=[48, 103]),\n",
       "   midi.NoteOnEvent(tick=23424, channel=0, data=[55, 99]),\n",
       "   midi.NoteOnEvent(tick=23544, channel=0, data=[60, 0]),\n",
       "   midi.NoteOnEvent(tick=23548, channel=0, data=[48, 0]),\n",
       "   midi.NoteOnEvent(tick=23548, channel=0, data=[67, 0]),\n",
       "   midi.NoteOnEvent(tick=23548, channel=0, data=[64, 0]),\n",
       "   midi.NoteOnEvent(tick=23548, channel=0, data=[55, 0]),\n",
       "   midi.NoteOnEvent(tick=23568, channel=0, data=[67, 114]),\n",
       "   midi.NoteOnEvent(tick=23568, channel=0, data=[64, 114]),\n",
       "   midi.NoteOnEvent(tick=23568, channel=0, data=[55, 99]),\n",
       "   midi.NoteOnEvent(tick=23568, channel=0, data=[60, 108]),\n",
       "   midi.NoteOnEvent(tick=23568, channel=0, data=[48, 103]),\n",
       "   midi.NoteOnEvent(tick=23648, channel=0, data=[55, 0]),\n",
       "   midi.NoteOnEvent(tick=23664, channel=0, data=[55, 103]),\n",
       "   midi.NoteOnEvent(tick=23688, channel=0, data=[48, 0]),\n",
       "   midi.NoteOnEvent(tick=23692, channel=0, data=[60, 0]),\n",
       "   midi.NoteOnEvent(tick=23692, channel=0, data=[55, 0]),\n",
       "   midi.NoteOnEvent(tick=23696, channel=0, data=[64, 0]),\n",
       "   midi.NoteOnEvent(tick=23696, channel=0, data=[67, 0]),\n",
       "   midi.NoteOnEvent(tick=23712, channel=0, data=[57, 96]),\n",
       "   midi.NoteOnEvent(tick=23712, channel=0, data=[69, 112]),\n",
       "   midi.NoteOnEvent(tick=23712, channel=0, data=[66, 109]),\n",
       "   midi.NoteOnEvent(tick=23712, channel=0, data=[62, 110]),\n",
       "   midi.NoteOnEvent(tick=23712, channel=0, data=[50, 102]),\n",
       "   midi.NoteOnEvent(tick=23776, channel=0, data=[57, 0]),\n",
       "   midi.NoteOnEvent(tick=23780, channel=0, data=[62, 0]),\n",
       "   midi.NoteOnEvent(tick=23780, channel=0, data=[69, 0]),\n",
       "   midi.NoteOnEvent(tick=23780, channel=0, data=[66, 0]),\n",
       "   midi.NoteOnEvent(tick=23780, channel=0, data=[50, 0]),\n",
       "   midi.ControlChangeEvent(tick=23808, channel=0, data=[64, 0]),\n",
       "   midi.NoteOnEvent(tick=23808, channel=0, data=[81, 103]),\n",
       "   midi.NoteOnEvent(tick=23808, channel=0, data=[72, 114]),\n",
       "   midi.NoteOnEvent(tick=23808, channel=0, data=[76, 117]),\n",
       "   midi.NoteOnEvent(tick=23808, channel=0, data=[64, 89]),\n",
       "   midi.NoteOnEvent(tick=23808, channel=0, data=[60, 87]),\n",
       "   midi.NoteOnEvent(tick=23808, channel=0, data=[57, 86]),\n",
       "   midi.NoteOnEvent(tick=23828, channel=0, data=[64, 0]),\n",
       "   midi.ControlChangeEvent(tick=23832, channel=0, data=[64, 127]),\n",
       "   midi.NoteOnEvent(tick=23856, channel=0, data=[64, 110]),\n",
       "   midi.NoteOnEvent(tick=23860, channel=0, data=[76, 0]),\n",
       "   midi.NoteOnEvent(tick=23860, channel=0, data=[81, 0]),\n",
       "   midi.NoteOnEvent(tick=23860, channel=0, data=[72, 0]),\n",
       "   midi.NoteOnEvent(tick=23880, channel=0, data=[79, 106]),\n",
       "   midi.NoteOnEvent(tick=23880, channel=0, data=[72, 119]),\n",
       "   midi.NoteOnEvent(tick=23880, channel=0, data=[74, 121]),\n",
       "   midi.NoteOnEvent(tick=23904, channel=0, data=[74, 0]),\n",
       "   midi.NoteOnEvent(tick=23904, channel=0, data=[60, 0]),\n",
       "   midi.NoteOnEvent(tick=23908, channel=0, data=[79, 0]),\n",
       "   midi.NoteOnEvent(tick=23908, channel=0, data=[57, 0]),\n",
       "   midi.NoteOnEvent(tick=23908, channel=0, data=[64, 0]),\n",
       "   midi.NoteOnEvent(tick=23908, channel=0, data=[72, 0]),\n",
       "   midi.ControlChangeEvent(tick=23952, channel=0, data=[64, 0]),\n",
       "   midi.NoteOnEvent(tick=23952, channel=0, data=[59, 89]),\n",
       "   midi.NoteOnEvent(tick=23952, channel=0, data=[74, 119]),\n",
       "   midi.NoteOnEvent(tick=23952, channel=0, data=[79, 105]),\n",
       "   midi.NoteOnEvent(tick=23952, channel=0, data=[71, 108]),\n",
       "   midi.NoteOnEvent(tick=23952, channel=0, data=[62, 90]),\n",
       "   midi.NoteOnEvent(tick=23952, channel=0, data=[55, 95]),\n",
       "   midi.NoteOnEvent(tick=23984, channel=0, data=[71, 0]),\n",
       "   midi.ControlChangeEvent(tick=24000, channel=0, data=[64, 127]),\n",
       "   midi.NoteOnEvent(tick=24000, channel=0, data=[71, 77]),\n",
       "   midi.NoteOnEvent(tick=24008, channel=0, data=[62, 0]),\n",
       "   midi.NoteOnEvent(tick=24060, channel=0, data=[79, 0]),\n",
       "   midi.NoteOnEvent(tick=24060, channel=0, data=[74, 0]),\n",
       "   midi.NoteOnEvent(tick=24068, channel=0, data=[71, 0]),\n",
       "   midi.NoteOnEvent(tick=24072, channel=0, data=[62, 106]),\n",
       "   midi.NoteOnEvent(tick=24096, channel=0, data=[76, 106]),\n",
       "   midi.NoteOnEvent(tick=24096, channel=0, data=[71, 106]),\n",
       "   midi.NoteOnEvent(tick=24096, channel=0, data=[67, 117]),\n",
       "   midi.NoteOnEvent(tick=24116, channel=0, data=[76, 0]),\n",
       "   midi.NoteOnEvent(tick=24120, channel=0, data=[71, 0]),\n",
       "   midi.NoteOnEvent(tick=24120, channel=0, data=[74, 99]),\n",
       "   midi.NoteOnEvent(tick=24140, channel=0, data=[74, 0]),\n",
       "   midi.NoteOnEvent(tick=24144, channel=0, data=[62, 0]),\n",
       "   midi.NoteOnEvent(tick=24144, channel=0, data=[71, 95]),\n",
       "   midi.NoteOnEvent(tick=24168, channel=0, data=[67, 0]),\n",
       "   midi.NoteOnEvent(tick=24168, channel=0, data=[62, 79]),\n",
       "   midi.NoteOnEvent(tick=24172, channel=0, data=[62, 0]),\n",
       "   midi.NoteOnEvent(tick=24172, channel=0, data=[71, 0]),\n",
       "   midi.NoteOnEvent(tick=24172, channel=0, data=[59, 0]),\n",
       "   midi.NoteOnEvent(tick=24172, channel=0, data=[55, 0]),\n",
       "   midi.ControlChangeEvent(tick=24192, channel=0, data=[64, 0]),\n",
       "   midi.NoteOnEvent(tick=24192, channel=0, data=[74, 117]),\n",
       "   midi.NoteOnEvent(tick=24192, channel=0, data=[67, 117]),\n",
       "   midi.NoteOnEvent(tick=24192, channel=0, data=[71, 106]),\n",
       "   midi.NoteOnEvent(tick=24192, channel=0, data=[59, 99]),\n",
       "   midi.NoteOnEvent(tick=24192, channel=0, data=[55, 96]),\n",
       "   midi.NoteOnEvent(tick=24192, channel=0, data=[52, 86]),\n",
       "   midi.ControlChangeEvent(tick=24216, channel=0, data=[64, 127]),\n",
       "   midi.NoteOnEvent(tick=24220, channel=0, data=[59, 0]),\n",
       "   midi.NoteOnEvent(tick=24240, channel=0, data=[59, 100]),\n",
       "   midi.NoteOnEvent(tick=24248, channel=0, data=[71, 0]),\n",
       "   midi.NoteOnEvent(tick=24248, channel=0, data=[74, 0]),\n",
       "   midi.NoteOnEvent(tick=24248, channel=0, data=[67, 0]),\n",
       "   midi.NoteOnEvent(tick=24264, channel=0, data=[71, 105]),\n",
       "   midi.NoteOnEvent(tick=24264, channel=0, data=[67, 114]),\n",
       "   midi.NoteOnEvent(tick=24264, channel=0, data=[74, 114]),\n",
       "   midi.NoteOnEvent(tick=24284, channel=0, data=[74, 0]),\n",
       "   midi.NoteOnEvent(tick=24284, channel=0, data=[71, 0]),\n",
       "   midi.NoteOnEvent(tick=24284, channel=0, data=[67, 0]),\n",
       "   midi.NoteOnEvent(tick=24292, channel=0, data=[59, 0]),\n",
       "   midi.NoteOnEvent(tick=24308, channel=0, data=[52, 0]),\n",
       "   midi.NoteOnEvent(tick=24316, channel=0, data=[55, 0]),\n",
       "   midi.ControlChangeEvent(tick=24336, channel=0, data=[64, 0]),\n",
       "   midi.NoteOnEvent(tick=24336, channel=0, data=[69, 110]),\n",
       "   midi.NoteOnEvent(tick=24336, channel=0, data=[74, 108]),\n",
       "   midi.NoteOnEvent(tick=24336, channel=0, data=[66, 104]),\n",
       "   midi.NoteOnEvent(tick=24336, channel=0, data=[57, 96]),\n",
       "   midi.NoteOnEvent(tick=24336, channel=0, data=[50, 92]),\n",
       "   midi.ControlChangeEvent(tick=24384, channel=0, data=[64, 127]),\n",
       "   midi.NoteOnEvent(tick=24432, channel=0, data=[62, 102]),\n",
       "   midi.NoteOnEvent(tick=24440, channel=0, data=[62, 0]),\n",
       "   midi.NoteOnEvent(tick=24452, channel=0, data=[74, 0]),\n",
       "   midi.NoteOnEvent(tick=24452, channel=0, data=[66, 0]),\n",
       "   midi.NoteOnEvent(tick=24456, channel=0, data=[69, 0]),\n",
       "   midi.NoteOnEvent(tick=24456, channel=0, data=[62, 106]),\n",
       "   midi.NoteOnEvent(tick=24480, channel=0, data=[71, 86]),\n",
       "   midi.NoteOnEvent(tick=24480, channel=0, data=[74, 96]),\n",
       "   midi.NoteOnEvent(tick=24480, channel=0, data=[66, 99]),\n",
       "   midi.NoteOnEvent(tick=24492, channel=0, data=[66, 0]),\n",
       "   midi.NoteOnEvent(tick=24496, channel=0, data=[74, 0]),\n",
       "   midi.NoteOnEvent(tick=24500, channel=0, data=[71, 0]),\n",
       "   midi.NoteOnEvent(tick=24504, channel=0, data=[74, 91]),\n",
       "   midi.NoteOnEvent(tick=24504, channel=0, data=[69, 96]),\n",
       "   midi.NoteOnEvent(tick=24504, channel=0, data=[66, 86]),\n",
       "   midi.NoteOnEvent(tick=24512, channel=0, data=[62, 0]),\n",
       "   midi.NoteOnEvent(tick=24524, channel=0, data=[69, 0]),\n",
       "   midi.NoteOnEvent(tick=24524, channel=0, data=[74, 0]),\n",
       "   midi.NoteOnEvent(tick=24528, channel=0, data=[66, 0]),\n",
       "   midi.NoteOnEvent(tick=24528, channel=0, data=[62, 89]),\n",
       "   midi.NoteOnEvent(tick=24536, channel=0, data=[62, 0]),\n",
       "   midi.NoteOnEvent(tick=24552, channel=0, data=[50, 0]),\n",
       "   midi.NoteOnEvent(tick=24552, channel=0, data=[62, 89]),\n",
       "   midi.ControlChangeEvent(tick=24552, channel=0, data=[64, 0]),\n",
       "   midi.NoteOnEvent(tick=24556, channel=0, data=[57, 0]),\n",
       "   midi.NoteOnEvent(tick=24560, channel=0, data=[62, 0]),\n",
       "   midi.NoteOnEvent(tick=24576, channel=0, data=[57, 86]),\n",
       "   midi.NoteOnEvent(tick=24576, channel=0, data=[69, 96]),\n",
       "   midi.NoteOnEvent(tick=24576, channel=0, data=[72, 108]),\n",
       "   midi.NoteOnEvent(tick=24576, channel=0, data=[64, 102]),\n",
       "   midi.NoteOnEvent(tick=24576, channel=0, data=[52, 89]),\n",
       "   midi.NoteOnEvent(tick=24576, channel=0, data=[60, 84]),\n",
       "   midi.ControlChangeEvent(tick=24576, channel=0, data=[64, 127]),\n",
       "   midi.NoteOnEvent(tick=24592, channel=0, data=[60, 0]),\n",
       "   midi.NoteOnEvent(tick=24624, channel=0, data=[60, 82]),\n",
       "   midi.NoteOnEvent(tick=24628, channel=0, data=[72, 0]),\n",
       "   midi.NoteOnEvent(tick=24632, channel=0, data=[64, 0]),\n",
       "   midi.NoteOnEvent(tick=24632, channel=0, data=[69, 0]),\n",
       "   midi.NoteOnEvent(tick=24648, channel=0, data=[72, 106]),\n",
       "   midi.NoteOnEvent(tick=24648, channel=0, data=[64, 112]),\n",
       "   midi.NoteOnEvent(tick=24648, channel=0, data=[69, 112]),\n",
       "   midi.NoteOnEvent(tick=24672, channel=0, data=[60, 0]),\n",
       "   midi.NoteOnEvent(tick=24688, channel=0, data=[72, 0]),\n",
       "   midi.NoteOnEvent(tick=24688, channel=0, data=[69, 0]),\n",
       "   midi.NoteOnEvent(tick=24692, channel=0, data=[52, 0]),\n",
       "   midi.NoteOnEvent(tick=24692, channel=0, data=[64, 0]),\n",
       "   midi.NoteOnEvent(tick=24704, channel=0, data=[57, 0]),\n",
       "   midi.ControlChangeEvent(tick=24720, channel=0, data=[64, 0]),\n",
       "   midi.NoteOnEvent(tick=24720, channel=0, data=[71, 99]),\n",
       "   midi.NoteOnEvent(tick=24720, channel=0, data=[67, 103]),\n",
       "   midi.NoteOnEvent(tick=24720, channel=0, data=[62, 105]),\n",
       "   midi.NoteOnEvent(tick=24720, channel=0, data=[55, 99]),\n",
       "   midi.NoteOnEvent(tick=24720, channel=0, data=[59, 96]),\n",
       "   midi.NoteOnEvent(tick=24720, channel=0, data=[50, 91]),\n",
       "   midi.NoteOnEvent(tick=24748, channel=0, data=[62, 0]),\n",
       "   midi.ControlChangeEvent(tick=24768, channel=0, data=[64, 127]),\n",
       "   midi.NoteOnEvent(tick=24768, channel=0, data=[62, 72]),\n",
       "   midi.NoteOnEvent(tick=24776, channel=0, data=[59, 0]),\n",
       "   midi.NoteOnEvent(tick=24816, channel=0, data=[59, 63]),\n",
       "   midi.NoteOnEvent(tick=24820, channel=0, data=[59, 0]),\n",
       "   midi.NoteOnEvent(tick=24840, channel=0, data=[62, 0]),\n",
       "   midi.NoteOnEvent(tick=24840, channel=0, data=[59, 98]),\n",
       "   midi.NoteOnEvent(tick=24844, channel=0, data=[71, 0]),\n",
       "   midi.NoteOnEvent(tick=24844, channel=0, data=[67, 0]),\n",
       "   midi.NoteOnEvent(tick=24864, channel=0, data=[67, 105]),\n",
       "   midi.NoteOnEvent(tick=24864, channel=0, data=[71, 102]),\n",
       "   midi.NoteOnEvent(tick=24864, channel=0, data=[62, 110]),\n",
       "   midi.NoteOnEvent(tick=24884, channel=0, data=[71, 0]),\n",
       "   midi.NoteOnEvent(tick=24884, channel=0, data=[67, 0]),\n",
       "   midi.NoteOnEvent(tick=24888, channel=0, data=[69, 99]),\n",
       "   midi.NoteOnEvent(tick=24912, channel=0, data=[67, 100]),\n",
       "   midi.NoteOnEvent(tick=24916, channel=0, data=[69, 0]),\n",
       "   midi.NoteOnEvent(tick=24920, channel=0, data=[59, 0]),\n",
       "   midi.NoteOnEvent(tick=24920, channel=0, data=[62, 0]),\n",
       "   midi.NoteOnEvent(tick=24924, channel=0, data=[67, 0]),\n",
       "   midi.NoteOnEvent(tick=24936, channel=0, data=[59, 90]),\n",
       "   midi.NoteOnEvent(tick=24940, channel=0, data=[50, 0]),\n",
       "   midi.NoteOnEvent(tick=24944, channel=0, data=[59, 0]),\n",
       "   midi.NoteOnEvent(tick=24948, channel=0, data=[55, 0]),\n",
       "   midi.ControlChangeEvent(tick=24960, channel=0, data=[64, 0]),\n",
       "   midi.NoteOnEvent(tick=24960, channel=0, data=[67, 114]),\n",
       "   midi.NoteOnEvent(tick=24960, channel=0, data=[64, 117]),\n",
       "   midi.NoteOnEvent(tick=24960, channel=0, data=[60, 114]),\n",
       "   midi.ControlChangeEvent(tick=24984, channel=0, data=[64, 127]),\n",
       "   midi.NoteOnEvent(tick=25008, channel=0, data=[55, 98]),\n",
       "   midi.NoteOnEvent(tick=25016, channel=0, data=[60, 0]),\n",
       "   midi.NoteOnEvent(tick=25016, channel=0, data=[67, 0]),\n",
       "   midi.NoteOnEvent(tick=25020, channel=0, data=[64, 0]),\n",
       "   midi.NoteOnEvent(tick=25032, channel=0, data=[67, 112]),\n",
       "   midi.NoteOnEvent(tick=25032, channel=0, data=[64, 108]),\n",
       "   midi.NoteOnEvent(tick=25032, channel=0, data=[60, 112]),\n",
       "   midi.NoteOnEvent(tick=25068, channel=0, data=[55, 0]),\n",
       "   midi.NoteOnEvent(tick=25076, channel=0, data=[60, 0]),\n",
       "   midi.NoteOnEvent(tick=25076, channel=0, data=[64, 0]),\n",
       "   midi.NoteOnEvent(tick=25080, channel=0, data=[55, 89]),\n",
       "   midi.NoteOnEvent(tick=25084, channel=0, data=[67, 0]),\n",
       "   midi.NoteOnEvent(tick=25104, channel=0, data=[67, 112]),\n",
       "   midi.NoteOnEvent(tick=25104, channel=0, data=[62, 114]),\n",
       "   midi.ControlChangeEvent(tick=25104, channel=0, data=[64, 0]),\n",
       "   midi.ControlChangeEvent(tick=25128, channel=0, data=[64, 127]),\n",
       "   midi.NoteOnEvent(tick=25152, channel=0, data=[50, 103]),\n",
       "   midi.NoteOnEvent(tick=25176, channel=0, data=[62, 0]),\n",
       "   midi.NoteOnEvent(tick=25200, channel=0, data=[62, 106]),\n",
       "   midi.NoteOnEvent(tick=25216, channel=0, data=[62, 0]),\n",
       "   midi.NoteOnEvent(tick=25224, channel=0, data=[67, 0]),\n",
       "   midi.NoteOnEvent(tick=25224, channel=0, data=[59, 102]),\n",
       "   midi.NoteOnEvent(tick=25244, channel=0, data=[55, 0]),\n",
       "   midi.NoteOnEvent(tick=25248, channel=0, data=[59, 0]),\n",
       "   midi.NoteOnEvent(tick=25248, channel=0, data=[55, 41]),\n",
       "   midi.NoteOnEvent(tick=25272, channel=0, data=[74, 127]),\n",
       "   midi.NoteOnEvent(tick=25276, channel=0, data=[55, 0]),\n",
       "   midi.NoteOnEvent(tick=25292, channel=0, data=[50, 0]),\n",
       "   midi.NoteOnEvent(tick=25296, channel=0, data=[74, 0]),\n",
       "   midi.NoteOnEvent(tick=25296, channel=0, data=[76, 108]),\n",
       "   midi.NoteOnEvent(tick=25296, channel=0, data=[59, 85]),\n",
       "   midi.NoteOnEvent(tick=25304, channel=0, data=[59, 0]),\n",
       "   midi.NoteOnEvent(tick=25320, channel=0, data=[79, 96]),\n",
       "   midi.NoteOnEvent(tick=25328, channel=0, data=[76, 0]),\n",
       "   midi.NoteOnEvent(tick=25332, channel=0, data=[79, 0]),\n",
       "   midi.ControlChangeEvent(tick=25344, channel=0, data=[64, 0]),\n",
       "   midi.NoteOnEvent(tick=25344, channel=0, data=[81, 103]),\n",
       "   midi.NoteOnEvent(tick=25344, channel=0, data=[72, 114]),\n",
       "   midi.NoteOnEvent(tick=25344, channel=0, data=[76, 117]),\n",
       "   midi.NoteOnEvent(tick=25344, channel=0, data=[64, 89]),\n",
       "   midi.NoteOnEvent(tick=25344, channel=0, data=[60, 87]),\n",
       "   midi.NoteOnEvent(tick=25344, channel=0, data=[57, 86]),\n",
       "   midi.NoteOnEvent(tick=25364, channel=0, data=[64, 0]),\n",
       "   midi.ControlChangeEvent(tick=25368, channel=0, data=[64, 127]),\n",
       "   midi.NoteOnEvent(tick=25392, channel=0, data=[64, 110]),\n",
       "   midi.NoteOnEvent(tick=25396, channel=0, data=[76, 0]),\n",
       "   midi.NoteOnEvent(tick=25396, channel=0, data=[81, 0]),\n",
       "   midi.NoteOnEvent(tick=25396, channel=0, data=[72, 0]),\n",
       "   midi.NoteOnEvent(tick=25416, channel=0, data=[79, 106]),\n",
       "   midi.NoteOnEvent(tick=25416, channel=0, data=[72, 119]),\n",
       "   midi.NoteOnEvent(tick=25416, channel=0, data=[74, 121]),\n",
       "   midi.NoteOnEvent(tick=25440, channel=0, data=[74, 0]),\n",
       "   midi.NoteOnEvent(tick=25440, channel=0, data=[60, 0]),\n",
       "   midi.NoteOnEvent(tick=25444, channel=0, data=[79, 0]),\n",
       "   midi.NoteOnEvent(tick=25444, channel=0, data=[57, 0]),\n",
       "   midi.NoteOnEvent(tick=25444, channel=0, data=[64, 0]),\n",
       "   midi.NoteOnEvent(tick=25444, channel=0, data=[72, 0]),\n",
       "   midi.ControlChangeEvent(tick=25488, channel=0, data=[64, 0]),\n",
       "   midi.NoteOnEvent(tick=25488, channel=0, data=[59, 89]),\n",
       "   midi.NoteOnEvent(tick=25488, channel=0, data=[74, 119]),\n",
       "   midi.NoteOnEvent(tick=25488, channel=0, data=[79, 105]),\n",
       "   midi.NoteOnEvent(tick=25488, channel=0, data=[71, 108]),\n",
       "   midi.NoteOnEvent(tick=25488, channel=0, data=[62, 90]),\n",
       "   midi.NoteOnEvent(tick=25488, channel=0, data=[55, 95]),\n",
       "   midi.NoteOnEvent(tick=25520, channel=0, data=[71, 0]),\n",
       "   midi.ControlChangeEvent(tick=25536, channel=0, data=[64, 127]),\n",
       "   midi.NoteOnEvent(tick=25536, channel=0, data=[71, 77]),\n",
       "   midi.NoteOnEvent(tick=25544, channel=0, data=[62, 0]),\n",
       "   midi.NoteOnEvent(tick=25596, channel=0, data=[79, 0]),\n",
       "   midi.NoteOnEvent(tick=25596, channel=0, data=[74, 0]),\n",
       "   midi.NoteOnEvent(tick=25604, channel=0, data=[71, 0]),\n",
       "   midi.NoteOnEvent(tick=25608, channel=0, data=[62, 106]),\n",
       "   midi.NoteOnEvent(tick=25632, channel=0, data=[76, 106]),\n",
       "   midi.NoteOnEvent(tick=25632, channel=0, data=[71, 106]),\n",
       "   midi.NoteOnEvent(tick=25632, channel=0, data=[67, 117]),\n",
       "   midi.NoteOnEvent(tick=25652, channel=0, data=[76, 0]),\n",
       "   midi.NoteOnEvent(tick=25656, channel=0, data=[71, 0]),\n",
       "   midi.NoteOnEvent(tick=25656, channel=0, data=[74, 99]),\n",
       "   midi.NoteOnEvent(tick=25676, channel=0, data=[74, 0]),\n",
       "   midi.NoteOnEvent(tick=25680, channel=0, data=[62, 0]),\n",
       "   midi.NoteOnEvent(tick=25680, channel=0, data=[71, 95]),\n",
       "   midi.NoteOnEvent(tick=25704, channel=0, data=[67, 0]),\n",
       "   midi.NoteOnEvent(tick=25704, channel=0, data=[62, 79]),\n",
       "   midi.NoteOnEvent(tick=25708, channel=0, data=[62, 0]),\n",
       "   midi.NoteOnEvent(tick=25708, channel=0, data=[71, 0]),\n",
       "   midi.NoteOnEvent(tick=25708, channel=0, data=[59, 0]),\n",
       "   midi.NoteOnEvent(tick=25708, channel=0, data=[55, 0]),\n",
       "   midi.ControlChangeEvent(tick=25728, channel=0, data=[64, 0]),\n",
       "   midi.NoteOnEvent(tick=25728, channel=0, data=[74, 117]),\n",
       "   midi.NoteOnEvent(tick=25728, channel=0, data=[67, 117]),\n",
       "   midi.NoteOnEvent(tick=25728, channel=0, data=[71, 106]),\n",
       "   midi.NoteOnEvent(tick=25728, channel=0, data=[59, 99]),\n",
       "   midi.NoteOnEvent(tick=25728, channel=0, data=[55, 96]),\n",
       "   midi.NoteOnEvent(tick=25728, channel=0, data=[52, 86]),\n",
       "   midi.ControlChangeEvent(tick=25752, channel=0, data=[64, 127]),\n",
       "   midi.NoteOnEvent(tick=25756, channel=0, data=[59, 0]),\n",
       "   midi.NoteOnEvent(tick=25776, channel=0, data=[59, 100]),\n",
       "   midi.NoteOnEvent(tick=25784, channel=0, data=[71, 0]),\n",
       "   midi.NoteOnEvent(tick=25784, channel=0, data=[74, 0]),\n",
       "   midi.NoteOnEvent(tick=25784, channel=0, data=[67, 0]),\n",
       "   midi.NoteOnEvent(tick=25800, channel=0, data=[71, 105]),\n",
       "   midi.NoteOnEvent(tick=25800, channel=0, data=[67, 114]),\n",
       "   midi.NoteOnEvent(tick=25800, channel=0, data=[74, 114]),\n",
       "   midi.NoteOnEvent(tick=25820, channel=0, data=[74, 0]),\n",
       "   midi.NoteOnEvent(tick=25820, channel=0, data=[71, 0]),\n",
       "   midi.NoteOnEvent(tick=25820, channel=0, data=[67, 0]),\n",
       "   midi.NoteOnEvent(tick=25828, channel=0, data=[59, 0]),\n",
       "   midi.NoteOnEvent(tick=25844, channel=0, data=[52, 0]),\n",
       "   midi.NoteOnEvent(tick=25852, channel=0, data=[55, 0]),\n",
       "   midi.ControlChangeEvent(tick=25872, channel=0, data=[64, 0]),\n",
       "   midi.NoteOnEvent(tick=25872, channel=0, data=[69, 110]),\n",
       "   midi.NoteOnEvent(tick=25872, channel=0, data=[74, 108]),\n",
       "   midi.NoteOnEvent(tick=25872, channel=0, data=[66, 104]),\n",
       "   midi.NoteOnEvent(tick=25872, channel=0, data=[57, 96]),\n",
       "   midi.NoteOnEvent(tick=25872, channel=0, data=[50, 92]),\n",
       "   midi.ControlChangeEvent(tick=25920, channel=0, data=[64, 127]),\n",
       "   midi.NoteOnEvent(tick=25968, channel=0, data=[62, 102]),\n",
       "   midi.NoteOnEvent(tick=25976, channel=0, data=[62, 0]),\n",
       "   midi.NoteOnEvent(tick=25988, channel=0, data=[74, 0]),\n",
       "   midi.NoteOnEvent(tick=25988, channel=0, data=[66, 0]),\n",
       "   midi.NoteOnEvent(tick=25992, channel=0, data=[69, 0]),\n",
       "   midi.NoteOnEvent(tick=25992, channel=0, data=[62, 106]),\n",
       "   midi.NoteOnEvent(tick=26016, channel=0, data=[71, 86]),\n",
       "   midi.NoteOnEvent(tick=26016, channel=0, data=[74, 96]),\n",
       "   midi.NoteOnEvent(tick=26016, channel=0, data=[66, 99]),\n",
       "   midi.NoteOnEvent(tick=26028, channel=0, data=[66, 0]),\n",
       "   midi.NoteOnEvent(tick=26032, channel=0, data=[74, 0]),\n",
       "   midi.NoteOnEvent(tick=26036, channel=0, data=[71, 0]),\n",
       "   midi.NoteOnEvent(tick=26040, channel=0, data=[74, 91]),\n",
       "   midi.NoteOnEvent(tick=26040, channel=0, data=[69, 96]),\n",
       "   midi.NoteOnEvent(tick=26040, channel=0, data=[66, 86]),\n",
       "   midi.NoteOnEvent(tick=26048, channel=0, data=[62, 0]),\n",
       "   midi.NoteOnEvent(tick=26060, channel=0, data=[69, 0]),\n",
       "   midi.NoteOnEvent(tick=26060, channel=0, data=[74, 0]),\n",
       "   midi.NoteOnEvent(tick=26064, channel=0, data=[66, 0]),\n",
       "   midi.NoteOnEvent(tick=26064, channel=0, data=[62, 89]),\n",
       "   midi.NoteOnEvent(tick=26072, channel=0, data=[62, 0]),\n",
       "   midi.NoteOnEvent(tick=26088, channel=0, data=[50, 0]),\n",
       "   midi.NoteOnEvent(tick=26088, channel=0, data=[62, 89]),\n",
       "   midi.ControlChangeEvent(tick=26088, channel=0, data=[64, 0]),\n",
       "   midi.NoteOnEvent(tick=26092, channel=0, data=[57, 0]),\n",
       "   midi.NoteOnEvent(tick=26096, channel=0, data=[62, 0]),\n",
       "   midi.NoteOnEvent(tick=26112, channel=0, data=[57, 86]),\n",
       "   midi.NoteOnEvent(tick=26112, channel=0, data=[69, 96]),\n",
       "   midi.NoteOnEvent(tick=26112, channel=0, data=[72, 108]),\n",
       "   midi.NoteOnEvent(tick=26112, channel=0, data=[64, 102]),\n",
       "   midi.NoteOnEvent(tick=26112, channel=0, data=[52, 89]),\n",
       "   midi.NoteOnEvent(tick=26112, channel=0, data=[60, 84]),\n",
       "   midi.ControlChangeEvent(tick=26112, channel=0, data=[64, 127]),\n",
       "   midi.NoteOnEvent(tick=26128, channel=0, data=[60, 0]),\n",
       "   midi.NoteOnEvent(tick=26160, channel=0, data=[60, 82]),\n",
       "   midi.NoteOnEvent(tick=26164, channel=0, data=[72, 0]),\n",
       "   midi.NoteOnEvent(tick=26168, channel=0, data=[64, 0]),\n",
       "   midi.NoteOnEvent(tick=26168, channel=0, data=[69, 0]),\n",
       "   midi.NoteOnEvent(tick=26184, channel=0, data=[72, 106]),\n",
       "   midi.NoteOnEvent(tick=26184, channel=0, data=[64, 112]),\n",
       "   midi.NoteOnEvent(tick=26184, channel=0, data=[69, 112]),\n",
       "   midi.NoteOnEvent(tick=26208, channel=0, data=[60, 0]),\n",
       "   midi.NoteOnEvent(tick=26224, channel=0, data=[72, 0]),\n",
       "   midi.NoteOnEvent(tick=26224, channel=0, data=[69, 0]),\n",
       "   midi.NoteOnEvent(tick=26228, channel=0, data=[52, 0]),\n",
       "   midi.NoteOnEvent(tick=26228, channel=0, data=[64, 0]),\n",
       "   midi.NoteOnEvent(tick=26240, channel=0, data=[57, 0]),\n",
       "   midi.ControlChangeEvent(tick=26256, channel=0, data=[64, 0]),\n",
       "   midi.NoteOnEvent(tick=26256, channel=0, data=[71, 99]),\n",
       "   midi.NoteOnEvent(tick=26256, channel=0, data=[67, 103]),\n",
       "   midi.NoteOnEvent(tick=26256, channel=0, data=[62, 105]),\n",
       "   midi.NoteOnEvent(tick=26256, channel=0, data=[55, 99]),\n",
       "   midi.NoteOnEvent(tick=26256, channel=0, data=[59, 96]),\n",
       "   midi.NoteOnEvent(tick=26256, channel=0, data=[50, 91]),\n",
       "   midi.NoteOnEvent(tick=26284, channel=0, data=[62, 0]),\n",
       "   midi.ControlChangeEvent(tick=26304, channel=0, data=[64, 127]),\n",
       "   midi.NoteOnEvent(tick=26304, channel=0, data=[62, 72]),\n",
       "   midi.NoteOnEvent(tick=26312, channel=0, data=[59, 0]),\n",
       "   midi.NoteOnEvent(tick=26352, channel=0, data=[59, 63]),\n",
       "   midi.NoteOnEvent(tick=26356, channel=0, data=[59, 0]),\n",
       "   midi.NoteOnEvent(tick=26376, channel=0, data=[62, 0]),\n",
       "   midi.NoteOnEvent(tick=26376, channel=0, data=[59, 98]),\n",
       "   midi.NoteOnEvent(tick=26380, channel=0, data=[71, 0]),\n",
       "   midi.NoteOnEvent(tick=26380, channel=0, data=[67, 0]),\n",
       "   midi.NoteOnEvent(tick=26400, channel=0, data=[67, 105]),\n",
       "   midi.NoteOnEvent(tick=26400, channel=0, data=[71, 102]),\n",
       "   midi.NoteOnEvent(tick=26400, channel=0, data=[62, 110]),\n",
       "   midi.NoteOnEvent(tick=26420, channel=0, data=[71, 0]),\n",
       "   midi.NoteOnEvent(tick=26420, channel=0, data=[67, 0]),\n",
       "   midi.NoteOnEvent(tick=26424, channel=0, data=[69, 99]),\n",
       "   midi.NoteOnEvent(tick=26448, channel=0, data=[67, 100]),\n",
       "   midi.NoteOnEvent(tick=26452, channel=0, data=[69, 0]),\n",
       "   midi.NoteOnEvent(tick=26456, channel=0, data=[59, 0]),\n",
       "   midi.NoteOnEvent(tick=26456, channel=0, data=[62, 0]),\n",
       "   midi.NoteOnEvent(tick=26460, channel=0, data=[67, 0]),\n",
       "   midi.NoteOnEvent(tick=26472, channel=0, data=[59, 90]),\n",
       "   midi.NoteOnEvent(tick=26476, channel=0, data=[50, 0]),\n",
       "   midi.NoteOnEvent(tick=26480, channel=0, data=[59, 0]),\n",
       "   midi.NoteOnEvent(tick=26484, channel=0, data=[55, 0]),\n",
       "   midi.ControlChangeEvent(tick=26496, channel=0, data=[64, 0]),\n",
       "   midi.NoteOnEvent(tick=26496, channel=0, data=[67, 114]),\n",
       "   midi.NoteOnEvent(tick=26496, channel=0, data=[64, 117]),\n",
       "   midi.NoteOnEvent(tick=26496, channel=0, data=[60, 114]),\n",
       "   midi.ControlChangeEvent(tick=26520, channel=0, data=[64, 127]),\n",
       "   midi.NoteOnEvent(tick=26544, channel=0, data=[55, 98]),\n",
       "   midi.NoteOnEvent(tick=26552, channel=0, data=[60, 0]),\n",
       "   midi.NoteOnEvent(tick=26552, channel=0, data=[67, 0]),\n",
       "   midi.NoteOnEvent(tick=26556, channel=0, data=[64, 0]),\n",
       "   midi.NoteOnEvent(tick=26568, channel=0, data=[67, 112]),\n",
       "   midi.NoteOnEvent(tick=26568, channel=0, data=[64, 108]),\n",
       "   midi.NoteOnEvent(tick=26568, channel=0, data=[60, 112]),\n",
       "   midi.NoteOnEvent(tick=26604, channel=0, data=[55, 0]),\n",
       "   midi.NoteOnEvent(tick=26612, channel=0, data=[60, 0]),\n",
       "   midi.NoteOnEvent(tick=26612, channel=0, data=[64, 0]),\n",
       "   midi.NoteOnEvent(tick=26616, channel=0, data=[55, 89]),\n",
       "   midi.NoteOnEvent(tick=26620, channel=0, data=[67, 0]),\n",
       "   midi.NoteOnEvent(tick=26640, channel=0, data=[67, 112]),\n",
       "   midi.NoteOnEvent(tick=26640, channel=0, data=[62, 114]),\n",
       "   midi.ControlChangeEvent(tick=26640, channel=0, data=[64, 0]),\n",
       "   midi.ControlChangeEvent(tick=26664, channel=0, data=[64, 127]),\n",
       "   midi.NoteOnEvent(tick=26688, channel=0, data=[50, 103]),\n",
       "   midi.NoteOnEvent(tick=26712, channel=0, data=[62, 0]),\n",
       "   midi.NoteOnEvent(tick=26736, channel=0, data=[62, 106]),\n",
       "   midi.NoteOnEvent(tick=26752, channel=0, data=[62, 0]),\n",
       "   midi.NoteOnEvent(tick=26760, channel=0, data=[67, 0]),\n",
       "   midi.NoteOnEvent(tick=26760, channel=0, data=[59, 102]),\n",
       "   midi.NoteOnEvent(tick=26780, channel=0, data=[55, 0]),\n",
       "   midi.NoteOnEvent(tick=26784, channel=0, data=[59, 0]),\n",
       "   midi.NoteOnEvent(tick=26784, channel=0, data=[55, 41]),\n",
       "   midi.NoteOnEvent(tick=26808, channel=0, data=[74, 127]),\n",
       "   midi.NoteOnEvent(tick=26812, channel=0, data=[55, 0]),\n",
       "   midi.NoteOnEvent(tick=26828, channel=0, data=[50, 0]),\n",
       "   midi.NoteOnEvent(tick=26832, channel=0, data=[74, 0]),\n",
       "   midi.NoteOnEvent(tick=26832, channel=0, data=[76, 108]),\n",
       "   midi.NoteOnEvent(tick=26832, channel=0, data=[59, 85]),\n",
       "   midi.NoteOnEvent(tick=26840, channel=0, data=[59, 0]),\n",
       "   midi.NoteOnEvent(tick=26856, channel=0, data=[79, 96]),\n",
       "   midi.NoteOnEvent(tick=26864, channel=0, data=[76, 0]),\n",
       "   midi.NoteOnEvent(tick=26868, channel=0, data=[79, 0]),\n",
       "   midi.ControlChangeEvent(tick=26880, channel=0, data=[64, 0]),\n",
       "   midi.NoteOnEvent(tick=26880, channel=0, data=[81, 103]),\n",
       "   midi.NoteOnEvent(tick=26880, channel=0, data=[72, 114]),\n",
       "   midi.NoteOnEvent(tick=26880, channel=0, data=[76, 117]),\n",
       "   midi.NoteOnEvent(tick=26880, channel=0, data=[64, 89]),\n",
       "   midi.NoteOnEvent(tick=26880, channel=0, data=[60, 87]),\n",
       "   midi.NoteOnEvent(tick=26880, channel=0, data=[57, 86]),\n",
       "   midi.NoteOnEvent(tick=26900, channel=0, data=[64, 0]),\n",
       "   midi.ControlChangeEvent(tick=26904, channel=0, data=[64, 127]),\n",
       "   midi.NoteOnEvent(tick=26928, channel=0, data=[64, 110]),\n",
       "   midi.NoteOnEvent(tick=26932, channel=0, data=[76, 0]),\n",
       "   midi.NoteOnEvent(tick=26932, channel=0, data=[81, 0]),\n",
       "   midi.NoteOnEvent(tick=26932, channel=0, data=[72, 0]),\n",
       "   midi.NoteOnEvent(tick=26952, channel=0, data=[79, 106]),\n",
       "   midi.NoteOnEvent(tick=26952, channel=0, data=[72, 119]),\n",
       "   midi.NoteOnEvent(tick=26952, channel=0, data=[74, 121]),\n",
       "   midi.NoteOnEvent(tick=26976, channel=0, data=[74, 0]),\n",
       "   midi.NoteOnEvent(tick=26976, channel=0, data=[60, 0]),\n",
       "   midi.NoteOnEvent(tick=26980, channel=0, data=[79, 0]),\n",
       "   midi.NoteOnEvent(tick=26980, channel=0, data=[57, 0]),\n",
       "   midi.NoteOnEvent(tick=26980, channel=0, data=[64, 0]),\n",
       "   midi.NoteOnEvent(tick=26980, channel=0, data=[72, 0]),\n",
       "   midi.ControlChangeEvent(tick=27024, channel=0, data=[64, 0]),\n",
       "   midi.NoteOnEvent(tick=27024, channel=0, data=[59, 89]),\n",
       "   midi.NoteOnEvent(tick=27024, channel=0, data=[74, 119]),\n",
       "   midi.NoteOnEvent(tick=27024, channel=0, data=[79, 105]),\n",
       "   midi.NoteOnEvent(tick=27024, channel=0, data=[71, 108]),\n",
       "   midi.NoteOnEvent(tick=27024, channel=0, data=[62, 90]),\n",
       "   midi.NoteOnEvent(tick=27024, channel=0, data=[55, 95]),\n",
       "   midi.NoteOnEvent(tick=27056, channel=0, data=[71, 0]),\n",
       "   midi.ControlChangeEvent(tick=27072, channel=0, data=[64, 127]),\n",
       "   midi.NoteOnEvent(tick=27072, channel=0, data=[71, 77]),\n",
       "   midi.NoteOnEvent(tick=27080, channel=0, data=[62, 0]),\n",
       "   midi.NoteOnEvent(tick=27132, channel=0, data=[79, 0]),\n",
       "   midi.NoteOnEvent(tick=27132, channel=0, data=[74, 0]),\n",
       "   midi.NoteOnEvent(tick=27140, channel=0, data=[71, 0]),\n",
       "   midi.NoteOnEvent(tick=27144, channel=0, data=[62, 106]),\n",
       "   midi.NoteOnEvent(tick=27168, channel=0, data=[76, 106]),\n",
       "   midi.NoteOnEvent(tick=27168, channel=0, data=[71, 106]),\n",
       "   midi.NoteOnEvent(tick=27168, channel=0, data=[67, 117]),\n",
       "   midi.NoteOnEvent(tick=27188, channel=0, data=[76, 0]),\n",
       "   midi.NoteOnEvent(tick=27192, channel=0, data=[71, 0]),\n",
       "   midi.NoteOnEvent(tick=27192, channel=0, data=[74, 99]),\n",
       "   midi.NoteOnEvent(tick=27212, channel=0, data=[74, 0]),\n",
       "   midi.NoteOnEvent(tick=27216, channel=0, data=[62, 0]),\n",
       "   midi.NoteOnEvent(tick=27216, channel=0, data=[71, 95]),\n",
       "   midi.NoteOnEvent(tick=27240, channel=0, data=[67, 0]),\n",
       "   midi.NoteOnEvent(tick=27240, channel=0, data=[62, 79]),\n",
       "   midi.NoteOnEvent(tick=27244, channel=0, data=[62, 0]),\n",
       "   midi.NoteOnEvent(tick=27244, channel=0, data=[71, 0]),\n",
       "   midi.NoteOnEvent(tick=27244, channel=0, data=[59, 0]),\n",
       "   midi.NoteOnEvent(tick=27244, channel=0, data=[55, 0]),\n",
       "   midi.ControlChangeEvent(tick=27264, channel=0, data=[64, 0]),\n",
       "   midi.NoteOnEvent(tick=27264, channel=0, data=[74, 117]),\n",
       "   midi.NoteOnEvent(tick=27264, channel=0, data=[67, 117]),\n",
       "   midi.NoteOnEvent(tick=27264, channel=0, data=[71, 106]),\n",
       "   midi.NoteOnEvent(tick=27264, channel=0, data=[59, 99]),\n",
       "   midi.NoteOnEvent(tick=27264, channel=0, data=[55, 96]),\n",
       "   midi.NoteOnEvent(tick=27264, channel=0, data=[52, 86]),\n",
       "   midi.ControlChangeEvent(tick=27288, channel=0, data=[64, 127]),\n",
       "   midi.NoteOnEvent(tick=27292, channel=0, data=[59, 0]),\n",
       "   midi.NoteOnEvent(tick=27312, channel=0, data=[59, 100]),\n",
       "   midi.NoteOnEvent(tick=27320, channel=0, data=[71, 0]),\n",
       "   midi.NoteOnEvent(tick=27320, channel=0, data=[74, 0]),\n",
       "   midi.NoteOnEvent(tick=27320, channel=0, data=[67, 0]),\n",
       "   midi.NoteOnEvent(tick=27336, channel=0, data=[71, 105]),\n",
       "   midi.NoteOnEvent(tick=27336, channel=0, data=[67, 114]),\n",
       "   midi.NoteOnEvent(tick=27336, channel=0, data=[74, 114]),\n",
       "   midi.NoteOnEvent(tick=27356, channel=0, data=[74, 0]),\n",
       "   midi.NoteOnEvent(tick=27356, channel=0, data=[71, 0]),\n",
       "   midi.NoteOnEvent(tick=27356, channel=0, data=[67, 0]),\n",
       "   midi.NoteOnEvent(tick=27364, channel=0, data=[59, 0]),\n",
       "   midi.NoteOnEvent(tick=27380, channel=0, data=[52, 0]),\n",
       "   midi.NoteOnEvent(tick=27388, channel=0, data=[55, 0]),\n",
       "   midi.ControlChangeEvent(tick=27408, channel=0, data=[64, 0]),\n",
       "   midi.NoteOnEvent(tick=27408, channel=0, data=[69, 110]),\n",
       "   midi.NoteOnEvent(tick=27408, channel=0, data=[74, 108]),\n",
       "   midi.NoteOnEvent(tick=27408, channel=0, data=[66, 104]),\n",
       "   midi.NoteOnEvent(tick=27408, channel=0, data=[57, 96]),\n",
       "   midi.NoteOnEvent(tick=27408, channel=0, data=[50, 92]),\n",
       "   midi.ControlChangeEvent(tick=27456, channel=0, data=[64, 127]),\n",
       "   midi.NoteOnEvent(tick=27504, channel=0, data=[62, 102]),\n",
       "   midi.NoteOnEvent(tick=27512, channel=0, data=[62, 0]),\n",
       "   midi.NoteOnEvent(tick=27524, channel=0, data=[74, 0]),\n",
       "   midi.NoteOnEvent(tick=27524, channel=0, data=[66, 0]),\n",
       "   midi.NoteOnEvent(tick=27528, channel=0, data=[69, 0]),\n",
       "   midi.NoteOnEvent(tick=27528, channel=0, data=[62, 106]),\n",
       "   midi.NoteOnEvent(tick=27552, channel=0, data=[71, 86]),\n",
       "   midi.NoteOnEvent(tick=27552, channel=0, data=[74, 96]),\n",
       "   midi.NoteOnEvent(tick=27552, channel=0, data=[66, 99]),\n",
       "   midi.NoteOnEvent(tick=27564, channel=0, data=[66, 0]),\n",
       "   midi.NoteOnEvent(tick=27568, channel=0, data=[74, 0]),\n",
       "   midi.NoteOnEvent(tick=27572, channel=0, data=[71, 0]),\n",
       "   midi.NoteOnEvent(tick=27576, channel=0, data=[74, 91]),\n",
       "   midi.NoteOnEvent(tick=27576, channel=0, data=[69, 96]),\n",
       "   midi.NoteOnEvent(tick=27576, channel=0, data=[66, 86]),\n",
       "   midi.NoteOnEvent(tick=27584, channel=0, data=[62, 0]),\n",
       "   midi.NoteOnEvent(tick=27596, channel=0, data=[69, 0]),\n",
       "   midi.NoteOnEvent(tick=27596, channel=0, data=[74, 0]),\n",
       "   midi.NoteOnEvent(tick=27600, channel=0, data=[66, 0]),\n",
       "   midi.NoteOnEvent(tick=27600, channel=0, data=[62, 89]),\n",
       "   midi.NoteOnEvent(tick=27608, channel=0, data=[62, 0]),\n",
       "   midi.NoteOnEvent(tick=27624, channel=0, data=[50, 0]),\n",
       "   midi.NoteOnEvent(tick=27624, channel=0, data=[62, 89]),\n",
       "   midi.ControlChangeEvent(tick=27624, channel=0, data=[64, 0]),\n",
       "   midi.NoteOnEvent(tick=27628, channel=0, data=[57, 0]),\n",
       "   midi.NoteOnEvent(tick=27632, channel=0, data=[62, 0]),\n",
       "   midi.NoteOnEvent(tick=27648, channel=0, data=[57, 86]),\n",
       "   midi.NoteOnEvent(tick=27648, channel=0, data=[69, 96]),\n",
       "   midi.NoteOnEvent(tick=27648, channel=0, data=[72, 108]),\n",
       "   midi.NoteOnEvent(tick=27648, channel=0, data=[64, 102]),\n",
       "   midi.NoteOnEvent(tick=27648, channel=0, data=[52, 89]),\n",
       "   midi.NoteOnEvent(tick=27648, channel=0, data=[60, 84]),\n",
       "   midi.ControlChangeEvent(tick=27648, channel=0, data=[64, 127]),\n",
       "   midi.NoteOnEvent(tick=27664, channel=0, data=[60, 0]),\n",
       "   midi.NoteOnEvent(tick=27696, channel=0, data=[60, 82]),\n",
       "   midi.NoteOnEvent(tick=27700, channel=0, data=[72, 0]),\n",
       "   midi.NoteOnEvent(tick=27704, channel=0, data=[64, 0]),\n",
       "   midi.NoteOnEvent(tick=27704, channel=0, data=[69, 0]),\n",
       "   midi.NoteOnEvent(tick=27720, channel=0, data=[72, 106]),\n",
       "   midi.NoteOnEvent(tick=27720, channel=0, data=[64, 112]),\n",
       "   midi.NoteOnEvent(tick=27720, channel=0, data=[69, 112]),\n",
       "   midi.NoteOnEvent(tick=27744, channel=0, data=[60, 0]),\n",
       "   midi.NoteOnEvent(tick=27760, channel=0, data=[72, 0]),\n",
       "   midi.NoteOnEvent(tick=27760, channel=0, data=[69, 0]),\n",
       "   midi.NoteOnEvent(tick=27764, channel=0, data=[52, 0]),\n",
       "   midi.NoteOnEvent(tick=27764, channel=0, data=[64, 0]),\n",
       "   midi.NoteOnEvent(tick=27776, channel=0, data=[57, 0]),\n",
       "   midi.ControlChangeEvent(tick=27792, channel=0, data=[64, 0]),\n",
       "   midi.NoteOnEvent(tick=27792, channel=0, data=[71, 99]),\n",
       "   midi.NoteOnEvent(tick=27792, channel=0, data=[67, 103]),\n",
       "   midi.NoteOnEvent(tick=27792, channel=0, data=[62, 105]),\n",
       "   midi.NoteOnEvent(tick=27792, channel=0, data=[55, 99]),\n",
       "   midi.NoteOnEvent(tick=27792, channel=0, data=[59, 96]),\n",
       "   midi.NoteOnEvent(tick=27792, channel=0, data=[50, 91]),\n",
       "   midi.NoteOnEvent(tick=27820, channel=0, data=[62, 0]),\n",
       "   midi.ControlChangeEvent(tick=27840, channel=0, data=[64, 127]),\n",
       "   midi.NoteOnEvent(tick=27840, channel=0, data=[62, 72]),\n",
       "   midi.NoteOnEvent(tick=27848, channel=0, data=[59, 0]),\n",
       "   midi.NoteOnEvent(tick=27888, channel=0, data=[59, 63]),\n",
       "   midi.NoteOnEvent(tick=27892, channel=0, data=[59, 0]),\n",
       "   midi.NoteOnEvent(tick=27912, channel=0, data=[62, 0]),\n",
       "   midi.NoteOnEvent(tick=27912, channel=0, data=[59, 98]),\n",
       "   midi.NoteOnEvent(tick=27916, channel=0, data=[71, 0]),\n",
       "   midi.NoteOnEvent(tick=27916, channel=0, data=[67, 0]),\n",
       "   midi.NoteOnEvent(tick=27936, channel=0, data=[67, 105]),\n",
       "   midi.NoteOnEvent(tick=27936, channel=0, data=[71, 102]),\n",
       "   midi.NoteOnEvent(tick=27936, channel=0, data=[62, 110]),\n",
       "   midi.NoteOnEvent(tick=27956, channel=0, data=[71, 0]),\n",
       "   midi.NoteOnEvent(tick=27956, channel=0, data=[67, 0]),\n",
       "   midi.NoteOnEvent(tick=27960, channel=0, data=[69, 99]),\n",
       "   midi.NoteOnEvent(tick=27984, channel=0, data=[67, 100]),\n",
       "   midi.NoteOnEvent(tick=27988, channel=0, data=[69, 0]),\n",
       "   midi.NoteOnEvent(tick=27992, channel=0, data=[59, 0]),\n",
       "   midi.NoteOnEvent(tick=27992, channel=0, data=[62, 0]),\n",
       "   midi.NoteOnEvent(tick=27996, channel=0, data=[67, 0]),\n",
       "   midi.NoteOnEvent(tick=28008, channel=0, data=[59, 90]),\n",
       "   midi.NoteOnEvent(tick=28012, channel=0, data=[50, 0]),\n",
       "   midi.NoteOnEvent(tick=28016, channel=0, data=[59, 0]),\n",
       "   midi.NoteOnEvent(tick=28020, channel=0, data=[55, 0]),\n",
       "   midi.ControlChangeEvent(tick=28032, channel=0, data=[64, 0]),\n",
       "   midi.NoteOnEvent(tick=28032, channel=0, data=[67, 114]),\n",
       "   midi.NoteOnEvent(tick=28032, channel=0, data=[64, 117]),\n",
       "   midi.NoteOnEvent(tick=28032, channel=0, data=[60, 114]),\n",
       "   midi.ControlChangeEvent(tick=28056, channel=0, data=[64, 127]),\n",
       "   midi.NoteOnEvent(tick=28080, channel=0, data=[55, 98]),\n",
       "   midi.NoteOnEvent(tick=28088, channel=0, data=[60, 0]),\n",
       "   midi.NoteOnEvent(tick=28088, channel=0, data=[67, 0]),\n",
       "   midi.NoteOnEvent(tick=28092, channel=0, data=[64, 0]),\n",
       "   midi.NoteOnEvent(tick=28104, channel=0, data=[67, 112]),\n",
       "   midi.NoteOnEvent(tick=28104, channel=0, data=[64, 108]),\n",
       "   midi.NoteOnEvent(tick=28104, channel=0, data=[60, 112]),\n",
       "   midi.NoteOnEvent(tick=28140, channel=0, data=[55, 0]),\n",
       "   midi.NoteOnEvent(tick=28148, channel=0, data=[60, 0]),\n",
       "   midi.NoteOnEvent(tick=28148, channel=0, data=[64, 0]),\n",
       "   midi.NoteOnEvent(tick=28152, channel=0, data=[55, 89]),\n",
       "   midi.NoteOnEvent(tick=28156, channel=0, data=[67, 0]),\n",
       "   midi.NoteOnEvent(tick=28176, channel=0, data=[67, 112]),\n",
       "   midi.NoteOnEvent(tick=28176, channel=0, data=[62, 114]),\n",
       "   midi.ControlChangeEvent(tick=28176, channel=0, data=[64, 0]),\n",
       "   midi.ControlChangeEvent(tick=28200, channel=0, data=[64, 127]),\n",
       "   midi.NoteOnEvent(tick=28224, channel=0, data=[50, 103]),\n",
       "   midi.NoteOnEvent(tick=28248, channel=0, data=[62, 0]),\n",
       "   midi.NoteOnEvent(tick=28272, channel=0, data=[62, 106]),\n",
       "   midi.NoteOnEvent(tick=28288, channel=0, data=[62, 0]),\n",
       "   midi.NoteOnEvent(tick=28296, channel=0, data=[67, 0]),\n",
       "   midi.NoteOnEvent(tick=28296, channel=0, data=[59, 102]),\n",
       "   midi.NoteOnEvent(tick=28316, channel=0, data=[55, 0]),\n",
       "   midi.NoteOnEvent(tick=28320, channel=0, data=[59, 0]),\n",
       "   midi.NoteOnEvent(tick=28320, channel=0, data=[55, 41]),\n",
       "   midi.NoteOnEvent(tick=28344, channel=0, data=[74, 127]),\n",
       "   midi.NoteOnEvent(tick=28348, channel=0, data=[55, 0]),\n",
       "   midi.NoteOnEvent(tick=28364, channel=0, data=[50, 0]),\n",
       "   midi.NoteOnEvent(tick=28368, channel=0, data=[74, 0]),\n",
       "   midi.NoteOnEvent(tick=28368, channel=0, data=[76, 108]),\n",
       "   midi.NoteOnEvent(tick=28368, channel=0, data=[59, 85]),\n",
       "   midi.NoteOnEvent(tick=28376, channel=0, data=[59, 0]),\n",
       "   midi.NoteOnEvent(tick=28392, channel=0, data=[79, 96]),\n",
       "   midi.NoteOnEvent(tick=28400, channel=0, data=[76, 0]),\n",
       "   midi.NoteOnEvent(tick=28404, channel=0, data=[79, 0]),\n",
       "   midi.ControlChangeEvent(tick=28416, channel=0, data=[64, 0]),\n",
       "   midi.NoteOnEvent(tick=28416, channel=0, data=[76, 96]),\n",
       "   midi.NoteOnEvent(tick=28416, channel=0, data=[81, 106]),\n",
       "   midi.NoteOnEvent(tick=28416, channel=0, data=[60, 78]),\n",
       "   midi.NoteOnEvent(tick=28416, channel=0, data=[64, 84]),\n",
       "   midi.NoteOnEvent(tick=28416, channel=0, data=[72, 108]),\n",
       "   midi.NoteOnEvent(tick=28416, channel=0, data=[57, 89]),\n",
       "   midi.ControlChangeEvent(tick=28416, channel=0, data=[64, 127]),\n",
       "   midi.NoteOnEvent(tick=28440, channel=0, data=[64, 0]),\n",
       "   midi.NoteOnEvent(tick=28464, channel=0, data=[72, 0]),\n",
       "   midi.NoteOnEvent(tick=28464, channel=0, data=[81, 0]),\n",
       "   midi.NoteOnEvent(tick=28464, channel=0, data=[76, 0]),\n",
       "   midi.NoteOnEvent(tick=28464, channel=0, data=[64, 102]),\n",
       "   midi.NoteOnEvent(tick=28488, channel=0, data=[76, 103]),\n",
       "   midi.NoteOnEvent(tick=28488, channel=0, data=[81, 105]),\n",
       "   midi.NoteOnEvent(tick=28488, channel=0, data=[72, 105]),\n",
       "   midi.NoteOnEvent(tick=28512, channel=0, data=[81, 0]),\n",
       "   midi.NoteOnEvent(tick=28516, channel=0, data=[57, 0]),\n",
       "   midi.NoteOnEvent(tick=28516, channel=0, data=[60, 0]),\n",
       "   midi.NoteOnEvent(tick=28520, channel=0, data=[76, 0]),\n",
       "   midi.NoteOnEvent(tick=28524, channel=0, data=[72, 0]),\n",
       "   midi.NoteOnEvent(tick=28524, channel=0, data=[64, 0]),\n",
       "   midi.NoteOnEvent(tick=28560, channel=0, data=[79, 99]),\n",
       "   midi.NoteOnEvent(tick=28560, channel=0, data=[74, 112]),\n",
       "   midi.NoteOnEvent(tick=28560, channel=0, data=[71, 106]),\n",
       "   midi.NoteOnEvent(tick=28560, channel=0, data=[59, 82]),\n",
       "   midi.ControlChangeEvent(tick=28560, channel=0, data=[64, 0]),\n",
       "   midi.NoteOnEvent(tick=28560, channel=0, data=[62, 86]),\n",
       "   midi.NoteOnEvent(tick=28560, channel=0, data=[55, 93]),\n",
       "   midi.ControlChangeEvent(tick=28608, channel=0, data=[64, 127]),\n",
       "   midi.NoteOnEvent(tick=28620, channel=0, data=[62, 0]),\n",
       "   midi.NoteOnEvent(tick=28656, channel=0, data=[62, 88]),\n",
       "   midi.NoteOnEvent(tick=28664, channel=0, data=[79, 0]),\n",
       "   midi.NoteOnEvent(tick=28668, channel=0, data=[74, 0]),\n",
       "   midi.NoteOnEvent(tick=28668, channel=0, data=[71, 0]),\n",
       "   midi.NoteOnEvent(tick=28672, channel=0, data=[62, 0]),\n",
       "   midi.NoteOnEvent(tick=28680, channel=0, data=[62, 93]),\n",
       "   midi.NoteOnEvent(tick=28704, channel=0, data=[76, 96]),\n",
       "   midi.NoteOnEvent(tick=28704, channel=0, data=[71, 94]),\n",
       "   midi.NoteOnEvent(tick=28704, channel=0, data=[67, 99]),\n",
       "   midi.NoteOnEvent(tick=28720, channel=0, data=[76, 0]),\n",
       "   midi.NoteOnEvent(tick=28728, channel=0, data=[74, 102]),\n",
       "   midi.NoteOnEvent(tick=28732, channel=0, data=[71, 0]),\n",
       "   midi.NoteOnEvent(tick=28740, channel=0, data=[67, 0]),\n",
       "   midi.NoteOnEvent(tick=28748, channel=0, data=[62, 0]),\n",
       "   midi.NoteOnEvent(tick=28752, channel=0, data=[55, 0]),\n",
       "   midi.NoteOnEvent(tick=28752, channel=0, data=[71, 103]),\n",
       "   midi.NoteOnEvent(tick=28760, channel=0, data=[59, 0]),\n",
       "   midi.NoteOnEvent(tick=28776, channel=0, data=[67, 73]),\n",
       "   midi.NoteOnEvent(tick=28780, channel=0, data=[67, 0]),\n",
       "   midi.NoteOnEvent(tick=28780, channel=0, data=[71, 0]),\n",
       "   midi.NoteOnEvent(tick=28780, channel=0, data=[74, 0]),\n",
       "   midi.ControlChangeEvent(tick=28800, channel=0, data=[64, 0]),\n",
       "   midi.NoteOnEvent(tick=28800, channel=0, data=[74, 110]),\n",
       "   midi.NoteOnEvent(tick=28800, channel=0, data=[67, 103]),\n",
       "   midi.NoteOnEvent(tick=28800, channel=0, data=[55, 90]),\n",
       "   midi.NoteOnEvent(tick=28800, channel=0, data=[71, 100]),\n",
       "   midi.NoteOnEvent(tick=28800, channel=0, data=[59, 86]),\n",
       "   midi.NoteOnEvent(tick=28800, channel=0, data=[52, 82]),\n",
       "   midi.ControlChangeEvent(tick=28800, channel=0, data=[64, 127]),\n",
       "   midi.NoteOnEvent(tick=28828, channel=0, data=[59, 0]),\n",
       "   midi.NoteOnEvent(tick=28848, channel=0, data=[59, 93]),\n",
       "   midi.NoteOnEvent(tick=28852, channel=0, data=[71, 0]),\n",
       "   midi.NoteOnEvent(tick=28852, channel=0, data=[74, 0]),\n",
       "   midi.NoteOnEvent(tick=28852, channel=0, data=[67, 0]),\n",
       "   midi.NoteOnEvent(tick=28872, channel=0, data=[74, 112]),\n",
       "   midi.NoteOnEvent(tick=28872, channel=0, data=[71, 106]),\n",
       "   midi.NoteOnEvent(tick=28872, channel=0, data=[67, 106]),\n",
       "   midi.NoteOnEvent(tick=28892, channel=0, data=[67, 0]),\n",
       "   midi.NoteOnEvent(tick=28892, channel=0, data=[74, 0]),\n",
       "   midi.NoteOnEvent(tick=28892, channel=0, data=[71, 0]),\n",
       "   midi.NoteOnEvent(tick=28904, channel=0, data=[59, 0]),\n",
       "   midi.NoteOnEvent(tick=28920, channel=0, data=[52, 0]),\n",
       "   midi.NoteOnEvent(tick=28920, channel=0, data=[59, 70]),\n",
       "   midi.NoteOnEvent(tick=28924, channel=0, data=[59, 0]),\n",
       "   midi.NoteOnEvent(tick=28928, channel=0, data=[55, 0]),\n",
       "   midi.ControlChangeEvent(tick=28944, channel=0, data=[64, 0]),\n",
       "   midi.NoteOnEvent(tick=28944, channel=0, data=[69, 119]),\n",
       "   midi.NoteOnEvent(tick=28944, channel=0, data=[74, 112]),\n",
       "   midi.NoteOnEvent(tick=28944, channel=0, data=[57, 95]),\n",
       "   midi.NoteOnEvent(tick=28944, channel=0, data=[50, 90]),\n",
       "   midi.ControlChangeEvent(tick=28944, channel=0, data=[64, 127]),\n",
       "   midi.NoteOnEvent(tick=28992, channel=0, data=[62, 63]),\n",
       "   midi.NoteOnEvent(tick=28996, channel=0, data=[62, 0]),\n",
       "   midi.NoteOnEvent(tick=29016, channel=0, data=[74, 0]),\n",
       "   midi.NoteOnEvent(tick=29016, channel=0, data=[62, 106]),\n",
       "   midi.NoteOnEvent(tick=29020, channel=0, data=[69, 0]),\n",
       "   midi.NoteOnEvent(tick=29040, channel=0, data=[69, 124]),\n",
       "   midi.NoteOnEvent(tick=29040, channel=0, data=[74, 110]),\n",
       "   midi.NoteOnEvent(tick=29064, channel=0, data=[69, 0]),\n",
       "   midi.NoteOnEvent(tick=29064, channel=0, data=[71, 92]),\n",
       "   midi.NoteOnEvent(tick=29068, channel=0, data=[74, 0]),\n",
       "   midi.NoteOnEvent(tick=29072, channel=0, data=[71, 0]),\n",
       "   midi.NoteOnEvent(tick=29088, channel=0, data=[69, 124]),\n",
       "   midi.NoteOnEvent(tick=29088, channel=0, data=[74, 99]),\n",
       "   midi.NoteOnEvent(tick=29108, channel=0, data=[69, 0]),\n",
       "   midi.NoteOnEvent(tick=29112, channel=0, data=[67, 99]),\n",
       "   midi.NoteOnEvent(tick=29116, channel=0, data=[62, 0]),\n",
       "   midi.NoteOnEvent(tick=29136, channel=0, data=[74, 0]),\n",
       "   midi.NoteOnEvent(tick=29136, channel=0, data=[62, 98]),\n",
       "   midi.NoteOnEvent(tick=29140, channel=0, data=[67, 0]),\n",
       "   midi.NoteOnEvent(tick=29160, channel=0, data=[50, 0]),\n",
       "   midi.NoteOnEvent(tick=29164, channel=0, data=[62, 0]),\n",
       "   midi.NoteOnEvent(tick=29172, channel=0, data=[57, 0]),\n",
       "   midi.ControlChangeEvent(tick=29184, channel=0, data=[64, 0]),\n",
       "   midi.NoteOnEvent(tick=29184, channel=0, data=[57, 86]),\n",
       "   midi.NoteOnEvent(tick=29184, channel=0, data=[69, 112]),\n",
       "   midi.NoteOnEvent(tick=29184, channel=0, data=[72, 110]),\n",
       "   midi.NoteOnEvent(tick=29184, channel=0, data=[64, 112]),\n",
       "   midi.NoteOnEvent(tick=29184, channel=0, data=[52, 94]),\n",
       "   midi.NoteOnEvent(tick=29184, channel=0, data=[60, 95]),\n",
       "   midi.ControlChangeEvent(tick=29184, channel=0, data=[64, 127]),\n",
       "   midi.NoteOnEvent(tick=29204, channel=0, data=[60, 0]),\n",
       "   midi.NoteOnEvent(tick=29232, channel=0, data=[72, 0]),\n",
       "   midi.NoteOnEvent(tick=29232, channel=0, data=[64, 0]),\n",
       "   midi.NoteOnEvent(tick=29232, channel=0, data=[60, 94]),\n",
       "   midi.NoteOnEvent(tick=29236, channel=0, data=[69, 0]),\n",
       "   midi.NoteOnEvent(tick=29256, channel=0, data=[72, 112]),\n",
       "   midi.NoteOnEvent(tick=29256, channel=0, data=[64, 110]),\n",
       "   midi.NoteOnEvent(tick=29256, channel=0, data=[69, 114]),\n",
       "   midi.NoteOnEvent(tick=29276, channel=0, data=[60, 0]),\n",
       "   midi.NoteOnEvent(tick=29296, channel=0, data=[72, 0]),\n",
       "   midi.NoteOnEvent(tick=29300, channel=0, data=[64, 0]),\n",
       "   midi.NoteOnEvent(tick=29304, channel=0, data=[52, 0]),\n",
       "   midi.NoteOnEvent(tick=29304, channel=0, data=[69, 0]),\n",
       "   midi.NoteOnEvent(tick=29312, channel=0, data=[57, 0]),\n",
       "   midi.ControlChangeEvent(tick=29328, channel=0, data=[64, 0]),\n",
       "   midi.NoteOnEvent(tick=29328, channel=0, data=[71, 99]),\n",
       "   midi.NoteOnEvent(tick=29328, channel=0, data=[67, 110]),\n",
       "   midi.NoteOnEvent(tick=29328, channel=0, data=[62, 110]),\n",
       "   midi.NoteOnEvent(tick=29328, channel=0, data=[55, 99]),\n",
       "   midi.NoteOnEvent(tick=29328, channel=0, data=[59, 100]),\n",
       "   midi.NoteOnEvent(tick=29328, channel=0, data=[50, 93]),\n",
       "   midi.NoteOnEvent(tick=29360, channel=0, data=[62, 0]),\n",
       "   midi.ControlChangeEvent(tick=29376, channel=0, data=[64, 127]),\n",
       "   midi.NoteOnEvent(tick=29376, channel=0, data=[62, 59]),\n",
       "   midi.NoteOnEvent(tick=29380, channel=0, data=[59, 0]),\n",
       "   midi.NoteOnEvent(tick=29416, channel=0, data=[62, 0]),\n",
       "   midi.NoteOnEvent(tick=29424, channel=0, data=[59, 100]),\n",
       "   midi.NoteOnEvent(tick=29440, channel=0, data=[59, 0]),\n",
       "   midi.NoteOnEvent(tick=29448, channel=0, data=[59, 99]),\n",
       "   midi.NoteOnEvent(tick=29452, channel=0, data=[71, 0]),\n",
       "   midi.NoteOnEvent(tick=29456, channel=0, data=[67, 0]),\n",
       "   midi.NoteOnEvent(tick=29472, channel=0, data=[67, 117]),\n",
       "   midi.NoteOnEvent(tick=29472, channel=0, data=[71, 105]),\n",
       "   midi.NoteOnEvent(tick=29472, channel=0, data=[62, 112]),\n",
       "   midi.NoteOnEvent(tick=29492, channel=0, data=[71, 0]),\n",
       "   midi.NoteOnEvent(tick=29492, channel=0, data=[67, 0]),\n",
       "   midi.NoteOnEvent(tick=29496, channel=0, data=[69, 93]),\n",
       "   midi.NoteOnEvent(tick=29508, channel=0, data=[62, 0]),\n",
       "   midi.NoteOnEvent(tick=29516, channel=0, data=[69, 0]),\n",
       "   midi.NoteOnEvent(tick=29520, channel=0, data=[67, 110]),\n",
       "   midi.NoteOnEvent(tick=29520, channel=0, data=[62, 95]),\n",
       "   midi.NoteOnEvent(tick=29520, channel=0, data=[69, 82]),\n",
       "   midi.NoteOnEvent(tick=29521, channel=0, data=[69, 0]),\n",
       "   midi.NoteOnEvent(tick=29532, channel=0, data=[59, 0]),\n",
       "   midi.NoteOnEvent(tick=29532, channel=0, data=[67, 0]),\n",
       "   midi.NoteOnEvent(tick=29536, channel=0, data=[62, 0]),\n",
       "   midi.NoteOnEvent(tick=29544, channel=0, data=[59, 84]),\n",
       "   midi.NoteOnEvent(tick=29544, channel=0, data=[64, 70]),\n",
       "   midi.NoteOnEvent(tick=29548, channel=0, data=[64, 0]),\n",
       "   midi.NoteOnEvent(tick=29548, channel=0, data=[50, 0]),\n",
       "   midi.NoteOnEvent(tick=29552, channel=0, data=[59, 0]),\n",
       "   midi.NoteOnEvent(tick=29556, channel=0, data=[55, 0]),\n",
       "   midi.ControlChangeEvent(tick=29568, channel=0, data=[64, 0]),\n",
       "   midi.NoteOnEvent(tick=29568, channel=0, data=[69, 105]),\n",
       "   midi.NoteOnEvent(tick=29568, channel=0, data=[64, 110]),\n",
       "   midi.NoteOnEvent(tick=29568, channel=0, data=[60, 106]),\n",
       "   midi.NoteOnEvent(tick=29568, channel=0, data=[55, 92]),\n",
       "   midi.NoteOnEvent(tick=29568, channel=0, data=[48, 100]),\n",
       "   midi.ControlChangeEvent(tick=29592, channel=0, data=[64, 127]),\n",
       "   midi.NoteOnEvent(tick=29616, channel=0, data=[60, 0]),\n",
       "   midi.NoteOnEvent(tick=29620, channel=0, data=[69, 0]),\n",
       "   midi.NoteOnEvent(tick=29620, channel=0, data=[64, 0]),\n",
       "   midi.NoteOnEvent(tick=29640, channel=0, data=[64, 117]),\n",
       "   midi.NoteOnEvent(tick=29640, channel=0, data=[67, 117]),\n",
       "   midi.NoteOnEvent(tick=29640, channel=0, data=[60, 110]),\n",
       "   midi.NoteOnEvent(tick=29668, channel=0, data=[60, 0]),\n",
       "   midi.NoteOnEvent(tick=29688, channel=0, data=[60, 103]),\n",
       "   midi.NoteOnEvent(tick=29692, channel=0, data=[64, 0]),\n",
       "   midi.NoteOnEvent(tick=29712, channel=0, data=[64, 105]),\n",
       "   midi.NoteOnEvent(tick=29716, channel=0, data=[60, 0]),\n",
       "   midi.NoteOnEvent(tick=29732, channel=0, data=[48, 0]),\n",
       "   midi.NoteOnEvent(tick=29736, channel=0, data=[60, 87]),\n",
       "   midi.NoteOnEvent(tick=29744, channel=0, data=[60, 0]),\n",
       "   midi.NoteOnEvent(tick=29744, channel=0, data=[64, 0]),\n",
       "   midi.NoteOnEvent(tick=29744, channel=0, data=[67, 0]),\n",
       "   midi.NoteOnEvent(tick=29752, channel=0, data=[55, 0]),\n",
       "   midi.ControlChangeEvent(tick=29760, channel=0, data=[64, 0]),\n",
       "   midi.NoteOnEvent(tick=29760, channel=0, data=[55, 85]),\n",
       "   midi.NoteOnEvent(tick=29760, channel=0, data=[59, 92]),\n",
       "   midi.NoteOnEvent(tick=29760, channel=0, data=[67, 99]),\n",
       "   midi.NoteOnEvent(tick=29760, channel=0, data=[71, 94]),\n",
       "   midi.NoteOnEvent(tick=29760, channel=0, data=[50, 98]),\n",
       "   midi.NoteOnEvent(tick=29760, channel=0, data=[62, 117]),\n",
       "   midi.ControlChangeEvent(tick=29760, channel=0, data=[64, 127]),\n",
       "   midi.NoteOnEvent(tick=29776, channel=0, data=[62, 0]),\n",
       "   midi.NoteOnEvent(tick=29808, channel=0, data=[62, 99]),\n",
       "   midi.NoteOnEvent(tick=29812, channel=0, data=[59, 0]),\n",
       "   midi.NoteOnEvent(tick=29828, channel=0, data=[71, 0]),\n",
       "   midi.NoteOnEvent(tick=29832, channel=0, data=[59, 75]),\n",
       "   midi.NoteOnEvent(tick=29836, channel=0, data=[50, 0]),\n",
       "   midi.NoteOnEvent(tick=29836, channel=0, data=[67, 0]),\n",
       "   midi.NoteOnEvent(tick=29836, channel=0, data=[62, 0]),\n",
       "   midi.NoteOnEvent(tick=29840, channel=0, data=[55, 0]),\n",
       "   midi.NoteOnEvent(tick=29840, channel=0, data=[59, 0]),\n",
       "   midi.ControlChangeEvent(tick=29856, channel=0, data=[64, 0]),\n",
       "   midi.NoteOnEvent(tick=29856, channel=0, data=[57, 98]),\n",
       "   midi.NoteOnEvent(tick=29856, channel=0, data=[50, 93]),\n",
       "   midi.NoteOnEvent(tick=29856, channel=0, data=[69, 106]),\n",
       "   midi.NoteOnEvent(tick=29856, channel=0, data=[66, 101]),\n",
       "   midi.NoteOnEvent(tick=29856, channel=0, data=[62, 105]),\n",
       "   midi.ControlChangeEvent(tick=29856, channel=0, data=[64, 127]),\n",
       "   midi.NoteOnEvent(tick=29876, channel=0, data=[62, 0]),\n",
       "   midi.NoteOnEvent(tick=29904, channel=0, data=[62, 89]),\n",
       "   midi.NoteOnEvent(tick=29912, channel=0, data=[62, 0]),\n",
       "   midi.NoteOnEvent(tick=29912, channel=0, data=[50, 0]),\n",
       "   midi.NoteOnEvent(tick=29912, channel=0, data=[57, 0]),\n",
       "   midi.NoteOnEvent(tick=29916, channel=0, data=[69, 0]),\n",
       "   midi.NoteOnEvent(tick=29916, channel=0, data=[66, 0]),\n",
       "   midi.NoteOnEvent(tick=29952, channel=0, data=[69, 87]),\n",
       "   midi.NoteOnEvent(tick=29952, channel=0, data=[57, 85]),\n",
       "   midi.NoteOnEvent(tick=29952, channel=0, data=[72, 93]),\n",
       "   midi.NoteOnEvent(tick=29952, channel=0, data=[52, 82]),\n",
       "   midi.NoteOnEvent(tick=29952, channel=0, data=[64, 89]),\n",
       "   midi.NoteOnEvent(tick=29952, channel=0, data=[60, 78]),\n",
       "   midi.NoteOnEvent(tick=30060, channel=0, data=[60, 0]),\n",
       "   midi.NoteOnEvent(tick=30064, channel=0, data=[52, 0]),\n",
       "   midi.NoteOnEvent(tick=30068, channel=0, data=[72, 0]),\n",
       "   midi.NoteOnEvent(tick=30068, channel=0, data=[64, 0]),\n",
       "   midi.NoteOnEvent(tick=30068, channel=0, data=[57, 0]),\n",
       "   midi.NoteOnEvent(tick=30076, channel=0, data=[69, 0]),\n",
       "   midi.NoteOnEvent(tick=30096, channel=0, data=[67, 96]),\n",
       "   midi.NoteOnEvent(tick=30096, channel=0, data=[71, 91]),\n",
       "   midi.NoteOnEvent(tick=30096, channel=0, data=[62, 95]),\n",
       "   midi.NoteOnEvent(tick=30096, channel=0, data=[59, 80]),\n",
       "   midi.NoteOnEvent(tick=30096, channel=0, data=[55, 87]),\n",
       "   midi.NoteOnEvent(tick=30096, channel=0, data=[50, 86]),\n",
       "   midi.NoteOnEvent(tick=30216, channel=0, data=[50, 0]),\n",
       "   midi.NoteOnEvent(tick=30216, channel=0, data=[71, 0]),\n",
       "   midi.NoteOnEvent(tick=30220, channel=0, data=[59, 0]),\n",
       "   midi.NoteOnEvent(tick=30220, channel=0, data=[55, 0]),\n",
       "   midi.NoteOnEvent(tick=30220, channel=0, data=[62, 0]),\n",
       "   midi.NoteOnEvent(tick=30224, channel=0, data=[67, 0]),\n",
       "   midi.NoteOnEvent(tick=30240, channel=0, data=[69, 100]),\n",
       "   midi.NoteOnEvent(tick=30240, channel=0, data=[66, 91]),\n",
       "   midi.NoteOnEvent(tick=30240, channel=0, data=[62, 93]),\n",
       "   midi.NoteOnEvent(tick=30240, channel=0, data=[50, 87]),\n",
       "   midi.NoteOnEvent(tick=30240, channel=0, data=[57, 82]),\n",
       "   midi.NoteOnEvent(tick=30316, channel=0, data=[57, 0]),\n",
       "   midi.NoteOnEvent(tick=30316, channel=0, data=[62, 0]),\n",
       "   midi.NoteOnEvent(tick=30316, channel=0, data=[69, 0]),\n",
       "   midi.NoteOnEvent(tick=30316, channel=0, data=[66, 0]),\n",
       "   midi.NoteOnEvent(tick=30316, channel=0, data=[50, 0]),\n",
       "   midi.NoteOnEvent(tick=30336, channel=0, data=[67, 99]),\n",
       "   midi.NoteOnEvent(tick=30336, channel=0, data=[64, 99]),\n",
       "   midi.NoteOnEvent(tick=30336, channel=0, data=[60, 91]),\n",
       "   midi.NoteOnEvent(tick=30336, channel=0, data=[55, 91]),\n",
       "   midi.NoteOnEvent(tick=30336, channel=0, data=[48, 93]),\n",
       "   midi.NoteOnEvent(tick=30444, channel=0, data=[48, 0]),\n",
       "   midi.NoteOnEvent(tick=30448, channel=0, data=[60, 0]),\n",
       "   midi.NoteOnEvent(tick=30452, channel=0, data=[67, 0]),\n",
       "   midi.NoteOnEvent(tick=30452, channel=0, data=[64, 0]),\n",
       "   midi.NoteOnEvent(tick=30452, channel=0, data=[55, 0]),\n",
       "   midi.NoteOnEvent(tick=30480, channel=0, data=[67, 100]),\n",
       "   midi.NoteOnEvent(tick=30480, channel=0, data=[62, 102]),\n",
       "   midi.NoteOnEvent(tick=30480, channel=0, data=[59, 100]),\n",
       "   midi.NoteOnEvent(tick=30480, channel=0, data=[43, 87]),\n",
       "   midi.NoteOnEvent(tick=30480, channel=0, data=[55, 90]),\n",
       "   midi.NoteOnEvent(tick=30604, channel=0, data=[43, 0]),\n",
       "   midi.NoteOnEvent(tick=30604, channel=0, data=[59, 0]),\n",
       "   midi.NoteOnEvent(tick=30608, channel=0, data=[67, 0]),\n",
       "   midi.NoteOnEvent(tick=30608, channel=0, data=[62, 0]),\n",
       "   midi.NoteOnEvent(tick=30608, channel=0, data=[55, 0]),\n",
       "   midi.NoteOnEvent(tick=30624, channel=0, data=[62, 89]),\n",
       "   midi.NoteOnEvent(tick=30624, channel=0, data=[66, 93]),\n",
       "   midi.NoteOnEvent(tick=30624, channel=0, data=[57, 89]),\n",
       "   midi.NoteOnEvent(tick=30624, channel=0, data=[50, 95]),\n",
       "   midi.NoteOnEvent(tick=30676, channel=0, data=[50, 0]),\n",
       "   midi.NoteOnEvent(tick=30676, channel=0, data=[57, 0]),\n",
       "   midi.NoteOnEvent(tick=30680, channel=0, data=[66, 0]),\n",
       "   midi.NoteOnEvent(tick=30680, channel=0, data=[62, 0]),\n",
       "   midi.NoteOnEvent(tick=30720, channel=0, data=[69, 105]),\n",
       "   midi.NoteOnEvent(tick=30720, channel=0, data=[64, 98]),\n",
       "   midi.NoteOnEvent(tick=30720, channel=0, data=[72, 110]),\n",
       "   midi.NoteOnEvent(tick=30720, channel=0, data=[57, 90]),\n",
       "   midi.NoteOnEvent(tick=30720, channel=0, data=[60, 87]),\n",
       "   midi.NoteOnEvent(tick=30720, channel=0, data=[52, 86]),\n",
       "   midi.NoteOnEvent(tick=30836, channel=0, data=[52, 0]),\n",
       "   midi.NoteOnEvent(tick=30836, channel=0, data=[60, 0]),\n",
       "   midi.NoteOnEvent(tick=30844, channel=0, data=[69, 0]),\n",
       "   midi.NoteOnEvent(tick=30844, channel=0, data=[57, 0]),\n",
       "   midi.NoteOnEvent(tick=30848, channel=0, data=[72, 0]),\n",
       "   midi.NoteOnEvent(tick=30848, channel=0, data=[64, 0]),\n",
       "   midi.NoteOnEvent(tick=30864, channel=0, data=[62, 91]),\n",
       "   midi.NoteOnEvent(tick=30864, channel=0, data=[71, 94]),\n",
       "   midi.NoteOnEvent(tick=30864, channel=0, data=[67, 100]),\n",
       "   midi.NoteOnEvent(tick=30864, channel=0, data=[59, 88]),\n",
       "   midi.NoteOnEvent(tick=30864, channel=0, data=[50, 86]),\n",
       "   midi.NoteOnEvent(tick=30864, channel=0, data=[55, 87]),\n",
       "   midi.NoteOnEvent(tick=30984, channel=0, data=[55, 0]),\n",
       "   midi.NoteOnEvent(tick=30984, channel=0, data=[59, 0]),\n",
       "   midi.NoteOnEvent(tick=30984, channel=0, data=[71, 0]),\n",
       "   midi.NoteOnEvent(tick=30984, channel=0, data=[50, 0]),\n",
       "   midi.NoteOnEvent(tick=30988, channel=0, data=[62, 0]),\n",
       "   midi.NoteOnEvent(tick=30988, channel=0, data=[67, 0]),\n",
       "   midi.NoteOnEvent(tick=31008, channel=0, data=[69, 100]),\n",
       "   midi.NoteOnEvent(tick=31008, channel=0, data=[62, 96]),\n",
       "   midi.NoteOnEvent(tick=31008, channel=0, data=[66, 101]),\n",
       "   midi.NoteOnEvent(tick=31008, channel=0, data=[57, 86]),\n",
       "   midi.NoteOnEvent(tick=31008, channel=0, data=[50, 90]),\n",
       "   midi.NoteOnEvent(tick=31080, channel=0, data=[50, 0]),\n",
       "   midi.NoteOnEvent(tick=31080, channel=0, data=[57, 0]),\n",
       "   midi.NoteOnEvent(tick=31084, channel=0, data=[69, 0]),\n",
       "   midi.NoteOnEvent(tick=31084, channel=0, data=[62, 0]),\n",
       "   midi.NoteOnEvent(tick=31088, channel=0, data=[66, 0]),\n",
       "   midi.NoteOnEvent(tick=31104, channel=0, data=[64, 105]),\n",
       "   midi.NoteOnEvent(tick=31104, channel=0, data=[60, 98]),\n",
       "   midi.NoteOnEvent(tick=31104, channel=0, data=[67, 106]),\n",
       "   midi.NoteOnEvent(tick=31104, channel=0, data=[55, 92]),\n",
       "   midi.NoteOnEvent(tick=31104, channel=0, data=[48, 95]),\n",
       "   midi.NoteOnEvent(tick=31220, channel=0, data=[48, 0]),\n",
       "   midi.NoteOnEvent(tick=31224, channel=0, data=[67, 0]),\n",
       "   midi.NoteOnEvent(tick=31228, channel=0, data=[55, 0]),\n",
       "   midi.NoteOnEvent(tick=31228, channel=0, data=[60, 0]),\n",
       "   midi.NoteOnEvent(tick=31232, channel=0, data=[64, 0]),\n",
       "   midi.NoteOnEvent(tick=31248, channel=0, data=[67, 103]),\n",
       "   midi.NoteOnEvent(tick=31248, channel=0, data=[62, 103]),\n",
       "   midi.NoteOnEvent(tick=31248, channel=0, data=[59, 105]),\n",
       "   midi.NoteOnEvent(tick=31248, channel=0, data=[55, 94]),\n",
       "   midi.NoteOnEvent(tick=31248, channel=0, data=[43, 93]),\n",
       "   midi.NoteOnEvent(tick=31368, channel=0, data=[43, 0]),\n",
       "   midi.NoteOnEvent(tick=31368, channel=0, data=[55, 0]),\n",
       "   midi.NoteOnEvent(tick=31372, channel=0, data=[59, 0]),\n",
       "   midi.NoteOnEvent(tick=31372, channel=0, data=[67, 0]),\n",
       "   midi.NoteOnEvent(tick=31376, channel=0, data=[62, 0]),\n",
       "   midi.NoteOnEvent(tick=31392, channel=0, data=[62, 99]),\n",
       "   midi.NoteOnEvent(tick=31392, channel=0, data=[66, 106]),\n",
       "   midi.NoteOnEvent(tick=31392, channel=0, data=[57, 100]),\n",
       "   midi.NoteOnEvent(tick=31392, channel=0, data=[50, 103]),\n",
       "   midi.NoteOnEvent(tick=31456, channel=0, data=[50, 0]),\n",
       "   midi.NoteOnEvent(tick=31464, channel=0, data=[57, 0]),\n",
       "   midi.NoteOnEvent(tick=31464, channel=0, data=[66, 0]),\n",
       "   midi.NoteOnEvent(tick=31468, channel=0, data=[62, 0]),\n",
       "   midi.NoteOnEvent(tick=31488, channel=0, data=[62, 100]),\n",
       "   midi.NoteOnEvent(tick=31488, channel=0, data=[67, 102]),\n",
       "   midi.NoteOnEvent(tick=31488, channel=0, data=[48, 106]),\n",
       "   midi.NoteOnEvent(tick=31488, channel=0, data=[36, 106]),\n",
       "   midi.ControlChangeEvent(tick=31488, channel=0, data=[64, 127]),\n",
       "   midi.NoteOnEvent(tick=31600, channel=0, data=[36, 0]),\n",
       "   midi.NoteOnEvent(tick=31604, channel=0, data=[62, 0]),\n",
       "   midi.NoteOnEvent(tick=31632, channel=0, data=[62, 91]),\n",
       "   midi.NoteOnEvent(tick=31632, channel=0, data=[57, 83]),\n",
       "   midi.NoteOnEvent(tick=31632, channel=0, data=[36, 92]),\n",
       "   midi.NoteOnEvent(tick=31708, channel=0, data=[48, 0]),\n",
       "   midi.NoteOnEvent(tick=31728, channel=0, data=[48, 96]),\n",
       "   midi.NoteOnEvent(tick=31740, channel=0, data=[57, 0]),\n",
       "   midi.NoteOnEvent(tick=31768, channel=0, data=[62, 0]),\n",
       "   midi.NoteOnEvent(tick=31776, channel=0, data=[57, 102]),\n",
       "   midi.NoteOnEvent(tick=31792, channel=0, data=[67, 0]),\n",
       "   midi.NoteOnEvent(tick=31800, channel=0, data=[62, 95]),\n",
       "   midi.NoteOnEvent(tick=31824, channel=0, data=[67, 91]),\n",
       "   midi.NoteOnEvent(tick=31828, channel=0, data=[48, 0]),\n",
       "   midi.NoteOnEvent(tick=31848, channel=0, data=[36, 0]),\n",
       "   midi.NoteOnEvent(tick=31848, channel=0, data=[48, 83]),\n",
       "   midi.NoteOnEvent(tick=31852, channel=0, data=[57, 0]),\n",
       "   midi.NoteOnEvent(tick=31856, channel=0, data=[67, 0]),\n",
       "   midi.NoteOnEvent(tick=31856, channel=0, data=[62, 0]),\n",
       "   midi.ControlChangeEvent(tick=31872, channel=0, data=[64, 0]),\n",
       "   midi.NoteOnEvent(tick=31872, channel=0, data=[62, 78]),\n",
       "   midi.NoteOnEvent(tick=31872, channel=0, data=[67, 86]),\n",
       "   midi.NoteOnEvent(tick=31872, channel=0, data=[57, 90]),\n",
       "   midi.NoteOnEvent(tick=31872, channel=0, data=[55, 100]),\n",
       "   midi.NoteOnEvent(tick=31872, channel=0, data=[36, 89]),\n",
       "   midi.ControlChangeEvent(tick=31872, channel=0, data=[64, 127]),\n",
       "   midi.NoteOnEvent(tick=31936, channel=0, data=[48, 0]),\n",
       "   midi.NoteOnEvent(tick=31968, channel=0, data=[36, 0]),\n",
       "   midi.NoteOnEvent(tick=31968, channel=0, data=[48, 81]),\n",
       "   midi.NoteOnEvent(tick=31984, channel=0, data=[67, 0]),\n",
       "   midi.NoteOnEvent(tick=31988, channel=0, data=[55, 0]),\n",
       "   midi.NoteOnEvent(tick=31988, channel=0, data=[62, 0]),\n",
       "   midi.NoteOnEvent(tick=31988, channel=0, data=[57, 0]),\n",
       "   midi.NoteOnEvent(tick=32016, channel=0, data=[62, 77]),\n",
       "   midi.NoteOnEvent(tick=32016, channel=0, data=[55, 80]),\n",
       "   midi.NoteOnEvent(tick=32016, channel=0, data=[67, 82]),\n",
       "   midi.NoteOnEvent(tick=32016, channel=0, data=[57, 75]),\n",
       "   midi.NoteOnEvent(tick=32016, channel=0, data=[36, 84]),\n",
       "   midi.NoteOnEvent(tick=32096, channel=0, data=[48, 0]),\n",
       "   midi.NoteOnEvent(tick=32112, channel=0, data=[48, 93]),\n",
       "   midi.NoteOnEvent(tick=32128, channel=0, data=[57, 0]),\n",
       "   midi.NoteOnEvent(tick=32128, channel=0, data=[55, 0]),\n",
       "   midi.NoteOnEvent(tick=32156, channel=0, data=[62, 0]),\n",
       "   midi.NoteOnEvent(tick=32160, channel=0, data=[55, 105]),\n",
       "   midi.NoteOnEvent(tick=32160, channel=0, data=[57, 94]),\n",
       "   midi.NoteOnEvent(tick=32184, channel=0, data=[62, 91]),\n",
       "   midi.NoteOnEvent(tick=32188, channel=0, data=[67, 0]),\n",
       "   midi.NoteOnEvent(tick=32208, channel=0, data=[48, 0]),\n",
       "   midi.NoteOnEvent(tick=32208, channel=0, data=[67, 82]),\n",
       "   midi.NoteOnEvent(tick=32232, channel=0, data=[55, 0]),\n",
       "   midi.NoteOnEvent(tick=32232, channel=0, data=[57, 0]),\n",
       "   midi.NoteOnEvent(tick=32232, channel=0, data=[36, 0]),\n",
       "   midi.NoteOnEvent(tick=32232, channel=0, data=[48, 103]),\n",
       "   midi.NoteOnEvent(tick=32236, channel=0, data=[62, 0]),\n",
       "   midi.NoteOnEvent(tick=32236, channel=0, data=[67, 0]),\n",
       "   midi.ControlChangeEvent(tick=32256, channel=0, data=[64, 0]),\n",
       "   midi.NoteOnEvent(tick=32256, channel=0, data=[62, 94]),\n",
       "   midi.NoteOnEvent(tick=32256, channel=0, data=[67, 96]),\n",
       "   midi.NoteOnEvent(tick=32256, channel=0, data=[55, 98]),\n",
       "   midi.NoteOnEvent(tick=32256, channel=0, data=[57, 93]),\n",
       "   midi.NoteOnEvent(tick=32256, channel=0, data=[36, 96]),\n",
       "   midi.ControlChangeEvent(tick=32280, channel=0, data=[64, 127]),\n",
       "   midi.NoteOnEvent(tick=32328, channel=0, data=[48, 0]),\n",
       "   midi.NoteOnEvent(tick=32352, channel=0, data=[36, 0]),\n",
       "   midi.NoteOnEvent(tick=32352, channel=0, data=[48, 61]),\n",
       "   midi.NoteOnEvent(tick=32360, channel=0, data=[55, 0]),\n",
       "   midi.NoteOnEvent(tick=32360, channel=0, data=[57, 0]),\n",
       "   midi.NoteOnEvent(tick=32360, channel=0, data=[62, 0]),\n",
       "   midi.NoteOnEvent(tick=32360, channel=0, data=[67, 0]),\n",
       "   midi.NoteOnEvent(tick=32400, channel=0, data=[62, 84]),\n",
       "   midi.NoteOnEvent(tick=32400, channel=0, data=[55, 91]),\n",
       "   midi.NoteOnEvent(tick=32400, channel=0, data=[57, 87]),\n",
       "   midi.NoteOnEvent(tick=32400, channel=0, data=[67, 89]),\n",
       "   midi.NoteOnEvent(tick=32400, channel=0, data=[36, 91]),\n",
       "   midi.NoteOnEvent(tick=32480, channel=0, data=[48, 0]),\n",
       "   midi.NoteOnEvent(tick=32496, channel=0, data=[48, 75]),\n",
       "   midi.NoteOnEvent(tick=32520, channel=0, data=[57, 0]),\n",
       "   midi.NoteOnEvent(tick=32520, channel=0, data=[55, 0]),\n",
       "   midi.NoteOnEvent(tick=32544, channel=0, data=[62, 0]),\n",
       "   midi.NoteOnEvent(tick=32544, channel=0, data=[55, 96]),\n",
       "   midi.NoteOnEvent(tick=32544, channel=0, data=[57, 88]),\n",
       "   midi.NoteOnEvent(tick=32568, channel=0, data=[62, 90]),\n",
       "   midi.NoteOnEvent(tick=32572, channel=0, data=[67, 0]),\n",
       "   midi.NoteOnEvent(tick=32592, channel=0, data=[67, 83]),\n",
       "   midi.NoteOnEvent(tick=32600, channel=0, data=[48, 0]),\n",
       "   midi.NoteOnEvent(tick=32612, channel=0, data=[36, 0]),\n",
       "   midi.NoteOnEvent(tick=32616, channel=0, data=[57, 0]),\n",
       "   midi.NoteOnEvent(tick=32616, channel=0, data=[55, 0]),\n",
       "   midi.NoteOnEvent(tick=32616, channel=0, data=[48, 86]),\n",
       "   midi.NoteOnEvent(tick=32624, channel=0, data=[67, 0]),\n",
       "   midi.NoteOnEvent(tick=32624, channel=0, data=[62, 0]),\n",
       "   midi.ControlChangeEvent(tick=32640, channel=0, data=[64, 0]),\n",
       "   midi.NoteOnEvent(tick=32640, channel=0, data=[62, 86]),\n",
       "   midi.NoteOnEvent(tick=32640, channel=0, data=[67, 94]),\n",
       "   midi.NoteOnEvent(tick=32640, channel=0, data=[55, 99]),\n",
       "   midi.NoteOnEvent(tick=32640, channel=0, data=[57, 94]),\n",
       "   midi.NoteOnEvent(tick=32640, channel=0, data=[36, 96]),\n",
       "   midi.ControlChangeEvent(tick=32664, channel=0, data=[64, 127]),\n",
       "   midi.NoteOnEvent(tick=32704, channel=0, data=[48, 0]),\n",
       "   midi.NoteOnEvent(tick=32736, channel=0, data=[48, 78]),\n",
       "   midi.NoteOnEvent(tick=32740, channel=0, data=[36, 0]),\n",
       "   midi.NoteOnEvent(tick=32744, channel=0, data=[67, 0]),\n",
       "   midi.NoteOnEvent(tick=32748, channel=0, data=[55, 0]),\n",
       "   midi.NoteOnEvent(tick=32748, channel=0, data=[57, 0]),\n",
       "   midi.NoteOnEvent(tick=32752, channel=0, data=[62, 0]),\n",
       "   midi.NoteOnEvent(tick=32784, channel=0, data=[62, 86]),\n",
       "   midi.NoteOnEvent(tick=32784, channel=0, data=[67, 91]),\n",
       "   midi.NoteOnEvent(tick=32784, channel=0, data=[55, 96]),\n",
       "   midi.NoteOnEvent(tick=32784, channel=0, data=[57, 92]),\n",
       "   midi.NoteOnEvent(tick=32784, channel=0, data=[36, 90]),\n",
       "   midi.NoteOnEvent(tick=32860, channel=0, data=[48, 0]),\n",
       "   midi.NoteOnEvent(tick=32880, channel=0, data=[48, 91]),\n",
       "   midi.NoteOnEvent(tick=32896, channel=0, data=[57, 0]),\n",
       "   midi.NoteOnEvent(tick=32896, channel=0, data=[55, 0]),\n",
       "   midi.NoteOnEvent(tick=32920, channel=0, data=[62, 0]),\n",
       "   midi.NoteOnEvent(tick=32928, channel=0, data=[55, 103]),\n",
       "   midi.NoteOnEvent(tick=32928, channel=0, data=[57, 90]),\n",
       "   midi.NoteOnEvent(tick=32948, channel=0, data=[67, 0]),\n",
       "   midi.NoteOnEvent(tick=32952, channel=0, data=[62, 86]),\n",
       "   midi.NoteOnEvent(tick=32972, channel=0, data=[36, 0]),\n",
       "   midi.NoteOnEvent(tick=32976, channel=0, data=[67, 84]),\n",
       "   midi.NoteOnEvent(tick=32984, channel=0, data=[57, 0]),\n",
       "   midi.NoteOnEvent(tick=32984, channel=0, data=[55, 0]),\n",
       "   midi.NoteOnEvent(tick=32984, channel=0, data=[48, 0]),\n",
       "   midi.NoteOnEvent(tick=32992, channel=0, data=[62, 0]),\n",
       "   midi.NoteOnEvent(tick=32996, channel=0, data=[67, 0]),\n",
       "   midi.ControlChangeEvent(tick=33024, channel=0, data=[64, 0]),\n",
       "   midi.NoteOnEvent(tick=33024, channel=0, data=[62, 108]),\n",
       "   midi.NoteOnEvent(tick=33024, channel=0, data=[67, 110]),\n",
       "   midi.NoteOnEvent(tick=33024, channel=0, data=[59, 110]),\n",
       "   midi.NoteOnEvent(tick=33024, channel=0, data=[43, 106]),\n",
       "   midi.NoteOnEvent(tick=33796, channel=0, data=[43, 0]),\n",
       "   midi.NoteOnEvent(tick=33800, channel=0, data=[62, 0]),\n",
       "   midi.NoteOnEvent(tick=33800, channel=0, data=[67, 0]),\n",
       "   midi.NoteOnEvent(tick=33804, channel=0, data=[59, 0]),\n",
       "   midi.EndOfTrackEvent(tick=33804, data=[])]),\n",
       " midi.Track(\\\n",
       "  [midi.PortEvent(tick=0, data=[0]),\n",
       "   midi.ProgramChangeEvent(tick=0, channel=2, data=[8]),\n",
       "   midi.ControlChangeEvent(tick=0, channel=2, data=[7, 80]),\n",
       "   midi.ControlChangeEvent(tick=0, channel=2, data=[10, 60]),\n",
       "   midi.ControlChangeEvent(tick=0, channel=2, data=[91, 127]),\n",
       "   midi.NoteOnEvent(tick=3456, channel=2, data=[95, 88]),\n",
       "   midi.NoteOnEvent(tick=3456, channel=2, data=[79, 100]),\n",
       "   midi.NoteOnEvent(tick=3480, channel=2, data=[86, 60]),\n",
       "   midi.NoteOnEvent(tick=3496, channel=2, data=[95, 0]),\n",
       "   midi.NoteOnEvent(tick=3504, channel=2, data=[91, 68]),\n",
       "   midi.NoteOnEvent(tick=3524, channel=2, data=[86, 0]),\n",
       "   midi.NoteOnEvent(tick=3528, channel=2, data=[95, 88]),\n",
       "   midi.NoteOnEvent(tick=3532, channel=2, data=[91, 0]),\n",
       "   midi.NoteOnEvent(tick=3552, channel=2, data=[86, 88]),\n",
       "   midi.NoteOnEvent(tick=3576, channel=2, data=[95, 0]),\n",
       "   midi.NoteOnEvent(tick=3576, channel=2, data=[91, 77]),\n",
       "   midi.NoteOnEvent(tick=3600, channel=2, data=[96, 77]),\n",
       "   midi.NoteOnEvent(tick=3604, channel=2, data=[86, 0]),\n",
       "   midi.NoteOnEvent(tick=3616, channel=2, data=[91, 0]),\n",
       "   midi.NoteOnEvent(tick=3624, channel=2, data=[96, 0]),\n",
       "   midi.NoteOnEvent(tick=3624, channel=2, data=[86, 88]),\n",
       "   midi.NoteOnEvent(tick=3648, channel=2, data=[86, 0]),\n",
       "   midi.NoteOnEvent(tick=3648, channel=2, data=[91, 33]),\n",
       "   midi.NoteOnEvent(tick=3648, channel=2, data=[98, 88]),\n",
       "   midi.NoteOnEvent(tick=3668, channel=2, data=[91, 0]),\n",
       "   midi.NoteOnEvent(tick=3672, channel=2, data=[86, 88]),\n",
       "   midi.NoteOnEvent(tick=3696, channel=2, data=[98, 0]),\n",
       "   midi.NoteOnEvent(tick=3696, channel=2, data=[91, 68]),\n",
       "   midi.NoteOnEvent(tick=3716, channel=2, data=[86, 0]),\n",
       "   midi.NoteOnEvent(tick=3720, channel=2, data=[98, 68]),\n",
       "   midi.NoteOnEvent(tick=3732, channel=2, data=[98, 0]),\n",
       "   midi.NoteOnEvent(tick=3744, channel=2, data=[96, 88]),\n",
       "   midi.NoteOnEvent(tick=3764, channel=2, data=[96, 0]),\n",
       "   midi.NoteOnEvent(tick=3768, channel=2, data=[86, 77]),\n",
       "   midi.NoteOnEvent(tick=3792, channel=2, data=[86, 0]),\n",
       "   midi.NoteOnEvent(tick=3792, channel=2, data=[95, 77]),\n",
       "   midi.NoteOnEvent(tick=3816, channel=2, data=[86, 60]),\n",
       "   midi.NoteOnEvent(tick=3820, channel=2, data=[91, 0]),\n",
       "   midi.NoteOnEvent(tick=3824, channel=2, data=[95, 0]),\n",
       "   midi.NoteOnEvent(tick=3836, channel=2, data=[79, 0]),\n",
       "   midi.NoteOnEvent(tick=3840, channel=2, data=[93, 88]),\n",
       "   midi.NoteOnEvent(tick=3840, channel=2, data=[74, 77]),\n",
       "   midi.NoteOnEvent(tick=3844, channel=2, data=[86, 0]),\n",
       "   midi.NoteOnEvent(tick=3864, channel=2, data=[86, 51]),\n",
       "   midi.NoteOnEvent(tick=3868, channel=2, data=[93, 0]),\n",
       "   midi.NoteOnEvent(tick=3888, channel=2, data=[90, 77]),\n",
       "   midi.NoteOnEvent(tick=3908, channel=2, data=[86, 0]),\n",
       "   midi.NoteOnEvent(tick=3912, channel=2, data=[93, 68]),\n",
       "   midi.NoteOnEvent(tick=3924, channel=2, data=[90, 0]),\n",
       "   midi.NoteOnEvent(tick=3928, channel=2, data=[93, 0]),\n",
       "   midi.NoteOnEvent(tick=3936, channel=2, data=[93, 88]),\n",
       "   midi.NoteOnEvent(tick=3960, channel=2, data=[86, 60]),\n",
       "   midi.NoteOnEvent(tick=3968, channel=2, data=[93, 0]),\n",
       "   midi.NoteOnEvent(tick=3984, channel=2, data=[95, 88]),\n",
       "   midi.NoteOnEvent(tick=3988, channel=2, data=[86, 0]),\n",
       "   midi.NoteOnEvent(tick=4008, channel=2, data=[95, 0]),\n",
       "   midi.NoteOnEvent(tick=4008, channel=2, data=[86, 45]),\n",
       "   midi.NoteOnEvent(tick=4032, channel=2, data=[96, 100]),\n",
       "   midi.NoteOnEvent(tick=4036, channel=2, data=[86, 0]),\n",
       "   midi.NoteOnEvent(tick=4056, channel=2, data=[96, 0]),\n",
       "   midi.NoteOnEvent(tick=4056, channel=2, data=[86, 88]),\n",
       "   midi.NoteOnEvent(tick=4080, channel=2, data=[96, 77]),\n",
       "   midi.NoteOnEvent(tick=4084, channel=2, data=[86, 0]),\n",
       "   midi.NoteOnEvent(tick=4104, channel=2, data=[86, 77]),\n",
       "   midi.NoteOnEvent(tick=4108, channel=2, data=[96, 0]),\n",
       "   midi.NoteOnEvent(tick=4128, channel=2, data=[86, 0]),\n",
       "   midi.NoteOnEvent(tick=4128, channel=2, data=[95, 77]),\n",
       "   midi.NoteOnEvent(tick=4152, channel=2, data=[86, 60]),\n",
       "   midi.NoteOnEvent(tick=4160, channel=2, data=[95, 0]),\n",
       "   midi.NoteOnEvent(tick=4176, channel=2, data=[86, 0]),\n",
       "   midi.NoteOnEvent(tick=4176, channel=2, data=[93, 88]),\n",
       "   midi.NoteOnEvent(tick=4200, channel=2, data=[93, 0]),\n",
       "   midi.NoteOnEvent(tick=4200, channel=2, data=[86, 77]),\n",
       "   midi.NoteOnEvent(tick=4212, channel=2, data=[74, 0]),\n",
       "   midi.NoteOnEvent(tick=4224, channel=2, data=[91, 112]),\n",
       "   midi.NoteOnEvent(tick=4224, channel=2, data=[72, 77]),\n",
       "   midi.NoteOnEvent(tick=4228, channel=2, data=[86, 0]),\n",
       "   midi.NoteOnEvent(tick=4248, channel=2, data=[84, 68]),\n",
       "   midi.NoteOnEvent(tick=4256, channel=2, data=[91, 0]),\n",
       "   midi.NoteOnEvent(tick=4272, channel=2, data=[86, 77]),\n",
       "   midi.NoteOnEvent(tick=4296, channel=2, data=[84, 0]),\n",
       "   midi.NoteOnEvent(tick=4296, channel=2, data=[91, 88]),\n",
       "   midi.NoteOnEvent(tick=4308, channel=2, data=[86, 0]),\n",
       "   midi.NoteOnEvent(tick=4320, channel=2, data=[84, 60]),\n",
       "   midi.NoteOnEvent(tick=4344, channel=2, data=[86, 68]),\n",
       "   midi.NoteOnEvent(tick=4368, channel=2, data=[84, 0]),\n",
       "   midi.NoteOnEvent(tick=4368, channel=2, data=[88, 51]),\n",
       "   midi.NoteOnEvent(tick=4380, channel=2, data=[86, 0]),\n",
       "   midi.NoteOnEvent(tick=4392, channel=2, data=[84, 77]),\n",
       "   midi.NoteOnEvent(tick=4396, channel=2, data=[88, 0]),\n",
       "   midi.NoteOnEvent(tick=4404, channel=2, data=[72, 0]),\n",
       "   midi.NoteOnEvent(tick=4408, channel=2, data=[91, 0]),\n",
       "   midi.NoteOnEvent(tick=4416, channel=2, data=[84, 0]),\n",
       "   midi.NoteOnEvent(tick=4416, channel=2, data=[86, 88]),\n",
       "   midi.NoteOnEvent(tick=4416, channel=2, data=[74, 88]),\n",
       "   midi.NoteOnEvent(tick=4440, channel=2, data=[81, 77]),\n",
       "   midi.NoteOnEvent(tick=4444, channel=2, data=[86, 0]),\n",
       "   midi.NoteOnEvent(tick=4464, channel=2, data=[86, 68]),\n",
       "   midi.NoteOnEvent(tick=4488, channel=2, data=[81, 0]),\n",
       "   midi.NoteOnEvent(tick=4488, channel=2, data=[88, 60]),\n",
       "   midi.NoteOnEvent(tick=4512, channel=2, data=[88, 0]),\n",
       "   midi.NoteOnEvent(tick=4512, channel=2, data=[90, 100]),\n",
       "   midi.NoteOnEvent(tick=4516, channel=2, data=[86, 0]),\n",
       "   midi.NoteOnEvent(tick=4536, channel=2, data=[81, 77]),\n",
       "   midi.NoteOnEvent(tick=4560, channel=2, data=[86, 88]),\n",
       "   midi.NoteOnEvent(tick=4564, channel=2, data=[81, 0]),\n",
       "   midi.NoteOnEvent(tick=4584, channel=2, data=[90, 0]),\n",
       "   midi.NoteOnEvent(tick=4584, channel=2, data=[81, 100]),\n",
       "   midi.NoteOnEvent(tick=4596, channel=2, data=[86, 0]),\n",
       "   midi.NoteOnEvent(tick=4608, channel=2, data=[81, 0]),\n",
       "   midi.NoteOnEvent(tick=4608, channel=2, data=[74, 0]),\n",
       "   midi.NoteOnEvent(tick=4608, channel=2, data=[91, 100]),\n",
       "   midi.NoteOnEvent(tick=4632, channel=2, data=[84, 45]),\n",
       "   midi.NoteOnEvent(tick=4656, channel=2, data=[86, 68]),\n",
       "   midi.NoteOnEvent(tick=4680, channel=2, data=[88, 77]),\n",
       "   midi.NoteOnEvent(tick=4684, channel=2, data=[84, 0]),\n",
       "   midi.NoteOnEvent(tick=4688, channel=2, data=[86, 0]),\n",
       "   midi.NoteOnEvent(tick=4704, channel=2, data=[84, 60]),\n",
       "   midi.NoteOnEvent(tick=4712, channel=2, data=[88, 0]),\n",
       "   midi.NoteOnEvent(tick=4724, channel=2, data=[84, 0]),\n",
       "   midi.NoteOnEvent(tick=4728, channel=2, data=[86, 51]),\n",
       "   midi.NoteOnEvent(tick=4748, channel=2, data=[86, 0]),\n",
       "   midi.NoteOnEvent(tick=4752, channel=2, data=[83, 88]),\n",
       "   midi.NoteOnEvent(tick=4776, channel=2, data=[86, 88]),\n",
       "   midi.NoteOnEvent(tick=4780, channel=2, data=[83, 0]),\n",
       "   midi.NoteOnEvent(tick=4780, channel=2, data=[91, 0]),\n",
       "   midi.NoteOnEvent(tick=4800, channel=2, data=[91, 88]),\n",
       "   midi.NoteOnEvent(tick=4812, channel=2, data=[86, 0]),\n",
       "   midi.NoteOnEvent(tick=4824, channel=2, data=[83, 77]),\n",
       "   midi.NoteOnEvent(tick=4840, channel=2, data=[91, 0]),\n",
       "   midi.NoteOnEvent(tick=4848, channel=2, data=[86, 100]),\n",
       "   midi.NoteOnEvent(tick=4848, channel=2, data=[79, 51]),\n",
       "   midi.NoteOnEvent(tick=4856, channel=2, data=[83, 0]),\n",
       "   midi.NoteOnEvent(tick=4872, channel=2, data=[91, 77]),\n",
       "   midi.NoteOnEvent(tick=4884, channel=2, data=[79, 0]),\n",
       "   midi.NoteOnEvent(tick=4884, channel=2, data=[86, 0]),\n",
       "   midi.NoteOnEvent(tick=4896, channel=2, data=[74, 100]),\n",
       "   midi.NoteOnEvent(tick=4896, channel=2, data=[81, 100]),\n",
       "   midi.NoteOnEvent(tick=4904, channel=2, data=[91, 0]),\n",
       "   midi.NoteOnEvent(tick=4920, channel=2, data=[86, 77]),\n",
       "   midi.NoteOnEvent(tick=4940, channel=2, data=[81, 0]),\n",
       "   midi.NoteOnEvent(tick=4944, channel=2, data=[90, 100]),\n",
       "   midi.NoteOnEvent(tick=4956, channel=2, data=[86, 0]),\n",
       "   midi.NoteOnEvent(tick=4968, channel=2, data=[90, 0]),\n",
       "   midi.NoteOnEvent(tick=4968, channel=2, data=[81, 68]),\n",
       "   midi.NoteOnEvent(tick=4980, channel=2, data=[81, 0]),\n",
       "   midi.NoteOnEvent(tick=4984, channel=2, data=[74, 0]),\n",
       "   midi.PitchWheelEvent(tick=4992, channel=2, data=[0, 64]),\n",
       "   midi.NoteOnEvent(tick=4992, channel=2, data=[79, 100]),\n",
       "   midi.NoteOnEvent(tick=4992, channel=2, data=[95, 88]),\n",
       "   midi.NoteOnEvent(tick=5016, channel=2, data=[86, 68]),\n",
       "   midi.NoteOnEvent(tick=5040, channel=2, data=[95, 0]),\n",
       "   midi.NoteOnEvent(tick=5040, channel=2, data=[91, 88]),\n",
       "   midi.NoteOnEvent(tick=5064, channel=2, data=[86, 0]),\n",
       "   midi.NoteOnEvent(tick=5064, channel=2, data=[95, 88]),\n",
       "   midi.NoteOnEvent(tick=5080, channel=2, data=[91, 0]),\n",
       "   midi.NoteOnEvent(tick=5088, channel=2, data=[86, 77]),\n",
       "   midi.NoteOnEvent(tick=5108, channel=2, data=[95, 0]),\n",
       "   midi.NoteOnEvent(tick=5112, channel=2, data=[91, 77]),\n",
       "   midi.NoteOnEvent(tick=5128, channel=2, data=[86, 0]),\n",
       "   midi.NoteOnEvent(tick=5136, channel=2, data=[96, 88]),\n",
       "   midi.NoteOnEvent(tick=5160, channel=2, data=[86, 77]),\n",
       "   midi.NoteOnEvent(tick=5164, channel=2, data=[96, 0]),\n",
       "   midi.NoteOnEvent(tick=5184, channel=2, data=[98, 88]),\n",
       "   midi.NoteOnEvent(tick=5188, channel=2, data=[86, 0]),\n",
       "   midi.NoteOnEvent(tick=5208, channel=2, data=[91, 0]),\n",
       "   midi.NoteOnEvent(tick=5208, channel=2, data=[86, 77]),\n",
       "   midi.NoteOnEvent(tick=5232, channel=2, data=[91, 60]),\n",
       "   midi.NoteOnEvent(tick=5236, channel=2, data=[98, 0]),\n",
       "   midi.NoteOnEvent(tick=5256, channel=2, data=[86, 0]),\n",
       "   midi.NoteOnEvent(tick=5256, channel=2, data=[98, 68]),\n",
       "   midi.NoteOnEvent(tick=5268, channel=2, data=[98, 0]),\n",
       "   midi.NoteOnEvent(tick=5280, channel=2, data=[96, 88]),\n",
       "   midi.NoteOnEvent(tick=5300, channel=2, data=[96, 0]),\n",
       "   midi.NoteOnEvent(tick=5304, channel=2, data=[86, 68]),\n",
       "   midi.NoteOnEvent(tick=5328, channel=2, data=[86, 0]),\n",
       "   midi.NoteOnEvent(tick=5328, channel=2, data=[95, 77]),\n",
       "   midi.NoteOnEvent(tick=5352, channel=2, data=[86, 60]),\n",
       "   midi.NoteOnEvent(tick=5356, channel=2, data=[91, 0]),\n",
       "   midi.NoteOnEvent(tick=5360, channel=2, data=[95, 0]),\n",
       "   midi.NoteOnEvent(tick=5376, channel=2, data=[79, 0]),\n",
       "   midi.NoteOnEvent(tick=5376, channel=2, data=[74, 77]),\n",
       "   midi.NoteOnEvent(tick=5376, channel=2, data=[93, 88]),\n",
       "   midi.NoteOnEvent(tick=5376, channel=2, data=[74, 88]),\n",
       "   midi.NoteOnEvent(tick=5377, channel=2, data=[74, 0]),\n",
       "   midi.NoteOnEvent(tick=5380, channel=2, data=[86, 0]),\n",
       "   midi.NoteOnEvent(tick=5400, channel=2, data=[93, 0]),\n",
       "   midi.NoteOnEvent(tick=5400, channel=2, data=[86, 45]),\n",
       "   midi.NoteOnEvent(tick=5424, channel=2, data=[90, 68]),\n",
       "   midi.NoteOnEvent(tick=5448, channel=2, data=[86, 0]),\n",
       "   midi.NoteOnEvent(tick=5448, channel=2, data=[93, 77]),\n",
       "   midi.NoteOnEvent(tick=5452, channel=2, data=[90, 0]),\n",
       "   midi.NoteOnEvent(tick=5472, channel=2, data=[98, 88]),\n",
       "   midi.NoteOnEvent(tick=5476, channel=2, data=[93, 0]),\n",
       "   midi.NoteOnEvent(tick=5496, channel=2, data=[86, 68]),\n",
       "   midi.NoteOnEvent(tick=5500, channel=2, data=[98, 0]),\n",
       "   midi.NoteOnEvent(tick=5520, channel=2, data=[86, 0]),\n",
       "   midi.NoteOnEvent(tick=5520, channel=2, data=[95, 77]),\n",
       "   midi.NoteOnEvent(tick=5544, channel=2, data=[86, 51]),\n",
       "   midi.NoteOnEvent(tick=5548, channel=2, data=[95, 0]),\n",
       "   midi.NoteOnEvent(tick=5568, channel=2, data=[74, 0]),\n",
       "   midi.NoteOnEvent(tick=5568, channel=2, data=[96, 88]),\n",
       "   midi.NoteOnEvent(tick=5568, channel=2, data=[74, 68]),\n",
       "   midi.NoteOnEvent(tick=5576, channel=2, data=[86, 0]),\n",
       "   midi.NoteOnEvent(tick=5592, channel=2, data=[86, 68]),\n",
       "   midi.NoteOnEvent(tick=5616, channel=2, data=[90, 77]),\n",
       "   midi.NoteOnEvent(tick=5620, channel=2, data=[96, 0]),\n",
       "   midi.NoteOnEvent(tick=5640, channel=2, data=[93, 51]),\n",
       "   midi.NoteOnEvent(tick=5644, channel=2, data=[86, 0]),\n",
       "   midi.NoteOnEvent(tick=5648, channel=2, data=[90, 0]),\n",
       "   midi.NoteOnEvent(tick=5660, channel=2, data=[93, 0]),\n",
       "   midi.NoteOnEvent(tick=5664, channel=2, data=[95, 88]),\n",
       "   midi.NoteOnEvent(tick=5688, channel=2, data=[86, 45]),\n",
       "   midi.NoteOnEvent(tick=5704, channel=2, data=[95, 0]),\n",
       "   midi.NoteOnEvent(tick=5712, channel=2, data=[93, 77]),\n",
       "   midi.NoteOnEvent(tick=5716, channel=2, data=[86, 0]),\n",
       "   midi.NoteOnEvent(tick=5732, channel=2, data=[93, 0]),\n",
       "   midi.NoteOnEvent(tick=5736, channel=2, data=[86, 88]),\n",
       "   midi.NoteOnEvent(tick=5748, channel=2, data=[74, 0]),\n",
       "   midi.NoteOnEvent(tick=5760, channel=2, data=[91, 112]),\n",
       "   midi.NoteOnEvent(tick=5760, channel=2, data=[72, 68]),\n",
       "   midi.NoteOnEvent(tick=5764, channel=2, data=[86, 0]),\n",
       "   midi.NoteOnEvent(tick=5784, channel=2, data=[91, 0]),\n",
       "   midi.NoteOnEvent(tick=5784, channel=2, data=[84, 60]),\n",
       "   midi.NoteOnEvent(tick=5808, channel=2, data=[86, 68]),\n",
       "   midi.NoteOnEvent(tick=5832, channel=2, data=[84, 0]),\n",
       "   midi.NoteOnEvent(tick=5832, channel=2, data=[88, 60]),\n",
       "   midi.NoteOnEvent(tick=5836, channel=2, data=[86, 0]),\n",
       "   midi.NoteOnEvent(tick=5856, channel=2, data=[91, 100]),\n",
       "   midi.NoteOnEvent(tick=5864, channel=2, data=[88, 0]),\n",
       "   midi.NoteOnEvent(tick=5880, channel=2, data=[84, 60]),\n",
       "   midi.NoteOnEvent(tick=5904, channel=2, data=[86, 60]),\n",
       "   midi.NoteOnEvent(tick=5912, channel=2, data=[91, 0]),\n",
       "   midi.NoteOnEvent(tick=5916, channel=2, data=[84, 0]),\n",
       "   midi.NoteOnEvent(tick=5928, channel=2, data=[88, 51]),\n",
       "   midi.NoteOnEvent(tick=5932, channel=2, data=[86, 0]),\n",
       "   midi.NoteOnEvent(tick=5936, channel=2, data=[72, 0]),\n",
       "   midi.NoteOnEvent(tick=5948, channel=2, data=[88, 0]),\n",
       "   midi.NoteOnEvent(tick=5952, channel=2, data=[74, 88]),\n",
       "   midi.NoteOnEvent(tick=5952, channel=2, data=[86, 100]),\n",
       "   midi.NoteOnEvent(tick=5976, channel=2, data=[81, 68]),\n",
       "   midi.NoteOnEvent(tick=5980, channel=2, data=[86, 0]),\n",
       "   midi.NoteOnEvent(tick=6000, channel=2, data=[86, 68]),\n",
       "   midi.NoteOnEvent(tick=6012, channel=2, data=[81, 0]),\n",
       "   midi.NoteOnEvent(tick=6024, channel=2, data=[88, 68]),\n",
       "   midi.NoteOnEvent(tick=6044, channel=2, data=[86, 0]),\n",
       "   midi.NoteOnEvent(tick=6048, channel=2, data=[88, 0]),\n",
       "   midi.NoteOnEvent(tick=6048, channel=2, data=[90, 88]),\n",
       "   midi.NoteOnEvent(tick=6072, channel=2, data=[81, 68]),\n",
       "   midi.NoteOnEvent(tick=6096, channel=2, data=[81, 0]),\n",
       "   midi.NoteOnEvent(tick=6096, channel=2, data=[86, 88]),\n",
       "   midi.NoteOnEvent(tick=6112, channel=2, data=[90, 0]),\n",
       "   midi.NoteOnEvent(tick=6120, channel=2, data=[81, 100]),\n",
       "   midi.NoteOnEvent(tick=6128, channel=2, data=[86, 0]),\n",
       "   midi.NoteOnEvent(tick=6140, channel=2, data=[81, 0]),\n",
       "   midi.NoteOnEvent(tick=6144, channel=2, data=[74, 0]),\n",
       "   midi.NoteOnEvent(tick=6144, channel=2, data=[91, 100]),\n",
       "   midi.NoteOnEvent(tick=6144, channel=2, data=[79, 88]),\n",
       "   midi.NoteOnEvent(tick=6168, channel=2, data=[84, 60]),\n",
       "   midi.NoteOnEvent(tick=6192, channel=2, data=[86, 68]),\n",
       "   midi.NoteOnEvent(tick=6196, channel=2, data=[84, 0]),\n",
       "   midi.NoteOnEvent(tick=6216, channel=2, data=[86, 0]),\n",
       "   midi.NoteOnEvent(tick=6216, channel=2, data=[88, 51]),\n",
       "   midi.NoteOnEvent(tick=6240, channel=2, data=[84, 88]),\n",
       "   midi.NoteOnEvent(tick=6252, channel=2, data=[88, 0]),\n",
       "   midi.NoteOnEvent(tick=6264, channel=2, data=[84, 0]),\n",
       "   midi.NoteOnEvent(tick=6264, channel=2, data=[86, 60]),\n",
       "   midi.NoteOnEvent(tick=6284, channel=2, data=[86, 0]),\n",
       "   midi.NoteOnEvent(tick=6288, channel=2, data=[83, 100]),\n",
       "   midi.NoteOnEvent(tick=6312, channel=2, data=[86, 68]),\n",
       "   midi.NoteOnEvent(tick=6316, channel=2, data=[91, 0]),\n",
       "   midi.NoteOnEvent(tick=6336, channel=2, data=[83, 0]),\n",
       "   midi.NoteOnEvent(tick=6336, channel=2, data=[91, 88]),\n",
       "   midi.NoteOnEvent(tick=6360, channel=2, data=[86, 0]),\n",
       "   midi.NoteOnEvent(tick=6360, channel=2, data=[83, 60]),\n",
       "   midi.NoteOnEvent(tick=6384, channel=2, data=[86, 77]),\n",
       "   midi.NoteOnEvent(tick=6388, channel=2, data=[91, 0]),\n",
       "   midi.NoteOnEvent(tick=6408, channel=2, data=[83, 0]),\n",
       "   midi.NoteOnEvent(tick=6408, channel=2, data=[91, 100]),\n",
       "   midi.PitchWheelEvent(tick=6408, channel=2, data=[0, 62]),\n",
       "   midi.NoteOnEvent(tick=6428, channel=2, data=[86, 0]),\n",
       "   midi.PitchWheelEvent(tick=6432, channel=2, data=[0, 64]),\n",
       "   midi.NoteOnEvent(tick=6432, channel=2, data=[83, 77]),\n",
       "   midi.NoteOnEvent(tick=6456, channel=2, data=[91, 0]),\n",
       "   midi.NoteOnEvent(tick=6456, channel=2, data=[86, 77]),\n",
       "   midi.NoteOnEvent(tick=6480, channel=2, data=[91, 88]),\n",
       "   midi.NoteOnEvent(tick=6504, channel=2, data=[83, 0]),\n",
       "   midi.NoteOnEvent(tick=6508, channel=2, data=[79, 0]),\n",
       "   midi.NoteOnEvent(tick=6508, channel=2, data=[86, 0]),\n",
       "   midi.NoteOnEvent(tick=6508, channel=2, data=[91, 0]),\n",
       "   midi.NoteOnEvent(tick=9600, channel=2, data=[95, 88]),\n",
       "   midi.NoteOnEvent(tick=9600, channel=2, data=[79, 100]),\n",
       "   midi.NoteOnEvent(tick=9624, channel=2, data=[86, 60]),\n",
       "   midi.NoteOnEvent(tick=9640, channel=2, data=[95, 0]),\n",
       "   midi.NoteOnEvent(tick=9648, channel=2, data=[91, 68]),\n",
       "   midi.NoteOnEvent(tick=9668, channel=2, data=[86, 0]),\n",
       "   midi.NoteOnEvent(tick=9672, channel=2, data=[95, 88]),\n",
       "   midi.NoteOnEvent(tick=9676, channel=2, data=[91, 0]),\n",
       "   midi.NoteOnEvent(tick=9696, channel=2, data=[86, 88]),\n",
       "   midi.NoteOnEvent(tick=9720, channel=2, data=[95, 0]),\n",
       "   midi.NoteOnEvent(tick=9720, channel=2, data=[91, 77]),\n",
       "   midi.NoteOnEvent(tick=9744, channel=2, data=[96, 77]),\n",
       "   midi.NoteOnEvent(tick=9748, channel=2, data=[86, 0]),\n",
       "   midi.NoteOnEvent(tick=9760, channel=2, data=[91, 0]),\n",
       "   midi.NoteOnEvent(tick=9768, channel=2, data=[96, 0]),\n",
       "   midi.NoteOnEvent(tick=9768, channel=2, data=[86, 88]),\n",
       "   midi.NoteOnEvent(tick=9792, channel=2, data=[86, 0]),\n",
       "   midi.NoteOnEvent(tick=9792, channel=2, data=[91, 33]),\n",
       "   midi.NoteOnEvent(tick=9792, channel=2, data=[98, 88]),\n",
       "   midi.NoteOnEvent(tick=9812, channel=2, data=[91, 0]),\n",
       "   midi.NoteOnEvent(tick=9816, channel=2, data=[86, 88]),\n",
       "   midi.NoteOnEvent(tick=9840, channel=2, data=[98, 0]),\n",
       "   midi.NoteOnEvent(tick=9840, channel=2, data=[91, 68]),\n",
       "   midi.NoteOnEvent(tick=9860, channel=2, data=[86, 0]),\n",
       "   midi.NoteOnEvent(tick=9864, channel=2, data=[98, 68]),\n",
       "   midi.NoteOnEvent(tick=9876, channel=2, data=[98, 0]),\n",
       "   midi.NoteOnEvent(tick=9888, channel=2, data=[96, 88]),\n",
       "   midi.NoteOnEvent(tick=9908, channel=2, data=[96, 0]),\n",
       "   midi.NoteOnEvent(tick=9912, channel=2, data=[86, 77]),\n",
       "   midi.NoteOnEvent(tick=9936, channel=2, data=[86, 0]),\n",
       "   midi.NoteOnEvent(tick=9936, channel=2, data=[95, 77]),\n",
       "   midi.NoteOnEvent(tick=9960, channel=2, data=[86, 60]),\n",
       "   midi.NoteOnEvent(tick=9964, channel=2, data=[91, 0]),\n",
       "   midi.NoteOnEvent(tick=9968, channel=2, data=[95, 0]),\n",
       "   midi.NoteOnEvent(tick=9980, channel=2, data=[79, 0]),\n",
       "   midi.NoteOnEvent(tick=9984, channel=2, data=[93, 88]),\n",
       "   midi.NoteOnEvent(tick=9984, channel=2, data=[74, 77]),\n",
       "   midi.NoteOnEvent(tick=9988, channel=2, data=[86, 0]),\n",
       "   midi.NoteOnEvent(tick=10008, channel=2, data=[86, 51]),\n",
       "   midi.NoteOnEvent(tick=10012, channel=2, data=[93, 0]),\n",
       "   midi.NoteOnEvent(tick=10032, channel=2, data=[90, 77]),\n",
       "   midi.NoteOnEvent(tick=10052, channel=2, data=[86, 0]),\n",
       "   midi.NoteOnEvent(tick=10056, channel=2, data=[93, 68]),\n",
       "   midi.NoteOnEvent(tick=10068, channel=2, data=[90, 0]),\n",
       "   midi.NoteOnEvent(tick=10072, channel=2, data=[93, 0]),\n",
       "   midi.NoteOnEvent(tick=10080, channel=2, data=[93, 88]),\n",
       "   midi.NoteOnEvent(tick=10104, channel=2, data=[86, 60]),\n",
       "   midi.NoteOnEvent(tick=10112, channel=2, data=[93, 0]),\n",
       "   midi.NoteOnEvent(tick=10128, channel=2, data=[95, 88]),\n",
       "   midi.NoteOnEvent(tick=10132, channel=2, data=[86, 0]),\n",
       "   midi.NoteOnEvent(tick=10152, channel=2, data=[95, 0]),\n",
       "   midi.NoteOnEvent(tick=10152, channel=2, data=[86, 45]),\n",
       "   midi.NoteOnEvent(tick=10176, channel=2, data=[96, 100]),\n",
       "   midi.NoteOnEvent(tick=10180, channel=2, data=[86, 0]),\n",
       "   midi.NoteOnEvent(tick=10200, channel=2, data=[96, 0]),\n",
       "   midi.NoteOnEvent(tick=10200, channel=2, data=[86, 88]),\n",
       "   midi.NoteOnEvent(tick=10224, channel=2, data=[96, 77]),\n",
       "   midi.NoteOnEvent(tick=10228, channel=2, data=[86, 0]),\n",
       "   midi.NoteOnEvent(tick=10248, channel=2, data=[86, 77]),\n",
       "   midi.NoteOnEvent(tick=10252, channel=2, data=[96, 0]),\n",
       "   midi.NoteOnEvent(tick=10272, channel=2, data=[86, 0]),\n",
       "   midi.NoteOnEvent(tick=10272, channel=2, data=[95, 77]),\n",
       "   midi.NoteOnEvent(tick=10296, channel=2, data=[86, 60]),\n",
       "   midi.NoteOnEvent(tick=10304, channel=2, data=[95, 0]),\n",
       "   midi.NoteOnEvent(tick=10320, channel=2, data=[86, 0]),\n",
       "   midi.NoteOnEvent(tick=10320, channel=2, data=[93, 88]),\n",
       "   midi.NoteOnEvent(tick=10344, channel=2, data=[93, 0]),\n",
       "   midi.NoteOnEvent(tick=10344, channel=2, data=[86, 77]),\n",
       "   midi.NoteOnEvent(tick=10356, channel=2, data=[74, 0]),\n",
       "   midi.NoteOnEvent(tick=10368, channel=2, data=[91, 112]),\n",
       "   midi.NoteOnEvent(tick=10368, channel=2, data=[72, 77]),\n",
       "   midi.NoteOnEvent(tick=10372, channel=2, data=[86, 0]),\n",
       "   midi.NoteOnEvent(tick=10392, channel=2, data=[84, 68]),\n",
       "   midi.NoteOnEvent(tick=10400, channel=2, data=[91, 0]),\n",
       "   midi.NoteOnEvent(tick=10416, channel=2, data=[86, 77]),\n",
       "   midi.NoteOnEvent(tick=10440, channel=2, data=[84, 0]),\n",
       "   midi.NoteOnEvent(tick=10440, channel=2, data=[91, 88]),\n",
       "   midi.NoteOnEvent(tick=10452, channel=2, data=[86, 0]),\n",
       "   midi.NoteOnEvent(tick=10464, channel=2, data=[84, 60]),\n",
       "   midi.NoteOnEvent(tick=10488, channel=2, data=[86, 68]),\n",
       "   midi.NoteOnEvent(tick=10512, channel=2, data=[84, 0]),\n",
       "   midi.NoteOnEvent(tick=10512, channel=2, data=[88, 51]),\n",
       "   midi.NoteOnEvent(tick=10524, channel=2, data=[86, 0]),\n",
       "   midi.NoteOnEvent(tick=10536, channel=2, data=[84, 77]),\n",
       "   midi.NoteOnEvent(tick=10540, channel=2, data=[88, 0]),\n",
       "   midi.NoteOnEvent(tick=10548, channel=2, data=[72, 0]),\n",
       "   midi.NoteOnEvent(tick=10552, channel=2, data=[91, 0]),\n",
       "   midi.NoteOnEvent(tick=10560, channel=2, data=[84, 0]),\n",
       "   midi.NoteOnEvent(tick=10560, channel=2, data=[86, 88]),\n",
       "   midi.NoteOnEvent(tick=10560, channel=2, data=[74, 88]),\n",
       "   midi.NoteOnEvent(tick=10584, channel=2, data=[81, 77]),\n",
       "   midi.NoteOnEvent(tick=10588, channel=2, data=[86, 0]),\n",
       "   midi.NoteOnEvent(tick=10608, channel=2, data=[86, 68]),\n",
       "   midi.NoteOnEvent(tick=10632, channel=2, data=[81, 0]),\n",
       "   midi.NoteOnEvent(tick=10632, channel=2, data=[88, 60]),\n",
       "   midi.NoteOnEvent(tick=10656, channel=2, data=[88, 0]),\n",
       "   midi.NoteOnEvent(tick=10656, channel=2, data=[90, 100]),\n",
       "   midi.NoteOnEvent(tick=10660, channel=2, data=[86, 0]),\n",
       "   midi.NoteOnEvent(tick=10680, channel=2, data=[81, 77]),\n",
       "   midi.NoteOnEvent(tick=10704, channel=2, data=[86, 88]),\n",
       "   midi.NoteOnEvent(tick=10708, channel=2, data=[81, 0]),\n",
       "   midi.NoteOnEvent(tick=10728, channel=2, data=[90, 0]),\n",
       "   midi.NoteOnEvent(tick=10728, channel=2, data=[81, 100]),\n",
       "   midi.NoteOnEvent(tick=10740, channel=2, data=[86, 0]),\n",
       "   midi.NoteOnEvent(tick=10752, channel=2, data=[81, 0]),\n",
       "   midi.NoteOnEvent(tick=10752, channel=2, data=[74, 0]),\n",
       "   midi.NoteOnEvent(tick=10752, channel=2, data=[91, 100]),\n",
       "   midi.NoteOnEvent(tick=10776, channel=2, data=[84, 45]),\n",
       "   midi.NoteOnEvent(tick=10800, channel=2, data=[86, 68]),\n",
       "   midi.NoteOnEvent(tick=10824, channel=2, data=[88, 77]),\n",
       "   midi.NoteOnEvent(tick=10828, channel=2, data=[84, 0]),\n",
       "   midi.NoteOnEvent(tick=10832, channel=2, data=[86, 0]),\n",
       "   midi.NoteOnEvent(tick=10848, channel=2, data=[84, 60]),\n",
       "   midi.NoteOnEvent(tick=10856, channel=2, data=[88, 0]),\n",
       "   midi.NoteOnEvent(tick=10868, channel=2, data=[84, 0]),\n",
       "   midi.NoteOnEvent(tick=10872, channel=2, data=[86, 51]),\n",
       "   midi.NoteOnEvent(tick=10892, channel=2, data=[86, 0]),\n",
       "   midi.NoteOnEvent(tick=10896, channel=2, data=[83, 88]),\n",
       "   midi.NoteOnEvent(tick=10920, channel=2, data=[86, 88]),\n",
       "   midi.NoteOnEvent(tick=10924, channel=2, data=[83, 0]),\n",
       "   midi.NoteOnEvent(tick=10924, channel=2, data=[91, 0]),\n",
       "   midi.NoteOnEvent(tick=10944, channel=2, data=[91, 88]),\n",
       "   midi.NoteOnEvent(tick=10956, channel=2, data=[86, 0]),\n",
       "   midi.NoteOnEvent(tick=10968, channel=2, data=[83, 77]),\n",
       "   midi.NoteOnEvent(tick=10984, channel=2, data=[91, 0]),\n",
       "   midi.NoteOnEvent(tick=10992, channel=2, data=[86, 100]),\n",
       "   midi.NoteOnEvent(tick=10992, channel=2, data=[79, 51]),\n",
       "   midi.NoteOnEvent(tick=11000, channel=2, data=[83, 0]),\n",
       "   midi.NoteOnEvent(tick=11016, channel=2, data=[91, 77]),\n",
       "   midi.NoteOnEvent(tick=11028, channel=2, data=[79, 0]),\n",
       "   midi.NoteOnEvent(tick=11028, channel=2, data=[86, 0]),\n",
       "   midi.NoteOnEvent(tick=11040, channel=2, data=[74, 100]),\n",
       "   midi.NoteOnEvent(tick=11040, channel=2, data=[81, 100]),\n",
       "   midi.NoteOnEvent(tick=11048, channel=2, data=[91, 0]),\n",
       "   midi.NoteOnEvent(tick=11064, channel=2, data=[86, 77]),\n",
       "   midi.NoteOnEvent(tick=11084, channel=2, data=[81, 0]),\n",
       "   midi.NoteOnEvent(tick=11088, channel=2, data=[90, 100]),\n",
       "   midi.NoteOnEvent(tick=11100, channel=2, data=[86, 0]),\n",
       "   midi.NoteOnEvent(tick=11112, channel=2, data=[90, 0]),\n",
       "   midi.NoteOnEvent(tick=11112, channel=2, data=[81, 68]),\n",
       "   midi.NoteOnEvent(tick=11124, channel=2, data=[81, 0]),\n",
       "   midi.NoteOnEvent(tick=11128, channel=2, data=[74, 0]),\n",
       "   midi.PitchWheelEvent(tick=11136, channel=2, data=[0, 64]),\n",
       "   midi.NoteOnEvent(tick=11136, channel=2, data=[79, 100]),\n",
       "   midi.NoteOnEvent(tick=11136, channel=2, data=[95, 88]),\n",
       "   midi.NoteOnEvent(tick=11160, channel=2, data=[86, 68]),\n",
       "   midi.NoteOnEvent(tick=11184, channel=2, data=[95, 0]),\n",
       "   midi.NoteOnEvent(tick=11184, channel=2, data=[91, 88]),\n",
       "   midi.NoteOnEvent(tick=11208, channel=2, data=[86, 0]),\n",
       "   midi.NoteOnEvent(tick=11208, channel=2, data=[95, 88]),\n",
       "   midi.NoteOnEvent(tick=11224, channel=2, data=[91, 0]),\n",
       "   midi.NoteOnEvent(tick=11232, channel=2, data=[86, 77]),\n",
       "   midi.NoteOnEvent(tick=11252, channel=2, data=[95, 0]),\n",
       "   midi.NoteOnEvent(tick=11256, channel=2, data=[91, 77]),\n",
       "   midi.NoteOnEvent(tick=11272, channel=2, data=[86, 0]),\n",
       "   midi.NoteOnEvent(tick=11280, channel=2, data=[96, 88]),\n",
       "   midi.NoteOnEvent(tick=11304, channel=2, data=[86, 77]),\n",
       "   midi.NoteOnEvent(tick=11308, channel=2, data=[96, 0]),\n",
       "   midi.NoteOnEvent(tick=11328, channel=2, data=[98, 88]),\n",
       "   midi.NoteOnEvent(tick=11332, channel=2, data=[86, 0]),\n",
       "   midi.NoteOnEvent(tick=11352, channel=2, data=[91, 0]),\n",
       "   midi.NoteOnEvent(tick=11352, channel=2, data=[86, 77]),\n",
       "   midi.NoteOnEvent(tick=11376, channel=2, data=[91, 60]),\n",
       "   midi.NoteOnEvent(tick=11380, channel=2, data=[98, 0]),\n",
       "   midi.NoteOnEvent(tick=11400, channel=2, data=[86, 0]),\n",
       "   midi.NoteOnEvent(tick=11400, channel=2, data=[98, 68]),\n",
       "   midi.NoteOnEvent(tick=11412, channel=2, data=[98, 0]),\n",
       "   midi.NoteOnEvent(tick=11424, channel=2, data=[96, 88]),\n",
       "   midi.NoteOnEvent(tick=11444, channel=2, data=[96, 0]),\n",
       "   midi.NoteOnEvent(tick=11448, channel=2, data=[86, 68]),\n",
       "   midi.NoteOnEvent(tick=11472, channel=2, data=[86, 0]),\n",
       "   midi.NoteOnEvent(tick=11472, channel=2, data=[95, 77]),\n",
       "   midi.NoteOnEvent(tick=11496, channel=2, data=[86, 60]),\n",
       "   midi.NoteOnEvent(tick=11500, channel=2, data=[91, 0]),\n",
       "   midi.NoteOnEvent(tick=11504, channel=2, data=[95, 0]),\n",
       "   midi.NoteOnEvent(tick=11520, channel=2, data=[79, 0]),\n",
       "   midi.NoteOnEvent(tick=11520, channel=2, data=[74, 77]),\n",
       "   midi.NoteOnEvent(tick=11520, channel=2, data=[93, 88]),\n",
       "   midi.NoteOnEvent(tick=11520, channel=2, data=[74, 88]),\n",
       "   midi.NoteOnEvent(tick=11521, channel=2, data=[74, 0]),\n",
       "   midi.NoteOnEvent(tick=11524, channel=2, data=[86, 0]),\n",
       "   midi.NoteOnEvent(tick=11544, channel=2, data=[93, 0]),\n",
       "   midi.NoteOnEvent(tick=11544, channel=2, data=[86, 45]),\n",
       "   midi.NoteOnEvent(tick=11568, channel=2, data=[90, 68]),\n",
       "   midi.NoteOnEvent(tick=11592, channel=2, data=[86, 0]),\n",
       "   midi.NoteOnEvent(tick=11592, channel=2, data=[93, 77]),\n",
       "   midi.NoteOnEvent(tick=11596, channel=2, data=[90, 0]),\n",
       "   midi.NoteOnEvent(tick=11616, channel=2, data=[98, 88]),\n",
       "   midi.NoteOnEvent(tick=11620, channel=2, data=[93, 0]),\n",
       "   midi.NoteOnEvent(tick=11640, channel=2, data=[86, 68]),\n",
       "   midi.NoteOnEvent(tick=11644, channel=2, data=[98, 0]),\n",
       "   midi.NoteOnEvent(tick=11664, channel=2, data=[86, 0]),\n",
       "   midi.NoteOnEvent(tick=11664, channel=2, data=[95, 77]),\n",
       "   midi.NoteOnEvent(tick=11688, channel=2, data=[86, 51]),\n",
       "   midi.NoteOnEvent(tick=11692, channel=2, data=[95, 0]),\n",
       "   midi.NoteOnEvent(tick=11712, channel=2, data=[74, 0]),\n",
       "   midi.NoteOnEvent(tick=11712, channel=2, data=[96, 88]),\n",
       "   midi.NoteOnEvent(tick=11712, channel=2, data=[74, 68]),\n",
       "   midi.NoteOnEvent(tick=11720, channel=2, data=[86, 0]),\n",
       "   midi.NoteOnEvent(tick=11736, channel=2, data=[86, 68]),\n",
       "   midi.NoteOnEvent(tick=11760, channel=2, data=[90, 77]),\n",
       "   midi.NoteOnEvent(tick=11764, channel=2, data=[96, 0]),\n",
       "   midi.NoteOnEvent(tick=11784, channel=2, data=[93, 51]),\n",
       "   midi.NoteOnEvent(tick=11788, channel=2, data=[86, 0]),\n",
       "   midi.NoteOnEvent(tick=11792, channel=2, data=[90, 0]),\n",
       "   midi.NoteOnEvent(tick=11804, channel=2, data=[93, 0]),\n",
       "   midi.NoteOnEvent(tick=11808, channel=2, data=[95, 88]),\n",
       "   midi.NoteOnEvent(tick=11832, channel=2, data=[86, 45]),\n",
       "   midi.NoteOnEvent(tick=11848, channel=2, data=[95, 0]),\n",
       "   midi.NoteOnEvent(tick=11856, channel=2, data=[93, 77]),\n",
       "   midi.NoteOnEvent(tick=11860, channel=2, data=[86, 0]),\n",
       "   midi.NoteOnEvent(tick=11876, channel=2, data=[93, 0]),\n",
       "   midi.NoteOnEvent(tick=11880, channel=2, data=[86, 88]),\n",
       "   midi.NoteOnEvent(tick=11892, channel=2, data=[74, 0]),\n",
       "   midi.NoteOnEvent(tick=11904, channel=2, data=[91, 112]),\n",
       "   midi.NoteOnEvent(tick=11904, channel=2, data=[72, 68]),\n",
       "   midi.NoteOnEvent(tick=11908, channel=2, data=[86, 0]),\n",
       "   midi.NoteOnEvent(tick=11928, channel=2, data=[91, 0]),\n",
       "   midi.NoteOnEvent(tick=11928, channel=2, data=[84, 60]),\n",
       "   midi.NoteOnEvent(tick=11952, channel=2, data=[86, 68]),\n",
       "   midi.NoteOnEvent(tick=11976, channel=2, data=[84, 0]),\n",
       "   midi.NoteOnEvent(tick=11976, channel=2, data=[88, 60]),\n",
       "   midi.NoteOnEvent(tick=11980, channel=2, data=[86, 0]),\n",
       "   midi.NoteOnEvent(tick=12000, channel=2, data=[91, 100]),\n",
       "   midi.NoteOnEvent(tick=12008, channel=2, data=[88, 0]),\n",
       "   midi.NoteOnEvent(tick=12024, channel=2, data=[84, 60]),\n",
       "   midi.NoteOnEvent(tick=12048, channel=2, data=[86, 60]),\n",
       "   midi.NoteOnEvent(tick=12056, channel=2, data=[91, 0]),\n",
       "   midi.NoteOnEvent(tick=12060, channel=2, data=[84, 0]),\n",
       "   midi.NoteOnEvent(tick=12072, channel=2, data=[88, 51]),\n",
       "   midi.NoteOnEvent(tick=12076, channel=2, data=[86, 0]),\n",
       "   midi.NoteOnEvent(tick=12080, channel=2, data=[72, 0]),\n",
       "   midi.NoteOnEvent(tick=12092, channel=2, data=[88, 0]),\n",
       "   midi.NoteOnEvent(tick=12096, channel=2, data=[74, 88]),\n",
       "   midi.NoteOnEvent(tick=12096, channel=2, data=[86, 100]),\n",
       "   midi.NoteOnEvent(tick=12120, channel=2, data=[81, 68]),\n",
       "   midi.NoteOnEvent(tick=12124, channel=2, data=[86, 0]),\n",
       "   midi.NoteOnEvent(tick=12144, channel=2, data=[86, 68]),\n",
       "   midi.NoteOnEvent(tick=12156, channel=2, data=[81, 0]),\n",
       "   midi.NoteOnEvent(tick=12168, channel=2, data=[88, 68]),\n",
       "   midi.NoteOnEvent(tick=12188, channel=2, data=[86, 0]),\n",
       "   midi.NoteOnEvent(tick=12192, channel=2, data=[88, 0]),\n",
       "   midi.NoteOnEvent(tick=12192, channel=2, data=[90, 88]),\n",
       "   midi.NoteOnEvent(tick=12216, channel=2, data=[81, 68]),\n",
       "   midi.NoteOnEvent(tick=12240, channel=2, data=[81, 0]),\n",
       "   midi.NoteOnEvent(tick=12240, channel=2, data=[86, 88]),\n",
       "   midi.NoteOnEvent(tick=12256, channel=2, data=[90, 0]),\n",
       "   midi.NoteOnEvent(tick=12264, channel=2, data=[81, 100]),\n",
       "   midi.NoteOnEvent(tick=12272, channel=2, data=[86, 0]),\n",
       "   midi.NoteOnEvent(tick=12284, channel=2, data=[81, 0]),\n",
       "   midi.NoteOnEvent(tick=12288, channel=2, data=[74, 0]),\n",
       "   midi.NoteOnEvent(tick=12288, channel=2, data=[91, 100]),\n",
       "   midi.NoteOnEvent(tick=12288, channel=2, data=[79, 88]),\n",
       "   midi.NoteOnEvent(tick=12312, channel=2, data=[84, 60]),\n",
       "   midi.NoteOnEvent(tick=12336, channel=2, data=[86, 68]),\n",
       "   midi.NoteOnEvent(tick=12340, channel=2, data=[84, 0]),\n",
       "   midi.NoteOnEvent(tick=12360, channel=2, data=[86, 0]),\n",
       "   midi.NoteOnEvent(tick=12360, channel=2, data=[88, 51]),\n",
       "   midi.NoteOnEvent(tick=12384, channel=2, data=[84, 88]),\n",
       "   midi.NoteOnEvent(tick=12396, channel=2, data=[88, 0]),\n",
       "   midi.NoteOnEvent(tick=12408, channel=2, data=[84, 0]),\n",
       "   midi.NoteOnEvent(tick=12408, channel=2, data=[86, 60]),\n",
       "   midi.NoteOnEvent(tick=12428, channel=2, data=[86, 0]),\n",
       "   midi.NoteOnEvent(tick=12432, channel=2, data=[83, 100]),\n",
       "   midi.NoteOnEvent(tick=12456, channel=2, data=[86, 68]),\n",
       "   midi.NoteOnEvent(tick=12460, channel=2, data=[91, 0]),\n",
       "   midi.NoteOnEvent(tick=12480, channel=2, data=[83, 0]),\n",
       "   midi.NoteOnEvent(tick=12480, channel=2, data=[91, 88]),\n",
       "   midi.NoteOnEvent(tick=12504, channel=2, data=[86, 0]),\n",
       "   midi.NoteOnEvent(tick=12504, channel=2, data=[83, 60]),\n",
       "   midi.NoteOnEvent(tick=12528, channel=2, data=[86, 77]),\n",
       "   midi.NoteOnEvent(tick=12532, channel=2, data=[91, 0]),\n",
       "   midi.NoteOnEvent(tick=12552, channel=2, data=[83, 0]),\n",
       "   midi.NoteOnEvent(tick=12552, channel=2, data=[91, 100]),\n",
       "   midi.PitchWheelEvent(tick=12552, channel=2, data=[0, 62]),\n",
       "   midi.NoteOnEvent(tick=12572, channel=2, data=[86, 0]),\n",
       "   midi.PitchWheelEvent(tick=12576, channel=2, data=[0, 64]),\n",
       "   midi.NoteOnEvent(tick=12576, channel=2, data=[83, 77]),\n",
       "   midi.NoteOnEvent(tick=12600, channel=2, data=[91, 0]),\n",
       "   midi.NoteOnEvent(tick=12600, channel=2, data=[86, 77]),\n",
       "   midi.NoteOnEvent(tick=12624, channel=2, data=[91, 88]),\n",
       "   midi.NoteOnEvent(tick=12648, channel=2, data=[83, 0]),\n",
       "   midi.NoteOnEvent(tick=12652, channel=2, data=[79, 0]),\n",
       "   midi.NoteOnEvent(tick=12652, channel=2, data=[86, 0]),\n",
       "   midi.NoteOnEvent(tick=12652, channel=2, data=[91, 0]),\n",
       "   midi.NoteOnEvent(tick=20736, channel=2, data=[95, 88]),\n",
       "   midi.NoteOnEvent(tick=20736, channel=2, data=[79, 100]),\n",
       "   midi.NoteOnEvent(tick=20760, channel=2, data=[86, 60]),\n",
       "   midi.NoteOnEvent(tick=20776, channel=2, data=[95, 0]),\n",
       "   midi.NoteOnEvent(tick=20784, channel=2, data=[91, 68]),\n",
       "   midi.NoteOnEvent(tick=20804, channel=2, data=[86, 0]),\n",
       "   midi.NoteOnEvent(tick=20808, channel=2, data=[95, 88]),\n",
       "   midi.NoteOnEvent(tick=20812, channel=2, data=[91, 0]),\n",
       "   midi.NoteOnEvent(tick=20832, channel=2, data=[86, 88]),\n",
       "   midi.NoteOnEvent(tick=20856, channel=2, data=[95, 0]),\n",
       "   midi.NoteOnEvent(tick=20856, channel=2, data=[91, 77]),\n",
       "   midi.NoteOnEvent(tick=20880, channel=2, data=[96, 77]),\n",
       "   midi.NoteOnEvent(tick=20884, channel=2, data=[86, 0]),\n",
       "   midi.NoteOnEvent(tick=20896, channel=2, data=[91, 0]),\n",
       "   midi.NoteOnEvent(tick=20904, channel=2, data=[96, 0]),\n",
       "   midi.NoteOnEvent(tick=20904, channel=2, data=[86, 88]),\n",
       "   midi.NoteOnEvent(tick=20928, channel=2, data=[86, 0]),\n",
       "   midi.NoteOnEvent(tick=20928, channel=2, data=[91, 33]),\n",
       "   midi.NoteOnEvent(tick=20928, channel=2, data=[98, 88]),\n",
       "   midi.NoteOnEvent(tick=20948, channel=2, data=[91, 0]),\n",
       "   midi.NoteOnEvent(tick=20952, channel=2, data=[86, 88]),\n",
       "   midi.NoteOnEvent(tick=20976, channel=2, data=[98, 0]),\n",
       "   midi.NoteOnEvent(tick=20976, channel=2, data=[91, 68]),\n",
       "   midi.NoteOnEvent(tick=20996, channel=2, data=[86, 0]),\n",
       "   midi.NoteOnEvent(tick=21000, channel=2, data=[98, 68]),\n",
       "   midi.NoteOnEvent(tick=21012, channel=2, data=[98, 0]),\n",
       "   midi.NoteOnEvent(tick=21024, channel=2, data=[96, 88]),\n",
       "   midi.NoteOnEvent(tick=21044, channel=2, data=[96, 0]),\n",
       "   midi.NoteOnEvent(tick=21048, channel=2, data=[86, 77]),\n",
       "   midi.NoteOnEvent(tick=21072, channel=2, data=[86, 0]),\n",
       "   midi.NoteOnEvent(tick=21072, channel=2, data=[95, 77]),\n",
       "   midi.NoteOnEvent(tick=21096, channel=2, data=[86, 60]),\n",
       "   midi.NoteOnEvent(tick=21100, channel=2, data=[91, 0]),\n",
       "   midi.NoteOnEvent(tick=21104, channel=2, data=[95, 0]),\n",
       "   midi.NoteOnEvent(tick=21116, channel=2, data=[79, 0]),\n",
       "   midi.NoteOnEvent(tick=21120, channel=2, data=[93, 88]),\n",
       "   midi.NoteOnEvent(tick=21120, channel=2, data=[74, 77]),\n",
       "   midi.NoteOnEvent(tick=21124, channel=2, data=[86, 0]),\n",
       "   midi.NoteOnEvent(tick=21144, channel=2, data=[86, 51]),\n",
       "   midi.NoteOnEvent(tick=21148, channel=2, data=[93, 0]),\n",
       "   midi.NoteOnEvent(tick=21168, channel=2, data=[90, 77]),\n",
       "   midi.NoteOnEvent(tick=21188, channel=2, data=[86, 0]),\n",
       "   midi.NoteOnEvent(tick=21192, channel=2, data=[93, 68]),\n",
       "   midi.NoteOnEvent(tick=21204, channel=2, data=[90, 0]),\n",
       "   midi.NoteOnEvent(tick=21208, channel=2, data=[93, 0]),\n",
       "   midi.NoteOnEvent(tick=21216, channel=2, data=[93, 88]),\n",
       "   midi.NoteOnEvent(tick=21240, channel=2, data=[86, 60]),\n",
       "   midi.NoteOnEvent(tick=21248, channel=2, data=[93, 0]),\n",
       "   midi.NoteOnEvent(tick=21264, channel=2, data=[95, 88]),\n",
       "   midi.NoteOnEvent(tick=21268, channel=2, data=[86, 0]),\n",
       "   midi.NoteOnEvent(tick=21288, channel=2, data=[95, 0]),\n",
       "   midi.NoteOnEvent(tick=21288, channel=2, data=[86, 45]),\n",
       "   midi.NoteOnEvent(tick=21312, channel=2, data=[96, 100]),\n",
       "   midi.NoteOnEvent(tick=21316, channel=2, data=[86, 0]),\n",
       "   midi.NoteOnEvent(tick=21336, channel=2, data=[96, 0]),\n",
       "   midi.NoteOnEvent(tick=21336, channel=2, data=[86, 88]),\n",
       "   midi.NoteOnEvent(tick=21360, channel=2, data=[96, 77]),\n",
       "   midi.NoteOnEvent(tick=21364, channel=2, data=[86, 0]),\n",
       "   midi.NoteOnEvent(tick=21384, channel=2, data=[86, 77]),\n",
       "   midi.NoteOnEvent(tick=21388, channel=2, data=[96, 0]),\n",
       "   midi.NoteOnEvent(tick=21408, channel=2, data=[86, 0]),\n",
       "   midi.NoteOnEvent(tick=21408, channel=2, data=[95, 77]),\n",
       "   midi.NoteOnEvent(tick=21432, channel=2, data=[86, 60]),\n",
       "   midi.NoteOnEvent(tick=21440, channel=2, data=[95, 0]),\n",
       "   midi.NoteOnEvent(tick=21456, channel=2, data=[86, 0]),\n",
       "   midi.NoteOnEvent(tick=21456, channel=2, data=[93, 88]),\n",
       "   midi.NoteOnEvent(tick=21480, channel=2, data=[93, 0]),\n",
       "   midi.NoteOnEvent(tick=21480, channel=2, data=[86, 77]),\n",
       "   midi.NoteOnEvent(tick=21492, channel=2, data=[74, 0]),\n",
       "   midi.NoteOnEvent(tick=21504, channel=2, data=[91, 112]),\n",
       "   midi.NoteOnEvent(tick=21504, channel=2, data=[72, 77]),\n",
       "   midi.NoteOnEvent(tick=21508, channel=2, data=[86, 0]),\n",
       "   midi.NoteOnEvent(tick=21528, channel=2, data=[84, 68]),\n",
       "   midi.NoteOnEvent(tick=21536, channel=2, data=[91, 0]),\n",
       "   midi.NoteOnEvent(tick=21552, channel=2, data=[86, 77]),\n",
       "   midi.NoteOnEvent(tick=21576, channel=2, data=[84, 0]),\n",
       "   midi.NoteOnEvent(tick=21576, channel=2, data=[91, 88]),\n",
       "   midi.NoteOnEvent(tick=21588, channel=2, data=[86, 0]),\n",
       "   midi.NoteOnEvent(tick=21600, channel=2, data=[84, 60]),\n",
       "   midi.NoteOnEvent(tick=21624, channel=2, data=[86, 68]),\n",
       "   midi.NoteOnEvent(tick=21648, channel=2, data=[84, 0]),\n",
       "   midi.NoteOnEvent(tick=21648, channel=2, data=[88, 51]),\n",
       "   midi.NoteOnEvent(tick=21660, channel=2, data=[86, 0]),\n",
       "   midi.NoteOnEvent(tick=21672, channel=2, data=[84, 77]),\n",
       "   midi.NoteOnEvent(tick=21676, channel=2, data=[88, 0]),\n",
       "   midi.NoteOnEvent(tick=21684, channel=2, data=[72, 0]),\n",
       "   midi.NoteOnEvent(tick=21688, channel=2, data=[91, 0]),\n",
       "   midi.NoteOnEvent(tick=21696, channel=2, data=[84, 0]),\n",
       "   midi.NoteOnEvent(tick=21696, channel=2, data=[86, 88]),\n",
       "   midi.NoteOnEvent(tick=21696, channel=2, data=[74, 88]),\n",
       "   midi.NoteOnEvent(tick=21720, channel=2, data=[81, 77]),\n",
       "   midi.NoteOnEvent(tick=21724, channel=2, data=[86, 0]),\n",
       "   midi.NoteOnEvent(tick=21744, channel=2, data=[86, 68]),\n",
       "   midi.NoteOnEvent(tick=21768, channel=2, data=[81, 0]),\n",
       "   midi.NoteOnEvent(tick=21768, channel=2, data=[88, 60]),\n",
       "   midi.NoteOnEvent(tick=21792, channel=2, data=[88, 0]),\n",
       "   midi.NoteOnEvent(tick=21792, channel=2, data=[90, 100]),\n",
       "   midi.NoteOnEvent(tick=21796, channel=2, data=[86, 0]),\n",
       "   midi.NoteOnEvent(tick=21816, channel=2, data=[81, 77]),\n",
       "   midi.NoteOnEvent(tick=21840, channel=2, data=[86, 88]),\n",
       "   midi.NoteOnEvent(tick=21844, channel=2, data=[81, 0]),\n",
       "   midi.NoteOnEvent(tick=21864, channel=2, data=[90, 0]),\n",
       "   midi.NoteOnEvent(tick=21864, channel=2, data=[81, 100]),\n",
       "   midi.NoteOnEvent(tick=21876, channel=2, data=[86, 0]),\n",
       "   midi.NoteOnEvent(tick=21888, channel=2, data=[81, 0]),\n",
       "   midi.NoteOnEvent(tick=21888, channel=2, data=[74, 0]),\n",
       "   midi.NoteOnEvent(tick=21888, channel=2, data=[91, 100]),\n",
       "   midi.NoteOnEvent(tick=21912, channel=2, data=[84, 45]),\n",
       "   midi.NoteOnEvent(tick=21936, channel=2, data=[86, 68]),\n",
       "   midi.NoteOnEvent(tick=21960, channel=2, data=[88, 77]),\n",
       "   midi.NoteOnEvent(tick=21964, channel=2, data=[84, 0]),\n",
       "   midi.NoteOnEvent(tick=21968, channel=2, data=[86, 0]),\n",
       "   midi.NoteOnEvent(tick=21984, channel=2, data=[84, 60]),\n",
       "   midi.NoteOnEvent(tick=21992, channel=2, data=[88, 0]),\n",
       "   midi.NoteOnEvent(tick=22004, channel=2, data=[84, 0]),\n",
       "   midi.NoteOnEvent(tick=22008, channel=2, data=[86, 51]),\n",
       "   midi.NoteOnEvent(tick=22028, channel=2, data=[86, 0]),\n",
       "   midi.NoteOnEvent(tick=22032, channel=2, data=[83, 88]),\n",
       "   midi.NoteOnEvent(tick=22056, channel=2, data=[86, 88]),\n",
       "   midi.NoteOnEvent(tick=22060, channel=2, data=[83, 0]),\n",
       "   midi.NoteOnEvent(tick=22060, channel=2, data=[91, 0]),\n",
       "   midi.NoteOnEvent(tick=22080, channel=2, data=[91, 88]),\n",
       "   midi.NoteOnEvent(tick=22092, channel=2, data=[86, 0]),\n",
       "   midi.NoteOnEvent(tick=22104, channel=2, data=[83, 77]),\n",
       "   midi.NoteOnEvent(tick=22120, channel=2, data=[91, 0]),\n",
       "   midi.NoteOnEvent(tick=22128, channel=2, data=[86, 100]),\n",
       "   midi.NoteOnEvent(tick=22128, channel=2, data=[79, 51]),\n",
       "   midi.NoteOnEvent(tick=22136, channel=2, data=[83, 0]),\n",
       "   midi.NoteOnEvent(tick=22152, channel=2, data=[91, 77]),\n",
       "   midi.NoteOnEvent(tick=22164, channel=2, data=[79, 0]),\n",
       "   midi.NoteOnEvent(tick=22164, channel=2, data=[86, 0]),\n",
       "   midi.NoteOnEvent(tick=22176, channel=2, data=[74, 100]),\n",
       "   midi.NoteOnEvent(tick=22176, channel=2, data=[81, 100]),\n",
       "   midi.NoteOnEvent(tick=22184, channel=2, data=[91, 0]),\n",
       "   midi.NoteOnEvent(tick=22200, channel=2, data=[86, 77]),\n",
       "   midi.NoteOnEvent(tick=22220, channel=2, data=[81, 0]),\n",
       "   midi.NoteOnEvent(tick=22224, channel=2, data=[90, 100]),\n",
       "   midi.NoteOnEvent(tick=22236, channel=2, data=[86, 0]),\n",
       "   midi.NoteOnEvent(tick=22248, channel=2, data=[90, 0]),\n",
       "   midi.NoteOnEvent(tick=22248, channel=2, data=[81, 68]),\n",
       "   midi.NoteOnEvent(tick=22260, channel=2, data=[81, 0]),\n",
       "   midi.NoteOnEvent(tick=22264, channel=2, data=[74, 0]),\n",
       "   midi.PitchWheelEvent(tick=22272, channel=2, data=[0, 64]),\n",
       "   midi.NoteOnEvent(tick=22272, channel=2, data=[79, 100]),\n",
       "   midi.NoteOnEvent(tick=22272, channel=2, data=[95, 88]),\n",
       "   midi.NoteOnEvent(tick=22296, channel=2, data=[86, 68]),\n",
       "   midi.NoteOnEvent(tick=22320, channel=2, data=[95, 0]),\n",
       "   midi.NoteOnEvent(tick=22320, channel=2, data=[91, 88]),\n",
       "   midi.NoteOnEvent(tick=22344, channel=2, data=[86, 0]),\n",
       "   midi.NoteOnEvent(tick=22344, channel=2, data=[95, 88]),\n",
       "   midi.NoteOnEvent(tick=22360, channel=2, data=[91, 0]),\n",
       "   midi.NoteOnEvent(tick=22368, channel=2, data=[86, 77]),\n",
       "   midi.NoteOnEvent(tick=22388, channel=2, data=[95, 0]),\n",
       "   midi.NoteOnEvent(tick=22392, channel=2, data=[91, 77]),\n",
       "   midi.NoteOnEvent(tick=22408, channel=2, data=[86, 0]),\n",
       "   midi.NoteOnEvent(tick=22416, channel=2, data=[96, 88]),\n",
       "   midi.NoteOnEvent(tick=22440, channel=2, data=[86, 77]),\n",
       "   midi.NoteOnEvent(tick=22444, channel=2, data=[96, 0]),\n",
       "   midi.NoteOnEvent(tick=22464, channel=2, data=[98, 88]),\n",
       "   midi.NoteOnEvent(tick=22468, channel=2, data=[86, 0]),\n",
       "   midi.NoteOnEvent(tick=22488, channel=2, data=[91, 0]),\n",
       "   midi.NoteOnEvent(tick=22488, channel=2, data=[86, 77]),\n",
       "   midi.NoteOnEvent(tick=22512, channel=2, data=[91, 60]),\n",
       "   midi.NoteOnEvent(tick=22516, channel=2, data=[98, 0]),\n",
       "   midi.NoteOnEvent(tick=22536, channel=2, data=[86, 0]),\n",
       "   midi.NoteOnEvent(tick=22536, channel=2, data=[98, 68]),\n",
       "   midi.NoteOnEvent(tick=22548, channel=2, data=[98, 0]),\n",
       "   midi.NoteOnEvent(tick=22560, channel=2, data=[96, 88]),\n",
       "   midi.NoteOnEvent(tick=22580, channel=2, data=[96, 0]),\n",
       "   midi.NoteOnEvent(tick=22584, channel=2, data=[86, 68]),\n",
       "   midi.NoteOnEvent(tick=22608, channel=2, data=[86, 0]),\n",
       "   midi.NoteOnEvent(tick=22608, channel=2, data=[95, 77]),\n",
       "   midi.NoteOnEvent(tick=22632, channel=2, data=[86, 60]),\n",
       "   midi.NoteOnEvent(tick=22636, channel=2, data=[91, 0]),\n",
       "   midi.NoteOnEvent(tick=22640, channel=2, data=[95, 0]),\n",
       "   midi.NoteOnEvent(tick=22656, channel=2, data=[79, 0]),\n",
       "   midi.NoteOnEvent(tick=22656, channel=2, data=[74, 77]),\n",
       "   midi.NoteOnEvent(tick=22656, channel=2, data=[93, 88]),\n",
       "   midi.NoteOnEvent(tick=22656, channel=2, data=[74, 88]),\n",
       "   midi.NoteOnEvent(tick=22657, channel=2, data=[74, 0]),\n",
       "   midi.NoteOnEvent(tick=22660, channel=2, data=[86, 0]),\n",
       "   midi.NoteOnEvent(tick=22680, channel=2, data=[93, 0]),\n",
       "   midi.NoteOnEvent(tick=22680, channel=2, data=[86, 45]),\n",
       "   midi.NoteOnEvent(tick=22704, channel=2, data=[90, 68]),\n",
       "   midi.NoteOnEvent(tick=22728, channel=2, data=[86, 0]),\n",
       "   midi.NoteOnEvent(tick=22728, channel=2, data=[93, 77]),\n",
       "   midi.NoteOnEvent(tick=22732, channel=2, data=[90, 0]),\n",
       "   midi.NoteOnEvent(tick=22752, channel=2, data=[98, 88]),\n",
       "   midi.NoteOnEvent(tick=22756, channel=2, data=[93, 0]),\n",
       "   midi.NoteOnEvent(tick=22776, channel=2, data=[86, 68]),\n",
       "   midi.NoteOnEvent(tick=22780, channel=2, data=[98, 0]),\n",
       "   midi.NoteOnEvent(tick=22800, channel=2, data=[86, 0]),\n",
       "   midi.NoteOnEvent(tick=22800, channel=2, data=[95, 77]),\n",
       "   midi.NoteOnEvent(tick=22824, channel=2, data=[86, 51]),\n",
       "   midi.NoteOnEvent(tick=22828, channel=2, data=[95, 0]),\n",
       "   midi.NoteOnEvent(tick=22848, channel=2, data=[74, 0]),\n",
       "   midi.NoteOnEvent(tick=22848, channel=2, data=[96, 88]),\n",
       "   midi.NoteOnEvent(tick=22848, channel=2, data=[74, 68]),\n",
       "   midi.NoteOnEvent(tick=22856, channel=2, data=[86, 0]),\n",
       "   midi.NoteOnEvent(tick=22872, channel=2, data=[86, 68]),\n",
       "   midi.NoteOnEvent(tick=22896, channel=2, data=[90, 77]),\n",
       "   midi.NoteOnEvent(tick=22900, channel=2, data=[96, 0]),\n",
       "   midi.NoteOnEvent(tick=22920, channel=2, data=[93, 51]),\n",
       "   midi.NoteOnEvent(tick=22924, channel=2, data=[86, 0]),\n",
       "   midi.NoteOnEvent(tick=22928, channel=2, data=[90, 0]),\n",
       "   midi.NoteOnEvent(tick=22940, channel=2, data=[93, 0]),\n",
       "   midi.NoteOnEvent(tick=22944, channel=2, data=[95, 88]),\n",
       "   midi.NoteOnEvent(tick=22968, channel=2, data=[86, 45]),\n",
       "   midi.NoteOnEvent(tick=22984, channel=2, data=[95, 0]),\n",
       "   midi.NoteOnEvent(tick=22992, channel=2, data=[93, 77]),\n",
       "   midi.NoteOnEvent(tick=22996, channel=2, data=[86, 0]),\n",
       "   midi.NoteOnEvent(tick=23012, channel=2, data=[93, 0]),\n",
       "   midi.NoteOnEvent(tick=23016, channel=2, data=[86, 88]),\n",
       "   midi.NoteOnEvent(tick=23028, channel=2, data=[74, 0]),\n",
       "   midi.NoteOnEvent(tick=23040, channel=2, data=[91, 112]),\n",
       "   midi.NoteOnEvent(tick=23040, channel=2, data=[72, 68]),\n",
       "   midi.NoteOnEvent(tick=23044, channel=2, data=[86, 0]),\n",
       "   midi.NoteOnEvent(tick=23064, channel=2, data=[91, 0]),\n",
       "   midi.NoteOnEvent(tick=23064, channel=2, data=[84, 60]),\n",
       "   midi.NoteOnEvent(tick=23088, channel=2, data=[86, 68]),\n",
       "   midi.NoteOnEvent(tick=23112, channel=2, data=[84, 0]),\n",
       "   midi.NoteOnEvent(tick=23112, channel=2, data=[88, 60]),\n",
       "   midi.NoteOnEvent(tick=23116, channel=2, data=[86, 0]),\n",
       "   midi.NoteOnEvent(tick=23136, channel=2, data=[91, 100]),\n",
       "   midi.NoteOnEvent(tick=23144, channel=2, data=[88, 0]),\n",
       "   midi.NoteOnEvent(tick=23160, channel=2, data=[84, 60]),\n",
       "   midi.NoteOnEvent(tick=23184, channel=2, data=[86, 60]),\n",
       "   midi.NoteOnEvent(tick=23192, channel=2, data=[91, 0]),\n",
       "   midi.NoteOnEvent(tick=23196, channel=2, data=[84, 0]),\n",
       "   midi.NoteOnEvent(tick=23208, channel=2, data=[88, 51]),\n",
       "   midi.NoteOnEvent(tick=23212, channel=2, data=[86, 0]),\n",
       "   midi.NoteOnEvent(tick=23216, channel=2, data=[72, 0]),\n",
       "   midi.NoteOnEvent(tick=23228, channel=2, data=[88, 0]),\n",
       "   midi.NoteOnEvent(tick=23232, channel=2, data=[74, 88]),\n",
       "   midi.NoteOnEvent(tick=23232, channel=2, data=[86, 100]),\n",
       "   midi.NoteOnEvent(tick=23256, channel=2, data=[81, 68]),\n",
       "   midi.NoteOnEvent(tick=23260, channel=2, data=[86, 0]),\n",
       "   midi.NoteOnEvent(tick=23280, channel=2, data=[86, 68]),\n",
       "   midi.NoteOnEvent(tick=23292, channel=2, data=[81, 0]),\n",
       "   midi.NoteOnEvent(tick=23304, channel=2, data=[88, 68]),\n",
       "   midi.NoteOnEvent(tick=23324, channel=2, data=[86, 0]),\n",
       "   midi.NoteOnEvent(tick=23328, channel=2, data=[88, 0]),\n",
       "   midi.NoteOnEvent(tick=23328, channel=2, data=[90, 88]),\n",
       "   midi.NoteOnEvent(tick=23352, channel=2, data=[81, 68]),\n",
       "   midi.NoteOnEvent(tick=23376, channel=2, data=[81, 0]),\n",
       "   midi.NoteOnEvent(tick=23376, channel=2, data=[86, 88]),\n",
       "   midi.NoteOnEvent(tick=23392, channel=2, data=[90, 0]),\n",
       "   midi.NoteOnEvent(tick=23400, channel=2, data=[81, 100]),\n",
       "   midi.NoteOnEvent(tick=23408, channel=2, data=[86, 0]),\n",
       "   midi.NoteOnEvent(tick=23420, channel=2, data=[81, 0]),\n",
       "   midi.NoteOnEvent(tick=23424, channel=2, data=[74, 0]),\n",
       "   midi.NoteOnEvent(tick=23424, channel=2, data=[91, 100]),\n",
       "   midi.NoteOnEvent(tick=23424, channel=2, data=[79, 88]),\n",
       "   midi.NoteOnEvent(tick=23448, channel=2, data=[84, 60]),\n",
       "   midi.NoteOnEvent(tick=23472, channel=2, data=[86, 68]),\n",
       "   midi.NoteOnEvent(tick=23476, channel=2, data=[84, 0]),\n",
       "   midi.NoteOnEvent(tick=23496, channel=2, data=[86, 0]),\n",
       "   midi.NoteOnEvent(tick=23496, channel=2, data=[88, 51]),\n",
       "   midi.NoteOnEvent(tick=23520, channel=2, data=[84, 88]),\n",
       "   midi.NoteOnEvent(tick=23532, channel=2, data=[88, 0]),\n",
       "   midi.NoteOnEvent(tick=23544, channel=2, data=[84, 0]),\n",
       "   midi.NoteOnEvent(tick=23544, channel=2, data=[86, 60]),\n",
       "   midi.NoteOnEvent(tick=23564, channel=2, data=[86, 0]),\n",
       "   midi.NoteOnEvent(tick=23568, channel=2, data=[83, 100]),\n",
       "   midi.NoteOnEvent(tick=23592, channel=2, data=[86, 68]),\n",
       "   midi.NoteOnEvent(tick=23596, channel=2, data=[91, 0]),\n",
       "   midi.NoteOnEvent(tick=23616, channel=2, data=[83, 0]),\n",
       "   midi.NoteOnEvent(tick=23616, channel=2, data=[91, 88]),\n",
       "   midi.NoteOnEvent(tick=23640, channel=2, data=[86, 0]),\n",
       "   midi.NoteOnEvent(tick=23640, channel=2, data=[83, 60]),\n",
       "   midi.NoteOnEvent(tick=23664, channel=2, data=[86, 77]),\n",
       "   midi.NoteOnEvent(tick=23668, channel=2, data=[91, 0]),\n",
       "   midi.NoteOnEvent(tick=23688, channel=2, data=[83, 0]),\n",
       "   midi.NoteOnEvent(tick=23688, channel=2, data=[91, 100]),\n",
       "   midi.PitchWheelEvent(tick=23688, channel=2, data=[0, 62]),\n",
       "   midi.NoteOnEvent(tick=23708, channel=2, data=[86, 0]),\n",
       "   midi.PitchWheelEvent(tick=23712, channel=2, data=[0, 64]),\n",
       "   midi.NoteOnEvent(tick=23712, channel=2, data=[83, 77]),\n",
       "   midi.NoteOnEvent(tick=23736, channel=2, data=[91, 0]),\n",
       "   midi.NoteOnEvent(tick=23736, channel=2, data=[86, 77]),\n",
       "   midi.NoteOnEvent(tick=23760, channel=2, data=[91, 88]),\n",
       "   midi.NoteOnEvent(tick=23784, channel=2, data=[83, 0]),\n",
       "   midi.NoteOnEvent(tick=23788, channel=2, data=[79, 0]),\n",
       "   midi.NoteOnEvent(tick=23788, channel=2, data=[86, 0]),\n",
       "   midi.NoteOnEvent(tick=23788, channel=2, data=[91, 0]),\n",
       "   midi.EndOfTrackEvent(tick=23788, data=[])]),\n",
       " midi.Track(\\\n",
       "  [midi.PortEvent(tick=0, data=[0]),\n",
       "   midi.ProgramChangeEvent(tick=0, channel=3, data=[25]),\n",
       "   midi.ControlChangeEvent(tick=0, channel=3, data=[7, 115]),\n",
       "   midi.ControlChangeEvent(tick=0, channel=3, data=[10, 30]),\n",
       "   midi.ControlChangeEvent(tick=0, channel=3, data=[91, 91]),\n",
       "   midi.NoteOnEvent(tick=29952, channel=3, data=[67, 97]),\n",
       "   midi.NoteOnEvent(tick=29952, channel=3, data=[69, 97]),\n",
       "   midi.NoteOnEvent(tick=29952, channel=3, data=[72, 88]),\n",
       "   midi.NoteOnEvent(tick=29952, channel=3, data=[64, 80]),\n",
       "   midi.NoteOnEvent(tick=30064, channel=3, data=[69, 0]),\n",
       "   midi.NoteOnEvent(tick=30068, channel=3, data=[67, 0]),\n",
       "   midi.NoteOnEvent(tick=30068, channel=3, data=[72, 0]),\n",
       "   midi.NoteOnEvent(tick=30068, channel=3, data=[64, 0]),\n",
       "   midi.NoteOnEvent(tick=30096, channel=3, data=[71, 97]),\n",
       "   midi.NoteOnEvent(tick=30096, channel=3, data=[67, 108]),\n",
       "   midi.NoteOnEvent(tick=30096, channel=3, data=[62, 120]),\n",
       "   midi.PitchWheelEvent(tick=30192, channel=3, data=[0, 58]),\n",
       "   midi.PitchWheelEvent(tick=30192, channel=3, data=[0, 64]),\n",
       "   midi.NoteOnEvent(tick=30212, channel=3, data=[62, 0]),\n",
       "   midi.NoteOnEvent(tick=30220, channel=3, data=[67, 0]),\n",
       "   midi.NoteOnEvent(tick=30224, channel=3, data=[71, 0]),\n",
       "   midi.NoteOnEvent(tick=30240, channel=3, data=[69, 88]),\n",
       "   midi.NoteOnEvent(tick=30240, channel=3, data=[66, 108]),\n",
       "   midi.NoteOnEvent(tick=30240, channel=3, data=[62, 120]),\n",
       "   midi.NoteOnEvent(tick=30316, channel=3, data=[62, 0]),\n",
       "   midi.NoteOnEvent(tick=30324, channel=3, data=[66, 0]),\n",
       "   midi.NoteOnEvent(tick=30324, channel=3, data=[69, 0]),\n",
       "   midi.NoteOnEvent(tick=30336, channel=3, data=[67, 120]),\n",
       "   midi.NoteOnEvent(tick=30336, channel=3, data=[64, 88]),\n",
       "   midi.NoteOnEvent(tick=30336, channel=3, data=[60, 108]),\n",
       "   midi.NoteOnEvent(tick=30456, channel=3, data=[60, 0]),\n",
       "   midi.NoteOnEvent(tick=30456, channel=3, data=[64, 0]),\n",
       "   midi.NoteOnEvent(tick=30464, channel=3, data=[67, 0]),\n",
       "   midi.NoteOnEvent(tick=30480, channel=3, data=[67, 120]),\n",
       "   midi.NoteOnEvent(tick=30480, channel=3, data=[59, 120]),\n",
       "   midi.NoteOnEvent(tick=30480, channel=3, data=[62, 120]),\n",
       "   midi.NoteOnEvent(tick=30592, channel=3, data=[59, 0]),\n",
       "   midi.NoteOnEvent(tick=30596, channel=3, data=[62, 0]),\n",
       "   midi.NoteOnEvent(tick=30600, channel=3, data=[67, 0]),\n",
       "   midi.NoteOnEvent(tick=30624, channel=3, data=[62, 88]),\n",
       "   midi.NoteOnEvent(tick=30624, channel=3, data=[66, 88]),\n",
       "   midi.NoteOnEvent(tick=30624, channel=3, data=[57, 97]),\n",
       "   midi.NoteOnEvent(tick=30676, channel=3, data=[57, 0]),\n",
       "   midi.NoteOnEvent(tick=30684, channel=3, data=[66, 0]),\n",
       "   midi.NoteOnEvent(tick=30684, channel=3, data=[62, 0]),\n",
       "   midi.NoteOnEvent(tick=30720, channel=3, data=[69, 108]),\n",
       "   midi.NoteOnEvent(tick=30720, channel=3, data=[64, 108]),\n",
       "   midi.NoteOnEvent(tick=30720, channel=3, data=[72, 120]),\n",
       "   midi.NoteOnEvent(tick=30820, channel=3, data=[72, 0]),\n",
       "   midi.NoteOnEvent(tick=30820, channel=3, data=[69, 0]),\n",
       "   midi.NoteOnEvent(tick=30828, channel=3, data=[64, 0]),\n",
       "   midi.NoteOnEvent(tick=30864, channel=3, data=[62, 120]),\n",
       "   midi.NoteOnEvent(tick=30864, channel=3, data=[71, 97]),\n",
       "   midi.NoteOnEvent(tick=30864, channel=3, data=[67, 120]),\n",
       "   midi.PitchWheelEvent(tick=30984, channel=3, data=[0, 60]),\n",
       "   midi.NoteOnEvent(tick=30992, channel=3, data=[71, 0]),\n",
       "   midi.NoteOnEvent(tick=30996, channel=3, data=[67, 0]),\n",
       "   midi.NoteOnEvent(tick=30996, channel=3, data=[62, 0]),\n",
       "   midi.PitchWheelEvent(tick=31008, channel=3, data=[0, 64]),\n",
       "   midi.NoteOnEvent(tick=31008, channel=3, data=[69, 97]),\n",
       "   midi.NoteOnEvent(tick=31008, channel=3, data=[66, 108]),\n",
       "   midi.NoteOnEvent(tick=31008, channel=3, data=[62, 108]),\n",
       "   midi.PitchWheelEvent(tick=31008, channel=3, data=[0, 60]),\n",
       "   midi.PitchWheelEvent(tick=31032, channel=3, data=[0, 64]),\n",
       "   midi.NoteOnEvent(tick=31080, channel=3, data=[62, 0]),\n",
       "   midi.NoteOnEvent(tick=31084, channel=3, data=[66, 0]),\n",
       "   midi.NoteOnEvent(tick=31084, channel=3, data=[69, 0]),\n",
       "   midi.NoteOnEvent(tick=31104, channel=3, data=[60, 120]),\n",
       "   midi.NoteOnEvent(tick=31104, channel=3, data=[63, 97]),\n",
       "   midi.NoteOnEvent(tick=31105, channel=3, data=[63, 0]),\n",
       "   midi.NoteOnEvent(tick=31216, channel=3, data=[60, 0]),\n",
       "   midi.NoteOnEvent(tick=31248, channel=3, data=[67, 120]),\n",
       "   midi.NoteOnEvent(tick=31248, channel=3, data=[59, 108]),\n",
       "   midi.NoteOnEvent(tick=31248, channel=3, data=[62, 108]),\n",
       "   midi.NoteOnEvent(tick=31372, channel=3, data=[62, 0]),\n",
       "   midi.NoteOnEvent(tick=31376, channel=3, data=[59, 0]),\n",
       "   midi.NoteOnEvent(tick=31376, channel=3, data=[67, 0]),\n",
       "   midi.NoteOnEvent(tick=31392, channel=3, data=[66, 108]),\n",
       "   midi.NoteOnEvent(tick=31392, channel=3, data=[62, 97]),\n",
       "   midi.NoteOnEvent(tick=31392, channel=3, data=[57, 97]),\n",
       "   midi.NoteOnEvent(tick=31460, channel=3, data=[62, 0]),\n",
       "   midi.NoteOnEvent(tick=31464, channel=3, data=[57, 0]),\n",
       "   midi.NoteOnEvent(tick=31464, channel=3, data=[66, 0]),\n",
       "   midi.NoteOnEvent(tick=31488, channel=3, data=[60, 127]),\n",
       "   midi.NoteOnEvent(tick=31489, channel=3, data=[60, 0]),\n",
       "   midi.NoteOnEvent(tick=31512, channel=3, data=[62, 97]),\n",
       "   midi.NoteOnEvent(tick=31536, channel=3, data=[67, 80]),\n",
       "   midi.NoteOnEvent(tick=31560, channel=3, data=[72, 108]),\n",
       "   midi.NoteOnEvent(tick=31704, channel=3, data=[60, 97]),\n",
       "   midi.NoteOnEvent(tick=31708, channel=3, data=[62, 0]),\n",
       "   midi.NoteOnEvent(tick=31728, channel=3, data=[67, 0]),\n",
       "   midi.NoteOnEvent(tick=31728, channel=3, data=[62, 108]),\n",
       "   midi.NoteOnEvent(tick=31748, channel=3, data=[72, 0]),\n",
       "   midi.NoteOnEvent(tick=31752, channel=3, data=[67, 108]),\n",
       "   midi.PitchWheelEvent(tick=31752, channel=3, data=[0, 61]),\n",
       "   midi.PitchWheelEvent(tick=31752, channel=3, data=[0, 64]),\n",
       "   midi.NoteOnEvent(tick=31772, channel=3, data=[62, 0]),\n",
       "   midi.NoteOnEvent(tick=31776, channel=3, data=[72, 108]),\n",
       "   midi.NoteOnEvent(tick=31800, channel=3, data=[64, 88]),\n",
       "   midi.NoteOnEvent(tick=31856, channel=3, data=[60, 0]),\n",
       "   midi.NoteOnEvent(tick=31872, channel=3, data=[60, 97]),\n",
       "   midi.NoteOnEvent(tick=31880, channel=3, data=[64, 0]),\n",
       "   midi.NoteOnEvent(tick=31888, channel=3, data=[67, 0]),\n",
       "   midi.NoteOnEvent(tick=31888, channel=3, data=[72, 0]),\n",
       "   midi.NoteOnEvent(tick=31896, channel=3, data=[62, 120]),\n",
       "   midi.NoteOnEvent(tick=31920, channel=3, data=[67, 80]),\n",
       "   midi.NoteOnEvent(tick=31944, channel=3, data=[72, 108]),\n",
       "   midi.NoteOnEvent(tick=32068, channel=3, data=[60, 0]),\n",
       "   midi.NoteOnEvent(tick=32088, channel=3, data=[62, 0]),\n",
       "   midi.NoteOnEvent(tick=32088, channel=3, data=[60, 127]),\n",
       "   midi.NoteOnEvent(tick=32100, channel=3, data=[67, 0]),\n",
       "   midi.NoteOnEvent(tick=32112, channel=3, data=[62, 120]),\n",
       "   midi.NoteOnEvent(tick=32120, channel=3, data=[72, 0]),\n",
       "   midi.NoteOnEvent(tick=32136, channel=3, data=[67, 80]),\n",
       "   midi.NoteOnEvent(tick=32160, channel=3, data=[62, 0]),\n",
       "   midi.NoteOnEvent(tick=32160, channel=3, data=[72, 97]),\n",
       "   midi.NoteOnEvent(tick=32184, channel=3, data=[64, 97]),\n",
       "   midi.NoteOnEvent(tick=32240, channel=3, data=[60, 0]),\n",
       "   midi.NoteOnEvent(tick=32256, channel=3, data=[60, 127]),\n",
       "   midi.NoteOnEvent(tick=32264, channel=3, data=[64, 0]),\n",
       "   midi.NoteOnEvent(tick=32276, channel=3, data=[67, 0]),\n",
       "   midi.NoteOnEvent(tick=32280, channel=3, data=[62, 97]),\n",
       "   midi.NoteOnEvent(tick=32292, channel=3, data=[72, 0]),\n",
       "   midi.NoteOnEvent(tick=32304, channel=3, data=[67, 80]),\n",
       "   midi.NoteOnEvent(tick=32328, channel=3, data=[72, 120]),\n",
       "   midi.NoteOnEvent(tick=32456, channel=3, data=[60, 0]),\n",
       "   midi.NoteOnEvent(tick=32472, channel=3, data=[60, 127]),\n",
       "   midi.NoteOnEvent(tick=32476, channel=3, data=[62, 0]),\n",
       "   midi.NoteOnEvent(tick=32488, channel=3, data=[67, 0]),\n",
       "   midi.NoteOnEvent(tick=32496, channel=3, data=[62, 108]),\n",
       "   midi.NoteOnEvent(tick=32504, channel=3, data=[72, 0]),\n",
       "   midi.NoteOnEvent(tick=32520, channel=3, data=[67, 108]),\n",
       "   midi.NoteOnEvent(tick=32536, channel=3, data=[62, 0]),\n",
       "   midi.NoteOnEvent(tick=32544, channel=3, data=[72, 97]),\n",
       "   midi.NoteOnEvent(tick=32568, channel=3, data=[64, 108]),\n",
       "   midi.NoteOnEvent(tick=32616, channel=3, data=[60, 0]),\n",
       "   midi.NoteOnEvent(tick=32640, channel=3, data=[60, 127]),\n",
       "   midi.NoteOnEvent(tick=32644, channel=3, data=[64, 0]),\n",
       "   midi.NoteOnEvent(tick=32656, channel=3, data=[67, 0]),\n",
       "   midi.NoteOnEvent(tick=32664, channel=3, data=[62, 108]),\n",
       "   midi.NoteOnEvent(tick=32672, channel=3, data=[72, 0]),\n",
       "   midi.NoteOnEvent(tick=32688, channel=3, data=[67, 88]),\n",
       "   midi.NoteOnEvent(tick=32712, channel=3, data=[72, 120]),\n",
       "   midi.NoteOnEvent(tick=32848, channel=3, data=[60, 0]),\n",
       "   midi.NoteOnEvent(tick=32856, channel=3, data=[60, 120]),\n",
       "   midi.NoteOnEvent(tick=32864, channel=3, data=[62, 0]),\n",
       "   midi.NoteOnEvent(tick=32880, channel=3, data=[67, 0]),\n",
       "   midi.NoteOnEvent(tick=32880, channel=3, data=[62, 108]),\n",
       "   midi.NoteOnEvent(tick=32904, channel=3, data=[72, 0]),\n",
       "   midi.NoteOnEvent(tick=32904, channel=3, data=[67, 80]),\n",
       "   midi.NoteOnEvent(tick=32920, channel=3, data=[62, 0]),\n",
       "   midi.NoteOnEvent(tick=32928, channel=3, data=[72, 97]),\n",
       "   midi.NoteOnEvent(tick=32952, channel=3, data=[64, 97]),\n",
       "   midi.NoteOnEvent(tick=32988, channel=3, data=[60, 0]),\n",
       "   midi.NoteOnEvent(tick=33000, channel=3, data=[67, 0]),\n",
       "   midi.NoteOnEvent(tick=33000, channel=3, data=[72, 0]),\n",
       "   midi.NoteOnEvent(tick=33004, channel=3, data=[64, 0]),\n",
       "   midi.NoteOnEvent(tick=33024, channel=3, data=[71, 108]),\n",
       "   midi.NoteOnEvent(tick=33024, channel=3, data=[67, 120]),\n",
       "   midi.NoteOnEvent(tick=33024, channel=3, data=[55, 97]),\n",
       "   midi.NoteOnEvent(tick=33788, channel=3, data=[55, 0]),\n",
       "   midi.NoteOnEvent(tick=33788, channel=3, data=[67, 0]),\n",
       "   midi.NoteOnEvent(tick=33788, channel=3, data=[71, 0]),\n",
       "   midi.EndOfTrackEvent(tick=33788, data=[])]),\n",
       " midi.Track(\\\n",
       "  [midi.PortEvent(tick=0, data=[0]),\n",
       "   midi.ProgramChangeEvent(tick=0, channel=4, data=[33]),\n",
       "   midi.ControlChangeEvent(tick=0, channel=4, data=[7, 127]),\n",
       "   midi.ControlChangeEvent(tick=0, channel=4, data=[10, 64]),\n",
       "   midi.ControlChangeEvent(tick=0, channel=4, data=[91, 0]),\n",
       "   midi.NoteOnEvent(tick=384, channel=4, data=[33, 116]),\n",
       "   midi.NoteOnEvent(tick=444, channel=4, data=[33, 0]),\n",
       "   midi.NoteOnEvent(tick=456, channel=4, data=[33, 80]),\n",
       "   midi.NoteOnEvent(tick=457, channel=4, data=[33, 0]),\n",
       "   midi.NoteOnEvent(tick=480, channel=4, data=[33, 106]),\n",
       "   midi.NoteOnEvent(tick=500, channel=4, data=[33, 0]),\n",
       "   midi.NoteOnEvent(tick=528, channel=4, data=[31, 122]),\n",
       "   midi.NoteOnEvent(tick=704, channel=4, data=[31, 0]),\n",
       "   midi.NoteOnEvent(tick=720, channel=4, data=[31, 113]),\n",
       "   midi.NoteOnEvent(tick=740, channel=4, data=[31, 0]),\n",
       "   midi.NoteOnEvent(tick=768, channel=4, data=[28, 113]),\n",
       "   midi.NoteOnEvent(tick=828, channel=4, data=[28, 0]),\n",
       "   midi.NoteOnEvent(tick=840, channel=4, data=[28, 87]),\n",
       "   midi.NoteOnEvent(tick=844, channel=4, data=[28, 0]),\n",
       "   midi.NoteOnEvent(tick=864, channel=4, data=[28, 116]),\n",
       "   midi.NoteOnEvent(tick=888, channel=4, data=[28, 0]),\n",
       "   midi.NoteOnEvent(tick=912, channel=4, data=[26, 122]),\n",
       "   midi.NoteOnEvent(tick=1080, channel=4, data=[26, 0]),\n",
       "   midi.NoteOnEvent(tick=1104, channel=4, data=[26, 106]),\n",
       "   midi.NoteOnEvent(tick=1116, channel=4, data=[26, 0]),\n",
       "   midi.NoteOnEvent(tick=1128, channel=4, data=[26, 78]),\n",
       "   midi.NoteOnEvent(tick=1132, channel=4, data=[26, 0]),\n",
       "   midi.NoteOnEvent(tick=1152, channel=4, data=[33, 111]),\n",
       "   midi.NoteOnEvent(tick=1212, channel=4, data=[33, 0]),\n",
       "   midi.NoteOnEvent(tick=1224, channel=4, data=[33, 70]),\n",
       "   midi.NoteOnEvent(tick=1225, channel=4, data=[33, 0]),\n",
       "   midi.NoteOnEvent(tick=1248, channel=4, data=[33, 106]),\n",
       "   midi.NoteOnEvent(tick=1272, channel=4, data=[33, 0]),\n",
       "   midi.NoteOnEvent(tick=1296, channel=4, data=[31, 116]),\n",
       "   midi.NoteOnEvent(tick=1432, channel=4, data=[31, 0]),\n",
       "   midi.NoteOnEvent(tick=1440, channel=4, data=[26, 87]),\n",
       "   midi.NoteOnEvent(tick=1460, channel=4, data=[26, 0]),\n",
       "   midi.NoteOnEvent(tick=1464, channel=4, data=[28, 94]),\n",
       "   midi.NoteOnEvent(tick=1476, channel=4, data=[28, 0]),\n",
       "   midi.NoteOnEvent(tick=1488, channel=4, data=[31, 109]),\n",
       "   midi.NoteOnEvent(tick=1508, channel=4, data=[31, 0]),\n",
       "   midi.NoteOnEvent(tick=1536, channel=4, data=[33, 104]),\n",
       "   midi.NoteOnEvent(tick=1596, channel=4, data=[33, 0]),\n",
       "   midi.NoteOnEvent(tick=1632, channel=4, data=[33, 111]),\n",
       "   midi.NoteOnEvent(tick=1656, channel=4, data=[33, 0]),\n",
       "   midi.NoteOnEvent(tick=1680, channel=4, data=[31, 119]),\n",
       "   midi.NoteOnEvent(tick=1748, channel=4, data=[31, 0]),\n",
       "   midi.NoteOnEvent(tick=1776, channel=4, data=[31, 116]),\n",
       "   midi.NoteOnEvent(tick=1804, channel=4, data=[31, 0]),\n",
       "   midi.NoteOnEvent(tick=1824, channel=4, data=[26, 80]),\n",
       "   midi.NoteOnEvent(tick=1844, channel=4, data=[26, 0]),\n",
       "   midi.NoteOnEvent(tick=1848, channel=4, data=[28, 91]),\n",
       "   midi.NoteOnEvent(tick=1860, channel=4, data=[28, 0]),\n",
       "   midi.NoteOnEvent(tick=1872, channel=4, data=[31, 111]),\n",
       "   midi.NoteOnEvent(tick=1896, channel=4, data=[31, 0]),\n",
       "   midi.NoteOnEvent(tick=1920, channel=4, data=[33, 102]),\n",
       "   midi.NoteOnEvent(tick=1980, channel=4, data=[33, 0]),\n",
       "   midi.NoteOnEvent(tick=1992, channel=4, data=[33, 79]),\n",
       "   midi.NoteOnEvent(tick=1996, channel=4, data=[33, 0]),\n",
       "   midi.NoteOnEvent(tick=2016, channel=4, data=[33, 109]),\n",
       "   midi.NoteOnEvent(tick=2036, channel=4, data=[33, 0]),\n",
       "   midi.NoteOnEvent(tick=2064, channel=4, data=[31, 113]),\n",
       "   midi.NoteOnEvent(tick=2268, channel=4, data=[31, 0]),\n",
       "   midi.NoteOnEvent(tick=2280, channel=4, data=[26, 90]),\n",
       "   midi.NoteOnEvent(tick=2284, channel=4, data=[26, 0]),\n",
       "   midi.NoteOnEvent(tick=2304, channel=4, data=[28, 113]),\n",
       "   midi.NoteOnEvent(tick=2364, channel=4, data=[28, 0]),\n",
       "   midi.NoteOnEvent(tick=2376, channel=4, data=[28, 78]),\n",
       "   midi.NoteOnEvent(tick=2380, channel=4, data=[28, 0]),\n",
       "   midi.NoteOnEvent(tick=2400, channel=4, data=[28, 111]),\n",
       "   midi.NoteOnEvent(tick=2420, channel=4, data=[28, 0]),\n",
       "   midi.NoteOnEvent(tick=2448, channel=4, data=[26, 109]),\n",
       "   midi.NoteOnEvent(tick=2620, channel=4, data=[26, 0]),\n",
       "   midi.NoteOnEvent(tick=2640, channel=4, data=[26, 84]),\n",
       "   midi.NoteOnEvent(tick=2660, channel=4, data=[26, 0]),\n",
       "   midi.NoteOnEvent(tick=2664, channel=4, data=[28, 78]),\n",
       "   midi.NoteOnEvent(tick=2680, channel=4, data=[28, 0]),\n",
       "   midi.NoteOnEvent(tick=2688, channel=4, data=[33, 113]),\n",
       "   midi.NoteOnEvent(tick=2744, channel=4, data=[33, 0]),\n",
       "   midi.NoteOnEvent(tick=2760, channel=4, data=[33, 74]),\n",
       "   midi.NoteOnEvent(tick=2764, channel=4, data=[33, 0]),\n",
       "   midi.NoteOnEvent(tick=2784, channel=4, data=[33, 111]),\n",
       "   midi.NoteOnEvent(tick=2804, channel=4, data=[33, 0]),\n",
       "   midi.NoteOnEvent(tick=2832, channel=4, data=[31, 116]),\n",
       "   midi.NoteOnEvent(tick=2964, channel=4, data=[31, 0]),\n",
       "   midi.NoteOnEvent(tick=2976, channel=4, data=[26, 81]),\n",
       "   midi.NoteOnEvent(tick=2996, channel=4, data=[26, 0]),\n",
       "   midi.NoteOnEvent(tick=3000, channel=4, data=[28, 80]),\n",
       "   midi.NoteOnEvent(tick=3012, channel=4, data=[28, 0]),\n",
       "   midi.NoteOnEvent(tick=3024, channel=4, data=[31, 106]),\n",
       "   midi.NoteOnEvent(tick=3048, channel=4, data=[31, 0]),\n",
       "   midi.NoteOnEvent(tick=3072, channel=4, data=[24, 116]),\n",
       "   midi.NoteOnEvent(tick=3192, channel=4, data=[24, 0]),\n",
       "   midi.NoteOnEvent(tick=3216, channel=4, data=[24, 83]),\n",
       "   midi.NoteOnEvent(tick=3236, channel=4, data=[24, 0]),\n",
       "   midi.NoteOnEvent(tick=3240, channel=4, data=[26, 85]),\n",
       "   midi.NoteOnEvent(tick=3256, channel=4, data=[26, 0]),\n",
       "   midi.NoteOnEvent(tick=3264, channel=4, data=[31, 109]),\n",
       "   midi.NoteOnEvent(tick=3344, channel=4, data=[31, 0]),\n",
       "   midi.NoteOnEvent(tick=3360, channel=4, data=[26, 98]),\n",
       "   midi.NoteOnEvent(tick=3440, channel=4, data=[26, 0]),\n",
       "   midi.NoteOnEvent(tick=6528, channel=4, data=[33, 116]),\n",
       "   midi.NoteOnEvent(tick=6588, channel=4, data=[33, 0]),\n",
       "   midi.NoteOnEvent(tick=6600, channel=4, data=[33, 80]),\n",
       "   midi.NoteOnEvent(tick=6601, channel=4, data=[33, 0]),\n",
       "   midi.NoteOnEvent(tick=6624, channel=4, data=[33, 106]),\n",
       "   midi.NoteOnEvent(tick=6644, channel=4, data=[33, 0]),\n",
       "   midi.NoteOnEvent(tick=6672, channel=4, data=[31, 122]),\n",
       "   midi.NoteOnEvent(tick=6848, channel=4, data=[31, 0]),\n",
       "   midi.NoteOnEvent(tick=6864, channel=4, data=[31, 113]),\n",
       "   midi.NoteOnEvent(tick=6884, channel=4, data=[31, 0]),\n",
       "   midi.NoteOnEvent(tick=6912, channel=4, data=[28, 113]),\n",
       "   midi.NoteOnEvent(tick=6972, channel=4, data=[28, 0]),\n",
       "   midi.NoteOnEvent(tick=6984, channel=4, data=[28, 87]),\n",
       "   midi.NoteOnEvent(tick=6988, channel=4, data=[28, 0]),\n",
       "   midi.NoteOnEvent(tick=7008, channel=4, data=[28, 116]),\n",
       "   midi.NoteOnEvent(tick=7032, channel=4, data=[28, 0]),\n",
       "   midi.NoteOnEvent(tick=7056, channel=4, data=[26, 122]),\n",
       "   midi.NoteOnEvent(tick=7224, channel=4, data=[26, 0]),\n",
       "   midi.NoteOnEvent(tick=7248, channel=4, data=[26, 106]),\n",
       "   midi.NoteOnEvent(tick=7260, channel=4, data=[26, 0]),\n",
       "   midi.NoteOnEvent(tick=7272, channel=4, data=[26, 78]),\n",
       "   midi.NoteOnEvent(tick=7276, channel=4, data=[26, 0]),\n",
       "   midi.NoteOnEvent(tick=7296, channel=4, data=[33, 111]),\n",
       "   midi.NoteOnEvent(tick=7356, channel=4, data=[33, 0]),\n",
       "   midi.NoteOnEvent(tick=7368, channel=4, data=[33, 70]),\n",
       "   midi.NoteOnEvent(tick=7369, channel=4, data=[33, 0]),\n",
       "   midi.NoteOnEvent(tick=7392, channel=4, data=[33, 106]),\n",
       "   midi.NoteOnEvent(tick=7416, channel=4, data=[33, 0]),\n",
       "   midi.NoteOnEvent(tick=7440, channel=4, data=[31, 116]),\n",
       "   midi.NoteOnEvent(tick=7576, channel=4, data=[31, 0]),\n",
       "   midi.NoteOnEvent(tick=7584, channel=4, data=[26, 87]),\n",
       "   midi.NoteOnEvent(tick=7604, channel=4, data=[26, 0]),\n",
       "   midi.NoteOnEvent(tick=7608, channel=4, data=[28, 94]),\n",
       "   midi.NoteOnEvent(tick=7620, channel=4, data=[28, 0]),\n",
       "   midi.NoteOnEvent(tick=7632, channel=4, data=[31, 109]),\n",
       "   midi.NoteOnEvent(tick=7652, channel=4, data=[31, 0]),\n",
       "   midi.NoteOnEvent(tick=7680, channel=4, data=[33, 104]),\n",
       "   midi.NoteOnEvent(tick=7740, channel=4, data=[33, 0]),\n",
       "   midi.NoteOnEvent(tick=7776, channel=4, data=[33, 111]),\n",
       "   midi.NoteOnEvent(tick=7800, channel=4, data=[33, 0]),\n",
       "   midi.NoteOnEvent(tick=7824, channel=4, data=[31, 119]),\n",
       "   midi.NoteOnEvent(tick=7892, channel=4, data=[31, 0]),\n",
       "   midi.NoteOnEvent(tick=7920, channel=4, data=[31, 116]),\n",
       "   midi.NoteOnEvent(tick=7948, channel=4, data=[31, 0]),\n",
       "   midi.NoteOnEvent(tick=7968, channel=4, data=[26, 80]),\n",
       "   midi.NoteOnEvent(tick=7988, channel=4, data=[26, 0]),\n",
       "   midi.NoteOnEvent(tick=7992, channel=4, data=[28, 91]),\n",
       "   midi.NoteOnEvent(tick=8004, channel=4, data=[28, 0]),\n",
       "   midi.NoteOnEvent(tick=8016, channel=4, data=[31, 111]),\n",
       "   midi.NoteOnEvent(tick=8040, channel=4, data=[31, 0]),\n",
       "   midi.NoteOnEvent(tick=8064, channel=4, data=[33, 102]),\n",
       "   midi.NoteOnEvent(tick=8124, channel=4, data=[33, 0]),\n",
       "   midi.NoteOnEvent(tick=8136, channel=4, data=[33, 79]),\n",
       "   midi.NoteOnEvent(tick=8140, channel=4, data=[33, 0]),\n",
       "   midi.NoteOnEvent(tick=8160, channel=4, data=[33, 109]),\n",
       "   midi.NoteOnEvent(tick=8180, channel=4, data=[33, 0]),\n",
       "   midi.NoteOnEvent(tick=8208, channel=4, data=[31, 113]),\n",
       "   midi.NoteOnEvent(tick=8412, channel=4, data=[31, 0]),\n",
       "   midi.NoteOnEvent(tick=8424, channel=4, data=[26, 90]),\n",
       "   midi.NoteOnEvent(tick=8428, channel=4, data=[26, 0]),\n",
       "   midi.NoteOnEvent(tick=8448, channel=4, data=[28, 113]),\n",
       "   midi.NoteOnEvent(tick=8508, channel=4, data=[28, 0]),\n",
       "   midi.NoteOnEvent(tick=8520, channel=4, data=[28, 78]),\n",
       "   midi.NoteOnEvent(tick=8524, channel=4, data=[28, 0]),\n",
       "   midi.NoteOnEvent(tick=8544, channel=4, data=[28, 111]),\n",
       "   midi.NoteOnEvent(tick=8564, channel=4, data=[28, 0]),\n",
       "   midi.NoteOnEvent(tick=8592, channel=4, data=[26, 109]),\n",
       "   midi.NoteOnEvent(tick=8764, channel=4, data=[26, 0]),\n",
       "   midi.NoteOnEvent(tick=8784, channel=4, data=[26, 84]),\n",
       "   midi.NoteOnEvent(tick=8804, channel=4, data=[26, 0]),\n",
       "   midi.NoteOnEvent(tick=8808, channel=4, data=[28, 78]),\n",
       "   midi.NoteOnEvent(tick=8824, channel=4, data=[28, 0]),\n",
       "   midi.NoteOnEvent(tick=8832, channel=4, data=[33, 113]),\n",
       "   midi.NoteOnEvent(tick=8888, channel=4, data=[33, 0]),\n",
       "   midi.NoteOnEvent(tick=8904, channel=4, data=[33, 74]),\n",
       "   midi.NoteOnEvent(tick=8908, channel=4, data=[33, 0]),\n",
       "   midi.NoteOnEvent(tick=8928, channel=4, data=[33, 111]),\n",
       "   midi.NoteOnEvent(tick=8948, channel=4, data=[33, 0]),\n",
       "   midi.NoteOnEvent(tick=8976, channel=4, data=[31, 116]),\n",
       "   midi.NoteOnEvent(tick=9108, channel=4, data=[31, 0]),\n",
       "   midi.NoteOnEvent(tick=9120, channel=4, data=[26, 81]),\n",
       "   midi.NoteOnEvent(tick=9140, channel=4, data=[26, 0]),\n",
       "   midi.NoteOnEvent(tick=9144, channel=4, data=[28, 80]),\n",
       "   midi.NoteOnEvent(tick=9156, channel=4, data=[28, 0]),\n",
       "   midi.NoteOnEvent(tick=9168, channel=4, data=[31, 106]),\n",
       "   midi.NoteOnEvent(tick=9192, channel=4, data=[31, 0]),\n",
       "   midi.NoteOnEvent(tick=9216, channel=4, data=[24, 116]),\n",
       "   midi.NoteOnEvent(tick=9336, channel=4, data=[24, 0]),\n",
       "   midi.NoteOnEvent(tick=9360, channel=4, data=[24, 83]),\n",
       "   midi.NoteOnEvent(tick=9380, channel=4, data=[24, 0]),\n",
       "   midi.NoteOnEvent(tick=9384, channel=4, data=[26, 85]),\n",
       "   midi.NoteOnEvent(tick=9400, channel=4, data=[26, 0]),\n",
       "   midi.NoteOnEvent(tick=9408, channel=4, data=[31, 109]),\n",
       "   midi.NoteOnEvent(tick=9488, channel=4, data=[31, 0]),\n",
       "   midi.NoteOnEvent(tick=9504, channel=4, data=[26, 98]),\n",
       "   midi.NoteOnEvent(tick=9584, channel=4, data=[26, 0]),\n",
       "   midi.NoteOnEvent(tick=12576, channel=4, data=[26, 91]),\n",
       "   midi.NoteOnEvent(tick=12596, channel=4, data=[26, 0]),\n",
       "   midi.NoteOnEvent(tick=12600, channel=4, data=[28, 82]),\n",
       "   midi.NoteOnEvent(tick=12620, channel=4, data=[28, 0]),\n",
       "   midi.NoteOnEvent(tick=12624, channel=4, data=[31, 95]),\n",
       "   midi.NoteOnEvent(tick=12640, channel=4, data=[31, 0]),\n",
       "   midi.NoteOnEvent(tick=12648, channel=4, data=[28, 109]),\n",
       "   midi.NoteOnEvent(tick=12660, channel=4, data=[28, 0]),\n",
       "   midi.NoteOnEvent(tick=12672, channel=4, data=[33, 116]),\n",
       "   midi.NoteOnEvent(tick=12732, channel=4, data=[33, 0]),\n",
       "   midi.NoteOnEvent(tick=12744, channel=4, data=[33, 80]),\n",
       "   midi.NoteOnEvent(tick=12745, channel=4, data=[33, 0]),\n",
       "   midi.NoteOnEvent(tick=12768, channel=4, data=[33, 106]),\n",
       "   midi.NoteOnEvent(tick=12788, channel=4, data=[33, 0]),\n",
       "   midi.NoteOnEvent(tick=12816, channel=4, data=[31, 122]),\n",
       "   midi.NoteOnEvent(tick=12992, channel=4, data=[31, 0]),\n",
       "   midi.NoteOnEvent(tick=13008, channel=4, data=[31, 113]),\n",
       "   midi.NoteOnEvent(tick=13028, channel=4, data=[31, 0]),\n",
       "   midi.NoteOnEvent(tick=13056, channel=4, data=[28, 113]),\n",
       "   midi.NoteOnEvent(tick=13116, channel=4, data=[28, 0]),\n",
       "   midi.NoteOnEvent(tick=13128, channel=4, data=[28, 87]),\n",
       "   midi.NoteOnEvent(tick=13132, channel=4, data=[28, 0]),\n",
       "   midi.NoteOnEvent(tick=13152, channel=4, data=[28, 116]),\n",
       "   midi.NoteOnEvent(tick=13176, channel=4, data=[28, 0]),\n",
       "   midi.NoteOnEvent(tick=13200, channel=4, data=[26, 122]),\n",
       "   midi.NoteOnEvent(tick=13368, channel=4, data=[26, 0]),\n",
       "   midi.NoteOnEvent(tick=13392, channel=4, data=[26, 106]),\n",
       "   midi.NoteOnEvent(tick=13404, channel=4, data=[26, 0]),\n",
       "   midi.NoteOnEvent(tick=13416, channel=4, data=[26, 78]),\n",
       "   midi.NoteOnEvent(tick=13420, channel=4, data=[26, 0]),\n",
       "   midi.NoteOnEvent(tick=13440, channel=4, data=[33, 111]),\n",
       "   midi.NoteOnEvent(tick=13500, channel=4, data=[33, 0]),\n",
       "   midi.NoteOnEvent(tick=13512, channel=4, data=[33, 70]),\n",
       "   midi.NoteOnEvent(tick=13513, channel=4, data=[33, 0]),\n",
       "   midi.NoteOnEvent(tick=13536, channel=4, data=[33, 106]),\n",
       "   midi.NoteOnEvent(tick=13560, channel=4, data=[33, 0]),\n",
       "   midi.NoteOnEvent(tick=13584, channel=4, data=[31, 116]),\n",
       "   midi.NoteOnEvent(tick=13720, channel=4, data=[31, 0]),\n",
       "   midi.NoteOnEvent(tick=13728, channel=4, data=[26, 87]),\n",
       "   midi.NoteOnEvent(tick=13748, channel=4, data=[26, 0]),\n",
       "   midi.NoteOnEvent(tick=13752, channel=4, data=[28, 94]),\n",
       "   midi.NoteOnEvent(tick=13764, channel=4, data=[28, 0]),\n",
       "   midi.NoteOnEvent(tick=13776, channel=4, data=[31, 109]),\n",
       "   midi.NoteOnEvent(tick=13796, channel=4, data=[31, 0]),\n",
       "   midi.NoteOnEvent(tick=13824, channel=4, data=[33, 104]),\n",
       "   midi.NoteOnEvent(tick=13884, channel=4, data=[33, 0]),\n",
       "   midi.NoteOnEvent(tick=13920, channel=4, data=[33, 111]),\n",
       "   midi.NoteOnEvent(tick=13944, channel=4, data=[33, 0]),\n",
       "   midi.NoteOnEvent(tick=13968, channel=4, data=[31, 119]),\n",
       "   midi.NoteOnEvent(tick=14036, channel=4, data=[31, 0]),\n",
       "   midi.NoteOnEvent(tick=14064, channel=4, data=[31, 116]),\n",
       "   midi.NoteOnEvent(tick=14092, channel=4, data=[31, 0]),\n",
       "   midi.NoteOnEvent(tick=14112, channel=4, data=[26, 80]),\n",
       "   midi.NoteOnEvent(tick=14132, channel=4, data=[26, 0]),\n",
       "   midi.NoteOnEvent(tick=14136, channel=4, data=[28, 91]),\n",
       "   midi.NoteOnEvent(tick=14148, channel=4, data=[28, 0]),\n",
       "   midi.NoteOnEvent(tick=14160, channel=4, data=[31, 111]),\n",
       "   midi.NoteOnEvent(tick=14184, channel=4, data=[31, 0]),\n",
       "   midi.NoteOnEvent(tick=14208, channel=4, data=[33, 102]),\n",
       "   midi.NoteOnEvent(tick=14268, channel=4, data=[33, 0]),\n",
       "   midi.NoteOnEvent(tick=14280, channel=4, data=[33, 79]),\n",
       "   midi.NoteOnEvent(tick=14284, channel=4, data=[33, 0]),\n",
       "   midi.NoteOnEvent(tick=14304, channel=4, data=[33, 109]),\n",
       "   midi.NoteOnEvent(tick=14324, channel=4, data=[33, 0]),\n",
       "   midi.NoteOnEvent(tick=14352, channel=4, data=[31, 113]),\n",
       "   midi.NoteOnEvent(tick=14556, channel=4, data=[31, 0]),\n",
       "   midi.NoteOnEvent(tick=14568, channel=4, data=[26, 90]),\n",
       "   midi.NoteOnEvent(tick=14572, channel=4, data=[26, 0]),\n",
       "   midi.NoteOnEvent(tick=14592, channel=4, data=[28, 113]),\n",
       "   midi.NoteOnEvent(tick=14652, channel=4, data=[28, 0]),\n",
       "   midi.NoteOnEvent(tick=14664, channel=4, data=[28, 78]),\n",
       "   midi.NoteOnEvent(tick=14668, channel=4, data=[28, 0]),\n",
       "   midi.NoteOnEvent(tick=14688, channel=4, data=[28, 111]),\n",
       "   midi.NoteOnEvent(tick=14708, channel=4, data=[28, 0]),\n",
       "   midi.NoteOnEvent(tick=14736, channel=4, data=[26, 109]),\n",
       "   midi.NoteOnEvent(tick=14908, channel=4, data=[26, 0]),\n",
       "   midi.NoteOnEvent(tick=14928, channel=4, data=[26, 84]),\n",
       "   midi.NoteOnEvent(tick=14948, channel=4, data=[26, 0]),\n",
       "   midi.NoteOnEvent(tick=14952, channel=4, data=[28, 78]),\n",
       "   midi.NoteOnEvent(tick=14968, channel=4, data=[28, 0]),\n",
       "   midi.NoteOnEvent(tick=14976, channel=4, data=[33, 113]),\n",
       "   midi.NoteOnEvent(tick=15032, channel=4, data=[33, 0]),\n",
       "   midi.NoteOnEvent(tick=15048, channel=4, data=[33, 74]),\n",
       "   midi.NoteOnEvent(tick=15052, channel=4, data=[33, 0]),\n",
       "   midi.NoteOnEvent(tick=15072, channel=4, data=[33, 111]),\n",
       "   midi.NoteOnEvent(tick=15092, channel=4, data=[33, 0]),\n",
       "   midi.NoteOnEvent(tick=15120, channel=4, data=[31, 116]),\n",
       "   midi.NoteOnEvent(tick=15252, channel=4, data=[31, 0]),\n",
       "   midi.NoteOnEvent(tick=15264, channel=4, data=[26, 81]),\n",
       "   midi.NoteOnEvent(tick=15284, channel=4, data=[26, 0]),\n",
       "   midi.NoteOnEvent(tick=15288, channel=4, data=[28, 80]),\n",
       "   midi.NoteOnEvent(tick=15300, channel=4, data=[28, 0]),\n",
       "   midi.NoteOnEvent(tick=15312, channel=4, data=[31, 106]),\n",
       "   midi.NoteOnEvent(tick=15336, channel=4, data=[31, 0]),\n",
       "   midi.NoteOnEvent(tick=15360, channel=4, data=[24, 116]),\n",
       "   midi.NoteOnEvent(tick=15480, channel=4, data=[24, 0]),\n",
       "   midi.NoteOnEvent(tick=15504, channel=4, data=[24, 83]),\n",
       "   midi.NoteOnEvent(tick=15524, channel=4, data=[24, 0]),\n",
       "   midi.NoteOnEvent(tick=15528, channel=4, data=[26, 85]),\n",
       "   midi.NoteOnEvent(tick=15544, channel=4, data=[26, 0]),\n",
       "   midi.NoteOnEvent(tick=15552, channel=4, data=[31, 109]),\n",
       "   midi.NoteOnEvent(tick=15632, channel=4, data=[31, 0]),\n",
       "   midi.NoteOnEvent(tick=15648, channel=4, data=[26, 98]),\n",
       "   midi.NoteOnEvent(tick=15728, channel=4, data=[26, 0]),\n",
       "   midi.NoteOnEvent(tick=15744, channel=4, data=[29, 113]),\n",
       "   midi.NoteOnEvent(tick=15868, channel=4, data=[29, 0]),\n",
       "   midi.NoteOnEvent(tick=15888, channel=4, data=[24, 113]),\n",
       "   midi.NoteOnEvent(tick=16100, channel=4, data=[24, 0]),\n",
       "   midi.NoteOnEvent(tick=16128, channel=4, data=[23, 109]),\n",
       "   midi.NoteOnEvent(tick=16252, channel=4, data=[23, 0]),\n",
       "   midi.NoteOnEvent(tick=16272, channel=4, data=[28, 113]),\n",
       "   midi.NoteOnEvent(tick=16360, channel=4, data=[28, 0]),\n",
       "   midi.NoteOnEvent(tick=16368, channel=4, data=[24, 111]),\n",
       "   midi.NoteOnEvent(tick=16396, channel=4, data=[24, 0]),\n",
       "   midi.NoteOnEvent(tick=16416, channel=4, data=[26, 113]),\n",
       "   midi.NoteOnEvent(tick=16496, channel=4, data=[26, 0]),\n",
       "   midi.NoteOnEvent(tick=16512, channel=4, data=[29, 122]),\n",
       "   midi.NoteOnEvent(tick=16628, channel=4, data=[29, 0]),\n",
       "   midi.NoteOnEvent(tick=16656, channel=4, data=[24, 125]),\n",
       "   midi.NoteOnEvent(tick=16864, channel=4, data=[24, 0]),\n",
       "   midi.NoteOnEvent(tick=16896, channel=4, data=[23, 102]),\n",
       "   midi.NoteOnEvent(tick=17024, channel=4, data=[23, 0]),\n",
       "   midi.NoteOnEvent(tick=17040, channel=4, data=[28, 119]),\n",
       "   midi.NoteOnEvent(tick=17124, channel=4, data=[28, 0]),\n",
       "   midi.NoteOnEvent(tick=17136, channel=4, data=[24, 109]),\n",
       "   midi.NoteOnEvent(tick=17164, channel=4, data=[24, 0]),\n",
       "   midi.NoteOnEvent(tick=17184, channel=4, data=[24, 109]),\n",
       "   midi.NoteOnEvent(tick=17216, channel=4, data=[24, 0]),\n",
       "   midi.NoteOnEvent(tick=17232, channel=4, data=[26, 111]),\n",
       "   midi.NoteOnEvent(tick=17276, channel=4, data=[26, 0]),\n",
       "   midi.NoteOnEvent(tick=17280, channel=4, data=[26, 109]),\n",
       "   midi.NoteOnEvent(tick=17408, channel=4, data=[26, 0]),\n",
       "   midi.NoteOnEvent(tick=17424, channel=4, data=[28, 111]),\n",
       "   midi.NoteOnEvent(tick=17456, channel=4, data=[28, 0]),\n",
       "   midi.NoteOnEvent(tick=17472, channel=4, data=[30, 116]),\n",
       "   midi.NoteOnEvent(tick=17548, channel=4, data=[30, 0]),\n",
       "   midi.NoteOnEvent(tick=17568, channel=4, data=[31, 119]),\n",
       "   midi.NoteOnEvent(tick=17644, channel=4, data=[31, 0]),\n",
       "   midi.NoteOnEvent(tick=17664, channel=4, data=[33, 116]),\n",
       "   midi.NoteOnEvent(tick=17724, channel=4, data=[33, 0]),\n",
       "   midi.NoteOnEvent(tick=17736, channel=4, data=[33, 80]),\n",
       "   midi.NoteOnEvent(tick=17737, channel=4, data=[33, 0]),\n",
       "   midi.NoteOnEvent(tick=17760, channel=4, data=[33, 106]),\n",
       "   midi.NoteOnEvent(tick=17780, channel=4, data=[33, 0]),\n",
       "   midi.NoteOnEvent(tick=17808, channel=4, data=[31, 122]),\n",
       "   midi.NoteOnEvent(tick=17984, channel=4, data=[31, 0]),\n",
       "   midi.NoteOnEvent(tick=18000, channel=4, data=[31, 113]),\n",
       "   midi.NoteOnEvent(tick=18020, channel=4, data=[31, 0]),\n",
       "   midi.NoteOnEvent(tick=18048, channel=4, data=[28, 113]),\n",
       "   midi.NoteOnEvent(tick=18108, channel=4, data=[28, 0]),\n",
       "   midi.NoteOnEvent(tick=18120, channel=4, data=[28, 87]),\n",
       "   midi.NoteOnEvent(tick=18124, channel=4, data=[28, 0]),\n",
       "   midi.NoteOnEvent(tick=18144, channel=4, data=[28, 116]),\n",
       "   midi.NoteOnEvent(tick=18168, channel=4, data=[28, 0]),\n",
       "   midi.NoteOnEvent(tick=18192, channel=4, data=[26, 122]),\n",
       "   midi.NoteOnEvent(tick=18360, channel=4, data=[26, 0]),\n",
       "   midi.NoteOnEvent(tick=18384, channel=4, data=[26, 106]),\n",
       "   midi.NoteOnEvent(tick=18396, channel=4, data=[26, 0]),\n",
       "   midi.NoteOnEvent(tick=18408, channel=4, data=[26, 78]),\n",
       "   midi.NoteOnEvent(tick=18412, channel=4, data=[26, 0]),\n",
       "   midi.NoteOnEvent(tick=18432, channel=4, data=[33, 111]),\n",
       "   midi.NoteOnEvent(tick=18492, channel=4, data=[33, 0]),\n",
       "   midi.NoteOnEvent(tick=18504, channel=4, data=[33, 70]),\n",
       "   midi.NoteOnEvent(tick=18505, channel=4, data=[33, 0]),\n",
       "   midi.NoteOnEvent(tick=18528, channel=4, data=[33, 106]),\n",
       "   midi.NoteOnEvent(tick=18552, channel=4, data=[33, 0]),\n",
       "   midi.NoteOnEvent(tick=18576, channel=4, data=[31, 116]),\n",
       "   midi.NoteOnEvent(tick=18712, channel=4, data=[31, 0]),\n",
       "   midi.NoteOnEvent(tick=18720, channel=4, data=[26, 87]),\n",
       "   midi.NoteOnEvent(tick=18740, channel=4, data=[26, 0]),\n",
       "   midi.NoteOnEvent(tick=18744, channel=4, data=[28, 94]),\n",
       "   midi.NoteOnEvent(tick=18756, channel=4, data=[28, 0]),\n",
       "   midi.NoteOnEvent(tick=18768, channel=4, data=[31, 109]),\n",
       "   midi.NoteOnEvent(tick=18788, channel=4, data=[31, 0]),\n",
       "   midi.NoteOnEvent(tick=18816, channel=4, data=[33, 104]),\n",
       "   midi.NoteOnEvent(tick=18876, channel=4, data=[33, 0]),\n",
       "   midi.NoteOnEvent(tick=18912, channel=4, data=[33, 111]),\n",
       "   midi.NoteOnEvent(tick=18936, channel=4, data=[33, 0]),\n",
       "   midi.NoteOnEvent(tick=18960, channel=4, data=[31, 119]),\n",
       "   midi.NoteOnEvent(tick=19028, channel=4, data=[31, 0]),\n",
       "   midi.NoteOnEvent(tick=19056, channel=4, data=[31, 116]),\n",
       "   midi.NoteOnEvent(tick=19084, channel=4, data=[31, 0]),\n",
       "   midi.NoteOnEvent(tick=19104, channel=4, data=[26, 80]),\n",
       "   midi.NoteOnEvent(tick=19124, channel=4, data=[26, 0]),\n",
       "   midi.NoteOnEvent(tick=19128, channel=4, data=[28, 91]),\n",
       "   midi.NoteOnEvent(tick=19140, channel=4, data=[28, 0]),\n",
       "   midi.NoteOnEvent(tick=19152, channel=4, data=[31, 111]),\n",
       "   midi.NoteOnEvent(tick=19176, channel=4, data=[31, 0]),\n",
       "   midi.NoteOnEvent(tick=19200, channel=4, data=[33, 102]),\n",
       "   midi.NoteOnEvent(tick=19260, channel=4, data=[33, 0]),\n",
       "   midi.NoteOnEvent(tick=19272, channel=4, data=[33, 79]),\n",
       "   midi.NoteOnEvent(tick=19276, channel=4, data=[33, 0]),\n",
       "   midi.NoteOnEvent(tick=19296, channel=4, data=[33, 109]),\n",
       "   midi.NoteOnEvent(tick=19316, channel=4, data=[33, 0]),\n",
       "   midi.NoteOnEvent(tick=19344, channel=4, data=[31, 113]),\n",
       "   midi.NoteOnEvent(tick=19548, channel=4, data=[31, 0]),\n",
       "   midi.NoteOnEvent(tick=19560, channel=4, data=[26, 90]),\n",
       "   midi.NoteOnEvent(tick=19564, channel=4, data=[26, 0]),\n",
       "   midi.NoteOnEvent(tick=19584, channel=4, data=[28, 113]),\n",
       "   midi.NoteOnEvent(tick=19644, channel=4, data=[28, 0]),\n",
       "   midi.NoteOnEvent(tick=19656, channel=4, data=[28, 78]),\n",
       "   midi.NoteOnEvent(tick=19660, channel=4, data=[28, 0]),\n",
       "   midi.NoteOnEvent(tick=19680, channel=4, data=[28, 111]),\n",
       "   midi.NoteOnEvent(tick=19700, channel=4, data=[28, 0]),\n",
       "   midi.NoteOnEvent(tick=19728, channel=4, data=[26, 109]),\n",
       "   midi.NoteOnEvent(tick=19900, channel=4, data=[26, 0]),\n",
       "   midi.NoteOnEvent(tick=19920, channel=4, data=[26, 84]),\n",
       "   midi.NoteOnEvent(tick=19940, channel=4, data=[26, 0]),\n",
       "   midi.NoteOnEvent(tick=19944, channel=4, data=[28, 78]),\n",
       "   midi.NoteOnEvent(tick=19960, channel=4, data=[28, 0]),\n",
       "   midi.NoteOnEvent(tick=19968, channel=4, data=[33, 113]),\n",
       "   midi.NoteOnEvent(tick=20024, channel=4, data=[33, 0]),\n",
       "   midi.NoteOnEvent(tick=20040, channel=4, data=[33, 74]),\n",
       "   midi.NoteOnEvent(tick=20044, channel=4, data=[33, 0]),\n",
       "   midi.NoteOnEvent(tick=20064, channel=4, data=[33, 111]),\n",
       "   midi.NoteOnEvent(tick=20084, channel=4, data=[33, 0]),\n",
       "   midi.NoteOnEvent(tick=20112, channel=4, data=[31, 116]),\n",
       "   midi.NoteOnEvent(tick=20244, channel=4, data=[31, 0]),\n",
       "   midi.NoteOnEvent(tick=20256, channel=4, data=[26, 81]),\n",
       "   midi.NoteOnEvent(tick=20276, channel=4, data=[26, 0]),\n",
       "   midi.NoteOnEvent(tick=20280, channel=4, data=[28, 80]),\n",
       "   midi.NoteOnEvent(tick=20292, channel=4, data=[28, 0]),\n",
       "   midi.NoteOnEvent(tick=20304, channel=4, data=[31, 106]),\n",
       "   midi.NoteOnEvent(tick=20328, channel=4, data=[31, 0]),\n",
       "   midi.NoteOnEvent(tick=20352, channel=4, data=[24, 116]),\n",
       "   midi.NoteOnEvent(tick=20472, channel=4, data=[24, 0]),\n",
       "   midi.NoteOnEvent(tick=20496, channel=4, data=[24, 83]),\n",
       "   midi.NoteOnEvent(tick=20516, channel=4, data=[24, 0]),\n",
       "   midi.NoteOnEvent(tick=20520, channel=4, data=[26, 85]),\n",
       "   midi.NoteOnEvent(tick=20536, channel=4, data=[26, 0]),\n",
       "   midi.NoteOnEvent(tick=20544, channel=4, data=[31, 109]),\n",
       "   midi.NoteOnEvent(tick=20624, channel=4, data=[31, 0]),\n",
       "   midi.NoteOnEvent(tick=20640, channel=4, data=[26, 98]),\n",
       "   midi.NoteOnEvent(tick=20720, channel=4, data=[26, 0]),\n",
       "   midi.NoteOnEvent(tick=23712, channel=4, data=[26, 91]),\n",
       "   midi.NoteOnEvent(tick=23732, channel=4, data=[26, 0]),\n",
       "   midi.NoteOnEvent(tick=23736, channel=4, data=[28, 82]),\n",
       "   midi.NoteOnEvent(tick=23756, channel=4, data=[28, 0]),\n",
       "   midi.NoteOnEvent(tick=23760, channel=4, data=[31, 95]),\n",
       "   midi.NoteOnEvent(tick=23776, channel=4, data=[31, 0]),\n",
       "   midi.NoteOnEvent(tick=23784, channel=4, data=[28, 109]),\n",
       "   midi.NoteOnEvent(tick=23796, channel=4, data=[28, 0]),\n",
       "   midi.NoteOnEvent(tick=23808, channel=4, data=[33, 116]),\n",
       "   midi.NoteOnEvent(tick=23868, channel=4, data=[33, 0]),\n",
       "   midi.NoteOnEvent(tick=23880, channel=4, data=[33, 80]),\n",
       "   midi.NoteOnEvent(tick=23881, channel=4, data=[33, 0]),\n",
       "   midi.NoteOnEvent(tick=23904, channel=4, data=[33, 106]),\n",
       "   midi.NoteOnEvent(tick=23924, channel=4, data=[33, 0]),\n",
       "   midi.NoteOnEvent(tick=23952, channel=4, data=[31, 122]),\n",
       "   midi.NoteOnEvent(tick=24128, channel=4, data=[31, 0]),\n",
       "   midi.NoteOnEvent(tick=24144, channel=4, data=[31, 113]),\n",
       "   midi.NoteOnEvent(tick=24164, channel=4, data=[31, 0]),\n",
       "   midi.NoteOnEvent(tick=24192, channel=4, data=[28, 113]),\n",
       "   midi.NoteOnEvent(tick=24252, channel=4, data=[28, 0]),\n",
       "   midi.NoteOnEvent(tick=24264, channel=4, data=[28, 87]),\n",
       "   midi.NoteOnEvent(tick=24268, channel=4, data=[28, 0]),\n",
       "   midi.NoteOnEvent(tick=24288, channel=4, data=[28, 116]),\n",
       "   midi.NoteOnEvent(tick=24312, channel=4, data=[28, 0]),\n",
       "   midi.NoteOnEvent(tick=24336, channel=4, data=[26, 122]),\n",
       "   midi.NoteOnEvent(tick=24504, channel=4, data=[26, 0]),\n",
       "   midi.NoteOnEvent(tick=24528, channel=4, data=[26, 106]),\n",
       "   midi.NoteOnEvent(tick=24540, channel=4, data=[26, 0]),\n",
       "   midi.NoteOnEvent(tick=24552, channel=4, data=[26, 78]),\n",
       "   midi.NoteOnEvent(tick=24556, channel=4, data=[26, 0]),\n",
       "   midi.NoteOnEvent(tick=24576, channel=4, data=[33, 111]),\n",
       "   midi.NoteOnEvent(tick=24636, channel=4, data=[33, 0]),\n",
       "   midi.NoteOnEvent(tick=24648, channel=4, data=[33, 70]),\n",
       "   midi.NoteOnEvent(tick=24649, channel=4, data=[33, 0]),\n",
       "   midi.NoteOnEvent(tick=24672, channel=4, data=[33, 106]),\n",
       "   midi.NoteOnEvent(tick=24696, channel=4, data=[33, 0]),\n",
       "   midi.NoteOnEvent(tick=24720, channel=4, data=[31, 116]),\n",
       "   midi.NoteOnEvent(tick=24856, channel=4, data=[31, 0]),\n",
       "   midi.NoteOnEvent(tick=24864, channel=4, data=[26, 87]),\n",
       "   midi.NoteOnEvent(tick=24884, channel=4, data=[26, 0]),\n",
       "   midi.NoteOnEvent(tick=24888, channel=4, data=[28, 94]),\n",
       "   midi.NoteOnEvent(tick=24900, channel=4, data=[28, 0]),\n",
       "   midi.NoteOnEvent(tick=24912, channel=4, data=[31, 109]),\n",
       "   midi.NoteOnEvent(tick=24932, channel=4, data=[31, 0]),\n",
       "   midi.NoteOnEvent(tick=24960, channel=4, data=[33, 104]),\n",
       "   midi.NoteOnEvent(tick=25020, channel=4, data=[33, 0]),\n",
       "   midi.NoteOnEvent(tick=25056, channel=4, data=[33, 111]),\n",
       "   midi.NoteOnEvent(tick=25080, channel=4, data=[33, 0]),\n",
       "   midi.NoteOnEvent(tick=25104, channel=4, data=[31, 119]),\n",
       "   midi.NoteOnEvent(tick=25172, channel=4, data=[31, 0]),\n",
       "   midi.NoteOnEvent(tick=25200, channel=4, data=[31, 116]),\n",
       "   midi.NoteOnEvent(tick=25228, channel=4, data=[31, 0]),\n",
       "   midi.NoteOnEvent(tick=25248, channel=4, data=[26, 80]),\n",
       "   midi.NoteOnEvent(tick=25268, channel=4, data=[26, 0]),\n",
       "   midi.NoteOnEvent(tick=25272, channel=4, data=[28, 91]),\n",
       "   midi.NoteOnEvent(tick=25284, channel=4, data=[28, 0]),\n",
       "   midi.NoteOnEvent(tick=25296, channel=4, data=[31, 111]),\n",
       "   midi.NoteOnEvent(tick=25320, channel=4, data=[31, 0]),\n",
       "   midi.NoteOnEvent(tick=25344, channel=4, data=[33, 102]),\n",
       "   midi.NoteOnEvent(tick=25404, channel=4, data=[33, 0]),\n",
       "   midi.NoteOnEvent(tick=25416, channel=4, data=[33, 79]),\n",
       "   midi.NoteOnEvent(tick=25420, channel=4, data=[33, 0]),\n",
       "   midi.NoteOnEvent(tick=25440, channel=4, data=[33, 109]),\n",
       "   midi.NoteOnEvent(tick=25460, channel=4, data=[33, 0]),\n",
       "   midi.NoteOnEvent(tick=25488, channel=4, data=[31, 113]),\n",
       "   midi.NoteOnEvent(tick=25692, channel=4, data=[31, 0]),\n",
       "   midi.NoteOnEvent(tick=25704, channel=4, data=[26, 90]),\n",
       "   midi.NoteOnEvent(tick=25708, channel=4, data=[26, 0]),\n",
       "   midi.NoteOnEvent(tick=25728, channel=4, data=[28, 113]),\n",
       "   midi.NoteOnEvent(tick=25788, channel=4, data=[28, 0]),\n",
       "   midi.NoteOnEvent(tick=25800, channel=4, data=[28, 78]),\n",
       "   midi.NoteOnEvent(tick=25804, channel=4, data=[28, 0]),\n",
       "   midi.NoteOnEvent(tick=25824, channel=4, data=[28, 111]),\n",
       "   midi.NoteOnEvent(tick=25844, channel=4, data=[28, 0]),\n",
       "   midi.NoteOnEvent(tick=25872, channel=4, data=[26, 109]),\n",
       "   midi.NoteOnEvent(tick=26044, channel=4, data=[26, 0]),\n",
       "   midi.NoteOnEvent(tick=26064, channel=4, data=[26, 84]),\n",
       "   midi.NoteOnEvent(tick=26084, channel=4, data=[26, 0]),\n",
       "   midi.NoteOnEvent(tick=26088, channel=4, data=[28, 78]),\n",
       "   midi.NoteOnEvent(tick=26104, channel=4, data=[28, 0]),\n",
       "   midi.NoteOnEvent(tick=26112, channel=4, data=[33, 113]),\n",
       "   midi.NoteOnEvent(tick=26168, channel=4, data=[33, 0]),\n",
       "   midi.NoteOnEvent(tick=26184, channel=4, data=[33, 74]),\n",
       "   midi.NoteOnEvent(tick=26188, channel=4, data=[33, 0]),\n",
       "   midi.NoteOnEvent(tick=26208, channel=4, data=[33, 111]),\n",
       "   midi.NoteOnEvent(tick=26228, channel=4, data=[33, 0]),\n",
       "   midi.NoteOnEvent(tick=26256, channel=4, data=[31, 116]),\n",
       "   midi.NoteOnEvent(tick=26388, channel=4, data=[31, 0]),\n",
       "   midi.NoteOnEvent(tick=26400, channel=4, data=[26, 81]),\n",
       "   midi.NoteOnEvent(tick=26420, channel=4, data=[26, 0]),\n",
       "   midi.NoteOnEvent(tick=26424, channel=4, data=[28, 80]),\n",
       "   midi.NoteOnEvent(tick=26436, channel=4, data=[28, 0]),\n",
       "   midi.NoteOnEvent(tick=26448, channel=4, data=[31, 106]),\n",
       "   midi.NoteOnEvent(tick=26472, channel=4, data=[31, 0]),\n",
       "   midi.NoteOnEvent(tick=26496, channel=4, data=[24, 116]),\n",
       "   midi.NoteOnEvent(tick=26616, channel=4, data=[24, 0]),\n",
       "   midi.NoteOnEvent(tick=26640, channel=4, data=[24, 83]),\n",
       "   midi.NoteOnEvent(tick=26660, channel=4, data=[24, 0]),\n",
       "   midi.NoteOnEvent(tick=26664, channel=4, data=[26, 85]),\n",
       "   midi.NoteOnEvent(tick=26680, channel=4, data=[26, 0]),\n",
       "   midi.NoteOnEvent(tick=26688, channel=4, data=[31, 109]),\n",
       "   midi.NoteOnEvent(tick=26768, channel=4, data=[31, 0]),\n",
       "   midi.NoteOnEvent(tick=26784, channel=4, data=[26, 98]),\n",
       "   midi.NoteOnEvent(tick=26864, channel=4, data=[26, 0]),\n",
       "   midi.NoteOnEvent(tick=26880, channel=4, data=[33, 116]),\n",
       "   midi.NoteOnEvent(tick=26940, channel=4, data=[33, 0]),\n",
       "   midi.NoteOnEvent(tick=26952, channel=4, data=[33, 80]),\n",
       "   midi.NoteOnEvent(tick=26953, channel=4, data=[33, 0]),\n",
       "   midi.NoteOnEvent(tick=26976, channel=4, data=[33, 106]),\n",
       "   midi.NoteOnEvent(tick=26996, channel=4, data=[33, 0]),\n",
       "   midi.NoteOnEvent(tick=27024, channel=4, data=[31, 122]),\n",
       "   midi.NoteOnEvent(tick=27200, channel=4, data=[31, 0]),\n",
       "   midi.NoteOnEvent(tick=27216, channel=4, data=[31, 113]),\n",
       "   midi.NoteOnEvent(tick=27236, channel=4, data=[31, 0]),\n",
       "   midi.NoteOnEvent(tick=27264, channel=4, data=[28, 113]),\n",
       "   midi.NoteOnEvent(tick=27324, channel=4, data=[28, 0]),\n",
       "   midi.NoteOnEvent(tick=27336, channel=4, data=[28, 87]),\n",
       "   midi.NoteOnEvent(tick=27340, channel=4, data=[28, 0]),\n",
       "   midi.NoteOnEvent(tick=27360, channel=4, data=[28, 116]),\n",
       "   midi.NoteOnEvent(tick=27384, channel=4, data=[28, 0]),\n",
       "   midi.NoteOnEvent(tick=27408, channel=4, data=[26, 122]),\n",
       "   midi.NoteOnEvent(tick=27576, channel=4, data=[26, 0]),\n",
       "   midi.NoteOnEvent(tick=27600, channel=4, data=[26, 106]),\n",
       "   midi.NoteOnEvent(tick=27612, channel=4, data=[26, 0]),\n",
       "   midi.NoteOnEvent(tick=27624, channel=4, data=[26, 78]),\n",
       "   midi.NoteOnEvent(tick=27628, channel=4, data=[26, 0]),\n",
       "   midi.NoteOnEvent(tick=27648, channel=4, data=[33, 111]),\n",
       "   midi.NoteOnEvent(tick=27708, channel=4, data=[33, 0]),\n",
       "   midi.NoteOnEvent(tick=27720, channel=4, data=[33, 70]),\n",
       "   midi.NoteOnEvent(tick=27721, channel=4, data=[33, 0]),\n",
       "   midi.NoteOnEvent(tick=27744, channel=4, data=[33, 106]),\n",
       "   midi.NoteOnEvent(tick=27768, channel=4, data=[33, 0]),\n",
       "   midi.NoteOnEvent(tick=27792, channel=4, data=[31, 116]),\n",
       "   midi.NoteOnEvent(tick=27928, channel=4, data=[31, 0]),\n",
       "   midi.NoteOnEvent(tick=27936, channel=4, data=[26, 87]),\n",
       "   midi.NoteOnEvent(tick=27956, channel=4, data=[26, 0]),\n",
       "   midi.NoteOnEvent(tick=27960, channel=4, data=[28, 94]),\n",
       "   midi.NoteOnEvent(tick=27972, channel=4, data=[28, 0]),\n",
       "   midi.NoteOnEvent(tick=27984, channel=4, data=[31, 109]),\n",
       "   midi.NoteOnEvent(tick=28004, channel=4, data=[31, 0]),\n",
       "   midi.NoteOnEvent(tick=28032, channel=4, data=[33, 104]),\n",
       "   midi.NoteOnEvent(tick=28092, channel=4, data=[33, 0]),\n",
       "   midi.NoteOnEvent(tick=28128, channel=4, data=[33, 111]),\n",
       "   midi.NoteOnEvent(tick=28152, channel=4, data=[33, 0]),\n",
       "   midi.NoteOnEvent(tick=28176, channel=4, data=[31, 119]),\n",
       "   midi.NoteOnEvent(tick=28244, channel=4, data=[31, 0]),\n",
       "   midi.NoteOnEvent(tick=28272, channel=4, data=[31, 116]),\n",
       "   midi.NoteOnEvent(tick=28300, channel=4, data=[31, 0]),\n",
       "   midi.NoteOnEvent(tick=28320, channel=4, data=[26, 80]),\n",
       "   midi.NoteOnEvent(tick=28340, channel=4, data=[26, 0]),\n",
       "   midi.NoteOnEvent(tick=28344, channel=4, data=[28, 91]),\n",
       "   midi.NoteOnEvent(tick=28356, channel=4, data=[28, 0]),\n",
       "   midi.NoteOnEvent(tick=28368, channel=4, data=[31, 111]),\n",
       "   midi.NoteOnEvent(tick=28392, channel=4, data=[31, 0]),\n",
       "   midi.NoteOnEvent(tick=28416, channel=4, data=[33, 102]),\n",
       "   midi.NoteOnEvent(tick=28476, channel=4, data=[33, 0]),\n",
       "   midi.NoteOnEvent(tick=28488, channel=4, data=[33, 79]),\n",
       "   midi.NoteOnEvent(tick=28492, channel=4, data=[33, 0]),\n",
       "   midi.NoteOnEvent(tick=28512, channel=4, data=[33, 109]),\n",
       "   midi.NoteOnEvent(tick=28532, channel=4, data=[33, 0]),\n",
       "   midi.NoteOnEvent(tick=28560, channel=4, data=[31, 113]),\n",
       "   midi.NoteOnEvent(tick=28764, channel=4, data=[31, 0]),\n",
       "   midi.NoteOnEvent(tick=28776, channel=4, data=[26, 90]),\n",
       "   midi.NoteOnEvent(tick=28780, channel=4, data=[26, 0]),\n",
       "   midi.NoteOnEvent(tick=28800, channel=4, data=[28, 113]),\n",
       "   midi.NoteOnEvent(tick=28860, channel=4, data=[28, 0]),\n",
       "   midi.NoteOnEvent(tick=28872, channel=4, data=[28, 78]),\n",
       "   midi.NoteOnEvent(tick=28876, channel=4, data=[28, 0]),\n",
       "   midi.NoteOnEvent(tick=28896, channel=4, data=[28, 111]),\n",
       "   midi.NoteOnEvent(tick=28916, channel=4, data=[28, 0]),\n",
       "   midi.NoteOnEvent(tick=28944, channel=4, data=[26, 109]),\n",
       "   midi.NoteOnEvent(tick=29116, channel=4, data=[26, 0]),\n",
       "   midi.NoteOnEvent(tick=29136, channel=4, data=[26, 84]),\n",
       "   midi.NoteOnEvent(tick=29156, channel=4, data=[26, 0]),\n",
       "   midi.NoteOnEvent(tick=29160, channel=4, data=[28, 78]),\n",
       "   midi.NoteOnEvent(tick=29176, channel=4, data=[28, 0]),\n",
       "   midi.NoteOnEvent(tick=29184, channel=4, data=[33, 113]),\n",
       "   midi.NoteOnEvent(tick=29240, channel=4, data=[33, 0]),\n",
       "   midi.NoteOnEvent(tick=29256, channel=4, data=[33, 74]),\n",
       "   midi.NoteOnEvent(tick=29260, channel=4, data=[33, 0]),\n",
       "   midi.NoteOnEvent(tick=29280, channel=4, data=[33, 111]),\n",
       "   midi.NoteOnEvent(tick=29300, channel=4, data=[33, 0]),\n",
       "   midi.NoteOnEvent(tick=29328, channel=4, data=[31, 116]),\n",
       "   midi.NoteOnEvent(tick=29460, channel=4, data=[31, 0]),\n",
       "   midi.NoteOnEvent(tick=29472, channel=4, data=[26, 81]),\n",
       "   midi.NoteOnEvent(tick=29492, channel=4, data=[26, 0]),\n",
       "   midi.NoteOnEvent(tick=29496, channel=4, data=[28, 80]),\n",
       "   midi.NoteOnEvent(tick=29508, channel=4, data=[28, 0]),\n",
       "   midi.NoteOnEvent(tick=29520, channel=4, data=[31, 106]),\n",
       "   midi.NoteOnEvent(tick=29544, channel=4, data=[31, 0]),\n",
       "   midi.NoteOnEvent(tick=29568, channel=4, data=[24, 116]),\n",
       "   midi.NoteOnEvent(tick=29688, channel=4, data=[24, 0]),\n",
       "   midi.NoteOnEvent(tick=29712, channel=4, data=[24, 83]),\n",
       "   midi.NoteOnEvent(tick=29732, channel=4, data=[24, 0]),\n",
       "   midi.NoteOnEvent(tick=29736, channel=4, data=[26, 85]),\n",
       "   midi.NoteOnEvent(tick=29752, channel=4, data=[26, 0]),\n",
       "   midi.NoteOnEvent(tick=29760, channel=4, data=[31, 109]),\n",
       "   midi.NoteOnEvent(tick=29840, channel=4, data=[31, 0]),\n",
       "   midi.NoteOnEvent(tick=29856, channel=4, data=[26, 98]),\n",
       "   midi.NoteOnEvent(tick=29936, channel=4, data=[26, 0]),\n",
       "   midi.NoteOnEvent(tick=29952, channel=4, data=[33, 106]),\n",
       "   midi.NoteOnEvent(tick=30064, channel=4, data=[33, 0]),\n",
       "   midi.NoteOnEvent(tick=30096, channel=4, data=[31, 113]),\n",
       "   midi.NoteOnEvent(tick=30228, channel=4, data=[31, 0]),\n",
       "   midi.NoteOnEvent(tick=30240, channel=4, data=[26, 109]),\n",
       "   midi.NoteOnEvent(tick=30308, channel=4, data=[26, 0]),\n",
       "   midi.NoteOnEvent(tick=30336, channel=4, data=[24, 116]),\n",
       "   midi.NoteOnEvent(tick=30460, channel=4, data=[24, 0]),\n",
       "   midi.NoteOnEvent(tick=30480, channel=4, data=[31, 109]),\n",
       "   midi.NoteOnEvent(tick=30608, channel=4, data=[31, 0]),\n",
       "   midi.NoteOnEvent(tick=30624, channel=4, data=[26, 116]),\n",
       "   midi.NoteOnEvent(tick=30704, channel=4, data=[26, 0]),\n",
       "   midi.NoteOnEvent(tick=30720, channel=4, data=[33, 119]),\n",
       "   midi.NoteOnEvent(tick=30844, channel=4, data=[33, 0]),\n",
       "   midi.NoteOnEvent(tick=30864, channel=4, data=[31, 104]),\n",
       "   midi.NoteOnEvent(tick=30996, channel=4, data=[31, 0]),\n",
       "   midi.NoteOnEvent(tick=31008, channel=4, data=[26, 116]),\n",
       "   midi.NoteOnEvent(tick=31080, channel=4, data=[26, 0]),\n",
       "   midi.NoteOnEvent(tick=31104, channel=4, data=[24, 119]),\n",
       "   midi.NoteOnEvent(tick=31224, channel=4, data=[24, 0]),\n",
       "   midi.NoteOnEvent(tick=31248, channel=4, data=[31, 109]),\n",
       "   midi.NoteOnEvent(tick=31372, channel=4, data=[31, 0]),\n",
       "   midi.NoteOnEvent(tick=31392, channel=4, data=[26, 116]),\n",
       "   midi.NoteOnEvent(tick=31468, channel=4, data=[26, 0]),\n",
       "   midi.NoteOnEvent(tick=31488, channel=4, data=[24, 116]),\n",
       "   midi.NoteOnEvent(tick=31852, channel=4, data=[24, 0]),\n",
       "   midi.NoteOnEvent(tick=31872, channel=4, data=[24, 111]),\n",
       "   midi.NoteOnEvent(tick=32208, channel=4, data=[31, 95]),\n",
       "   midi.NoteOnEvent(tick=32212, channel=4, data=[24, 0]),\n",
       "   midi.NoteOnEvent(tick=32228, channel=4, data=[31, 0]),\n",
       "   midi.NoteOnEvent(tick=32232, channel=4, data=[36, 84]),\n",
       "   midi.NoteOnEvent(tick=32252, channel=4, data=[36, 0]),\n",
       "   midi.NoteOnEvent(tick=32256, channel=4, data=[24, 106]),\n",
       "   midi.NoteOnEvent(tick=32592, channel=4, data=[24, 0]),\n",
       "   midi.NoteOnEvent(tick=32592, channel=4, data=[31, 94]),\n",
       "   midi.NoteOnEvent(tick=32632, channel=4, data=[31, 0]),\n",
       "   midi.NoteOnEvent(tick=32640, channel=4, data=[24, 109]),\n",
       "   midi.NoteOnEvent(tick=33008, channel=4, data=[24, 0]),\n",
       "   midi.NoteOnEvent(tick=33024, channel=4, data=[31, 119]),\n",
       "   midi.NoteOnEvent(tick=33796, channel=4, data=[31, 0]),\n",
       "   midi.EndOfTrackEvent(tick=33796, data=[])]),\n",
       " midi.Track(\\\n",
       "  [midi.PortEvent(tick=0, data=[0]),\n",
       "   midi.ProgramChangeEvent(tick=0, channel=7, data=[48]),\n",
       "   midi.ControlChangeEvent(tick=0, channel=7, data=[7, 80]),\n",
       "   midi.ControlChangeEvent(tick=0, channel=7, data=[10, 77]),\n",
       "   midi.ControlChangeEvent(tick=0, channel=7, data=[91, 103]),\n",
       "   midi.NoteOnEvent(tick=380, channel=7, data=[84, 75]),\n",
       "   midi.NoteOnEvent(tick=384, channel=7, data=[84, 0]),\n",
       "   midi.NoteOnEvent(tick=384, channel=7, data=[79, 98]),\n",
       "   midi.NoteOnEvent(tick=384, channel=7, data=[84, 107]),\n",
       "   midi.NoteOnEvent(tick=384, channel=7, data=[81, 118]),\n",
       "   midi.NoteOnEvent(tick=384, channel=7, data=[79, 107]),\n",
       "   midi.NoteOnEvent(tick=384, channel=7, data=[76, 81]),\n",
       "   midi.NoteOnEvent(tick=384, channel=7, data=[81, 98]),\n",
       "   midi.NoteOnEvent(tick=384, channel=7, data=[76, 66]),\n",
       "   midi.NoteOnEvent(tick=385, channel=7, data=[76, 0]),\n",
       "   midi.NoteOnEvent(tick=385, channel=7, data=[79, 0]),\n",
       "   midi.NoteOnEvent(tick=385, channel=7, data=[81, 0]),\n",
       "   midi.NoteOnEvent(tick=516, channel=7, data=[81, 0]),\n",
       "   midi.NoteOnEvent(tick=516, channel=7, data=[84, 0]),\n",
       "   midi.NoteOnEvent(tick=520, channel=7, data=[83, 98]),\n",
       "   midi.NoteOnEvent(tick=520, channel=7, data=[74, 107]),\n",
       "   midi.NoteOnEvent(tick=520, channel=7, data=[83, 50]),\n",
       "   midi.NoteOnEvent(tick=521, channel=7, data=[83, 0]),\n",
       "   midi.NoteOnEvent(tick=524, channel=7, data=[76, 0]),\n",
       "   midi.NoteOnEvent(tick=524, channel=7, data=[74, 0]),\n",
       "   midi.NoteOnEvent(tick=524, channel=7, data=[74, 70]),\n",
       "   midi.PitchWheelEvent(tick=752, channel=7, data=[0, 59]),\n",
       "   midi.NoteOnEvent(tick=756, channel=7, data=[74, 0]),\n",
       "   midi.NoteOnEvent(tick=756, channel=7, data=[79, 0]),\n",
       "   midi.NoteOnEvent(tick=760, channel=7, data=[79, 75]),\n",
       "   midi.NoteOnEvent(tick=760, channel=7, data=[76, 98]),\n",
       "   midi.PitchWheelEvent(tick=764, channel=7, data=[0, 62]),\n",
       "   midi.PitchWheelEvent(tick=764, channel=7, data=[0, 64]),\n",
       "   midi.PitchWheelEvent(tick=772, channel=7, data=[0, 64]),\n",
       "   midi.PitchWheelEvent(tick=784, channel=7, data=[0, 59]),\n",
       "   midi.PitchWheelEvent(tick=816, channel=7, data=[0, 64]),\n",
       "   midi.NoteOnEvent(tick=900, channel=7, data=[76, 0]),\n",
       "   midi.NoteOnEvent(tick=900, channel=7, data=[79, 0]),\n",
       "   midi.NoteOnEvent(tick=900, channel=7, data=[83, 0]),\n",
       "   midi.NoteOnEvent(tick=904, channel=7, data=[81, 90]),\n",
       "   midi.NoteOnEvent(tick=904, channel=7, data=[78, 98]),\n",
       "   midi.NoteOnEvent(tick=908, channel=7, data=[78, 0]),\n",
       "   midi.NoteOnEvent(tick=908, channel=7, data=[81, 0]),\n",
       "   midi.NoteOnEvent(tick=908, channel=7, data=[74, 98]),\n",
       "   midi.NoteOnEvent(tick=908, channel=7, data=[78, 98]),\n",
       "   midi.NoteOnEvent(tick=908, channel=7, data=[81, 90]),\n",
       "   midi.NoteOnEvent(tick=908, channel=7, data=[74, 98]),\n",
       "   midi.NoteOnEvent(tick=909, channel=7, data=[74, 0]),\n",
       "   midi.PitchWheelEvent(tick=976, channel=7, data=[0, 62]),\n",
       "   midi.PitchWheelEvent(tick=980, channel=7, data=[0, 64]),\n",
       "   midi.PitchWheelEvent(tick=1044, channel=7, data=[0, 60]),\n",
       "   midi.PitchWheelEvent(tick=1048, channel=7, data=[0, 64]),\n",
       "   midi.NoteOnEvent(tick=1136, channel=7, data=[74, 0]),\n",
       "   midi.NoteOnEvent(tick=1136, channel=7, data=[78, 0]),\n",
       "   midi.NoteOnEvent(tick=1136, channel=7, data=[81, 0]),\n",
       "   midi.NoteOnEvent(tick=1144, channel=7, data=[81, 75]),\n",
       "   midi.NoteOnEvent(tick=1144, channel=7, data=[76, 90]),\n",
       "   midi.NoteOnEvent(tick=1144, channel=7, data=[79, 98]),\n",
       "   midi.NoteOnEvent(tick=1144, channel=7, data=[72, 90]),\n",
       "   midi.NoteOnEvent(tick=1280, channel=7, data=[81, 0]),\n",
       "   midi.NoteOnEvent(tick=1288, channel=7, data=[76, 0]),\n",
       "   midi.NoteOnEvent(tick=1288, channel=7, data=[72, 0]),\n",
       "   midi.NoteOnEvent(tick=1296, channel=7, data=[71, 81]),\n",
       "   midi.NoteOnEvent(tick=1296, channel=7, data=[74, 80]),\n",
       "   midi.PitchWheelEvent(tick=1360, channel=7, data=[0, 61]),\n",
       "   midi.PitchWheelEvent(tick=1364, channel=7, data=[0, 64]),\n",
       "   midi.PitchWheelEvent(tick=1440, channel=7, data=[0, 61]),\n",
       "   midi.PitchWheelEvent(tick=1444, channel=7, data=[0, 64]),\n",
       "   midi.NoteOnEvent(tick=1520, channel=7, data=[74, 0]),\n",
       "   midi.NoteOnEvent(tick=1524, channel=7, data=[79, 0]),\n",
       "   midi.NoteOnEvent(tick=1528, channel=7, data=[71, 0]),\n",
       "   midi.NoteOnEvent(tick=1532, channel=7, data=[81, 107]),\n",
       "   midi.NoteOnEvent(tick=1532, channel=7, data=[76, 107]),\n",
       "   midi.NoteOnEvent(tick=1532, channel=7, data=[72, 98]),\n",
       "   midi.NoteOnEvent(tick=1656, channel=7, data=[76, 0]),\n",
       "   midi.NoteOnEvent(tick=1660, channel=7, data=[72, 0]),\n",
       "   midi.NoteOnEvent(tick=1660, channel=7, data=[81, 0]),\n",
       "   midi.NoteOnEvent(tick=1676, channel=7, data=[79, 107]),\n",
       "   midi.NoteOnEvent(tick=1676, channel=7, data=[74, 127]),\n",
       "   midi.NoteOnEvent(tick=1676, channel=7, data=[71, 118]),\n",
       "   midi.NoteOnEvent(tick=1880, channel=7, data=[79, 0]),\n",
       "   midi.NoteOnEvent(tick=1908, channel=7, data=[71, 0]),\n",
       "   midi.NoteOnEvent(tick=1908, channel=7, data=[74, 0]),\n",
       "   midi.NoteOnEvent(tick=1916, channel=7, data=[79, 107]),\n",
       "   midi.NoteOnEvent(tick=1916, channel=7, data=[81, 107]),\n",
       "   midi.NoteOnEvent(tick=1916, channel=7, data=[84, 98]),\n",
       "   midi.NoteOnEvent(tick=1916, channel=7, data=[76, 107]),\n",
       "   midi.NoteOnEvent(tick=1920, channel=7, data=[76, 0]),\n",
       "   midi.NoteOnEvent(tick=1920, channel=7, data=[79, 0]),\n",
       "   midi.NoteOnEvent(tick=1920, channel=7, data=[81, 0]),\n",
       "   midi.NoteOnEvent(tick=1920, channel=7, data=[84, 0]),\n",
       "   midi.PitchWheelEvent(tick=1920, channel=7, data=[0, 60]),\n",
       "   midi.NoteOnEvent(tick=1920, channel=7, data=[81, 98]),\n",
       "   midi.NoteOnEvent(tick=1920, channel=7, data=[84, 98]),\n",
       "   midi.NoteOnEvent(tick=1920, channel=7, data=[79, 90]),\n",
       "   midi.NoteOnEvent(tick=1920, channel=7, data=[76, 90]),\n",
       "   midi.NoteOnEvent(tick=2048, channel=7, data=[81, 0]),\n",
       "   midi.NoteOnEvent(tick=2052, channel=7, data=[84, 0]),\n",
       "   midi.NoteOnEvent(tick=2052, channel=7, data=[76, 0]),\n",
       "   midi.NoteOnEvent(tick=2056, channel=7, data=[79, 0]),\n",
       "   midi.NoteOnEvent(tick=2056, channel=7, data=[79, 81]),\n",
       "   midi.NoteOnEvent(tick=2056, channel=7, data=[83, 81]),\n",
       "   midi.NoteOnEvent(tick=2060, channel=7, data=[74, 118]),\n",
       "   midi.PitchWheelEvent(tick=2100, channel=7, data=[0, 64]),\n",
       "   midi.PitchWheelEvent(tick=2176, channel=7, data=[0, 60]),\n",
       "   midi.PitchWheelEvent(tick=2180, channel=7, data=[0, 64]),\n",
       "   midi.PitchWheelEvent(tick=2272, channel=7, data=[0, 60]),\n",
       "   midi.NoteOnEvent(tick=2288, channel=7, data=[83, 0]),\n",
       "   midi.NoteOnEvent(tick=2292, channel=7, data=[74, 0]),\n",
       "   midi.NoteOnEvent(tick=2292, channel=7, data=[79, 0]),\n",
       "   midi.PitchWheelEvent(tick=2292, channel=7, data=[0, 64]),\n",
       "   midi.NoteOnEvent(tick=2296, channel=7, data=[79, 98]),\n",
       "   midi.NoteOnEvent(tick=2296, channel=7, data=[83, 90]),\n",
       "   midi.NoteOnEvent(tick=2300, channel=7, data=[76, 90]),\n",
       "   midi.PitchWheelEvent(tick=2332, channel=7, data=[0, 60]),\n",
       "   midi.PitchWheelEvent(tick=2340, channel=7, data=[0, 64]),\n",
       "   midi.PitchWheelEvent(tick=2372, channel=7, data=[0, 60]),\n",
       "   midi.PitchWheelEvent(tick=2376, channel=7, data=[0, 64]),\n",
       "   midi.NoteOnEvent(tick=2432, channel=7, data=[76, 0]),\n",
       "   midi.NoteOnEvent(tick=2432, channel=7, data=[83, 0]),\n",
       "   midi.NoteOnEvent(tick=2432, channel=7, data=[79, 0]),\n",
       "   midi.NoteOnEvent(tick=2440, channel=7, data=[81, 98]),\n",
       "   midi.NoteOnEvent(tick=2440, channel=7, data=[78, 107]),\n",
       "   midi.NoteOnEvent(tick=2444, channel=7, data=[74, 118]),\n",
       "   midi.NoteOnEvent(tick=2668, channel=7, data=[74, 0]),\n",
       "   midi.NoteOnEvent(tick=2672, channel=7, data=[81, 0]),\n",
       "   midi.NoteOnEvent(tick=2680, channel=7, data=[78, 0]),\n",
       "   midi.NoteOnEvent(tick=2684, channel=7, data=[81, 70]),\n",
       "   midi.NoteOnEvent(tick=2684, channel=7, data=[76, 98]),\n",
       "   midi.NoteOnEvent(tick=2684, channel=7, data=[72, 90]),\n",
       "   midi.PitchWheelEvent(tick=2744, channel=7, data=[0, 60]),\n",
       "   midi.PitchWheelEvent(tick=2744, channel=7, data=[0, 64]),\n",
       "   midi.NoteOnEvent(tick=2812, channel=7, data=[76, 0]),\n",
       "   midi.NoteOnEvent(tick=2816, channel=7, data=[72, 0]),\n",
       "   midi.NoteOnEvent(tick=2816, channel=7, data=[81, 0]),\n",
       "   midi.NoteOnEvent(tick=2824, channel=7, data=[79, 98]),\n",
       "   midi.NoteOnEvent(tick=2824, channel=7, data=[71, 118]),\n",
       "   midi.NoteOnEvent(tick=2828, channel=7, data=[74, 127]),\n",
       "   midi.NoteOnEvent(tick=3048, channel=7, data=[71, 0]),\n",
       "   midi.NoteOnEvent(tick=3056, channel=7, data=[74, 0]),\n",
       "   midi.NoteOnEvent(tick=3056, channel=7, data=[79, 0]),\n",
       "   midi.NoteOnEvent(tick=3064, channel=7, data=[81, 107]),\n",
       "   midi.NoteOnEvent(tick=3064, channel=7, data=[76, 98]),\n",
       "   midi.NoteOnEvent(tick=3068, channel=7, data=[72, 98]),\n",
       "   midi.NoteOnEvent(tick=3244, channel=7, data=[76, 0]),\n",
       "   midi.NoteOnEvent(tick=3248, channel=7, data=[72, 0]),\n",
       "   midi.NoteOnEvent(tick=3248, channel=7, data=[81, 0]),\n",
       "   midi.NoteOnEvent(tick=3256, channel=7, data=[79, 90]),\n",
       "   midi.NoteOnEvent(tick=3256, channel=7, data=[71, 98]),\n",
       "   midi.NoteOnEvent(tick=3256, channel=7, data=[74, 107]),\n",
       "   midi.NoteOnEvent(tick=3348, channel=7, data=[71, 0]),\n",
       "   midi.NoteOnEvent(tick=3352, channel=7, data=[79, 0]),\n",
       "   midi.NoteOnEvent(tick=3356, channel=7, data=[78, 107]),\n",
       "   midi.NoteOnEvent(tick=3360, channel=7, data=[69, 107]),\n",
       "   midi.NoteOnEvent(tick=3440, channel=7, data=[69, 0]),\n",
       "   midi.NoteOnEvent(tick=3440, channel=7, data=[78, 0]),\n",
       "   midi.NoteOnEvent(tick=3440, channel=7, data=[74, 0]),\n",
       "   midi.NoteOnEvent(tick=6528, channel=7, data=[79, 98]),\n",
       "   midi.NoteOnEvent(tick=6528, channel=7, data=[84, 107]),\n",
       "   midi.NoteOnEvent(tick=6528, channel=7, data=[81, 118]),\n",
       "   midi.NoteOnEvent(tick=6528, channel=7, data=[79, 107]),\n",
       "   midi.NoteOnEvent(tick=6528, channel=7, data=[76, 81]),\n",
       "   midi.NoteOnEvent(tick=6528, channel=7, data=[81, 98]),\n",
       "   midi.NoteOnEvent(tick=6528, channel=7, data=[76, 66]),\n",
       "   midi.NoteOnEvent(tick=6529, channel=7, data=[76, 0]),\n",
       "   midi.NoteOnEvent(tick=6529, channel=7, data=[79, 0]),\n",
       "   midi.NoteOnEvent(tick=6529, channel=7, data=[81, 0]),\n",
       "   midi.NoteOnEvent(tick=6656, channel=7, data=[84, 0]),\n",
       "   midi.NoteOnEvent(tick=6660, channel=7, data=[81, 0]),\n",
       "   midi.NoteOnEvent(tick=6664, channel=7, data=[83, 98]),\n",
       "   midi.NoteOnEvent(tick=6664, channel=7, data=[74, 107]),\n",
       "   midi.NoteOnEvent(tick=6664, channel=7, data=[83, 50]),\n",
       "   midi.NoteOnEvent(tick=6665, channel=7, data=[83, 0]),\n",
       "   midi.NoteOnEvent(tick=6668, channel=7, data=[76, 0]),\n",
       "   midi.NoteOnEvent(tick=6668, channel=7, data=[74, 0]),\n",
       "   midi.NoteOnEvent(tick=6668, channel=7, data=[74, 70]),\n",
       "   midi.PitchWheelEvent(tick=6896, channel=7, data=[0, 59]),\n",
       "   midi.NoteOnEvent(tick=6900, channel=7, data=[74, 0]),\n",
       "   midi.NoteOnEvent(tick=6900, channel=7, data=[79, 0]),\n",
       "   midi.NoteOnEvent(tick=6904, channel=7, data=[79, 75]),\n",
       "   midi.NoteOnEvent(tick=6904, channel=7, data=[76, 98]),\n",
       "   midi.PitchWheelEvent(tick=6908, channel=7, data=[0, 62]),\n",
       "   midi.PitchWheelEvent(tick=6908, channel=7, data=[0, 64]),\n",
       "   midi.PitchWheelEvent(tick=6916, channel=7, data=[0, 64]),\n",
       "   midi.PitchWheelEvent(tick=6928, channel=7, data=[0, 59]),\n",
       "   midi.PitchWheelEvent(tick=6960, channel=7, data=[0, 64]),\n",
       "   midi.NoteOnEvent(tick=7044, channel=7, data=[76, 0]),\n",
       "   midi.NoteOnEvent(tick=7044, channel=7, data=[79, 0]),\n",
       "   midi.NoteOnEvent(tick=7044, channel=7, data=[83, 0]),\n",
       "   midi.NoteOnEvent(tick=7048, channel=7, data=[81, 90]),\n",
       "   midi.NoteOnEvent(tick=7048, channel=7, data=[78, 98]),\n",
       "   midi.NoteOnEvent(tick=7052, channel=7, data=[78, 0]),\n",
       "   midi.NoteOnEvent(tick=7052, channel=7, data=[81, 0]),\n",
       "   midi.NoteOnEvent(tick=7052, channel=7, data=[74, 98]),\n",
       "   midi.NoteOnEvent(tick=7052, channel=7, data=[78, 98]),\n",
       "   midi.NoteOnEvent(tick=7052, channel=7, data=[81, 90]),\n",
       "   midi.NoteOnEvent(tick=7052, channel=7, data=[74, 98]),\n",
       "   midi.NoteOnEvent(tick=7053, channel=7, data=[74, 0]),\n",
       "   midi.PitchWheelEvent(tick=7120, channel=7, data=[0, 62]),\n",
       "   midi.PitchWheelEvent(tick=7124, channel=7, data=[0, 64]),\n",
       "   midi.PitchWheelEvent(tick=7188, channel=7, data=[0, 60]),\n",
       "   midi.PitchWheelEvent(tick=7192, channel=7, data=[0, 64]),\n",
       "   midi.NoteOnEvent(tick=7280, channel=7, data=[74, 0]),\n",
       "   midi.NoteOnEvent(tick=7280, channel=7, data=[78, 0]),\n",
       "   midi.NoteOnEvent(tick=7280, channel=7, data=[81, 0]),\n",
       "   midi.NoteOnEvent(tick=7288, channel=7, data=[81, 75]),\n",
       "   midi.NoteOnEvent(tick=7288, channel=7, data=[76, 90]),\n",
       "   midi.NoteOnEvent(tick=7288, channel=7, data=[79, 98]),\n",
       "   midi.NoteOnEvent(tick=7288, channel=7, data=[72, 90]),\n",
       "   midi.NoteOnEvent(tick=7424, channel=7, data=[81, 0]),\n",
       "   midi.NoteOnEvent(tick=7432, channel=7, data=[76, 0]),\n",
       "   midi.NoteOnEvent(tick=7432, channel=7, data=[72, 0]),\n",
       "   midi.NoteOnEvent(tick=7440, channel=7, data=[71, 81]),\n",
       "   midi.NoteOnEvent(tick=7440, channel=7, data=[74, 80]),\n",
       "   midi.PitchWheelEvent(tick=7504, channel=7, data=[0, 61]),\n",
       "   midi.PitchWheelEvent(tick=7508, channel=7, data=[0, 64]),\n",
       "   midi.PitchWheelEvent(tick=7584, channel=7, data=[0, 61]),\n",
       "   midi.PitchWheelEvent(tick=7588, channel=7, data=[0, 64]),\n",
       "   midi.NoteOnEvent(tick=7664, channel=7, data=[74, 0]),\n",
       "   midi.NoteOnEvent(tick=7668, channel=7, data=[79, 0]),\n",
       "   midi.NoteOnEvent(tick=7672, channel=7, data=[71, 0]),\n",
       "   midi.NoteOnEvent(tick=7676, channel=7, data=[81, 107]),\n",
       "   midi.NoteOnEvent(tick=7676, channel=7, data=[76, 107]),\n",
       "   midi.NoteOnEvent(tick=7676, channel=7, data=[72, 98]),\n",
       "   midi.NoteOnEvent(tick=7800, channel=7, data=[76, 0]),\n",
       "   midi.NoteOnEvent(tick=7804, channel=7, data=[72, 0]),\n",
       "   midi.NoteOnEvent(tick=7804, channel=7, data=[81, 0]),\n",
       "   midi.NoteOnEvent(tick=7820, channel=7, data=[79, 107]),\n",
       "   midi.NoteOnEvent(tick=7820, channel=7, data=[74, 127]),\n",
       "   midi.NoteOnEvent(tick=7820, channel=7, data=[71, 118]),\n",
       "   midi.NoteOnEvent(tick=8024, channel=7, data=[79, 0]),\n",
       "   midi.NoteOnEvent(tick=8052, channel=7, data=[71, 0]),\n",
       "   midi.NoteOnEvent(tick=8052, channel=7, data=[74, 0]),\n",
       "   midi.NoteOnEvent(tick=8060, channel=7, data=[79, 107]),\n",
       "   midi.NoteOnEvent(tick=8060, channel=7, data=[81, 107]),\n",
       "   midi.NoteOnEvent(tick=8060, channel=7, data=[84, 98]),\n",
       "   midi.NoteOnEvent(tick=8060, channel=7, data=[76, 107]),\n",
       "   midi.NoteOnEvent(tick=8064, channel=7, data=[76, 0]),\n",
       "   midi.NoteOnEvent(tick=8064, channel=7, data=[79, 0]),\n",
       "   midi.NoteOnEvent(tick=8064, channel=7, data=[81, 0]),\n",
       "   midi.NoteOnEvent(tick=8064, channel=7, data=[84, 0]),\n",
       "   midi.PitchWheelEvent(tick=8064, channel=7, data=[0, 60]),\n",
       "   midi.NoteOnEvent(tick=8064, channel=7, data=[81, 98]),\n",
       "   midi.NoteOnEvent(tick=8064, channel=7, data=[84, 98]),\n",
       "   midi.NoteOnEvent(tick=8064, channel=7, data=[79, 90]),\n",
       "   midi.NoteOnEvent(tick=8064, channel=7, data=[76, 90]),\n",
       "   midi.NoteOnEvent(tick=8192, channel=7, data=[81, 0]),\n",
       "   midi.NoteOnEvent(tick=8196, channel=7, data=[84, 0]),\n",
       "   midi.NoteOnEvent(tick=8196, channel=7, data=[76, 0]),\n",
       "   midi.NoteOnEvent(tick=8200, channel=7, data=[79, 0]),\n",
       "   midi.NoteOnEvent(tick=8200, channel=7, data=[79, 81]),\n",
       "   midi.NoteOnEvent(tick=8200, channel=7, data=[83, 81]),\n",
       "   midi.NoteOnEvent(tick=8204, channel=7, data=[74, 118]),\n",
       "   midi.PitchWheelEvent(tick=8244, channel=7, data=[0, 64]),\n",
       "   midi.PitchWheelEvent(tick=8320, channel=7, data=[0, 60]),\n",
       "   midi.PitchWheelEvent(tick=8324, channel=7, data=[0, 64]),\n",
       "   midi.PitchWheelEvent(tick=8416, channel=7, data=[0, 60]),\n",
       "   midi.NoteOnEvent(tick=8432, channel=7, data=[83, 0]),\n",
       "   midi.NoteOnEvent(tick=8436, channel=7, data=[74, 0]),\n",
       "   midi.NoteOnEvent(tick=8436, channel=7, data=[79, 0]),\n",
       "   midi.PitchWheelEvent(tick=8436, channel=7, data=[0, 64]),\n",
       "   midi.NoteOnEvent(tick=8440, channel=7, data=[79, 98]),\n",
       "   midi.NoteOnEvent(tick=8440, channel=7, data=[83, 90]),\n",
       "   midi.NoteOnEvent(tick=8444, channel=7, data=[76, 90]),\n",
       "   midi.PitchWheelEvent(tick=8476, channel=7, data=[0, 60]),\n",
       "   midi.PitchWheelEvent(tick=8484, channel=7, data=[0, 64]),\n",
       "   midi.PitchWheelEvent(tick=8516, channel=7, data=[0, 60]),\n",
       "   midi.PitchWheelEvent(tick=8520, channel=7, data=[0, 64]),\n",
       "   midi.NoteOnEvent(tick=8576, channel=7, data=[76, 0]),\n",
       "   midi.NoteOnEvent(tick=8576, channel=7, data=[83, 0]),\n",
       "   midi.NoteOnEvent(tick=8576, channel=7, data=[79, 0]),\n",
       "   midi.NoteOnEvent(tick=8584, channel=7, data=[81, 98]),\n",
       "   midi.NoteOnEvent(tick=8584, channel=7, data=[78, 107]),\n",
       "   midi.NoteOnEvent(tick=8588, channel=7, data=[74, 118]),\n",
       "   midi.NoteOnEvent(tick=8812, channel=7, data=[74, 0]),\n",
       "   midi.NoteOnEvent(tick=8816, channel=7, data=[81, 0]),\n",
       "   midi.NoteOnEvent(tick=8824, channel=7, data=[78, 0]),\n",
       "   midi.NoteOnEvent(tick=8828, channel=7, data=[81, 70]),\n",
       "   midi.NoteOnEvent(tick=8828, channel=7, data=[76, 98]),\n",
       "   midi.NoteOnEvent(tick=8828, channel=7, data=[72, 90]),\n",
       "   midi.PitchWheelEvent(tick=8888, channel=7, data=[0, 60]),\n",
       "   midi.PitchWheelEvent(tick=8888, channel=7, data=[0, 64]),\n",
       "   midi.NoteOnEvent(tick=8956, channel=7, data=[76, 0]),\n",
       "   midi.NoteOnEvent(tick=8960, channel=7, data=[72, 0]),\n",
       "   midi.NoteOnEvent(tick=8960, channel=7, data=[81, 0]),\n",
       "   midi.NoteOnEvent(tick=8968, channel=7, data=[79, 98]),\n",
       "   midi.NoteOnEvent(tick=8968, channel=7, data=[71, 118]),\n",
       "   midi.NoteOnEvent(tick=8972, channel=7, data=[74, 127]),\n",
       "   midi.NoteOnEvent(tick=9192, channel=7, data=[71, 0]),\n",
       "   midi.NoteOnEvent(tick=9200, channel=7, data=[74, 0]),\n",
       "   midi.NoteOnEvent(tick=9200, channel=7, data=[79, 0]),\n",
       "   midi.NoteOnEvent(tick=9208, channel=7, data=[81, 107]),\n",
       "   midi.NoteOnEvent(tick=9208, channel=7, data=[76, 98]),\n",
       "   midi.NoteOnEvent(tick=9212, channel=7, data=[72, 98]),\n",
       "   midi.NoteOnEvent(tick=9388, channel=7, data=[76, 0]),\n",
       "   midi.NoteOnEvent(tick=9392, channel=7, data=[72, 0]),\n",
       "   midi.NoteOnEvent(tick=9392, channel=7, data=[81, 0]),\n",
       "   midi.NoteOnEvent(tick=9400, channel=7, data=[79, 90]),\n",
       "   midi.NoteOnEvent(tick=9400, channel=7, data=[71, 98]),\n",
       "   midi.NoteOnEvent(tick=9400, channel=7, data=[74, 107]),\n",
       "   midi.NoteOnEvent(tick=9492, channel=7, data=[71, 0]),\n",
       "   midi.NoteOnEvent(tick=9496, channel=7, data=[79, 0]),\n",
       "   midi.NoteOnEvent(tick=9500, channel=7, data=[78, 107]),\n",
       "   midi.NoteOnEvent(tick=9504, channel=7, data=[69, 107]),\n",
       "   midi.NoteOnEvent(tick=9584, channel=7, data=[69, 0]),\n",
       "   midi.NoteOnEvent(tick=9584, channel=7, data=[78, 0]),\n",
       "   midi.NoteOnEvent(tick=9584, channel=7, data=[74, 0]),\n",
       "   midi.NoteOnEvent(tick=12672, channel=7, data=[79, 98]),\n",
       "   midi.NoteOnEvent(tick=12672, channel=7, data=[84, 107]),\n",
       "   midi.NoteOnEvent(tick=12672, channel=7, data=[81, 118]),\n",
       "   midi.NoteOnEvent(tick=12672, channel=7, data=[79, 107]),\n",
       "   midi.NoteOnEvent(tick=12672, channel=7, data=[76, 81]),\n",
       "   midi.NoteOnEvent(tick=12672, channel=7, data=[81, 98]),\n",
       "   midi.NoteOnEvent(tick=12672, channel=7, data=[76, 66]),\n",
       "   midi.NoteOnEvent(tick=12673, channel=7, data=[76, 0]),\n",
       "   midi.NoteOnEvent(tick=12673, channel=7, data=[79, 0]),\n",
       "   midi.NoteOnEvent(tick=12673, channel=7, data=[81, 0]),\n",
       "   midi.NoteOnEvent(tick=12800, channel=7, data=[84, 0]),\n",
       "   midi.NoteOnEvent(tick=12804, channel=7, data=[81, 0]),\n",
       "   midi.NoteOnEvent(tick=12808, channel=7, data=[83, 98]),\n",
       "   midi.NoteOnEvent(tick=12808, channel=7, data=[74, 107]),\n",
       "   midi.NoteOnEvent(tick=12808, channel=7, data=[83, 50]),\n",
       "   midi.NoteOnEvent(tick=12809, channel=7, data=[83, 0]),\n",
       "   midi.NoteOnEvent(tick=12812, channel=7, data=[76, 0]),\n",
       "   midi.NoteOnEvent(tick=12812, channel=7, data=[74, 0]),\n",
       "   midi.NoteOnEvent(tick=12812, channel=7, data=[74, 70]),\n",
       "   midi.PitchWheelEvent(tick=13040, channel=7, data=[0, 59]),\n",
       "   midi.NoteOnEvent(tick=13044, channel=7, data=[74, 0]),\n",
       "   midi.NoteOnEvent(tick=13044, channel=7, data=[79, 0]),\n",
       "   midi.NoteOnEvent(tick=13048, channel=7, data=[79, 75]),\n",
       "   midi.NoteOnEvent(tick=13048, channel=7, data=[76, 98]),\n",
       "   midi.PitchWheelEvent(tick=13052, channel=7, data=[0, 62]),\n",
       "   midi.PitchWheelEvent(tick=13052, channel=7, data=[0, 64]),\n",
       "   midi.PitchWheelEvent(tick=13060, channel=7, data=[0, 64]),\n",
       "   midi.PitchWheelEvent(tick=13072, channel=7, data=[0, 59]),\n",
       "   midi.PitchWheelEvent(tick=13104, channel=7, data=[0, 64]),\n",
       "   midi.NoteOnEvent(tick=13188, channel=7, data=[76, 0]),\n",
       "   midi.NoteOnEvent(tick=13188, channel=7, data=[79, 0]),\n",
       "   midi.NoteOnEvent(tick=13188, channel=7, data=[83, 0]),\n",
       "   midi.NoteOnEvent(tick=13192, channel=7, data=[81, 90]),\n",
       "   midi.NoteOnEvent(tick=13192, channel=7, data=[78, 98]),\n",
       "   midi.NoteOnEvent(tick=13196, channel=7, data=[78, 0]),\n",
       "   midi.NoteOnEvent(tick=13196, channel=7, data=[81, 0]),\n",
       "   midi.NoteOnEvent(tick=13196, channel=7, data=[74, 98]),\n",
       "   midi.NoteOnEvent(tick=13196, channel=7, data=[78, 98]),\n",
       "   midi.NoteOnEvent(tick=13196, channel=7, data=[81, 90]),\n",
       "   midi.NoteOnEvent(tick=13196, channel=7, data=[74, 98]),\n",
       "   midi.NoteOnEvent(tick=13197, channel=7, data=[74, 0]),\n",
       "   midi.PitchWheelEvent(tick=13264, channel=7, data=[0, 62]),\n",
       "   midi.PitchWheelEvent(tick=13268, channel=7, data=[0, 64]),\n",
       "   midi.PitchWheelEvent(tick=13332, channel=7, data=[0, 60]),\n",
       "   midi.PitchWheelEvent(tick=13336, channel=7, data=[0, 64]),\n",
       "   midi.NoteOnEvent(tick=13424, channel=7, data=[74, 0]),\n",
       "   midi.NoteOnEvent(tick=13424, channel=7, data=[78, 0]),\n",
       "   midi.NoteOnEvent(tick=13424, channel=7, data=[81, 0]),\n",
       "   midi.NoteOnEvent(tick=13432, channel=7, data=[81, 75]),\n",
       "   midi.NoteOnEvent(tick=13432, channel=7, data=[76, 90]),\n",
       "   midi.NoteOnEvent(tick=13432, channel=7, data=[79, 98]),\n",
       "   midi.NoteOnEvent(tick=13432, channel=7, data=[72, 90]),\n",
       "   midi.NoteOnEvent(tick=13568, channel=7, data=[81, 0]),\n",
       "   midi.NoteOnEvent(tick=13576, channel=7, data=[76, 0]),\n",
       "   midi.NoteOnEvent(tick=13576, channel=7, data=[72, 0]),\n",
       "   midi.NoteOnEvent(tick=13584, channel=7, data=[71, 81]),\n",
       "   midi.NoteOnEvent(tick=13584, channel=7, data=[74, 80]),\n",
       "   midi.PitchWheelEvent(tick=13648, channel=7, data=[0, 61]),\n",
       "   midi.PitchWheelEvent(tick=13652, channel=7, data=[0, 64]),\n",
       "   midi.PitchWheelEvent(tick=13728, channel=7, data=[0, 61]),\n",
       "   midi.PitchWheelEvent(tick=13732, channel=7, data=[0, 64]),\n",
       "   midi.NoteOnEvent(tick=13808, channel=7, data=[74, 0]),\n",
       "   midi.NoteOnEvent(tick=13812, channel=7, data=[79, 0]),\n",
       "   midi.NoteOnEvent(tick=13816, channel=7, data=[71, 0]),\n",
       "   midi.NoteOnEvent(tick=13820, channel=7, data=[81, 107]),\n",
       "   midi.NoteOnEvent(tick=13820, channel=7, data=[76, 107]),\n",
       "   midi.NoteOnEvent(tick=13820, channel=7, data=[72, 98]),\n",
       "   midi.NoteOnEvent(tick=13944, channel=7, data=[76, 0]),\n",
       "   midi.NoteOnEvent(tick=13948, channel=7, data=[72, 0]),\n",
       "   midi.NoteOnEvent(tick=13948, channel=7, data=[81, 0]),\n",
       "   midi.NoteOnEvent(tick=13964, channel=7, data=[79, 107]),\n",
       "   midi.NoteOnEvent(tick=13964, channel=7, data=[74, 127]),\n",
       "   midi.NoteOnEvent(tick=13964, channel=7, data=[71, 118]),\n",
       "   midi.NoteOnEvent(tick=14168, channel=7, data=[79, 0]),\n",
       "   midi.NoteOnEvent(tick=14196, channel=7, data=[71, 0]),\n",
       "   midi.NoteOnEvent(tick=14196, channel=7, data=[74, 0]),\n",
       "   midi.NoteOnEvent(tick=14204, channel=7, data=[79, 107]),\n",
       "   midi.NoteOnEvent(tick=14204, channel=7, data=[81, 107]),\n",
       "   midi.NoteOnEvent(tick=14204, channel=7, data=[84, 98]),\n",
       "   midi.NoteOnEvent(tick=14204, channel=7, data=[76, 107]),\n",
       "   midi.NoteOnEvent(tick=14208, channel=7, data=[76, 0]),\n",
       "   midi.NoteOnEvent(tick=14208, channel=7, data=[79, 0]),\n",
       "   midi.NoteOnEvent(tick=14208, channel=7, data=[81, 0]),\n",
       "   midi.NoteOnEvent(tick=14208, channel=7, data=[84, 0]),\n",
       "   midi.PitchWheelEvent(tick=14208, channel=7, data=[0, 60]),\n",
       "   midi.NoteOnEvent(tick=14208, channel=7, data=[81, 98]),\n",
       "   midi.NoteOnEvent(tick=14208, channel=7, data=[84, 98]),\n",
       "   midi.NoteOnEvent(tick=14208, channel=7, data=[79, 90]),\n",
       "   midi.NoteOnEvent(tick=14208, channel=7, data=[76, 90]),\n",
       "   midi.NoteOnEvent(tick=14336, channel=7, data=[81, 0]),\n",
       "   midi.NoteOnEvent(tick=14340, channel=7, data=[84, 0]),\n",
       "   midi.NoteOnEvent(tick=14340, channel=7, data=[76, 0]),\n",
       "   midi.NoteOnEvent(tick=14344, channel=7, data=[79, 0]),\n",
       "   midi.NoteOnEvent(tick=14344, channel=7, data=[79, 81]),\n",
       "   midi.NoteOnEvent(tick=14344, channel=7, data=[83, 81]),\n",
       "   midi.NoteOnEvent(tick=14348, channel=7, data=[74, 118]),\n",
       "   midi.PitchWheelEvent(tick=14388, channel=7, data=[0, 64]),\n",
       "   midi.PitchWheelEvent(tick=14464, channel=7, data=[0, 60]),\n",
       "   midi.PitchWheelEvent(tick=14468, channel=7, data=[0, 64]),\n",
       "   midi.PitchWheelEvent(tick=14560, channel=7, data=[0, 60]),\n",
       "   midi.NoteOnEvent(tick=14576, channel=7, data=[83, 0]),\n",
       "   midi.NoteOnEvent(tick=14580, channel=7, data=[74, 0]),\n",
       "   midi.NoteOnEvent(tick=14580, channel=7, data=[79, 0]),\n",
       "   midi.PitchWheelEvent(tick=14580, channel=7, data=[0, 64]),\n",
       "   midi.NoteOnEvent(tick=14584, channel=7, data=[79, 98]),\n",
       "   midi.NoteOnEvent(tick=14584, channel=7, data=[83, 90]),\n",
       "   midi.NoteOnEvent(tick=14588, channel=7, data=[76, 90]),\n",
       "   midi.PitchWheelEvent(tick=14620, channel=7, data=[0, 60]),\n",
       "   midi.PitchWheelEvent(tick=14628, channel=7, data=[0, 64]),\n",
       "   midi.PitchWheelEvent(tick=14660, channel=7, data=[0, 60]),\n",
       "   midi.PitchWheelEvent(tick=14664, channel=7, data=[0, 64]),\n",
       "   midi.NoteOnEvent(tick=14720, channel=7, data=[76, 0]),\n",
       "   midi.NoteOnEvent(tick=14720, channel=7, data=[83, 0]),\n",
       "   midi.NoteOnEvent(tick=14720, channel=7, data=[79, 0]),\n",
       "   midi.NoteOnEvent(tick=14728, channel=7, data=[81, 98]),\n",
       "   midi.NoteOnEvent(tick=14728, channel=7, data=[78, 107]),\n",
       "   midi.NoteOnEvent(tick=14732, channel=7, data=[74, 118]),\n",
       "   midi.NoteOnEvent(tick=14956, channel=7, data=[74, 0]),\n",
       "   midi.NoteOnEvent(tick=14960, channel=7, data=[81, 0]),\n",
       "   midi.NoteOnEvent(tick=14968, channel=7, data=[78, 0]),\n",
       "   midi.NoteOnEvent(tick=14972, channel=7, data=[81, 70]),\n",
       "   midi.NoteOnEvent(tick=14972, channel=7, data=[76, 98]),\n",
       "   midi.NoteOnEvent(tick=14972, channel=7, data=[72, 90]),\n",
       "   midi.PitchWheelEvent(tick=15032, channel=7, data=[0, 60]),\n",
       "   midi.PitchWheelEvent(tick=15032, channel=7, data=[0, 64]),\n",
       "   midi.NoteOnEvent(tick=15100, channel=7, data=[76, 0]),\n",
       "   midi.NoteOnEvent(tick=15104, channel=7, data=[72, 0]),\n",
       "   midi.NoteOnEvent(tick=15104, channel=7, data=[81, 0]),\n",
       "   midi.NoteOnEvent(tick=15112, channel=7, data=[79, 98]),\n",
       "   midi.NoteOnEvent(tick=15112, channel=7, data=[71, 118]),\n",
       "   midi.NoteOnEvent(tick=15116, channel=7, data=[74, 127]),\n",
       "   midi.NoteOnEvent(tick=15336, channel=7, data=[71, 0]),\n",
       "   midi.NoteOnEvent(tick=15344, channel=7, data=[74, 0]),\n",
       "   midi.NoteOnEvent(tick=15344, channel=7, data=[79, 0]),\n",
       "   midi.NoteOnEvent(tick=15352, channel=7, data=[81, 107]),\n",
       "   midi.NoteOnEvent(tick=15352, channel=7, data=[76, 98]),\n",
       "   midi.NoteOnEvent(tick=15356, channel=7, data=[72, 98]),\n",
       "   midi.NoteOnEvent(tick=15532, channel=7, data=[76, 0]),\n",
       "   midi.NoteOnEvent(tick=15536, channel=7, data=[72, 0]),\n",
       "   midi.NoteOnEvent(tick=15536, channel=7, data=[81, 0]),\n",
       "   midi.NoteOnEvent(tick=15544, channel=7, data=[79, 90]),\n",
       "   midi.NoteOnEvent(tick=15544, channel=7, data=[71, 98]),\n",
       "   midi.NoteOnEvent(tick=15544, channel=7, data=[74, 107]),\n",
       "   midi.NoteOnEvent(tick=15636, channel=7, data=[71, 0]),\n",
       "   midi.NoteOnEvent(tick=15640, channel=7, data=[79, 0]),\n",
       "   midi.NoteOnEvent(tick=15644, channel=7, data=[78, 107]),\n",
       "   midi.NoteOnEvent(tick=15648, channel=7, data=[69, 107]),\n",
       "   midi.NoteOnEvent(tick=15728, channel=7, data=[69, 0]),\n",
       "   midi.NoteOnEvent(tick=15728, channel=7, data=[78, 0]),\n",
       "   midi.NoteOnEvent(tick=15728, channel=7, data=[74, 0]),\n",
       "   midi.NoteOnEvent(tick=15744, channel=7, data=[81, 118]),\n",
       "   midi.NoteOnEvent(tick=15744, channel=7, data=[77, 118]),\n",
       "   midi.NoteOnEvent(tick=15744, channel=7, data=[84, 118]),\n",
       "   midi.NoteOnEvent(tick=15864, channel=7, data=[84, 0]),\n",
       "   midi.NoteOnEvent(tick=15864, channel=7, data=[81, 0]),\n",
       "   midi.NoteOnEvent(tick=15868, channel=7, data=[77, 0]),\n",
       "   midi.NoteOnEvent(tick=15880, channel=7, data=[76, 118]),\n",
       "   midi.NoteOnEvent(tick=15880, channel=7, data=[84, 118]),\n",
       "   midi.NoteOnEvent(tick=15884, channel=7, data=[79, 127]),\n",
       "   midi.NoteOnEvent(tick=16088, channel=7, data=[84, 0]),\n",
       "   midi.NoteOnEvent(tick=16088, channel=7, data=[76, 0]),\n",
       "   midi.NoteOnEvent(tick=16092, channel=7, data=[79, 0]),\n",
       "   midi.NoteOnEvent(tick=16120, channel=7, data=[83, 118]),\n",
       "   midi.NoteOnEvent(tick=16120, channel=7, data=[78, 118]),\n",
       "   midi.NoteOnEvent(tick=16120, channel=7, data=[74, 118]),\n",
       "   midi.NoteOnEvent(tick=16128, channel=7, data=[74, 0]),\n",
       "   midi.NoteOnEvent(tick=16128, channel=7, data=[78, 0]),\n",
       "   midi.NoteOnEvent(tick=16128, channel=7, data=[83, 0]),\n",
       "   midi.NoteOnEvent(tick=16128, channel=7, data=[83, 118]),\n",
       "   midi.NoteOnEvent(tick=16128, channel=7, data=[78, 127]),\n",
       "   midi.NoteOnEvent(tick=16128, channel=7, data=[74, 127]),\n",
       "   midi.NoteOnEvent(tick=16244, channel=7, data=[74, 0]),\n",
       "   midi.NoteOnEvent(tick=16244, channel=7, data=[83, 0]),\n",
       "   midi.NoteOnEvent(tick=16248, channel=7, data=[78, 0]),\n",
       "   midi.NoteOnEvent(tick=16264, channel=7, data=[83, 118]),\n",
       "   midi.NoteOnEvent(tick=16264, channel=7, data=[79, 127]),\n",
       "   midi.NoteOnEvent(tick=16264, channel=7, data=[76, 118]),\n",
       "   midi.NoteOnEvent(tick=16264, channel=7, data=[71, 116]),\n",
       "   midi.NoteOnEvent(tick=16332, channel=7, data=[71, 0]),\n",
       "   midi.NoteOnEvent(tick=16332, channel=7, data=[83, 0]),\n",
       "   midi.NoteOnEvent(tick=16336, channel=7, data=[76, 0]),\n",
       "   midi.NoteOnEvent(tick=16336, channel=7, data=[79, 0]),\n",
       "   midi.NoteOnEvent(tick=16352, channel=7, data=[76, 118]),\n",
       "   midi.NoteOnEvent(tick=16352, channel=7, data=[79, 127]),\n",
       "   midi.NoteOnEvent(tick=16352, channel=7, data=[72, 127]),\n",
       "   midi.NoteOnEvent(tick=16400, channel=7, data=[79, 0]),\n",
       "   midi.NoteOnEvent(tick=16404, channel=7, data=[72, 0]),\n",
       "   midi.NoteOnEvent(tick=16404, channel=7, data=[76, 0]),\n",
       "   midi.NoteOnEvent(tick=16408, channel=7, data=[81, 118]),\n",
       "   midi.NoteOnEvent(tick=16408, channel=7, data=[78, 118]),\n",
       "   midi.NoteOnEvent(tick=16412, channel=7, data=[74, 127]),\n",
       "   midi.NoteOnEvent(tick=16488, channel=7, data=[81, 0]),\n",
       "   midi.NoteOnEvent(tick=16492, channel=7, data=[74, 0]),\n",
       "   midi.NoteOnEvent(tick=16492, channel=7, data=[78, 0]),\n",
       "   midi.NoteOnEvent(tick=16512, channel=7, data=[81, 118]),\n",
       "   midi.NoteOnEvent(tick=16512, channel=7, data=[84, 118]),\n",
       "   midi.NoteOnEvent(tick=16512, channel=7, data=[77, 118]),\n",
       "   midi.NoteOnEvent(tick=16644, channel=7, data=[77, 0]),\n",
       "   midi.NoteOnEvent(tick=16644, channel=7, data=[84, 0]),\n",
       "   midi.NoteOnEvent(tick=16644, channel=7, data=[81, 0]),\n",
       "   midi.NoteOnEvent(tick=16648, channel=7, data=[84, 98]),\n",
       "   midi.NoteOnEvent(tick=16648, channel=7, data=[76, 107]),\n",
       "   midi.NoteOnEvent(tick=16652, channel=7, data=[79, 118]),\n",
       "   midi.NoteOnEvent(tick=16872, channel=7, data=[84, 0]),\n",
       "   midi.NoteOnEvent(tick=16876, channel=7, data=[79, 0]),\n",
       "   midi.NoteOnEvent(tick=16876, channel=7, data=[76, 0]),\n",
       "   midi.NoteOnEvent(tick=16888, channel=7, data=[83, 118]),\n",
       "   midi.NoteOnEvent(tick=16888, channel=7, data=[78, 127]),\n",
       "   midi.NoteOnEvent(tick=16892, channel=7, data=[74, 127]),\n",
       "   midi.NoteOnEvent(tick=17020, channel=7, data=[74, 0]),\n",
       "   midi.NoteOnEvent(tick=17020, channel=7, data=[78, 0]),\n",
       "   midi.NoteOnEvent(tick=17020, channel=7, data=[83, 0]),\n",
       "   midi.NoteOnEvent(tick=17032, channel=7, data=[83, 127]),\n",
       "   midi.NoteOnEvent(tick=17032, channel=7, data=[76, 118]),\n",
       "   midi.NoteOnEvent(tick=17036, channel=7, data=[79, 127]),\n",
       "   midi.NoteOnEvent(tick=17112, channel=7, data=[83, 0]),\n",
       "   midi.NoteOnEvent(tick=17116, channel=7, data=[79, 0]),\n",
       "   midi.NoteOnEvent(tick=17116, channel=7, data=[76, 0]),\n",
       "   midi.NoteOnEvent(tick=17128, channel=7, data=[79, 127]),\n",
       "   midi.NoteOnEvent(tick=17128, channel=7, data=[72, 127]),\n",
       "   midi.NoteOnEvent(tick=17128, channel=7, data=[76, 127]),\n",
       "   midi.NoteOnEvent(tick=17168, channel=7, data=[76, 0]),\n",
       "   midi.NoteOnEvent(tick=17168, channel=7, data=[72, 0]),\n",
       "   midi.NoteOnEvent(tick=17168, channel=7, data=[79, 0]),\n",
       "   midi.NoteOnEvent(tick=17176, channel=7, data=[72, 127]),\n",
       "   midi.NoteOnEvent(tick=17176, channel=7, data=[76, 107]),\n",
       "   midi.NoteOnEvent(tick=17176, channel=7, data=[79, 107]),\n",
       "   midi.NoteOnEvent(tick=17216, channel=7, data=[79, 0]),\n",
       "   midi.NoteOnEvent(tick=17216, channel=7, data=[76, 0]),\n",
       "   midi.NoteOnEvent(tick=17220, channel=7, data=[72, 0]),\n",
       "   midi.NoteOnEvent(tick=17224, channel=7, data=[81, 107]),\n",
       "   midi.NoteOnEvent(tick=17224, channel=7, data=[78, 107]),\n",
       "   midi.NoteOnEvent(tick=17224, channel=7, data=[74, 127]),\n",
       "   midi.NoteOnEvent(tick=17264, channel=7, data=[74, 0]),\n",
       "   midi.NoteOnEvent(tick=17264, channel=7, data=[81, 0]),\n",
       "   midi.NoteOnEvent(tick=17268, channel=7, data=[78, 0]),\n",
       "   midi.NoteOnEvent(tick=17276, channel=7, data=[78, 118]),\n",
       "   midi.NoteOnEvent(tick=17276, channel=7, data=[74, 127]),\n",
       "   midi.NoteOnEvent(tick=17276, channel=7, data=[81, 127]),\n",
       "   midi.NoteOnEvent(tick=17400, channel=7, data=[81, 0]),\n",
       "   midi.NoteOnEvent(tick=17404, channel=7, data=[78, 0]),\n",
       "   midi.NoteOnEvent(tick=17408, channel=7, data=[74, 0]),\n",
       "   midi.NoteOnEvent(tick=17416, channel=7, data=[83, 118]),\n",
       "   midi.NoteOnEvent(tick=17416, channel=7, data=[79, 127]),\n",
       "   midi.NoteOnEvent(tick=17416, channel=7, data=[76, 118]),\n",
       "   midi.NoteOnEvent(tick=17460, channel=7, data=[76, 0]),\n",
       "   midi.NoteOnEvent(tick=17460, channel=7, data=[79, 0]),\n",
       "   midi.NoteOnEvent(tick=17460, channel=7, data=[83, 0]),\n",
       "   midi.NoteOnEvent(tick=17468, channel=7, data=[81, 118]),\n",
       "   midi.NoteOnEvent(tick=17468, channel=7, data=[78, 127]),\n",
       "   midi.NoteOnEvent(tick=17468, channel=7, data=[74, 127]),\n",
       "   midi.NoteOnEvent(tick=17552, channel=7, data=[74, 0]),\n",
       "   midi.NoteOnEvent(tick=17552, channel=7, data=[78, 0]),\n",
       "   midi.NoteOnEvent(tick=17552, channel=7, data=[81, 0]),\n",
       "   midi.NoteOnEvent(tick=17564, channel=7, data=[83, 127]),\n",
       "   midi.NoteOnEvent(tick=17564, channel=7, data=[79, 127]),\n",
       "   midi.NoteOnEvent(tick=17564, channel=7, data=[74, 127]),\n",
       "   midi.NoteOnEvent(tick=17640, channel=7, data=[74, 0]),\n",
       "   midi.NoteOnEvent(tick=17640, channel=7, data=[79, 0]),\n",
       "   midi.NoteOnEvent(tick=17640, channel=7, data=[83, 0]),\n",
       "   midi.NoteOnEvent(tick=17664, channel=7, data=[79, 98]),\n",
       "   midi.NoteOnEvent(tick=17664, channel=7, data=[84, 107]),\n",
       "   midi.NoteOnEvent(tick=17664, channel=7, data=[81, 118]),\n",
       "   midi.NoteOnEvent(tick=17664, channel=7, data=[79, 107]),\n",
       "   midi.NoteOnEvent(tick=17664, channel=7, data=[76, 81]),\n",
       "   midi.NoteOnEvent(tick=17664, channel=7, data=[81, 98]),\n",
       "   midi.NoteOnEvent(tick=17664, channel=7, data=[76, 66]),\n",
       "   midi.NoteOnEvent(tick=17665, channel=7, data=[76, 0]),\n",
       "   midi.NoteOnEvent(tick=17665, channel=7, data=[79, 0]),\n",
       "   midi.NoteOnEvent(tick=17665, channel=7, data=[81, 0]),\n",
       "   midi.NoteOnEvent(tick=17792, channel=7, data=[84, 0]),\n",
       "   midi.NoteOnEvent(tick=17796, channel=7, data=[81, 0]),\n",
       "   midi.NoteOnEvent(tick=17800, channel=7, data=[83, 98]),\n",
       "   midi.NoteOnEvent(tick=17800, channel=7, data=[74, 107]),\n",
       "   midi.NoteOnEvent(tick=17800, channel=7, data=[83, 50]),\n",
       "   midi.NoteOnEvent(tick=17801, channel=7, data=[83, 0]),\n",
       "   midi.NoteOnEvent(tick=17804, channel=7, data=[76, 0]),\n",
       "   midi.NoteOnEvent(tick=17804, channel=7, data=[74, 0]),\n",
       "   midi.NoteOnEvent(tick=17804, channel=7, data=[74, 70]),\n",
       "   midi.PitchWheelEvent(tick=18032, channel=7, data=[0, 59]),\n",
       "   midi.NoteOnEvent(tick=18036, channel=7, data=[74, 0]),\n",
       "   midi.NoteOnEvent(tick=18036, channel=7, data=[79, 0]),\n",
       "   midi.NoteOnEvent(tick=18040, channel=7, data=[79, 75]),\n",
       "   midi.NoteOnEvent(tick=18040, channel=7, data=[76, 98]),\n",
       "   midi.PitchWheelEvent(tick=18044, channel=7, data=[0, 62]),\n",
       "   midi.PitchWheelEvent(tick=18044, channel=7, data=[0, 64]),\n",
       "   midi.PitchWheelEvent(tick=18052, channel=7, data=[0, 64]),\n",
       "   midi.PitchWheelEvent(tick=18064, channel=7, data=[0, 59]),\n",
       "   midi.PitchWheelEvent(tick=18096, channel=7, data=[0, 64]),\n",
       "   midi.NoteOnEvent(tick=18180, channel=7, data=[76, 0]),\n",
       "   midi.NoteOnEvent(tick=18180, channel=7, data=[79, 0]),\n",
       "   midi.NoteOnEvent(tick=18180, channel=7, data=[83, 0]),\n",
       "   midi.NoteOnEvent(tick=18184, channel=7, data=[81, 90]),\n",
       "   midi.NoteOnEvent(tick=18184, channel=7, data=[78, 98]),\n",
       "   midi.NoteOnEvent(tick=18188, channel=7, data=[78, 0]),\n",
       "   midi.NoteOnEvent(tick=18188, channel=7, data=[81, 0]),\n",
       "   midi.NoteOnEvent(tick=18188, channel=7, data=[74, 98]),\n",
       "   midi.NoteOnEvent(tick=18188, channel=7, data=[78, 98]),\n",
       "   midi.NoteOnEvent(tick=18188, channel=7, data=[81, 90]),\n",
       "   midi.NoteOnEvent(tick=18188, channel=7, data=[74, 98]),\n",
       "   midi.NoteOnEvent(tick=18189, channel=7, data=[74, 0]),\n",
       "   midi.PitchWheelEvent(tick=18256, channel=7, data=[0, 62]),\n",
       "   midi.PitchWheelEvent(tick=18260, channel=7, data=[0, 64]),\n",
       "   midi.PitchWheelEvent(tick=18324, channel=7, data=[0, 60]),\n",
       "   midi.PitchWheelEvent(tick=18328, channel=7, data=[0, 64]),\n",
       "   midi.NoteOnEvent(tick=18416, channel=7, data=[74, 0]),\n",
       "   midi.NoteOnEvent(tick=18416, channel=7, data=[78, 0]),\n",
       "   midi.NoteOnEvent(tick=18416, channel=7, data=[81, 0]),\n",
       "   midi.NoteOnEvent(tick=18424, channel=7, data=[81, 75]),\n",
       "   midi.NoteOnEvent(tick=18424, channel=7, data=[76, 90]),\n",
       "   midi.NoteOnEvent(tick=18424, channel=7, data=[79, 98]),\n",
       "   midi.NoteOnEvent(tick=18424, channel=7, data=[72, 90]),\n",
       "   midi.NoteOnEvent(tick=18560, channel=7, data=[81, 0]),\n",
       "   midi.NoteOnEvent(tick=18568, channel=7, data=[76, 0]),\n",
       "   midi.NoteOnEvent(tick=18568, channel=7, data=[72, 0]),\n",
       "   midi.NoteOnEvent(tick=18576, channel=7, data=[71, 81]),\n",
       "   midi.NoteOnEvent(tick=18576, channel=7, data=[74, 80]),\n",
       "   midi.PitchWheelEvent(tick=18640, channel=7, data=[0, 61]),\n",
       "   midi.PitchWheelEvent(tick=18644, channel=7, data=[0, 64]),\n",
       "   midi.PitchWheelEvent(tick=18720, channel=7, data=[0, 61]),\n",
       "   midi.PitchWheelEvent(tick=18724, channel=7, data=[0, 64]),\n",
       "   midi.NoteOnEvent(tick=18800, channel=7, data=[74, 0]),\n",
       "   midi.NoteOnEvent(tick=18804, channel=7, data=[79, 0]),\n",
       "   midi.NoteOnEvent(tick=18808, channel=7, data=[71, 0]),\n",
       "   midi.NoteOnEvent(tick=18812, channel=7, data=[81, 107]),\n",
       "   midi.NoteOnEvent(tick=18812, channel=7, data=[76, 107]),\n",
       "   midi.NoteOnEvent(tick=18812, channel=7, data=[72, 98]),\n",
       "   midi.NoteOnEvent(tick=18936, channel=7, data=[76, 0]),\n",
       "   midi.NoteOnEvent(tick=18940, channel=7, data=[72, 0]),\n",
       "   midi.NoteOnEvent(tick=18940, channel=7, data=[81, 0]),\n",
       "   midi.NoteOnEvent(tick=18956, channel=7, data=[79, 107]),\n",
       "   midi.NoteOnEvent(tick=18956, channel=7, data=[74, 127]),\n",
       "   midi.NoteOnEvent(tick=18956, channel=7, data=[71, 118]),\n",
       "   midi.NoteOnEvent(tick=19160, channel=7, data=[79, 0]),\n",
       "   midi.NoteOnEvent(tick=19188, channel=7, data=[71, 0]),\n",
       "   midi.NoteOnEvent(tick=19188, channel=7, data=[74, 0]),\n",
       "   midi.NoteOnEvent(tick=19196, channel=7, data=[79, 107]),\n",
       "   midi.NoteOnEvent(tick=19196, channel=7, data=[81, 107]),\n",
       "   midi.NoteOnEvent(tick=19196, channel=7, data=[84, 98]),\n",
       "   midi.NoteOnEvent(tick=19196, channel=7, data=[76, 107]),\n",
       "   midi.NoteOnEvent(tick=19200, channel=7, data=[76, 0]),\n",
       "   midi.NoteOnEvent(tick=19200, channel=7, data=[79, 0]),\n",
       "   midi.NoteOnEvent(tick=19200, channel=7, data=[81, 0]),\n",
       "   midi.NoteOnEvent(tick=19200, channel=7, data=[84, 0]),\n",
       "   midi.PitchWheelEvent(tick=19200, channel=7, data=[0, 60]),\n",
       "   midi.NoteOnEvent(tick=19200, channel=7, data=[81, 98]),\n",
       "   midi.NoteOnEvent(tick=19200, channel=7, data=[84, 98]),\n",
       "   midi.NoteOnEvent(tick=19200, channel=7, data=[79, 90]),\n",
       "   midi.NoteOnEvent(tick=19200, channel=7, data=[76, 90]),\n",
       "   midi.NoteOnEvent(tick=19328, channel=7, data=[81, 0]),\n",
       "   midi.NoteOnEvent(tick=19332, channel=7, data=[84, 0]),\n",
       "   midi.NoteOnEvent(tick=19332, channel=7, data=[76, 0]),\n",
       "   midi.NoteOnEvent(tick=19336, channel=7, data=[79, 0]),\n",
       "   midi.NoteOnEvent(tick=19336, channel=7, data=[79, 81]),\n",
       "   midi.NoteOnEvent(tick=19336, channel=7, data=[83, 81]),\n",
       "   midi.NoteOnEvent(tick=19340, channel=7, data=[74, 118]),\n",
       "   midi.PitchWheelEvent(tick=19380, channel=7, data=[0, 64]),\n",
       "   midi.PitchWheelEvent(tick=19456, channel=7, data=[0, 60]),\n",
       "   midi.PitchWheelEvent(tick=19460, channel=7, data=[0, 64]),\n",
       "   midi.PitchWheelEvent(tick=19552, channel=7, data=[0, 60]),\n",
       "   midi.NoteOnEvent(tick=19568, channel=7, data=[83, 0]),\n",
       "   midi.NoteOnEvent(tick=19572, channel=7, data=[74, 0]),\n",
       "   midi.NoteOnEvent(tick=19572, channel=7, data=[79, 0]),\n",
       "   midi.PitchWheelEvent(tick=19572, channel=7, data=[0, 64]),\n",
       "   midi.NoteOnEvent(tick=19576, channel=7, data=[79, 98]),\n",
       "   midi.NoteOnEvent(tick=19576, channel=7, data=[83, 90]),\n",
       "   midi.NoteOnEvent(tick=19580, channel=7, data=[76, 90]),\n",
       "   midi.PitchWheelEvent(tick=19612, channel=7, data=[0, 60]),\n",
       "   midi.PitchWheelEvent(tick=19620, channel=7, data=[0, 64]),\n",
       "   midi.PitchWheelEvent(tick=19652, channel=7, data=[0, 60]),\n",
       "   midi.PitchWheelEvent(tick=19656, channel=7, data=[0, 64]),\n",
       "   midi.NoteOnEvent(tick=19712, channel=7, data=[76, 0]),\n",
       "   midi.NoteOnEvent(tick=19712, channel=7, data=[83, 0]),\n",
       "   midi.NoteOnEvent(tick=19712, channel=7, data=[79, 0]),\n",
       "   midi.NoteOnEvent(tick=19720, channel=7, data=[81, 98]),\n",
       "   midi.NoteOnEvent(tick=19720, channel=7, data=[78, 107]),\n",
       "   midi.NoteOnEvent(tick=19724, channel=7, data=[74, 118]),\n",
       "   midi.NoteOnEvent(tick=19948, channel=7, data=[74, 0]),\n",
       "   midi.NoteOnEvent(tick=19952, channel=7, data=[81, 0]),\n",
       "   midi.NoteOnEvent(tick=19960, channel=7, data=[78, 0]),\n",
       "   midi.NoteOnEvent(tick=19964, channel=7, data=[81, 70]),\n",
       "   midi.NoteOnEvent(tick=19964, channel=7, data=[76, 98]),\n",
       "   midi.NoteOnEvent(tick=19964, channel=7, data=[72, 90]),\n",
       "   midi.PitchWheelEvent(tick=20024, channel=7, data=[0, 60]),\n",
       "   midi.PitchWheelEvent(tick=20024, channel=7, data=[0, 64]),\n",
       "   midi.NoteOnEvent(tick=20092, channel=7, data=[76, 0]),\n",
       "   midi.NoteOnEvent(tick=20096, channel=7, data=[72, 0]),\n",
       "   midi.NoteOnEvent(tick=20096, channel=7, data=[81, 0]),\n",
       "   midi.NoteOnEvent(tick=20104, channel=7, data=[79, 98]),\n",
       "   midi.NoteOnEvent(tick=20104, channel=7, data=[71, 118]),\n",
       "   midi.NoteOnEvent(tick=20108, channel=7, data=[74, 127]),\n",
       "   midi.NoteOnEvent(tick=20328, channel=7, data=[71, 0]),\n",
       "   midi.NoteOnEvent(tick=20336, channel=7, data=[74, 0]),\n",
       "   midi.NoteOnEvent(tick=20336, channel=7, data=[79, 0]),\n",
       "   midi.NoteOnEvent(tick=20344, channel=7, data=[81, 107]),\n",
       "   midi.NoteOnEvent(tick=20344, channel=7, data=[76, 98]),\n",
       "   midi.NoteOnEvent(tick=20348, channel=7, data=[72, 98]),\n",
       "   midi.NoteOnEvent(tick=20524, channel=7, data=[76, 0]),\n",
       "   midi.NoteOnEvent(tick=20528, channel=7, data=[72, 0]),\n",
       "   midi.NoteOnEvent(tick=20528, channel=7, data=[81, 0]),\n",
       "   midi.NoteOnEvent(tick=20536, channel=7, data=[79, 90]),\n",
       "   midi.NoteOnEvent(tick=20536, channel=7, data=[71, 98]),\n",
       "   midi.NoteOnEvent(tick=20536, channel=7, data=[74, 107]),\n",
       "   midi.NoteOnEvent(tick=20628, channel=7, data=[71, 0]),\n",
       "   midi.NoteOnEvent(tick=20632, channel=7, data=[79, 0]),\n",
       "   midi.NoteOnEvent(tick=20636, channel=7, data=[78, 107]),\n",
       "   midi.NoteOnEvent(tick=20640, channel=7, data=[69, 107]),\n",
       "   midi.NoteOnEvent(tick=20720, channel=7, data=[69, 0]),\n",
       "   midi.NoteOnEvent(tick=20720, channel=7, data=[78, 0]),\n",
       "   midi.NoteOnEvent(tick=20720, channel=7, data=[74, 0]),\n",
       "   midi.NoteOnEvent(tick=23808, channel=7, data=[79, 98]),\n",
       "   midi.NoteOnEvent(tick=23808, channel=7, data=[84, 107]),\n",
       "   midi.NoteOnEvent(tick=23808, channel=7, data=[81, 118]),\n",
       "   midi.NoteOnEvent(tick=23808, channel=7, data=[79, 107]),\n",
       "   midi.NoteOnEvent(tick=23808, channel=7, data=[76, 81]),\n",
       "   midi.NoteOnEvent(tick=23808, channel=7, data=[81, 98]),\n",
       "   midi.NoteOnEvent(tick=23808, channel=7, data=[76, 66]),\n",
       "   midi.NoteOnEvent(tick=23809, channel=7, data=[76, 0]),\n",
       "   midi.NoteOnEvent(tick=23809, channel=7, data=[79, 0]),\n",
       "   midi.NoteOnEvent(tick=23809, channel=7, data=[81, 0]),\n",
       "   midi.NoteOnEvent(tick=23936, channel=7, data=[84, 0]),\n",
       "   midi.NoteOnEvent(tick=23940, channel=7, data=[81, 0]),\n",
       "   midi.NoteOnEvent(tick=23944, channel=7, data=[83, 98]),\n",
       "   midi.NoteOnEvent(tick=23944, channel=7, data=[74, 107]),\n",
       "   midi.NoteOnEvent(tick=23944, channel=7, data=[83, 50]),\n",
       "   midi.NoteOnEvent(tick=23945, channel=7, data=[83, 0]),\n",
       "   midi.NoteOnEvent(tick=23948, channel=7, data=[76, 0]),\n",
       "   midi.NoteOnEvent(tick=23948, channel=7, data=[74, 0]),\n",
       "   midi.NoteOnEvent(tick=23948, channel=7, data=[74, 70]),\n",
       "   midi.PitchWheelEvent(tick=24176, channel=7, data=[0, 59]),\n",
       "   midi.NoteOnEvent(tick=24180, channel=7, data=[74, 0]),\n",
       "   midi.NoteOnEvent(tick=24180, channel=7, data=[79, 0]),\n",
       "   midi.NoteOnEvent(tick=24184, channel=7, data=[79, 75]),\n",
       "   midi.NoteOnEvent(tick=24184, channel=7, data=[76, 98]),\n",
       "   midi.PitchWheelEvent(tick=24188, channel=7, data=[0, 62]),\n",
       "   midi.PitchWheelEvent(tick=24188, channel=7, data=[0, 64]),\n",
       "   midi.PitchWheelEvent(tick=24196, channel=7, data=[0, 64]),\n",
       "   midi.PitchWheelEvent(tick=24208, channel=7, data=[0, 59]),\n",
       "   midi.PitchWheelEvent(tick=24240, channel=7, data=[0, 64]),\n",
       "   midi.NoteOnEvent(tick=24324, channel=7, data=[76, 0]),\n",
       "   midi.NoteOnEvent(tick=24324, channel=7, data=[79, 0]),\n",
       "   midi.NoteOnEvent(tick=24324, channel=7, data=[83, 0]),\n",
       "   midi.NoteOnEvent(tick=24328, channel=7, data=[81, 90]),\n",
       "   midi.NoteOnEvent(tick=24328, channel=7, data=[78, 98]),\n",
       "   midi.NoteOnEvent(tick=24332, channel=7, data=[78, 0]),\n",
       "   midi.NoteOnEvent(tick=24332, channel=7, data=[81, 0]),\n",
       "   midi.NoteOnEvent(tick=24332, channel=7, data=[74, 98]),\n",
       "   midi.NoteOnEvent(tick=24332, channel=7, data=[78, 98]),\n",
       "   midi.NoteOnEvent(tick=24332, channel=7, data=[81, 90]),\n",
       "   midi.NoteOnEvent(tick=24332, channel=7, data=[74, 98]),\n",
       "   midi.NoteOnEvent(tick=24333, channel=7, data=[74, 0]),\n",
       "   midi.PitchWheelEvent(tick=24400, channel=7, data=[0, 62]),\n",
       "   midi.PitchWheelEvent(tick=24404, channel=7, data=[0, 64]),\n",
       "   midi.PitchWheelEvent(tick=24468, channel=7, data=[0, 60]),\n",
       "   midi.PitchWheelEvent(tick=24472, channel=7, data=[0, 64]),\n",
       "   midi.NoteOnEvent(tick=24560, channel=7, data=[74, 0]),\n",
       "   midi.NoteOnEvent(tick=24560, channel=7, data=[78, 0]),\n",
       "   midi.NoteOnEvent(tick=24560, channel=7, data=[81, 0]),\n",
       "   midi.NoteOnEvent(tick=24568, channel=7, data=[81, 75]),\n",
       "   midi.NoteOnEvent(tick=24568, channel=7, data=[76, 90]),\n",
       "   midi.NoteOnEvent(tick=24568, channel=7, data=[79, 98]),\n",
       "   midi.NoteOnEvent(tick=24568, channel=7, data=[72, 90]),\n",
       "   midi.NoteOnEvent(tick=24704, channel=7, data=[81, 0]),\n",
       "   midi.NoteOnEvent(tick=24712, channel=7, data=[76, 0]),\n",
       "   midi.NoteOnEvent(tick=24712, channel=7, data=[72, 0]),\n",
       "   midi.NoteOnEvent(tick=24720, channel=7, data=[71, 81]),\n",
       "   midi.NoteOnEvent(tick=24720, channel=7, data=[74, 80]),\n",
       "   midi.PitchWheelEvent(tick=24784, channel=7, data=[0, 61]),\n",
       "   midi.PitchWheelEvent(tick=24788, channel=7, data=[0, 64]),\n",
       "   midi.PitchWheelEvent(tick=24864, channel=7, data=[0, 61]),\n",
       "   midi.PitchWheelEvent(tick=24868, channel=7, data=[0, 64]),\n",
       "   midi.NoteOnEvent(tick=24944, channel=7, data=[74, 0]),\n",
       "   midi.NoteOnEvent(tick=24948, channel=7, data=[79, 0]),\n",
       "   midi.NoteOnEvent(tick=24952, channel=7, data=[71, 0]),\n",
       "   midi.NoteOnEvent(tick=24956, channel=7, data=[81, 107]),\n",
       "   midi.NoteOnEvent(tick=24956, channel=7, data=[76, 107]),\n",
       "   midi.NoteOnEvent(tick=24956, channel=7, data=[72, 98]),\n",
       "   midi.NoteOnEvent(tick=25080, channel=7, data=[76, 0]),\n",
       "   midi.NoteOnEvent(tick=25084, channel=7, data=[72, 0]),\n",
       "   midi.NoteOnEvent(tick=25084, channel=7, data=[81, 0]),\n",
       "   midi.NoteOnEvent(tick=25100, channel=7, data=[79, 107]),\n",
       "   midi.NoteOnEvent(tick=25100, channel=7, data=[74, 127]),\n",
       "   midi.NoteOnEvent(tick=25100, channel=7, data=[71, 118]),\n",
       "   midi.NoteOnEvent(tick=25304, channel=7, data=[79, 0]),\n",
       "   midi.NoteOnEvent(tick=25332, channel=7, data=[71, 0]),\n",
       "   midi.NoteOnEvent(tick=25332, channel=7, data=[74, 0]),\n",
       "   midi.NoteOnEvent(tick=25340, channel=7, data=[79, 107]),\n",
       "   midi.NoteOnEvent(tick=25340, channel=7, data=[81, 107]),\n",
       "   midi.NoteOnEvent(tick=25340, channel=7, data=[84, 98]),\n",
       "   midi.NoteOnEvent(tick=25340, channel=7, data=[76, 107]),\n",
       "   midi.NoteOnEvent(tick=25344, channel=7, data=[76, 0]),\n",
       "   midi.NoteOnEvent(tick=25344, channel=7, data=[79, 0]),\n",
       "   midi.NoteOnEvent(tick=25344, channel=7, data=[81, 0]),\n",
       "   midi.NoteOnEvent(tick=25344, channel=7, data=[84, 0]),\n",
       "   midi.PitchWheelEvent(tick=25344, channel=7, data=[0, 60]),\n",
       "   midi.NoteOnEvent(tick=25344, channel=7, data=[81, 98]),\n",
       "   midi.NoteOnEvent(tick=25344, channel=7, data=[84, 98]),\n",
       "   midi.NoteOnEvent(tick=25344, channel=7, data=[79, 90]),\n",
       "   midi.NoteOnEvent(tick=25344, channel=7, data=[76, 90]),\n",
       "   midi.NoteOnEvent(tick=25472, channel=7, data=[81, 0]),\n",
       "   midi.NoteOnEvent(tick=25476, channel=7, data=[84, 0]),\n",
       "   midi.NoteOnEvent(tick=25476, channel=7, data=[76, 0]),\n",
       "   midi.NoteOnEvent(tick=25480, channel=7, data=[79, 0]),\n",
       "   midi.NoteOnEvent(tick=25480, channel=7, data=[79, 81]),\n",
       "   midi.NoteOnEvent(tick=25480, channel=7, data=[83, 81]),\n",
       "   midi.NoteOnEvent(tick=25484, channel=7, data=[74, 118]),\n",
       "   midi.PitchWheelEvent(tick=25524, channel=7, data=[0, 64]),\n",
       "   midi.PitchWheelEvent(tick=25600, channel=7, data=[0, 60]),\n",
       "   midi.PitchWheelEvent(tick=25604, channel=7, data=[0, 64]),\n",
       "   midi.PitchWheelEvent(tick=25696, channel=7, data=[0, 60]),\n",
       "   midi.NoteOnEvent(tick=25712, channel=7, data=[83, 0]),\n",
       "   midi.NoteOnEvent(tick=25716, channel=7, data=[74, 0]),\n",
       "   midi.NoteOnEvent(tick=25716, channel=7, data=[79, 0]),\n",
       "   midi.PitchWheelEvent(tick=25716, channel=7, data=[0, 64]),\n",
       "   midi.NoteOnEvent(tick=25720, channel=7, data=[79, 98]),\n",
       "   midi.NoteOnEvent(tick=25720, channel=7, data=[83, 90]),\n",
       "   midi.NoteOnEvent(tick=25724, channel=7, data=[76, 90]),\n",
       "   midi.PitchWheelEvent(tick=25756, channel=7, data=[0, 60]),\n",
       "   midi.PitchWheelEvent(tick=25764, channel=7, data=[0, 64]),\n",
       "   midi.PitchWheelEvent(tick=25796, channel=7, data=[0, 60]),\n",
       "   midi.PitchWheelEvent(tick=25800, channel=7, data=[0, 64]),\n",
       "   midi.NoteOnEvent(tick=25856, channel=7, data=[76, 0]),\n",
       "   midi.NoteOnEvent(tick=25856, channel=7, data=[83, 0]),\n",
       "   midi.NoteOnEvent(tick=25856, channel=7, data=[79, 0]),\n",
       "   midi.NoteOnEvent(tick=25864, channel=7, data=[81, 98]),\n",
       "   midi.NoteOnEvent(tick=25864, channel=7, data=[78, 107]),\n",
       "   midi.NoteOnEvent(tick=25868, channel=7, data=[74, 118]),\n",
       "   midi.NoteOnEvent(tick=26092, channel=7, data=[74, 0]),\n",
       "   midi.NoteOnEvent(tick=26096, channel=7, data=[81, 0]),\n",
       "   midi.NoteOnEvent(tick=26104, channel=7, data=[78, 0]),\n",
       "   midi.NoteOnEvent(tick=26108, channel=7, data=[81, 70]),\n",
       "   midi.NoteOnEvent(tick=26108, channel=7, data=[76, 98]),\n",
       "   midi.NoteOnEvent(tick=26108, channel=7, data=[72, 90]),\n",
       "   midi.PitchWheelEvent(tick=26168, channel=7, data=[0, 60]),\n",
       "   midi.PitchWheelEvent(tick=26168, channel=7, data=[0, 64]),\n",
       "   midi.NoteOnEvent(tick=26236, channel=7, data=[76, 0]),\n",
       "   midi.NoteOnEvent(tick=26240, channel=7, data=[72, 0]),\n",
       "   midi.NoteOnEvent(tick=26240, channel=7, data=[81, 0]),\n",
       "   midi.NoteOnEvent(tick=26248, channel=7, data=[79, 98]),\n",
       "   midi.NoteOnEvent(tick=26248, channel=7, data=[71, 118]),\n",
       "   midi.NoteOnEvent(tick=26252, channel=7, data=[74, 127]),\n",
       "   midi.NoteOnEvent(tick=26472, channel=7, data=[71, 0]),\n",
       "   midi.NoteOnEvent(tick=26480, channel=7, data=[74, 0]),\n",
       "   midi.NoteOnEvent(tick=26480, channel=7, data=[79, 0]),\n",
       "   midi.NoteOnEvent(tick=26488, channel=7, data=[81, 107]),\n",
       "   midi.NoteOnEvent(tick=26488, channel=7, data=[76, 98]),\n",
       "   midi.NoteOnEvent(tick=26492, channel=7, data=[72, 98]),\n",
       "   midi.NoteOnEvent(tick=26668, channel=7, data=[76, 0]),\n",
       "   midi.NoteOnEvent(tick=26672, channel=7, data=[72, 0]),\n",
       "   midi.NoteOnEvent(tick=26672, channel=7, data=[81, 0]),\n",
       "   midi.NoteOnEvent(tick=26680, channel=7, data=[79, 90]),\n",
       "   midi.NoteOnEvent(tick=26680, channel=7, data=[71, 98]),\n",
       "   midi.NoteOnEvent(tick=26680, channel=7, data=[74, 107]),\n",
       "   midi.NoteOnEvent(tick=26772, channel=7, data=[71, 0]),\n",
       "   midi.NoteOnEvent(tick=26776, channel=7, data=[79, 0]),\n",
       "   midi.NoteOnEvent(tick=26780, channel=7, data=[78, 107]),\n",
       "   midi.NoteOnEvent(tick=26784, channel=7, data=[69, 107]),\n",
       "   midi.NoteOnEvent(tick=26864, channel=7, data=[69, 0]),\n",
       "   midi.NoteOnEvent(tick=26864, channel=7, data=[78, 0]),\n",
       "   midi.NoteOnEvent(tick=26864, channel=7, data=[74, 0]),\n",
       "   midi.NoteOnEvent(tick=26880, channel=7, data=[79, 98]),\n",
       "   midi.NoteOnEvent(tick=26880, channel=7, data=[84, 107]),\n",
       "   midi.NoteOnEvent(tick=26880, channel=7, data=[81, 118]),\n",
       "   midi.NoteOnEvent(tick=26880, channel=7, data=[79, 107]),\n",
       "   midi.NoteOnEvent(tick=26880, channel=7, data=[76, 81]),\n",
       "   midi.NoteOnEvent(tick=26880, channel=7, data=[81, 98]),\n",
       "   midi.NoteOnEvent(tick=26880, channel=7, data=[76, 66]),\n",
       "   midi.NoteOnEvent(tick=26881, channel=7, data=[76, 0]),\n",
       "   midi.NoteOnEvent(tick=26881, channel=7, data=[79, 0]),\n",
       "   midi.NoteOnEvent(tick=26881, channel=7, data=[81, 0]),\n",
       "   midi.NoteOnEvent(tick=27008, channel=7, data=[84, 0]),\n",
       "   midi.NoteOnEvent(tick=27012, channel=7, data=[81, 0]),\n",
       "   midi.NoteOnEvent(tick=27016, channel=7, data=[83, 98]),\n",
       "   midi.NoteOnEvent(tick=27016, channel=7, data=[74, 107]),\n",
       "   midi.NoteOnEvent(tick=27016, channel=7, data=[83, 50]),\n",
       "   midi.NoteOnEvent(tick=27017, channel=7, data=[83, 0]),\n",
       "   midi.NoteOnEvent(tick=27020, channel=7, data=[76, 0]),\n",
       "   midi.NoteOnEvent(tick=27020, channel=7, data=[74, 0]),\n",
       "   midi.NoteOnEvent(tick=27020, channel=7, data=[74, 70]),\n",
       "   midi.PitchWheelEvent(tick=27248, channel=7, data=[0, 59]),\n",
       "   midi.NoteOnEvent(tick=27252, channel=7, data=[74, 0]),\n",
       "   midi.NoteOnEvent(tick=27252, channel=7, data=[79, 0]),\n",
       "   midi.NoteOnEvent(tick=27256, channel=7, data=[79, 75]),\n",
       "   midi.NoteOnEvent(tick=27256, channel=7, data=[76, 98]),\n",
       "   midi.PitchWheelEvent(tick=27260, channel=7, data=[0, 62]),\n",
       "   midi.PitchWheelEvent(tick=27260, channel=7, data=[0, 64]),\n",
       "   midi.PitchWheelEvent(tick=27268, channel=7, data=[0, 64]),\n",
       "   midi.PitchWheelEvent(tick=27280, channel=7, data=[0, 59]),\n",
       "   midi.PitchWheelEvent(tick=27312, channel=7, data=[0, 64]),\n",
       "   midi.NoteOnEvent(tick=27396, channel=7, data=[76, 0]),\n",
       "   midi.NoteOnEvent(tick=27396, channel=7, data=[79, 0]),\n",
       "   midi.NoteOnEvent(tick=27396, channel=7, data=[83, 0]),\n",
       "   midi.NoteOnEvent(tick=27400, channel=7, data=[81, 90]),\n",
       "   midi.NoteOnEvent(tick=27400, channel=7, data=[78, 98]),\n",
       "   midi.NoteOnEvent(tick=27404, channel=7, data=[78, 0]),\n",
       "   midi.NoteOnEvent(tick=27404, channel=7, data=[81, 0]),\n",
       "   midi.NoteOnEvent(tick=27404, channel=7, data=[74, 98]),\n",
       "   midi.NoteOnEvent(tick=27404, channel=7, data=[78, 98]),\n",
       "   midi.NoteOnEvent(tick=27404, channel=7, data=[81, 90]),\n",
       "   midi.NoteOnEvent(tick=27404, channel=7, data=[74, 98]),\n",
       "   midi.NoteOnEvent(tick=27405, channel=7, data=[74, 0]),\n",
       "   midi.PitchWheelEvent(tick=27472, channel=7, data=[0, 62]),\n",
       "   midi.PitchWheelEvent(tick=27476, channel=7, data=[0, 64]),\n",
       "   midi.PitchWheelEvent(tick=27540, channel=7, data=[0, 60]),\n",
       "   midi.PitchWheelEvent(tick=27544, channel=7, data=[0, 64]),\n",
       "   midi.NoteOnEvent(tick=27632, channel=7, data=[74, 0]),\n",
       "   midi.NoteOnEvent(tick=27632, channel=7, data=[78, 0]),\n",
       "   midi.NoteOnEvent(tick=27632, channel=7, data=[81, 0]),\n",
       "   midi.NoteOnEvent(tick=27640, channel=7, data=[81, 75]),\n",
       "   midi.NoteOnEvent(tick=27640, channel=7, data=[76, 90]),\n",
       "   midi.NoteOnEvent(tick=27640, channel=7, data=[79, 98]),\n",
       "   midi.NoteOnEvent(tick=27640, channel=7, data=[72, 90]),\n",
       "   midi.NoteOnEvent(tick=27776, channel=7, data=[81, 0]),\n",
       "   midi.NoteOnEvent(tick=27784, channel=7, data=[76, 0]),\n",
       "   midi.NoteOnEvent(tick=27784, channel=7, data=[72, 0]),\n",
       "   midi.NoteOnEvent(tick=27792, channel=7, data=[71, 81]),\n",
       "   midi.NoteOnEvent(tick=27792, channel=7, data=[74, 80]),\n",
       "   midi.PitchWheelEvent(tick=27856, channel=7, data=[0, 61]),\n",
       "   midi.PitchWheelEvent(tick=27860, channel=7, data=[0, 64]),\n",
       "   midi.PitchWheelEvent(tick=27936, channel=7, data=[0, 61]),\n",
       "   midi.PitchWheelEvent(tick=27940, channel=7, data=[0, 64]),\n",
       "   midi.NoteOnEvent(tick=28016, channel=7, data=[74, 0]),\n",
       "   midi.NoteOnEvent(tick=28020, channel=7, data=[79, 0]),\n",
       "   midi.NoteOnEvent(tick=28024, channel=7, data=[71, 0]),\n",
       "   midi.NoteOnEvent(tick=28028, channel=7, data=[81, 107]),\n",
       "   midi.NoteOnEvent(tick=28028, channel=7, data=[76, 107]),\n",
       "   midi.NoteOnEvent(tick=28028, channel=7, data=[72, 98]),\n",
       "   midi.NoteOnEvent(tick=28152, channel=7, data=[76, 0]),\n",
       "   midi.NoteOnEvent(tick=28156, channel=7, data=[72, 0]),\n",
       "   midi.NoteOnEvent(tick=28156, channel=7, data=[81, 0]),\n",
       "   midi.NoteOnEvent(tick=28172, channel=7, data=[79, 107]),\n",
       "   midi.NoteOnEvent(tick=28172, channel=7, data=[74, 127]),\n",
       "   midi.NoteOnEvent(tick=28172, channel=7, data=[71, 118]),\n",
       "   midi.NoteOnEvent(tick=28376, channel=7, data=[79, 0]),\n",
       "   midi.NoteOnEvent(tick=28404, channel=7, data=[71, 0]),\n",
       "   midi.NoteOnEvent(tick=28404, channel=7, data=[74, 0]),\n",
       "   midi.NoteOnEvent(tick=28412, channel=7, data=[79, 107]),\n",
       "   midi.NoteOnEvent(tick=28412, channel=7, data=[81, 107]),\n",
       "   midi.NoteOnEvent(tick=28412, channel=7, data=[84, 98]),\n",
       "   midi.NoteOnEvent(tick=28412, channel=7, data=[76, 107]),\n",
       "   midi.NoteOnEvent(tick=28416, channel=7, data=[76, 0]),\n",
       "   midi.NoteOnEvent(tick=28416, channel=7, data=[79, 0]),\n",
       "   midi.NoteOnEvent(tick=28416, channel=7, data=[81, 0]),\n",
       "   midi.NoteOnEvent(tick=28416, channel=7, data=[84, 0]),\n",
       "   midi.PitchWheelEvent(tick=28416, channel=7, data=[0, 60]),\n",
       "   midi.NoteOnEvent(tick=28416, channel=7, data=[81, 98]),\n",
       "   midi.NoteOnEvent(tick=28416, channel=7, data=[84, 98]),\n",
       "   midi.NoteOnEvent(tick=28416, channel=7, data=[79, 90]),\n",
       "   midi.NoteOnEvent(tick=28416, channel=7, data=[76, 90]),\n",
       "   midi.NoteOnEvent(tick=28544, channel=7, data=[81, 0]),\n",
       "   midi.NoteOnEvent(tick=28548, channel=7, data=[84, 0]),\n",
       "   midi.NoteOnEvent(tick=28548, channel=7, data=[76, 0]),\n",
       "   midi.NoteOnEvent(tick=28552, channel=7, data=[79, 0]),\n",
       "   midi.NoteOnEvent(tick=28552, channel=7, data=[79, 81]),\n",
       "   midi.NoteOnEvent(tick=28552, channel=7, data=[83, 81]),\n",
       "   midi.NoteOnEvent(tick=28556, channel=7, data=[74, 118]),\n",
       "   midi.PitchWheelEvent(tick=28596, channel=7, data=[0, 64]),\n",
       "   midi.PitchWheelEvent(tick=28672, channel=7, data=[0, 60]),\n",
       "   midi.PitchWheelEvent(tick=28676, channel=7, data=[0, 64]),\n",
       "   midi.PitchWheelEvent(tick=28768, channel=7, data=[0, 60]),\n",
       "   midi.NoteOnEvent(tick=28784, channel=7, data=[83, 0]),\n",
       "   midi.NoteOnEvent(tick=28788, channel=7, data=[74, 0]),\n",
       "   midi.NoteOnEvent(tick=28788, channel=7, data=[79, 0]),\n",
       "   midi.PitchWheelEvent(tick=28788, channel=7, data=[0, 64]),\n",
       "   midi.NoteOnEvent(tick=28792, channel=7, data=[79, 98]),\n",
       "   midi.NoteOnEvent(tick=28792, channel=7, data=[83, 90]),\n",
       "   midi.NoteOnEvent(tick=28796, channel=7, data=[76, 90]),\n",
       "   midi.PitchWheelEvent(tick=28828, channel=7, data=[0, 60]),\n",
       "   midi.PitchWheelEvent(tick=28836, channel=7, data=[0, 64]),\n",
       "   midi.PitchWheelEvent(tick=28868, channel=7, data=[0, 60]),\n",
       "   midi.PitchWheelEvent(tick=28872, channel=7, data=[0, 64]),\n",
       "   midi.NoteOnEvent(tick=28928, channel=7, data=[76, 0]),\n",
       "   midi.NoteOnEvent(tick=28928, channel=7, data=[83, 0]),\n",
       "   midi.NoteOnEvent(tick=28928, channel=7, data=[79, 0]),\n",
       "   midi.NoteOnEvent(tick=28936, channel=7, data=[81, 98]),\n",
       "   midi.NoteOnEvent(tick=28936, channel=7, data=[78, 107]),\n",
       "   midi.NoteOnEvent(tick=28940, channel=7, data=[74, 118]),\n",
       "   midi.NoteOnEvent(tick=29164, channel=7, data=[74, 0]),\n",
       "   midi.NoteOnEvent(tick=29168, channel=7, data=[81, 0]),\n",
       "   midi.NoteOnEvent(tick=29176, channel=7, data=[78, 0]),\n",
       "   midi.NoteOnEvent(tick=29180, channel=7, data=[81, 70]),\n",
       "   midi.NoteOnEvent(tick=29180, channel=7, data=[76, 98]),\n",
       "   midi.NoteOnEvent(tick=29180, channel=7, data=[72, 90]),\n",
       "   midi.PitchWheelEvent(tick=29240, channel=7, data=[0, 60]),\n",
       "   midi.PitchWheelEvent(tick=29240, channel=7, data=[0, 64]),\n",
       "   midi.NoteOnEvent(tick=29308, channel=7, data=[76, 0]),\n",
       "   midi.NoteOnEvent(tick=29312, channel=7, data=[72, 0]),\n",
       "   midi.NoteOnEvent(tick=29312, channel=7, data=[81, 0]),\n",
       "   midi.NoteOnEvent(tick=29320, channel=7, data=[79, 98]),\n",
       "   midi.NoteOnEvent(tick=29320, channel=7, data=[71, 118]),\n",
       "   midi.NoteOnEvent(tick=29324, channel=7, data=[74, 127]),\n",
       "   midi.NoteOnEvent(tick=29544, channel=7, data=[71, 0]),\n",
       "   midi.NoteOnEvent(tick=29552, channel=7, data=[74, 0]),\n",
       "   midi.NoteOnEvent(tick=29552, channel=7, data=[79, 0]),\n",
       "   midi.NoteOnEvent(tick=29560, channel=7, data=[81, 107]),\n",
       "   midi.NoteOnEvent(tick=29560, channel=7, data=[76, 98]),\n",
       "   midi.NoteOnEvent(tick=29564, channel=7, data=[72, 98]),\n",
       "   midi.NoteOnEvent(tick=29740, channel=7, data=[76, 0]),\n",
       "   midi.NoteOnEvent(tick=29744, channel=7, data=[72, 0]),\n",
       "   midi.NoteOnEvent(tick=29744, channel=7, data=[81, 0]),\n",
       "   midi.NoteOnEvent(tick=29752, channel=7, data=[79, 90]),\n",
       "   midi.NoteOnEvent(tick=29752, channel=7, data=[71, 98]),\n",
       "   midi.NoteOnEvent(tick=29752, channel=7, data=[74, 107]),\n",
       "   midi.NoteOnEvent(tick=29844, channel=7, data=[71, 0]),\n",
       "   midi.NoteOnEvent(tick=29848, channel=7, data=[79, 0]),\n",
       "   midi.NoteOnEvent(tick=29852, channel=7, data=[78, 107]),\n",
       "   midi.NoteOnEvent(tick=29856, channel=7, data=[69, 107]),\n",
       "   midi.NoteOnEvent(tick=29936, channel=7, data=[69, 0]),\n",
       "   midi.NoteOnEvent(tick=29936, channel=7, data=[78, 0]),\n",
       "   midi.NoteOnEvent(tick=29936, channel=7, data=[74, 0]),\n",
       "   midi.NoteOnEvent(tick=29952, channel=7, data=[84, 118]),\n",
       "   midi.NoteOnEvent(tick=29952, channel=7, data=[79, 127]),\n",
       "   midi.NoteOnEvent(tick=29952, channel=7, data=[76, 118]),\n",
       "   midi.NoteOnEvent(tick=30060, channel=7, data=[84, 0]),\n",
       "   midi.NoteOnEvent(tick=30064, channel=7, data=[76, 0]),\n",
       "   midi.NoteOnEvent(tick=30064, channel=7, data=[79, 0]),\n",
       "   midi.NoteOnEvent(tick=30084, channel=7, data=[83, 107]),\n",
       "   midi.NoteOnEvent(tick=30084, channel=7, data=[79, 98]),\n",
       "   midi.NoteOnEvent(tick=30084, channel=7, data=[74, 107]),\n",
       "   midi.NoteOnEvent(tick=30220, channel=7, data=[83, 0]),\n",
       "   midi.NoteOnEvent(tick=30224, channel=7, data=[74, 0]),\n",
       "   midi.NoteOnEvent(tick=30224, channel=7, data=[79, 0]),\n",
       "   midi.NoteOnEvent(tick=30236, channel=7, data=[74, 81]),\n",
       "   midi.NoteOnEvent(tick=30236, channel=7, data=[81, 107]),\n",
       "   midi.NoteOnEvent(tick=30236, channel=7, data=[78, 107]),\n",
       "   midi.NoteOnEvent(tick=30312, channel=7, data=[78, 0]),\n",
       "   midi.NoteOnEvent(tick=30312, channel=7, data=[81, 0]),\n",
       "   midi.NoteOnEvent(tick=30316, channel=7, data=[74, 0]),\n",
       "   midi.NoteOnEvent(tick=30328, channel=7, data=[79, 127]),\n",
       "   midi.NoteOnEvent(tick=30332, channel=7, data=[72, 118]),\n",
       "   midi.NoteOnEvent(tick=30332, channel=7, data=[76, 127]),\n",
       "   midi.NoteOnEvent(tick=30456, channel=7, data=[76, 0]),\n",
       "   midi.NoteOnEvent(tick=30456, channel=7, data=[72, 0]),\n",
       "   midi.NoteOnEvent(tick=30456, channel=7, data=[79, 0]),\n",
       "   midi.NoteOnEvent(tick=30476, channel=7, data=[74, 127]),\n",
       "   midi.NoteOnEvent(tick=30476, channel=7, data=[71, 127]),\n",
       "   midi.NoteOnEvent(tick=30476, channel=7, data=[79, 118]),\n",
       "   midi.NoteOnEvent(tick=30604, channel=7, data=[71, 0]),\n",
       "   midi.NoteOnEvent(tick=30608, channel=7, data=[79, 0]),\n",
       "   midi.NoteOnEvent(tick=30608, channel=7, data=[74, 0]),\n",
       "   midi.NoteOnEvent(tick=30616, channel=7, data=[74, 107]),\n",
       "   midi.NoteOnEvent(tick=30616, channel=7, data=[78, 118]),\n",
       "   midi.NoteOnEvent(tick=30620, channel=7, data=[69, 107]),\n",
       "   midi.NoteOnEvent(tick=30688, channel=7, data=[69, 0]),\n",
       "   midi.NoteOnEvent(tick=30692, channel=7, data=[78, 0]),\n",
       "   midi.NoteOnEvent(tick=30692, channel=7, data=[74, 0]),\n",
       "   midi.NoteOnEvent(tick=30716, channel=7, data=[84, 118]),\n",
       "   midi.NoteOnEvent(tick=30716, channel=7, data=[76, 127]),\n",
       "   midi.NoteOnEvent(tick=30716, channel=7, data=[79, 127]),\n",
       "   midi.NoteOnEvent(tick=30832, channel=7, data=[76, 0]),\n",
       "   midi.NoteOnEvent(tick=30832, channel=7, data=[84, 0]),\n",
       "   midi.NoteOnEvent(tick=30836, channel=7, data=[79, 0]),\n",
       "   midi.NoteOnEvent(tick=30856, channel=7, data=[83, 118]),\n",
       "   midi.NoteOnEvent(tick=30856, channel=7, data=[79, 118]),\n",
       "   midi.NoteOnEvent(tick=30856, channel=7, data=[74, 118]),\n",
       "   midi.NoteOnEvent(tick=30988, channel=7, data=[74, 0]),\n",
       "   midi.NoteOnEvent(tick=30988, channel=7, data=[83, 0]),\n",
       "   midi.NoteOnEvent(tick=30992, channel=7, data=[79, 0]),\n",
       "   midi.NoteOnEvent(tick=31000, channel=7, data=[78, 118]),\n",
       "   midi.NoteOnEvent(tick=31000, channel=7, data=[74, 90]),\n",
       "   midi.NoteOnEvent(tick=31000, channel=7, data=[81, 118]),\n",
       "   midi.NoteOnEvent(tick=31072, channel=7, data=[81, 0]),\n",
       "   midi.NoteOnEvent(tick=31072, channel=7, data=[78, 0]),\n",
       "   midi.NoteOnEvent(tick=31080, channel=7, data=[74, 0]),\n",
       "   midi.NoteOnEvent(tick=31100, channel=7, data=[72, 127]),\n",
       "   midi.NoteOnEvent(tick=31100, channel=7, data=[76, 127]),\n",
       "   midi.NoteOnEvent(tick=31100, channel=7, data=[77, 90]),\n",
       "   midi.NoteOnEvent(tick=31100, channel=7, data=[79, 118]),\n",
       "   midi.NoteOnEvent(tick=31104, channel=7, data=[77, 0]),\n",
       "   midi.NoteOnEvent(tick=31220, channel=7, data=[79, 0]),\n",
       "   midi.NoteOnEvent(tick=31220, channel=7, data=[76, 0]),\n",
       "   midi.NoteOnEvent(tick=31224, channel=7, data=[72, 0]),\n",
       "   midi.NoteOnEvent(tick=31240, channel=7, data=[74, 127]),\n",
       "   midi.NoteOnEvent(tick=31244, channel=7, data=[79, 118]),\n",
       "   midi.NoteOnEvent(tick=31244, channel=7, data=[71, 118]),\n",
       "   midi.NoteOnEvent(tick=31368, channel=7, data=[71, 0]),\n",
       "   midi.NoteOnEvent(tick=31372, channel=7, data=[79, 0]),\n",
       "   midi.NoteOnEvent(tick=31372, channel=7, data=[74, 0]),\n",
       "   midi.NoteOnEvent(tick=31384, channel=7, data=[74, 118]),\n",
       "   midi.NoteOnEvent(tick=31384, channel=7, data=[78, 116]),\n",
       "   midi.NoteOnEvent(tick=31388, channel=7, data=[69, 127]),\n",
       "   midi.NoteOnEvent(tick=31464, channel=7, data=[69, 0]),\n",
       "   midi.NoteOnEvent(tick=31468, channel=7, data=[78, 0]),\n",
       "   midi.NoteOnEvent(tick=31472, channel=7, data=[74, 0]),\n",
       "   midi.NoteOnEvent(tick=31484, channel=7, data=[74, 127]),\n",
       "   midi.NoteOnEvent(tick=31488, channel=7, data=[74, 0]),\n",
       "   midi.NoteOnEvent(tick=31488, channel=7, data=[67, 90]),\n",
       "   midi.NoteOnEvent(tick=31488, channel=7, data=[79, 98]),\n",
       "   midi.NoteOnEvent(tick=31488, channel=7, data=[72, 98]),\n",
       "   midi.PitchWheelEvent(tick=31680, channel=7, data=[0, 60]),\n",
       "   midi.PitchWheelEvent(tick=31696, channel=7, data=[0, 64]),\n",
       "   midi.PitchWheelEvent(tick=31704, channel=7, data=[0, 61]),\n",
       "   midi.PitchWheelEvent(tick=31708, channel=7, data=[0, 64]),\n",
       "   midi.PitchWheelEvent(tick=31752, channel=7, data=[0, 60]),\n",
       "   midi.PitchWheelEvent(tick=31756, channel=7, data=[0, 64]),\n",
       "   midi.PitchWheelEvent(tick=31820, channel=7, data=[0, 59]),\n",
       "   midi.PitchWheelEvent(tick=31832, channel=7, data=[0, 64]),\n",
       "   midi.NoteOnEvent(tick=32972, channel=7, data=[72, 0]),\n",
       "   midi.NoteOnEvent(tick=33020, channel=7, data=[71, 107]),\n",
       "   midi.NoteOnEvent(tick=33020, channel=7, data=[43, 90]),\n",
       "   midi.ControlChangeEvent(tick=33048, channel=7, data=[7, 79]),\n",
       "   midi.ControlChangeEvent(tick=33112, channel=7, data=[7, 78]),\n",
       "   midi.ControlChangeEvent(tick=33144, channel=7, data=[7, 77]),\n",
       "   midi.ControlChangeEvent(tick=33164, channel=7, data=[7, 76]),\n",
       "   midi.ControlChangeEvent(tick=33184, channel=7, data=[7, 75]),\n",
       "   midi.ControlChangeEvent(tick=33216, channel=7, data=[7, 74]),\n",
       "   midi.ControlChangeEvent(tick=33232, channel=7, data=[7, 73]),\n",
       "   midi.ControlChangeEvent(tick=33248, channel=7, data=[7, 72]),\n",
       "   midi.ControlChangeEvent(tick=33252, channel=7, data=[7, 71]),\n",
       "   midi.ControlChangeEvent(tick=33264, channel=7, data=[7, 70]),\n",
       "   midi.ControlChangeEvent(tick=33280, channel=7, data=[7, 69]),\n",
       "   midi.ControlChangeEvent(tick=33288, channel=7, data=[7, 68]),\n",
       "   midi.ControlChangeEvent(tick=33304, channel=7, data=[7, 67]),\n",
       "   midi.ControlChangeEvent(tick=33304, channel=7, data=[7, 66]),\n",
       "   midi.ControlChangeEvent(tick=33316, channel=7, data=[7, 65]),\n",
       "   midi.ControlChangeEvent(tick=33320, channel=7, data=[7, 64]),\n",
       "   midi.ControlChangeEvent(tick=33336, channel=7, data=[7, 63]),\n",
       "   midi.ControlChangeEvent(tick=33348, channel=7, data=[7, 62]),\n",
       "   midi.ControlChangeEvent(tick=33348, channel=7, data=[7, 61]),\n",
       "   midi.ControlChangeEvent(tick=33364, channel=7, data=[7, 59]),\n",
       "   midi.ControlChangeEvent(tick=33372, channel=7, data=[7, 58]),\n",
       "   midi.ControlChangeEvent(tick=33372, channel=7, data=[7, 57]),\n",
       "   midi.ControlChangeEvent(tick=33388, channel=7, data=[7, 56]),\n",
       "   midi.ControlChangeEvent(tick=33392, channel=7, data=[7, 55]),\n",
       "   midi.ControlChangeEvent(tick=33396, channel=7, data=[7, 54]),\n",
       "   midi.ControlChangeEvent(tick=33408, channel=7, data=[7, 53]),\n",
       "   midi.ControlChangeEvent(tick=33412, channel=7, data=[7, 52]),\n",
       "   midi.ControlChangeEvent(tick=33428, channel=7, data=[7, 51]),\n",
       "   midi.ControlChangeEvent(tick=33432, channel=7, data=[7, 50]),\n",
       "   midi.ControlChangeEvent(tick=33444, channel=7, data=[7, 49]),\n",
       "   midi.ControlChangeEvent(tick=33456, channel=7, data=[7, 47]),\n",
       "   midi.ControlChangeEvent(tick=33472, channel=7, data=[7, 46]),\n",
       "   midi.ControlChangeEvent(tick=33484, channel=7, data=[7, 45]),\n",
       "   midi.ControlChangeEvent(tick=33496, channel=7, data=[7, 44]),\n",
       "   midi.ControlChangeEvent(tick=33496, channel=7, data=[7, 43]),\n",
       "   midi.ControlChangeEvent(tick=33516, channel=7, data=[7, 42]),\n",
       "   midi.PitchWheelEvent(tick=33520, channel=7, data=[0, 59]),\n",
       "   midi.PitchWheelEvent(tick=33520, channel=7, data=[0, 64]),\n",
       "   midi.ControlChangeEvent(tick=33524, channel=7, data=[7, 41]),\n",
       "   midi.ControlChangeEvent(tick=33532, channel=7, data=[7, 40]),\n",
       "   midi.ControlChangeEvent(tick=33536, channel=7, data=[7, 39]),\n",
       "   midi.ControlChangeEvent(tick=33540, channel=7, data=[7, 38]),\n",
       "   midi.ControlChangeEvent(tick=33552, channel=7, data=[7, 37]),\n",
       "   midi.ControlChangeEvent(tick=33556, channel=7, data=[7, 36]),\n",
       "   midi.ControlChangeEvent(tick=33560, channel=7, data=[7, 35]),\n",
       "   midi.ControlChangeEvent(tick=33564, channel=7, data=[7, 34]),\n",
       "   midi.ControlChangeEvent(tick=33580, channel=7, data=[7, 32]),\n",
       "   midi.ControlChangeEvent(tick=33580, channel=7, data=[7, 31]),\n",
       "   midi.ControlChangeEvent(tick=33584, channel=7, data=[7, 30]),\n",
       "   midi.ControlChangeEvent(tick=33584, channel=7, data=[7, 29]),\n",
       "   midi.ControlChangeEvent(tick=33596, channel=7, data=[7, 28]),\n",
       "   midi.ControlChangeEvent(tick=33596, channel=7, data=[7, 27]),\n",
       "   midi.PitchWheelEvent(tick=33780, channel=7, data=[0, 59]),\n",
       "   midi.PitchWheelEvent(tick=33784, channel=7, data=[0, 64]),\n",
       "   midi.NoteOnEvent(tick=33796, channel=7, data=[43, 0]),\n",
       "   midi.NoteOnEvent(tick=33796, channel=7, data=[67, 0]),\n",
       "   midi.NoteOnEvent(tick=33796, channel=7, data=[79, 0]),\n",
       "   midi.NoteOnEvent(tick=33796, channel=7, data=[71, 0]),\n",
       "   midi.EndOfTrackEvent(tick=33796, data=[])]),\n",
       " midi.Track(\\\n",
       "  [midi.PortEvent(tick=0, data=[0]),\n",
       "   midi.ProgramChangeEvent(tick=0, channel=9, data=[16]),\n",
       "   midi.ControlChangeEvent(tick=0, channel=9, data=[7, 117]),\n",
       "   midi.ControlChangeEvent(tick=0, channel=9, data=[10, 64]),\n",
       "   midi.ControlChangeEvent(tick=0, channel=9, data=[91, 69]),\n",
       "   midi.NoteOnEvent(tick=0, channel=9, data=[42, 125]),\n",
       "   midi.NoteOnEvent(tick=28, channel=9, data=[42, 0]),\n",
       "   midi.ProgramChangeEvent(tick=50, channel=9, data=[16]),\n",
       "   midi.NoteOnEvent(tick=96, channel=9, data=[42, 125]),\n",
       "   midi.NoteOnEvent(tick=128, channel=9, data=[42, 0]),\n",
       "   midi.NoteOnEvent(tick=192, channel=9, data=[42, 127]),\n",
       "   midi.NoteOnEvent(tick=220, channel=9, data=[42, 0]),\n",
       "   midi.NoteOnEvent(tick=288, channel=9, data=[42, 127]),\n",
       "   midi.NoteOnEvent(tick=320, channel=9, data=[42, 0]),\n",
       "   midi.NoteOnEvent(tick=360, channel=9, data=[36, 88]),\n",
       "   midi.NoteOnEvent(tick=364, channel=9, data=[36, 0]),\n",
       "   midi.NoteOnEvent(tick=384, channel=9, data=[36, 125]),\n",
       "   midi.NoteOnEvent(tick=384, channel=9, data=[42, 125]),\n",
       "   midi.NoteOnEvent(tick=384, channel=9, data=[49, 125]),\n",
       "   midi.NoteOnEvent(tick=400, channel=9, data=[42, 0]),\n",
       "   midi.NoteOnEvent(tick=408, channel=9, data=[42, 88]),\n",
       "   midi.NoteOnEvent(tick=424, channel=9, data=[42, 0]),\n",
       "   midi.NoteOnEvent(tick=432, channel=9, data=[42, 112]),\n",
       "   midi.NoteOnEvent(tick=448, channel=9, data=[42, 0]),\n",
       "   midi.NoteOnEvent(tick=456, channel=9, data=[42, 112]),\n",
       "   midi.NoteOnEvent(tick=472, channel=9, data=[42, 0]),\n",
       "   midi.NoteOnEvent(tick=480, channel=9, data=[38, 125]),\n",
       "   midi.NoteOnEvent(tick=480, channel=9, data=[46, 125]),\n",
       "   midi.NoteOnEvent(tick=496, channel=9, data=[36, 0]),\n",
       "   midi.NoteOnEvent(tick=500, channel=9, data=[46, 0]),\n",
       "   midi.NoteOnEvent(tick=504, channel=9, data=[42, 112]),\n",
       "   midi.NoteOnEvent(tick=520, channel=9, data=[42, 0]),\n",
       "   midi.NoteOnEvent(tick=528, channel=9, data=[36, 125]),\n",
       "   midi.NoteOnEvent(tick=528, channel=9, data=[42, 125]),\n",
       "   midi.NoteOnEvent(tick=544, channel=9, data=[42, 0]),\n",
       "   midi.NoteOnEvent(tick=552, channel=9, data=[42, 100]),\n",
       "   midi.NoteOnEvent(tick=568, channel=9, data=[42, 0]),\n",
       "   midi.PitchWheelEvent(tick=576, channel=9, data=[0, 61]),\n",
       "   midi.PitchWheelEvent(tick=576, channel=9, data=[0, 64]),\n",
       "   midi.NoteOnEvent(tick=576, channel=9, data=[42, 77]),\n",
       "   midi.NoteOnEvent(tick=584, channel=9, data=[42, 0]),\n",
       "   midi.NoteOnEvent(tick=600, channel=9, data=[42, 100]),\n",
       "   midi.NoteOnEvent(tick=616, channel=9, data=[42, 0]),\n",
       "   midi.NoteOnEvent(tick=624, channel=9, data=[44, 112]),\n",
       "   midi.NoteOnEvent(tick=644, channel=9, data=[44, 0]),\n",
       "   midi.NoteOnEvent(tick=648, channel=9, data=[38, 0]),\n",
       "   midi.NoteOnEvent(tick=648, channel=9, data=[42, 112]),\n",
       "   midi.NoteOnEvent(tick=668, channel=9, data=[42, 0]),\n",
       "   midi.NoteOnEvent(tick=672, channel=9, data=[38, 112]),\n",
       "   midi.NoteOnEvent(tick=672, channel=9, data=[44, 125]),\n",
       "   midi.NoteOnEvent(tick=676, channel=9, data=[49, 0]),\n",
       "   midi.NoteOnEvent(tick=692, channel=9, data=[44, 0]),\n",
       "   midi.NoteOnEvent(tick=696, channel=9, data=[42, 112]),\n",
       "   midi.NoteOnEvent(tick=712, channel=9, data=[42, 0]),\n",
       "   midi.NoteOnEvent(tick=720, channel=9, data=[42, 125]),\n",
       "   midi.NoteOnEvent(tick=736, channel=9, data=[42, 0]),\n",
       "   midi.NoteOnEvent(tick=736, channel=9, data=[36, 0]),\n",
       "   midi.NoteOnEvent(tick=744, channel=9, data=[36, 88]),\n",
       "   midi.NoteOnEvent(tick=744, channel=9, data=[42, 112]),\n",
       "   midi.NoteOnEvent(tick=748, channel=9, data=[36, 0]),\n",
       "   midi.NoteOnEvent(tick=756, channel=9, data=[42, 0]),\n",
       "   midi.NoteOnEvent(tick=768, channel=9, data=[36, 112]),\n",
       "   midi.NoteOnEvent(tick=768, channel=9, data=[42, 125]),\n",
       "   midi.NoteOnEvent(tick=784, channel=9, data=[42, 0]),\n",
       "   midi.NoteOnEvent(tick=792, channel=9, data=[42, 112]),\n",
       "   midi.NoteOnEvent(tick=808, channel=9, data=[42, 0]),\n",
       "   midi.NoteOnEvent(tick=816, channel=9, data=[42, 112]),\n",
       "   midi.NoteOnEvent(tick=832, channel=9, data=[42, 0]),\n",
       "   midi.NoteOnEvent(tick=836, channel=9, data=[38, 0]),\n",
       "   midi.NoteOnEvent(tick=840, channel=9, data=[42, 100]),\n",
       "   midi.NoteOnEvent(tick=864, channel=9, data=[42, 0]),\n",
       "   midi.NoteOnEvent(tick=864, channel=9, data=[38, 125]),\n",
       "   midi.PitchWheelEvent(tick=864, channel=9, data=[0, 58]),\n",
       "   midi.NoteOnEvent(tick=864, channel=9, data=[46, 125]),\n",
       "   midi.PitchWheelEvent(tick=864, channel=9, data=[0, 64]),\n",
       "   midi.NoteOnEvent(tick=880, channel=9, data=[46, 0]),\n",
       "   midi.NoteOnEvent(tick=884, channel=9, data=[36, 0]),\n",
       "   midi.NoteOnEvent(tick=888, channel=9, data=[42, 100]),\n",
       "   midi.NoteOnEvent(tick=904, channel=9, data=[42, 0]),\n",
       "   midi.NoteOnEvent(tick=912, channel=9, data=[36, 125]),\n",
       "   midi.NoteOnEvent(tick=912, channel=9, data=[42, 125]),\n",
       "   midi.NoteOnEvent(tick=932, channel=9, data=[42, 0]),\n",
       "   midi.NoteOnEvent(tick=936, channel=9, data=[42, 100]),\n",
       "   midi.NoteOnEvent(tick=964, channel=9, data=[42, 0]),\n",
       "   midi.NoteOnEvent(tick=984, channel=9, data=[42, 100]),\n",
       "   midi.NoteOnEvent(tick=1004, channel=9, data=[42, 0]),\n",
       "   midi.NoteOnEvent(tick=1008, channel=9, data=[44, 125]),\n",
       "   midi.NoteOnEvent(tick=1028, channel=9, data=[44, 0]),\n",
       "   midi.NoteOnEvent(tick=1032, channel=9, data=[38, 0]),\n",
       "   midi.NoteOnEvent(tick=1032, channel=9, data=[42, 112]),\n",
       "   midi.NoteOnEvent(tick=1052, channel=9, data=[42, 0]),\n",
       "   midi.NoteOnEvent(tick=1056, channel=9, data=[38, 125]),\n",
       "   midi.NoteOnEvent(tick=1056, channel=9, data=[44, 125]),\n",
       "   midi.NoteOnEvent(tick=1076, channel=9, data=[44, 0]),\n",
       "   midi.NoteOnEvent(tick=1080, channel=9, data=[42, 112]),\n",
       "   midi.NoteOnEvent(tick=1096, channel=9, data=[42, 0]),\n",
       "   midi.NoteOnEvent(tick=1104, channel=9, data=[42, 125]),\n",
       "   midi.NoteOnEvent(tick=1120, channel=9, data=[42, 0]),\n",
       "   midi.NoteOnEvent(tick=1120, channel=9, data=[36, 0]),\n",
       "   midi.NoteOnEvent(tick=1128, channel=9, data=[36, 88]),\n",
       "   midi.NoteOnEvent(tick=1128, channel=9, data=[42, 100]),\n",
       "   midi.NoteOnEvent(tick=1132, channel=9, data=[36, 0]),\n",
       "   midi.NoteOnEvent(tick=1140, channel=9, data=[42, 0]),\n",
       "   midi.NoteOnEvent(tick=1152, channel=9, data=[36, 112]),\n",
       "   midi.NoteOnEvent(tick=1152, channel=9, data=[42, 112]),\n",
       "   midi.NoteOnEvent(tick=1168, channel=9, data=[42, 0]),\n",
       "   midi.NoteOnEvent(tick=1176, channel=9, data=[42, 100]),\n",
       "   midi.NoteOnEvent(tick=1192, channel=9, data=[42, 0]),\n",
       "   midi.NoteOnEvent(tick=1200, channel=9, data=[42, 125]),\n",
       "   midi.NoteOnEvent(tick=1216, channel=9, data=[42, 0]),\n",
       "   midi.NoteOnEvent(tick=1224, channel=9, data=[38, 0]),\n",
       "   midi.NoteOnEvent(tick=1224, channel=9, data=[42, 100]),\n",
       "   midi.NoteOnEvent(tick=1240, channel=9, data=[42, 0]),\n",
       "   midi.NoteOnEvent(tick=1248, channel=9, data=[38, 125]),\n",
       "   midi.NoteOnEvent(tick=1248, channel=9, data=[44, 125]),\n",
       "   midi.NoteOnEvent(tick=1272, channel=9, data=[44, 0]),\n",
       "   midi.NoteOnEvent(tick=1272, channel=9, data=[36, 0]),\n",
       "   midi.NoteOnEvent(tick=1272, channel=9, data=[42, 112]),\n",
       "   midi.NoteOnEvent(tick=1288, channel=9, data=[42, 0]),\n",
       "   midi.NoteOnEvent(tick=1296, channel=9, data=[36, 125]),\n",
       "   midi.NoteOnEvent(tick=1296, channel=9, data=[42, 125]),\n",
       "   midi.NoteOnEvent(tick=1316, channel=9, data=[42, 0]),\n",
       "   midi.NoteOnEvent(tick=1320, channel=9, data=[42, 112]),\n",
       "   midi.PitchWheelEvent(tick=1320, channel=9, data=[0, 63]),\n",
       "   midi.PitchWheelEvent(tick=1320, channel=9, data=[0, 64]),\n",
       "   midi.NoteOnEvent(tick=1360, channel=9, data=[42, 0]),\n",
       "   midi.NoteOnEvent(tick=1368, channel=9, data=[42, 100]),\n",
       "   midi.NoteOnEvent(tick=1384, channel=9, data=[42, 0]),\n",
       "   midi.NoteOnEvent(tick=1392, channel=9, data=[46, 125]),\n",
       "   midi.NoteOnEvent(tick=1412, channel=9, data=[46, 0]),\n",
       "   midi.NoteOnEvent(tick=1416, channel=9, data=[38, 0]),\n",
       "   midi.NoteOnEvent(tick=1416, channel=9, data=[42, 100]),\n",
       "   midi.NoteOnEvent(tick=1432, channel=9, data=[42, 0]),\n",
       "   midi.NoteOnEvent(tick=1440, channel=9, data=[38, 125]),\n",
       "   midi.NoteOnEvent(tick=1440, channel=9, data=[46, 125]),\n",
       "   midi.NoteOnEvent(tick=1460, channel=9, data=[46, 0]),\n",
       "   midi.NoteOnEvent(tick=1464, channel=9, data=[42, 112]),\n",
       "   midi.NoteOnEvent(tick=1480, channel=9, data=[42, 0]),\n",
       "   midi.NoteOnEvent(tick=1488, channel=9, data=[42, 125]),\n",
       "   midi.NoteOnEvent(tick=1500, channel=9, data=[36, 0]),\n",
       "   midi.NoteOnEvent(tick=1508, channel=9, data=[42, 0]),\n",
       "   midi.NoteOnEvent(tick=1512, channel=9, data=[36, 88]),\n",
       "   midi.NoteOnEvent(tick=1512, channel=9, data=[42, 100]),\n",
       "   midi.NoteOnEvent(tick=1516, channel=9, data=[36, 0]),\n",
       "   midi.NoteOnEvent(tick=1520, channel=9, data=[42, 0]),\n",
       "   midi.NoteOnEvent(tick=1536, channel=9, data=[36, 112]),\n",
       "   midi.NoteOnEvent(tick=1536, channel=9, data=[42, 125]),\n",
       "   midi.NoteOnEvent(tick=1556, channel=9, data=[42, 0]),\n",
       "   midi.NoteOnEvent(tick=1560, channel=9, data=[42, 77]),\n",
       "   midi.NoteOnEvent(tick=1572, channel=9, data=[42, 0]),\n",
       "   midi.NoteOnEvent(tick=1584, channel=9, data=[42, 112]),\n",
       "   midi.NoteOnEvent(tick=1604, channel=9, data=[42, 0]),\n",
       "   midi.NoteOnEvent(tick=1604, channel=9, data=[38, 0]),\n",
       "   midi.NoteOnEvent(tick=1608, channel=9, data=[42, 88]),\n",
       "   midi.NoteOnEvent(tick=1628, channel=9, data=[42, 0]),\n",
       "   midi.NoteOnEvent(tick=1632, channel=9, data=[38, 125]),\n",
       "   midi.NoteOnEvent(tick=1632, channel=9, data=[44, 112]),\n",
       "   midi.NoteOnEvent(tick=1656, channel=9, data=[44, 0]),\n",
       "   midi.NoteOnEvent(tick=1656, channel=9, data=[42, 115]),\n",
       "   midi.NoteOnEvent(tick=1660, channel=9, data=[36, 0]),\n",
       "   midi.NoteOnEvent(tick=1668, channel=9, data=[42, 0]),\n",
       "   midi.NoteOnEvent(tick=1680, channel=9, data=[36, 125]),\n",
       "   midi.NoteOnEvent(tick=1680, channel=9, data=[42, 125]),\n",
       "   midi.NoteOnEvent(tick=1696, channel=9, data=[42, 0]),\n",
       "   midi.NoteOnEvent(tick=1704, channel=9, data=[42, 88]),\n",
       "   midi.NoteOnEvent(tick=1716, channel=9, data=[42, 0]),\n",
       "   midi.NoteOnEvent(tick=1728, channel=9, data=[42, 112]),\n",
       "   midi.NoteOnEvent(tick=1744, channel=9, data=[42, 0]),\n",
       "   midi.PitchWheelEvent(tick=1752, channel=9, data=[0, 59]),\n",
       "   midi.PitchWheelEvent(tick=1752, channel=9, data=[0, 64]),\n",
       "   midi.NoteOnEvent(tick=1752, channel=9, data=[42, 100]),\n",
       "   midi.NoteOnEvent(tick=1764, channel=9, data=[36, 0]),\n",
       "   midi.NoteOnEvent(tick=1768, channel=9, data=[42, 0]),\n",
       "   midi.NoteOnEvent(tick=1776, channel=9, data=[36, 125]),\n",
       "   midi.NoteOnEvent(tick=1776, channel=9, data=[44, 112]),\n",
       "   midi.NoteOnEvent(tick=1796, channel=9, data=[44, 0]),\n",
       "   midi.NoteOnEvent(tick=1796, channel=9, data=[38, 0]),\n",
       "   midi.NoteOnEvent(tick=1800, channel=9, data=[42, 100]),\n",
       "   midi.NoteOnEvent(tick=1812, channel=9, data=[42, 0]),\n",
       "   midi.NoteOnEvent(tick=1824, channel=9, data=[38, 125]),\n",
       "   midi.NoteOnEvent(tick=1824, channel=9, data=[42, 112]),\n",
       "   midi.NoteOnEvent(tick=1844, channel=9, data=[42, 0]),\n",
       "   midi.NoteOnEvent(tick=1848, channel=9, data=[42, 112]),\n",
       "   midi.NoteOnEvent(tick=1864, channel=9, data=[42, 0]),\n",
       "   midi.NoteOnEvent(tick=1872, channel=9, data=[44, 127]),\n",
       "   midi.NoteOnEvent(tick=1880, channel=9, data=[44, 0]),\n",
       "   midi.NoteOnEvent(tick=1880, channel=9, data=[36, 0]),\n",
       "   midi.NoteOnEvent(tick=1896, channel=9, data=[36, 100]),\n",
       "   midi.NoteOnEvent(tick=1896, channel=9, data=[44, 112]),\n",
       "   midi.NoteOnEvent(tick=1900, channel=9, data=[36, 0]),\n",
       "   midi.NoteOnEvent(tick=1904, channel=9, data=[44, 0]),\n",
       "   midi.NoteOnEvent(tick=1920, channel=9, data=[36, 125]),\n",
       "   midi.NoteOnEvent(tick=1920, channel=9, data=[42, 125]),\n",
       "   midi.NoteOnEvent(tick=1920, channel=9, data=[49, 125]),\n",
       "   midi.NoteOnEvent(tick=1940, channel=9, data=[42, 0]),\n",
       "   midi.NoteOnEvent(tick=1944, channel=9, data=[42, 100]),\n",
       "   midi.NoteOnEvent(tick=1960, channel=9, data=[42, 0]),\n",
       "   midi.PitchWheelEvent(tick=1968, channel=9, data=[0, 59]),\n",
       "   midi.NoteOnEvent(tick=1968, channel=9, data=[42, 112]),\n",
       "   midi.NoteOnEvent(tick=1980, channel=9, data=[42, 0]),\n",
       "   midi.NoteOnEvent(tick=1988, channel=9, data=[38, 0]),\n",
       "   midi.NoteOnEvent(tick=1992, channel=9, data=[42, 100]),\n",
       "   midi.NoteOnEvent(tick=2004, channel=9, data=[42, 0]),\n",
       "   midi.PitchWheelEvent(tick=2016, channel=9, data=[0, 64]),\n",
       "   midi.NoteOnEvent(tick=2016, channel=9, data=[38, 110]),\n",
       "   midi.NoteOnEvent(tick=2016, channel=9, data=[44, 125]),\n",
       "   midi.NoteOnEvent(tick=2036, channel=9, data=[49, 0]),\n",
       "   midi.NoteOnEvent(tick=2040, channel=9, data=[44, 0]),\n",
       "   midi.NoteOnEvent(tick=2040, channel=9, data=[42, 100]),\n",
       "   midi.NoteOnEvent(tick=2044, channel=9, data=[36, 0]),\n",
       "   midi.NoteOnEvent(tick=2048, channel=9, data=[42, 0]),\n",
       "   midi.NoteOnEvent(tick=2064, channel=9, data=[36, 112]),\n",
       "   midi.NoteOnEvent(tick=2064, channel=9, data=[42, 125]),\n",
       "   midi.NoteOnEvent(tick=2064, channel=9, data=[57, 112]),\n",
       "   midi.NoteOnEvent(tick=2084, channel=9, data=[42, 0]),\n",
       "   midi.NoteOnEvent(tick=2088, channel=9, data=[42, 88]),\n",
       "   midi.NoteOnEvent(tick=2108, channel=9, data=[42, 0]),\n",
       "   midi.NoteOnEvent(tick=2112, channel=9, data=[42, 112]),\n",
       "   midi.PitchWheelEvent(tick=2112, channel=9, data=[0, 60]),\n",
       "   midi.NoteOnEvent(tick=2128, channel=9, data=[42, 0]),\n",
       "   midi.PitchWheelEvent(tick=2136, channel=9, data=[0, 64]),\n",
       "   midi.NoteOnEvent(tick=2136, channel=9, data=[42, 112]),\n",
       "   midi.PitchWheelEvent(tick=2136, channel=9, data=[0, 60]),\n",
       "   midi.PitchWheelEvent(tick=2136, channel=9, data=[0, 64]),\n",
       "   midi.NoteOnEvent(tick=2156, channel=9, data=[42, 0]),\n",
       "   midi.NoteOnEvent(tick=2160, channel=9, data=[46, 125]),\n",
       "   midi.NoteOnEvent(tick=2176, channel=9, data=[38, 0]),\n",
       "   midi.NoteOnEvent(tick=2184, channel=9, data=[46, 0]),\n",
       "   midi.NoteOnEvent(tick=2184, channel=9, data=[42, 100]),\n",
       "   midi.NoteOnEvent(tick=2200, channel=9, data=[42, 0]),\n",
       "   midi.NoteOnEvent(tick=2208, channel=9, data=[38, 125]),\n",
       "   midi.NoteOnEvent(tick=2208, channel=9, data=[46, 112]),\n",
       "   midi.NoteOnEvent(tick=2232, channel=9, data=[46, 0]),\n",
       "   midi.NoteOnEvent(tick=2232, channel=9, data=[42, 112]),\n",
       "   midi.NoteOnEvent(tick=2248, channel=9, data=[42, 0]),\n",
       "   midi.NoteOnEvent(tick=2256, channel=9, data=[42, 112]),\n",
       "   midi.NoteOnEvent(tick=2264, channel=9, data=[36, 0]),\n",
       "   midi.NoteOnEvent(tick=2272, channel=9, data=[42, 0]),\n",
       "   midi.NoteOnEvent(tick=2280, channel=9, data=[36, 88]),\n",
       "   midi.NoteOnEvent(tick=2280, channel=9, data=[42, 100]),\n",
       "   midi.NoteOnEvent(tick=2284, channel=9, data=[36, 0]),\n",
       "   midi.NoteOnEvent(tick=2288, channel=9, data=[57, 0]),\n",
       "   midi.NoteOnEvent(tick=2292, channel=9, data=[42, 0]),\n",
       "   midi.NoteOnEvent(tick=2304, channel=9, data=[36, 112]),\n",
       "   midi.NoteOnEvent(tick=2304, channel=9, data=[42, 112]),\n",
       "   midi.NoteOnEvent(tick=2324, channel=9, data=[42, 0]),\n",
       "   midi.NoteOnEvent(tick=2328, channel=9, data=[42, 100]),\n",
       "   midi.NoteOnEvent(tick=2336, channel=9, data=[42, 0]),\n",
       "   midi.PitchWheelEvent(tick=2352, channel=9, data=[0, 60]),\n",
       "   midi.NoteOnEvent(tick=2352, channel=9, data=[42, 112]),\n",
       "   midi.NoteOnEvent(tick=2368, channel=9, data=[42, 0]),\n",
       "   midi.NoteOnEvent(tick=2376, channel=9, data=[38, 0]),\n",
       "   midi.PitchWheelEvent(tick=2376, channel=9, data=[0, 64]),\n",
       "   midi.PitchWheelEvent(tick=2376, channel=9, data=[0, 60]),\n",
       "   midi.PitchWheelEvent(tick=2376, channel=9, data=[0, 63]),\n",
       "   midi.PitchWheelEvent(tick=2376, channel=9, data=[0, 64]),\n",
       "   midi.NoteOnEvent(tick=2376, channel=9, data=[42, 100]),\n",
       "   midi.NoteOnEvent(tick=2384, channel=9, data=[42, 0]),\n",
       "   midi.NoteOnEvent(tick=2400, channel=9, data=[38, 125]),\n",
       "   midi.NoteOnEvent(tick=2400, channel=9, data=[44, 125]),\n",
       "   midi.PitchWheelEvent(tick=2400, channel=9, data=[0, 60]),\n",
       "   midi.NoteOnEvent(tick=2424, channel=9, data=[44, 0]),\n",
       "   midi.PitchWheelEvent(tick=2424, channel=9, data=[0, 64]),\n",
       "   midi.NoteOnEvent(tick=2424, channel=9, data=[42, 100]),\n",
       "   midi.NoteOnEvent(tick=2428, channel=9, data=[36, 0]),\n",
       "   midi.NoteOnEvent(tick=2432, channel=9, data=[42, 0]),\n",
       "   midi.NoteOnEvent(tick=2448, channel=9, data=[36, 112]),\n",
       "   midi.NoteOnEvent(tick=2448, channel=9, data=[42, 125]),\n",
       "   midi.NoteOnEvent(tick=2468, channel=9, data=[42, 0]),\n",
       "   midi.NoteOnEvent(tick=2472, channel=9, data=[42, 77]),\n",
       "   midi.PitchWheelEvent(tick=2472, channel=9, data=[0, 60]),\n",
       "   midi.PitchWheelEvent(tick=2472, channel=9, data=[0, 64]),\n",
       "   midi.NoteOnEvent(tick=2480, channel=9, data=[42, 0]),\n",
       "   midi.NoteOnEvent(tick=2496, channel=9, data=[42, 100]),\n",
       "   midi.NoteOnEvent(tick=2512, channel=9, data=[42, 0]),\n",
       "   midi.NoteOnEvent(tick=2516, channel=9, data=[36, 0]),\n",
       "   midi.NoteOnEvent(tick=2520, channel=9, data=[42, 100]),\n",
       "   midi.PitchWheelEvent(tick=2520, channel=9, data=[0, 63]),\n",
       "   midi.PitchWheelEvent(tick=2520, channel=9, data=[0, 64]),\n",
       "   midi.NoteOnEvent(tick=2532, channel=9, data=[42, 0]),\n",
       "   midi.NoteOnEvent(tick=2544, channel=9, data=[36, 112]),\n",
       "   midi.NoteOnEvent(tick=2544, channel=9, data=[42, 125]),\n",
       "   midi.NoteOnEvent(tick=2564, channel=9, data=[42, 0]),\n",
       "   midi.NoteOnEvent(tick=2568, channel=9, data=[38, 0]),\n",
       "   midi.NoteOnEvent(tick=2568, channel=9, data=[42, 100]),\n",
       "   midi.NoteOnEvent(tick=2588, channel=9, data=[42, 0]),\n",
       "   midi.NoteOnEvent(tick=2592, channel=9, data=[38, 125]),\n",
       "   midi.NoteOnEvent(tick=2592, channel=9, data=[44, 112]),\n",
       "   midi.NoteOnEvent(tick=2612, channel=9, data=[44, 0]),\n",
       "   midi.NoteOnEvent(tick=2616, channel=9, data=[42, 112]),\n",
       "   midi.NoteOnEvent(tick=2636, channel=9, data=[42, 0]),\n",
       "   midi.PitchWheelEvent(tick=2640, channel=9, data=[0, 61]),\n",
       "   midi.PitchWheelEvent(tick=2640, channel=9, data=[0, 64]),\n",
       "   midi.NoteOnEvent(tick=2640, channel=9, data=[46, 125]),\n",
       "   midi.NoteOnEvent(tick=2644, channel=9, data=[36, 0]),\n",
       "   midi.NoteOnEvent(tick=2664, channel=9, data=[46, 0]),\n",
       "   midi.NoteOnEvent(tick=2664, channel=9, data=[36, 112]),\n",
       "   midi.PitchWheelEvent(tick=2664, channel=9, data=[0, 59]),\n",
       "   midi.NoteOnEvent(tick=2664, channel=9, data=[42, 112]),\n",
       "   midi.NoteOnEvent(tick=2668, channel=9, data=[36, 0]),\n",
       "   midi.NoteOnEvent(tick=2680, channel=9, data=[42, 0]),\n",
       "   midi.PitchWheelEvent(tick=2688, channel=9, data=[0, 64]),\n",
       "   midi.NoteOnEvent(tick=2688, channel=9, data=[36, 125]),\n",
       "   midi.NoteOnEvent(tick=2688, channel=9, data=[42, 125]),\n",
       "   midi.NoteOnEvent(tick=2688, channel=9, data=[49, 125]),\n",
       "   midi.NoteOnEvent(tick=2708, channel=9, data=[42, 0]),\n",
       "   midi.NoteOnEvent(tick=2712, channel=9, data=[42, 100]),\n",
       "   midi.NoteOnEvent(tick=2732, channel=9, data=[42, 0]),\n",
       "   midi.NoteOnEvent(tick=2736, channel=9, data=[42, 125]),\n",
       "   midi.NoteOnEvent(tick=2756, channel=9, data=[42, 0]),\n",
       "   midi.NoteOnEvent(tick=2760, channel=9, data=[38, 0]),\n",
       "   midi.NoteOnEvent(tick=2760, channel=9, data=[42, 112]),\n",
       "   midi.NoteOnEvent(tick=2780, channel=9, data=[42, 0]),\n",
       "   midi.NoteOnEvent(tick=2784, channel=9, data=[38, 125]),\n",
       "   midi.NoteOnEvent(tick=2784, channel=9, data=[44, 125]),\n",
       "   midi.NoteOnEvent(tick=2800, channel=9, data=[49, 0]),\n",
       "   midi.NoteOnEvent(tick=2808, channel=9, data=[36, 0]),\n",
       "   midi.NoteOnEvent(tick=2808, channel=9, data=[44, 0]),\n",
       "   midi.NoteOnEvent(tick=2808, channel=9, data=[42, 112]),\n",
       "   midi.NoteOnEvent(tick=2824, channel=9, data=[42, 0]),\n",
       "   midi.NoteOnEvent(tick=2832, channel=9, data=[36, 112]),\n",
       "   midi.NoteOnEvent(tick=2832, channel=9, data=[42, 112]),\n",
       "   midi.NoteOnEvent(tick=2832, channel=9, data=[57, 125]),\n",
       "   midi.NoteOnEvent(tick=2852, channel=9, data=[42, 0]),\n",
       "   midi.NoteOnEvent(tick=2856, channel=9, data=[42, 88]),\n",
       "   midi.NoteOnEvent(tick=2872, channel=9, data=[42, 0]),\n",
       "   midi.NoteOnEvent(tick=2880, channel=9, data=[42, 112]),\n",
       "   midi.NoteOnEvent(tick=2896, channel=9, data=[42, 0]),\n",
       "   midi.NoteOnEvent(tick=2904, channel=9, data=[42, 112]),\n",
       "   midi.NoteOnEvent(tick=2924, channel=9, data=[42, 0]),\n",
       "   midi.NoteOnEvent(tick=2928, channel=9, data=[46, 112]),\n",
       "   midi.NoteOnEvent(tick=2944, channel=9, data=[38, 0]),\n",
       "   midi.NoteOnEvent(tick=2952, channel=9, data=[46, 0]),\n",
       "   midi.NoteOnEvent(tick=2952, channel=9, data=[42, 100]),\n",
       "   midi.NoteOnEvent(tick=2972, channel=9, data=[42, 0]),\n",
       "   midi.NoteOnEvent(tick=2976, channel=9, data=[38, 125]),\n",
       "   midi.NoteOnEvent(tick=2976, channel=9, data=[46, 112]),\n",
       "   midi.NoteOnEvent(tick=3000, channel=9, data=[46, 0]),\n",
       "   midi.NoteOnEvent(tick=3000, channel=9, data=[42, 112]),\n",
       "   midi.NoteOnEvent(tick=3012, channel=9, data=[57, 0]),\n",
       "   midi.NoteOnEvent(tick=3016, channel=9, data=[42, 0]),\n",
       "   midi.NoteOnEvent(tick=3024, channel=9, data=[42, 112]),\n",
       "   midi.NoteOnEvent(tick=3032, channel=9, data=[36, 0]),\n",
       "   midi.NoteOnEvent(tick=3040, channel=9, data=[42, 0]),\n",
       "   midi.NoteOnEvent(tick=3048, channel=9, data=[36, 77]),\n",
       "   midi.NoteOnEvent(tick=3048, channel=9, data=[42, 100]),\n",
       "   midi.PitchWheelEvent(tick=3048, channel=9, data=[0, 60]),\n",
       "   midi.PitchWheelEvent(tick=3048, channel=9, data=[0, 64]),\n",
       "   midi.NoteOnEvent(tick=3052, channel=9, data=[36, 0]),\n",
       "   midi.NoteOnEvent(tick=3060, channel=9, data=[42, 0]),\n",
       "   midi.NoteOnEvent(tick=3072, channel=9, data=[36, 125]),\n",
       "   midi.NoteOnEvent(tick=3072, channel=9, data=[42, 125]),\n",
       "   midi.NoteOnEvent(tick=3092, channel=9, data=[42, 0]),\n",
       "   midi.NoteOnEvent(tick=3096, channel=9, data=[42, 100]),\n",
       "   midi.NoteOnEvent(tick=3116, channel=9, data=[42, 0]),\n",
       "   midi.NoteOnEvent(tick=3120, channel=9, data=[42, 112]),\n",
       "   midi.NoteOnEvent(tick=3136, channel=9, data=[42, 0]),\n",
       "   midi.NoteOnEvent(tick=3140, channel=9, data=[38, 0]),\n",
       "   midi.NoteOnEvent(tick=3144, channel=9, data=[42, 100]),\n",
       "   midi.NoteOnEvent(tick=3160, channel=9, data=[42, 0]),\n",
       "   midi.NoteOnEvent(tick=3168, channel=9, data=[38, 125]),\n",
       "   midi.NoteOnEvent(tick=3168, channel=9, data=[44, 125]),\n",
       "   midi.NoteOnEvent(tick=3188, channel=9, data=[36, 0]),\n",
       "   midi.NoteOnEvent(tick=3192, channel=9, data=[44, 0]),\n",
       "   midi.NoteOnEvent(tick=3192, channel=9, data=[42, 112]),\n",
       "   midi.NoteOnEvent(tick=3204, channel=9, data=[42, 0]),\n",
       "   midi.NoteOnEvent(tick=3216, channel=9, data=[36, 125]),\n",
       "   midi.NoteOnEvent(tick=3216, channel=9, data=[42, 125]),\n",
       "   midi.NoteOnEvent(tick=3232, channel=9, data=[42, 0]),\n",
       "   midi.NoteOnEvent(tick=3240, channel=9, data=[42, 100]),\n",
       "   midi.NoteOnEvent(tick=3256, channel=9, data=[42, 0]),\n",
       "   midi.NoteOnEvent(tick=3264, channel=9, data=[42, 125]),\n",
       "   midi.NoteOnEvent(tick=3276, channel=9, data=[36, 0]),\n",
       "   midi.NoteOnEvent(tick=3284, channel=9, data=[42, 0]),\n",
       "   midi.NoteOnEvent(tick=3288, channel=9, data=[42, 100]),\n",
       "   midi.NoteOnEvent(tick=3308, channel=9, data=[42, 0]),\n",
       "   midi.NoteOnEvent(tick=3312, channel=9, data=[36, 112]),\n",
       "   midi.NoteOnEvent(tick=3312, channel=9, data=[44, 125]),\n",
       "   midi.PitchWheelEvent(tick=3312, channel=9, data=[0, 60]),\n",
       "   midi.PitchWheelEvent(tick=3312, channel=9, data=[0, 64]),\n",
       "   midi.NoteOnEvent(tick=3328, channel=9, data=[38, 0]),\n",
       "   midi.NoteOnEvent(tick=3332, channel=9, data=[44, 0]),\n",
       "   midi.NoteOnEvent(tick=3336, channel=9, data=[42, 100]),\n",
       "   midi.NoteOnEvent(tick=3356, channel=9, data=[42, 0]),\n",
       "   midi.NoteOnEvent(tick=3360, channel=9, data=[38, 125]),\n",
       "   midi.NoteOnEvent(tick=3360, channel=9, data=[44, 125]),\n",
       "   midi.NoteOnEvent(tick=3380, channel=9, data=[44, 0]),\n",
       "   midi.NoteOnEvent(tick=3384, channel=9, data=[42, 100]),\n",
       "   midi.NoteOnEvent(tick=3396, channel=9, data=[36, 0]),\n",
       "   midi.NoteOnEvent(tick=3404, channel=9, data=[42, 0]),\n",
       "   midi.NoteOnEvent(tick=3408, channel=9, data=[36, 77]),\n",
       "   midi.NoteOnEvent(tick=3408, channel=9, data=[44, 125]),\n",
       "   midi.NoteOnEvent(tick=3412, channel=9, data=[36, 0]),\n",
       "   midi.NoteOnEvent(tick=3432, channel=9, data=[44, 0]),\n",
       "   midi.NoteOnEvent(tick=3432, channel=9, data=[36, 112]),\n",
       "   midi.NoteOnEvent(tick=3432, channel=9, data=[42, 112]),\n",
       "   midi.NoteOnEvent(tick=3440, channel=9, data=[42, 0]),\n",
       "   midi.NoteOnEvent(tick=3440, channel=9, data=[36, 0]),\n",
       "   midi.NoteOnEvent(tick=3456, channel=9, data=[42, 112]),\n",
       "   midi.NoteOnEvent(tick=3456, channel=9, data=[57, 100]),\n",
       "   midi.NoteOnEvent(tick=3456, channel=9, data=[49, 100]),\n",
       "   midi.NoteOnEvent(tick=3456, channel=9, data=[36, 112]),\n",
       "   midi.NoteOnEvent(tick=3488, channel=9, data=[38, 0]),\n",
       "   midi.NoteOnEvent(tick=3512, channel=9, data=[42, 0]),\n",
       "   midi.NoteOnEvent(tick=3552, channel=9, data=[42, 112]),\n",
       "   midi.NoteOnEvent(tick=3612, channel=9, data=[36, 0]),\n",
       "   midi.NoteOnEvent(tick=3616, channel=9, data=[49, 0]),\n",
       "   midi.NoteOnEvent(tick=3616, channel=9, data=[57, 0]),\n",
       "   midi.NoteOnEvent(tick=3620, channel=9, data=[42, 0]),\n",
       "   midi.NoteOnEvent(tick=3648, channel=9, data=[42, 112]),\n",
       "   midi.NoteOnEvent(tick=3704, channel=9, data=[42, 0]),\n",
       "   midi.NoteOnEvent(tick=3744, channel=9, data=[42, 112]),\n",
       "   midi.NoteOnEvent(tick=3744, channel=9, data=[42, 112]),\n",
       "   midi.NoteOnEvent(tick=3745, channel=9, data=[42, 0]),\n",
       "   midi.NoteOnEvent(tick=3816, channel=9, data=[42, 0]),\n",
       "   midi.NoteOnEvent(tick=3840, channel=9, data=[42, 112]),\n",
       "   midi.NoteOnEvent(tick=3840, channel=9, data=[42, 112]),\n",
       "   midi.NoteOnEvent(tick=3841, channel=9, data=[42, 0]),\n",
       "   midi.NoteOnEvent(tick=3908, channel=9, data=[42, 0]),\n",
       "   midi.NoteOnEvent(tick=3936, channel=9, data=[42, 112]),\n",
       "   midi.NoteOnEvent(tick=4004, channel=9, data=[42, 0]),\n",
       "   midi.NoteOnEvent(tick=4032, channel=9, data=[42, 125]),\n",
       "   midi.NoteOnEvent(tick=4100, channel=9, data=[42, 0]),\n",
       "   midi.NoteOnEvent(tick=4128, channel=9, data=[42, 112]),\n",
       "   midi.NoteOnEvent(tick=4200, channel=9, data=[42, 0]),\n",
       "   midi.NoteOnEvent(tick=4224, channel=9, data=[42, 112]),\n",
       "   midi.NoteOnEvent(tick=4288, channel=9, data=[42, 0]),\n",
       "   midi.NoteOnEvent(tick=4320, channel=9, data=[42, 112]),\n",
       "   midi.NoteOnEvent(tick=4388, channel=9, data=[42, 0]),\n",
       "   midi.NoteOnEvent(tick=4416, channel=9, data=[42, 112]),\n",
       "   midi.NoteOnEvent(tick=4480, channel=9, data=[42, 0]),\n",
       "   midi.NoteOnEvent(tick=4512, channel=9, data=[42, 112]),\n",
       "   midi.NoteOnEvent(tick=4576, channel=9, data=[42, 0]),\n",
       "   midi.NoteOnEvent(tick=4608, channel=9, data=[42, 125]),\n",
       "   midi.NoteOnEvent(tick=4680, channel=9, data=[42, 0]),\n",
       "   midi.NoteOnEvent(tick=4704, channel=9, data=[42, 112]),\n",
       "   midi.NoteOnEvent(tick=4772, channel=9, data=[42, 0]),\n",
       "   midi.NoteOnEvent(tick=4800, channel=9, data=[42, 112]),\n",
       "   midi.NoteOnEvent(tick=4864, channel=9, data=[42, 0]),\n",
       "   midi.NoteOnEvent(tick=4896, channel=9, data=[42, 112]),\n",
       "   midi.NoteOnEvent(tick=4960, channel=9, data=[42, 0]),\n",
       "   midi.NoteOnEvent(tick=4992, channel=9, data=[42, 112]),\n",
       "   midi.PitchWheelEvent(tick=5040, channel=9, data=[0, 60]),\n",
       "   midi.PitchWheelEvent(tick=5040, channel=9, data=[0, 64]),\n",
       "   midi.NoteOnEvent(tick=5052, channel=9, data=[42, 0]),\n",
       "   midi.NoteOnEvent(tick=5088, channel=9, data=[42, 112]),\n",
       "   midi.NoteOnEvent(tick=5152, channel=9, data=[42, 0]),\n",
       "   midi.NoteOnEvent(tick=5184, channel=9, data=[42, 112]),\n",
       "   midi.NoteOnEvent(tick=5244, channel=9, data=[42, 0]),\n",
       "   midi.NoteOnEvent(tick=5280, channel=9, data=[42, 112]),\n",
       "   midi.NoteOnEvent(tick=5348, channel=9, data=[42, 0]),\n",
       "   midi.NoteOnEvent(tick=5376, channel=9, data=[42, 112]),\n",
       "   midi.NoteOnEvent(tick=5444, channel=9, data=[42, 0]),\n",
       "   midi.NoteOnEvent(tick=5472, channel=9, data=[42, 125]),\n",
       "   midi.NoteOnEvent(tick=5536, channel=9, data=[42, 0]),\n",
       "   midi.NoteOnEvent(tick=5568, channel=9, data=[42, 125]),\n",
       "   midi.NoteOnEvent(tick=5628, channel=9, data=[42, 0]),\n",
       "   midi.NoteOnEvent(tick=5664, channel=9, data=[42, 112]),\n",
       "   midi.NoteOnEvent(tick=5728, channel=9, data=[42, 0]),\n",
       "   midi.NoteOnEvent(tick=5760, channel=9, data=[42, 125]),\n",
       "   midi.NoteOnEvent(tick=5820, channel=9, data=[42, 0]),\n",
       "   midi.NoteOnEvent(tick=5856, channel=9, data=[42, 112]),\n",
       "   midi.NoteOnEvent(tick=5924, channel=9, data=[42, 0]),\n",
       "   midi.NoteOnEvent(tick=5952, channel=9, data=[42, 112]),\n",
       "   midi.NoteOnEvent(tick=6008, channel=9, data=[42, 0]),\n",
       "   midi.NoteOnEvent(tick=6048, channel=9, data=[42, 125]),\n",
       "   midi.NoteOnEvent(tick=6116, channel=9, data=[42, 0]),\n",
       "   midi.NoteOnEvent(tick=6144, channel=9, data=[42, 125]),\n",
       "   midi.NoteOnEvent(tick=6208, channel=9, data=[42, 0]),\n",
       "   midi.NoteOnEvent(tick=6240, channel=9, data=[42, 112]),\n",
       "   midi.PitchWheelEvent(tick=6240, channel=9, data=[0, 61]),\n",
       "   midi.PitchWheelEvent(tick=6240, channel=9, data=[0, 64]),\n",
       "   midi.NoteOnEvent(tick=6296, channel=9, data=[42, 0]),\n",
       "   midi.NoteOnEvent(tick=6336, channel=9, data=[42, 112]),\n",
       "   midi.NoteOnEvent(tick=6384, channel=9, data=[42, 0]),\n",
       "   midi.NoteOnEvent(tick=6384, channel=9, data=[48, 112]),\n",
       "   midi.NoteOnEvent(tick=6404, channel=9, data=[48, 0]),\n",
       "   midi.NoteOnEvent(tick=6432, channel=9, data=[45, 112]),\n",
       "   midi.NoteOnEvent(tick=6432, channel=9, data=[47, 125]),\n",
       "   midi.NoteOnEvent(tick=6433, channel=9, data=[47, 0]),\n",
       "   midi.NoteOnEvent(tick=6444, channel=9, data=[45, 0]),\n",
       "   midi.NoteOnEvent(tick=6456, channel=9, data=[45, 125]),\n",
       "   midi.NoteOnEvent(tick=6468, channel=9, data=[45, 0]),\n",
       "   midi.NoteOnEvent(tick=6480, channel=9, data=[43, 125]),\n",
       "   midi.NoteOnEvent(tick=6508, channel=9, data=[43, 0]),\n",
       "   midi.NoteOnEvent(tick=6528, channel=9, data=[36, 125]),\n",
       "   midi.NoteOnEvent(tick=6528, channel=9, data=[42, 125]),\n",
       "   midi.NoteOnEvent(tick=6528, channel=9, data=[49, 125]),\n",
       "   midi.NoteOnEvent(tick=6544, channel=9, data=[42, 0]),\n",
       "   midi.NoteOnEvent(tick=6552, channel=9, data=[42, 88]),\n",
       "   midi.NoteOnEvent(tick=6568, channel=9, data=[42, 0]),\n",
       "   midi.NoteOnEvent(tick=6576, channel=9, data=[42, 112]),\n",
       "   midi.NoteOnEvent(tick=6592, channel=9, data=[42, 0]),\n",
       "   midi.NoteOnEvent(tick=6600, channel=9, data=[42, 112]),\n",
       "   midi.NoteOnEvent(tick=6616, channel=9, data=[42, 0]),\n",
       "   midi.NoteOnEvent(tick=6624, channel=9, data=[38, 125]),\n",
       "   midi.NoteOnEvent(tick=6624, channel=9, data=[46, 125]),\n",
       "   midi.NoteOnEvent(tick=6640, channel=9, data=[36, 0]),\n",
       "   midi.NoteOnEvent(tick=6644, channel=9, data=[46, 0]),\n",
       "   midi.NoteOnEvent(tick=6648, channel=9, data=[42, 112]),\n",
       "   midi.NoteOnEvent(tick=6664, channel=9, data=[42, 0]),\n",
       "   midi.NoteOnEvent(tick=6672, channel=9, data=[36, 125]),\n",
       "   midi.NoteOnEvent(tick=6672, channel=9, data=[42, 125]),\n",
       "   midi.NoteOnEvent(tick=6688, channel=9, data=[42, 0]),\n",
       "   midi.NoteOnEvent(tick=6696, channel=9, data=[42, 100]),\n",
       "   midi.NoteOnEvent(tick=6712, channel=9, data=[42, 0]),\n",
       "   midi.PitchWheelEvent(tick=6720, channel=9, data=[0, 61]),\n",
       "   midi.PitchWheelEvent(tick=6720, channel=9, data=[0, 64]),\n",
       "   midi.NoteOnEvent(tick=6720, channel=9, data=[42, 77]),\n",
       "   midi.NoteOnEvent(tick=6728, channel=9, data=[42, 0]),\n",
       "   midi.NoteOnEvent(tick=6744, channel=9, data=[42, 100]),\n",
       "   midi.NoteOnEvent(tick=6760, channel=9, data=[42, 0]),\n",
       "   midi.NoteOnEvent(tick=6768, channel=9, data=[44, 112]),\n",
       "   midi.NoteOnEvent(tick=6788, channel=9, data=[44, 0]),\n",
       "   midi.NoteOnEvent(tick=6792, channel=9, data=[38, 0]),\n",
       "   midi.NoteOnEvent(tick=6792, channel=9, data=[42, 112]),\n",
       "   midi.NoteOnEvent(tick=6812, channel=9, data=[42, 0]),\n",
       "   midi.NoteOnEvent(tick=6816, channel=9, data=[38, 112]),\n",
       "   midi.NoteOnEvent(tick=6816, channel=9, data=[44, 125]),\n",
       "   midi.NoteOnEvent(tick=6820, channel=9, data=[49, 0]),\n",
       "   midi.NoteOnEvent(tick=6836, channel=9, data=[44, 0]),\n",
       "   midi.NoteOnEvent(tick=6840, channel=9, data=[42, 112]),\n",
       "   midi.NoteOnEvent(tick=6856, channel=9, data=[42, 0]),\n",
       "   midi.NoteOnEvent(tick=6864, channel=9, data=[42, 125]),\n",
       "   midi.NoteOnEvent(tick=6880, channel=9, data=[42, 0]),\n",
       "   midi.NoteOnEvent(tick=6880, channel=9, data=[36, 0]),\n",
       "   midi.NoteOnEvent(tick=6888, channel=9, data=[36, 88]),\n",
       "   midi.NoteOnEvent(tick=6888, channel=9, data=[42, 112]),\n",
       "   midi.NoteOnEvent(tick=6892, channel=9, data=[36, 0]),\n",
       "   midi.NoteOnEvent(tick=6900, channel=9, data=[42, 0]),\n",
       "   midi.NoteOnEvent(tick=6912, channel=9, data=[36, 112]),\n",
       "   midi.NoteOnEvent(tick=6912, channel=9, data=[42, 125]),\n",
       "   midi.NoteOnEvent(tick=6928, channel=9, data=[42, 0]),\n",
       "   midi.NoteOnEvent(tick=6936, channel=9, data=[42, 112]),\n",
       "   midi.NoteOnEvent(tick=6952, channel=9, data=[42, 0]),\n",
       "   midi.NoteOnEvent(tick=6960, channel=9, data=[42, 112]),\n",
       "   midi.NoteOnEvent(tick=6976, channel=9, data=[42, 0]),\n",
       "   midi.NoteOnEvent(tick=6980, channel=9, data=[38, 0]),\n",
       "   midi.NoteOnEvent(tick=6984, channel=9, data=[42, 100]),\n",
       "   midi.NoteOnEvent(tick=7008, channel=9, data=[42, 0]),\n",
       "   midi.NoteOnEvent(tick=7008, channel=9, data=[38, 125]),\n",
       "   midi.PitchWheelEvent(tick=7008, channel=9, data=[0, 58]),\n",
       "   midi.NoteOnEvent(tick=7008, channel=9, data=[46, 125]),\n",
       "   midi.PitchWheelEvent(tick=7008, channel=9, data=[0, 64]),\n",
       "   midi.NoteOnEvent(tick=7024, channel=9, data=[46, 0]),\n",
       "   midi.NoteOnEvent(tick=7028, channel=9, data=[36, 0]),\n",
       "   midi.NoteOnEvent(tick=7032, channel=9, data=[42, 100]),\n",
       "   midi.NoteOnEvent(tick=7048, channel=9, data=[42, 0]),\n",
       "   midi.NoteOnEvent(tick=7056, channel=9, data=[36, 125]),\n",
       "   midi.NoteOnEvent(tick=7056, channel=9, data=[42, 125]),\n",
       "   midi.NoteOnEvent(tick=7076, channel=9, data=[42, 0]),\n",
       "   midi.NoteOnEvent(tick=7080, channel=9, data=[42, 100]),\n",
       "   midi.NoteOnEvent(tick=7108, channel=9, data=[42, 0]),\n",
       "   midi.NoteOnEvent(tick=7128, channel=9, data=[42, 100]),\n",
       "   midi.NoteOnEvent(tick=7148, channel=9, data=[42, 0]),\n",
       "   midi.NoteOnEvent(tick=7152, channel=9, data=[44, 125]),\n",
       "   midi.NoteOnEvent(tick=7172, channel=9, data=[44, 0]),\n",
       "   midi.NoteOnEvent(tick=7176, channel=9, data=[38, 0]),\n",
       "   midi.NoteOnEvent(tick=7176, channel=9, data=[42, 112]),\n",
       "   midi.NoteOnEvent(tick=7196, channel=9, data=[42, 0]),\n",
       "   midi.NoteOnEvent(tick=7200, channel=9, data=[38, 125]),\n",
       "   midi.NoteOnEvent(tick=7200, channel=9, data=[44, 125]),\n",
       "   midi.NoteOnEvent(tick=7220, channel=9, data=[44, 0]),\n",
       "   midi.NoteOnEvent(tick=7224, channel=9, data=[42, 112]),\n",
       "   midi.NoteOnEvent(tick=7240, channel=9, data=[42, 0]),\n",
       "   midi.NoteOnEvent(tick=7248, channel=9, data=[42, 125]),\n",
       "   midi.NoteOnEvent(tick=7264, channel=9, data=[42, 0]),\n",
       "   midi.NoteOnEvent(tick=7264, channel=9, data=[36, 0]),\n",
       "   midi.NoteOnEvent(tick=7272, channel=9, data=[36, 88]),\n",
       "   midi.NoteOnEvent(tick=7272, channel=9, data=[42, 100]),\n",
       "   midi.NoteOnEvent(tick=7276, channel=9, data=[36, 0]),\n",
       "   midi.NoteOnEvent(tick=7284, channel=9, data=[42, 0]),\n",
       "   midi.NoteOnEvent(tick=7296, channel=9, data=[36, 112]),\n",
       "   midi.NoteOnEvent(tick=7296, channel=9, data=[42, 112]),\n",
       "   midi.NoteOnEvent(tick=7312, channel=9, data=[42, 0]),\n",
       "   midi.NoteOnEvent(tick=7320, channel=9, data=[42, 100]),\n",
       "   midi.NoteOnEvent(tick=7336, channel=9, data=[42, 0]),\n",
       "   midi.NoteOnEvent(tick=7344, channel=9, data=[42, 125]),\n",
       "   midi.NoteOnEvent(tick=7360, channel=9, data=[42, 0]),\n",
       "   midi.NoteOnEvent(tick=7368, channel=9, data=[38, 0]),\n",
       "   midi.NoteOnEvent(tick=7368, channel=9, data=[42, 100]),\n",
       "   midi.NoteOnEvent(tick=7384, channel=9, data=[42, 0]),\n",
       "   midi.NoteOnEvent(tick=7392, channel=9, data=[38, 125]),\n",
       "   midi.NoteOnEvent(tick=7392, channel=9, data=[44, 125]),\n",
       "   midi.NoteOnEvent(tick=7416, channel=9, data=[44, 0]),\n",
       "   midi.NoteOnEvent(tick=7416, channel=9, data=[36, 0]),\n",
       "   midi.NoteOnEvent(tick=7416, channel=9, data=[42, 112]),\n",
       "   midi.NoteOnEvent(tick=7432, channel=9, data=[42, 0]),\n",
       "   midi.NoteOnEvent(tick=7440, channel=9, data=[36, 125]),\n",
       "   midi.NoteOnEvent(tick=7440, channel=9, data=[42, 125]),\n",
       "   midi.NoteOnEvent(tick=7460, channel=9, data=[42, 0]),\n",
       "   midi.NoteOnEvent(tick=7464, channel=9, data=[42, 112]),\n",
       "   midi.PitchWheelEvent(tick=7464, channel=9, data=[0, 63]),\n",
       "   midi.PitchWheelEvent(tick=7464, channel=9, data=[0, 64]),\n",
       "   midi.NoteOnEvent(tick=7504, channel=9, data=[42, 0]),\n",
       "   midi.NoteOnEvent(tick=7512, channel=9, data=[42, 100]),\n",
       "   midi.NoteOnEvent(tick=7528, channel=9, data=[42, 0]),\n",
       "   midi.NoteOnEvent(tick=7536, channel=9, data=[46, 125]),\n",
       "   midi.NoteOnEvent(tick=7556, channel=9, data=[46, 0]),\n",
       "   midi.NoteOnEvent(tick=7560, channel=9, data=[38, 0]),\n",
       "   midi.NoteOnEvent(tick=7560, channel=9, data=[42, 100]),\n",
       "   midi.NoteOnEvent(tick=7576, channel=9, data=[42, 0]),\n",
       "   midi.NoteOnEvent(tick=7584, channel=9, data=[38, 125]),\n",
       "   midi.NoteOnEvent(tick=7584, channel=9, data=[46, 125]),\n",
       "   midi.NoteOnEvent(tick=7604, channel=9, data=[46, 0]),\n",
       "   midi.NoteOnEvent(tick=7608, channel=9, data=[42, 112]),\n",
       "   midi.NoteOnEvent(tick=7624, channel=9, data=[42, 0]),\n",
       "   midi.NoteOnEvent(tick=7632, channel=9, data=[42, 125]),\n",
       "   midi.NoteOnEvent(tick=7644, channel=9, data=[36, 0]),\n",
       "   midi.NoteOnEvent(tick=7652, channel=9, data=[42, 0]),\n",
       "   midi.NoteOnEvent(tick=7656, channel=9, data=[36, 88]),\n",
       "   midi.NoteOnEvent(tick=7656, channel=9, data=[42, 100]),\n",
       "   midi.NoteOnEvent(tick=7660, channel=9, data=[36, 0]),\n",
       "   midi.NoteOnEvent(tick=7664, channel=9, data=[42, 0]),\n",
       "   midi.NoteOnEvent(tick=7680, channel=9, data=[36, 112]),\n",
       "   midi.NoteOnEvent(tick=7680, channel=9, data=[42, 125]),\n",
       "   midi.NoteOnEvent(tick=7700, channel=9, data=[42, 0]),\n",
       "   midi.NoteOnEvent(tick=7704, channel=9, data=[42, 77]),\n",
       "   midi.NoteOnEvent(tick=7716, channel=9, data=[42, 0]),\n",
       "   midi.NoteOnEvent(tick=7728, channel=9, data=[42, 112]),\n",
       "   midi.NoteOnEvent(tick=7748, channel=9, data=[42, 0]),\n",
       "   midi.NoteOnEvent(tick=7748, channel=9, data=[38, 0]),\n",
       "   midi.NoteOnEvent(tick=7752, channel=9, data=[42, 88]),\n",
       "   midi.NoteOnEvent(tick=7772, channel=9, data=[42, 0]),\n",
       "   midi.NoteOnEvent(tick=7776, channel=9, data=[38, 125]),\n",
       "   midi.NoteOnEvent(tick=7776, channel=9, data=[44, 112]),\n",
       "   midi.NoteOnEvent(tick=7800, channel=9, data=[44, 0]),\n",
       "   midi.NoteOnEvent(tick=7800, channel=9, data=[42, 115]),\n",
       "   midi.NoteOnEvent(tick=7804, channel=9, data=[36, 0]),\n",
       "   midi.NoteOnEvent(tick=7812, channel=9, data=[42, 0]),\n",
       "   midi.NoteOnEvent(tick=7824, channel=9, data=[36, 125]),\n",
       "   midi.NoteOnEvent(tick=7824, channel=9, data=[42, 125]),\n",
       "   midi.NoteOnEvent(tick=7840, channel=9, data=[42, 0]),\n",
       "   midi.NoteOnEvent(tick=7848, channel=9, data=[42, 88]),\n",
       "   midi.NoteOnEvent(tick=7860, channel=9, data=[42, 0]),\n",
       "   midi.NoteOnEvent(tick=7872, channel=9, data=[42, 112]),\n",
       "   midi.NoteOnEvent(tick=7888, channel=9, data=[42, 0]),\n",
       "   midi.PitchWheelEvent(tick=7896, channel=9, data=[0, 59]),\n",
       "   midi.PitchWheelEvent(tick=7896, channel=9, data=[0, 64]),\n",
       "   midi.NoteOnEvent(tick=7896, channel=9, data=[42, 100]),\n",
       "   midi.NoteOnEvent(tick=7908, channel=9, data=[36, 0]),\n",
       "   midi.NoteOnEvent(tick=7912, channel=9, data=[42, 0]),\n",
       "   midi.NoteOnEvent(tick=7920, channel=9, data=[36, 125]),\n",
       "   midi.NoteOnEvent(tick=7920, channel=9, data=[44, 112]),\n",
       "   midi.NoteOnEvent(tick=7940, channel=9, data=[44, 0]),\n",
       "   midi.NoteOnEvent(tick=7940, channel=9, data=[38, 0]),\n",
       "   midi.NoteOnEvent(tick=7944, channel=9, data=[42, 100]),\n",
       "   midi.NoteOnEvent(tick=7956, channel=9, data=[42, 0]),\n",
       "   midi.NoteOnEvent(tick=7968, channel=9, data=[38, 125]),\n",
       "   midi.NoteOnEvent(tick=7968, channel=9, data=[42, 112]),\n",
       "   midi.NoteOnEvent(tick=7988, channel=9, data=[42, 0]),\n",
       "   midi.NoteOnEvent(tick=7992, channel=9, data=[42, 112]),\n",
       "   midi.NoteOnEvent(tick=8008, channel=9, data=[42, 0]),\n",
       "   midi.NoteOnEvent(tick=8016, channel=9, data=[44, 127]),\n",
       "   midi.NoteOnEvent(tick=8024, channel=9, data=[44, 0]),\n",
       "   midi.NoteOnEvent(tick=8024, channel=9, data=[36, 0]),\n",
       "   midi.NoteOnEvent(tick=8040, channel=9, data=[36, 100]),\n",
       "   midi.NoteOnEvent(tick=8040, channel=9, data=[44, 112]),\n",
       "   midi.NoteOnEvent(tick=8044, channel=9, data=[36, 0]),\n",
       "   midi.NoteOnEvent(tick=8048, channel=9, data=[44, 0]),\n",
       "   midi.NoteOnEvent(tick=8064, channel=9, data=[36, 125]),\n",
       "   midi.NoteOnEvent(tick=8064, channel=9, data=[42, 125]),\n",
       "   midi.NoteOnEvent(tick=8064, channel=9, data=[49, 125]),\n",
       "   midi.NoteOnEvent(tick=8084, channel=9, data=[42, 0]),\n",
       "   midi.NoteOnEvent(tick=8088, channel=9, data=[42, 100]),\n",
       "   midi.NoteOnEvent(tick=8104, channel=9, data=[42, 0]),\n",
       "   midi.PitchWheelEvent(tick=8112, channel=9, data=[0, 59]),\n",
       "   midi.NoteOnEvent(tick=8112, channel=9, data=[42, 112]),\n",
       "   midi.NoteOnEvent(tick=8124, channel=9, data=[42, 0]),\n",
       "   midi.NoteOnEvent(tick=8132, channel=9, data=[38, 0]),\n",
       "   midi.NoteOnEvent(tick=8136, channel=9, data=[42, 100]),\n",
       "   midi.NoteOnEvent(tick=8148, channel=9, data=[42, 0]),\n",
       "   midi.PitchWheelEvent(tick=8160, channel=9, data=[0, 64]),\n",
       "   midi.NoteOnEvent(tick=8160, channel=9, data=[38, 110]),\n",
       "   midi.NoteOnEvent(tick=8160, channel=9, data=[44, 125]),\n",
       "   midi.NoteOnEvent(tick=8180, channel=9, data=[49, 0]),\n",
       "   midi.NoteOnEvent(tick=8184, channel=9, data=[44, 0]),\n",
       "   midi.NoteOnEvent(tick=8184, channel=9, data=[42, 100]),\n",
       "   midi.NoteOnEvent(tick=8188, channel=9, data=[36, 0]),\n",
       "   midi.NoteOnEvent(tick=8192, channel=9, data=[42, 0]),\n",
       "   midi.NoteOnEvent(tick=8208, channel=9, data=[36, 112]),\n",
       "   midi.NoteOnEvent(tick=8208, channel=9, data=[42, 125]),\n",
       "   midi.NoteOnEvent(tick=8208, channel=9, data=[57, 112]),\n",
       "   midi.NoteOnEvent(tick=8228, channel=9, data=[42, 0]),\n",
       "   midi.NoteOnEvent(tick=8232, channel=9, data=[42, 88]),\n",
       "   midi.NoteOnEvent(tick=8252, channel=9, data=[42, 0]),\n",
       "   midi.NoteOnEvent(tick=8256, channel=9, data=[42, 112]),\n",
       "   midi.PitchWheelEvent(tick=8256, channel=9, data=[0, 60]),\n",
       "   midi.NoteOnEvent(tick=8272, channel=9, data=[42, 0]),\n",
       "   midi.PitchWheelEvent(tick=8280, channel=9, data=[0, 64]),\n",
       "   midi.NoteOnEvent(tick=8280, channel=9, data=[42, 112]),\n",
       "   midi.PitchWheelEvent(tick=8280, channel=9, data=[0, 60]),\n",
       "   midi.PitchWheelEvent(tick=8280, channel=9, data=[0, 64]),\n",
       "   midi.NoteOnEvent(tick=8300, channel=9, data=[42, 0]),\n",
       "   midi.NoteOnEvent(tick=8304, channel=9, data=[46, 125]),\n",
       "   midi.NoteOnEvent(tick=8320, channel=9, data=[38, 0]),\n",
       "   midi.NoteOnEvent(tick=8328, channel=9, data=[46, 0]),\n",
       "   midi.NoteOnEvent(tick=8328, channel=9, data=[42, 100]),\n",
       "   midi.NoteOnEvent(tick=8344, channel=9, data=[42, 0]),\n",
       "   midi.NoteOnEvent(tick=8352, channel=9, data=[38, 125]),\n",
       "   midi.NoteOnEvent(tick=8352, channel=9, data=[46, 112]),\n",
       "   midi.NoteOnEvent(tick=8376, channel=9, data=[46, 0]),\n",
       "   midi.NoteOnEvent(tick=8376, channel=9, data=[42, 112]),\n",
       "   midi.NoteOnEvent(tick=8392, channel=9, data=[42, 0]),\n",
       "   midi.NoteOnEvent(tick=8400, channel=9, data=[42, 112]),\n",
       "   midi.NoteOnEvent(tick=8408, channel=9, data=[36, 0]),\n",
       "   midi.NoteOnEvent(tick=8416, channel=9, data=[42, 0]),\n",
       "   midi.NoteOnEvent(tick=8424, channel=9, data=[36, 88]),\n",
       "   midi.NoteOnEvent(tick=8424, channel=9, data=[42, 100]),\n",
       "   midi.NoteOnEvent(tick=8428, channel=9, data=[36, 0]),\n",
       "   midi.NoteOnEvent(tick=8432, channel=9, data=[57, 0]),\n",
       "   midi.NoteOnEvent(tick=8436, channel=9, data=[42, 0]),\n",
       "   midi.NoteOnEvent(tick=8448, channel=9, data=[36, 112]),\n",
       "   midi.NoteOnEvent(tick=8448, channel=9, data=[42, 112]),\n",
       "   midi.NoteOnEvent(tick=8468, channel=9, data=[42, 0]),\n",
       "   midi.NoteOnEvent(tick=8472, channel=9, data=[42, 100]),\n",
       "   midi.NoteOnEvent(tick=8480, channel=9, data=[42, 0]),\n",
       "   midi.PitchWheelEvent(tick=8496, channel=9, data=[0, 60]),\n",
       "   midi.NoteOnEvent(tick=8496, channel=9, data=[42, 112]),\n",
       "   midi.NoteOnEvent(tick=8512, channel=9, data=[42, 0]),\n",
       "   midi.NoteOnEvent(tick=8520, channel=9, data=[38, 0]),\n",
       "   midi.PitchWheelEvent(tick=8520, channel=9, data=[0, 64]),\n",
       "   midi.PitchWheelEvent(tick=8520, channel=9, data=[0, 60]),\n",
       "   midi.PitchWheelEvent(tick=8520, channel=9, data=[0, 63]),\n",
       "   midi.PitchWheelEvent(tick=8520, channel=9, data=[0, 64]),\n",
       "   midi.NoteOnEvent(tick=8520, channel=9, data=[42, 100]),\n",
       "   midi.NoteOnEvent(tick=8528, channel=9, data=[42, 0]),\n",
       "   midi.NoteOnEvent(tick=8544, channel=9, data=[38, 125]),\n",
       "   midi.NoteOnEvent(tick=8544, channel=9, data=[44, 125]),\n",
       "   midi.PitchWheelEvent(tick=8544, channel=9, data=[0, 60]),\n",
       "   midi.NoteOnEvent(tick=8568, channel=9, data=[44, 0]),\n",
       "   midi.PitchWheelEvent(tick=8568, channel=9, data=[0, 64]),\n",
       "   midi.NoteOnEvent(tick=8568, channel=9, data=[42, 100]),\n",
       "   midi.NoteOnEvent(tick=8572, channel=9, data=[36, 0]),\n",
       "   midi.NoteOnEvent(tick=8576, channel=9, data=[42, 0]),\n",
       "   midi.NoteOnEvent(tick=8592, channel=9, data=[36, 112]),\n",
       "   midi.NoteOnEvent(tick=8592, channel=9, data=[42, 125]),\n",
       "   midi.NoteOnEvent(tick=8612, channel=9, data=[42, 0]),\n",
       "   midi.NoteOnEvent(tick=8616, channel=9, data=[42, 77]),\n",
       "   midi.PitchWheelEvent(tick=8616, channel=9, data=[0, 60]),\n",
       "   midi.PitchWheelEvent(tick=8616, channel=9, data=[0, 64]),\n",
       "   midi.NoteOnEvent(tick=8624, channel=9, data=[42, 0]),\n",
       "   midi.NoteOnEvent(tick=8640, channel=9, data=[42, 100]),\n",
       "   midi.NoteOnEvent(tick=8656, channel=9, data=[42, 0]),\n",
       "   midi.NoteOnEvent(tick=8660, channel=9, data=[36, 0]),\n",
       "   midi.NoteOnEvent(tick=8664, channel=9, data=[42, 100]),\n",
       "   midi.PitchWheelEvent(tick=8664, channel=9, data=[0, 63]),\n",
       "   midi.PitchWheelEvent(tick=8664, channel=9, data=[0, 64]),\n",
       "   midi.NoteOnEvent(tick=8676, channel=9, data=[42, 0]),\n",
       "   midi.NoteOnEvent(tick=8688, channel=9, data=[36, 112]),\n",
       "   midi.NoteOnEvent(tick=8688, channel=9, data=[42, 125]),\n",
       "   midi.NoteOnEvent(tick=8708, channel=9, data=[42, 0]),\n",
       "   midi.NoteOnEvent(tick=8712, channel=9, data=[38, 0]),\n",
       "   midi.NoteOnEvent(tick=8712, channel=9, data=[42, 100]),\n",
       "   midi.NoteOnEvent(tick=8732, channel=9, data=[42, 0]),\n",
       "   midi.NoteOnEvent(tick=8736, channel=9, data=[38, 125]),\n",
       "   midi.NoteOnEvent(tick=8736, channel=9, data=[44, 112]),\n",
       "   midi.NoteOnEvent(tick=8756, channel=9, data=[44, 0]),\n",
       "   midi.NoteOnEvent(tick=8760, channel=9, data=[42, 112]),\n",
       "   midi.NoteOnEvent(tick=8780, channel=9, data=[42, 0]),\n",
       "   midi.PitchWheelEvent(tick=8784, channel=9, data=[0, 61]),\n",
       "   midi.PitchWheelEvent(tick=8784, channel=9, data=[0, 64]),\n",
       "   midi.NoteOnEvent(tick=8784, channel=9, data=[46, 125]),\n",
       "   midi.NoteOnEvent(tick=8788, channel=9, data=[36, 0]),\n",
       "   midi.NoteOnEvent(tick=8808, channel=9, data=[46, 0]),\n",
       "   midi.NoteOnEvent(tick=8808, channel=9, data=[36, 112]),\n",
       "   midi.PitchWheelEvent(tick=8808, channel=9, data=[0, 59]),\n",
       "   midi.NoteOnEvent(tick=8808, channel=9, data=[42, 112]),\n",
       "   midi.NoteOnEvent(tick=8812, channel=9, data=[36, 0]),\n",
       "   midi.NoteOnEvent(tick=8824, channel=9, data=[42, 0]),\n",
       "   midi.PitchWheelEvent(tick=8832, channel=9, data=[0, 64]),\n",
       "   midi.NoteOnEvent(tick=8832, channel=9, data=[36, 125]),\n",
       "   midi.NoteOnEvent(tick=8832, channel=9, data=[42, 125]),\n",
       "   midi.NoteOnEvent(tick=8832, channel=9, data=[49, 125]),\n",
       "   midi.NoteOnEvent(tick=8852, channel=9, data=[42, 0]),\n",
       "   midi.NoteOnEvent(tick=8856, channel=9, data=[42, 100]),\n",
       "   midi.NoteOnEvent(tick=8876, channel=9, data=[42, 0]),\n",
       "   midi.NoteOnEvent(tick=8880, channel=9, data=[42, 125]),\n",
       "   midi.NoteOnEvent(tick=8900, channel=9, data=[42, 0]),\n",
       "   midi.NoteOnEvent(tick=8904, channel=9, data=[38, 0]),\n",
       "   midi.NoteOnEvent(tick=8904, channel=9, data=[42, 112]),\n",
       "   midi.NoteOnEvent(tick=8924, channel=9, data=[42, 0]),\n",
       "   midi.NoteOnEvent(tick=8928, channel=9, data=[38, 125]),\n",
       "   midi.NoteOnEvent(tick=8928, channel=9, data=[44, 125]),\n",
       "   midi.NoteOnEvent(tick=8944, channel=9, data=[49, 0]),\n",
       "   midi.NoteOnEvent(tick=8952, channel=9, data=[36, 0]),\n",
       "   midi.NoteOnEvent(tick=8952, channel=9, data=[44, 0]),\n",
       "   midi.NoteOnEvent(tick=8952, channel=9, data=[42, 112]),\n",
       "   midi.NoteOnEvent(tick=8968, channel=9, data=[42, 0]),\n",
       "   midi.NoteOnEvent(tick=8976, channel=9, data=[36, 112]),\n",
       "   midi.NoteOnEvent(tick=8976, channel=9, data=[42, 112]),\n",
       "   midi.NoteOnEvent(tick=8976, channel=9, data=[57, 125]),\n",
       "   midi.NoteOnEvent(tick=8996, channel=9, data=[42, 0]),\n",
       "   midi.NoteOnEvent(tick=9000, channel=9, data=[42, 88]),\n",
       "   midi.NoteOnEvent(tick=9016, channel=9, data=[42, 0]),\n",
       "   midi.NoteOnEvent(tick=9024, channel=9, data=[42, 112]),\n",
       "   midi.NoteOnEvent(tick=9040, channel=9, data=[42, 0]),\n",
       "   midi.NoteOnEvent(tick=9048, channel=9, data=[42, 112]),\n",
       "   midi.NoteOnEvent(tick=9068, channel=9, data=[42, 0]),\n",
       "   midi.NoteOnEvent(tick=9072, channel=9, data=[46, 112]),\n",
       "   midi.NoteOnEvent(tick=9088, channel=9, data=[38, 0]),\n",
       "   midi.NoteOnEvent(tick=9096, channel=9, data=[46, 0]),\n",
       "   midi.NoteOnEvent(tick=9096, channel=9, data=[42, 100]),\n",
       "   midi.NoteOnEvent(tick=9116, channel=9, data=[42, 0]),\n",
       "   midi.NoteOnEvent(tick=9120, channel=9, data=[38, 125]),\n",
       "   midi.NoteOnEvent(tick=9120, channel=9, data=[46, 112]),\n",
       "   midi.NoteOnEvent(tick=9144, channel=9, data=[46, 0]),\n",
       "   midi.NoteOnEvent(tick=9144, channel=9, data=[42, 112]),\n",
       "   midi.NoteOnEvent(tick=9156, channel=9, data=[57, 0]),\n",
       "   midi.NoteOnEvent(tick=9160, channel=9, data=[42, 0]),\n",
       "   midi.NoteOnEvent(tick=9168, channel=9, data=[42, 112]),\n",
       "   midi.NoteOnEvent(tick=9176, channel=9, data=[36, 0]),\n",
       "   midi.NoteOnEvent(tick=9184, channel=9, data=[42, 0]),\n",
       "   midi.NoteOnEvent(tick=9192, channel=9, data=[36, 77]),\n",
       "   midi.NoteOnEvent(tick=9192, channel=9, data=[42, 100]),\n",
       "   midi.PitchWheelEvent(tick=9192, channel=9, data=[0, 60]),\n",
       "   midi.PitchWheelEvent(tick=9192, channel=9, data=[0, 64]),\n",
       "   midi.NoteOnEvent(tick=9196, channel=9, data=[36, 0]),\n",
       "   midi.NoteOnEvent(tick=9204, channel=9, data=[42, 0]),\n",
       "   midi.NoteOnEvent(tick=9216, channel=9, data=[36, 125]),\n",
       "   midi.NoteOnEvent(tick=9216, channel=9, data=[42, 125]),\n",
       "   midi.NoteOnEvent(tick=9236, channel=9, data=[42, 0]),\n",
       "   midi.NoteOnEvent(tick=9240, channel=9, data=[42, 100]),\n",
       "   midi.NoteOnEvent(tick=9260, channel=9, data=[42, 0]),\n",
       "   midi.NoteOnEvent(tick=9264, channel=9, data=[42, 112]),\n",
       "   midi.NoteOnEvent(tick=9280, channel=9, data=[42, 0]),\n",
       "   midi.NoteOnEvent(tick=9284, channel=9, data=[38, 0]),\n",
       "   midi.NoteOnEvent(tick=9288, channel=9, data=[42, 100]),\n",
       "   midi.NoteOnEvent(tick=9304, channel=9, data=[42, 0]),\n",
       "   midi.NoteOnEvent(tick=9312, channel=9, data=[38, 125]),\n",
       "   midi.NoteOnEvent(tick=9312, channel=9, data=[44, 125]),\n",
       "   midi.NoteOnEvent(tick=9332, channel=9, data=[36, 0]),\n",
       "   midi.NoteOnEvent(tick=9336, channel=9, data=[44, 0]),\n",
       "   midi.NoteOnEvent(tick=9336, channel=9, data=[42, 112]),\n",
       "   midi.NoteOnEvent(tick=9348, channel=9, data=[42, 0]),\n",
       "   midi.NoteOnEvent(tick=9360, channel=9, data=[36, 125]),\n",
       "   midi.NoteOnEvent(tick=9360, channel=9, data=[42, 125]),\n",
       "   midi.NoteOnEvent(tick=9376, channel=9, data=[42, 0]),\n",
       "   midi.NoteOnEvent(tick=9384, channel=9, data=[42, 100]),\n",
       "   midi.NoteOnEvent(tick=9400, channel=9, data=[42, 0]),\n",
       "   midi.NoteOnEvent(tick=9408, channel=9, data=[42, 125]),\n",
       "   midi.NoteOnEvent(tick=9420, channel=9, data=[36, 0]),\n",
       "   midi.NoteOnEvent(tick=9428, channel=9, data=[42, 0]),\n",
       "   midi.NoteOnEvent(tick=9432, channel=9, data=[42, 100]),\n",
       "   midi.NoteOnEvent(tick=9452, channel=9, data=[42, 0]),\n",
       "   midi.NoteOnEvent(tick=9456, channel=9, data=[36, 112]),\n",
       "   midi.NoteOnEvent(tick=9456, channel=9, data=[44, 125]),\n",
       "   midi.PitchWheelEvent(tick=9456, channel=9, data=[0, 60]),\n",
       "   midi.PitchWheelEvent(tick=9456, channel=9, data=[0, 64]),\n",
       "   midi.NoteOnEvent(tick=9472, channel=9, data=[38, 0]),\n",
       "   midi.NoteOnEvent(tick=9476, channel=9, data=[44, 0]),\n",
       "   midi.NoteOnEvent(tick=9480, channel=9, data=[42, 100]),\n",
       "   midi.NoteOnEvent(tick=9500, channel=9, data=[42, 0]),\n",
       "   midi.NoteOnEvent(tick=9504, channel=9, data=[38, 125]),\n",
       "   midi.NoteOnEvent(tick=9504, channel=9, data=[44, 125]),\n",
       "   midi.NoteOnEvent(tick=9524, channel=9, data=[44, 0]),\n",
       "   midi.NoteOnEvent(tick=9528, channel=9, data=[42, 100]),\n",
       "   midi.NoteOnEvent(tick=9540, channel=9, data=[36, 0]),\n",
       "   midi.NoteOnEvent(tick=9548, channel=9, data=[42, 0]),\n",
       "   midi.NoteOnEvent(tick=9552, channel=9, data=[36, 77]),\n",
       "   midi.NoteOnEvent(tick=9552, channel=9, data=[44, 125]),\n",
       "   midi.NoteOnEvent(tick=9556, channel=9, data=[36, 0]),\n",
       "   midi.NoteOnEvent(tick=9576, channel=9, data=[44, 0]),\n",
       "   midi.NoteOnEvent(tick=9576, channel=9, data=[36, 112]),\n",
       "   midi.NoteOnEvent(tick=9576, channel=9, data=[42, 112]),\n",
       "   midi.NoteOnEvent(tick=9584, channel=9, data=[42, 0]),\n",
       "   midi.NoteOnEvent(tick=9584, channel=9, data=[36, 0]),\n",
       "   midi.NoteOnEvent(tick=9600, channel=9, data=[42, 112]),\n",
       "   midi.NoteOnEvent(tick=9600, channel=9, data=[57, 100]),\n",
       "   midi.NoteOnEvent(tick=9600, channel=9, data=[49, 100]),\n",
       "   midi.NoteOnEvent(tick=9600, channel=9, data=[36, 112]),\n",
       "   midi.NoteOnEvent(tick=9632, channel=9, data=[38, 0]),\n",
       "   midi.NoteOnEvent(tick=9656, channel=9, data=[42, 0]),\n",
       "   midi.NoteOnEvent(tick=9696, channel=9, data=[42, 112]),\n",
       "   midi.NoteOnEvent(tick=9756, channel=9, data=[36, 0]),\n",
       "   midi.NoteOnEvent(tick=9760, channel=9, data=[49, 0]),\n",
       "   midi.NoteOnEvent(tick=9760, channel=9, data=[57, 0]),\n",
       "   midi.NoteOnEvent(tick=9764, channel=9, data=[42, 0]),\n",
       "   midi.NoteOnEvent(tick=9792, channel=9, data=[42, 112]),\n",
       "   midi.NoteOnEvent(tick=9848, channel=9, data=[42, 0]),\n",
       "   midi.NoteOnEvent(tick=9888, channel=9, data=[42, 112]),\n",
       "   midi.NoteOnEvent(tick=9888, channel=9, data=[42, 112]),\n",
       "   midi.NoteOnEvent(tick=9889, channel=9, data=[42, 0]),\n",
       "   midi.NoteOnEvent(tick=9960, channel=9, data=[42, 0]),\n",
       "   midi.NoteOnEvent(tick=9984, channel=9, data=[42, 112]),\n",
       "   midi.NoteOnEvent(tick=9984, channel=9, data=[42, 112]),\n",
       "   midi.NoteOnEvent(tick=9985, channel=9, data=[42, 0]),\n",
       "   midi.NoteOnEvent(tick=10052, channel=9, data=[42, 0]),\n",
       "   midi.NoteOnEvent(tick=10080, channel=9, data=[42, 112]),\n",
       "   midi.NoteOnEvent(tick=10148, channel=9, data=[42, 0]),\n",
       "   midi.NoteOnEvent(tick=10176, channel=9, data=[42, 125]),\n",
       "   midi.NoteOnEvent(tick=10244, channel=9, data=[42, 0]),\n",
       "   midi.NoteOnEvent(tick=10272, channel=9, data=[42, 112]),\n",
       "   midi.NoteOnEvent(tick=10344, channel=9, data=[42, 0]),\n",
       "   midi.NoteOnEvent(tick=10368, channel=9, data=[42, 112]),\n",
       "   midi.NoteOnEvent(tick=10432, channel=9, data=[42, 0]),\n",
       "   midi.NoteOnEvent(tick=10464, channel=9, data=[42, 112]),\n",
       "   midi.NoteOnEvent(tick=10532, channel=9, data=[42, 0]),\n",
       "   midi.NoteOnEvent(tick=10560, channel=9, data=[42, 112]),\n",
       "   midi.NoteOnEvent(tick=10624, channel=9, data=[42, 0]),\n",
       "   midi.NoteOnEvent(tick=10656, channel=9, data=[42, 112]),\n",
       "   midi.NoteOnEvent(tick=10720, channel=9, data=[42, 0]),\n",
       "   midi.NoteOnEvent(tick=10752, channel=9, data=[42, 125]),\n",
       "   midi.NoteOnEvent(tick=10824, channel=9, data=[42, 0]),\n",
       "   midi.NoteOnEvent(tick=10848, channel=9, data=[42, 112]),\n",
       "   midi.NoteOnEvent(tick=10916, channel=9, data=[42, 0]),\n",
       "   midi.NoteOnEvent(tick=10944, channel=9, data=[42, 112]),\n",
       "   midi.NoteOnEvent(tick=11008, channel=9, data=[42, 0]),\n",
       "   midi.NoteOnEvent(tick=11040, channel=9, data=[42, 112]),\n",
       "   midi.NoteOnEvent(tick=11104, channel=9, data=[42, 0]),\n",
       "   midi.NoteOnEvent(tick=11136, channel=9, data=[42, 112]),\n",
       "   midi.PitchWheelEvent(tick=11184, channel=9, data=[0, 60]),\n",
       "   midi.PitchWheelEvent(tick=11184, channel=9, data=[0, 64]),\n",
       "   midi.NoteOnEvent(tick=11196, channel=9, data=[42, 0]),\n",
       "   midi.NoteOnEvent(tick=11232, channel=9, data=[42, 112]),\n",
       "   midi.NoteOnEvent(tick=11296, channel=9, data=[42, 0]),\n",
       "   midi.NoteOnEvent(tick=11328, channel=9, data=[42, 112]),\n",
       "   midi.NoteOnEvent(tick=11388, channel=9, data=[42, 0]),\n",
       "   midi.NoteOnEvent(tick=11424, channel=9, data=[42, 112]),\n",
       "   midi.NoteOnEvent(tick=11492, channel=9, data=[42, 0]),\n",
       "   midi.NoteOnEvent(tick=11520, channel=9, data=[42, 112]),\n",
       "   midi.NoteOnEvent(tick=11588, channel=9, data=[42, 0]),\n",
       "   midi.NoteOnEvent(tick=11616, channel=9, data=[42, 125]),\n",
       "   midi.NoteOnEvent(tick=11680, channel=9, data=[42, 0]),\n",
       "   midi.NoteOnEvent(tick=11712, channel=9, data=[42, 125]),\n",
       "   midi.NoteOnEvent(tick=11772, channel=9, data=[42, 0]),\n",
       "   midi.NoteOnEvent(tick=11808, channel=9, data=[42, 112]),\n",
       "   midi.NoteOnEvent(tick=11872, channel=9, data=[42, 0]),\n",
       "   midi.NoteOnEvent(tick=11904, channel=9, data=[42, 125]),\n",
       "   midi.NoteOnEvent(tick=11964, channel=9, data=[42, 0]),\n",
       "   midi.NoteOnEvent(tick=12000, channel=9, data=[42, 112]),\n",
       "   midi.NoteOnEvent(tick=12068, channel=9, data=[42, 0]),\n",
       "   midi.NoteOnEvent(tick=12096, channel=9, data=[42, 112]),\n",
       "   midi.NoteOnEvent(tick=12152, channel=9, data=[42, 0]),\n",
       "   midi.NoteOnEvent(tick=12192, channel=9, data=[42, 125]),\n",
       "   midi.NoteOnEvent(tick=12260, channel=9, data=[42, 0]),\n",
       "   midi.NoteOnEvent(tick=12288, channel=9, data=[42, 125]),\n",
       "   midi.NoteOnEvent(tick=12352, channel=9, data=[42, 0]),\n",
       "   midi.NoteOnEvent(tick=12384, channel=9, data=[42, 112]),\n",
       "   midi.PitchWheelEvent(tick=12384, channel=9, data=[0, 61]),\n",
       "   midi.PitchWheelEvent(tick=12384, channel=9, data=[0, 64]),\n",
       "   midi.NoteOnEvent(tick=12440, channel=9, data=[42, 0]),\n",
       "   midi.NoteOnEvent(tick=12480, channel=9, data=[42, 112]),\n",
       "   midi.NoteOnEvent(tick=12528, channel=9, data=[42, 0]),\n",
       "   midi.NoteOnEvent(tick=12528, channel=9, data=[48, 112]),\n",
       "   midi.NoteOnEvent(tick=12548, channel=9, data=[48, 0]),\n",
       "   midi.NoteOnEvent(tick=12576, channel=9, data=[45, 112]),\n",
       "   midi.NoteOnEvent(tick=12576, channel=9, data=[47, 125]),\n",
       "   midi.NoteOnEvent(tick=12577, channel=9, data=[47, 0]),\n",
       "   midi.NoteOnEvent(tick=12588, channel=9, data=[45, 0]),\n",
       "   midi.NoteOnEvent(tick=12600, channel=9, data=[45, 125]),\n",
       "   midi.NoteOnEvent(tick=12612, channel=9, data=[45, 0]),\n",
       "   midi.NoteOnEvent(tick=12624, channel=9, data=[43, 125]),\n",
       "   midi.NoteOnEvent(tick=12652, channel=9, data=[43, 0]),\n",
       "   midi.NoteOnEvent(tick=12672, channel=9, data=[36, 125]),\n",
       "   midi.NoteOnEvent(tick=12672, channel=9, data=[42, 125]),\n",
       "   midi.NoteOnEvent(tick=12672, channel=9, data=[49, 125]),\n",
       "   midi.NoteOnEvent(tick=12688, channel=9, data=[42, 0]),\n",
       "   midi.NoteOnEvent(tick=12696, channel=9, data=[42, 88]),\n",
       "   midi.NoteOnEvent(tick=12712, channel=9, data=[42, 0]),\n",
       "   midi.NoteOnEvent(tick=12720, channel=9, data=[42, 112]),\n",
       "   midi.NoteOnEvent(tick=12736, channel=9, data=[42, 0]),\n",
       "   midi.NoteOnEvent(tick=12744, channel=9, data=[42, 112]),\n",
       "   midi.NoteOnEvent(tick=12760, channel=9, data=[42, 0]),\n",
       "   midi.NoteOnEvent(tick=12768, channel=9, data=[38, 125]),\n",
       "   midi.NoteOnEvent(tick=12768, channel=9, data=[46, 125]),\n",
       "   midi.NoteOnEvent(tick=12784, channel=9, data=[36, 0]),\n",
       "   midi.NoteOnEvent(tick=12788, channel=9, data=[46, 0]),\n",
       "   midi.NoteOnEvent(tick=12792, channel=9, data=[42, 112]),\n",
       "   midi.NoteOnEvent(tick=12808, channel=9, data=[42, 0]),\n",
       "   midi.NoteOnEvent(tick=12816, channel=9, data=[36, 125]),\n",
       "   midi.NoteOnEvent(tick=12816, channel=9, data=[42, 125]),\n",
       "   midi.NoteOnEvent(tick=12832, channel=9, data=[42, 0]),\n",
       "   midi.NoteOnEvent(tick=12840, channel=9, data=[42, 100]),\n",
       "   midi.NoteOnEvent(tick=12856, channel=9, data=[42, 0]),\n",
       "   midi.PitchWheelEvent(tick=12864, channel=9, data=[0, 61]),\n",
       "   midi.PitchWheelEvent(tick=12864, channel=9, data=[0, 64]),\n",
       "   midi.NoteOnEvent(tick=12864, channel=9, data=[42, 77]),\n",
       "   midi.NoteOnEvent(tick=12872, channel=9, data=[42, 0]),\n",
       "   midi.NoteOnEvent(tick=12888, channel=9, data=[42, 100]),\n",
       "   midi.NoteOnEvent(tick=12904, channel=9, data=[42, 0]),\n",
       "   midi.NoteOnEvent(tick=12912, channel=9, data=[44, 112]),\n",
       "   midi.NoteOnEvent(tick=12932, channel=9, data=[44, 0]),\n",
       "   midi.NoteOnEvent(tick=12936, channel=9, data=[38, 0]),\n",
       "   midi.NoteOnEvent(tick=12936, channel=9, data=[42, 112]),\n",
       "   midi.NoteOnEvent(tick=12956, channel=9, data=[42, 0]),\n",
       "   midi.NoteOnEvent(tick=12960, channel=9, data=[38, 112]),\n",
       "   midi.NoteOnEvent(tick=12960, channel=9, data=[44, 125]),\n",
       "   midi.NoteOnEvent(tick=12964, channel=9, data=[49, 0]),\n",
       "   midi.NoteOnEvent(tick=12980, channel=9, data=[44, 0]),\n",
       "   midi.NoteOnEvent(tick=12984, channel=9, data=[42, 112]),\n",
       "   midi.NoteOnEvent(tick=13000, channel=9, data=[42, 0]),\n",
       "   midi.NoteOnEvent(tick=13008, channel=9, data=[42, 125]),\n",
       "   midi.NoteOnEvent(tick=13024, channel=9, data=[42, 0]),\n",
       "   midi.NoteOnEvent(tick=13024, channel=9, data=[36, 0]),\n",
       "   midi.NoteOnEvent(tick=13032, channel=9, data=[36, 88]),\n",
       "   midi.NoteOnEvent(tick=13032, channel=9, data=[42, 112]),\n",
       "   midi.NoteOnEvent(tick=13036, channel=9, data=[36, 0]),\n",
       "   midi.NoteOnEvent(tick=13044, channel=9, data=[42, 0]),\n",
       "   midi.NoteOnEvent(tick=13056, channel=9, data=[36, 112]),\n",
       "   midi.NoteOnEvent(tick=13056, channel=9, data=[42, 125]),\n",
       "   midi.NoteOnEvent(tick=13072, channel=9, data=[42, 0]),\n",
       "   midi.NoteOnEvent(tick=13080, channel=9, data=[42, 112]),\n",
       "   midi.NoteOnEvent(tick=13096, channel=9, data=[42, 0]),\n",
       "   midi.NoteOnEvent(tick=13104, channel=9, data=[42, 112]),\n",
       "   midi.NoteOnEvent(tick=13120, channel=9, data=[42, 0]),\n",
       "   midi.NoteOnEvent(tick=13124, channel=9, data=[38, 0]),\n",
       "   midi.NoteOnEvent(tick=13128, channel=9, data=[42, 100]),\n",
       "   midi.NoteOnEvent(tick=13152, channel=9, data=[42, 0]),\n",
       "   midi.NoteOnEvent(tick=13152, channel=9, data=[38, 125]),\n",
       "   midi.PitchWheelEvent(tick=13152, channel=9, data=[0, 58]),\n",
       "   midi.NoteOnEvent(tick=13152, channel=9, data=[46, 125]),\n",
       "   midi.PitchWheelEvent(tick=13152, channel=9, data=[0, 64]),\n",
       "   midi.NoteOnEvent(tick=13168, channel=9, data=[46, 0]),\n",
       "   midi.NoteOnEvent(tick=13172, channel=9, data=[36, 0]),\n",
       "   midi.NoteOnEvent(tick=13176, channel=9, data=[42, 100]),\n",
       "   midi.NoteOnEvent(tick=13192, channel=9, data=[42, 0]),\n",
       "   midi.NoteOnEvent(tick=13200, channel=9, data=[36, 125]),\n",
       "   midi.NoteOnEvent(tick=13200, channel=9, data=[42, 125]),\n",
       "   midi.NoteOnEvent(tick=13220, channel=9, data=[42, 0]),\n",
       "   midi.NoteOnEvent(tick=13224, channel=9, data=[42, 100]),\n",
       "   midi.NoteOnEvent(tick=13252, channel=9, data=[42, 0]),\n",
       "   midi.NoteOnEvent(tick=13272, channel=9, data=[42, 100]),\n",
       "   midi.NoteOnEvent(tick=13292, channel=9, data=[42, 0]),\n",
       "   midi.NoteOnEvent(tick=13296, channel=9, data=[44, 125]),\n",
       "   midi.NoteOnEvent(tick=13316, channel=9, data=[44, 0]),\n",
       "   midi.NoteOnEvent(tick=13320, channel=9, data=[38, 0]),\n",
       "   midi.NoteOnEvent(tick=13320, channel=9, data=[42, 112]),\n",
       "   midi.NoteOnEvent(tick=13340, channel=9, data=[42, 0]),\n",
       "   midi.NoteOnEvent(tick=13344, channel=9, data=[38, 125]),\n",
       "   midi.NoteOnEvent(tick=13344, channel=9, data=[44, 125]),\n",
       "   midi.NoteOnEvent(tick=13364, channel=9, data=[44, 0]),\n",
       "   midi.NoteOnEvent(tick=13368, channel=9, data=[42, 112]),\n",
       "   midi.NoteOnEvent(tick=13384, channel=9, data=[42, 0]),\n",
       "   midi.NoteOnEvent(tick=13392, channel=9, data=[42, 125]),\n",
       "   midi.NoteOnEvent(tick=13408, channel=9, data=[42, 0]),\n",
       "   midi.NoteOnEvent(tick=13408, channel=9, data=[36, 0]),\n",
       "   midi.NoteOnEvent(tick=13416, channel=9, data=[36, 88]),\n",
       "   midi.NoteOnEvent(tick=13416, channel=9, data=[42, 100]),\n",
       "   midi.NoteOnEvent(tick=13420, channel=9, data=[36, 0]),\n",
       "   midi.NoteOnEvent(tick=13428, channel=9, data=[42, 0]),\n",
       "   midi.NoteOnEvent(tick=13440, channel=9, data=[36, 112]),\n",
       "   midi.NoteOnEvent(tick=13440, channel=9, data=[42, 112]),\n",
       "   midi.NoteOnEvent(tick=13456, channel=9, data=[42, 0]),\n",
       "   midi.NoteOnEvent(tick=13464, channel=9, data=[42, 100]),\n",
       "   midi.NoteOnEvent(tick=13480, channel=9, data=[42, 0]),\n",
       "   midi.NoteOnEvent(tick=13488, channel=9, data=[42, 125]),\n",
       "   midi.NoteOnEvent(tick=13504, channel=9, data=[42, 0]),\n",
       "   midi.NoteOnEvent(tick=13512, channel=9, data=[38, 0]),\n",
       "   midi.NoteOnEvent(tick=13512, channel=9, data=[42, 100]),\n",
       "   midi.NoteOnEvent(tick=13528, channel=9, data=[42, 0]),\n",
       "   midi.NoteOnEvent(tick=13536, channel=9, data=[38, 125]),\n",
       "   midi.NoteOnEvent(tick=13536, channel=9, data=[44, 125]),\n",
       "   midi.NoteOnEvent(tick=13560, channel=9, data=[44, 0]),\n",
       "   midi.NoteOnEvent(tick=13560, channel=9, data=[36, 0]),\n",
       "   midi.NoteOnEvent(tick=13560, channel=9, data=[42, 112]),\n",
       "   midi.NoteOnEvent(tick=13576, channel=9, data=[42, 0]),\n",
       "   midi.NoteOnEvent(tick=13584, channel=9, data=[36, 125]),\n",
       "   midi.NoteOnEvent(tick=13584, channel=9, data=[42, 125]),\n",
       "   midi.NoteOnEvent(tick=13604, channel=9, data=[42, 0]),\n",
       "   midi.NoteOnEvent(tick=13608, channel=9, data=[42, 112]),\n",
       "   midi.PitchWheelEvent(tick=13608, channel=9, data=[0, 63]),\n",
       "   midi.PitchWheelEvent(tick=13608, channel=9, data=[0, 64]),\n",
       "   midi.NoteOnEvent(tick=13648, channel=9, data=[42, 0]),\n",
       "   midi.NoteOnEvent(tick=13656, channel=9, data=[42, 100]),\n",
       "   midi.NoteOnEvent(tick=13672, channel=9, data=[42, 0]),\n",
       "   midi.NoteOnEvent(tick=13680, channel=9, data=[46, 125]),\n",
       "   midi.NoteOnEvent(tick=13700, channel=9, data=[46, 0]),\n",
       "   midi.NoteOnEvent(tick=13704, channel=9, data=[38, 0]),\n",
       "   midi.NoteOnEvent(tick=13704, channel=9, data=[42, 100]),\n",
       "   midi.NoteOnEvent(tick=13720, channel=9, data=[42, 0]),\n",
       "   midi.NoteOnEvent(tick=13728, channel=9, data=[38, 125]),\n",
       "   midi.NoteOnEvent(tick=13728, channel=9, data=[46, 125]),\n",
       "   midi.NoteOnEvent(tick=13748, channel=9, data=[46, 0]),\n",
       "   midi.NoteOnEvent(tick=13752, channel=9, data=[42, 112]),\n",
       "   midi.NoteOnEvent(tick=13768, channel=9, data=[42, 0]),\n",
       "   midi.NoteOnEvent(tick=13776, channel=9, data=[42, 125]),\n",
       "   midi.NoteOnEvent(tick=13788, channel=9, data=[36, 0]),\n",
       "   midi.NoteOnEvent(tick=13796, channel=9, data=[42, 0]),\n",
       "   midi.NoteOnEvent(tick=13800, channel=9, data=[36, 88]),\n",
       "   midi.NoteOnEvent(tick=13800, channel=9, data=[42, 100]),\n",
       "   midi.NoteOnEvent(tick=13804, channel=9, data=[36, 0]),\n",
       "   midi.NoteOnEvent(tick=13808, channel=9, data=[42, 0]),\n",
       "   midi.NoteOnEvent(tick=13824, channel=9, data=[36, 112]),\n",
       "   midi.NoteOnEvent(tick=13824, channel=9, data=[42, 125]),\n",
       "   midi.NoteOnEvent(tick=13844, channel=9, data=[42, 0]),\n",
       "   midi.NoteOnEvent(tick=13848, channel=9, data=[42, 77]),\n",
       "   midi.NoteOnEvent(tick=13860, channel=9, data=[42, 0]),\n",
       "   midi.NoteOnEvent(tick=13872, channel=9, data=[42, 112]),\n",
       "   midi.NoteOnEvent(tick=13892, channel=9, data=[42, 0]),\n",
       "   midi.NoteOnEvent(tick=13892, channel=9, data=[38, 0]),\n",
       "   midi.NoteOnEvent(tick=13896, channel=9, data=[42, 88]),\n",
       "   midi.NoteOnEvent(tick=13916, channel=9, data=[42, 0]),\n",
       "   midi.NoteOnEvent(tick=13920, channel=9, data=[38, 125]),\n",
       "   midi.NoteOnEvent(tick=13920, channel=9, data=[44, 112]),\n",
       "   midi.NoteOnEvent(tick=13944, channel=9, data=[44, 0]),\n",
       "   midi.NoteOnEvent(tick=13944, channel=9, data=[42, 115]),\n",
       "   midi.NoteOnEvent(tick=13948, channel=9, data=[36, 0]),\n",
       "   midi.NoteOnEvent(tick=13956, channel=9, data=[42, 0]),\n",
       "   midi.NoteOnEvent(tick=13968, channel=9, data=[36, 125]),\n",
       "   midi.NoteOnEvent(tick=13968, channel=9, data=[42, 125]),\n",
       "   midi.NoteOnEvent(tick=13984, channel=9, data=[42, 0]),\n",
       "   midi.NoteOnEvent(tick=13992, channel=9, data=[42, 88]),\n",
       "   midi.NoteOnEvent(tick=14004, channel=9, data=[42, 0]),\n",
       "   midi.NoteOnEvent(tick=14016, channel=9, data=[42, 112]),\n",
       "   midi.NoteOnEvent(tick=14032, channel=9, data=[42, 0]),\n",
       "   midi.PitchWheelEvent(tick=14040, channel=9, data=[0, 59]),\n",
       "   midi.PitchWheelEvent(tick=14040, channel=9, data=[0, 64]),\n",
       "   midi.NoteOnEvent(tick=14040, channel=9, data=[42, 100]),\n",
       "   midi.NoteOnEvent(tick=14052, channel=9, data=[36, 0]),\n",
       "   midi.NoteOnEvent(tick=14056, channel=9, data=[42, 0]),\n",
       "   midi.NoteOnEvent(tick=14064, channel=9, data=[36, 125]),\n",
       "   midi.NoteOnEvent(tick=14064, channel=9, data=[44, 112]),\n",
       "   midi.NoteOnEvent(tick=14084, channel=9, data=[44, 0]),\n",
       "   midi.NoteOnEvent(tick=14084, channel=9, data=[38, 0]),\n",
       "   midi.NoteOnEvent(tick=14088, channel=9, data=[42, 100]),\n",
       "   midi.NoteOnEvent(tick=14100, channel=9, data=[42, 0]),\n",
       "   midi.NoteOnEvent(tick=14112, channel=9, data=[38, 125]),\n",
       "   midi.NoteOnEvent(tick=14112, channel=9, data=[42, 112]),\n",
       "   midi.NoteOnEvent(tick=14132, channel=9, data=[42, 0]),\n",
       "   midi.NoteOnEvent(tick=14136, channel=9, data=[42, 112]),\n",
       "   midi.NoteOnEvent(tick=14152, channel=9, data=[42, 0]),\n",
       "   midi.NoteOnEvent(tick=14160, channel=9, data=[44, 127]),\n",
       "   midi.NoteOnEvent(tick=14168, channel=9, data=[44, 0]),\n",
       "   midi.NoteOnEvent(tick=14168, channel=9, data=[36, 0]),\n",
       "   midi.NoteOnEvent(tick=14184, channel=9, data=[36, 100]),\n",
       "   midi.NoteOnEvent(tick=14184, channel=9, data=[44, 112]),\n",
       "   midi.NoteOnEvent(tick=14188, channel=9, data=[36, 0]),\n",
       "   midi.NoteOnEvent(tick=14192, channel=9, data=[44, 0]),\n",
       "   midi.NoteOnEvent(tick=14208, channel=9, data=[36, 125]),\n",
       "   midi.NoteOnEvent(tick=14208, channel=9, data=[42, 125]),\n",
       "   midi.NoteOnEvent(tick=14208, channel=9, data=[49, 125]),\n",
       "   midi.NoteOnEvent(tick=14228, channel=9, data=[42, 0]),\n",
       "   midi.NoteOnEvent(tick=14232, channel=9, data=[42, 100]),\n",
       "   midi.NoteOnEvent(tick=14248, channel=9, data=[42, 0]),\n",
       "   midi.PitchWheelEvent(tick=14256, channel=9, data=[0, 59]),\n",
       "   midi.NoteOnEvent(tick=14256, channel=9, data=[42, 112]),\n",
       "   midi.NoteOnEvent(tick=14268, channel=9, data=[42, 0]),\n",
       "   midi.NoteOnEvent(tick=14276, channel=9, data=[38, 0]),\n",
       "   midi.NoteOnEvent(tick=14280, channel=9, data=[42, 100]),\n",
       "   midi.NoteOnEvent(tick=14292, channel=9, data=[42, 0]),\n",
       "   midi.PitchWheelEvent(tick=14304, channel=9, data=[0, 64]),\n",
       "   midi.NoteOnEvent(tick=14304, channel=9, data=[38, 110]),\n",
       "   midi.NoteOnEvent(tick=14304, channel=9, data=[44, 125]),\n",
       "   midi.NoteOnEvent(tick=14324, channel=9, data=[49, 0]),\n",
       "   midi.NoteOnEvent(tick=14328, channel=9, data=[44, 0]),\n",
       "   midi.NoteOnEvent(tick=14328, channel=9, data=[42, 100]),\n",
       "   midi.NoteOnEvent(tick=14332, channel=9, data=[36, 0]),\n",
       "   midi.NoteOnEvent(tick=14336, channel=9, data=[42, 0]),\n",
       "   midi.NoteOnEvent(tick=14352, channel=9, data=[36, 112]),\n",
       "   midi.NoteOnEvent(tick=14352, channel=9, data=[42, 125]),\n",
       "   midi.NoteOnEvent(tick=14352, channel=9, data=[57, 112]),\n",
       "   midi.NoteOnEvent(tick=14372, channel=9, data=[42, 0]),\n",
       "   midi.NoteOnEvent(tick=14376, channel=9, data=[42, 88]),\n",
       "   midi.NoteOnEvent(tick=14396, channel=9, data=[42, 0]),\n",
       "   midi.NoteOnEvent(tick=14400, channel=9, data=[42, 112]),\n",
       "   midi.PitchWheelEvent(tick=14400, channel=9, data=[0, 60]),\n",
       "   midi.NoteOnEvent(tick=14416, channel=9, data=[42, 0]),\n",
       "   midi.PitchWheelEvent(tick=14424, channel=9, data=[0, 64]),\n",
       "   midi.NoteOnEvent(tick=14424, channel=9, data=[42, 112]),\n",
       "   midi.PitchWheelEvent(tick=14424, channel=9, data=[0, 60]),\n",
       "   midi.PitchWheelEvent(tick=14424, channel=9, data=[0, 64]),\n",
       "   midi.NoteOnEvent(tick=14444, channel=9, data=[42, 0]),\n",
       "   midi.NoteOnEvent(tick=14448, channel=9, data=[46, 125]),\n",
       "   midi.NoteOnEvent(tick=14464, channel=9, data=[38, 0]),\n",
       "   midi.NoteOnEvent(tick=14472, channel=9, data=[46, 0]),\n",
       "   midi.NoteOnEvent(tick=14472, channel=9, data=[42, 100]),\n",
       "   midi.NoteOnEvent(tick=14488, channel=9, data=[42, 0]),\n",
       "   midi.NoteOnEvent(tick=14496, channel=9, data=[38, 125]),\n",
       "   midi.NoteOnEvent(tick=14496, channel=9, data=[46, 112]),\n",
       "   midi.NoteOnEvent(tick=14520, channel=9, data=[46, 0]),\n",
       "   midi.NoteOnEvent(tick=14520, channel=9, data=[42, 112]),\n",
       "   midi.NoteOnEvent(tick=14536, channel=9, data=[42, 0]),\n",
       "   midi.NoteOnEvent(tick=14544, channel=9, data=[42, 112]),\n",
       "   midi.NoteOnEvent(tick=14552, channel=9, data=[36, 0]),\n",
       "   midi.NoteOnEvent(tick=14560, channel=9, data=[42, 0]),\n",
       "   midi.NoteOnEvent(tick=14568, channel=9, data=[36, 88]),\n",
       "   midi.NoteOnEvent(tick=14568, channel=9, data=[42, 100]),\n",
       "   midi.NoteOnEvent(tick=14572, channel=9, data=[36, 0]),\n",
       "   midi.NoteOnEvent(tick=14576, channel=9, data=[57, 0]),\n",
       "   midi.NoteOnEvent(tick=14580, channel=9, data=[42, 0]),\n",
       "   midi.NoteOnEvent(tick=14592, channel=9, data=[36, 112]),\n",
       "   midi.NoteOnEvent(tick=14592, channel=9, data=[42, 112]),\n",
       "   midi.NoteOnEvent(tick=14612, channel=9, data=[42, 0]),\n",
       "   midi.NoteOnEvent(tick=14616, channel=9, data=[42, 100]),\n",
       "   midi.NoteOnEvent(tick=14624, channel=9, data=[42, 0]),\n",
       "   midi.PitchWheelEvent(tick=14640, channel=9, data=[0, 60]),\n",
       "   midi.NoteOnEvent(tick=14640, channel=9, data=[42, 112]),\n",
       "   midi.NoteOnEvent(tick=14656, channel=9, data=[42, 0]),\n",
       "   midi.NoteOnEvent(tick=14664, channel=9, data=[38, 0]),\n",
       "   midi.PitchWheelEvent(tick=14664, channel=9, data=[0, 64]),\n",
       "   midi.PitchWheelEvent(tick=14664, channel=9, data=[0, 60]),\n",
       "   midi.PitchWheelEvent(tick=14664, channel=9, data=[0, 63]),\n",
       "   midi.PitchWheelEvent(tick=14664, channel=9, data=[0, 64]),\n",
       "   midi.NoteOnEvent(tick=14664, channel=9, data=[42, 100]),\n",
       "   midi.NoteOnEvent(tick=14672, channel=9, data=[42, 0]),\n",
       "   midi.NoteOnEvent(tick=14688, channel=9, data=[38, 125]),\n",
       "   midi.NoteOnEvent(tick=14688, channel=9, data=[44, 125]),\n",
       "   midi.PitchWheelEvent(tick=14688, channel=9, data=[0, 60]),\n",
       "   midi.NoteOnEvent(tick=14712, channel=9, data=[44, 0]),\n",
       "   midi.PitchWheelEvent(tick=14712, channel=9, data=[0, 64]),\n",
       "   midi.NoteOnEvent(tick=14712, channel=9, data=[42, 100]),\n",
       "   midi.NoteOnEvent(tick=14716, channel=9, data=[36, 0]),\n",
       "   midi.NoteOnEvent(tick=14720, channel=9, data=[42, 0]),\n",
       "   midi.NoteOnEvent(tick=14736, channel=9, data=[36, 112]),\n",
       "   midi.NoteOnEvent(tick=14736, channel=9, data=[42, 125]),\n",
       "   midi.NoteOnEvent(tick=14756, channel=9, data=[42, 0]),\n",
       "   midi.NoteOnEvent(tick=14760, channel=9, data=[42, 77]),\n",
       "   midi.PitchWheelEvent(tick=14760, channel=9, data=[0, 60]),\n",
       "   midi.PitchWheelEvent(tick=14760, channel=9, data=[0, 64]),\n",
       "   midi.NoteOnEvent(tick=14768, channel=9, data=[42, 0]),\n",
       "   midi.NoteOnEvent(tick=14784, channel=9, data=[42, 100]),\n",
       "   midi.NoteOnEvent(tick=14800, channel=9, data=[42, 0]),\n",
       "   midi.NoteOnEvent(tick=14804, channel=9, data=[36, 0]),\n",
       "   midi.NoteOnEvent(tick=14808, channel=9, data=[42, 100]),\n",
       "   midi.PitchWheelEvent(tick=14808, channel=9, data=[0, 63]),\n",
       "   midi.PitchWheelEvent(tick=14808, channel=9, data=[0, 64]),\n",
       "   midi.NoteOnEvent(tick=14820, channel=9, data=[42, 0]),\n",
       "   midi.NoteOnEvent(tick=14832, channel=9, data=[36, 112]),\n",
       "   midi.NoteOnEvent(tick=14832, channel=9, data=[42, 125]),\n",
       "   midi.NoteOnEvent(tick=14852, channel=9, data=[42, 0]),\n",
       "   midi.NoteOnEvent(tick=14856, channel=9, data=[38, 0]),\n",
       "   midi.NoteOnEvent(tick=14856, channel=9, data=[42, 100]),\n",
       "   midi.NoteOnEvent(tick=14876, channel=9, data=[42, 0]),\n",
       "   midi.NoteOnEvent(tick=14880, channel=9, data=[38, 125]),\n",
       "   midi.NoteOnEvent(tick=14880, channel=9, data=[44, 112]),\n",
       "   midi.NoteOnEvent(tick=14900, channel=9, data=[44, 0]),\n",
       "   midi.NoteOnEvent(tick=14904, channel=9, data=[42, 112]),\n",
       "   midi.NoteOnEvent(tick=14924, channel=9, data=[42, 0]),\n",
       "   midi.PitchWheelEvent(tick=14928, channel=9, data=[0, 61]),\n",
       "   midi.PitchWheelEvent(tick=14928, channel=9, data=[0, 64]),\n",
       "   midi.NoteOnEvent(tick=14928, channel=9, data=[46, 125]),\n",
       "   midi.NoteOnEvent(tick=14932, channel=9, data=[36, 0]),\n",
       "   midi.NoteOnEvent(tick=14952, channel=9, data=[46, 0]),\n",
       "   midi.NoteOnEvent(tick=14952, channel=9, data=[36, 112]),\n",
       "   midi.PitchWheelEvent(tick=14952, channel=9, data=[0, 59]),\n",
       "   midi.NoteOnEvent(tick=14952, channel=9, data=[42, 112]),\n",
       "   midi.NoteOnEvent(tick=14956, channel=9, data=[36, 0]),\n",
       "   midi.NoteOnEvent(tick=14968, channel=9, data=[42, 0]),\n",
       "   midi.PitchWheelEvent(tick=14976, channel=9, data=[0, 64]),\n",
       "   midi.NoteOnEvent(tick=14976, channel=9, data=[36, 125]),\n",
       "   midi.NoteOnEvent(tick=14976, channel=9, data=[42, 125]),\n",
       "   midi.NoteOnEvent(tick=14976, channel=9, data=[49, 125]),\n",
       "   midi.NoteOnEvent(tick=14996, channel=9, data=[42, 0]),\n",
       "   midi.NoteOnEvent(tick=15000, channel=9, data=[42, 100]),\n",
       "   midi.NoteOnEvent(tick=15020, channel=9, data=[42, 0]),\n",
       "   midi.NoteOnEvent(tick=15024, channel=9, data=[42, 125]),\n",
       "   midi.NoteOnEvent(tick=15044, channel=9, data=[42, 0]),\n",
       "   midi.NoteOnEvent(tick=15048, channel=9, data=[38, 0]),\n",
       "   midi.NoteOnEvent(tick=15048, channel=9, data=[42, 112]),\n",
       "   midi.NoteOnEvent(tick=15068, channel=9, data=[42, 0]),\n",
       "   midi.NoteOnEvent(tick=15072, channel=9, data=[38, 125]),\n",
       "   midi.NoteOnEvent(tick=15072, channel=9, data=[44, 125]),\n",
       "   midi.NoteOnEvent(tick=15088, channel=9, data=[49, 0]),\n",
       "   midi.NoteOnEvent(tick=15096, channel=9, data=[36, 0]),\n",
       "   midi.NoteOnEvent(tick=15096, channel=9, data=[44, 0]),\n",
       "   midi.NoteOnEvent(tick=15096, channel=9, data=[42, 112]),\n",
       "   midi.NoteOnEvent(tick=15112, channel=9, data=[42, 0]),\n",
       "   midi.NoteOnEvent(tick=15120, channel=9, data=[36, 112]),\n",
       "   midi.NoteOnEvent(tick=15120, channel=9, data=[42, 112]),\n",
       "   midi.NoteOnEvent(tick=15120, channel=9, data=[57, 125]),\n",
       "   midi.NoteOnEvent(tick=15140, channel=9, data=[42, 0]),\n",
       "   midi.NoteOnEvent(tick=15144, channel=9, data=[42, 88]),\n",
       "   midi.NoteOnEvent(tick=15160, channel=9, data=[42, 0]),\n",
       "   midi.NoteOnEvent(tick=15168, channel=9, data=[42, 112]),\n",
       "   midi.NoteOnEvent(tick=15184, channel=9, data=[42, 0]),\n",
       "   midi.NoteOnEvent(tick=15192, channel=9, data=[42, 112]),\n",
       "   midi.NoteOnEvent(tick=15212, channel=9, data=[42, 0]),\n",
       "   midi.NoteOnEvent(tick=15216, channel=9, data=[46, 112]),\n",
       "   midi.NoteOnEvent(tick=15232, channel=9, data=[38, 0]),\n",
       "   midi.NoteOnEvent(tick=15240, channel=9, data=[46, 0]),\n",
       "   midi.NoteOnEvent(tick=15240, channel=9, data=[42, 100]),\n",
       "   midi.NoteOnEvent(tick=15260, channel=9, data=[42, 0]),\n",
       "   midi.NoteOnEvent(tick=15264, channel=9, data=[38, 125]),\n",
       "   midi.NoteOnEvent(tick=15264, channel=9, data=[46, 112]),\n",
       "   midi.NoteOnEvent(tick=15288, channel=9, data=[46, 0]),\n",
       "   midi.NoteOnEvent(tick=15288, channel=9, data=[42, 112]),\n",
       "   midi.NoteOnEvent(tick=15300, channel=9, data=[57, 0]),\n",
       "   midi.NoteOnEvent(tick=15304, channel=9, data=[42, 0]),\n",
       "   midi.NoteOnEvent(tick=15312, channel=9, data=[42, 112]),\n",
       "   midi.NoteOnEvent(tick=15320, channel=9, data=[36, 0]),\n",
       "   midi.NoteOnEvent(tick=15328, channel=9, data=[42, 0]),\n",
       "   midi.NoteOnEvent(tick=15336, channel=9, data=[36, 77]),\n",
       "   midi.NoteOnEvent(tick=15336, channel=9, data=[42, 100]),\n",
       "   midi.PitchWheelEvent(tick=15336, channel=9, data=[0, 60]),\n",
       "   midi.PitchWheelEvent(tick=15336, channel=9, data=[0, 64]),\n",
       "   midi.NoteOnEvent(tick=15340, channel=9, data=[36, 0]),\n",
       "   midi.NoteOnEvent(tick=15348, channel=9, data=[42, 0]),\n",
       "   midi.NoteOnEvent(tick=15360, channel=9, data=[36, 125]),\n",
       "   midi.NoteOnEvent(tick=15360, channel=9, data=[42, 125]),\n",
       "   midi.NoteOnEvent(tick=15380, channel=9, data=[42, 0]),\n",
       "   midi.NoteOnEvent(tick=15384, channel=9, data=[42, 100]),\n",
       "   midi.NoteOnEvent(tick=15404, channel=9, data=[42, 0]),\n",
       "   midi.NoteOnEvent(tick=15408, channel=9, data=[42, 112]),\n",
       "   midi.NoteOnEvent(tick=15424, channel=9, data=[42, 0]),\n",
       "   midi.NoteOnEvent(tick=15428, channel=9, data=[38, 0]),\n",
       "   midi.NoteOnEvent(tick=15432, channel=9, data=[42, 100]),\n",
       "   midi.NoteOnEvent(tick=15448, channel=9, data=[42, 0]),\n",
       "   midi.NoteOnEvent(tick=15456, channel=9, data=[38, 125]),\n",
       "   midi.NoteOnEvent(tick=15456, channel=9, data=[44, 125]),\n",
       "   midi.NoteOnEvent(tick=15476, channel=9, data=[36, 0]),\n",
       "   midi.NoteOnEvent(tick=15480, channel=9, data=[44, 0]),\n",
       "   midi.NoteOnEvent(tick=15480, channel=9, data=[42, 112]),\n",
       "   midi.NoteOnEvent(tick=15492, channel=9, data=[42, 0]),\n",
       "   midi.NoteOnEvent(tick=15504, channel=9, data=[36, 125]),\n",
       "   midi.NoteOnEvent(tick=15504, channel=9, data=[42, 125]),\n",
       "   midi.NoteOnEvent(tick=15520, channel=9, data=[42, 0]),\n",
       "   midi.NoteOnEvent(tick=15528, channel=9, data=[42, 100]),\n",
       "   midi.NoteOnEvent(tick=15544, channel=9, data=[42, 0]),\n",
       "   midi.NoteOnEvent(tick=15552, channel=9, data=[42, 125]),\n",
       "   midi.NoteOnEvent(tick=15564, channel=9, data=[36, 0]),\n",
       "   midi.NoteOnEvent(tick=15572, channel=9, data=[42, 0]),\n",
       "   midi.NoteOnEvent(tick=15576, channel=9, data=[42, 100]),\n",
       "   midi.NoteOnEvent(tick=15596, channel=9, data=[42, 0]),\n",
       "   midi.NoteOnEvent(tick=15600, channel=9, data=[36, 112]),\n",
       "   midi.NoteOnEvent(tick=15600, channel=9, data=[44, 125]),\n",
       "   midi.PitchWheelEvent(tick=15600, channel=9, data=[0, 60]),\n",
       "   midi.PitchWheelEvent(tick=15600, channel=9, data=[0, 64]),\n",
       "   midi.NoteOnEvent(tick=15616, channel=9, data=[38, 0]),\n",
       "   midi.NoteOnEvent(tick=15620, channel=9, data=[44, 0]),\n",
       "   midi.NoteOnEvent(tick=15624, channel=9, data=[42, 100]),\n",
       "   midi.NoteOnEvent(tick=15644, channel=9, data=[42, 0]),\n",
       "   midi.NoteOnEvent(tick=15648, channel=9, data=[38, 125]),\n",
       "   midi.NoteOnEvent(tick=15648, channel=9, data=[44, 125]),\n",
       "   midi.NoteOnEvent(tick=15668, channel=9, data=[44, 0]),\n",
       "   midi.NoteOnEvent(tick=15672, channel=9, data=[42, 100]),\n",
       "   midi.NoteOnEvent(tick=15684, channel=9, data=[36, 0]),\n",
       "   midi.NoteOnEvent(tick=15692, channel=9, data=[42, 0]),\n",
       "   midi.NoteOnEvent(tick=15696, channel=9, data=[36, 77]),\n",
       "   midi.NoteOnEvent(tick=15696, channel=9, data=[44, 125]),\n",
       "   midi.NoteOnEvent(tick=15700, channel=9, data=[36, 0]),\n",
       "   midi.NoteOnEvent(tick=15720, channel=9, data=[44, 0]),\n",
       "   midi.NoteOnEvent(tick=15720, channel=9, data=[36, 112]),\n",
       "   midi.NoteOnEvent(tick=15720, channel=9, data=[42, 112]),\n",
       "   midi.NoteOnEvent(tick=15728, channel=9, data=[42, 0]),\n",
       "   midi.NoteOnEvent(tick=15728, channel=9, data=[36, 0]),\n",
       "   midi.NoteOnEvent(tick=15744, channel=9, data=[36, 112]),\n",
       "   midi.NoteOnEvent(tick=15744, channel=9, data=[44, 125]),\n",
       "   midi.NoteOnEvent(tick=15744, channel=9, data=[57, 112]),\n",
       "   midi.NoteOnEvent(tick=15760, channel=9, data=[44, 0]),\n",
       "   midi.NoteOnEvent(tick=15776, channel=9, data=[38, 0]),\n",
       "   midi.NoteOnEvent(tick=15792, channel=9, data=[44, 112]),\n",
       "   midi.NoteOnEvent(tick=15800, channel=9, data=[44, 0]),\n",
       "   midi.NoteOnEvent(tick=15840, channel=9, data=[82, 125]),\n",
       "   midi.NoteOnEvent(tick=15840, channel=9, data=[38, 125]),\n",
       "   midi.NoteOnEvent(tick=15840, channel=9, data=[44, 125]),\n",
       "   midi.NoteOnEvent(tick=15848, channel=9, data=[57, 0]),\n",
       "   midi.NoteOnEvent(tick=15856, channel=9, data=[44, 0]),\n",
       "   midi.NoteOnEvent(tick=15860, channel=9, data=[36, 0]),\n",
       "   midi.PitchWheelEvent(tick=15864, channel=9, data=[0, 61]),\n",
       "   midi.PitchWheelEvent(tick=15864, channel=9, data=[0, 64]),\n",
       "   midi.NoteOnEvent(tick=15888, channel=9, data=[36, 125]),\n",
       "   midi.NoteOnEvent(tick=15888, channel=9, data=[44, 125]),\n",
       "   midi.NoteOnEvent(tick=15888, channel=9, data=[49, 125]),\n",
       "   midi.NoteOnEvent(tick=15904, channel=9, data=[44, 0]),\n",
       "   midi.NoteOnEvent(tick=15936, channel=9, data=[44, 112]),\n",
       "   midi.NoteOnEvent(tick=15948, channel=9, data=[44, 0]),\n",
       "   midi.NoteOnEvent(tick=15952, channel=9, data=[36, 0]),\n",
       "   midi.NoteOnEvent(tick=15984, channel=9, data=[36, 112]),\n",
       "   midi.NoteOnEvent(tick=15984, channel=9, data=[44, 125]),\n",
       "   midi.NoteOnEvent(tick=15988, channel=9, data=[38, 0]),\n",
       "   midi.NoteOnEvent(tick=15992, channel=9, data=[82, 0]),\n",
       "   midi.NoteOnEvent(tick=15996, channel=9, data=[44, 0]),\n",
       "   midi.PitchWheelEvent(tick=16008, channel=9, data=[0, 60]),\n",
       "   midi.PitchWheelEvent(tick=16008, channel=9, data=[0, 64]),\n",
       "   midi.NoteOnEvent(tick=16032, channel=9, data=[82, 112]),\n",
       "   midi.NoteOnEvent(tick=16032, channel=9, data=[38, 110]),\n",
       "   midi.NoteOnEvent(tick=16032, channel=9, data=[44, 125]),\n",
       "   midi.NoteOnEvent(tick=16044, channel=9, data=[44, 0]),\n",
       "   midi.NoteOnEvent(tick=16080, channel=9, data=[44, 125]),\n",
       "   midi.NoteOnEvent(tick=16084, channel=9, data=[49, 0]),\n",
       "   midi.NoteOnEvent(tick=16088, channel=9, data=[36, 0]),\n",
       "   midi.NoteOnEvent(tick=16096, channel=9, data=[44, 0]),\n",
       "   midi.NoteOnEvent(tick=16104, channel=9, data=[36, 33]),\n",
       "   midi.NoteOnEvent(tick=16108, channel=9, data=[36, 0]),\n",
       "   midi.NoteOnEvent(tick=16128, channel=9, data=[36, 125]),\n",
       "   midi.NoteOnEvent(tick=16128, channel=9, data=[44, 112]),\n",
       "   midi.NoteOnEvent(tick=16128, channel=9, data=[49, 125]),\n",
       "   midi.NoteOnEvent(tick=16148, channel=9, data=[44, 0]),\n",
       "   midi.NoteOnEvent(tick=16176, channel=9, data=[44, 112]),\n",
       "   midi.NoteOnEvent(tick=16188, channel=9, data=[44, 0]),\n",
       "   midi.NoteOnEvent(tick=16192, channel=9, data=[38, 0]),\n",
       "   midi.NoteOnEvent(tick=16196, channel=9, data=[82, 0]),\n",
       "   midi.NoteOnEvent(tick=16224, channel=9, data=[82, 112]),\n",
       "   midi.NoteOnEvent(tick=16224, channel=9, data=[38, 125]),\n",
       "   midi.NoteOnEvent(tick=16224, channel=9, data=[44, 125]),\n",
       "   midi.NoteOnEvent(tick=16232, channel=9, data=[44, 0]),\n",
       "   midi.NoteOnEvent(tick=16232, channel=9, data=[49, 0]),\n",
       "   midi.NoteOnEvent(tick=16248, channel=9, data=[36, 0]),\n",
       "   midi.NoteOnEvent(tick=16272, channel=9, data=[36, 125]),\n",
       "   midi.NoteOnEvent(tick=16272, channel=9, data=[44, 112]),\n",
       "   midi.NoteOnEvent(tick=16272, channel=9, data=[57, 125]),\n",
       "   midi.NoteOnEvent(tick=16288, channel=9, data=[44, 0]),\n",
       "   midi.NoteOnEvent(tick=16320, channel=9, data=[44, 125]),\n",
       "   midi.NoteOnEvent(tick=16332, channel=9, data=[44, 0]),\n",
       "   midi.NoteOnEvent(tick=16340, channel=9, data=[36, 0]),\n",
       "   midi.NoteOnEvent(tick=16368, channel=9, data=[36, 100]),\n",
       "   midi.NoteOnEvent(tick=16368, channel=9, data=[44, 112]),\n",
       "   midi.NoteOnEvent(tick=16380, channel=9, data=[38, 0]),\n",
       "   midi.NoteOnEvent(tick=16384, channel=9, data=[82, 0]),\n",
       "   midi.NoteOnEvent(tick=16384, channel=9, data=[44, 0]),\n",
       "   midi.NoteOnEvent(tick=16416, channel=9, data=[82, 112]),\n",
       "   midi.NoteOnEvent(tick=16416, channel=9, data=[38, 122]),\n",
       "   midi.NoteOnEvent(tick=16416, channel=9, data=[44, 125]),\n",
       "   midi.NoteOnEvent(tick=16432, channel=9, data=[44, 0]),\n",
       "   midi.NoteOnEvent(tick=16464, channel=9, data=[44, 112]),\n",
       "   midi.NoteOnEvent(tick=16472, channel=9, data=[57, 0]),\n",
       "   midi.NoteOnEvent(tick=16484, channel=9, data=[36, 0]),\n",
       "   midi.NoteOnEvent(tick=16484, channel=9, data=[44, 0]),\n",
       "   midi.NoteOnEvent(tick=16512, channel=9, data=[36, 125]),\n",
       "   midi.NoteOnEvent(tick=16512, channel=9, data=[44, 125]),\n",
       "   midi.NoteOnEvent(tick=16512, channel=9, data=[49, 112]),\n",
       "   midi.NoteOnEvent(tick=16528, channel=9, data=[44, 0]),\n",
       "   midi.NoteOnEvent(tick=16560, channel=9, data=[44, 112]),\n",
       "   midi.NoteOnEvent(tick=16572, channel=9, data=[38, 0]),\n",
       "   midi.NoteOnEvent(tick=16576, channel=9, data=[82, 0]),\n",
       "   midi.NoteOnEvent(tick=16576, channel=9, data=[44, 0]),\n",
       "   midi.NoteOnEvent(tick=16608, channel=9, data=[82, 125]),\n",
       "   midi.NoteOnEvent(tick=16608, channel=9, data=[38, 112]),\n",
       "   midi.NoteOnEvent(tick=16608, channel=9, data=[44, 112]),\n",
       "   midi.NoteOnEvent(tick=16620, channel=9, data=[44, 0]),\n",
       "   midi.NoteOnEvent(tick=16620, channel=9, data=[49, 0]),\n",
       "   midi.NoteOnEvent(tick=16628, channel=9, data=[36, 0]),\n",
       "   midi.NoteOnEvent(tick=16656, channel=9, data=[36, 125]),\n",
       "   midi.NoteOnEvent(tick=16656, channel=9, data=[44, 125]),\n",
       "   midi.NoteOnEvent(tick=16656, channel=9, data=[49, 125]),\n",
       "   midi.NoteOnEvent(tick=16672, channel=9, data=[44, 0]),\n",
       "   midi.NoteOnEvent(tick=16704, channel=9, data=[44, 112]),\n",
       "   midi.NoteOnEvent(tick=16716, channel=9, data=[36, 0]),\n",
       "   midi.NoteOnEvent(tick=16720, channel=9, data=[44, 0]),\n",
       "   midi.NoteOnEvent(tick=16752, channel=9, data=[36, 100]),\n",
       "   midi.NoteOnEvent(tick=16752, channel=9, data=[44, 125]),\n",
       "   midi.NoteOnEvent(tick=16760, channel=9, data=[38, 0]),\n",
       "   midi.NoteOnEvent(tick=16764, channel=9, data=[82, 0]),\n",
       "   midi.NoteOnEvent(tick=16772, channel=9, data=[44, 0]),\n",
       "   midi.NoteOnEvent(tick=16800, channel=9, data=[82, 125]),\n",
       "   midi.NoteOnEvent(tick=16800, channel=9, data=[38, 125]),\n",
       "   midi.NoteOnEvent(tick=16800, channel=9, data=[44, 112]),\n",
       "   midi.NoteOnEvent(tick=16816, channel=9, data=[44, 0]),\n",
       "   midi.NoteOnEvent(tick=16824, channel=9, data=[36, 0]),\n",
       "   midi.NoteOnEvent(tick=16848, channel=9, data=[36, 68]),\n",
       "   midi.NoteOnEvent(tick=16848, channel=9, data=[44, 112]),\n",
       "   midi.NoteOnEvent(tick=16856, channel=9, data=[36, 0]),\n",
       "   midi.NoteOnEvent(tick=16860, channel=9, data=[49, 0]),\n",
       "   midi.NoteOnEvent(tick=16864, channel=9, data=[44, 0]),\n",
       "   midi.NoteOnEvent(tick=16896, channel=9, data=[36, 112]),\n",
       "   midi.NoteOnEvent(tick=16896, channel=9, data=[44, 125]),\n",
       "   midi.NoteOnEvent(tick=16896, channel=9, data=[57, 112]),\n",
       "   midi.NoteOnEvent(tick=16916, channel=9, data=[44, 0]),\n",
       "   midi.NoteOnEvent(tick=16944, channel=9, data=[44, 112]),\n",
       "   midi.NoteOnEvent(tick=16952, channel=9, data=[44, 0]),\n",
       "   midi.NoteOnEvent(tick=16960, channel=9, data=[38, 0]),\n",
       "   midi.NoteOnEvent(tick=16964, channel=9, data=[82, 0]),\n",
       "   midi.NoteOnEvent(tick=16992, channel=9, data=[57, 0]),\n",
       "   midi.NoteOnEvent(tick=16992, channel=9, data=[38, 125]),\n",
       "   midi.NoteOnEvent(tick=16992, channel=9, data=[82, 112]),\n",
       "   midi.NoteOnEvent(tick=16992, channel=9, data=[44, 112]),\n",
       "   midi.NoteOnEvent(tick=17008, channel=9, data=[44, 0]),\n",
       "   midi.NoteOnEvent(tick=17016, channel=9, data=[36, 0]),\n",
       "   midi.NoteOnEvent(tick=17040, channel=9, data=[36, 112]),\n",
       "   midi.NoteOnEvent(tick=17040, channel=9, data=[44, 112]),\n",
       "   midi.NoteOnEvent(tick=17040, channel=9, data=[49, 112]),\n",
       "   midi.NoteOnEvent(tick=17056, channel=9, data=[44, 0]),\n",
       "   midi.PitchWheelEvent(tick=17064, channel=9, data=[0, 60]),\n",
       "   midi.PitchWheelEvent(tick=17064, channel=9, data=[0, 64]),\n",
       "   midi.PitchWheelEvent(tick=17088, channel=9, data=[0, 60]),\n",
       "   midi.PitchWheelEvent(tick=17088, channel=9, data=[0, 64]),\n",
       "   midi.NoteOnEvent(tick=17088, channel=9, data=[44, 112]),\n",
       "   midi.NoteOnEvent(tick=17104, channel=9, data=[44, 0]),\n",
       "   midi.NoteOnEvent(tick=17104, channel=9, data=[36, 0]),\n",
       "   midi.NoteOnEvent(tick=17136, channel=9, data=[36, 100]),\n",
       "   midi.NoteOnEvent(tick=17136, channel=9, data=[44, 112]),\n",
       "   midi.NoteOnEvent(tick=17148, channel=9, data=[38, 0]),\n",
       "   midi.NoteOnEvent(tick=17148, channel=9, data=[82, 0]),\n",
       "   midi.NoteOnEvent(tick=17152, channel=9, data=[44, 0]),\n",
       "   midi.NoteOnEvent(tick=17184, channel=9, data=[82, 125]),\n",
       "   midi.NoteOnEvent(tick=17184, channel=9, data=[38, 125]),\n",
       "   midi.PitchWheelEvent(tick=17184, channel=9, data=[0, 60]),\n",
       "   midi.NoteOnEvent(tick=17184, channel=9, data=[44, 125]),\n",
       "   midi.NoteOnEvent(tick=17204, channel=9, data=[44, 0]),\n",
       "   midi.PitchWheelEvent(tick=17208, channel=9, data=[0, 64]),\n",
       "   midi.NoteOnEvent(tick=17212, channel=9, data=[36, 0]),\n",
       "   midi.NoteOnEvent(tick=17232, channel=9, data=[36, 88]),\n",
       "   midi.NoteOnEvent(tick=17232, channel=9, data=[44, 112]),\n",
       "   midi.NoteOnEvent(tick=17244, channel=9, data=[36, 0]),\n",
       "   midi.NoteOnEvent(tick=17244, channel=9, data=[49, 0]),\n",
       "   midi.NoteOnEvent(tick=17248, channel=9, data=[44, 0]),\n",
       "   midi.NoteOnEvent(tick=17280, channel=9, data=[36, 125]),\n",
       "   midi.NoteOnEvent(tick=17280, channel=9, data=[44, 112]),\n",
       "   midi.NoteOnEvent(tick=17280, channel=9, data=[49, 125]),\n",
       "   midi.NoteOnEvent(tick=17300, channel=9, data=[44, 0]),\n",
       "   midi.NoteOnEvent(tick=17328, channel=9, data=[44, 112]),\n",
       "   midi.NoteOnEvent(tick=17344, channel=9, data=[82, 0]),\n",
       "   midi.NoteOnEvent(tick=17344, channel=9, data=[38, 0]),\n",
       "   midi.NoteOnEvent(tick=17348, channel=9, data=[44, 0]),\n",
       "   midi.NoteOnEvent(tick=17376, channel=9, data=[82, 112]),\n",
       "   midi.NoteOnEvent(tick=17376, channel=9, data=[38, 112]),\n",
       "   midi.NoteOnEvent(tick=17376, channel=9, data=[44, 125]),\n",
       "   midi.NoteOnEvent(tick=17384, channel=9, data=[49, 0]),\n",
       "   midi.NoteOnEvent(tick=17392, channel=9, data=[44, 0]),\n",
       "   midi.NoteOnEvent(tick=17396, channel=9, data=[36, 0]),\n",
       "   midi.NoteOnEvent(tick=17424, channel=9, data=[36, 100]),\n",
       "   midi.NoteOnEvent(tick=17424, channel=9, data=[44, 125]),\n",
       "   midi.NoteOnEvent(tick=17424, channel=9, data=[49, 77]),\n",
       "   midi.NoteOnEvent(tick=17428, channel=9, data=[49, 0]),\n",
       "   midi.NoteOnEvent(tick=17436, channel=9, data=[36, 0]),\n",
       "   midi.NoteOnEvent(tick=17444, channel=9, data=[44, 0]),\n",
       "   midi.NoteOnEvent(tick=17472, channel=9, data=[36, 125]),\n",
       "   midi.NoteOnEvent(tick=17472, channel=9, data=[44, 125]),\n",
       "   midi.NoteOnEvent(tick=17472, channel=9, data=[57, 125]),\n",
       "   midi.NoteOnEvent(tick=17488, channel=9, data=[44, 0]),\n",
       "   midi.NoteOnEvent(tick=17496, channel=9, data=[82, 0]),\n",
       "   midi.NoteOnEvent(tick=17496, channel=9, data=[38, 0]),\n",
       "   midi.NoteOnEvent(tick=17520, channel=9, data=[44, 112]),\n",
       "   midi.NoteOnEvent(tick=17536, channel=9, data=[44, 0]),\n",
       "   midi.NoteOnEvent(tick=17536, channel=9, data=[57, 0]),\n",
       "   midi.NoteOnEvent(tick=17540, channel=9, data=[36, 0]),\n",
       "   midi.NoteOnEvent(tick=17568, channel=9, data=[47, 125]),\n",
       "   midi.NoteOnEvent(tick=17568, channel=9, data=[44, 112]),\n",
       "   midi.NoteOnEvent(tick=17568, channel=9, data=[49, 125]),\n",
       "   midi.NoteOnEvent(tick=17584, channel=9, data=[47, 0]),\n",
       "   midi.NoteOnEvent(tick=17588, channel=9, data=[44, 0]),\n",
       "   midi.NoteOnEvent(tick=17592, channel=9, data=[45, 112]),\n",
       "   midi.NoteOnEvent(tick=17612, channel=9, data=[45, 0]),\n",
       "   midi.NoteOnEvent(tick=17616, channel=9, data=[43, 125]),\n",
       "   midi.NoteOnEvent(tick=17616, channel=9, data=[44, 115]),\n",
       "   midi.NoteOnEvent(tick=17624, channel=9, data=[49, 0]),\n",
       "   midi.NoteOnEvent(tick=17648, channel=9, data=[44, 0]),\n",
       "   midi.NoteOnEvent(tick=17656, channel=9, data=[43, 0]),\n",
       "   midi.NoteOnEvent(tick=17664, channel=9, data=[36, 125]),\n",
       "   midi.NoteOnEvent(tick=17664, channel=9, data=[42, 125]),\n",
       "   midi.NoteOnEvent(tick=17664, channel=9, data=[49, 125]),\n",
       "   midi.NoteOnEvent(tick=17680, channel=9, data=[42, 0]),\n",
       "   midi.NoteOnEvent(tick=17688, channel=9, data=[42, 88]),\n",
       "   midi.NoteOnEvent(tick=17704, channel=9, data=[42, 0]),\n",
       "   midi.NoteOnEvent(tick=17712, channel=9, data=[42, 112]),\n",
       "   midi.NoteOnEvent(tick=17728, channel=9, data=[42, 0]),\n",
       "   midi.NoteOnEvent(tick=17736, channel=9, data=[42, 112]),\n",
       "   midi.NoteOnEvent(tick=17752, channel=9, data=[42, 0]),\n",
       "   midi.NoteOnEvent(tick=17760, channel=9, data=[38, 125]),\n",
       "   midi.NoteOnEvent(tick=17760, channel=9, data=[46, 125]),\n",
       "   midi.NoteOnEvent(tick=17776, channel=9, data=[36, 0]),\n",
       "   midi.NoteOnEvent(tick=17780, channel=9, data=[46, 0]),\n",
       "   midi.NoteOnEvent(tick=17784, channel=9, data=[42, 112]),\n",
       "   midi.NoteOnEvent(tick=17800, channel=9, data=[42, 0]),\n",
       "   midi.NoteOnEvent(tick=17808, channel=9, data=[36, 125]),\n",
       "   midi.NoteOnEvent(tick=17808, channel=9, data=[42, 125]),\n",
       "   midi.NoteOnEvent(tick=17824, channel=9, data=[42, 0]),\n",
       "   midi.NoteOnEvent(tick=17832, channel=9, data=[42, 100]),\n",
       "   midi.NoteOnEvent(tick=17848, channel=9, data=[42, 0]),\n",
       "   midi.PitchWheelEvent(tick=17856, channel=9, data=[0, 61]),\n",
       "   midi.PitchWheelEvent(tick=17856, channel=9, data=[0, 64]),\n",
       "   midi.NoteOnEvent(tick=17856, channel=9, data=[42, 77]),\n",
       "   midi.NoteOnEvent(tick=17864, channel=9, data=[42, 0]),\n",
       "   midi.NoteOnEvent(tick=17880, channel=9, data=[42, 100]),\n",
       "   midi.NoteOnEvent(tick=17896, channel=9, data=[42, 0]),\n",
       "   midi.NoteOnEvent(tick=17904, channel=9, data=[44, 112]),\n",
       "   midi.NoteOnEvent(tick=17924, channel=9, data=[44, 0]),\n",
       "   midi.NoteOnEvent(tick=17928, channel=9, data=[38, 0]),\n",
       "   midi.NoteOnEvent(tick=17928, channel=9, data=[42, 112]),\n",
       "   midi.NoteOnEvent(tick=17948, channel=9, data=[42, 0]),\n",
       "   midi.NoteOnEvent(tick=17952, channel=9, data=[38, 112]),\n",
       "   midi.NoteOnEvent(tick=17952, channel=9, data=[44, 125]),\n",
       "   midi.NoteOnEvent(tick=17956, channel=9, data=[49, 0]),\n",
       "   midi.NoteOnEvent(tick=17972, channel=9, data=[44, 0]),\n",
       "   midi.NoteOnEvent(tick=17976, channel=9, data=[42, 112]),\n",
       "   midi.NoteOnEvent(tick=17992, channel=9, data=[42, 0]),\n",
       "   midi.NoteOnEvent(tick=18000, channel=9, data=[42, 125]),\n",
       "   midi.NoteOnEvent(tick=18016, channel=9, data=[42, 0]),\n",
       "   midi.NoteOnEvent(tick=18016, channel=9, data=[36, 0]),\n",
       "   midi.NoteOnEvent(tick=18024, channel=9, data=[36, 88]),\n",
       "   midi.NoteOnEvent(tick=18024, channel=9, data=[42, 112]),\n",
       "   midi.NoteOnEvent(tick=18028, channel=9, data=[36, 0]),\n",
       "   midi.NoteOnEvent(tick=18036, channel=9, data=[42, 0]),\n",
       "   midi.NoteOnEvent(tick=18048, channel=9, data=[36, 112]),\n",
       "   midi.NoteOnEvent(tick=18048, channel=9, data=[42, 125]),\n",
       "   midi.NoteOnEvent(tick=18064, channel=9, data=[42, 0]),\n",
       "   midi.NoteOnEvent(tick=18072, channel=9, data=[42, 112]),\n",
       "   midi.NoteOnEvent(tick=18088, channel=9, data=[42, 0]),\n",
       "   midi.NoteOnEvent(tick=18096, channel=9, data=[42, 112]),\n",
       "   midi.NoteOnEvent(tick=18112, channel=9, data=[42, 0]),\n",
       "   midi.NoteOnEvent(tick=18116, channel=9, data=[38, 0]),\n",
       "   midi.NoteOnEvent(tick=18120, channel=9, data=[42, 100]),\n",
       "   midi.NoteOnEvent(tick=18144, channel=9, data=[42, 0]),\n",
       "   midi.NoteOnEvent(tick=18144, channel=9, data=[38, 125]),\n",
       "   midi.PitchWheelEvent(tick=18144, channel=9, data=[0, 58]),\n",
       "   midi.NoteOnEvent(tick=18144, channel=9, data=[46, 125]),\n",
       "   midi.PitchWheelEvent(tick=18144, channel=9, data=[0, 64]),\n",
       "   midi.NoteOnEvent(tick=18160, channel=9, data=[46, 0]),\n",
       "   midi.NoteOnEvent(tick=18164, channel=9, data=[36, 0]),\n",
       "   midi.NoteOnEvent(tick=18168, channel=9, data=[42, 100]),\n",
       "   midi.NoteOnEvent(tick=18184, channel=9, data=[42, 0]),\n",
       "   midi.NoteOnEvent(tick=18192, channel=9, data=[36, 125]),\n",
       "   midi.NoteOnEvent(tick=18192, channel=9, data=[42, 125]),\n",
       "   midi.NoteOnEvent(tick=18212, channel=9, data=[42, 0]),\n",
       "   midi.NoteOnEvent(tick=18216, channel=9, data=[42, 100]),\n",
       "   midi.NoteOnEvent(tick=18244, channel=9, data=[42, 0]),\n",
       "   midi.NoteOnEvent(tick=18264, channel=9, data=[42, 100]),\n",
       "   midi.NoteOnEvent(tick=18284, channel=9, data=[42, 0]),\n",
       "   midi.NoteOnEvent(tick=18288, channel=9, data=[44, 125]),\n",
       "   midi.NoteOnEvent(tick=18308, channel=9, data=[44, 0]),\n",
       "   midi.NoteOnEvent(tick=18312, channel=9, data=[38, 0]),\n",
       "   midi.NoteOnEvent(tick=18312, channel=9, data=[42, 112]),\n",
       "   midi.NoteOnEvent(tick=18332, channel=9, data=[42, 0]),\n",
       "   midi.NoteOnEvent(tick=18336, channel=9, data=[38, 125]),\n",
       "   midi.NoteOnEvent(tick=18336, channel=9, data=[44, 125]),\n",
       "   midi.NoteOnEvent(tick=18356, channel=9, data=[44, 0]),\n",
       "   midi.NoteOnEvent(tick=18360, channel=9, data=[42, 112]),\n",
       "   midi.NoteOnEvent(tick=18376, channel=9, data=[42, 0]),\n",
       "   midi.NoteOnEvent(tick=18384, channel=9, data=[42, 125]),\n",
       "   midi.NoteOnEvent(tick=18400, channel=9, data=[42, 0]),\n",
       "   midi.NoteOnEvent(tick=18400, channel=9, data=[36, 0]),\n",
       "   midi.NoteOnEvent(tick=18408, channel=9, data=[36, 88]),\n",
       "   midi.NoteOnEvent(tick=18408, channel=9, data=[42, 100]),\n",
       "   midi.NoteOnEvent(tick=18412, channel=9, data=[36, 0]),\n",
       "   midi.NoteOnEvent(tick=18420, channel=9, data=[42, 0]),\n",
       "   midi.NoteOnEvent(tick=18432, channel=9, data=[36, 112]),\n",
       "   midi.NoteOnEvent(tick=18432, channel=9, data=[42, 112]),\n",
       "   midi.NoteOnEvent(tick=18448, channel=9, data=[42, 0]),\n",
       "   midi.NoteOnEvent(tick=18456, channel=9, data=[42, 100]),\n",
       "   midi.NoteOnEvent(tick=18472, channel=9, data=[42, 0]),\n",
       "   midi.NoteOnEvent(tick=18480, channel=9, data=[42, 125]),\n",
       "   midi.NoteOnEvent(tick=18496, channel=9, data=[42, 0]),\n",
       "   midi.NoteOnEvent(tick=18504, channel=9, data=[38, 0]),\n",
       "   midi.NoteOnEvent(tick=18504, channel=9, data=[42, 100]),\n",
       "   midi.NoteOnEvent(tick=18520, channel=9, data=[42, 0]),\n",
       "   midi.NoteOnEvent(tick=18528, channel=9, data=[38, 125]),\n",
       "   midi.NoteOnEvent(tick=18528, channel=9, data=[44, 125]),\n",
       "   midi.NoteOnEvent(tick=18552, channel=9, data=[44, 0]),\n",
       "   midi.NoteOnEvent(tick=18552, channel=9, data=[36, 0]),\n",
       "   midi.NoteOnEvent(tick=18552, channel=9, data=[42, 112]),\n",
       "   midi.NoteOnEvent(tick=18568, channel=9, data=[42, 0]),\n",
       "   midi.NoteOnEvent(tick=18576, channel=9, data=[36, 125]),\n",
       "   midi.NoteOnEvent(tick=18576, channel=9, data=[42, 125]),\n",
       "   midi.NoteOnEvent(tick=18596, channel=9, data=[42, 0]),\n",
       "   midi.NoteOnEvent(tick=18600, channel=9, data=[42, 112]),\n",
       "   midi.PitchWheelEvent(tick=18600, channel=9, data=[0, 63]),\n",
       "   midi.PitchWheelEvent(tick=18600, channel=9, data=[0, 64]),\n",
       "   midi.NoteOnEvent(tick=18640, channel=9, data=[42, 0]),\n",
       "   midi.NoteOnEvent(tick=18648, channel=9, data=[42, 100]),\n",
       "   midi.NoteOnEvent(tick=18664, channel=9, data=[42, 0]),\n",
       "   midi.NoteOnEvent(tick=18672, channel=9, data=[46, 125]),\n",
       "   midi.NoteOnEvent(tick=18692, channel=9, data=[46, 0]),\n",
       "   midi.NoteOnEvent(tick=18696, channel=9, data=[38, 0]),\n",
       "   midi.NoteOnEvent(tick=18696, channel=9, data=[42, 100]),\n",
       "   midi.NoteOnEvent(tick=18712, channel=9, data=[42, 0]),\n",
       "   midi.NoteOnEvent(tick=18720, channel=9, data=[38, 125]),\n",
       "   midi.NoteOnEvent(tick=18720, channel=9, data=[46, 125]),\n",
       "   midi.NoteOnEvent(tick=18740, channel=9, data=[46, 0]),\n",
       "   midi.NoteOnEvent(tick=18744, channel=9, data=[42, 112]),\n",
       "   midi.NoteOnEvent(tick=18760, channel=9, data=[42, 0]),\n",
       "   midi.NoteOnEvent(tick=18768, channel=9, data=[42, 125]),\n",
       "   midi.NoteOnEvent(tick=18780, channel=9, data=[36, 0]),\n",
       "   midi.NoteOnEvent(tick=18788, channel=9, data=[42, 0]),\n",
       "   midi.NoteOnEvent(tick=18792, channel=9, data=[36, 88]),\n",
       "   midi.NoteOnEvent(tick=18792, channel=9, data=[42, 100]),\n",
       "   midi.NoteOnEvent(tick=18796, channel=9, data=[36, 0]),\n",
       "   midi.NoteOnEvent(tick=18800, channel=9, data=[42, 0]),\n",
       "   midi.NoteOnEvent(tick=18816, channel=9, data=[36, 112]),\n",
       "   midi.NoteOnEvent(tick=18816, channel=9, data=[42, 125]),\n",
       "   midi.NoteOnEvent(tick=18836, channel=9, data=[42, 0]),\n",
       "   midi.NoteOnEvent(tick=18840, channel=9, data=[42, 77]),\n",
       "   midi.NoteOnEvent(tick=18852, channel=9, data=[42, 0]),\n",
       "   midi.NoteOnEvent(tick=18864, channel=9, data=[42, 112]),\n",
       "   midi.NoteOnEvent(tick=18884, channel=9, data=[42, 0]),\n",
       "   midi.NoteOnEvent(tick=18884, channel=9, data=[38, 0]),\n",
       "   midi.NoteOnEvent(tick=18888, channel=9, data=[42, 88]),\n",
       "   midi.NoteOnEvent(tick=18908, channel=9, data=[42, 0]),\n",
       "   midi.NoteOnEvent(tick=18912, channel=9, data=[38, 125]),\n",
       "   midi.NoteOnEvent(tick=18912, channel=9, data=[44, 112]),\n",
       "   midi.NoteOnEvent(tick=18936, channel=9, data=[44, 0]),\n",
       "   midi.NoteOnEvent(tick=18936, channel=9, data=[42, 115]),\n",
       "   midi.NoteOnEvent(tick=18940, channel=9, data=[36, 0]),\n",
       "   midi.NoteOnEvent(tick=18948, channel=9, data=[42, 0]),\n",
       "   midi.NoteOnEvent(tick=18960, channel=9, data=[36, 125]),\n",
       "   midi.NoteOnEvent(tick=18960, channel=9, data=[42, 125]),\n",
       "   midi.NoteOnEvent(tick=18976, channel=9, data=[42, 0]),\n",
       "   midi.NoteOnEvent(tick=18984, channel=9, data=[42, 88]),\n",
       "   midi.NoteOnEvent(tick=18996, channel=9, data=[42, 0]),\n",
       "   midi.NoteOnEvent(tick=19008, channel=9, data=[42, 112]),\n",
       "   midi.NoteOnEvent(tick=19024, channel=9, data=[42, 0]),\n",
       "   midi.PitchWheelEvent(tick=19032, channel=9, data=[0, 59]),\n",
       "   midi.PitchWheelEvent(tick=19032, channel=9, data=[0, 64]),\n",
       "   midi.NoteOnEvent(tick=19032, channel=9, data=[42, 100]),\n",
       "   midi.NoteOnEvent(tick=19044, channel=9, data=[36, 0]),\n",
       "   midi.NoteOnEvent(tick=19048, channel=9, data=[42, 0]),\n",
       "   midi.NoteOnEvent(tick=19056, channel=9, data=[36, 125]),\n",
       "   midi.NoteOnEvent(tick=19056, channel=9, data=[44, 112]),\n",
       "   midi.NoteOnEvent(tick=19076, channel=9, data=[44, 0]),\n",
       "   midi.NoteOnEvent(tick=19076, channel=9, data=[38, 0]),\n",
       "   midi.NoteOnEvent(tick=19080, channel=9, data=[42, 100]),\n",
       "   midi.NoteOnEvent(tick=19092, channel=9, data=[42, 0]),\n",
       "   midi.NoteOnEvent(tick=19104, channel=9, data=[38, 125]),\n",
       "   midi.NoteOnEvent(tick=19104, channel=9, data=[42, 112]),\n",
       "   midi.NoteOnEvent(tick=19124, channel=9, data=[42, 0]),\n",
       "   midi.NoteOnEvent(tick=19128, channel=9, data=[42, 112]),\n",
       "   midi.NoteOnEvent(tick=19144, channel=9, data=[42, 0]),\n",
       "   midi.NoteOnEvent(tick=19152, channel=9, data=[44, 127]),\n",
       "   midi.NoteOnEvent(tick=19160, channel=9, data=[44, 0]),\n",
       "   midi.NoteOnEvent(tick=19160, channel=9, data=[36, 0]),\n",
       "   midi.NoteOnEvent(tick=19176, channel=9, data=[36, 100]),\n",
       "   midi.NoteOnEvent(tick=19176, channel=9, data=[44, 112]),\n",
       "   midi.NoteOnEvent(tick=19180, channel=9, data=[36, 0]),\n",
       "   midi.NoteOnEvent(tick=19184, channel=9, data=[44, 0]),\n",
       "   midi.NoteOnEvent(tick=19200, channel=9, data=[36, 125]),\n",
       "   midi.NoteOnEvent(tick=19200, channel=9, data=[42, 125]),\n",
       "   midi.NoteOnEvent(tick=19200, channel=9, data=[49, 125]),\n",
       "   midi.NoteOnEvent(tick=19220, channel=9, data=[42, 0]),\n",
       "   midi.NoteOnEvent(tick=19224, channel=9, data=[42, 100]),\n",
       "   midi.NoteOnEvent(tick=19240, channel=9, data=[42, 0]),\n",
       "   midi.PitchWheelEvent(tick=19248, channel=9, data=[0, 59]),\n",
       "   midi.NoteOnEvent(tick=19248, channel=9, data=[42, 112]),\n",
       "   midi.NoteOnEvent(tick=19260, channel=9, data=[42, 0]),\n",
       "   midi.NoteOnEvent(tick=19268, channel=9, data=[38, 0]),\n",
       "   midi.NoteOnEvent(tick=19272, channel=9, data=[42, 100]),\n",
       "   midi.NoteOnEvent(tick=19284, channel=9, data=[42, 0]),\n",
       "   midi.PitchWheelEvent(tick=19296, channel=9, data=[0, 64]),\n",
       "   midi.NoteOnEvent(tick=19296, channel=9, data=[38, 110]),\n",
       "   midi.NoteOnEvent(tick=19296, channel=9, data=[44, 125]),\n",
       "   midi.NoteOnEvent(tick=19316, channel=9, data=[49, 0]),\n",
       "   midi.NoteOnEvent(tick=19320, channel=9, data=[44, 0]),\n",
       "   midi.NoteOnEvent(tick=19320, channel=9, data=[42, 100]),\n",
       "   midi.NoteOnEvent(tick=19324, channel=9, data=[36, 0]),\n",
       "   midi.NoteOnEvent(tick=19328, channel=9, data=[42, 0]),\n",
       "   midi.NoteOnEvent(tick=19344, channel=9, data=[36, 112]),\n",
       "   midi.NoteOnEvent(tick=19344, channel=9, data=[42, 125]),\n",
       "   midi.NoteOnEvent(tick=19344, channel=9, data=[57, 112]),\n",
       "   midi.NoteOnEvent(tick=19364, channel=9, data=[42, 0]),\n",
       "   midi.NoteOnEvent(tick=19368, channel=9, data=[42, 88]),\n",
       "   midi.NoteOnEvent(tick=19388, channel=9, data=[42, 0]),\n",
       "   midi.NoteOnEvent(tick=19392, channel=9, data=[42, 112]),\n",
       "   midi.PitchWheelEvent(tick=19392, channel=9, data=[0, 60]),\n",
       "   midi.NoteOnEvent(tick=19408, channel=9, data=[42, 0]),\n",
       "   midi.PitchWheelEvent(tick=19416, channel=9, data=[0, 64]),\n",
       "   midi.NoteOnEvent(tick=19416, channel=9, data=[42, 112]),\n",
       "   midi.PitchWheelEvent(tick=19416, channel=9, data=[0, 60]),\n",
       "   midi.PitchWheelEvent(tick=19416, channel=9, data=[0, 64]),\n",
       "   midi.NoteOnEvent(tick=19436, channel=9, data=[42, 0]),\n",
       "   midi.NoteOnEvent(tick=19440, channel=9, data=[46, 125]),\n",
       "   midi.NoteOnEvent(tick=19456, channel=9, data=[38, 0]),\n",
       "   midi.NoteOnEvent(tick=19464, channel=9, data=[46, 0]),\n",
       "   midi.NoteOnEvent(tick=19464, channel=9, data=[42, 100]),\n",
       "   midi.NoteOnEvent(tick=19480, channel=9, data=[42, 0]),\n",
       "   midi.NoteOnEvent(tick=19488, channel=9, data=[38, 125]),\n",
       "   midi.NoteOnEvent(tick=19488, channel=9, data=[46, 112]),\n",
       "   midi.NoteOnEvent(tick=19512, channel=9, data=[46, 0]),\n",
       "   midi.NoteOnEvent(tick=19512, channel=9, data=[42, 112]),\n",
       "   midi.NoteOnEvent(tick=19528, channel=9, data=[42, 0]),\n",
       "   midi.NoteOnEvent(tick=19536, channel=9, data=[42, 112]),\n",
       "   midi.NoteOnEvent(tick=19544, channel=9, data=[36, 0]),\n",
       "   midi.NoteOnEvent(tick=19552, channel=9, data=[42, 0]),\n",
       "   midi.NoteOnEvent(tick=19560, channel=9, data=[36, 88]),\n",
       "   midi.NoteOnEvent(tick=19560, channel=9, data=[42, 100]),\n",
       "   midi.NoteOnEvent(tick=19564, channel=9, data=[36, 0]),\n",
       "   midi.NoteOnEvent(tick=19568, channel=9, data=[57, 0]),\n",
       "   midi.NoteOnEvent(tick=19572, channel=9, data=[42, 0]),\n",
       "   midi.NoteOnEvent(tick=19584, channel=9, data=[36, 112]),\n",
       "   midi.NoteOnEvent(tick=19584, channel=9, data=[42, 112]),\n",
       "   midi.NoteOnEvent(tick=19604, channel=9, data=[42, 0]),\n",
       "   midi.NoteOnEvent(tick=19608, channel=9, data=[42, 100]),\n",
       "   midi.NoteOnEvent(tick=19616, channel=9, data=[42, 0]),\n",
       "   midi.PitchWheelEvent(tick=19632, channel=9, data=[0, 60]),\n",
       "   midi.NoteOnEvent(tick=19632, channel=9, data=[42, 112]),\n",
       "   midi.NoteOnEvent(tick=19648, channel=9, data=[42, 0]),\n",
       "   midi.NoteOnEvent(tick=19656, channel=9, data=[38, 0]),\n",
       "   midi.PitchWheelEvent(tick=19656, channel=9, data=[0, 64]),\n",
       "   midi.PitchWheelEvent(tick=19656, channel=9, data=[0, 60]),\n",
       "   midi.PitchWheelEvent(tick=19656, channel=9, data=[0, 63]),\n",
       "   midi.PitchWheelEvent(tick=19656, channel=9, data=[0, 64]),\n",
       "   midi.NoteOnEvent(tick=19656, channel=9, data=[42, 100]),\n",
       "   midi.NoteOnEvent(tick=19664, channel=9, data=[42, 0]),\n",
       "   midi.NoteOnEvent(tick=19680, channel=9, data=[38, 125]),\n",
       "   midi.NoteOnEvent(tick=19680, channel=9, data=[44, 125]),\n",
       "   midi.PitchWheelEvent(tick=19680, channel=9, data=[0, 60]),\n",
       "   midi.NoteOnEvent(tick=19704, channel=9, data=[44, 0]),\n",
       "   midi.PitchWheelEvent(tick=19704, channel=9, data=[0, 64]),\n",
       "   midi.NoteOnEvent(tick=19704, channel=9, data=[42, 100]),\n",
       "   midi.NoteOnEvent(tick=19708, channel=9, data=[36, 0]),\n",
       "   midi.NoteOnEvent(tick=19712, channel=9, data=[42, 0]),\n",
       "   midi.NoteOnEvent(tick=19728, channel=9, data=[36, 112]),\n",
       "   midi.NoteOnEvent(tick=19728, channel=9, data=[42, 125]),\n",
       "   midi.NoteOnEvent(tick=19748, channel=9, data=[42, 0]),\n",
       "   midi.NoteOnEvent(tick=19752, channel=9, data=[42, 77]),\n",
       "   midi.PitchWheelEvent(tick=19752, channel=9, data=[0, 60]),\n",
       "   midi.PitchWheelEvent(tick=19752, channel=9, data=[0, 64]),\n",
       "   midi.NoteOnEvent(tick=19760, channel=9, data=[42, 0]),\n",
       "   midi.NoteOnEvent(tick=19776, channel=9, data=[42, 100]),\n",
       "   midi.NoteOnEvent(tick=19792, channel=9, data=[42, 0]),\n",
       "   midi.NoteOnEvent(tick=19796, channel=9, data=[36, 0]),\n",
       "   midi.NoteOnEvent(tick=19800, channel=9, data=[42, 100]),\n",
       "   midi.PitchWheelEvent(tick=19800, channel=9, data=[0, 63]),\n",
       "   midi.PitchWheelEvent(tick=19800, channel=9, data=[0, 64]),\n",
       "   midi.NoteOnEvent(tick=19812, channel=9, data=[42, 0]),\n",
       "   midi.NoteOnEvent(tick=19824, channel=9, data=[36, 112]),\n",
       "   midi.NoteOnEvent(tick=19824, channel=9, data=[42, 125]),\n",
       "   midi.NoteOnEvent(tick=19844, channel=9, data=[42, 0]),\n",
       "   midi.NoteOnEvent(tick=19848, channel=9, data=[38, 0]),\n",
       "   midi.NoteOnEvent(tick=19848, channel=9, data=[42, 100]),\n",
       "   midi.NoteOnEvent(tick=19868, channel=9, data=[42, 0]),\n",
       "   midi.NoteOnEvent(tick=19872, channel=9, data=[38, 125]),\n",
       "   midi.NoteOnEvent(tick=19872, channel=9, data=[44, 112]),\n",
       "   midi.NoteOnEvent(tick=19892, channel=9, data=[44, 0]),\n",
       "   midi.NoteOnEvent(tick=19896, channel=9, data=[42, 112]),\n",
       "   midi.NoteOnEvent(tick=19916, channel=9, data=[42, 0]),\n",
       "   midi.PitchWheelEvent(tick=19920, channel=9, data=[0, 61]),\n",
       "   midi.PitchWheelEvent(tick=19920, channel=9, data=[0, 64]),\n",
       "   midi.NoteOnEvent(tick=19920, channel=9, data=[46, 125]),\n",
       "   midi.NoteOnEvent(tick=19924, channel=9, data=[36, 0]),\n",
       "   midi.NoteOnEvent(tick=19944, channel=9, data=[46, 0]),\n",
       "   midi.NoteOnEvent(tick=19944, channel=9, data=[36, 112]),\n",
       "   midi.PitchWheelEvent(tick=19944, channel=9, data=[0, 59]),\n",
       "   midi.NoteOnEvent(tick=19944, channel=9, data=[42, 112]),\n",
       "   midi.NoteOnEvent(tick=19948, channel=9, data=[36, 0]),\n",
       "   midi.NoteOnEvent(tick=19960, channel=9, data=[42, 0]),\n",
       "   midi.PitchWheelEvent(tick=19968, channel=9, data=[0, 64]),\n",
       "   midi.NoteOnEvent(tick=19968, channel=9, data=[36, 125]),\n",
       "   midi.NoteOnEvent(tick=19968, channel=9, data=[42, 125]),\n",
       "   midi.NoteOnEvent(tick=19968, channel=9, data=[49, 125]),\n",
       "   midi.NoteOnEvent(tick=19988, channel=9, data=[42, 0]),\n",
       "   midi.NoteOnEvent(tick=19992, channel=9, data=[42, 100]),\n",
       "   midi.NoteOnEvent(tick=20012, channel=9, data=[42, 0]),\n",
       "   midi.NoteOnEvent(tick=20016, channel=9, data=[42, 125]),\n",
       "   midi.NoteOnEvent(tick=20036, channel=9, data=[42, 0]),\n",
       "   midi.NoteOnEvent(tick=20040, channel=9, data=[38, 0]),\n",
       "   midi.NoteOnEvent(tick=20040, channel=9, data=[42, 112]),\n",
       "   midi.NoteOnEvent(tick=20060, channel=9, data=[42, 0]),\n",
       "   midi.NoteOnEvent(tick=20064, channel=9, data=[38, 125]),\n",
       "   midi.NoteOnEvent(tick=20064, channel=9, data=[44, 125]),\n",
       "   midi.NoteOnEvent(tick=20080, channel=9, data=[49, 0]),\n",
       "   midi.NoteOnEvent(tick=20088, channel=9, data=[36, 0]),\n",
       "   midi.NoteOnEvent(tick=20088, channel=9, data=[44, 0]),\n",
       "   midi.NoteOnEvent(tick=20088, channel=9, data=[42, 112]),\n",
       "   midi.NoteOnEvent(tick=20104, channel=9, data=[42, 0]),\n",
       "   midi.NoteOnEvent(tick=20112, channel=9, data=[36, 112]),\n",
       "   midi.NoteOnEvent(tick=20112, channel=9, data=[42, 112]),\n",
       "   midi.NoteOnEvent(tick=20112, channel=9, data=[57, 125]),\n",
       "   midi.NoteOnEvent(tick=20132, channel=9, data=[42, 0]),\n",
       "   midi.NoteOnEvent(tick=20136, channel=9, data=[42, 88]),\n",
       "   midi.NoteOnEvent(tick=20152, channel=9, data=[42, 0]),\n",
       "   midi.NoteOnEvent(tick=20160, channel=9, data=[42, 112]),\n",
       "   midi.NoteOnEvent(tick=20176, channel=9, data=[42, 0]),\n",
       "   midi.NoteOnEvent(tick=20184, channel=9, data=[42, 112]),\n",
       "   midi.NoteOnEvent(tick=20204, channel=9, data=[42, 0]),\n",
       "   midi.NoteOnEvent(tick=20208, channel=9, data=[46, 112]),\n",
       "   midi.NoteOnEvent(tick=20224, channel=9, data=[38, 0]),\n",
       "   midi.NoteOnEvent(tick=20232, channel=9, data=[46, 0]),\n",
       "   midi.NoteOnEvent(tick=20232, channel=9, data=[42, 100]),\n",
       "   midi.NoteOnEvent(tick=20252, channel=9, data=[42, 0]),\n",
       "   midi.NoteOnEvent(tick=20256, channel=9, data=[38, 125]),\n",
       "   midi.NoteOnEvent(tick=20256, channel=9, data=[46, 112]),\n",
       "   midi.NoteOnEvent(tick=20280, channel=9, data=[46, 0]),\n",
       "   midi.NoteOnEvent(tick=20280, channel=9, data=[42, 112]),\n",
       "   midi.NoteOnEvent(tick=20292, channel=9, data=[57, 0]),\n",
       "   midi.NoteOnEvent(tick=20296, channel=9, data=[42, 0]),\n",
       "   midi.NoteOnEvent(tick=20304, channel=9, data=[42, 112]),\n",
       "   midi.NoteOnEvent(tick=20312, channel=9, data=[36, 0]),\n",
       "   midi.NoteOnEvent(tick=20320, channel=9, data=[42, 0]),\n",
       "   midi.NoteOnEvent(tick=20328, channel=9, data=[36, 77]),\n",
       "   midi.NoteOnEvent(tick=20328, channel=9, data=[42, 100]),\n",
       "   midi.PitchWheelEvent(tick=20328, channel=9, data=[0, 60]),\n",
       "   midi.PitchWheelEvent(tick=20328, channel=9, data=[0, 64]),\n",
       "   midi.NoteOnEvent(tick=20332, channel=9, data=[36, 0]),\n",
       "   midi.NoteOnEvent(tick=20340, channel=9, data=[42, 0]),\n",
       "   midi.NoteOnEvent(tick=20352, channel=9, data=[36, 125]),\n",
       "   midi.NoteOnEvent(tick=20352, channel=9, data=[42, 125]),\n",
       "   midi.NoteOnEvent(tick=20372, channel=9, data=[42, 0]),\n",
       "   midi.NoteOnEvent(tick=20376, channel=9, data=[42, 100]),\n",
       "   midi.NoteOnEvent(tick=20396, channel=9, data=[42, 0]),\n",
       "   midi.NoteOnEvent(tick=20400, channel=9, data=[42, 112]),\n",
       "   midi.NoteOnEvent(tick=20416, channel=9, data=[42, 0]),\n",
       "   midi.NoteOnEvent(tick=20420, channel=9, data=[38, 0]),\n",
       "   midi.NoteOnEvent(tick=20424, channel=9, data=[42, 100]),\n",
       "   midi.NoteOnEvent(tick=20440, channel=9, data=[42, 0]),\n",
       "   midi.NoteOnEvent(tick=20448, channel=9, data=[38, 125]),\n",
       "   midi.NoteOnEvent(tick=20448, channel=9, data=[44, 125]),\n",
       "   midi.NoteOnEvent(tick=20468, channel=9, data=[36, 0]),\n",
       "   midi.NoteOnEvent(tick=20472, channel=9, data=[44, 0]),\n",
       "   midi.NoteOnEvent(tick=20472, channel=9, data=[42, 112]),\n",
       "   midi.NoteOnEvent(tick=20484, channel=9, data=[42, 0]),\n",
       "   midi.NoteOnEvent(tick=20496, channel=9, data=[36, 125]),\n",
       "   midi.NoteOnEvent(tick=20496, channel=9, data=[42, 125]),\n",
       "   midi.NoteOnEvent(tick=20512, channel=9, data=[42, 0]),\n",
       "   midi.NoteOnEvent(tick=20520, channel=9, data=[42, 100]),\n",
       "   midi.NoteOnEvent(tick=20536, channel=9, data=[42, 0]),\n",
       "   midi.NoteOnEvent(tick=20544, channel=9, data=[42, 125]),\n",
       "   midi.NoteOnEvent(tick=20556, channel=9, data=[36, 0]),\n",
       "   midi.NoteOnEvent(tick=20564, channel=9, data=[42, 0]),\n",
       "   midi.NoteOnEvent(tick=20568, channel=9, data=[42, 100]),\n",
       "   midi.NoteOnEvent(tick=20588, channel=9, data=[42, 0]),\n",
       "   midi.NoteOnEvent(tick=20592, channel=9, data=[36, 112]),\n",
       "   midi.NoteOnEvent(tick=20592, channel=9, data=[44, 125]),\n",
       "   midi.PitchWheelEvent(tick=20592, channel=9, data=[0, 60]),\n",
       "   midi.PitchWheelEvent(tick=20592, channel=9, data=[0, 64]),\n",
       "   midi.NoteOnEvent(tick=20608, channel=9, data=[38, 0]),\n",
       "   midi.NoteOnEvent(tick=20612, channel=9, data=[44, 0]),\n",
       "   midi.NoteOnEvent(tick=20616, channel=9, data=[42, 100]),\n",
       "   midi.NoteOnEvent(tick=20636, channel=9, data=[42, 0]),\n",
       "   midi.NoteOnEvent(tick=20640, channel=9, data=[38, 125]),\n",
       "   midi.NoteOnEvent(tick=20640, channel=9, data=[44, 125]),\n",
       "   midi.NoteOnEvent(tick=20660, channel=9, data=[44, 0]),\n",
       "   midi.NoteOnEvent(tick=20664, channel=9, data=[42, 100]),\n",
       "   midi.NoteOnEvent(tick=20676, channel=9, data=[36, 0]),\n",
       "   midi.NoteOnEvent(tick=20684, channel=9, data=[42, 0]),\n",
       "   midi.NoteOnEvent(tick=20688, channel=9, data=[36, 77]),\n",
       "   midi.NoteOnEvent(tick=20688, channel=9, data=[44, 125]),\n",
       "   midi.NoteOnEvent(tick=20692, channel=9, data=[36, 0]),\n",
       "   midi.NoteOnEvent(tick=20712, channel=9, data=[44, 0]),\n",
       "   midi.NoteOnEvent(tick=20712, channel=9, data=[36, 112]),\n",
       "   midi.NoteOnEvent(tick=20712, channel=9, data=[42, 112]),\n",
       "   midi.NoteOnEvent(tick=20720, channel=9, data=[42, 0]),\n",
       "   midi.NoteOnEvent(tick=20720, channel=9, data=[36, 0]),\n",
       "   midi.NoteOnEvent(tick=20736, channel=9, data=[42, 112]),\n",
       "   midi.NoteOnEvent(tick=20736, channel=9, data=[57, 100]),\n",
       "   midi.NoteOnEvent(tick=20736, channel=9, data=[49, 100]),\n",
       "   midi.NoteOnEvent(tick=20736, channel=9, data=[36, 112]),\n",
       "   midi.NoteOnEvent(tick=20768, channel=9, data=[38, 0]),\n",
       "   midi.NoteOnEvent(tick=20792, channel=9, data=[42, 0]),\n",
       "   midi.NoteOnEvent(tick=20832, channel=9, data=[42, 112]),\n",
       "   midi.NoteOnEvent(tick=20892, channel=9, data=[36, 0]),\n",
       "   midi.NoteOnEvent(tick=20896, channel=9, data=[49, 0]),\n",
       "   midi.NoteOnEvent(tick=20896, channel=9, data=[57, 0]),\n",
       "   midi.NoteOnEvent(tick=20900, channel=9, data=[42, 0]),\n",
       "   midi.NoteOnEvent(tick=20928, channel=9, data=[42, 112]),\n",
       "   midi.NoteOnEvent(tick=20984, channel=9, data=[42, 0]),\n",
       "   midi.NoteOnEvent(tick=21024, channel=9, data=[42, 112]),\n",
       "   midi.NoteOnEvent(tick=21024, channel=9, data=[42, 112]),\n",
       "   midi.NoteOnEvent(tick=21025, channel=9, data=[42, 0]),\n",
       "   midi.NoteOnEvent(tick=21096, channel=9, data=[42, 0]),\n",
       "   midi.NoteOnEvent(tick=21120, channel=9, data=[42, 112]),\n",
       "   midi.NoteOnEvent(tick=21120, channel=9, data=[42, 112]),\n",
       "   midi.NoteOnEvent(tick=21121, channel=9, data=[42, 0]),\n",
       "   midi.NoteOnEvent(tick=21188, channel=9, data=[42, 0]),\n",
       "   midi.NoteOnEvent(tick=21216, channel=9, data=[42, 112]),\n",
       "   midi.NoteOnEvent(tick=21284, channel=9, data=[42, 0]),\n",
       "   midi.NoteOnEvent(tick=21312, channel=9, data=[42, 125]),\n",
       "   midi.NoteOnEvent(tick=21380, channel=9, data=[42, 0]),\n",
       "   midi.NoteOnEvent(tick=21408, channel=9, data=[42, 112]),\n",
       "   midi.NoteOnEvent(tick=21480, channel=9, data=[42, 0]),\n",
       "   midi.NoteOnEvent(tick=21504, channel=9, data=[42, 112]),\n",
       "   midi.NoteOnEvent(tick=21568, channel=9, data=[42, 0]),\n",
       "   midi.NoteOnEvent(tick=21600, channel=9, data=[42, 112]),\n",
       "   midi.NoteOnEvent(tick=21668, channel=9, data=[42, 0]),\n",
       "   midi.NoteOnEvent(tick=21696, channel=9, data=[42, 112]),\n",
       "   midi.NoteOnEvent(tick=21760, channel=9, data=[42, 0]),\n",
       "   midi.NoteOnEvent(tick=21792, channel=9, data=[42, 112]),\n",
       "   midi.NoteOnEvent(tick=21856, channel=9, data=[42, 0]),\n",
       "   midi.NoteOnEvent(tick=21888, channel=9, data=[42, 125]),\n",
       "   midi.NoteOnEvent(tick=21960, channel=9, data=[42, 0]),\n",
       "   midi.NoteOnEvent(tick=21984, channel=9, data=[42, 112]),\n",
       "   midi.NoteOnEvent(tick=22052, channel=9, data=[42, 0]),\n",
       "   midi.NoteOnEvent(tick=22080, channel=9, data=[42, 112]),\n",
       "   midi.NoteOnEvent(tick=22144, channel=9, data=[42, 0]),\n",
       "   midi.NoteOnEvent(tick=22176, channel=9, data=[42, 112]),\n",
       "   midi.NoteOnEvent(tick=22240, channel=9, data=[42, 0]),\n",
       "   midi.NoteOnEvent(tick=22272, channel=9, data=[42, 112]),\n",
       "   midi.PitchWheelEvent(tick=22320, channel=9, data=[0, 60]),\n",
       "   midi.PitchWheelEvent(tick=22320, channel=9, data=[0, 64]),\n",
       "   midi.NoteOnEvent(tick=22332, channel=9, data=[42, 0]),\n",
       "   midi.NoteOnEvent(tick=22368, channel=9, data=[42, 112]),\n",
       "   midi.NoteOnEvent(tick=22432, channel=9, data=[42, 0]),\n",
       "   midi.NoteOnEvent(tick=22464, channel=9, data=[42, 112]),\n",
       "   midi.NoteOnEvent(tick=22524, channel=9, data=[42, 0]),\n",
       "   midi.NoteOnEvent(tick=22560, channel=9, data=[42, 112]),\n",
       "   midi.NoteOnEvent(tick=22628, channel=9, data=[42, 0]),\n",
       "   midi.NoteOnEvent(tick=22656, channel=9, data=[42, 112]),\n",
       "   midi.NoteOnEvent(tick=22724, channel=9, data=[42, 0]),\n",
       "   midi.NoteOnEvent(tick=22752, channel=9, data=[42, 125]),\n",
       "   midi.NoteOnEvent(tick=22816, channel=9, data=[42, 0]),\n",
       "   midi.NoteOnEvent(tick=22848, channel=9, data=[42, 125]),\n",
       "   midi.NoteOnEvent(tick=22908, channel=9, data=[42, 0]),\n",
       "   midi.NoteOnEvent(tick=22944, channel=9, data=[42, 112]),\n",
       "   midi.NoteOnEvent(tick=23008, channel=9, data=[42, 0]),\n",
       "   midi.NoteOnEvent(tick=23040, channel=9, data=[42, 125]),\n",
       "   midi.NoteOnEvent(tick=23100, channel=9, data=[42, 0]),\n",
       "   midi.NoteOnEvent(tick=23136, channel=9, data=[42, 112]),\n",
       "   midi.NoteOnEvent(tick=23204, channel=9, data=[42, 0]),\n",
       "   midi.NoteOnEvent(tick=23232, channel=9, data=[42, 112]),\n",
       "   midi.NoteOnEvent(tick=23288, channel=9, data=[42, 0]),\n",
       "   midi.NoteOnEvent(tick=23328, channel=9, data=[42, 125]),\n",
       "   midi.NoteOnEvent(tick=23396, channel=9, data=[42, 0]),\n",
       "   midi.NoteOnEvent(tick=23424, channel=9, data=[42, 125]),\n",
       "   midi.NoteOnEvent(tick=23488, channel=9, data=[42, 0]),\n",
       "   midi.NoteOnEvent(tick=23520, channel=9, data=[42, 112]),\n",
       "   midi.PitchWheelEvent(tick=23520, channel=9, data=[0, 61]),\n",
       "   midi.PitchWheelEvent(tick=23520, channel=9, data=[0, 64]),\n",
       "   midi.NoteOnEvent(tick=23576, channel=9, data=[42, 0]),\n",
       "   midi.NoteOnEvent(tick=23616, channel=9, data=[42, 112]),\n",
       "   midi.NoteOnEvent(tick=23664, channel=9, data=[42, 0]),\n",
       "   midi.NoteOnEvent(tick=23664, channel=9, data=[48, 112]),\n",
       "   midi.NoteOnEvent(tick=23684, channel=9, data=[48, 0]),\n",
       "   midi.NoteOnEvent(tick=23712, channel=9, data=[45, 112]),\n",
       "   midi.NoteOnEvent(tick=23712, channel=9, data=[47, 125]),\n",
       "   midi.NoteOnEvent(tick=23713, channel=9, data=[47, 0]),\n",
       "   midi.NoteOnEvent(tick=23724, channel=9, data=[45, 0]),\n",
       "   midi.NoteOnEvent(tick=23736, channel=9, data=[45, 125]),\n",
       "   midi.NoteOnEvent(tick=23748, channel=9, data=[45, 0]),\n",
       "   midi.NoteOnEvent(tick=23760, channel=9, data=[43, 125]),\n",
       "   midi.NoteOnEvent(tick=23788, channel=9, data=[43, 0]),\n",
       "   midi.NoteOnEvent(tick=23808, channel=9, data=[36, 125]),\n",
       "   midi.NoteOnEvent(tick=23808, channel=9, data=[42, 125]),\n",
       "   midi.NoteOnEvent(tick=23808, channel=9, data=[49, 125]),\n",
       "   midi.NoteOnEvent(tick=23824, channel=9, data=[42, 0]),\n",
       "   midi.NoteOnEvent(tick=23832, channel=9, data=[42, 88]),\n",
       "   midi.NoteOnEvent(tick=23848, channel=9, data=[42, 0]),\n",
       "   midi.NoteOnEvent(tick=23856, channel=9, data=[42, 112]),\n",
       "   midi.NoteOnEvent(tick=23872, channel=9, data=[42, 0]),\n",
       "   midi.NoteOnEvent(tick=23880, channel=9, data=[42, 112]),\n",
       "   midi.NoteOnEvent(tick=23896, channel=9, data=[42, 0]),\n",
       "   midi.NoteOnEvent(tick=23904, channel=9, data=[38, 125]),\n",
       "   midi.NoteOnEvent(tick=23904, channel=9, data=[46, 125]),\n",
       "   midi.NoteOnEvent(tick=23920, channel=9, data=[36, 0]),\n",
       "   midi.NoteOnEvent(tick=23924, channel=9, data=[46, 0]),\n",
       "   midi.NoteOnEvent(tick=23928, channel=9, data=[42, 112]),\n",
       "   midi.NoteOnEvent(tick=23944, channel=9, data=[42, 0]),\n",
       "   midi.NoteOnEvent(tick=23952, channel=9, data=[36, 125]),\n",
       "   midi.NoteOnEvent(tick=23952, channel=9, data=[42, 125]),\n",
       "   midi.NoteOnEvent(tick=23968, channel=9, data=[42, 0]),\n",
       "   midi.NoteOnEvent(tick=23976, channel=9, data=[42, 100]),\n",
       "   midi.NoteOnEvent(tick=23992, channel=9, data=[42, 0]),\n",
       "   midi.PitchWheelEvent(tick=24000, channel=9, data=[0, 61]),\n",
       "   midi.PitchWheelEvent(tick=24000, channel=9, data=[0, 64]),\n",
       "   midi.NoteOnEvent(tick=24000, channel=9, data=[42, 77]),\n",
       "   midi.NoteOnEvent(tick=24008, channel=9, data=[42, 0]),\n",
       "   midi.NoteOnEvent(tick=24024, channel=9, data=[42, 100]),\n",
       "   midi.NoteOnEvent(tick=24040, channel=9, data=[42, 0]),\n",
       "   midi.NoteOnEvent(tick=24048, channel=9, data=[44, 112]),\n",
       "   midi.NoteOnEvent(tick=24068, channel=9, data=[44, 0]),\n",
       "   midi.NoteOnEvent(tick=24072, channel=9, data=[38, 0]),\n",
       "   midi.NoteOnEvent(tick=24072, channel=9, data=[42, 112]),\n",
       "   midi.NoteOnEvent(tick=24092, channel=9, data=[42, 0]),\n",
       "   midi.NoteOnEvent(tick=24096, channel=9, data=[38, 112]),\n",
       "   midi.NoteOnEvent(tick=24096, channel=9, data=[44, 125]),\n",
       "   midi.NoteOnEvent(tick=24100, channel=9, data=[49, 0]),\n",
       "   midi.NoteOnEvent(tick=24116, channel=9, data=[44, 0]),\n",
       "   midi.NoteOnEvent(tick=24120, channel=9, data=[42, 112]),\n",
       "   midi.NoteOnEvent(tick=24136, channel=9, data=[42, 0]),\n",
       "   midi.NoteOnEvent(tick=24144, channel=9, data=[42, 125]),\n",
       "   midi.NoteOnEvent(tick=24160, channel=9, data=[42, 0]),\n",
       "   midi.NoteOnEvent(tick=24160, channel=9, data=[36, 0]),\n",
       "   midi.NoteOnEvent(tick=24168, channel=9, data=[36, 88]),\n",
       "   midi.NoteOnEvent(tick=24168, channel=9, data=[42, 112]),\n",
       "   midi.NoteOnEvent(tick=24172, channel=9, data=[36, 0]),\n",
       "   midi.NoteOnEvent(tick=24180, channel=9, data=[42, 0]),\n",
       "   midi.NoteOnEvent(tick=24192, channel=9, data=[36, 112]),\n",
       "   midi.NoteOnEvent(tick=24192, channel=9, data=[42, 125]),\n",
       "   midi.NoteOnEvent(tick=24208, channel=9, data=[42, 0]),\n",
       "   midi.NoteOnEvent(tick=24216, channel=9, data=[42, 112]),\n",
       "   midi.NoteOnEvent(tick=24232, channel=9, data=[42, 0]),\n",
       "   midi.NoteOnEvent(tick=24240, channel=9, data=[42, 112]),\n",
       "   midi.NoteOnEvent(tick=24256, channel=9, data=[42, 0]),\n",
       "   midi.NoteOnEvent(tick=24260, channel=9, data=[38, 0]),\n",
       "   midi.NoteOnEvent(tick=24264, channel=9, data=[42, 100]),\n",
       "   midi.NoteOnEvent(tick=24288, channel=9, data=[42, 0]),\n",
       "   midi.NoteOnEvent(tick=24288, channel=9, data=[38, 125]),\n",
       "   midi.PitchWheelEvent(tick=24288, channel=9, data=[0, 58]),\n",
       "   midi.NoteOnEvent(tick=24288, channel=9, data=[46, 125]),\n",
       "   midi.PitchWheelEvent(tick=24288, channel=9, data=[0, 64]),\n",
       "   midi.NoteOnEvent(tick=24304, channel=9, data=[46, 0]),\n",
       "   midi.NoteOnEvent(tick=24308, channel=9, data=[36, 0]),\n",
       "   midi.NoteOnEvent(tick=24312, channel=9, data=[42, 100]),\n",
       "   midi.NoteOnEvent(tick=24328, channel=9, data=[42, 0]),\n",
       "   midi.NoteOnEvent(tick=24336, channel=9, data=[36, 125]),\n",
       "   midi.NoteOnEvent(tick=24336, channel=9, data=[42, 125]),\n",
       "   midi.NoteOnEvent(tick=24356, channel=9, data=[42, 0]),\n",
       "   midi.NoteOnEvent(tick=24360, channel=9, data=[42, 100]),\n",
       "   midi.NoteOnEvent(tick=24388, channel=9, data=[42, 0]),\n",
       "   midi.NoteOnEvent(tick=24408, channel=9, data=[42, 100]),\n",
       "   midi.NoteOnEvent(tick=24428, channel=9, data=[42, 0]),\n",
       "   midi.NoteOnEvent(tick=24432, channel=9, data=[44, 125]),\n",
       "   midi.NoteOnEvent(tick=24452, channel=9, data=[44, 0]),\n",
       "   midi.NoteOnEvent(tick=24456, channel=9, data=[38, 0]),\n",
       "   midi.NoteOnEvent(tick=24456, channel=9, data=[42, 112]),\n",
       "   midi.NoteOnEvent(tick=24476, channel=9, data=[42, 0]),\n",
       "   midi.NoteOnEvent(tick=24480, channel=9, data=[38, 125]),\n",
       "   midi.NoteOnEvent(tick=24480, channel=9, data=[44, 125]),\n",
       "   midi.NoteOnEvent(tick=24500, channel=9, data=[44, 0]),\n",
       "   midi.NoteOnEvent(tick=24504, channel=9, data=[42, 112]),\n",
       "   midi.NoteOnEvent(tick=24520, channel=9, data=[42, 0]),\n",
       "   midi.NoteOnEvent(tick=24528, channel=9, data=[42, 125]),\n",
       "   midi.NoteOnEvent(tick=24544, channel=9, data=[42, 0]),\n",
       "   midi.NoteOnEvent(tick=24544, channel=9, data=[36, 0]),\n",
       "   midi.NoteOnEvent(tick=24552, channel=9, data=[36, 88]),\n",
       "   midi.NoteOnEvent(tick=24552, channel=9, data=[42, 100]),\n",
       "   midi.NoteOnEvent(tick=24556, channel=9, data=[36, 0]),\n",
       "   midi.NoteOnEvent(tick=24564, channel=9, data=[42, 0]),\n",
       "   midi.NoteOnEvent(tick=24576, channel=9, data=[36, 112]),\n",
       "   midi.NoteOnEvent(tick=24576, channel=9, data=[42, 112]),\n",
       "   midi.NoteOnEvent(tick=24592, channel=9, data=[42, 0]),\n",
       "   midi.NoteOnEvent(tick=24600, channel=9, data=[42, 100]),\n",
       "   midi.NoteOnEvent(tick=24616, channel=9, data=[42, 0]),\n",
       "   midi.NoteOnEvent(tick=24624, channel=9, data=[42, 125]),\n",
       "   midi.NoteOnEvent(tick=24640, channel=9, data=[42, 0]),\n",
       "   midi.NoteOnEvent(tick=24648, channel=9, data=[38, 0]),\n",
       "   midi.NoteOnEvent(tick=24648, channel=9, data=[42, 100]),\n",
       "   midi.NoteOnEvent(tick=24664, channel=9, data=[42, 0]),\n",
       "   midi.NoteOnEvent(tick=24672, channel=9, data=[38, 125]),\n",
       "   midi.NoteOnEvent(tick=24672, channel=9, data=[44, 125]),\n",
       "   midi.NoteOnEvent(tick=24696, channel=9, data=[44, 0]),\n",
       "   midi.NoteOnEvent(tick=24696, channel=9, data=[36, 0]),\n",
       "   midi.NoteOnEvent(tick=24696, channel=9, data=[42, 112]),\n",
       "   midi.NoteOnEvent(tick=24712, channel=9, data=[42, 0]),\n",
       "   midi.NoteOnEvent(tick=24720, channel=9, data=[36, 125]),\n",
       "   midi.NoteOnEvent(tick=24720, channel=9, data=[42, 125]),\n",
       "   midi.NoteOnEvent(tick=24740, channel=9, data=[42, 0]),\n",
       "   midi.NoteOnEvent(tick=24744, channel=9, data=[42, 112]),\n",
       "   midi.PitchWheelEvent(tick=24744, channel=9, data=[0, 63]),\n",
       "   midi.PitchWheelEvent(tick=24744, channel=9, data=[0, 64]),\n",
       "   midi.NoteOnEvent(tick=24784, channel=9, data=[42, 0]),\n",
       "   midi.NoteOnEvent(tick=24792, channel=9, data=[42, 100]),\n",
       "   midi.NoteOnEvent(tick=24808, channel=9, data=[42, 0]),\n",
       "   midi.NoteOnEvent(tick=24816, channel=9, data=[46, 125]),\n",
       "   midi.NoteOnEvent(tick=24836, channel=9, data=[46, 0]),\n",
       "   midi.NoteOnEvent(tick=24840, channel=9, data=[38, 0]),\n",
       "   midi.NoteOnEvent(tick=24840, channel=9, data=[42, 100]),\n",
       "   midi.NoteOnEvent(tick=24856, channel=9, data=[42, 0]),\n",
       "   midi.NoteOnEvent(tick=24864, channel=9, data=[38, 125]),\n",
       "   midi.NoteOnEvent(tick=24864, channel=9, data=[46, 125]),\n",
       "   midi.NoteOnEvent(tick=24884, channel=9, data=[46, 0]),\n",
       "   midi.NoteOnEvent(tick=24888, channel=9, data=[42, 112]),\n",
       "   midi.NoteOnEvent(tick=24904, channel=9, data=[42, 0]),\n",
       "   midi.NoteOnEvent(tick=24912, channel=9, data=[42, 125]),\n",
       "   midi.NoteOnEvent(tick=24924, channel=9, data=[36, 0]),\n",
       "   midi.NoteOnEvent(tick=24932, channel=9, data=[42, 0]),\n",
       "   midi.NoteOnEvent(tick=24936, channel=9, data=[36, 88]),\n",
       "   midi.NoteOnEvent(tick=24936, channel=9, data=[42, 100]),\n",
       "   midi.NoteOnEvent(tick=24940, channel=9, data=[36, 0]),\n",
       "   midi.NoteOnEvent(tick=24944, channel=9, data=[42, 0]),\n",
       "   midi.NoteOnEvent(tick=24960, channel=9, data=[36, 112]),\n",
       "   midi.NoteOnEvent(tick=24960, channel=9, data=[42, 125]),\n",
       "   midi.NoteOnEvent(tick=24980, channel=9, data=[42, 0]),\n",
       "   midi.NoteOnEvent(tick=24984, channel=9, data=[42, 77]),\n",
       "   midi.NoteOnEvent(tick=24996, channel=9, data=[42, 0]),\n",
       "   midi.NoteOnEvent(tick=25008, channel=9, data=[42, 112]),\n",
       "   midi.NoteOnEvent(tick=25028, channel=9, data=[42, 0]),\n",
       "   midi.NoteOnEvent(tick=25028, channel=9, data=[38, 0]),\n",
       "   midi.NoteOnEvent(tick=25032, channel=9, data=[42, 88]),\n",
       "   midi.NoteOnEvent(tick=25052, channel=9, data=[42, 0]),\n",
       "   midi.NoteOnEvent(tick=25056, channel=9, data=[38, 125]),\n",
       "   midi.NoteOnEvent(tick=25056, channel=9, data=[44, 112]),\n",
       "   midi.NoteOnEvent(tick=25080, channel=9, data=[44, 0]),\n",
       "   midi.NoteOnEvent(tick=25080, channel=9, data=[42, 115]),\n",
       "   midi.NoteOnEvent(tick=25084, channel=9, data=[36, 0]),\n",
       "   midi.NoteOnEvent(tick=25092, channel=9, data=[42, 0]),\n",
       "   midi.NoteOnEvent(tick=25104, channel=9, data=[36, 125]),\n",
       "   midi.NoteOnEvent(tick=25104, channel=9, data=[42, 125]),\n",
       "   midi.NoteOnEvent(tick=25120, channel=9, data=[42, 0]),\n",
       "   midi.NoteOnEvent(tick=25128, channel=9, data=[42, 88]),\n",
       "   midi.NoteOnEvent(tick=25140, channel=9, data=[42, 0]),\n",
       "   midi.NoteOnEvent(tick=25152, channel=9, data=[42, 112]),\n",
       "   midi.NoteOnEvent(tick=25168, channel=9, data=[42, 0]),\n",
       "   midi.PitchWheelEvent(tick=25176, channel=9, data=[0, 59]),\n",
       "   midi.PitchWheelEvent(tick=25176, channel=9, data=[0, 64]),\n",
       "   midi.NoteOnEvent(tick=25176, channel=9, data=[42, 100]),\n",
       "   midi.NoteOnEvent(tick=25188, channel=9, data=[36, 0]),\n",
       "   midi.NoteOnEvent(tick=25192, channel=9, data=[42, 0]),\n",
       "   midi.NoteOnEvent(tick=25200, channel=9, data=[36, 125]),\n",
       "   midi.NoteOnEvent(tick=25200, channel=9, data=[44, 112]),\n",
       "   midi.NoteOnEvent(tick=25220, channel=9, data=[44, 0]),\n",
       "   midi.NoteOnEvent(tick=25220, channel=9, data=[38, 0]),\n",
       "   midi.NoteOnEvent(tick=25224, channel=9, data=[42, 100]),\n",
       "   midi.NoteOnEvent(tick=25236, channel=9, data=[42, 0]),\n",
       "   midi.NoteOnEvent(tick=25248, channel=9, data=[38, 125]),\n",
       "   midi.NoteOnEvent(tick=25248, channel=9, data=[42, 112]),\n",
       "   midi.NoteOnEvent(tick=25268, channel=9, data=[42, 0]),\n",
       "   midi.NoteOnEvent(tick=25272, channel=9, data=[42, 112]),\n",
       "   midi.NoteOnEvent(tick=25288, channel=9, data=[42, 0]),\n",
       "   midi.NoteOnEvent(tick=25296, channel=9, data=[44, 127]),\n",
       "   midi.NoteOnEvent(tick=25304, channel=9, data=[44, 0]),\n",
       "   midi.NoteOnEvent(tick=25304, channel=9, data=[36, 0]),\n",
       "   midi.NoteOnEvent(tick=25320, channel=9, data=[36, 100]),\n",
       "   midi.NoteOnEvent(tick=25320, channel=9, data=[44, 112]),\n",
       "   midi.NoteOnEvent(tick=25324, channel=9, data=[36, 0]),\n",
       "   midi.NoteOnEvent(tick=25328, channel=9, data=[44, 0]),\n",
       "   midi.NoteOnEvent(tick=25344, channel=9, data=[36, 125]),\n",
       "   midi.NoteOnEvent(tick=25344, channel=9, data=[42, 125]),\n",
       "   midi.NoteOnEvent(tick=25344, channel=9, data=[49, 125]),\n",
       "   midi.NoteOnEvent(tick=25364, channel=9, data=[42, 0]),\n",
       "   midi.NoteOnEvent(tick=25368, channel=9, data=[42, 100]),\n",
       "   midi.NoteOnEvent(tick=25384, channel=9, data=[42, 0]),\n",
       "   midi.PitchWheelEvent(tick=25392, channel=9, data=[0, 59]),\n",
       "   midi.NoteOnEvent(tick=25392, channel=9, data=[42, 112]),\n",
       "   midi.NoteOnEvent(tick=25404, channel=9, data=[42, 0]),\n",
       "   midi.NoteOnEvent(tick=25412, channel=9, data=[38, 0]),\n",
       "   midi.NoteOnEvent(tick=25416, channel=9, data=[42, 100]),\n",
       "   midi.NoteOnEvent(tick=25428, channel=9, data=[42, 0]),\n",
       "   midi.PitchWheelEvent(tick=25440, channel=9, data=[0, 64]),\n",
       "   midi.NoteOnEvent(tick=25440, channel=9, data=[38, 110]),\n",
       "   midi.NoteOnEvent(tick=25440, channel=9, data=[44, 125]),\n",
       "   midi.NoteOnEvent(tick=25460, channel=9, data=[49, 0]),\n",
       "   midi.NoteOnEvent(tick=25464, channel=9, data=[44, 0]),\n",
       "   midi.NoteOnEvent(tick=25464, channel=9, data=[42, 100]),\n",
       "   midi.NoteOnEvent(tick=25468, channel=9, data=[36, 0]),\n",
       "   midi.NoteOnEvent(tick=25472, channel=9, data=[42, 0]),\n",
       "   midi.NoteOnEvent(tick=25488, channel=9, data=[36, 112]),\n",
       "   midi.NoteOnEvent(tick=25488, channel=9, data=[42, 125]),\n",
       "   midi.NoteOnEvent(tick=25488, channel=9, data=[57, 112]),\n",
       "   midi.NoteOnEvent(tick=25508, channel=9, data=[42, 0]),\n",
       "   midi.NoteOnEvent(tick=25512, channel=9, data=[42, 88]),\n",
       "   midi.NoteOnEvent(tick=25532, channel=9, data=[42, 0]),\n",
       "   midi.NoteOnEvent(tick=25536, channel=9, data=[42, 112]),\n",
       "   midi.PitchWheelEvent(tick=25536, channel=9, data=[0, 60]),\n",
       "   midi.NoteOnEvent(tick=25552, channel=9, data=[42, 0]),\n",
       "   midi.PitchWheelEvent(tick=25560, channel=9, data=[0, 64]),\n",
       "   midi.NoteOnEvent(tick=25560, channel=9, data=[42, 112]),\n",
       "   midi.PitchWheelEvent(tick=25560, channel=9, data=[0, 60]),\n",
       "   midi.PitchWheelEvent(tick=25560, channel=9, data=[0, 64]),\n",
       "   midi.NoteOnEvent(tick=25580, channel=9, data=[42, 0]),\n",
       "   midi.NoteOnEvent(tick=25584, channel=9, data=[46, 125]),\n",
       "   midi.NoteOnEvent(tick=25600, channel=9, data=[38, 0]),\n",
       "   midi.NoteOnEvent(tick=25608, channel=9, data=[46, 0]),\n",
       "   midi.NoteOnEvent(tick=25608, channel=9, data=[42, 100]),\n",
       "   midi.NoteOnEvent(tick=25624, channel=9, data=[42, 0]),\n",
       "   midi.NoteOnEvent(tick=25632, channel=9, data=[38, 125]),\n",
       "   midi.NoteOnEvent(tick=25632, channel=9, data=[46, 112]),\n",
       "   midi.NoteOnEvent(tick=25656, channel=9, data=[46, 0]),\n",
       "   midi.NoteOnEvent(tick=25656, channel=9, data=[42, 112]),\n",
       "   midi.NoteOnEvent(tick=25672, channel=9, data=[42, 0]),\n",
       "   midi.NoteOnEvent(tick=25680, channel=9, data=[42, 112]),\n",
       "   midi.NoteOnEvent(tick=25688, channel=9, data=[36, 0]),\n",
       "   midi.NoteOnEvent(tick=25696, channel=9, data=[42, 0]),\n",
       "   midi.NoteOnEvent(tick=25704, channel=9, data=[36, 88]),\n",
       "   midi.NoteOnEvent(tick=25704, channel=9, data=[42, 100]),\n",
       "   midi.NoteOnEvent(tick=25708, channel=9, data=[36, 0]),\n",
       "   midi.NoteOnEvent(tick=25712, channel=9, data=[57, 0]),\n",
       "   midi.NoteOnEvent(tick=25716, channel=9, data=[42, 0]),\n",
       "   midi.NoteOnEvent(tick=25728, channel=9, data=[36, 112]),\n",
       "   midi.NoteOnEvent(tick=25728, channel=9, data=[42, 112]),\n",
       "   midi.NoteOnEvent(tick=25748, channel=9, data=[42, 0]),\n",
       "   midi.NoteOnEvent(tick=25752, channel=9, data=[42, 100]),\n",
       "   midi.NoteOnEvent(tick=25760, channel=9, data=[42, 0]),\n",
       "   midi.PitchWheelEvent(tick=25776, channel=9, data=[0, 60]),\n",
       "   midi.NoteOnEvent(tick=25776, channel=9, data=[42, 112]),\n",
       "   midi.NoteOnEvent(tick=25792, channel=9, data=[42, 0]),\n",
       "   midi.NoteOnEvent(tick=25800, channel=9, data=[38, 0]),\n",
       "   midi.PitchWheelEvent(tick=25800, channel=9, data=[0, 64]),\n",
       "   midi.PitchWheelEvent(tick=25800, channel=9, data=[0, 60]),\n",
       "   midi.PitchWheelEvent(tick=25800, channel=9, data=[0, 63]),\n",
       "   midi.PitchWheelEvent(tick=25800, channel=9, data=[0, 64]),\n",
       "   midi.NoteOnEvent(tick=25800, channel=9, data=[42, 100]),\n",
       "   midi.NoteOnEvent(tick=25808, channel=9, data=[42, 0]),\n",
       "   midi.NoteOnEvent(tick=25824, channel=9, data=[38, 125]),\n",
       "   midi.NoteOnEvent(tick=25824, channel=9, data=[44, 125]),\n",
       "   midi.PitchWheelEvent(tick=25824, channel=9, data=[0, 60]),\n",
       "   midi.NoteOnEvent(tick=25848, channel=9, data=[44, 0]),\n",
       "   midi.PitchWheelEvent(tick=25848, channel=9, data=[0, 64]),\n",
       "   midi.NoteOnEvent(tick=25848, channel=9, data=[42, 100]),\n",
       "   midi.NoteOnEvent(tick=25852, channel=9, data=[36, 0]),\n",
       "   midi.NoteOnEvent(tick=25856, channel=9, data=[42, 0]),\n",
       "   midi.NoteOnEvent(tick=25872, channel=9, data=[36, 112]),\n",
       "   midi.NoteOnEvent(tick=25872, channel=9, data=[42, 125]),\n",
       "   midi.NoteOnEvent(tick=25892, channel=9, data=[42, 0]),\n",
       "   midi.NoteOnEvent(tick=25896, channel=9, data=[42, 77]),\n",
       "   midi.PitchWheelEvent(tick=25896, channel=9, data=[0, 60]),\n",
       "   midi.PitchWheelEvent(tick=25896, channel=9, data=[0, 64]),\n",
       "   midi.NoteOnEvent(tick=25904, channel=9, data=[42, 0]),\n",
       "   midi.NoteOnEvent(tick=25920, channel=9, data=[42, 100]),\n",
       "   midi.NoteOnEvent(tick=25936, channel=9, data=[42, 0]),\n",
       "   midi.NoteOnEvent(tick=25940, channel=9, data=[36, 0]),\n",
       "   midi.NoteOnEvent(tick=25944, channel=9, data=[42, 100]),\n",
       "   midi.PitchWheelEvent(tick=25944, channel=9, data=[0, 63]),\n",
       "   midi.PitchWheelEvent(tick=25944, channel=9, data=[0, 64]),\n",
       "   midi.NoteOnEvent(tick=25956, channel=9, data=[42, 0]),\n",
       "   midi.NoteOnEvent(tick=25968, channel=9, data=[36, 112]),\n",
       "   midi.NoteOnEvent(tick=25968, channel=9, data=[42, 125]),\n",
       "   midi.NoteOnEvent(tick=25988, channel=9, data=[42, 0]),\n",
       "   midi.NoteOnEvent(tick=25992, channel=9, data=[38, 0]),\n",
       "   midi.NoteOnEvent(tick=25992, channel=9, data=[42, 100]),\n",
       "   midi.NoteOnEvent(tick=26012, channel=9, data=[42, 0]),\n",
       "   midi.NoteOnEvent(tick=26016, channel=9, data=[38, 125]),\n",
       "   midi.NoteOnEvent(tick=26016, channel=9, data=[44, 112]),\n",
       "   midi.NoteOnEvent(tick=26036, channel=9, data=[44, 0]),\n",
       "   midi.NoteOnEvent(tick=26040, channel=9, data=[42, 112]),\n",
       "   midi.NoteOnEvent(tick=26060, channel=9, data=[42, 0]),\n",
       "   midi.PitchWheelEvent(tick=26064, channel=9, data=[0, 61]),\n",
       "   midi.PitchWheelEvent(tick=26064, channel=9, data=[0, 64]),\n",
       "   midi.NoteOnEvent(tick=26064, channel=9, data=[46, 125]),\n",
       "   midi.NoteOnEvent(tick=26068, channel=9, data=[36, 0]),\n",
       "   midi.NoteOnEvent(tick=26088, channel=9, data=[46, 0]),\n",
       "   midi.NoteOnEvent(tick=26088, channel=9, data=[36, 112]),\n",
       "   midi.PitchWheelEvent(tick=26088, channel=9, data=[0, 59]),\n",
       "   midi.NoteOnEvent(tick=26088, channel=9, data=[42, 112]),\n",
       "   midi.NoteOnEvent(tick=26092, channel=9, data=[36, 0]),\n",
       "   midi.NoteOnEvent(tick=26104, channel=9, data=[42, 0]),\n",
       "   midi.PitchWheelEvent(tick=26112, channel=9, data=[0, 64]),\n",
       "   midi.NoteOnEvent(tick=26112, channel=9, data=[36, 125]),\n",
       "   midi.NoteOnEvent(tick=26112, channel=9, data=[42, 125]),\n",
       "   midi.NoteOnEvent(tick=26112, channel=9, data=[49, 125]),\n",
       "   midi.NoteOnEvent(tick=26132, channel=9, data=[42, 0]),\n",
       "   midi.NoteOnEvent(tick=26136, channel=9, data=[42, 100]),\n",
       "   midi.NoteOnEvent(tick=26156, channel=9, data=[42, 0]),\n",
       "   midi.NoteOnEvent(tick=26160, channel=9, data=[42, 125]),\n",
       "   midi.NoteOnEvent(tick=26180, channel=9, data=[42, 0]),\n",
       "   midi.NoteOnEvent(tick=26184, channel=9, data=[38, 0]),\n",
       "   midi.NoteOnEvent(tick=26184, channel=9, data=[42, 112]),\n",
       "   midi.NoteOnEvent(tick=26204, channel=9, data=[42, 0]),\n",
       "   midi.NoteOnEvent(tick=26208, channel=9, data=[38, 125]),\n",
       "   midi.NoteOnEvent(tick=26208, channel=9, data=[44, 125]),\n",
       "   midi.NoteOnEvent(tick=26224, channel=9, data=[49, 0]),\n",
       "   midi.NoteOnEvent(tick=26232, channel=9, data=[36, 0]),\n",
       "   midi.NoteOnEvent(tick=26232, channel=9, data=[44, 0]),\n",
       "   midi.NoteOnEvent(tick=26232, channel=9, data=[42, 112]),\n",
       "   midi.NoteOnEvent(tick=26248, channel=9, data=[42, 0]),\n",
       "   midi.NoteOnEvent(tick=26256, channel=9, data=[36, 112]),\n",
       "   midi.NoteOnEvent(tick=26256, channel=9, data=[42, 112]),\n",
       "   midi.NoteOnEvent(tick=26256, channel=9, data=[57, 125]),\n",
       "   midi.NoteOnEvent(tick=26276, channel=9, data=[42, 0]),\n",
       "   midi.NoteOnEvent(tick=26280, channel=9, data=[42, 88]),\n",
       "   midi.NoteOnEvent(tick=26296, channel=9, data=[42, 0]),\n",
       "   midi.NoteOnEvent(tick=26304, channel=9, data=[42, 112]),\n",
       "   midi.NoteOnEvent(tick=26320, channel=9, data=[42, 0]),\n",
       "   midi.NoteOnEvent(tick=26328, channel=9, data=[42, 112]),\n",
       "   midi.NoteOnEvent(tick=26348, channel=9, data=[42, 0]),\n",
       "   midi.NoteOnEvent(tick=26352, channel=9, data=[46, 112]),\n",
       "   midi.NoteOnEvent(tick=26368, channel=9, data=[38, 0]),\n",
       "   midi.NoteOnEvent(tick=26376, channel=9, data=[46, 0]),\n",
       "   midi.NoteOnEvent(tick=26376, channel=9, data=[42, 100]),\n",
       "   midi.NoteOnEvent(tick=26396, channel=9, data=[42, 0]),\n",
       "   midi.NoteOnEvent(tick=26400, channel=9, data=[38, 125]),\n",
       "   midi.NoteOnEvent(tick=26400, channel=9, data=[46, 112]),\n",
       "   midi.NoteOnEvent(tick=26424, channel=9, data=[46, 0]),\n",
       "   midi.NoteOnEvent(tick=26424, channel=9, data=[42, 112]),\n",
       "   midi.NoteOnEvent(tick=26436, channel=9, data=[57, 0]),\n",
       "   midi.NoteOnEvent(tick=26440, channel=9, data=[42, 0]),\n",
       "   midi.NoteOnEvent(tick=26448, channel=9, data=[42, 112]),\n",
       "   midi.NoteOnEvent(tick=26456, channel=9, data=[36, 0]),\n",
       "   midi.NoteOnEvent(tick=26464, channel=9, data=[42, 0]),\n",
       "   midi.NoteOnEvent(tick=26472, channel=9, data=[36, 77]),\n",
       "   midi.NoteOnEvent(tick=26472, channel=9, data=[42, 100]),\n",
       "   midi.PitchWheelEvent(tick=26472, channel=9, data=[0, 60]),\n",
       "   midi.PitchWheelEvent(tick=26472, channel=9, data=[0, 64]),\n",
       "   midi.NoteOnEvent(tick=26476, channel=9, data=[36, 0]),\n",
       "   midi.NoteOnEvent(tick=26484, channel=9, data=[42, 0]),\n",
       "   midi.NoteOnEvent(tick=26496, channel=9, data=[36, 125]),\n",
       "   midi.NoteOnEvent(tick=26496, channel=9, data=[42, 125]),\n",
       "   midi.NoteOnEvent(tick=26516, channel=9, data=[42, 0]),\n",
       "   midi.NoteOnEvent(tick=26520, channel=9, data=[42, 100]),\n",
       "   midi.NoteOnEvent(tick=26540, channel=9, data=[42, 0]),\n",
       "   midi.NoteOnEvent(tick=26544, channel=9, data=[42, 112]),\n",
       "   midi.NoteOnEvent(tick=26560, channel=9, data=[42, 0]),\n",
       "   midi.NoteOnEvent(tick=26564, channel=9, data=[38, 0]),\n",
       "   midi.NoteOnEvent(tick=26568, channel=9, data=[42, 100]),\n",
       "   midi.NoteOnEvent(tick=26584, channel=9, data=[42, 0]),\n",
       "   midi.NoteOnEvent(tick=26592, channel=9, data=[38, 125]),\n",
       "   midi.NoteOnEvent(tick=26592, channel=9, data=[44, 125]),\n",
       "   midi.NoteOnEvent(tick=26612, channel=9, data=[36, 0]),\n",
       "   midi.NoteOnEvent(tick=26616, channel=9, data=[44, 0]),\n",
       "   midi.NoteOnEvent(tick=26616, channel=9, data=[42, 112]),\n",
       "   midi.NoteOnEvent(tick=26628, channel=9, data=[42, 0]),\n",
       "   midi.NoteOnEvent(tick=26640, channel=9, data=[36, 125]),\n",
       "   midi.NoteOnEvent(tick=26640, channel=9, data=[42, 125]),\n",
       "   midi.NoteOnEvent(tick=26656, channel=9, data=[42, 0]),\n",
       "   midi.NoteOnEvent(tick=26664, channel=9, data=[42, 100]),\n",
       "   midi.NoteOnEvent(tick=26680, channel=9, data=[42, 0]),\n",
       "   midi.NoteOnEvent(tick=26688, channel=9, data=[42, 125]),\n",
       "   midi.NoteOnEvent(tick=26700, channel=9, data=[36, 0]),\n",
       "   midi.NoteOnEvent(tick=26708, channel=9, data=[42, 0]),\n",
       "   midi.NoteOnEvent(tick=26712, channel=9, data=[42, 100]),\n",
       "   midi.NoteOnEvent(tick=26732, channel=9, data=[42, 0]),\n",
       "   midi.NoteOnEvent(tick=26736, channel=9, data=[36, 112]),\n",
       "   midi.NoteOnEvent(tick=26736, channel=9, data=[44, 125]),\n",
       "   midi.PitchWheelEvent(tick=26736, channel=9, data=[0, 60]),\n",
       "   midi.PitchWheelEvent(tick=26736, channel=9, data=[0, 64]),\n",
       "   midi.NoteOnEvent(tick=26752, channel=9, data=[38, 0]),\n",
       "   midi.NoteOnEvent(tick=26756, channel=9, data=[44, 0]),\n",
       "   midi.NoteOnEvent(tick=26760, channel=9, data=[42, 100]),\n",
       "   midi.NoteOnEvent(tick=26780, channel=9, data=[42, 0]),\n",
       "   midi.NoteOnEvent(tick=26784, channel=9, data=[38, 125]),\n",
       "   midi.NoteOnEvent(tick=26784, channel=9, data=[44, 125]),\n",
       "   midi.NoteOnEvent(tick=26804, channel=9, data=[44, 0]),\n",
       "   midi.NoteOnEvent(tick=26808, channel=9, data=[42, 100]),\n",
       "   midi.NoteOnEvent(tick=26820, channel=9, data=[36, 0]),\n",
       "   midi.NoteOnEvent(tick=26828, channel=9, data=[42, 0]),\n",
       "   midi.NoteOnEvent(tick=26832, channel=9, data=[36, 77]),\n",
       "   midi.NoteOnEvent(tick=26832, channel=9, data=[44, 125]),\n",
       "   midi.NoteOnEvent(tick=26832, channel=9, data=[48, 125]),\n",
       "   midi.NoteOnEvent(tick=26836, channel=9, data=[36, 0]),\n",
       "   midi.NoteOnEvent(tick=26848, channel=9, data=[48, 0]),\n",
       "   midi.NoteOnEvent(tick=26856, channel=9, data=[44, 0]),\n",
       "   midi.NoteOnEvent(tick=26856, channel=9, data=[36, 112]),\n",
       "   midi.NoteOnEvent(tick=26856, channel=9, data=[42, 112]),\n",
       "   midi.NoteOnEvent(tick=26856, channel=9, data=[47, 125]),\n",
       "   midi.NoteOnEvent(tick=26864, channel=9, data=[42, 0]),\n",
       "   midi.NoteOnEvent(tick=26864, channel=9, data=[36, 0]),\n",
       "   midi.NoteOnEvent(tick=26868, channel=9, data=[47, 0]),\n",
       "   midi.NoteOnEvent(tick=26880, channel=9, data=[36, 125]),\n",
       "   midi.NoteOnEvent(tick=26880, channel=9, data=[42, 125]),\n",
       "   midi.NoteOnEvent(tick=26880, channel=9, data=[49, 125]),\n",
       "   midi.NoteOnEvent(tick=26896, channel=9, data=[42, 0]),\n",
       "   midi.NoteOnEvent(tick=26904, channel=9, data=[42, 88]),\n",
       "   midi.NoteOnEvent(tick=26912, channel=9, data=[38, 0]),\n",
       "   midi.NoteOnEvent(tick=26920, channel=9, data=[42, 0]),\n",
       "   midi.NoteOnEvent(tick=26928, channel=9, data=[42, 112]),\n",
       "   midi.NoteOnEvent(tick=26944, channel=9, data=[42, 0]),\n",
       "   midi.NoteOnEvent(tick=26952, channel=9, data=[42, 112]),\n",
       "   midi.NoteOnEvent(tick=26968, channel=9, data=[42, 0]),\n",
       "   midi.NoteOnEvent(tick=26976, channel=9, data=[38, 125]),\n",
       "   midi.NoteOnEvent(tick=26976, channel=9, data=[46, 125]),\n",
       "   midi.NoteOnEvent(tick=26992, channel=9, data=[36, 0]),\n",
       "   midi.NoteOnEvent(tick=26996, channel=9, data=[46, 0]),\n",
       "   midi.NoteOnEvent(tick=27000, channel=9, data=[42, 112]),\n",
       "   midi.NoteOnEvent(tick=27016, channel=9, data=[42, 0]),\n",
       "   midi.NoteOnEvent(tick=27024, channel=9, data=[36, 125]),\n",
       "   midi.NoteOnEvent(tick=27024, channel=9, data=[42, 125]),\n",
       "   midi.NoteOnEvent(tick=27040, channel=9, data=[42, 0]),\n",
       "   midi.NoteOnEvent(tick=27048, channel=9, data=[42, 100]),\n",
       "   midi.NoteOnEvent(tick=27064, channel=9, data=[42, 0]),\n",
       "   midi.PitchWheelEvent(tick=27072, channel=9, data=[0, 61]),\n",
       "   midi.PitchWheelEvent(tick=27072, channel=9, data=[0, 64]),\n",
       "   midi.NoteOnEvent(tick=27072, channel=9, data=[42, 77]),\n",
       "   midi.NoteOnEvent(tick=27080, channel=9, data=[42, 0]),\n",
       "   midi.NoteOnEvent(tick=27096, channel=9, data=[42, 100]),\n",
       "   midi.NoteOnEvent(tick=27112, channel=9, data=[42, 0]),\n",
       "   midi.NoteOnEvent(tick=27120, channel=9, data=[44, 112]),\n",
       "   midi.NoteOnEvent(tick=27140, channel=9, data=[44, 0]),\n",
       "   midi.NoteOnEvent(tick=27144, channel=9, data=[38, 0]),\n",
       "   midi.NoteOnEvent(tick=27144, channel=9, data=[42, 112]),\n",
       "   midi.NoteOnEvent(tick=27164, channel=9, data=[42, 0]),\n",
       "   midi.NoteOnEvent(tick=27168, channel=9, data=[38, 112]),\n",
       "   midi.NoteOnEvent(tick=27168, channel=9, data=[44, 125]),\n",
       "   midi.NoteOnEvent(tick=27172, channel=9, data=[49, 0]),\n",
       "   midi.NoteOnEvent(tick=27188, channel=9, data=[44, 0]),\n",
       "   midi.NoteOnEvent(tick=27192, channel=9, data=[42, 112]),\n",
       "   midi.NoteOnEvent(tick=27208, channel=9, data=[42, 0]),\n",
       "   midi.NoteOnEvent(tick=27216, channel=9, data=[42, 125]),\n",
       "   midi.NoteOnEvent(tick=27232, channel=9, data=[42, 0]),\n",
       "   midi.NoteOnEvent(tick=27232, channel=9, data=[36, 0]),\n",
       "   midi.NoteOnEvent(tick=27240, channel=9, data=[36, 88]),\n",
       "   midi.NoteOnEvent(tick=27240, channel=9, data=[42, 112]),\n",
       "   midi.NoteOnEvent(tick=27244, channel=9, data=[36, 0]),\n",
       "   midi.NoteOnEvent(tick=27252, channel=9, data=[42, 0]),\n",
       "   midi.NoteOnEvent(tick=27264, channel=9, data=[36, 112]),\n",
       "   midi.NoteOnEvent(tick=27264, channel=9, data=[42, 125]),\n",
       "   midi.NoteOnEvent(tick=27280, channel=9, data=[42, 0]),\n",
       "   midi.NoteOnEvent(tick=27288, channel=9, data=[42, 112]),\n",
       "   midi.NoteOnEvent(tick=27304, channel=9, data=[42, 0]),\n",
       "   midi.NoteOnEvent(tick=27312, channel=9, data=[42, 112]),\n",
       "   midi.NoteOnEvent(tick=27328, channel=9, data=[42, 0]),\n",
       "   midi.NoteOnEvent(tick=27332, channel=9, data=[38, 0]),\n",
       "   midi.NoteOnEvent(tick=27336, channel=9, data=[42, 100]),\n",
       "   midi.NoteOnEvent(tick=27360, channel=9, data=[42, 0]),\n",
       "   midi.NoteOnEvent(tick=27360, channel=9, data=[38, 125]),\n",
       "   midi.PitchWheelEvent(tick=27360, channel=9, data=[0, 58]),\n",
       "   midi.NoteOnEvent(tick=27360, channel=9, data=[46, 125]),\n",
       "   midi.PitchWheelEvent(tick=27360, channel=9, data=[0, 64]),\n",
       "   midi.NoteOnEvent(tick=27376, channel=9, data=[46, 0]),\n",
       "   midi.NoteOnEvent(tick=27380, channel=9, data=[36, 0]),\n",
       "   midi.NoteOnEvent(tick=27384, channel=9, data=[42, 100]),\n",
       "   midi.NoteOnEvent(tick=27400, channel=9, data=[42, 0]),\n",
       "   midi.NoteOnEvent(tick=27408, channel=9, data=[36, 125]),\n",
       "   midi.NoteOnEvent(tick=27408, channel=9, data=[42, 125]),\n",
       "   midi.NoteOnEvent(tick=27428, channel=9, data=[42, 0]),\n",
       "   midi.NoteOnEvent(tick=27432, channel=9, data=[42, 100]),\n",
       "   midi.NoteOnEvent(tick=27460, channel=9, data=[42, 0]),\n",
       "   midi.NoteOnEvent(tick=27480, channel=9, data=[42, 100]),\n",
       "   midi.NoteOnEvent(tick=27500, channel=9, data=[42, 0]),\n",
       "   midi.NoteOnEvent(tick=27504, channel=9, data=[44, 125]),\n",
       "   midi.NoteOnEvent(tick=27524, channel=9, data=[44, 0]),\n",
       "   midi.NoteOnEvent(tick=27528, channel=9, data=[38, 0]),\n",
       "   midi.NoteOnEvent(tick=27528, channel=9, data=[42, 112]),\n",
       "   midi.NoteOnEvent(tick=27548, channel=9, data=[42, 0]),\n",
       "   midi.NoteOnEvent(tick=27552, channel=9, data=[38, 125]),\n",
       "   midi.NoteOnEvent(tick=27552, channel=9, data=[44, 125]),\n",
       "   midi.NoteOnEvent(tick=27572, channel=9, data=[44, 0]),\n",
       "   midi.NoteOnEvent(tick=27576, channel=9, data=[42, 112]),\n",
       "   midi.NoteOnEvent(tick=27592, channel=9, data=[42, 0]),\n",
       "   midi.NoteOnEvent(tick=27600, channel=9, data=[42, 125]),\n",
       "   midi.NoteOnEvent(tick=27616, channel=9, data=[42, 0]),\n",
       "   midi.NoteOnEvent(tick=27616, channel=9, data=[36, 0]),\n",
       "   midi.NoteOnEvent(tick=27624, channel=9, data=[36, 88]),\n",
       "   midi.NoteOnEvent(tick=27624, channel=9, data=[42, 100]),\n",
       "   midi.NoteOnEvent(tick=27628, channel=9, data=[36, 0]),\n",
       "   midi.NoteOnEvent(tick=27636, channel=9, data=[42, 0]),\n",
       "   midi.NoteOnEvent(tick=27648, channel=9, data=[36, 112]),\n",
       "   midi.NoteOnEvent(tick=27648, channel=9, data=[42, 112]),\n",
       "   midi.NoteOnEvent(tick=27664, channel=9, data=[42, 0]),\n",
       "   midi.NoteOnEvent(tick=27672, channel=9, data=[42, 100]),\n",
       "   midi.NoteOnEvent(tick=27688, channel=9, data=[42, 0]),\n",
       "   midi.NoteOnEvent(tick=27696, channel=9, data=[42, 125]),\n",
       "   midi.NoteOnEvent(tick=27712, channel=9, data=[42, 0]),\n",
       "   midi.NoteOnEvent(tick=27720, channel=9, data=[38, 0]),\n",
       "   midi.NoteOnEvent(tick=27720, channel=9, data=[42, 100]),\n",
       "   midi.NoteOnEvent(tick=27736, channel=9, data=[42, 0]),\n",
       "   midi.NoteOnEvent(tick=27744, channel=9, data=[38, 125]),\n",
       "   midi.NoteOnEvent(tick=27744, channel=9, data=[44, 125]),\n",
       "   midi.NoteOnEvent(tick=27768, channel=9, data=[44, 0]),\n",
       "   midi.NoteOnEvent(tick=27768, channel=9, data=[36, 0]),\n",
       "   midi.NoteOnEvent(tick=27768, channel=9, data=[42, 112]),\n",
       "   midi.NoteOnEvent(tick=27784, channel=9, data=[42, 0]),\n",
       "   midi.NoteOnEvent(tick=27792, channel=9, data=[36, 125]),\n",
       "   midi.NoteOnEvent(tick=27792, channel=9, data=[42, 125]),\n",
       "   midi.NoteOnEvent(tick=27812, channel=9, data=[42, 0]),\n",
       "   midi.NoteOnEvent(tick=27816, channel=9, data=[42, 112]),\n",
       "   midi.PitchWheelEvent(tick=27816, channel=9, data=[0, 63]),\n",
       "   midi.PitchWheelEvent(tick=27816, channel=9, data=[0, 64]),\n",
       "   midi.NoteOnEvent(tick=27856, channel=9, data=[42, 0]),\n",
       "   midi.NoteOnEvent(tick=27864, channel=9, data=[42, 100]),\n",
       "   midi.NoteOnEvent(tick=27880, channel=9, data=[42, 0]),\n",
       "   midi.NoteOnEvent(tick=27888, channel=9, data=[46, 125]),\n",
       "   midi.NoteOnEvent(tick=27908, channel=9, data=[46, 0]),\n",
       "   midi.NoteOnEvent(tick=27912, channel=9, data=[38, 0]),\n",
       "   midi.NoteOnEvent(tick=27912, channel=9, data=[42, 100]),\n",
       "   midi.NoteOnEvent(tick=27928, channel=9, data=[42, 0]),\n",
       "   midi.NoteOnEvent(tick=27936, channel=9, data=[38, 125]),\n",
       "   midi.NoteOnEvent(tick=27936, channel=9, data=[46, 125]),\n",
       "   midi.NoteOnEvent(tick=27956, channel=9, data=[46, 0]),\n",
       "   midi.NoteOnEvent(tick=27960, channel=9, data=[42, 112]),\n",
       "   midi.NoteOnEvent(tick=27976, channel=9, data=[42, 0]),\n",
       "   midi.NoteOnEvent(tick=27984, channel=9, data=[42, 125]),\n",
       "   midi.NoteOnEvent(tick=27996, channel=9, data=[36, 0]),\n",
       "   midi.NoteOnEvent(tick=28004, channel=9, data=[42, 0]),\n",
       "   midi.NoteOnEvent(tick=28008, channel=9, data=[36, 88]),\n",
       "   midi.NoteOnEvent(tick=28008, channel=9, data=[42, 100]),\n",
       "   midi.NoteOnEvent(tick=28012, channel=9, data=[36, 0]),\n",
       "   midi.NoteOnEvent(tick=28016, channel=9, data=[42, 0]),\n",
       "   midi.NoteOnEvent(tick=28032, channel=9, data=[36, 112]),\n",
       "   midi.NoteOnEvent(tick=28032, channel=9, data=[42, 125]),\n",
       "   midi.NoteOnEvent(tick=28052, channel=9, data=[42, 0]),\n",
       "   midi.NoteOnEvent(tick=28056, channel=9, data=[42, 77]),\n",
       "   midi.NoteOnEvent(tick=28068, channel=9, data=[42, 0]),\n",
       "   midi.NoteOnEvent(tick=28080, channel=9, data=[42, 112]),\n",
       "   midi.NoteOnEvent(tick=28100, channel=9, data=[42, 0]),\n",
       "   midi.NoteOnEvent(tick=28100, channel=9, data=[38, 0]),\n",
       "   midi.NoteOnEvent(tick=28104, channel=9, data=[42, 88]),\n",
       "   midi.NoteOnEvent(tick=28124, channel=9, data=[42, 0]),\n",
       "   midi.NoteOnEvent(tick=28128, channel=9, data=[38, 125]),\n",
       "   midi.NoteOnEvent(tick=28128, channel=9, data=[44, 112]),\n",
       "   midi.NoteOnEvent(tick=28152, channel=9, data=[44, 0]),\n",
       "   midi.NoteOnEvent(tick=28152, channel=9, data=[42, 115]),\n",
       "   midi.NoteOnEvent(tick=28156, channel=9, data=[36, 0]),\n",
       "   midi.NoteOnEvent(tick=28164, channel=9, data=[42, 0]),\n",
       "   midi.NoteOnEvent(tick=28176, channel=9, data=[36, 125]),\n",
       "   midi.NoteOnEvent(tick=28176, channel=9, data=[42, 125]),\n",
       "   midi.NoteOnEvent(tick=28192, channel=9, data=[42, 0]),\n",
       "   midi.NoteOnEvent(tick=28200, channel=9, data=[42, 88]),\n",
       "   midi.NoteOnEvent(tick=28212, channel=9, data=[42, 0]),\n",
       "   midi.NoteOnEvent(tick=28224, channel=9, data=[42, 112]),\n",
       "   midi.NoteOnEvent(tick=28240, channel=9, data=[42, 0]),\n",
       "   midi.PitchWheelEvent(tick=28248, channel=9, data=[0, 59]),\n",
       "   midi.PitchWheelEvent(tick=28248, channel=9, data=[0, 64]),\n",
       "   midi.NoteOnEvent(tick=28248, channel=9, data=[42, 100]),\n",
       "   midi.NoteOnEvent(tick=28260, channel=9, data=[36, 0]),\n",
       "   midi.NoteOnEvent(tick=28264, channel=9, data=[42, 0]),\n",
       "   midi.NoteOnEvent(tick=28272, channel=9, data=[36, 125]),\n",
       "   midi.NoteOnEvent(tick=28272, channel=9, data=[44, 112]),\n",
       "   midi.NoteOnEvent(tick=28292, channel=9, data=[44, 0]),\n",
       "   midi.NoteOnEvent(tick=28292, channel=9, data=[38, 0]),\n",
       "   midi.NoteOnEvent(tick=28296, channel=9, data=[42, 100]),\n",
       "   midi.NoteOnEvent(tick=28308, channel=9, data=[42, 0]),\n",
       "   midi.NoteOnEvent(tick=28320, channel=9, data=[38, 125]),\n",
       "   midi.NoteOnEvent(tick=28320, channel=9, data=[42, 112]),\n",
       "   midi.NoteOnEvent(tick=28340, channel=9, data=[42, 0]),\n",
       "   midi.NoteOnEvent(tick=28344, channel=9, data=[42, 112]),\n",
       "   midi.NoteOnEvent(tick=28360, channel=9, data=[42, 0]),\n",
       "   midi.NoteOnEvent(tick=28368, channel=9, data=[44, 127]),\n",
       "   midi.NoteOnEvent(tick=28376, channel=9, data=[44, 0]),\n",
       "   midi.NoteOnEvent(tick=28376, channel=9, data=[36, 0]),\n",
       "   midi.NoteOnEvent(tick=28392, channel=9, data=[36, 100]),\n",
       "   midi.NoteOnEvent(tick=28392, channel=9, data=[44, 112]),\n",
       "   midi.NoteOnEvent(tick=28396, channel=9, data=[36, 0]),\n",
       "   midi.NoteOnEvent(tick=28400, channel=9, data=[44, 0]),\n",
       "   midi.NoteOnEvent(tick=28416, channel=9, data=[36, 125]),\n",
       "   midi.NoteOnEvent(tick=28416, channel=9, data=[42, 125]),\n",
       "   midi.NoteOnEvent(tick=28416, channel=9, data=[49, 125]),\n",
       "   midi.NoteOnEvent(tick=28436, channel=9, data=[42, 0]),\n",
       "   midi.NoteOnEvent(tick=28440, channel=9, data=[42, 100]),\n",
       "   midi.NoteOnEvent(tick=28456, channel=9, data=[42, 0]),\n",
       "   midi.PitchWheelEvent(tick=28464, channel=9, data=[0, 59]),\n",
       "   midi.NoteOnEvent(tick=28464, channel=9, data=[42, 112]),\n",
       "   midi.NoteOnEvent(tick=28476, channel=9, data=[42, 0]),\n",
       "   midi.NoteOnEvent(tick=28484, channel=9, data=[38, 0]),\n",
       "   midi.NoteOnEvent(tick=28488, channel=9, data=[42, 100]),\n",
       "   midi.NoteOnEvent(tick=28500, channel=9, data=[42, 0]),\n",
       "   midi.PitchWheelEvent(tick=28512, channel=9, data=[0, 64]),\n",
       "   midi.NoteOnEvent(tick=28512, channel=9, data=[38, 110]),\n",
       "   midi.NoteOnEvent(tick=28512, channel=9, data=[44, 125]),\n",
       "   midi.NoteOnEvent(tick=28532, channel=9, data=[49, 0]),\n",
       "   midi.NoteOnEvent(tick=28536, channel=9, data=[44, 0]),\n",
       "   midi.NoteOnEvent(tick=28536, channel=9, data=[42, 100]),\n",
       "   midi.NoteOnEvent(tick=28540, channel=9, data=[36, 0]),\n",
       "   midi.NoteOnEvent(tick=28544, channel=9, data=[42, 0]),\n",
       "   midi.NoteOnEvent(tick=28560, channel=9, data=[36, 112]),\n",
       "   midi.NoteOnEvent(tick=28560, channel=9, data=[42, 125]),\n",
       "   midi.NoteOnEvent(tick=28560, channel=9, data=[57, 112]),\n",
       "   midi.NoteOnEvent(tick=28580, channel=9, data=[42, 0]),\n",
       "   midi.NoteOnEvent(tick=28584, channel=9, data=[42, 88]),\n",
       "   midi.NoteOnEvent(tick=28604, channel=9, data=[42, 0]),\n",
       "   midi.NoteOnEvent(tick=28608, channel=9, data=[42, 112]),\n",
       "   midi.PitchWheelEvent(tick=28608, channel=9, data=[0, 60]),\n",
       "   midi.NoteOnEvent(tick=28624, channel=9, data=[42, 0]),\n",
       "   midi.PitchWheelEvent(tick=28632, channel=9, data=[0, 64]),\n",
       "   midi.NoteOnEvent(tick=28632, channel=9, data=[42, 112]),\n",
       "   midi.PitchWheelEvent(tick=28632, channel=9, data=[0, 60]),\n",
       "   midi.PitchWheelEvent(tick=28632, channel=9, data=[0, 64]),\n",
       "   midi.NoteOnEvent(tick=28652, channel=9, data=[42, 0]),\n",
       "   midi.NoteOnEvent(tick=28656, channel=9, data=[46, 125]),\n",
       "   midi.NoteOnEvent(tick=28672, channel=9, data=[38, 0]),\n",
       "   midi.NoteOnEvent(tick=28680, channel=9, data=[46, 0]),\n",
       "   midi.NoteOnEvent(tick=28680, channel=9, data=[42, 100]),\n",
       "   midi.NoteOnEvent(tick=28696, channel=9, data=[42, 0]),\n",
       "   midi.NoteOnEvent(tick=28704, channel=9, data=[38, 125]),\n",
       "   midi.NoteOnEvent(tick=28704, channel=9, data=[46, 112]),\n",
       "   midi.NoteOnEvent(tick=28728, channel=9, data=[46, 0]),\n",
       "   midi.NoteOnEvent(tick=28728, channel=9, data=[42, 112]),\n",
       "   midi.NoteOnEvent(tick=28744, channel=9, data=[42, 0]),\n",
       "   midi.NoteOnEvent(tick=28752, channel=9, data=[42, 112]),\n",
       "   midi.NoteOnEvent(tick=28760, channel=9, data=[36, 0]),\n",
       "   midi.NoteOnEvent(tick=28768, channel=9, data=[42, 0]),\n",
       "   midi.NoteOnEvent(tick=28776, channel=9, data=[36, 88]),\n",
       "   midi.NoteOnEvent(tick=28776, channel=9, data=[42, 100]),\n",
       "   midi.NoteOnEvent(tick=28780, channel=9, data=[36, 0]),\n",
       "   midi.NoteOnEvent(tick=28784, channel=9, data=[57, 0]),\n",
       "   midi.NoteOnEvent(tick=28788, channel=9, data=[42, 0]),\n",
       "   midi.NoteOnEvent(tick=28800, channel=9, data=[36, 112]),\n",
       "   midi.NoteOnEvent(tick=28800, channel=9, data=[42, 112]),\n",
       "   midi.NoteOnEvent(tick=28820, channel=9, data=[42, 0]),\n",
       "   midi.NoteOnEvent(tick=28824, channel=9, data=[42, 100]),\n",
       "   midi.NoteOnEvent(tick=28832, channel=9, data=[42, 0]),\n",
       "   midi.PitchWheelEvent(tick=28848, channel=9, data=[0, 60]),\n",
       "   midi.NoteOnEvent(tick=28848, channel=9, data=[42, 112]),\n",
       "   midi.NoteOnEvent(tick=28864, channel=9, data=[42, 0]),\n",
       "   midi.NoteOnEvent(tick=28872, channel=9, data=[38, 0]),\n",
       "   midi.PitchWheelEvent(tick=28872, channel=9, data=[0, 64]),\n",
       "   midi.PitchWheelEvent(tick=28872, channel=9, data=[0, 60]),\n",
       "   midi.PitchWheelEvent(tick=28872, channel=9, data=[0, 63]),\n",
       "   midi.PitchWheelEvent(tick=28872, channel=9, data=[0, 64]),\n",
       "   midi.NoteOnEvent(tick=28872, channel=9, data=[42, 100]),\n",
       "   midi.NoteOnEvent(tick=28880, channel=9, data=[42, 0]),\n",
       "   midi.NoteOnEvent(tick=28896, channel=9, data=[38, 125]),\n",
       "   midi.NoteOnEvent(tick=28896, channel=9, data=[44, 125]),\n",
       "   midi.PitchWheelEvent(tick=28896, channel=9, data=[0, 60]),\n",
       "   midi.NoteOnEvent(tick=28920, channel=9, data=[44, 0]),\n",
       "   midi.PitchWheelEvent(tick=28920, channel=9, data=[0, 64]),\n",
       "   midi.NoteOnEvent(tick=28920, channel=9, data=[42, 100]),\n",
       "   midi.NoteOnEvent(tick=28924, channel=9, data=[36, 0]),\n",
       "   midi.NoteOnEvent(tick=28928, channel=9, data=[42, 0]),\n",
       "   midi.NoteOnEvent(tick=28944, channel=9, data=[36, 112]),\n",
       "   midi.NoteOnEvent(tick=28944, channel=9, data=[42, 125]),\n",
       "   midi.NoteOnEvent(tick=28964, channel=9, data=[42, 0]),\n",
       "   midi.NoteOnEvent(tick=28968, channel=9, data=[42, 77]),\n",
       "   midi.PitchWheelEvent(tick=28968, channel=9, data=[0, 60]),\n",
       "   midi.PitchWheelEvent(tick=28968, channel=9, data=[0, 64]),\n",
       "   midi.NoteOnEvent(tick=28976, channel=9, data=[42, 0]),\n",
       "   midi.NoteOnEvent(tick=28992, channel=9, data=[42, 100]),\n",
       "   midi.NoteOnEvent(tick=29008, channel=9, data=[42, 0]),\n",
       "   midi.NoteOnEvent(tick=29012, channel=9, data=[36, 0]),\n",
       "   midi.NoteOnEvent(tick=29016, channel=9, data=[42, 100]),\n",
       "   midi.PitchWheelEvent(tick=29016, channel=9, data=[0, 63]),\n",
       "   midi.PitchWheelEvent(tick=29016, channel=9, data=[0, 64]),\n",
       "   midi.NoteOnEvent(tick=29028, channel=9, data=[42, 0]),\n",
       "   midi.NoteOnEvent(tick=29040, channel=9, data=[36, 112]),\n",
       "   midi.NoteOnEvent(tick=29040, channel=9, data=[42, 125]),\n",
       "   midi.NoteOnEvent(tick=29060, channel=9, data=[42, 0]),\n",
       "   midi.NoteOnEvent(tick=29064, channel=9, data=[38, 0]),\n",
       "   midi.NoteOnEvent(tick=29064, channel=9, data=[42, 100]),\n",
       "   midi.NoteOnEvent(tick=29084, channel=9, data=[42, 0]),\n",
       "   midi.NoteOnEvent(tick=29088, channel=9, data=[38, 125]),\n",
       "   midi.NoteOnEvent(tick=29088, channel=9, data=[44, 112]),\n",
       "   midi.NoteOnEvent(tick=29108, channel=9, data=[44, 0]),\n",
       "   midi.NoteOnEvent(tick=29112, channel=9, data=[42, 112]),\n",
       "   midi.NoteOnEvent(tick=29132, channel=9, data=[42, 0]),\n",
       "   midi.PitchWheelEvent(tick=29136, channel=9, data=[0, 61]),\n",
       "   midi.PitchWheelEvent(tick=29136, channel=9, data=[0, 64]),\n",
       "   midi.NoteOnEvent(tick=29136, channel=9, data=[46, 125]),\n",
       "   midi.NoteOnEvent(tick=29140, channel=9, data=[36, 0]),\n",
       "   midi.NoteOnEvent(tick=29160, channel=9, data=[46, 0]),\n",
       "   midi.NoteOnEvent(tick=29160, channel=9, data=[36, 112]),\n",
       "   midi.PitchWheelEvent(tick=29160, channel=9, data=[0, 59]),\n",
       "   midi.NoteOnEvent(tick=29160, channel=9, data=[42, 112]),\n",
       "   midi.NoteOnEvent(tick=29164, channel=9, data=[36, 0]),\n",
       "   midi.NoteOnEvent(tick=29176, channel=9, data=[42, 0]),\n",
       "   midi.PitchWheelEvent(tick=29184, channel=9, data=[0, 64]),\n",
       "   midi.NoteOnEvent(tick=29184, channel=9, data=[36, 125]),\n",
       "   midi.NoteOnEvent(tick=29184, channel=9, data=[42, 125]),\n",
       "   midi.NoteOnEvent(tick=29184, channel=9, data=[49, 125]),\n",
       "   midi.NoteOnEvent(tick=29204, channel=9, data=[42, 0]),\n",
       "   midi.NoteOnEvent(tick=29208, channel=9, data=[42, 100]),\n",
       "   midi.NoteOnEvent(tick=29228, channel=9, data=[42, 0]),\n",
       "   midi.NoteOnEvent(tick=29232, channel=9, data=[42, 125]),\n",
       "   midi.NoteOnEvent(tick=29252, channel=9, data=[42, 0]),\n",
       "   midi.NoteOnEvent(tick=29256, channel=9, data=[38, 0]),\n",
       "   midi.NoteOnEvent(tick=29256, channel=9, data=[42, 112]),\n",
       "   midi.NoteOnEvent(tick=29276, channel=9, data=[42, 0]),\n",
       "   midi.NoteOnEvent(tick=29280, channel=9, data=[38, 125]),\n",
       "   midi.NoteOnEvent(tick=29280, channel=9, data=[44, 125]),\n",
       "   midi.NoteOnEvent(tick=29296, channel=9, data=[49, 0]),\n",
       "   midi.NoteOnEvent(tick=29304, channel=9, data=[36, 0]),\n",
       "   midi.NoteOnEvent(tick=29304, channel=9, data=[44, 0]),\n",
       "   midi.NoteOnEvent(tick=29304, channel=9, data=[42, 112]),\n",
       "   midi.NoteOnEvent(tick=29320, channel=9, data=[42, 0]),\n",
       "   midi.NoteOnEvent(tick=29328, channel=9, data=[36, 112]),\n",
       "   midi.NoteOnEvent(tick=29328, channel=9, data=[42, 112]),\n",
       "   midi.NoteOnEvent(tick=29328, channel=9, data=[57, 125]),\n",
       "   midi.NoteOnEvent(tick=29348, channel=9, data=[42, 0]),\n",
       "   midi.NoteOnEvent(tick=29352, channel=9, data=[42, 88]),\n",
       "   midi.NoteOnEvent(tick=29368, channel=9, data=[42, 0]),\n",
       "   midi.NoteOnEvent(tick=29376, channel=9, data=[42, 112]),\n",
       "   midi.NoteOnEvent(tick=29392, channel=9, data=[42, 0]),\n",
       "   midi.NoteOnEvent(tick=29400, channel=9, data=[42, 112]),\n",
       "   midi.NoteOnEvent(tick=29420, channel=9, data=[42, 0]),\n",
       "   midi.NoteOnEvent(tick=29424, channel=9, data=[46, 112]),\n",
       "   midi.NoteOnEvent(tick=29440, channel=9, data=[38, 0]),\n",
       "   midi.NoteOnEvent(tick=29448, channel=9, data=[46, 0]),\n",
       "   midi.NoteOnEvent(tick=29448, channel=9, data=[42, 100]),\n",
       "   midi.NoteOnEvent(tick=29468, channel=9, data=[42, 0]),\n",
       "   midi.NoteOnEvent(tick=29472, channel=9, data=[38, 125]),\n",
       "   midi.NoteOnEvent(tick=29472, channel=9, data=[46, 112]),\n",
       "   midi.NoteOnEvent(tick=29496, channel=9, data=[46, 0]),\n",
       "   midi.NoteOnEvent(tick=29496, channel=9, data=[42, 112]),\n",
       "   midi.NoteOnEvent(tick=29508, channel=9, data=[57, 0]),\n",
       "   midi.NoteOnEvent(tick=29512, channel=9, data=[42, 0]),\n",
       "   midi.NoteOnEvent(tick=29520, channel=9, data=[42, 112]),\n",
       "   midi.NoteOnEvent(tick=29528, channel=9, data=[36, 0]),\n",
       "   midi.NoteOnEvent(tick=29536, channel=9, data=[42, 0]),\n",
       "   midi.NoteOnEvent(tick=29544, channel=9, data=[36, 77]),\n",
       "   midi.NoteOnEvent(tick=29544, channel=9, data=[42, 100]),\n",
       "   midi.PitchWheelEvent(tick=29544, channel=9, data=[0, 60]),\n",
       "   midi.PitchWheelEvent(tick=29544, channel=9, data=[0, 64]),\n",
       "   midi.NoteOnEvent(tick=29548, channel=9, data=[36, 0]),\n",
       "   midi.NoteOnEvent(tick=29556, channel=9, data=[42, 0]),\n",
       "   midi.NoteOnEvent(tick=29568, channel=9, data=[36, 125]),\n",
       "   midi.NoteOnEvent(tick=29568, channel=9, data=[42, 125]),\n",
       "   midi.NoteOnEvent(tick=29588, channel=9, data=[42, 0]),\n",
       "   midi.NoteOnEvent(tick=29592, channel=9, data=[42, 100]),\n",
       "   midi.NoteOnEvent(tick=29612, channel=9, data=[42, 0]),\n",
       "   midi.NoteOnEvent(tick=29616, channel=9, data=[42, 112]),\n",
       "   midi.NoteOnEvent(tick=29632, channel=9, data=[42, 0]),\n",
       "   midi.NoteOnEvent(tick=29636, channel=9, data=[38, 0]),\n",
       "   midi.NoteOnEvent(tick=29640, channel=9, data=[42, 100]),\n",
       "   midi.NoteOnEvent(tick=29656, channel=9, data=[42, 0]),\n",
       "   midi.NoteOnEvent(tick=29664, channel=9, data=[38, 125]),\n",
       "   midi.NoteOnEvent(tick=29664, channel=9, data=[44, 125]),\n",
       "   midi.NoteOnEvent(tick=29684, channel=9, data=[36, 0]),\n",
       "   midi.NoteOnEvent(tick=29688, channel=9, data=[44, 0]),\n",
       "   midi.NoteOnEvent(tick=29688, channel=9, data=[42, 112]),\n",
       "   midi.PitchWheelEvent(tick=29688, channel=9, data=[0, 59]),\n",
       "   midi.PitchWheelEvent(tick=29688, channel=9, data=[0, 64]),\n",
       "   midi.NoteOnEvent(tick=29700, channel=9, data=[42, 0]),\n",
       "   midi.NoteOnEvent(tick=29712, channel=9, data=[36, 125]),\n",
       "   midi.NoteOnEvent(tick=29712, channel=9, data=[42, 125]),\n",
       "   midi.PitchWheelEvent(tick=29712, channel=9, data=[0, 59]),\n",
       "   midi.PitchWheelEvent(tick=29712, channel=9, data=[0, 64]),\n",
       "   midi.NoteOnEvent(tick=29728, channel=9, data=[42, 0]),\n",
       "   midi.NoteOnEvent(tick=29736, channel=9, data=[42, 100]),\n",
       "   midi.NoteOnEvent(tick=29752, channel=9, data=[42, 0]),\n",
       "   midi.NoteOnEvent(tick=29760, channel=9, data=[42, 125]),\n",
       "   midi.NoteOnEvent(tick=29772, channel=9, data=[36, 0]),\n",
       "   midi.NoteOnEvent(tick=29780, channel=9, data=[42, 0]),\n",
       "   midi.NoteOnEvent(tick=29784, channel=9, data=[42, 100]),\n",
       "   midi.NoteOnEvent(tick=29804, channel=9, data=[42, 0]),\n",
       "   midi.NoteOnEvent(tick=29808, channel=9, data=[36, 112]),\n",
       "   midi.NoteOnEvent(tick=29808, channel=9, data=[44, 125]),\n",
       "   midi.PitchWheelEvent(tick=29808, channel=9, data=[0, 60]),\n",
       "   midi.PitchWheelEvent(tick=29808, channel=9, data=[0, 64]),\n",
       "   midi.NoteOnEvent(tick=29824, channel=9, data=[38, 0]),\n",
       "   midi.NoteOnEvent(tick=29828, channel=9, data=[44, 0]),\n",
       "   midi.NoteOnEvent(tick=29832, channel=9, data=[42, 100]),\n",
       "   midi.NoteOnEvent(tick=29852, channel=9, data=[42, 0]),\n",
       "   midi.NoteOnEvent(tick=29856, channel=9, data=[38, 125]),\n",
       "   midi.NoteOnEvent(tick=29856, channel=9, data=[44, 125]),\n",
       "   midi.NoteOnEvent(tick=29876, channel=9, data=[44, 0]),\n",
       "   midi.NoteOnEvent(tick=29880, channel=9, data=[42, 100]),\n",
       "   midi.NoteOnEvent(tick=29892, channel=9, data=[36, 0]),\n",
       "   midi.NoteOnEvent(tick=29900, channel=9, data=[42, 0]),\n",
       "   midi.NoteOnEvent(tick=29904, channel=9, data=[36, 77]),\n",
       "   midi.NoteOnEvent(tick=29904, channel=9, data=[44, 125]),\n",
       "   midi.NoteOnEvent(tick=29904, channel=9, data=[45, 125]),\n",
       "   midi.NoteOnEvent(tick=29908, channel=9, data=[36, 0]),\n",
       "   midi.NoteOnEvent(tick=29920, channel=9, data=[45, 0]),\n",
       "   midi.NoteOnEvent(tick=29928, channel=9, data=[44, 0]),\n",
       "   midi.NoteOnEvent(tick=29928, channel=9, data=[36, 112]),\n",
       "   midi.NoteOnEvent(tick=29928, channel=9, data=[42, 112]),\n",
       "   midi.NoteOnEvent(tick=29928, channel=9, data=[43, 125]),\n",
       "   midi.NoteOnEvent(tick=29936, channel=9, data=[42, 0]),\n",
       "   midi.NoteOnEvent(tick=29936, channel=9, data=[36, 0]),\n",
       "   midi.NoteOnEvent(tick=29944, channel=9, data=[43, 0]),\n",
       "   midi.NoteOnEvent(tick=29952, channel=9, data=[36, 112]),\n",
       "   midi.NoteOnEvent(tick=29952, channel=9, data=[44, 125]),\n",
       "   midi.NoteOnEvent(tick=29952, channel=9, data=[57, 112]),\n",
       "   midi.NoteOnEvent(tick=29968, channel=9, data=[44, 0]),\n",
       "   midi.NoteOnEvent(tick=29984, channel=9, data=[38, 0]),\n",
       "   midi.NoteOnEvent(tick=30000, channel=9, data=[44, 112]),\n",
       "   midi.NoteOnEvent(tick=30008, channel=9, data=[44, 0]),\n",
       "   midi.NoteOnEvent(tick=30048, channel=9, data=[82, 125]),\n",
       "   midi.NoteOnEvent(tick=30048, channel=9, data=[38, 125]),\n",
       "   midi.NoteOnEvent(tick=30048, channel=9, data=[44, 125]),\n",
       "   midi.NoteOnEvent(tick=30056, channel=9, data=[57, 0]),\n",
       "   midi.NoteOnEvent(tick=30064, channel=9, data=[44, 0]),\n",
       "   midi.NoteOnEvent(tick=30068, channel=9, data=[36, 0]),\n",
       "   midi.PitchWheelEvent(tick=30072, channel=9, data=[0, 61]),\n",
       "   midi.PitchWheelEvent(tick=30072, channel=9, data=[0, 64]),\n",
       "   midi.NoteOnEvent(tick=30096, channel=9, data=[36, 125]),\n",
       "   midi.NoteOnEvent(tick=30096, channel=9, data=[44, 125]),\n",
       "   midi.NoteOnEvent(tick=30096, channel=9, data=[49, 125]),\n",
       "   midi.NoteOnEvent(tick=30112, channel=9, data=[44, 0]),\n",
       "   midi.NoteOnEvent(tick=30144, channel=9, data=[44, 112]),\n",
       "   midi.NoteOnEvent(tick=30156, channel=9, data=[44, 0]),\n",
       "   midi.NoteOnEvent(tick=30160, channel=9, data=[36, 0]),\n",
       "   midi.NoteOnEvent(tick=30192, channel=9, data=[36, 112]),\n",
       "   midi.NoteOnEvent(tick=30192, channel=9, data=[44, 125]),\n",
       "   midi.NoteOnEvent(tick=30196, channel=9, data=[38, 0]),\n",
       "   midi.NoteOnEvent(tick=30200, channel=9, data=[82, 0]),\n",
       "   midi.NoteOnEvent(tick=30204, channel=9, data=[44, 0]),\n",
       "   midi.PitchWheelEvent(tick=30216, channel=9, data=[0, 60]),\n",
       "   midi.PitchWheelEvent(tick=30216, channel=9, data=[0, 64]),\n",
       "   midi.NoteOnEvent(tick=30240, channel=9, data=[82, 112]),\n",
       "   midi.NoteOnEvent(tick=30240, channel=9, data=[38, 110]),\n",
       "   midi.NoteOnEvent(tick=30240, channel=9, data=[44, 125]),\n",
       "   midi.NoteOnEvent(tick=30252, channel=9, data=[44, 0]),\n",
       "   midi.NoteOnEvent(tick=30288, channel=9, data=[44, 125]),\n",
       "   midi.NoteOnEvent(tick=30292, channel=9, data=[49, 0]),\n",
       "   midi.NoteOnEvent(tick=30296, channel=9, data=[36, 0]),\n",
       "   midi.NoteOnEvent(tick=30304, channel=9, data=[44, 0]),\n",
       "   midi.NoteOnEvent(tick=30312, channel=9, data=[36, 33]),\n",
       "   midi.NoteOnEvent(tick=30316, channel=9, data=[36, 0]),\n",
       "   midi.NoteOnEvent(tick=30336, channel=9, data=[36, 125]),\n",
       "   midi.NoteOnEvent(tick=30336, channel=9, data=[44, 112]),\n",
       "   midi.NoteOnEvent(tick=30336, channel=9, data=[49, 125]),\n",
       "   midi.NoteOnEvent(tick=30356, channel=9, data=[44, 0]),\n",
       "   midi.NoteOnEvent(tick=30384, channel=9, data=[44, 112]),\n",
       "   midi.NoteOnEvent(tick=30396, channel=9, data=[44, 0]),\n",
       "   midi.NoteOnEvent(tick=30400, channel=9, data=[38, 0]),\n",
       "   midi.NoteOnEvent(tick=30404, channel=9, data=[82, 0]),\n",
       "   midi.NoteOnEvent(tick=30432, channel=9, data=[82, 112]),\n",
       "   midi.NoteOnEvent(tick=30432, channel=9, data=[38, 125]),\n",
       "   midi.NoteOnEvent(tick=30432, channel=9, data=[44, 125]),\n",
       "   midi.NoteOnEvent(tick=30440, channel=9, data=[44, 0]),\n",
       "   midi.NoteOnEvent(tick=30440, channel=9, data=[49, 0]),\n",
       "   midi.NoteOnEvent(tick=30456, channel=9, data=[36, 0]),\n",
       "   midi.NoteOnEvent(tick=30480, channel=9, data=[36, 125]),\n",
       "   midi.NoteOnEvent(tick=30480, channel=9, data=[44, 112]),\n",
       "   midi.NoteOnEvent(tick=30480, channel=9, data=[57, 125]),\n",
       "   midi.NoteOnEvent(tick=30496, channel=9, data=[44, 0]),\n",
       "   midi.NoteOnEvent(tick=30528, channel=9, data=[44, 125]),\n",
       "   midi.NoteOnEvent(tick=30540, channel=9, data=[44, 0]),\n",
       "   midi.NoteOnEvent(tick=30548, channel=9, data=[36, 0]),\n",
       "   midi.NoteOnEvent(tick=30576, channel=9, data=[36, 100]),\n",
       "   midi.NoteOnEvent(tick=30576, channel=9, data=[44, 112]),\n",
       "   midi.NoteOnEvent(tick=30588, channel=9, data=[38, 0]),\n",
       "   midi.NoteOnEvent(tick=30592, channel=9, data=[82, 0]),\n",
       "   midi.NoteOnEvent(tick=30592, channel=9, data=[44, 0]),\n",
       "   midi.NoteOnEvent(tick=30624, channel=9, data=[82, 112]),\n",
       "   midi.NoteOnEvent(tick=30624, channel=9, data=[38, 122]),\n",
       "   midi.NoteOnEvent(tick=30624, channel=9, data=[44, 125]),\n",
       "   midi.NoteOnEvent(tick=30640, channel=9, data=[44, 0]),\n",
       "   midi.NoteOnEvent(tick=30672, channel=9, data=[44, 112]),\n",
       "   midi.NoteOnEvent(tick=30680, channel=9, data=[57, 0]),\n",
       "   midi.NoteOnEvent(tick=30692, channel=9, data=[36, 0]),\n",
       "   midi.NoteOnEvent(tick=30692, channel=9, data=[44, 0]),\n",
       "   midi.NoteOnEvent(tick=30720, channel=9, data=[36, 125]),\n",
       "   midi.NoteOnEvent(tick=30720, channel=9, data=[44, 125]),\n",
       "   midi.NoteOnEvent(tick=30720, channel=9, data=[49, 112]),\n",
       "   midi.NoteOnEvent(tick=30736, channel=9, data=[44, 0]),\n",
       "   midi.NoteOnEvent(tick=30768, channel=9, data=[44, 112]),\n",
       "   midi.NoteOnEvent(tick=30780, channel=9, data=[38, 0]),\n",
       "   midi.NoteOnEvent(tick=30784, channel=9, data=[82, 0]),\n",
       "   midi.NoteOnEvent(tick=30784, channel=9, data=[44, 0]),\n",
       "   midi.NoteOnEvent(tick=30816, channel=9, data=[82, 125]),\n",
       "   midi.NoteOnEvent(tick=30816, channel=9, data=[38, 112]),\n",
       "   midi.NoteOnEvent(tick=30816, channel=9, data=[44, 112]),\n",
       "   midi.NoteOnEvent(tick=30828, channel=9, data=[44, 0]),\n",
       "   midi.NoteOnEvent(tick=30828, channel=9, data=[49, 0]),\n",
       "   midi.NoteOnEvent(tick=30836, channel=9, data=[36, 0]),\n",
       "   midi.NoteOnEvent(tick=30864, channel=9, data=[36, 125]),\n",
       "   midi.NoteOnEvent(tick=30864, channel=9, data=[44, 125]),\n",
       "   midi.NoteOnEvent(tick=30864, channel=9, data=[49, 125]),\n",
       "   midi.NoteOnEvent(tick=30880, channel=9, data=[44, 0]),\n",
       "   midi.NoteOnEvent(tick=30912, channel=9, data=[44, 112]),\n",
       "   midi.NoteOnEvent(tick=30924, channel=9, data=[36, 0]),\n",
       "   midi.NoteOnEvent(tick=30928, channel=9, data=[44, 0]),\n",
       "   midi.NoteOnEvent(tick=30960, channel=9, data=[36, 100]),\n",
       "   midi.NoteOnEvent(tick=30960, channel=9, data=[44, 125]),\n",
       "   midi.NoteOnEvent(tick=30968, channel=9, data=[38, 0]),\n",
       "   midi.NoteOnEvent(tick=30972, channel=9, data=[82, 0]),\n",
       "   midi.NoteOnEvent(tick=30980, channel=9, data=[44, 0]),\n",
       "   midi.NoteOnEvent(tick=31008, channel=9, data=[82, 125]),\n",
       "   midi.NoteOnEvent(tick=31008, channel=9, data=[38, 125]),\n",
       "   midi.NoteOnEvent(tick=31008, channel=9, data=[44, 112]),\n",
       "   midi.NoteOnEvent(tick=31024, channel=9, data=[44, 0]),\n",
       "   midi.NoteOnEvent(tick=31032, channel=9, data=[36, 0]),\n",
       "   midi.NoteOnEvent(tick=31056, channel=9, data=[36, 68]),\n",
       "   midi.NoteOnEvent(tick=31056, channel=9, data=[44, 112]),\n",
       "   midi.NoteOnEvent(tick=31064, channel=9, data=[36, 0]),\n",
       "   midi.NoteOnEvent(tick=31068, channel=9, data=[49, 0]),\n",
       "   midi.NoteOnEvent(tick=31072, channel=9, data=[44, 0]),\n",
       "   midi.NoteOnEvent(tick=31104, channel=9, data=[36, 112]),\n",
       "   midi.NoteOnEvent(tick=31104, channel=9, data=[44, 125]),\n",
       "   midi.NoteOnEvent(tick=31104, channel=9, data=[57, 112]),\n",
       "   midi.NoteOnEvent(tick=31124, channel=9, data=[44, 0]),\n",
       "   midi.NoteOnEvent(tick=31152, channel=9, data=[44, 112]),\n",
       "   midi.NoteOnEvent(tick=31160, channel=9, data=[44, 0]),\n",
       "   midi.NoteOnEvent(tick=31168, channel=9, data=[38, 0]),\n",
       "   midi.NoteOnEvent(tick=31172, channel=9, data=[82, 0]),\n",
       "   midi.NoteOnEvent(tick=31200, channel=9, data=[57, 0]),\n",
       "   midi.NoteOnEvent(tick=31200, channel=9, data=[38, 125]),\n",
       "   midi.NoteOnEvent(tick=31200, channel=9, data=[82, 112]),\n",
       "   midi.NoteOnEvent(tick=31200, channel=9, data=[44, 112]),\n",
       "   midi.NoteOnEvent(tick=31216, channel=9, data=[44, 0]),\n",
       "   midi.NoteOnEvent(tick=31224, channel=9, data=[36, 0]),\n",
       "   midi.NoteOnEvent(tick=31248, channel=9, data=[36, 112]),\n",
       "   midi.NoteOnEvent(tick=31248, channel=9, data=[44, 112]),\n",
       "   midi.NoteOnEvent(tick=31248, channel=9, data=[49, 112]),\n",
       "   midi.NoteOnEvent(tick=31264, channel=9, data=[44, 0]),\n",
       "   midi.PitchWheelEvent(tick=31272, channel=9, data=[0, 60]),\n",
       "   midi.PitchWheelEvent(tick=31272, channel=9, data=[0, 64]),\n",
       "   midi.PitchWheelEvent(tick=31296, channel=9, data=[0, 60]),\n",
       "   midi.PitchWheelEvent(tick=31296, channel=9, data=[0, 64]),\n",
       "   midi.NoteOnEvent(tick=31296, channel=9, data=[44, 112]),\n",
       "   midi.NoteOnEvent(tick=31312, channel=9, data=[44, 0]),\n",
       "   midi.NoteOnEvent(tick=31312, channel=9, data=[36, 0]),\n",
       "   midi.NoteOnEvent(tick=31344, channel=9, data=[36, 100]),\n",
       "   midi.NoteOnEvent(tick=31344, channel=9, data=[44, 112]),\n",
       "   midi.NoteOnEvent(tick=31356, channel=9, data=[38, 0]),\n",
       "   midi.NoteOnEvent(tick=31356, channel=9, data=[82, 0]),\n",
       "   midi.NoteOnEvent(tick=31360, channel=9, data=[44, 0]),\n",
       "   midi.NoteOnEvent(tick=31392, channel=9, data=[82, 125]),\n",
       "   midi.NoteOnEvent(tick=31392, channel=9, data=[38, 125]),\n",
       "   midi.PitchWheelEvent(tick=31392, channel=9, data=[0, 60]),\n",
       "   midi.NoteOnEvent(tick=31392, channel=9, data=[44, 125]),\n",
       "   midi.NoteOnEvent(tick=31412, channel=9, data=[44, 0]),\n",
       "   midi.PitchWheelEvent(tick=31416, channel=9, data=[0, 64]),\n",
       "   midi.NoteOnEvent(tick=31420, channel=9, data=[36, 0]),\n",
       "   midi.NoteOnEvent(tick=31440, channel=9, data=[38, 0]),\n",
       "   midi.NoteOnEvent(tick=31440, channel=9, data=[36, 88]),\n",
       "   midi.NoteOnEvent(tick=31440, channel=9, data=[44, 112]),\n",
       "   midi.NoteOnEvent(tick=31440, channel=9, data=[38, 100]),\n",
       "   midi.NoteOnEvent(tick=31452, channel=9, data=[36, 0]),\n",
       "   midi.NoteOnEvent(tick=31452, channel=9, data=[49, 0]),\n",
       "   midi.NoteOnEvent(tick=31456, channel=9, data=[44, 0]),\n",
       "   midi.NoteOnEvent(tick=31464, channel=9, data=[38, 0]),\n",
       "   midi.NoteOnEvent(tick=31464, channel=9, data=[38, 125]),\n",
       "   midi.NoteOnEvent(tick=31488, channel=9, data=[36, 125]),\n",
       "   midi.PitchWheelEvent(tick=31488, channel=9, data=[0, 63]),\n",
       "   midi.NoteOnEvent(tick=31488, channel=9, data=[42, 125]),\n",
       "   midi.NoteOnEvent(tick=31504, channel=9, data=[42, 0]),\n",
       "   midi.NoteOnEvent(tick=31536, channel=9, data=[42, 100]),\n",
       "   midi.NoteOnEvent(tick=31544, channel=9, data=[42, 0]),\n",
       "   midi.NoteOnEvent(tick=31552, channel=9, data=[38, 0]),\n",
       "   midi.NoteOnEvent(tick=31552, channel=9, data=[82, 0]),\n",
       "   midi.NoteOnEvent(tick=31560, channel=9, data=[36, 0]),\n",
       "   midi.PitchWheelEvent(tick=31560, channel=9, data=[0, 64]),\n",
       "   midi.NoteOnEvent(tick=31560, channel=9, data=[42, 88]),\n",
       "   midi.PitchWheelEvent(tick=31560, channel=9, data=[0, 63]),\n",
       "   midi.NoteOnEvent(tick=31568, channel=9, data=[42, 0]),\n",
       "   midi.NoteOnEvent(tick=31584, channel=9, data=[36, 88]),\n",
       "   midi.NoteOnEvent(tick=31584, channel=9, data=[44, 112]),\n",
       "   midi.NoteOnEvent(tick=31592, channel=9, data=[36, 0]),\n",
       "   midi.NoteOnEvent(tick=31608, channel=9, data=[44, 0]),\n",
       "   midi.PitchWheelEvent(tick=31608, channel=9, data=[0, 64]),\n",
       "   midi.NoteOnEvent(tick=31632, channel=9, data=[36, 125]),\n",
       "   midi.NoteOnEvent(tick=31632, channel=9, data=[42, 112]),\n",
       "   midi.NoteOnEvent(tick=31644, channel=9, data=[42, 0]),\n",
       "   midi.PitchWheelEvent(tick=31656, channel=9, data=[0, 63]),\n",
       "   midi.NoteOnEvent(tick=31656, channel=9, data=[42, 88]),\n",
       "   midi.NoteOnEvent(tick=31672, channel=9, data=[42, 0]),\n",
       "   midi.NoteOnEvent(tick=31680, channel=9, data=[42, 112]),\n",
       "   midi.NoteOnEvent(tick=31692, channel=9, data=[42, 0]),\n",
       "   midi.NoteOnEvent(tick=31704, channel=9, data=[42, 100]),\n",
       "   midi.NoteOnEvent(tick=31708, channel=9, data=[36, 0]),\n",
       "   midi.NoteOnEvent(tick=31724, channel=9, data=[42, 0]),\n",
       "   midi.NoteOnEvent(tick=31728, channel=9, data=[36, 100]),\n",
       "   midi.NoteOnEvent(tick=31728, channel=9, data=[44, 112]),\n",
       "   midi.NoteOnEvent(tick=31752, channel=9, data=[44, 0]),\n",
       "   midi.NoteOnEvent(tick=31776, channel=9, data=[36, 0]),\n",
       "   midi.NoteOnEvent(tick=31776, channel=9, data=[82, 112]),\n",
       "   midi.NoteOnEvent(tick=31776, channel=9, data=[38, 112]),\n",
       "   midi.NoteOnEvent(tick=31776, channel=9, data=[46, 112]),\n",
       "   midi.NoteOnEvent(tick=31840, channel=9, data=[46, 0]),\n",
       "   midi.NoteOnEvent(tick=31848, channel=9, data=[42, 100]),\n",
       "   midi.NoteOnEvent(tick=31852, channel=9, data=[42, 0]),\n",
       "   midi.NoteOnEvent(tick=31872, channel=9, data=[38, 0]),\n",
       "   midi.NoteOnEvent(tick=31872, channel=9, data=[82, 0]),\n",
       "   midi.NoteOnEvent(tick=31872, channel=9, data=[36, 125]),\n",
       "   midi.NoteOnEvent(tick=31872, channel=9, data=[42, 125]),\n",
       "   midi.NoteOnEvent(tick=31892, channel=9, data=[42, 0]),\n",
       "   midi.NoteOnEvent(tick=31920, channel=9, data=[42, 125]),\n",
       "   midi.NoteOnEvent(tick=31928, channel=9, data=[42, 0]),\n",
       "   midi.NoteOnEvent(tick=31944, channel=9, data=[36, 0]),\n",
       "   midi.NoteOnEvent(tick=31944, channel=9, data=[42, 88]),\n",
       "   midi.NoteOnEvent(tick=31952, channel=9, data=[42, 0]),\n",
       "   midi.NoteOnEvent(tick=31968, channel=9, data=[36, 40]),\n",
       "   midi.NoteOnEvent(tick=31968, channel=9, data=[44, 125]),\n",
       "   midi.NoteOnEvent(tick=31972, channel=9, data=[36, 0]),\n",
       "   midi.NoteOnEvent(tick=31992, channel=9, data=[44, 0]),\n",
       "   midi.NoteOnEvent(tick=32016, channel=9, data=[36, 125]),\n",
       "   midi.NoteOnEvent(tick=32016, channel=9, data=[42, 112]),\n",
       "   midi.NoteOnEvent(tick=32032, channel=9, data=[42, 0]),\n",
       "   midi.NoteOnEvent(tick=32040, channel=9, data=[42, 88]),\n",
       "   midi.NoteOnEvent(tick=32048, channel=9, data=[42, 0]),\n",
       "   midi.NoteOnEvent(tick=32064, channel=9, data=[42, 112]),\n",
       "   midi.NoteOnEvent(tick=32072, channel=9, data=[42, 0]),\n",
       "   midi.NoteOnEvent(tick=32088, channel=9, data=[42, 100]),\n",
       "   midi.NoteOnEvent(tick=32092, channel=9, data=[36, 0]),\n",
       "   midi.NoteOnEvent(tick=32100, channel=9, data=[42, 0]),\n",
       "   midi.NoteOnEvent(tick=32112, channel=9, data=[36, 112]),\n",
       "   midi.NoteOnEvent(tick=32112, channel=9, data=[44, 112]),\n",
       "   midi.NoteOnEvent(tick=32136, channel=9, data=[44, 0]),\n",
       "   midi.NoteOnEvent(tick=32156, channel=9, data=[36, 0]),\n",
       "   midi.NoteOnEvent(tick=32160, channel=9, data=[82, 125]),\n",
       "   midi.NoteOnEvent(tick=32160, channel=9, data=[38, 125]),\n",
       "   midi.NoteOnEvent(tick=32160, channel=9, data=[46, 112]),\n",
       "   midi.NoteOnEvent(tick=32224, channel=9, data=[46, 0]),\n",
       "   midi.NoteOnEvent(tick=32228, channel=9, data=[38, 0]),\n",
       "   midi.NoteOnEvent(tick=32228, channel=9, data=[82, 0]),\n",
       "   midi.NoteOnEvent(tick=32232, channel=9, data=[36, 60]),\n",
       "   midi.NoteOnEvent(tick=32232, channel=9, data=[42, 100]),\n",
       "   midi.NoteOnEvent(tick=32240, channel=9, data=[42, 0]),\n",
       "   midi.NoteOnEvent(tick=32240, channel=9, data=[36, 0]),\n",
       "   midi.NoteOnEvent(tick=32256, channel=9, data=[36, 125]),\n",
       "   midi.NoteOnEvent(tick=32256, channel=9, data=[42, 112]),\n",
       "   midi.NoteOnEvent(tick=32264, channel=9, data=[42, 0]),\n",
       "   midi.NoteOnEvent(tick=32280, channel=9, data=[42, 88]),\n",
       "   midi.NoteOnEvent(tick=32288, channel=9, data=[42, 0]),\n",
       "   midi.NoteOnEvent(tick=32304, channel=9, data=[42, 100]),\n",
       "   midi.NoteOnEvent(tick=32320, channel=9, data=[42, 0]),\n",
       "   midi.NoteOnEvent(tick=32328, channel=9, data=[42, 77]),\n",
       "   midi.NoteOnEvent(tick=32336, channel=9, data=[42, 0]),\n",
       "   midi.NoteOnEvent(tick=32352, channel=9, data=[44, 125]),\n",
       "   midi.NoteOnEvent(tick=32356, channel=9, data=[36, 0]),\n",
       "   midi.NoteOnEvent(tick=32376, channel=9, data=[44, 0]),\n",
       "   midi.NoteOnEvent(tick=32400, channel=9, data=[36, 125]),\n",
       "   midi.NoteOnEvent(tick=32400, channel=9, data=[42, 112]),\n",
       "   midi.NoteOnEvent(tick=32416, channel=9, data=[42, 0]),\n",
       "   midi.NoteOnEvent(tick=32424, channel=9, data=[42, 100]),\n",
       "   midi.NoteOnEvent(tick=32436, channel=9, data=[42, 0]),\n",
       "   midi.NoteOnEvent(tick=32448, channel=9, data=[42, 112]),\n",
       "   midi.NoteOnEvent(tick=32464, channel=9, data=[42, 0]),\n",
       "   midi.NoteOnEvent(tick=32472, channel=9, data=[36, 0]),\n",
       "   midi.NoteOnEvent(tick=32472, channel=9, data=[42, 100]),\n",
       "   midi.NoteOnEvent(tick=32484, channel=9, data=[42, 0]),\n",
       "   midi.PitchWheelEvent(tick=32496, channel=9, data=[0, 63]),\n",
       "   midi.NoteOnEvent(tick=32496, channel=9, data=[36, 112]),\n",
       "   midi.NoteOnEvent(tick=32496, channel=9, data=[44, 112]),\n",
       "   midi.NoteOnEvent(tick=32520, channel=9, data=[44, 0]),\n",
       "   midi.PitchWheelEvent(tick=32520, channel=9, data=[0, 64]),\n",
       "   midi.PitchWheelEvent(tick=32520, channel=9, data=[0, 63]),\n",
       "   midi.NoteOnEvent(tick=32544, channel=9, data=[38, 125]),\n",
       "   midi.NoteOnEvent(tick=32544, channel=9, data=[82, 112]),\n",
       "   midi.NoteOnEvent(tick=32544, channel=9, data=[46, 125]),\n",
       "   midi.NoteOnEvent(tick=32552, channel=9, data=[36, 0]),\n",
       "   midi.NoteOnEvent(tick=32600, channel=9, data=[46, 0]),\n",
       "   midi.NoteOnEvent(tick=32616, channel=9, data=[82, 0]),\n",
       "   midi.NoteOnEvent(tick=32616, channel=9, data=[38, 0]),\n",
       "   midi.NoteOnEvent(tick=32616, channel=9, data=[36, 68]),\n",
       "   midi.NoteOnEvent(tick=32624, channel=9, data=[36, 0]),\n",
       "   midi.NoteOnEvent(tick=32640, channel=9, data=[36, 125]),\n",
       "   midi.NoteOnEvent(tick=32640, channel=9, data=[42, 112]),\n",
       "   midi.NoteOnEvent(tick=32652, channel=9, data=[42, 0]),\n",
       "   midi.NoteOnEvent(tick=32664, channel=9, data=[42, 90]),\n",
       "   midi.NoteOnEvent(tick=32676, channel=9, data=[42, 0]),\n",
       "   midi.NoteOnEvent(tick=32688, channel=9, data=[42, 112]),\n",
       "   midi.NoteOnEvent(tick=32704, channel=9, data=[42, 0]),\n",
       "   midi.NoteOnEvent(tick=32712, channel=9, data=[42, 100]),\n",
       "   midi.NoteOnEvent(tick=32724, channel=9, data=[42, 0]),\n",
       "   midi.NoteOnEvent(tick=32736, channel=9, data=[44, 112]),\n",
       "   midi.PitchWheelEvent(tick=32736, channel=9, data=[0, 64]),\n",
       "   midi.PitchWheelEvent(tick=32736, channel=9, data=[0, 63]),\n",
       "   midi.NoteOnEvent(tick=32760, channel=9, data=[36, 0]),\n",
       "   midi.NoteOnEvent(tick=32764, channel=9, data=[44, 0]),\n",
       "   midi.NoteOnEvent(tick=32784, channel=9, data=[36, 112]),\n",
       "   midi.NoteOnEvent(tick=32784, channel=9, data=[42, 125]),\n",
       "   midi.NoteOnEvent(tick=32800, channel=9, data=[42, 0]),\n",
       "   midi.NoteOnEvent(tick=32808, channel=9, data=[42, 88]),\n",
       "   midi.NoteOnEvent(tick=32824, channel=9, data=[42, 0]),\n",
       "   midi.NoteOnEvent(tick=32832, channel=9, data=[42, 112]),\n",
       "   midi.NoteOnEvent(tick=32848, channel=9, data=[42, 0]),\n",
       "   midi.NoteOnEvent(tick=32856, channel=9, data=[36, 0]),\n",
       "   midi.NoteOnEvent(tick=32856, channel=9, data=[42, 100]),\n",
       "   midi.NoteOnEvent(tick=32868, channel=9, data=[42, 0]),\n",
       "   midi.NoteOnEvent(tick=32880, channel=9, data=[36, 100]),\n",
       "   midi.NoteOnEvent(tick=32880, channel=9, data=[44, 112]),\n",
       "   midi.NoteOnEvent(tick=32904, channel=9, data=[44, 0]),\n",
       "   midi.NoteOnEvent(tick=32928, channel=9, data=[36, 0]),\n",
       "   midi.NoteOnEvent(tick=32928, channel=9, data=[82, 112]),\n",
       "   midi.NoteOnEvent(tick=32928, channel=9, data=[38, 122]),\n",
       "   midi.NoteOnEvent(tick=32928, channel=9, data=[46, 112]),\n",
       "   midi.PitchWheelEvent(tick=32952, channel=9, data=[0, 64]),\n",
       "   midi.PitchWheelEvent(tick=32952, channel=9, data=[0, 63]),\n",
       "   midi.NoteOnEvent(tick=32960, channel=9, data=[46, 0]),\n",
       "   midi.NoteOnEvent(tick=32976, channel=9, data=[42, 100]),\n",
       "   midi.NoteOnEvent(tick=33008, channel=9, data=[42, 0]),\n",
       "   midi.NoteOnEvent(tick=33008, channel=9, data=[38, 0]),\n",
       "   midi.NoteOnEvent(tick=33012, channel=9, data=[82, 0]),\n",
       "   midi.NoteOnEvent(tick=33024, channel=9, data=[36, 125]),\n",
       "   midi.NoteOnEvent(tick=33024, channel=9, data=[49, 112]),\n",
       "   midi.NoteOnEvent(tick=33024, channel=9, data=[57, 112]),\n",
       "   midi.PitchWheelEvent(tick=33096, channel=9, data=[0, 64]),\n",
       "   midi.PitchWheelEvent(tick=33096, channel=9, data=[0, 63]),\n",
       "   midi.NoteOnEvent(tick=33200, channel=9, data=[57, 0]),\n",
       "   midi.NoteOnEvent(tick=33204, channel=9, data=[49, 0]),\n",
       "   midi.NoteOnEvent(tick=33224, channel=9, data=[36, 0]),\n",
       "   midi.EndOfTrackEvent(tick=33224, data=[])]),\n",
       " midi.Track(\\\n",
       "  [midi.PortEvent(tick=0, data=[0]),\n",
       "   midi.ProgramChangeEvent(tick=0, channel=10, data=[52]),\n",
       "   midi.ControlChangeEvent(tick=0, channel=10, data=[7, 80]),\n",
       "   midi.ControlChangeEvent(tick=0, channel=10, data=[10, 100]),\n",
       "   midi.ControlChangeEvent(tick=0, channel=10, data=[91, 112]),\n",
       "   midi.NoteOnEvent(tick=3456, channel=10, data=[71, 87]),\n",
       "   midi.NoteOnEvent(tick=3456, channel=10, data=[55, 70]),\n",
       "   midi.NoteOnEvent(tick=3456, channel=10, data=[67, 37]),\n",
       "   midi.NoteOnEvent(tick=3588, channel=10, data=[71, 0]),\n",
       "   midi.NoteOnEvent(tick=3592, channel=10, data=[72, 78]),\n",
       "   midi.NoteOnEvent(tick=3592, channel=10, data=[69, 87]),\n",
       "   midi.NoteOnEvent(tick=3636, channel=10, data=[72, 0]),\n",
       "   midi.NoteOnEvent(tick=3640, channel=10, data=[71, 87]),\n",
       "   midi.NoteOnEvent(tick=3644, channel=10, data=[69, 0]),\n",
       "   midi.NoteOnEvent(tick=3644, channel=10, data=[74, 70]),\n",
       "   midi.NoteOnEvent(tick=3828, channel=10, data=[71, 0]),\n",
       "   midi.NoteOnEvent(tick=3828, channel=10, data=[67, 0]),\n",
       "   midi.NoteOnEvent(tick=3832, channel=10, data=[66, 78]),\n",
       "   midi.NoteOnEvent(tick=3832, channel=10, data=[62, 61]),\n",
       "   midi.NoteOnEvent(tick=3832, channel=10, data=[69, 78]),\n",
       "   midi.NoteOnEvent(tick=3836, channel=10, data=[55, 0]),\n",
       "   midi.NoteOnEvent(tick=3960, channel=10, data=[66, 0]),\n",
       "   midi.NoteOnEvent(tick=3972, channel=10, data=[69, 0]),\n",
       "   midi.NoteOnEvent(tick=3972, channel=10, data=[71, 78]),\n",
       "   midi.NoteOnEvent(tick=3972, channel=10, data=[67, 55]),\n",
       "   midi.NoteOnEvent(tick=4020, channel=10, data=[71, 0]),\n",
       "   midi.NoteOnEvent(tick=4024, channel=10, data=[69, 78]),\n",
       "   midi.NoteOnEvent(tick=4028, channel=10, data=[67, 0]),\n",
       "   midi.NoteOnEvent(tick=4028, channel=10, data=[72, 70]),\n",
       "   midi.NoteOnEvent(tick=4112, channel=10, data=[72, 0]),\n",
       "   midi.NoteOnEvent(tick=4120, channel=10, data=[69, 0]),\n",
       "   midi.NoteOnEvent(tick=4120, channel=10, data=[71, 78]),\n",
       "   midi.NoteOnEvent(tick=4120, channel=10, data=[67, 55]),\n",
       "   midi.NoteOnEvent(tick=4212, channel=10, data=[67, 0]),\n",
       "   midi.NoteOnEvent(tick=4212, channel=10, data=[71, 0]),\n",
       "   midi.NoteOnEvent(tick=4216, channel=10, data=[74, 0]),\n",
       "   midi.NoteOnEvent(tick=4220, channel=10, data=[72, 50]),\n",
       "   midi.NoteOnEvent(tick=4220, channel=10, data=[67, 78]),\n",
       "   midi.NoteOnEvent(tick=4220, channel=10, data=[60, 87]),\n",
       "   midi.NoteOnEvent(tick=4220, channel=10, data=[64, 61]),\n",
       "   midi.NoteOnEvent(tick=4224, channel=10, data=[62, 0]),\n",
       "   midi.NoteOnEvent(tick=4384, channel=10, data=[64, 0]),\n",
       "   midi.NoteOnEvent(tick=4392, channel=10, data=[67, 0]),\n",
       "   midi.NoteOnEvent(tick=4400, channel=10, data=[72, 0]),\n",
       "   midi.NoteOnEvent(tick=4404, channel=10, data=[66, 87]),\n",
       "   midi.NoteOnEvent(tick=4404, channel=10, data=[69, 78]),\n",
       "   midi.NoteOnEvent(tick=4408, channel=10, data=[60, 0]),\n",
       "   midi.NoteOnEvent(tick=4408, channel=10, data=[62, 78]),\n",
       "   midi.NoteOnEvent(tick=4408, channel=10, data=[74, 43]),\n",
       "   midi.PitchWheelEvent(tick=4496, channel=10, data=[0, 61]),\n",
       "   midi.NoteOnEvent(tick=4588, channel=10, data=[69, 0]),\n",
       "   midi.NoteOnEvent(tick=4588, channel=10, data=[66, 0]),\n",
       "   midi.NoteOnEvent(tick=4600, channel=10, data=[62, 0]),\n",
       "   midi.NoteOnEvent(tick=4600, channel=10, data=[74, 0]),\n",
       "   midi.NoteOnEvent(tick=4600, channel=10, data=[72, 78]),\n",
       "   midi.NoteOnEvent(tick=4600, channel=10, data=[60, 85]),\n",
       "   midi.NoteOnEvent(tick=4600, channel=10, data=[64, 70]),\n",
       "   midi.NoteOnEvent(tick=4600, channel=10, data=[67, 98]),\n",
       "   midi.PitchWheelEvent(tick=4604, channel=10, data=[0, 64]),\n",
       "   midi.PitchWheelEvent(tick=4620, channel=10, data=[0, 61]),\n",
       "   midi.PitchWheelEvent(tick=4624, channel=10, data=[0, 64]),\n",
       "   midi.NoteOnEvent(tick=4740, channel=10, data=[64, 0]),\n",
       "   midi.NoteOnEvent(tick=4744, channel=10, data=[72, 0]),\n",
       "   midi.NoteOnEvent(tick=4748, channel=10, data=[60, 0]),\n",
       "   midi.NoteOnEvent(tick=4748, channel=10, data=[71, 78]),\n",
       "   midi.NoteOnEvent(tick=4748, channel=10, data=[74, 70]),\n",
       "   midi.NoteOnEvent(tick=4752, channel=10, data=[55, 78]),\n",
       "   midi.PitchWheelEvent(tick=4852, channel=10, data=[0, 61]),\n",
       "   midi.NoteOnEvent(tick=4876, channel=10, data=[67, 0]),\n",
       "   midi.PitchWheelEvent(tick=4880, channel=10, data=[0, 64]),\n",
       "   midi.NoteOnEvent(tick=4884, channel=10, data=[71, 0]),\n",
       "   midi.NoteOnEvent(tick=4888, channel=10, data=[66, 70]),\n",
       "   midi.NoteOnEvent(tick=4888, channel=10, data=[69, 78]),\n",
       "   midi.NoteOnEvent(tick=4888, channel=10, data=[62, 78]),\n",
       "   midi.NoteOnEvent(tick=4892, channel=10, data=[55, 0]),\n",
       "   midi.NoteOnEvent(tick=4976, channel=10, data=[66, 0]),\n",
       "   midi.NoteOnEvent(tick=4988, channel=10, data=[62, 0]),\n",
       "   midi.NoteOnEvent(tick=4988, channel=10, data=[69, 0]),\n",
       "   midi.NoteOnEvent(tick=4988, channel=10, data=[71, 87]),\n",
       "   midi.NoteOnEvent(tick=4988, channel=10, data=[55, 87]),\n",
       "   midi.NoteOnEvent(tick=4988, channel=10, data=[67, 55]),\n",
       "   midi.PitchWheelEvent(tick=5080, channel=10, data=[0, 61]),\n",
       "   midi.NoteOnEvent(tick=5124, channel=10, data=[71, 0]),\n",
       "   midi.NoteOnEvent(tick=5128, channel=10, data=[72, 87]),\n",
       "   midi.NoteOnEvent(tick=5128, channel=10, data=[69, 78]),\n",
       "   midi.NoteOnEvent(tick=5132, channel=10, data=[67, 0]),\n",
       "   midi.PitchWheelEvent(tick=5160, channel=10, data=[0, 64]),\n",
       "   midi.NoteOnEvent(tick=5176, channel=10, data=[72, 0]),\n",
       "   midi.NoteOnEvent(tick=5180, channel=10, data=[69, 0]),\n",
       "   midi.NoteOnEvent(tick=5180, channel=10, data=[71, 78]),\n",
       "   midi.NoteOnEvent(tick=5180, channel=10, data=[67, 55]),\n",
       "   midi.PitchWheelEvent(tick=5272, channel=10, data=[0, 59]),\n",
       "   midi.PitchWheelEvent(tick=5276, channel=10, data=[0, 64]),\n",
       "   midi.NoteOnEvent(tick=5284, channel=10, data=[71, 0]),\n",
       "   midi.NoteOnEvent(tick=5284, channel=10, data=[69, 78]),\n",
       "   midi.NoteOnEvent(tick=5284, channel=10, data=[72, 87]),\n",
       "   midi.NoteOnEvent(tick=5288, channel=10, data=[67, 0]),\n",
       "   midi.PitchWheelEvent(tick=5292, channel=10, data=[0, 59]),\n",
       "   midi.PitchWheelEvent(tick=5296, channel=10, data=[0, 64]),\n",
       "   midi.NoteOnEvent(tick=5324, channel=10, data=[71, 87]),\n",
       "   midi.NoteOnEvent(tick=5324, channel=10, data=[67, 46]),\n",
       "   midi.NoteOnEvent(tick=5328, channel=10, data=[69, 0]),\n",
       "   midi.NoteOnEvent(tick=5336, channel=10, data=[72, 0]),\n",
       "   midi.NoteOnEvent(tick=5364, channel=10, data=[67, 0]),\n",
       "   midi.NoteOnEvent(tick=5368, channel=10, data=[55, 0]),\n",
       "   midi.NoteOnEvent(tick=5368, channel=10, data=[71, 0]),\n",
       "   midi.NoteOnEvent(tick=5368, channel=10, data=[69, 87]),\n",
       "   midi.NoteOnEvent(tick=5368, channel=10, data=[62, 78]),\n",
       "   midi.NoteOnEvent(tick=5368, channel=10, data=[66, 87]),\n",
       "   midi.NoteOnEvent(tick=5492, channel=10, data=[66, 0]),\n",
       "   midi.NoteOnEvent(tick=5500, channel=10, data=[69, 0]),\n",
       "   midi.PitchWheelEvent(tick=5500, channel=10, data=[0, 60]),\n",
       "   midi.PitchWheelEvent(tick=5500, channel=10, data=[0, 64]),\n",
       "   midi.NoteOnEvent(tick=5508, channel=10, data=[71, 78]),\n",
       "   midi.NoteOnEvent(tick=5508, channel=10, data=[67, 55]),\n",
       "   midi.NoteOnEvent(tick=5556, channel=10, data=[71, 0]),\n",
       "   midi.NoteOnEvent(tick=5560, channel=10, data=[67, 0]),\n",
       "   midi.NoteOnEvent(tick=5560, channel=10, data=[72, 55]),\n",
       "   midi.NoteOnEvent(tick=5560, channel=10, data=[69, 78]),\n",
       "   midi.NoteOnEvent(tick=5652, channel=10, data=[72, 0]),\n",
       "   midi.NoteOnEvent(tick=5656, channel=10, data=[69, 0]),\n",
       "   midi.NoteOnEvent(tick=5656, channel=10, data=[71, 87]),\n",
       "   midi.NoteOnEvent(tick=5660, channel=10, data=[67, 61]),\n",
       "   midi.NoteOnEvent(tick=5740, channel=10, data=[71, 0]),\n",
       "   midi.NoteOnEvent(tick=5744, channel=10, data=[67, 0]),\n",
       "   midi.NoteOnEvent(tick=5748, channel=10, data=[74, 0]),\n",
       "   midi.NoteOnEvent(tick=5752, channel=10, data=[67, 78]),\n",
       "   midi.NoteOnEvent(tick=5752, channel=10, data=[72, 29]),\n",
       "   midi.NoteOnEvent(tick=5752, channel=10, data=[60, 87]),\n",
       "   midi.NoteOnEvent(tick=5756, channel=10, data=[62, 0]),\n",
       "   midi.NoteOnEvent(tick=5756, channel=10, data=[64, 55]),\n",
       "   midi.NoteOnEvent(tick=5928, channel=10, data=[64, 0]),\n",
       "   midi.NoteOnEvent(tick=5932, channel=10, data=[67, 0]),\n",
       "   midi.NoteOnEvent(tick=5940, channel=10, data=[72, 0]),\n",
       "   midi.NoteOnEvent(tick=5944, channel=10, data=[74, 50]),\n",
       "   midi.NoteOnEvent(tick=5944, channel=10, data=[69, 87]),\n",
       "   midi.NoteOnEvent(tick=5944, channel=10, data=[66, 70]),\n",
       "   midi.NoteOnEvent(tick=5944, channel=10, data=[62, 70]),\n",
       "   midi.NoteOnEvent(tick=5948, channel=10, data=[60, 0]),\n",
       "   midi.NoteOnEvent(tick=6124, channel=10, data=[66, 0]),\n",
       "   midi.NoteOnEvent(tick=6124, channel=10, data=[69, 0]),\n",
       "   midi.NoteOnEvent(tick=6136, channel=10, data=[72, 78]),\n",
       "   midi.NoteOnEvent(tick=6136, channel=10, data=[60, 87]),\n",
       "   midi.NoteOnEvent(tick=6136, channel=10, data=[64, 70]),\n",
       "   midi.NoteOnEvent(tick=6140, channel=10, data=[74, 0]),\n",
       "   midi.NoteOnEvent(tick=6140, channel=10, data=[62, 0]),\n",
       "   midi.NoteOnEvent(tick=6140, channel=10, data=[67, 98]),\n",
       "   midi.NoteOnEvent(tick=6276, channel=10, data=[67, 0]),\n",
       "   midi.NoteOnEvent(tick=6276, channel=10, data=[64, 0]),\n",
       "   midi.NoteOnEvent(tick=6276, channel=10, data=[72, 0]),\n",
       "   midi.NoteOnEvent(tick=6284, channel=10, data=[60, 0]),\n",
       "   midi.NoteOnEvent(tick=6284, channel=10, data=[67, 70]),\n",
       "   midi.NoteOnEvent(tick=6284, channel=10, data=[71, 98]),\n",
       "   midi.NoteOnEvent(tick=6288, channel=10, data=[55, 87]),\n",
       "   midi.NoteOnEvent(tick=6500, channel=10, data=[55, 0]),\n",
       "   midi.NoteOnEvent(tick=6500, channel=10, data=[71, 0]),\n",
       "   midi.NoteOnEvent(tick=6500, channel=10, data=[67, 0]),\n",
       "   midi.NoteOnEvent(tick=9600, channel=10, data=[71, 87]),\n",
       "   midi.NoteOnEvent(tick=9600, channel=10, data=[55, 70]),\n",
       "   midi.NoteOnEvent(tick=9600, channel=10, data=[67, 37]),\n",
       "   midi.NoteOnEvent(tick=9732, channel=10, data=[71, 0]),\n",
       "   midi.NoteOnEvent(tick=9736, channel=10, data=[72, 78]),\n",
       "   midi.NoteOnEvent(tick=9736, channel=10, data=[69, 87]),\n",
       "   midi.NoteOnEvent(tick=9780, channel=10, data=[72, 0]),\n",
       "   midi.NoteOnEvent(tick=9784, channel=10, data=[71, 87]),\n",
       "   midi.NoteOnEvent(tick=9788, channel=10, data=[69, 0]),\n",
       "   midi.NoteOnEvent(tick=9788, channel=10, data=[74, 70]),\n",
       "   midi.NoteOnEvent(tick=9972, channel=10, data=[71, 0]),\n",
       "   midi.NoteOnEvent(tick=9972, channel=10, data=[67, 0]),\n",
       "   midi.NoteOnEvent(tick=9976, channel=10, data=[66, 78]),\n",
       "   midi.NoteOnEvent(tick=9976, channel=10, data=[62, 61]),\n",
       "   midi.NoteOnEvent(tick=9976, channel=10, data=[69, 78]),\n",
       "   midi.NoteOnEvent(tick=9980, channel=10, data=[55, 0]),\n",
       "   midi.NoteOnEvent(tick=10104, channel=10, data=[66, 0]),\n",
       "   midi.NoteOnEvent(tick=10116, channel=10, data=[69, 0]),\n",
       "   midi.NoteOnEvent(tick=10116, channel=10, data=[71, 78]),\n",
       "   midi.NoteOnEvent(tick=10116, channel=10, data=[67, 55]),\n",
       "   midi.NoteOnEvent(tick=10164, channel=10, data=[71, 0]),\n",
       "   midi.NoteOnEvent(tick=10168, channel=10, data=[69, 78]),\n",
       "   midi.NoteOnEvent(tick=10172, channel=10, data=[67, 0]),\n",
       "   midi.NoteOnEvent(tick=10172, channel=10, data=[72, 70]),\n",
       "   midi.NoteOnEvent(tick=10256, channel=10, data=[72, 0]),\n",
       "   midi.NoteOnEvent(tick=10264, channel=10, data=[69, 0]),\n",
       "   midi.NoteOnEvent(tick=10264, channel=10, data=[71, 78]),\n",
       "   midi.NoteOnEvent(tick=10264, channel=10, data=[67, 55]),\n",
       "   midi.NoteOnEvent(tick=10356, channel=10, data=[67, 0]),\n",
       "   midi.NoteOnEvent(tick=10356, channel=10, data=[71, 0]),\n",
       "   midi.NoteOnEvent(tick=10360, channel=10, data=[74, 0]),\n",
       "   midi.NoteOnEvent(tick=10364, channel=10, data=[72, 50]),\n",
       "   midi.NoteOnEvent(tick=10364, channel=10, data=[67, 78]),\n",
       "   midi.NoteOnEvent(tick=10364, channel=10, data=[60, 87]),\n",
       "   midi.NoteOnEvent(tick=10364, channel=10, data=[64, 61]),\n",
       "   midi.NoteOnEvent(tick=10368, channel=10, data=[62, 0]),\n",
       "   midi.NoteOnEvent(tick=10528, channel=10, data=[64, 0]),\n",
       "   midi.NoteOnEvent(tick=10536, channel=10, data=[67, 0]),\n",
       "   midi.NoteOnEvent(tick=10544, channel=10, data=[72, 0]),\n",
       "   midi.NoteOnEvent(tick=10548, channel=10, data=[66, 87]),\n",
       "   midi.NoteOnEvent(tick=10548, channel=10, data=[69, 78]),\n",
       "   midi.NoteOnEvent(tick=10552, channel=10, data=[60, 0]),\n",
       "   midi.NoteOnEvent(tick=10552, channel=10, data=[62, 78]),\n",
       "   midi.NoteOnEvent(tick=10552, channel=10, data=[74, 43]),\n",
       "   midi.PitchWheelEvent(tick=10640, channel=10, data=[0, 61]),\n",
       "   midi.NoteOnEvent(tick=10732, channel=10, data=[69, 0]),\n",
       "   midi.NoteOnEvent(tick=10732, channel=10, data=[66, 0]),\n",
       "   midi.NoteOnEvent(tick=10744, channel=10, data=[62, 0]),\n",
       "   midi.NoteOnEvent(tick=10744, channel=10, data=[74, 0]),\n",
       "   midi.NoteOnEvent(tick=10744, channel=10, data=[72, 78]),\n",
       "   midi.NoteOnEvent(tick=10744, channel=10, data=[60, 85]),\n",
       "   midi.NoteOnEvent(tick=10744, channel=10, data=[64, 70]),\n",
       "   midi.NoteOnEvent(tick=10744, channel=10, data=[67, 98]),\n",
       "   midi.PitchWheelEvent(tick=10748, channel=10, data=[0, 64]),\n",
       "   midi.PitchWheelEvent(tick=10764, channel=10, data=[0, 61]),\n",
       "   midi.PitchWheelEvent(tick=10768, channel=10, data=[0, 64]),\n",
       "   midi.NoteOnEvent(tick=10884, channel=10, data=[64, 0]),\n",
       "   midi.NoteOnEvent(tick=10888, channel=10, data=[72, 0]),\n",
       "   midi.NoteOnEvent(tick=10892, channel=10, data=[60, 0]),\n",
       "   midi.NoteOnEvent(tick=10892, channel=10, data=[71, 78]),\n",
       "   midi.NoteOnEvent(tick=10892, channel=10, data=[74, 70]),\n",
       "   midi.NoteOnEvent(tick=10896, channel=10, data=[55, 78]),\n",
       "   midi.PitchWheelEvent(tick=10996, channel=10, data=[0, 61]),\n",
       "   midi.NoteOnEvent(tick=11020, channel=10, data=[67, 0]),\n",
       "   midi.PitchWheelEvent(tick=11024, channel=10, data=[0, 64]),\n",
       "   midi.NoteOnEvent(tick=11028, channel=10, data=[71, 0]),\n",
       "   midi.NoteOnEvent(tick=11032, channel=10, data=[66, 70]),\n",
       "   midi.NoteOnEvent(tick=11032, channel=10, data=[69, 78]),\n",
       "   midi.NoteOnEvent(tick=11032, channel=10, data=[62, 78]),\n",
       "   midi.NoteOnEvent(tick=11036, channel=10, data=[55, 0]),\n",
       "   midi.NoteOnEvent(tick=11120, channel=10, data=[66, 0]),\n",
       "   midi.NoteOnEvent(tick=11132, channel=10, data=[62, 0]),\n",
       "   midi.NoteOnEvent(tick=11132, channel=10, data=[69, 0]),\n",
       "   midi.NoteOnEvent(tick=11132, channel=10, data=[71, 87]),\n",
       "   midi.NoteOnEvent(tick=11132, channel=10, data=[55, 87]),\n",
       "   midi.NoteOnEvent(tick=11132, channel=10, data=[67, 55]),\n",
       "   midi.PitchWheelEvent(tick=11224, channel=10, data=[0, 61]),\n",
       "   midi.NoteOnEvent(tick=11268, channel=10, data=[71, 0]),\n",
       "   midi.NoteOnEvent(tick=11272, channel=10, data=[72, 87]),\n",
       "   midi.NoteOnEvent(tick=11272, channel=10, data=[69, 78]),\n",
       "   midi.NoteOnEvent(tick=11276, channel=10, data=[67, 0]),\n",
       "   midi.PitchWheelEvent(tick=11304, channel=10, data=[0, 64]),\n",
       "   midi.NoteOnEvent(tick=11320, channel=10, data=[72, 0]),\n",
       "   midi.NoteOnEvent(tick=11324, channel=10, data=[69, 0]),\n",
       "   midi.NoteOnEvent(tick=11324, channel=10, data=[71, 78]),\n",
       "   midi.NoteOnEvent(tick=11324, channel=10, data=[67, 55]),\n",
       "   midi.PitchWheelEvent(tick=11416, channel=10, data=[0, 59]),\n",
       "   midi.PitchWheelEvent(tick=11420, channel=10, data=[0, 64]),\n",
       "   midi.NoteOnEvent(tick=11428, channel=10, data=[71, 0]),\n",
       "   midi.NoteOnEvent(tick=11428, channel=10, data=[69, 78]),\n",
       "   midi.NoteOnEvent(tick=11428, channel=10, data=[72, 87]),\n",
       "   midi.NoteOnEvent(tick=11432, channel=10, data=[67, 0]),\n",
       "   midi.PitchWheelEvent(tick=11436, channel=10, data=[0, 59]),\n",
       "   midi.PitchWheelEvent(tick=11440, channel=10, data=[0, 64]),\n",
       "   midi.NoteOnEvent(tick=11468, channel=10, data=[71, 87]),\n",
       "   midi.NoteOnEvent(tick=11468, channel=10, data=[67, 46]),\n",
       "   midi.NoteOnEvent(tick=11472, channel=10, data=[69, 0]),\n",
       "   midi.NoteOnEvent(tick=11480, channel=10, data=[72, 0]),\n",
       "   midi.NoteOnEvent(tick=11508, channel=10, data=[67, 0]),\n",
       "   midi.NoteOnEvent(tick=11512, channel=10, data=[55, 0]),\n",
       "   midi.NoteOnEvent(tick=11512, channel=10, data=[71, 0]),\n",
       "   midi.NoteOnEvent(tick=11512, channel=10, data=[69, 87]),\n",
       "   midi.NoteOnEvent(tick=11512, channel=10, data=[62, 78]),\n",
       "   midi.NoteOnEvent(tick=11512, channel=10, data=[66, 87]),\n",
       "   midi.NoteOnEvent(tick=11636, channel=10, data=[66, 0]),\n",
       "   midi.NoteOnEvent(tick=11644, channel=10, data=[69, 0]),\n",
       "   midi.PitchWheelEvent(tick=11644, channel=10, data=[0, 60]),\n",
       "   midi.PitchWheelEvent(tick=11644, channel=10, data=[0, 64]),\n",
       "   midi.NoteOnEvent(tick=11652, channel=10, data=[71, 78]),\n",
       "   midi.NoteOnEvent(tick=11652, channel=10, data=[67, 55]),\n",
       "   midi.NoteOnEvent(tick=11700, channel=10, data=[71, 0]),\n",
       "   midi.NoteOnEvent(tick=11704, channel=10, data=[67, 0]),\n",
       "   midi.NoteOnEvent(tick=11704, channel=10, data=[72, 55]),\n",
       "   midi.NoteOnEvent(tick=11704, channel=10, data=[69, 78]),\n",
       "   midi.NoteOnEvent(tick=11796, channel=10, data=[72, 0]),\n",
       "   midi.NoteOnEvent(tick=11800, channel=10, data=[69, 0]),\n",
       "   midi.NoteOnEvent(tick=11800, channel=10, data=[71, 87]),\n",
       "   midi.NoteOnEvent(tick=11804, channel=10, data=[67, 61]),\n",
       "   midi.NoteOnEvent(tick=11884, channel=10, data=[71, 0]),\n",
       "   midi.NoteOnEvent(tick=11888, channel=10, data=[67, 0]),\n",
       "   midi.NoteOnEvent(tick=11892, channel=10, data=[74, 0]),\n",
       "   midi.NoteOnEvent(tick=11896, channel=10, data=[67, 78]),\n",
       "   midi.NoteOnEvent(tick=11896, channel=10, data=[72, 29]),\n",
       "   midi.NoteOnEvent(tick=11896, channel=10, data=[60, 87]),\n",
       "   midi.NoteOnEvent(tick=11900, channel=10, data=[62, 0]),\n",
       "   midi.NoteOnEvent(tick=11900, channel=10, data=[64, 55]),\n",
       "   midi.NoteOnEvent(tick=12072, channel=10, data=[64, 0]),\n",
       "   midi.NoteOnEvent(tick=12076, channel=10, data=[67, 0]),\n",
       "   midi.NoteOnEvent(tick=12084, channel=10, data=[72, 0]),\n",
       "   midi.NoteOnEvent(tick=12088, channel=10, data=[74, 50]),\n",
       "   midi.NoteOnEvent(tick=12088, channel=10, data=[69, 87]),\n",
       "   midi.NoteOnEvent(tick=12088, channel=10, data=[66, 70]),\n",
       "   midi.NoteOnEvent(tick=12088, channel=10, data=[62, 70]),\n",
       "   midi.NoteOnEvent(tick=12092, channel=10, data=[60, 0]),\n",
       "   midi.NoteOnEvent(tick=12268, channel=10, data=[66, 0]),\n",
       "   midi.NoteOnEvent(tick=12268, channel=10, data=[69, 0]),\n",
       "   midi.NoteOnEvent(tick=12280, channel=10, data=[72, 78]),\n",
       "   midi.NoteOnEvent(tick=12280, channel=10, data=[60, 87]),\n",
       "   midi.NoteOnEvent(tick=12280, channel=10, data=[64, 70]),\n",
       "   midi.NoteOnEvent(tick=12284, channel=10, data=[74, 0]),\n",
       "   midi.NoteOnEvent(tick=12284, channel=10, data=[62, 0]),\n",
       "   midi.NoteOnEvent(tick=12284, channel=10, data=[67, 98]),\n",
       "   midi.NoteOnEvent(tick=12420, channel=10, data=[67, 0]),\n",
       "   midi.NoteOnEvent(tick=12420, channel=10, data=[64, 0]),\n",
       "   midi.NoteOnEvent(tick=12420, channel=10, data=[72, 0]),\n",
       "   midi.NoteOnEvent(tick=12428, channel=10, data=[60, 0]),\n",
       "   midi.NoteOnEvent(tick=12428, channel=10, data=[67, 70]),\n",
       "   midi.NoteOnEvent(tick=12428, channel=10, data=[71, 98]),\n",
       "   midi.NoteOnEvent(tick=12432, channel=10, data=[55, 87]),\n",
       "   midi.NoteOnEvent(tick=12644, channel=10, data=[55, 0]),\n",
       "   midi.NoteOnEvent(tick=12644, channel=10, data=[71, 0]),\n",
       "   midi.NoteOnEvent(tick=12644, channel=10, data=[67, 0]),\n",
       "   midi.NoteOnEvent(tick=20736, channel=10, data=[71, 87]),\n",
       "   midi.NoteOnEvent(tick=20736, channel=10, data=[55, 70]),\n",
       "   midi.NoteOnEvent(tick=20736, channel=10, data=[67, 37]),\n",
       "   midi.NoteOnEvent(tick=20868, channel=10, data=[71, 0]),\n",
       "   midi.NoteOnEvent(tick=20872, channel=10, data=[72, 78]),\n",
       "   midi.NoteOnEvent(tick=20872, channel=10, data=[69, 87]),\n",
       "   midi.NoteOnEvent(tick=20916, channel=10, data=[72, 0]),\n",
       "   midi.NoteOnEvent(tick=20920, channel=10, data=[71, 87]),\n",
       "   midi.NoteOnEvent(tick=20924, channel=10, data=[69, 0]),\n",
       "   midi.NoteOnEvent(tick=20924, channel=10, data=[74, 70]),\n",
       "   midi.NoteOnEvent(tick=21108, channel=10, data=[71, 0]),\n",
       "   midi.NoteOnEvent(tick=21108, channel=10, data=[67, 0]),\n",
       "   midi.NoteOnEvent(tick=21112, channel=10, data=[66, 78]),\n",
       "   midi.NoteOnEvent(tick=21112, channel=10, data=[62, 61]),\n",
       "   midi.NoteOnEvent(tick=21112, channel=10, data=[69, 78]),\n",
       "   midi.NoteOnEvent(tick=21116, channel=10, data=[55, 0]),\n",
       "   midi.NoteOnEvent(tick=21240, channel=10, data=[66, 0]),\n",
       "   midi.NoteOnEvent(tick=21252, channel=10, data=[69, 0]),\n",
       "   midi.NoteOnEvent(tick=21252, channel=10, data=[71, 78]),\n",
       "   midi.NoteOnEvent(tick=21252, channel=10, data=[67, 55]),\n",
       "   midi.NoteOnEvent(tick=21300, channel=10, data=[71, 0]),\n",
       "   midi.NoteOnEvent(tick=21304, channel=10, data=[69, 78]),\n",
       "   midi.NoteOnEvent(tick=21308, channel=10, data=[67, 0]),\n",
       "   midi.NoteOnEvent(tick=21308, channel=10, data=[72, 70]),\n",
       "   midi.NoteOnEvent(tick=21392, channel=10, data=[72, 0]),\n",
       "   midi.NoteOnEvent(tick=21400, channel=10, data=[69, 0]),\n",
       "   midi.NoteOnEvent(tick=21400, channel=10, data=[71, 78]),\n",
       "   midi.NoteOnEvent(tick=21400, channel=10, data=[67, 55]),\n",
       "   midi.NoteOnEvent(tick=21492, channel=10, data=[67, 0]),\n",
       "   midi.NoteOnEvent(tick=21492, channel=10, data=[71, 0]),\n",
       "   midi.NoteOnEvent(tick=21496, channel=10, data=[74, 0]),\n",
       "   midi.NoteOnEvent(tick=21500, channel=10, data=[72, 50]),\n",
       "   midi.NoteOnEvent(tick=21500, channel=10, data=[67, 78]),\n",
       "   midi.NoteOnEvent(tick=21500, channel=10, data=[60, 87]),\n",
       "   midi.NoteOnEvent(tick=21500, channel=10, data=[64, 61]),\n",
       "   midi.NoteOnEvent(tick=21504, channel=10, data=[62, 0]),\n",
       "   midi.NoteOnEvent(tick=21664, channel=10, data=[64, 0]),\n",
       "   midi.NoteOnEvent(tick=21672, channel=10, data=[67, 0]),\n",
       "   midi.NoteOnEvent(tick=21680, channel=10, data=[72, 0]),\n",
       "   midi.NoteOnEvent(tick=21684, channel=10, data=[66, 87]),\n",
       "   midi.NoteOnEvent(tick=21684, channel=10, data=[69, 78]),\n",
       "   midi.NoteOnEvent(tick=21688, channel=10, data=[60, 0]),\n",
       "   midi.NoteOnEvent(tick=21688, channel=10, data=[62, 78]),\n",
       "   midi.NoteOnEvent(tick=21688, channel=10, data=[74, 43]),\n",
       "   midi.PitchWheelEvent(tick=21776, channel=10, data=[0, 61]),\n",
       "   midi.NoteOnEvent(tick=21868, channel=10, data=[69, 0]),\n",
       "   midi.NoteOnEvent(tick=21868, channel=10, data=[66, 0]),\n",
       "   midi.NoteOnEvent(tick=21880, channel=10, data=[62, 0]),\n",
       "   midi.NoteOnEvent(tick=21880, channel=10, data=[74, 0]),\n",
       "   midi.NoteOnEvent(tick=21880, channel=10, data=[72, 78]),\n",
       "   midi.NoteOnEvent(tick=21880, channel=10, data=[60, 85]),\n",
       "   midi.NoteOnEvent(tick=21880, channel=10, data=[64, 70]),\n",
       "   midi.NoteOnEvent(tick=21880, channel=10, data=[67, 98]),\n",
       "   midi.PitchWheelEvent(tick=21884, channel=10, data=[0, 64]),\n",
       "   midi.PitchWheelEvent(tick=21900, channel=10, data=[0, 61]),\n",
       "   midi.PitchWheelEvent(tick=21904, channel=10, data=[0, 64]),\n",
       "   midi.NoteOnEvent(tick=22020, channel=10, data=[64, 0]),\n",
       "   midi.NoteOnEvent(tick=22024, channel=10, data=[72, 0]),\n",
       "   midi.NoteOnEvent(tick=22028, channel=10, data=[60, 0]),\n",
       "   midi.NoteOnEvent(tick=22028, channel=10, data=[71, 78]),\n",
       "   midi.NoteOnEvent(tick=22028, channel=10, data=[74, 70]),\n",
       "   midi.NoteOnEvent(tick=22032, channel=10, data=[55, 78]),\n",
       "   midi.PitchWheelEvent(tick=22132, channel=10, data=[0, 61]),\n",
       "   midi.NoteOnEvent(tick=22156, channel=10, data=[67, 0]),\n",
       "   midi.PitchWheelEvent(tick=22160, channel=10, data=[0, 64]),\n",
       "   midi.NoteOnEvent(tick=22164, channel=10, data=[71, 0]),\n",
       "   midi.NoteOnEvent(tick=22168, channel=10, data=[66, 70]),\n",
       "   midi.NoteOnEvent(tick=22168, channel=10, data=[69, 78]),\n",
       "   midi.NoteOnEvent(tick=22168, channel=10, data=[62, 78]),\n",
       "   midi.NoteOnEvent(tick=22172, channel=10, data=[55, 0]),\n",
       "   midi.NoteOnEvent(tick=22256, channel=10, data=[66, 0]),\n",
       "   midi.NoteOnEvent(tick=22268, channel=10, data=[62, 0]),\n",
       "   midi.NoteOnEvent(tick=22268, channel=10, data=[69, 0]),\n",
       "   midi.NoteOnEvent(tick=22268, channel=10, data=[71, 87]),\n",
       "   midi.NoteOnEvent(tick=22268, channel=10, data=[55, 87]),\n",
       "   midi.NoteOnEvent(tick=22268, channel=10, data=[67, 55]),\n",
       "   midi.PitchWheelEvent(tick=22360, channel=10, data=[0, 61]),\n",
       "   midi.NoteOnEvent(tick=22404, channel=10, data=[71, 0]),\n",
       "   midi.NoteOnEvent(tick=22408, channel=10, data=[72, 87]),\n",
       "   midi.NoteOnEvent(tick=22408, channel=10, data=[69, 78]),\n",
       "   midi.NoteOnEvent(tick=22412, channel=10, data=[67, 0]),\n",
       "   midi.PitchWheelEvent(tick=22440, channel=10, data=[0, 64]),\n",
       "   midi.NoteOnEvent(tick=22456, channel=10, data=[72, 0]),\n",
       "   midi.NoteOnEvent(tick=22460, channel=10, data=[69, 0]),\n",
       "   midi.NoteOnEvent(tick=22460, channel=10, data=[71, 78]),\n",
       "   midi.NoteOnEvent(tick=22460, channel=10, data=[67, 55]),\n",
       "   midi.PitchWheelEvent(tick=22552, channel=10, data=[0, 59]),\n",
       "   midi.PitchWheelEvent(tick=22556, channel=10, data=[0, 64]),\n",
       "   midi.NoteOnEvent(tick=22564, channel=10, data=[71, 0]),\n",
       "   midi.NoteOnEvent(tick=22564, channel=10, data=[69, 78]),\n",
       "   midi.NoteOnEvent(tick=22564, channel=10, data=[72, 87]),\n",
       "   midi.NoteOnEvent(tick=22568, channel=10, data=[67, 0]),\n",
       "   midi.PitchWheelEvent(tick=22572, channel=10, data=[0, 59]),\n",
       "   midi.PitchWheelEvent(tick=22576, channel=10, data=[0, 64]),\n",
       "   midi.NoteOnEvent(tick=22604, channel=10, data=[71, 87]),\n",
       "   midi.NoteOnEvent(tick=22604, channel=10, data=[67, 46]),\n",
       "   midi.NoteOnEvent(tick=22608, channel=10, data=[69, 0]),\n",
       "   midi.NoteOnEvent(tick=22616, channel=10, data=[72, 0]),\n",
       "   midi.NoteOnEvent(tick=22644, channel=10, data=[67, 0]),\n",
       "   midi.NoteOnEvent(tick=22648, channel=10, data=[55, 0]),\n",
       "   midi.NoteOnEvent(tick=22648, channel=10, data=[71, 0]),\n",
       "   midi.NoteOnEvent(tick=22648, channel=10, data=[69, 87]),\n",
       "   midi.NoteOnEvent(tick=22648, channel=10, data=[62, 78]),\n",
       "   midi.NoteOnEvent(tick=22648, channel=10, data=[66, 87]),\n",
       "   midi.NoteOnEvent(tick=22772, channel=10, data=[66, 0]),\n",
       "   midi.NoteOnEvent(tick=22780, channel=10, data=[69, 0]),\n",
       "   midi.PitchWheelEvent(tick=22780, channel=10, data=[0, 60]),\n",
       "   midi.PitchWheelEvent(tick=22780, channel=10, data=[0, 64]),\n",
       "   midi.NoteOnEvent(tick=22788, channel=10, data=[71, 78]),\n",
       "   midi.NoteOnEvent(tick=22788, channel=10, data=[67, 55]),\n",
       "   midi.NoteOnEvent(tick=22836, channel=10, data=[71, 0]),\n",
       "   midi.NoteOnEvent(tick=22840, channel=10, data=[67, 0]),\n",
       "   midi.NoteOnEvent(tick=22840, channel=10, data=[72, 55]),\n",
       "   midi.NoteOnEvent(tick=22840, channel=10, data=[69, 78]),\n",
       "   midi.NoteOnEvent(tick=22932, channel=10, data=[72, 0]),\n",
       "   midi.NoteOnEvent(tick=22936, channel=10, data=[69, 0]),\n",
       "   midi.NoteOnEvent(tick=22936, channel=10, data=[71, 87]),\n",
       "   midi.NoteOnEvent(tick=22940, channel=10, data=[67, 61]),\n",
       "   midi.NoteOnEvent(tick=23020, channel=10, data=[71, 0]),\n",
       "   midi.NoteOnEvent(tick=23024, channel=10, data=[67, 0]),\n",
       "   midi.NoteOnEvent(tick=23028, channel=10, data=[74, 0]),\n",
       "   midi.NoteOnEvent(tick=23032, channel=10, data=[67, 78]),\n",
       "   midi.NoteOnEvent(tick=23032, channel=10, data=[72, 29]),\n",
       "   midi.NoteOnEvent(tick=23032, channel=10, data=[60, 87]),\n",
       "   midi.NoteOnEvent(tick=23036, channel=10, data=[62, 0]),\n",
       "   midi.NoteOnEvent(tick=23036, channel=10, data=[64, 55]),\n",
       "   midi.NoteOnEvent(tick=23208, channel=10, data=[64, 0]),\n",
       "   midi.NoteOnEvent(tick=23212, channel=10, data=[67, 0]),\n",
       "   midi.NoteOnEvent(tick=23220, channel=10, data=[72, 0]),\n",
       "   midi.NoteOnEvent(tick=23224, channel=10, data=[74, 50]),\n",
       "   midi.NoteOnEvent(tick=23224, channel=10, data=[69, 87]),\n",
       "   midi.NoteOnEvent(tick=23224, channel=10, data=[66, 70]),\n",
       "   midi.NoteOnEvent(tick=23224, channel=10, data=[62, 70]),\n",
       "   midi.NoteOnEvent(tick=23228, channel=10, data=[60, 0]),\n",
       "   midi.NoteOnEvent(tick=23404, channel=10, data=[66, 0]),\n",
       "   midi.NoteOnEvent(tick=23404, channel=10, data=[69, 0]),\n",
       "   midi.NoteOnEvent(tick=23416, channel=10, data=[72, 78]),\n",
       "   midi.NoteOnEvent(tick=23416, channel=10, data=[60, 87]),\n",
       "   midi.NoteOnEvent(tick=23416, channel=10, data=[64, 70]),\n",
       "   midi.NoteOnEvent(tick=23420, channel=10, data=[74, 0]),\n",
       "   midi.NoteOnEvent(tick=23420, channel=10, data=[62, 0]),\n",
       "   midi.NoteOnEvent(tick=23420, channel=10, data=[67, 98]),\n",
       "   midi.NoteOnEvent(tick=23556, channel=10, data=[67, 0]),\n",
       "   midi.NoteOnEvent(tick=23556, channel=10, data=[64, 0]),\n",
       "   midi.NoteOnEvent(tick=23556, channel=10, data=[72, 0]),\n",
       "   midi.NoteOnEvent(tick=23564, channel=10, data=[60, 0]),\n",
       "   midi.NoteOnEvent(tick=23564, channel=10, data=[67, 70]),\n",
       "   midi.NoteOnEvent(tick=23564, channel=10, data=[71, 98]),\n",
       "   midi.NoteOnEvent(tick=23568, channel=10, data=[55, 87]),\n",
       "   midi.NoteOnEvent(tick=23780, channel=10, data=[55, 0]),\n",
       "   midi.NoteOnEvent(tick=23780, channel=10, data=[71, 0]),\n",
       "   midi.NoteOnEvent(tick=23780, channel=10, data=[67, 0]),\n",
       "   midi.PitchWheelEvent(tick=29952, channel=10, data=[0, 64]),\n",
       "   midi.PitchWheelEvent(tick=30232, channel=10, data=[0, 59]),\n",
       "   midi.PitchWheelEvent(tick=30240, channel=10, data=[0, 64]),\n",
       "   midi.NoteOnEvent(tick=31484, channel=10, data=[72, 98]),\n",
       "   midi.NoteOnEvent(tick=31484, channel=10, data=[79, 98]),\n",
       "   midi.PitchWheelEvent(tick=32332, channel=10, data=[0, 58]),\n",
       "   midi.PitchWheelEvent(tick=32340, channel=10, data=[0, 64]),\n",
       "   midi.PitchWheelEvent(tick=32760, channel=10, data=[0, 59]),\n",
       "   midi.PitchWheelEvent(tick=32776, channel=10, data=[0, 64]),\n",
       "   midi.NoteOnEvent(tick=32984, channel=10, data=[72, 0]),\n",
       "   midi.NoteOnEvent(tick=33024, channel=10, data=[71, 87]),\n",
       "   midi.NoteOnEvent(tick=33788, channel=10, data=[71, 0]),\n",
       "   midi.NoteOnEvent(tick=33788, channel=10, data=[79, 0]),\n",
       "   midi.EndOfTrackEvent(tick=33788, data=[])])])"
      ]
     },
     "execution_count": 32,
     "metadata": {},
     "output_type": "execute_result"
    }
   ],
   "source": [
    "pattern"
   ]
  },
  {
   "cell_type": "code",
   "execution_count": 34,
   "metadata": {},
   "outputs": [
    {
     "data": {
      "text/plain": [
       "33796"
      ]
     },
     "execution_count": 34,
     "metadata": {},
     "output_type": "execute_result"
    }
   ],
   "source": [
    "endTick"
   ]
  },
  {
   "cell_type": "code",
   "execution_count": 16,
   "metadata": {},
   "outputs": [],
   "source": [
    "data=pd.read_csv(\"Test/009count.mid.csv\")\n",
    "endTick = max(data[\"tick\"])"
   ]
  },
  {
   "cell_type": "code",
   "execution_count": 36,
   "metadata": {},
   "outputs": [
    {
     "data": {
      "text/plain": [
       "352.04166666666669"
      ]
     },
     "execution_count": 36,
     "metadata": {},
     "output_type": "execute_result"
    }
   ],
   "source": [
    "endTick/float(pattern.resolution)"
   ]
  },
  {
   "cell_type": "code",
   "execution_count": 37,
   "metadata": {},
   "outputs": [
    {
     "data": {
      "text/plain": [
       "351.9583333333333"
      ]
     },
     "execution_count": 37,
     "metadata": {},
     "output_type": "execute_result"
    }
   ],
   "source": [
    "33788/float(pattern.resolution)"
   ]
  },
  {
   "cell_type": "code",
   "execution_count": 68,
   "metadata": {
    "collapsed": true
   },
   "outputs": [],
   "source": [
    "super_constants=[]\n",
    "def f(midiName):\n",
    "    y, sr = librosa.load(\"wavs/\"+midiName+\".wav\")\n",
    "    pattern = midi.read_midifile(\"midies_flat/\"+midiName)\n",
    "    data=pd.read_csv(\"csvs/\"+midiName+\".csv\")\n",
    "    endTick = max(data[\"tick\"])\n",
    "    super_constatnts.append([len(y)*float(sr),endTick])"
   ]
  },
  {
   "cell_type": "code",
   "execution_count": null,
   "metadata": {},
   "outputs": [
    {
     "ename": "ValueError",
     "evalue": "max() arg is an empty sequence",
     "output_type": "error",
     "traceback": [
      "\u001b[0;31m\u001b[0m",
      "\u001b[0;31mValueError\u001b[0mTraceback (most recent call last)",
      "\u001b[0;32m<ipython-input-69-9a6d82ca6b18>\u001b[0m in \u001b[0;36m<module>\u001b[0;34m()\u001b[0m\n\u001b[1;32m      1\u001b[0m \u001b[0;32mfor\u001b[0m \u001b[0mfile\u001b[0m \u001b[0;32min\u001b[0m \u001b[0mos\u001b[0m\u001b[0;34m.\u001b[0m\u001b[0mlistdir\u001b[0m\u001b[0;34m(\u001b[0m\u001b[0;34m\"wavs/\"\u001b[0m\u001b[0;34m)\u001b[0m\u001b[0;34m:\u001b[0m\u001b[0;34m\u001b[0m\u001b[0m\n\u001b[1;32m      2\u001b[0m     \u001b[0;32mif\u001b[0m\u001b[0;34m(\u001b[0m\u001b[0;34m(\u001b[0m\u001b[0mfile\u001b[0m\u001b[0;34m[\u001b[0m\u001b[0;34m:\u001b[0m\u001b[0;34m-\u001b[0m\u001b[0;36m4\u001b[0m\u001b[0;34m]\u001b[0m\u001b[0;34m+\u001b[0m\u001b[0;34m\".csv\"\u001b[0m\u001b[0;34m)\u001b[0m \u001b[0;32min\u001b[0m \u001b[0mos\u001b[0m\u001b[0;34m.\u001b[0m\u001b[0mlistdir\u001b[0m\u001b[0;34m(\u001b[0m\u001b[0;34m\"csvs/\"\u001b[0m\u001b[0;34m)\u001b[0m\u001b[0;34m)\u001b[0m\u001b[0;34m:\u001b[0m\u001b[0;34m\u001b[0m\u001b[0m\n\u001b[0;32m----> 3\u001b[0;31m         \u001b[0mf\u001b[0m\u001b[0;34m(\u001b[0m\u001b[0mfile\u001b[0m\u001b[0;34m[\u001b[0m\u001b[0;34m:\u001b[0m\u001b[0;34m-\u001b[0m\u001b[0;36m4\u001b[0m\u001b[0;34m]\u001b[0m\u001b[0;34m)\u001b[0m\u001b[0;34m\u001b[0m\u001b[0m\n\u001b[0m",
      "\u001b[0;32m<ipython-input-68-1a46970f96b3>\u001b[0m in \u001b[0;36mf\u001b[0;34m(midiName)\u001b[0m\n\u001b[1;32m      4\u001b[0m     \u001b[0mpattern\u001b[0m \u001b[0;34m=\u001b[0m \u001b[0mmidi\u001b[0m\u001b[0;34m.\u001b[0m\u001b[0mread_midifile\u001b[0m\u001b[0;34m(\u001b[0m\u001b[0;34m\"midies_flat/\"\u001b[0m\u001b[0;34m+\u001b[0m\u001b[0mmidiName\u001b[0m\u001b[0;34m)\u001b[0m\u001b[0;34m\u001b[0m\u001b[0m\n\u001b[1;32m      5\u001b[0m     \u001b[0mdata\u001b[0m\u001b[0;34m=\u001b[0m\u001b[0mpd\u001b[0m\u001b[0;34m.\u001b[0m\u001b[0mread_csv\u001b[0m\u001b[0;34m(\u001b[0m\u001b[0;34m\"csvs/\"\u001b[0m\u001b[0;34m+\u001b[0m\u001b[0mmidiName\u001b[0m\u001b[0;34m+\u001b[0m\u001b[0;34m\".csv\"\u001b[0m\u001b[0;34m)\u001b[0m\u001b[0;34m\u001b[0m\u001b[0m\n\u001b[0;32m----> 6\u001b[0;31m     \u001b[0mendTick\u001b[0m \u001b[0;34m=\u001b[0m \u001b[0mmax\u001b[0m\u001b[0;34m(\u001b[0m\u001b[0mdata\u001b[0m\u001b[0;34m[\u001b[0m\u001b[0;34m\"tick\"\u001b[0m\u001b[0;34m]\u001b[0m\u001b[0;34m)\u001b[0m\u001b[0;34m\u001b[0m\u001b[0m\n\u001b[0m\u001b[1;32m      7\u001b[0m     \u001b[0msuper_constatnts\u001b[0m\u001b[0;34m.\u001b[0m\u001b[0mappend\u001b[0m\u001b[0;34m(\u001b[0m\u001b[0;34m[\u001b[0m\u001b[0mlen\u001b[0m\u001b[0;34m(\u001b[0m\u001b[0my\u001b[0m\u001b[0;34m)\u001b[0m\u001b[0;34m*\u001b[0m\u001b[0mfloat\u001b[0m\u001b[0;34m(\u001b[0m\u001b[0msr\u001b[0m\u001b[0;34m)\u001b[0m\u001b[0;34m,\u001b[0m\u001b[0mendTick\u001b[0m\u001b[0;34m]\u001b[0m\u001b[0;34m)\u001b[0m\u001b[0;34m\u001b[0m\u001b[0m\n",
      "\u001b[0;31mValueError\u001b[0m: max() arg is an empty sequence"
     ]
    }
   ],
   "source": [
    "for file in os.listdir(\"wavs/\"):\n",
    "    if((file[:-4]+\".csv\") in os.listdir(\"csvs/\")):\n",
    "        f(file[:-4])"
   ]
  },
  {
   "cell_type": "code",
   "execution_count": null,
   "metadata": {},
   "outputs": [],
   "source": [
    "super_constants\n",
    "#  ,     midi?"
   ]
  },
  {
   "cell_type": "code",
   "execution_count": null,
   "metadata": {
    "collapsed": true
   },
   "outputs": [],
   "source": [
    "#              "
   ]
  },
  {
   "cell_type": "code",
   "execution_count": 63,
   "metadata": {
    "collapsed": true
   },
   "outputs": [],
   "source": [
    "#5 sec          "
   ]
  }
 ],
 "metadata": {
  "kernelspec": {
   "display_name": "Python 2",
   "language": "python",
   "name": "python2"
  },
  "language_info": {
   "codemirror_mode": {
    "name": "ipython",
    "version": 2
   },
   "file_extension": ".py",
   "mimetype": "text/x-python",
   "name": "python",
   "nbconvert_exporter": "python",
   "pygments_lexer": "ipython2",
   "version": "2.7.13"
  }
 },
 "nbformat": 4,
 "nbformat_minor": 2
}
